G04 EAGLE Gerber RS-274X export*
G75*
%MOMM*%
%FSLAX34Y34*%
%LPD*%
%INSoldermask Top*%
%IPPOS*%
%AMOC8*
5,1,8,0,0,1.08239X$1,22.5*%
G01*
%ADD10C,2.387600*%
%ADD11R,2.703200X4.203200*%
%ADD12R,1.203200X1.303200*%
%ADD13R,1.603200X2.403200*%
%ADD14P,2.309387X8X22.500000*%
%ADD15P,2.309387X8X202.500000*%
%ADD16C,2.003200*%
%ADD17R,0.903200X1.053200*%
%ADD18R,0.838200X1.473200*%
%ADD19R,1.003200X1.003200*%
%ADD20C,1.727200*%
%ADD21R,2.203200X2.003200*%
%ADD22R,2.203200X1.203200*%
%ADD23C,1.727200*%
%ADD24R,2.533200X1.573200*%
%ADD25R,1.503200X1.303200*%
%ADD26R,1.303200X1.203200*%
%ADD27R,1.053200X0.903200*%
%ADD28R,1.653200X0.503200*%
%ADD29R,1.653200X0.803200*%
%ADD30R,1.653200X0.753200*%
%ADD31C,0.853200*%
%ADD32R,5.703200X1.203200*%
%ADD33R,3.203200X1.803200*%
%ADD34R,4.803200X1.203200*%
%ADD35R,3.603200X1.803200*%
%ADD36R,0.403200X0.703200*%
%ADD37P,2.309387X8X292.500000*%
%ADD38R,1.113200X1.423200*%

G36*
X73004Y107004D02*
X73004Y107004D01*
X73007Y107001D01*
X74129Y107156D01*
X74134Y107161D01*
X74138Y107158D01*
X75209Y107529D01*
X75213Y107535D01*
X75218Y107533D01*
X76195Y108106D01*
X76198Y108112D01*
X76203Y108111D01*
X77050Y108864D01*
X77052Y108871D01*
X77057Y108871D01*
X77741Y109774D01*
X77741Y109781D01*
X77746Y109782D01*
X78241Y110801D01*
X78239Y110808D01*
X78244Y110810D01*
X78531Y111907D01*
X78529Y111911D01*
X78531Y111912D01*
X78529Y111914D01*
X78532Y111916D01*
X78599Y113047D01*
X78597Y113051D01*
X78599Y113053D01*
X78532Y114184D01*
X78527Y114189D01*
X78531Y114193D01*
X78244Y115290D01*
X78238Y115294D01*
X78241Y115299D01*
X77746Y116318D01*
X77740Y116321D01*
X77741Y116326D01*
X77057Y117229D01*
X77050Y117231D01*
X77050Y117236D01*
X76203Y117989D01*
X76196Y117989D01*
X76195Y117994D01*
X75218Y118567D01*
X75211Y118566D01*
X75209Y118571D01*
X74138Y118942D01*
X74132Y118939D01*
X74129Y118944D01*
X73007Y119099D01*
X73002Y119096D01*
X73000Y119099D01*
X61000Y119099D01*
X60995Y119096D01*
X60992Y119099D01*
X59725Y118894D01*
X59719Y118888D01*
X59715Y118891D01*
X58525Y118409D01*
X58521Y118402D01*
X58515Y118404D01*
X57462Y117670D01*
X57460Y117662D01*
X57454Y117663D01*
X56591Y116713D01*
X56590Y116704D01*
X56585Y116704D01*
X55955Y115585D01*
X55956Y115577D01*
X55950Y115575D01*
X55585Y114345D01*
X55588Y114337D01*
X55583Y114334D01*
X55501Y113053D01*
X55504Y113049D01*
X55501Y113047D01*
X55583Y111766D01*
X55589Y111760D01*
X55585Y111755D01*
X55950Y110525D01*
X55957Y110520D01*
X55955Y110515D01*
X56585Y109396D01*
X56592Y109393D01*
X56591Y109387D01*
X57454Y108437D01*
X57462Y108436D01*
X57462Y108430D01*
X58515Y107696D01*
X58523Y107696D01*
X58525Y107691D01*
X59715Y107209D01*
X59722Y107211D01*
X59725Y107206D01*
X60992Y107001D01*
X60997Y107004D01*
X61000Y107001D01*
X73000Y107001D01*
X73004Y107004D01*
G37*
G36*
X73004Y20604D02*
X73004Y20604D01*
X73007Y20601D01*
X74129Y20756D01*
X74134Y20761D01*
X74138Y20758D01*
X75209Y21129D01*
X75213Y21135D01*
X75218Y21133D01*
X76195Y21706D01*
X76198Y21712D01*
X76203Y21711D01*
X77050Y22464D01*
X77052Y22471D01*
X77057Y22471D01*
X77741Y23374D01*
X77741Y23381D01*
X77746Y23382D01*
X78241Y24401D01*
X78239Y24408D01*
X78244Y24410D01*
X78531Y25507D01*
X78529Y25511D01*
X78531Y25512D01*
X78529Y25514D01*
X78532Y25516D01*
X78599Y26647D01*
X78597Y26651D01*
X78599Y26653D01*
X78532Y27784D01*
X78527Y27789D01*
X78531Y27793D01*
X78244Y28890D01*
X78238Y28894D01*
X78241Y28899D01*
X77746Y29918D01*
X77740Y29921D01*
X77741Y29926D01*
X77057Y30829D01*
X77050Y30831D01*
X77050Y30836D01*
X76203Y31589D01*
X76196Y31589D01*
X76195Y31594D01*
X75218Y32167D01*
X75211Y32166D01*
X75209Y32171D01*
X74138Y32542D01*
X74132Y32539D01*
X74129Y32544D01*
X73007Y32699D01*
X73002Y32696D01*
X73000Y32699D01*
X61000Y32699D01*
X60995Y32696D01*
X60992Y32699D01*
X59725Y32494D01*
X59719Y32488D01*
X59715Y32491D01*
X58525Y32009D01*
X58521Y32002D01*
X58515Y32004D01*
X57462Y31270D01*
X57460Y31262D01*
X57454Y31263D01*
X56591Y30313D01*
X56590Y30304D01*
X56585Y30304D01*
X55955Y29185D01*
X55956Y29177D01*
X55950Y29175D01*
X55585Y27945D01*
X55588Y27937D01*
X55583Y27934D01*
X55501Y26653D01*
X55504Y26649D01*
X55501Y26647D01*
X55583Y25366D01*
X55589Y25360D01*
X55585Y25355D01*
X55950Y24125D01*
X55957Y24120D01*
X55955Y24115D01*
X56585Y22996D01*
X56592Y22993D01*
X56591Y22987D01*
X57454Y22037D01*
X57462Y22036D01*
X57462Y22030D01*
X58515Y21296D01*
X58523Y21296D01*
X58525Y21291D01*
X59715Y20809D01*
X59722Y20811D01*
X59725Y20806D01*
X60992Y20601D01*
X60997Y20604D01*
X61000Y20601D01*
X73000Y20601D01*
X73004Y20604D01*
G37*
G36*
X28203Y107003D02*
X28203Y107003D01*
X28205Y107001D01*
X29381Y107112D01*
X29386Y107117D01*
X29390Y107114D01*
X30522Y107452D01*
X30526Y107458D01*
X30531Y107456D01*
X31575Y108008D01*
X31578Y108015D01*
X31583Y108013D01*
X32499Y108759D01*
X32500Y108766D01*
X32506Y108766D01*
X33259Y109676D01*
X33259Y109683D01*
X33264Y109684D01*
X33825Y110723D01*
X33824Y110728D01*
X33828Y110730D01*
X33827Y110731D01*
X33829Y110732D01*
X34176Y111861D01*
X34176Y111862D01*
X34177Y111863D01*
X34174Y111867D01*
X34178Y111870D01*
X34299Y113045D01*
X34295Y113052D01*
X34299Y113056D01*
X34142Y114396D01*
X34137Y114402D01*
X34140Y114407D01*
X33689Y115678D01*
X33682Y115683D01*
X33684Y115688D01*
X32962Y116827D01*
X32954Y116830D01*
X32955Y116836D01*
X31997Y117786D01*
X31989Y117787D01*
X31988Y117793D01*
X30843Y118506D01*
X30835Y118505D01*
X30833Y118511D01*
X29557Y118951D01*
X29550Y118949D01*
X29547Y118953D01*
X28205Y119099D01*
X28202Y119097D01*
X28200Y119099D01*
X22200Y119099D01*
X22197Y119097D01*
X22194Y119099D01*
X20865Y118944D01*
X20859Y118938D01*
X20855Y118941D01*
X19594Y118494D01*
X19589Y118487D01*
X19584Y118489D01*
X18454Y117772D01*
X18451Y117765D01*
X18445Y117766D01*
X17503Y116816D01*
X17502Y116807D01*
X17496Y116807D01*
X16789Y115671D01*
X16790Y115663D01*
X16784Y115661D01*
X16348Y114396D01*
X16350Y114388D01*
X16345Y114386D01*
X16201Y113055D01*
X16205Y113049D01*
X16201Y113045D01*
X16311Y111879D01*
X16316Y111874D01*
X16313Y111870D01*
X16648Y110747D01*
X16654Y110743D01*
X16652Y110739D01*
X17200Y109703D01*
X17206Y109700D01*
X17205Y109695D01*
X17944Y108787D01*
X17951Y108785D01*
X17951Y108780D01*
X18853Y108033D01*
X18861Y108033D01*
X18861Y108028D01*
X19892Y107471D01*
X19899Y107472D01*
X19901Y107467D01*
X21020Y107123D01*
X21027Y107125D01*
X21030Y107121D01*
X22195Y107001D01*
X22198Y107003D01*
X22200Y107001D01*
X28200Y107001D01*
X28203Y107003D01*
G37*
G36*
X28203Y20603D02*
X28203Y20603D01*
X28205Y20601D01*
X29381Y20712D01*
X29386Y20717D01*
X29390Y20714D01*
X30522Y21052D01*
X30526Y21058D01*
X30531Y21056D01*
X31575Y21608D01*
X31578Y21615D01*
X31583Y21613D01*
X32499Y22359D01*
X32500Y22366D01*
X32506Y22366D01*
X33259Y23276D01*
X33259Y23283D01*
X33264Y23284D01*
X33825Y24323D01*
X33824Y24328D01*
X33828Y24330D01*
X33827Y24331D01*
X33829Y24332D01*
X34176Y25461D01*
X34176Y25462D01*
X34177Y25463D01*
X34174Y25467D01*
X34178Y25470D01*
X34299Y26645D01*
X34295Y26652D01*
X34299Y26656D01*
X34142Y27996D01*
X34137Y28002D01*
X34140Y28007D01*
X33689Y29278D01*
X33682Y29283D01*
X33684Y29288D01*
X32962Y30427D01*
X32954Y30430D01*
X32955Y30436D01*
X31997Y31386D01*
X31989Y31387D01*
X31988Y31393D01*
X30843Y32106D01*
X30835Y32105D01*
X30833Y32111D01*
X29557Y32551D01*
X29550Y32549D01*
X29547Y32553D01*
X28205Y32699D01*
X28202Y32697D01*
X28200Y32699D01*
X22200Y32699D01*
X22197Y32697D01*
X22194Y32699D01*
X20865Y32544D01*
X20859Y32538D01*
X20855Y32541D01*
X19594Y32094D01*
X19589Y32087D01*
X19584Y32089D01*
X18454Y31372D01*
X18451Y31365D01*
X18445Y31366D01*
X17503Y30416D01*
X17502Y30407D01*
X17496Y30407D01*
X16789Y29271D01*
X16790Y29263D01*
X16784Y29261D01*
X16348Y27996D01*
X16350Y27988D01*
X16345Y27986D01*
X16201Y26655D01*
X16205Y26649D01*
X16201Y26645D01*
X16311Y25479D01*
X16316Y25474D01*
X16313Y25470D01*
X16648Y24347D01*
X16654Y24343D01*
X16652Y24339D01*
X17200Y23303D01*
X17206Y23300D01*
X17205Y23295D01*
X17944Y22387D01*
X17951Y22385D01*
X17951Y22380D01*
X18853Y21633D01*
X18861Y21633D01*
X18861Y21628D01*
X19892Y21071D01*
X19899Y21072D01*
X19901Y21067D01*
X21020Y20723D01*
X21027Y20725D01*
X21030Y20721D01*
X22195Y20601D01*
X22198Y20603D01*
X22200Y20601D01*
X28200Y20601D01*
X28203Y20603D01*
G37*
G36*
X634394Y267358D02*
X634394Y267358D01*
X634443Y267358D01*
X635449Y267527D01*
X635489Y267543D01*
X635557Y267558D01*
X636500Y267948D01*
X636536Y267972D01*
X636598Y268002D01*
X637431Y268591D01*
X637460Y268622D01*
X637514Y268665D01*
X638195Y269425D01*
X638217Y269463D01*
X638260Y269517D01*
X638755Y270409D01*
X638768Y270450D01*
X638797Y270512D01*
X639081Y271492D01*
X639085Y271535D01*
X639100Y271603D01*
X639158Y272621D01*
X639157Y272634D01*
X639159Y272650D01*
X639159Y273750D01*
X639154Y273774D01*
X639156Y273806D01*
X639046Y274785D01*
X639033Y274826D01*
X639021Y274894D01*
X638695Y275824D01*
X638673Y275861D01*
X638647Y275925D01*
X638123Y276759D01*
X638093Y276790D01*
X638053Y276846D01*
X637356Y277543D01*
X637320Y277567D01*
X637269Y277613D01*
X636435Y278137D01*
X636394Y278152D01*
X636334Y278185D01*
X635404Y278511D01*
X635361Y278517D01*
X635295Y278536D01*
X634359Y278641D01*
X634317Y278667D01*
X634240Y278716D01*
X634231Y278717D01*
X634224Y278722D01*
X634060Y278749D01*
X630560Y278749D01*
X630516Y278740D01*
X630429Y278732D01*
X629336Y278435D01*
X629300Y278417D01*
X629243Y278400D01*
X628230Y277893D01*
X628199Y277869D01*
X628146Y277840D01*
X627253Y277144D01*
X627227Y277113D01*
X627181Y277076D01*
X626777Y276605D01*
X626758Y276571D01*
X626721Y276525D01*
X626417Y275984D01*
X626404Y275946D01*
X626377Y275894D01*
X626185Y275304D01*
X626181Y275267D01*
X626165Y275215D01*
X625865Y272915D01*
X625868Y272878D01*
X625862Y272827D01*
X625861Y272826D01*
X625861Y272825D01*
X625905Y271961D01*
X625914Y271924D01*
X625918Y271869D01*
X626121Y271028D01*
X626138Y270994D01*
X626152Y270940D01*
X626508Y270152D01*
X626517Y270139D01*
X626518Y270136D01*
X626533Y270117D01*
X626554Y270071D01*
X627051Y269363D01*
X627081Y269335D01*
X627117Y269287D01*
X627921Y268528D01*
X627957Y268505D01*
X628007Y268463D01*
X628955Y267894D01*
X628995Y267880D01*
X629053Y267849D01*
X630101Y267496D01*
X630143Y267491D01*
X630207Y267473D01*
X631306Y267354D01*
X631330Y267356D01*
X631360Y267351D01*
X634360Y267351D01*
X634394Y267358D01*
G37*
G36*
X541720Y118757D02*
X541720Y118757D01*
X541786Y118759D01*
X541829Y118777D01*
X541876Y118785D01*
X541933Y118819D01*
X541993Y118844D01*
X542028Y118875D01*
X542069Y118900D01*
X542111Y118951D01*
X542159Y118995D01*
X542181Y119037D01*
X542210Y119074D01*
X542231Y119136D01*
X542262Y119195D01*
X542270Y119249D01*
X542282Y119286D01*
X542281Y119326D01*
X542289Y119380D01*
X542289Y121920D01*
X542278Y121985D01*
X542276Y122051D01*
X542258Y122094D01*
X542250Y122141D01*
X542216Y122198D01*
X542191Y122258D01*
X542160Y122293D01*
X542135Y122334D01*
X542084Y122376D01*
X542040Y122424D01*
X541998Y122446D01*
X541961Y122475D01*
X541899Y122496D01*
X541840Y122527D01*
X541786Y122535D01*
X541749Y122547D01*
X541709Y122546D01*
X541655Y122554D01*
X537845Y122554D01*
X537780Y122543D01*
X537714Y122541D01*
X537671Y122523D01*
X537624Y122515D01*
X537567Y122481D01*
X537507Y122456D01*
X537472Y122425D01*
X537431Y122400D01*
X537390Y122349D01*
X537341Y122305D01*
X537319Y122263D01*
X537290Y122226D01*
X537269Y122164D01*
X537238Y122105D01*
X537230Y122051D01*
X537218Y122014D01*
X537218Y122011D01*
X537219Y121974D01*
X537211Y121920D01*
X537211Y119380D01*
X537222Y119315D01*
X537224Y119249D01*
X537242Y119206D01*
X537250Y119159D01*
X537284Y119102D01*
X537309Y119042D01*
X537340Y119007D01*
X537365Y118966D01*
X537416Y118925D01*
X537460Y118876D01*
X537502Y118854D01*
X537539Y118825D01*
X537601Y118804D01*
X537660Y118773D01*
X537714Y118765D01*
X537751Y118753D01*
X537791Y118754D01*
X537845Y118746D01*
X541655Y118746D01*
X541720Y118757D01*
G37*
D10*
X38100Y341850D03*
X38100Y306850D03*
D11*
X262890Y456570D03*
X262890Y536570D03*
D12*
X330200Y462670D03*
X330200Y479670D03*
X346710Y462670D03*
X346710Y479670D03*
D11*
X260350Y370200D03*
X260350Y290200D03*
D12*
X349250Y313300D03*
X349250Y296300D03*
X330200Y313300D03*
X330200Y296300D03*
D11*
X260350Y156850D03*
X260350Y236850D03*
D12*
X330200Y194700D03*
X330200Y211700D03*
X349250Y194700D03*
X349250Y211700D03*
D13*
X97790Y445770D03*
X95250Y209550D03*
X95250Y342900D03*
X95250Y304800D03*
X95250Y177800D03*
X97790Y491490D03*
D14*
X146050Y459740D03*
X146050Y485140D03*
D15*
X146050Y340360D03*
X146050Y314960D03*
D14*
X146050Y184150D03*
X146050Y209550D03*
D16*
X489820Y520450D03*
X489820Y552450D03*
X514820Y552450D03*
X464820Y552450D03*
X464820Y520450D03*
X514820Y520450D03*
D17*
X422760Y516890D03*
X435760Y516890D03*
D18*
X534670Y120650D03*
X544830Y120650D03*
D17*
X558650Y120650D03*
X571650Y120650D03*
D19*
X598050Y120650D03*
X583050Y120650D03*
D20*
X754380Y323850D02*
X769620Y323850D01*
X769620Y298450D02*
X754380Y298450D01*
X754380Y273050D02*
X769620Y273050D01*
X769620Y247650D02*
X754380Y247650D01*
X754380Y222250D02*
X769620Y222250D01*
X769620Y196850D02*
X754380Y196850D01*
X754380Y171450D02*
X769620Y171450D01*
X769620Y146050D02*
X754380Y146050D01*
X754380Y120650D02*
X769620Y120650D01*
X769620Y95250D02*
X754380Y95250D01*
X754380Y69850D02*
X769620Y69850D01*
X769620Y44450D02*
X754380Y44450D01*
D21*
X367350Y444500D03*
D22*
X407350Y419100D03*
X407350Y368300D03*
X407350Y317500D03*
X407350Y266700D03*
X407350Y215900D03*
X407350Y165100D03*
X570550Y190500D03*
X570550Y241300D03*
X570550Y292100D03*
X570550Y342900D03*
X570550Y393700D03*
X570550Y444500D03*
D21*
X610550Y469900D03*
D23*
X387350Y444500D03*
X387350Y419100D03*
X387350Y393300D03*
X387350Y368300D03*
X387350Y342900D03*
X387350Y317500D03*
X387350Y292100D03*
X387350Y266700D03*
X387350Y241300D03*
X387350Y215900D03*
X387350Y190500D03*
X387350Y165100D03*
X590550Y165100D03*
X590550Y190500D03*
X590550Y215900D03*
X590550Y241300D03*
X590550Y266700D03*
X590550Y292100D03*
X590550Y317500D03*
X590550Y342900D03*
X590550Y368300D03*
X590550Y393700D03*
X590550Y419100D03*
X590550Y444500D03*
X590550Y469900D03*
D21*
X367350Y419100D03*
X367350Y393700D03*
X367350Y368300D03*
X367350Y342900D03*
X367350Y317500D03*
X367350Y292100D03*
X367350Y266700D03*
X367350Y241300D03*
X367350Y215900D03*
X367350Y190500D03*
X367350Y165100D03*
X610550Y444500D03*
X610550Y419100D03*
X610550Y393700D03*
X610550Y368300D03*
X610550Y342900D03*
X610550Y317500D03*
X610550Y292100D03*
X610550Y266700D03*
X610550Y241300D03*
X610550Y215900D03*
X610550Y190500D03*
X610550Y165100D03*
D24*
X488950Y470300D03*
X488950Y390300D03*
X488950Y310300D03*
X488950Y230300D03*
D25*
X491627Y185614D03*
X491627Y165614D03*
D26*
X684140Y346710D03*
X667140Y346710D03*
D27*
X114300Y37950D03*
X114300Y50950D03*
D17*
X125880Y91440D03*
X112880Y91440D03*
D28*
X76200Y62350D03*
X76200Y67350D03*
D29*
X76200Y37600D03*
D30*
X76200Y45350D03*
D28*
X76200Y52350D03*
X76200Y57350D03*
X76200Y77350D03*
X76200Y72350D03*
D29*
X76200Y102100D03*
D30*
X76200Y94350D03*
D28*
X76200Y87350D03*
X76200Y82350D03*
D31*
X61750Y98750D03*
X61750Y40950D03*
D32*
X726440Y401320D03*
X726440Y381320D03*
X726440Y421320D03*
D33*
X748940Y357320D03*
X748940Y445320D03*
D10*
X38100Y520920D03*
X38100Y485920D03*
X38100Y214850D03*
X38100Y179850D03*
D34*
X711030Y529430D03*
X711030Y509430D03*
D35*
X763030Y553430D03*
X763030Y485430D03*
D27*
X727710Y264010D03*
X727710Y277010D03*
X716280Y279550D03*
X716280Y266550D03*
D36*
X634560Y273050D03*
X630360Y273050D03*
D27*
X629920Y440540D03*
X629920Y453540D03*
X702310Y279550D03*
X702310Y266550D03*
D37*
X655320Y273050D03*
X680720Y273050D03*
D17*
X73510Y556260D03*
X86510Y556260D03*
D19*
X114180Y556260D03*
X99180Y556260D03*
D38*
X194175Y114300D03*
X161425Y114300D03*
D10*
X38100Y434560D03*
X38100Y399560D03*
M02*
