G04 EAGLE Gerber RS-274X export*
G75*
%MOMM*%
%FSLAX34Y34*%
%LPD*%
%INTop Copper*%
%IPPOS*%
%AMOC8*
5,1,8,0,0,1.08239X$1,22.5*%
G01*
%ADD10C,2.184400*%
%ADD11R,2.500000X4.000000*%
%ADD12R,1.000000X1.100000*%
%ADD13R,1.400000X2.200000*%
%ADD14P,2.089446X8X22.500000*%
%ADD15P,2.089446X8X202.500000*%
%ADD16C,1.800000*%
%ADD17R,0.700000X0.850000*%
%ADD18R,0.635000X1.270000*%
%ADD19C,0.254000*%
%ADD20R,0.800000X0.800000*%
%ADD21C,1.524000*%
%ADD22R,2.000000X1.800000*%
%ADD23R,2.000000X1.000000*%
%ADD24C,1.524000*%
%ADD25R,2.330000X1.370000*%
%ADD26R,1.300000X1.100000*%
%ADD27R,1.100000X1.000000*%
%ADD28R,0.850000X0.700000*%
%ADD29R,1.450000X0.300000*%
%ADD30R,1.450000X0.600000*%
%ADD31R,1.450000X0.550000*%
%ADD32C,1.000000*%
%ADD33R,5.500000X1.000000*%
%ADD34R,3.000000X1.600000*%
%ADD35R,4.600000X1.000000*%
%ADD36R,3.400000X1.600000*%
%ADD37R,0.200000X0.500000*%
%ADD38P,2.089446X8X292.500000*%
%ADD39R,0.910000X1.220000*%
%ADD40C,0.200000*%
%ADD41C,0.756400*%
%ADD42C,0.508000*%
%ADD43C,0.152400*%

G36*
X783193Y10157D02*
X783193Y10157D01*
X783195Y10157D01*
X789943Y16905D01*
X789943Y16907D01*
X789944Y16907D01*
X789945Y16909D01*
X789945Y554591D01*
X789943Y554593D01*
X789943Y554595D01*
X783195Y561343D01*
X783193Y561343D01*
X783193Y561344D01*
X783191Y561345D01*
X782570Y561345D01*
X782565Y561340D01*
X782566Y561340D01*
X782565Y561340D01*
X782565Y544380D01*
X781080Y542895D01*
X744980Y542895D01*
X743495Y544380D01*
X743495Y561340D01*
X743490Y561345D01*
X743490Y561344D01*
X743490Y561345D01*
X522250Y561345D01*
X522249Y561344D01*
X522247Y561344D01*
X522247Y561342D01*
X522245Y561340D01*
X522247Y561339D01*
X522247Y561336D01*
X524599Y558984D01*
X526355Y554744D01*
X526355Y550156D01*
X524599Y545916D01*
X521354Y542671D01*
X517115Y540915D01*
X512525Y540915D01*
X508286Y542671D01*
X505041Y545916D01*
X503285Y550155D01*
X503285Y554745D01*
X505041Y558984D01*
X507393Y561336D01*
X507393Y561338D01*
X507395Y561339D01*
X507393Y561341D01*
X507394Y561343D01*
X507391Y561343D01*
X507390Y561345D01*
X497250Y561345D01*
X497249Y561344D01*
X497247Y561344D01*
X497247Y561342D01*
X497245Y561340D01*
X497247Y561339D01*
X497247Y561336D01*
X499599Y558984D01*
X501355Y554744D01*
X501355Y550156D01*
X499599Y545916D01*
X496354Y542671D01*
X492115Y540915D01*
X487525Y540915D01*
X483286Y542671D01*
X480041Y545916D01*
X478285Y550155D01*
X478285Y554745D01*
X480041Y558984D01*
X482393Y561336D01*
X482393Y561338D01*
X482395Y561339D01*
X482393Y561341D01*
X482394Y561343D01*
X482391Y561343D01*
X482390Y561345D01*
X472250Y561345D01*
X472249Y561344D01*
X472247Y561344D01*
X472247Y561342D01*
X472245Y561340D01*
X472247Y561339D01*
X472247Y561336D01*
X474599Y558984D01*
X476355Y554744D01*
X476355Y550156D01*
X474599Y545916D01*
X471354Y542671D01*
X467115Y540915D01*
X462525Y540915D01*
X458286Y542671D01*
X455041Y545916D01*
X453285Y550155D01*
X453285Y554745D01*
X455041Y558984D01*
X457393Y561336D01*
X457393Y561338D01*
X457395Y561339D01*
X457393Y561341D01*
X457394Y561343D01*
X457391Y561343D01*
X457390Y561345D01*
X29609Y561345D01*
X29607Y561343D01*
X29605Y561343D01*
X10157Y541895D01*
X10156Y541893D01*
X10155Y541892D01*
X10155Y541891D01*
X10155Y16909D01*
X10157Y16907D01*
X10157Y16905D01*
X16905Y10157D01*
X16907Y10156D01*
X16909Y10155D01*
X783191Y10155D01*
X783193Y10157D01*
G37*
%LPC*%
G36*
X313857Y304678D02*
X313857Y304678D01*
X293539Y324996D01*
X293536Y324997D01*
X293535Y324998D01*
X21757Y324998D01*
X12578Y334177D01*
X12578Y384643D01*
X20196Y392261D01*
X21757Y393822D01*
X308443Y393822D01*
X346541Y355724D01*
X346544Y355723D01*
X346545Y355722D01*
X420203Y355722D01*
X421762Y354163D01*
X421762Y306237D01*
X420203Y304678D01*
X313857Y304678D01*
G37*
%LPD*%
%LPC*%
G36*
X246800Y406095D02*
X246800Y406095D01*
X246618Y406276D01*
X246616Y406277D01*
X246615Y406278D01*
X24297Y406278D01*
X20198Y410377D01*
X20198Y451939D01*
X20196Y451941D01*
X20196Y451942D01*
X11435Y460704D01*
X11435Y501956D01*
X23824Y514345D01*
X85250Y514345D01*
X85255Y514350D01*
X85254Y514350D01*
X85255Y514350D01*
X85255Y515840D01*
X86740Y517325D01*
X95840Y517325D01*
X97325Y515840D01*
X97325Y505240D01*
X95840Y503755D01*
X86740Y503755D01*
X85255Y505240D01*
X85255Y506730D01*
X85250Y506735D01*
X85250Y506734D01*
X85250Y506735D01*
X26978Y506735D01*
X26976Y506733D01*
X26975Y506733D01*
X19047Y498805D01*
X19047Y498804D01*
X19045Y498803D01*
X19046Y498802D01*
X19045Y498802D01*
X19045Y463858D01*
X19047Y463856D01*
X19047Y463855D01*
X25578Y457324D01*
X25580Y457323D01*
X25581Y457323D01*
X25581Y457322D01*
X298615Y457322D01*
X298617Y457324D01*
X298619Y457324D01*
X303697Y462402D01*
X323465Y462402D01*
X323467Y462404D01*
X323468Y462404D01*
X324150Y463085D01*
X336250Y463085D01*
X336932Y462404D01*
X336934Y462403D01*
X336935Y462402D01*
X342515Y462402D01*
X342517Y462404D01*
X342518Y462404D01*
X343200Y463085D01*
X355300Y463085D01*
X355982Y462404D01*
X355984Y462403D01*
X355985Y462402D01*
X383540Y462402D01*
X383545Y462407D01*
X383544Y462407D01*
X383545Y462407D01*
X383545Y487986D01*
X399744Y504185D01*
X608636Y504185D01*
X631185Y481636D01*
X631185Y459580D01*
X631190Y459575D01*
X631190Y459576D01*
X631190Y459575D01*
X635220Y459575D01*
X636705Y458090D01*
X636705Y448990D01*
X635220Y447505D01*
X624620Y447505D01*
X623135Y448990D01*
X623135Y458090D01*
X623573Y458529D01*
X623574Y458531D01*
X623575Y458532D01*
X623575Y478482D01*
X623573Y478484D01*
X623573Y478485D01*
X623094Y478965D01*
X623092Y478965D01*
X623091Y478966D01*
X623089Y478965D01*
X623087Y478965D01*
X623087Y478963D01*
X623085Y478961D01*
X623085Y459850D01*
X621600Y458365D01*
X599500Y458365D01*
X598015Y459850D01*
X598015Y462991D01*
X598014Y462992D01*
X598014Y462994D01*
X598012Y462994D01*
X598010Y462996D01*
X598009Y462995D01*
X598006Y462995D01*
X596302Y461291D01*
X592570Y459745D01*
X588530Y459745D01*
X584798Y461291D01*
X581941Y464148D01*
X580395Y467880D01*
X580395Y471920D01*
X581941Y475652D01*
X584798Y478509D01*
X588530Y480055D01*
X592570Y480055D01*
X596302Y478509D01*
X598006Y476805D01*
X598008Y476805D01*
X598009Y476804D01*
X598011Y476805D01*
X598013Y476805D01*
X598013Y476807D01*
X598015Y476809D01*
X598015Y479950D01*
X599500Y481435D01*
X620611Y481435D01*
X620613Y481436D01*
X620615Y481436D01*
X620615Y481438D01*
X620616Y481440D01*
X620615Y481441D01*
X620615Y481444D01*
X605485Y496573D01*
X605483Y496574D01*
X605482Y496575D01*
X402898Y496575D01*
X402896Y496573D01*
X402895Y496573D01*
X391157Y484835D01*
X391156Y484833D01*
X391155Y484832D01*
X391155Y462407D01*
X391160Y462402D01*
X391160Y462403D01*
X391160Y462402D01*
X420203Y462402D01*
X421762Y460843D01*
X421762Y407837D01*
X420203Y406278D01*
X274085Y406278D01*
X274083Y406276D01*
X274082Y406276D01*
X273900Y406095D01*
X246800Y406095D01*
G37*
%LPD*%
G36*
X419102Y307215D02*
X419102Y307215D01*
X419104Y307214D01*
X419147Y307234D01*
X419191Y307252D01*
X419191Y307254D01*
X419193Y307255D01*
X419226Y307340D01*
X419226Y335217D01*
X419225Y335220D01*
X419226Y335223D01*
X419189Y335306D01*
X418873Y335622D01*
X418873Y340018D01*
X419189Y340334D01*
X419191Y340337D01*
X419193Y340338D01*
X419226Y340423D01*
X419226Y353060D01*
X419225Y353062D01*
X419226Y353064D01*
X419206Y353107D01*
X419188Y353151D01*
X419186Y353151D01*
X419185Y353153D01*
X419100Y353186D01*
X345492Y353186D01*
X307429Y391249D01*
X307426Y391251D01*
X307425Y391253D01*
X307340Y391286D01*
X22860Y391286D01*
X22857Y391285D01*
X22854Y391286D01*
X22771Y391249D01*
X15151Y383629D01*
X15150Y383626D01*
X15147Y383625D01*
X15114Y383540D01*
X15114Y335280D01*
X15115Y335277D01*
X15114Y335274D01*
X15151Y335191D01*
X22771Y327571D01*
X22774Y327570D01*
X22775Y327567D01*
X22860Y327534D01*
X294588Y327534D01*
X314871Y307251D01*
X314874Y307250D01*
X314875Y307247D01*
X314960Y307214D01*
X419100Y307214D01*
X419102Y307215D01*
G37*
%LPC*%
G36*
X188575Y105665D02*
X188575Y105665D01*
X187090Y107150D01*
X187090Y121450D01*
X188575Y122935D01*
X199775Y122935D01*
X200943Y121767D01*
X200950Y121767D01*
X215505Y136323D01*
X215505Y136325D01*
X215506Y136326D01*
X215506Y136327D01*
X215506Y136329D01*
X215505Y136329D01*
X215505Y136330D01*
X197019Y154816D01*
X197016Y154817D01*
X197015Y154818D01*
X26837Y154818D01*
X22738Y158917D01*
X22738Y191603D01*
X25276Y194141D01*
X26837Y195702D01*
X120815Y195702D01*
X120817Y195704D01*
X120819Y195704D01*
X123357Y198242D01*
X303695Y198242D01*
X303697Y198244D01*
X303699Y198244D01*
X308777Y203322D01*
X420203Y203322D01*
X421762Y201763D01*
X421762Y161457D01*
X419887Y159582D01*
X419886Y159579D01*
X419885Y159578D01*
X419885Y159050D01*
X418400Y157565D01*
X417872Y157565D01*
X417870Y157563D01*
X417868Y157563D01*
X392263Y131958D01*
X225497Y131958D01*
X225495Y131956D01*
X225494Y131956D01*
X202762Y109225D01*
X201265Y109225D01*
X201260Y109220D01*
X201261Y109220D01*
X201260Y109220D01*
X201260Y107150D01*
X199775Y105665D01*
X188575Y105665D01*
G37*
%LPD*%
G36*
X391163Y134495D02*
X391163Y134495D01*
X391166Y134494D01*
X391249Y134531D01*
X393436Y136718D01*
X393438Y136721D01*
X393440Y136722D01*
X393473Y136807D01*
X393473Y136818D01*
X396582Y139927D01*
X396593Y139927D01*
X396596Y139928D01*
X396599Y139927D01*
X396682Y139964D01*
X419189Y162471D01*
X419191Y162474D01*
X419193Y162475D01*
X419226Y162560D01*
X419226Y200660D01*
X419225Y200662D01*
X419226Y200664D01*
X419206Y200707D01*
X419188Y200751D01*
X419186Y200751D01*
X419185Y200753D01*
X419100Y200786D01*
X309880Y200786D01*
X309877Y200785D01*
X309874Y200786D01*
X309791Y200749D01*
X304748Y195706D01*
X124460Y195706D01*
X124457Y195705D01*
X124454Y195706D01*
X124371Y195669D01*
X121868Y193166D01*
X27940Y193166D01*
X27937Y193165D01*
X27934Y193166D01*
X27851Y193129D01*
X25311Y190589D01*
X25310Y190586D01*
X25307Y190585D01*
X25274Y190500D01*
X25274Y160020D01*
X25275Y160017D01*
X25274Y160014D01*
X25311Y159931D01*
X27851Y157391D01*
X27854Y157390D01*
X27855Y157387D01*
X27940Y157354D01*
X198068Y157354D01*
X220891Y134531D01*
X220894Y134530D01*
X220895Y134527D01*
X220980Y134494D01*
X391160Y134494D01*
X391163Y134495D01*
G37*
G36*
X419102Y408815D02*
X419102Y408815D01*
X419104Y408814D01*
X419147Y408834D01*
X419191Y408852D01*
X419191Y408854D01*
X419193Y408855D01*
X419226Y408940D01*
X419226Y459740D01*
X419225Y459742D01*
X419226Y459744D01*
X419206Y459787D01*
X419188Y459831D01*
X419186Y459831D01*
X419185Y459833D01*
X419100Y459866D01*
X304800Y459866D01*
X304797Y459865D01*
X304794Y459866D01*
X304711Y459829D01*
X299668Y454786D01*
X25400Y454786D01*
X25397Y454785D01*
X25394Y454786D01*
X25311Y454749D01*
X22771Y452209D01*
X22770Y452206D01*
X22767Y452205D01*
X22734Y452120D01*
X22734Y411480D01*
X22735Y411477D01*
X22734Y411474D01*
X22771Y411391D01*
X25311Y408851D01*
X25314Y408850D01*
X25315Y408847D01*
X25400Y408814D01*
X419100Y408814D01*
X419102Y408815D01*
G37*
%LPC*%
G36*
X557697Y279278D02*
X557697Y279278D01*
X556138Y280837D01*
X556138Y354163D01*
X557697Y355722D01*
X628815Y355722D01*
X628817Y355724D01*
X628819Y355724D01*
X645036Y371941D01*
X645036Y371943D01*
X645038Y371944D01*
X645037Y371944D01*
X645038Y371945D01*
X645038Y380699D01*
X645249Y380911D01*
X645251Y380914D01*
X645253Y380915D01*
X645286Y381000D01*
X645286Y422991D01*
X647576Y425281D01*
X647576Y425283D01*
X647577Y425284D01*
X647578Y425285D01*
X647578Y493863D01*
X671997Y518282D01*
X735163Y518282D01*
X740241Y513204D01*
X741802Y511643D01*
X741802Y494197D01*
X732623Y485018D01*
X691985Y485018D01*
X691983Y485016D01*
X691981Y485016D01*
X683384Y476419D01*
X683383Y476416D01*
X683382Y476415D01*
X683382Y434467D01*
X683387Y434462D01*
X683387Y434463D01*
X683387Y434462D01*
X755483Y434462D01*
X762122Y427823D01*
X762122Y415457D01*
X755483Y408818D01*
X676745Y408818D01*
X676743Y408816D01*
X676741Y408816D01*
X675764Y407839D01*
X675763Y407836D01*
X675762Y407835D01*
X675762Y334177D01*
X620863Y279278D01*
X557697Y279278D01*
G37*
%LPD*%
G36*
X619763Y281815D02*
X619763Y281815D01*
X619766Y281814D01*
X619849Y281851D01*
X673189Y335191D01*
X673191Y335194D01*
X673193Y335195D01*
X673226Y335280D01*
X673226Y408888D01*
X675692Y411354D01*
X754380Y411354D01*
X754383Y411355D01*
X754386Y411354D01*
X754469Y411391D01*
X759549Y416471D01*
X759551Y416474D01*
X759553Y416475D01*
X759586Y416560D01*
X759586Y426720D01*
X759585Y426723D01*
X759586Y426726D01*
X759549Y426809D01*
X754469Y431889D01*
X754467Y431890D01*
X754466Y431892D01*
X754465Y431893D01*
X754380Y431926D01*
X680846Y431926D01*
X680846Y477468D01*
X690932Y487554D01*
X731520Y487554D01*
X731523Y487555D01*
X731526Y487554D01*
X731609Y487591D01*
X739229Y495211D01*
X739231Y495214D01*
X739233Y495215D01*
X739266Y495300D01*
X739266Y510540D01*
X739265Y510543D01*
X739266Y510546D01*
X739229Y510629D01*
X734149Y515709D01*
X734146Y515711D01*
X734145Y515713D01*
X734060Y515746D01*
X673100Y515746D01*
X673097Y515745D01*
X673094Y515746D01*
X673011Y515709D01*
X650151Y492849D01*
X650150Y492846D01*
X650147Y492845D01*
X650114Y492760D01*
X650114Y424232D01*
X647611Y421729D01*
X647610Y421726D01*
X647607Y421725D01*
X647574Y421640D01*
X647574Y370892D01*
X629868Y353186D01*
X558800Y353186D01*
X558798Y353185D01*
X558796Y353186D01*
X558753Y353166D01*
X558709Y353148D01*
X558709Y353146D01*
X558707Y353145D01*
X558674Y353060D01*
X558674Y281940D01*
X558675Y281938D01*
X558674Y281936D01*
X558694Y281893D01*
X558712Y281849D01*
X558714Y281849D01*
X558715Y281847D01*
X558800Y281814D01*
X619760Y281814D01*
X619763Y281815D01*
G37*
%LPC*%
G36*
X59083Y27545D02*
X59083Y27545D01*
X54157Y29586D01*
X50386Y33357D01*
X48345Y38283D01*
X48345Y43617D01*
X50386Y48543D01*
X54157Y52314D01*
X54610Y52502D01*
X54611Y52503D01*
X54612Y52503D01*
X54612Y52505D01*
X54613Y52508D01*
X54612Y52509D01*
X54612Y52511D01*
X50805Y56318D01*
X50805Y85922D01*
X53209Y88326D01*
X53209Y88328D01*
X53209Y88333D01*
X50386Y91157D01*
X48345Y96083D01*
X48345Y101417D01*
X50386Y106343D01*
X54157Y110114D01*
X59084Y112155D01*
X64416Y112155D01*
X69343Y110114D01*
X73114Y106343D01*
X75155Y101416D01*
X75155Y99640D01*
X75160Y99635D01*
X75160Y99636D01*
X75160Y99635D01*
X84500Y99635D01*
X84709Y99427D01*
X84711Y99426D01*
X84712Y99425D01*
X92246Y99425D01*
X92247Y99427D01*
X92249Y99427D01*
X112198Y119375D01*
X154335Y119375D01*
X154340Y119380D01*
X154339Y119380D01*
X154340Y119380D01*
X154340Y121450D01*
X155825Y122935D01*
X167025Y122935D01*
X168510Y121450D01*
X168510Y107150D01*
X167025Y105665D01*
X155825Y105665D01*
X154340Y107150D01*
X154340Y109220D01*
X154335Y109225D01*
X154335Y109224D01*
X154335Y109225D01*
X116404Y109225D01*
X116403Y109223D01*
X116401Y109223D01*
X96452Y89275D01*
X85990Y89275D01*
X85985Y89270D01*
X85986Y89270D01*
X85985Y89270D01*
X85985Y86160D01*
X85990Y86155D01*
X85990Y86156D01*
X85990Y86155D01*
X100210Y86155D01*
X100212Y86157D01*
X100214Y86156D01*
X106843Y91475D01*
X106843Y91477D01*
X106845Y91478D01*
X106844Y91478D01*
X106845Y91479D01*
X106845Y96740D01*
X108330Y98225D01*
X117430Y98225D01*
X118915Y96740D01*
X118915Y86140D01*
X117430Y84655D01*
X110505Y84655D01*
X110504Y84653D01*
X110502Y84654D01*
X105816Y80894D01*
X105816Y80892D01*
X105814Y80891D01*
X105815Y80890D01*
X105815Y80888D01*
X105817Y80887D01*
X105819Y80885D01*
X346229Y80885D01*
X349083Y81072D01*
X349083Y81073D01*
X349084Y81072D01*
X354596Y82549D01*
X354596Y82550D01*
X354597Y82550D01*
X359539Y85403D01*
X359539Y85404D01*
X359540Y85404D01*
X361689Y87289D01*
X361690Y87289D01*
X362596Y88196D01*
X454071Y179670D01*
X455074Y180674D01*
X457768Y183367D01*
X464366Y187177D01*
X471725Y189149D01*
X482587Y189149D01*
X482592Y189153D01*
X482592Y189154D01*
X482592Y192164D01*
X484077Y193649D01*
X499177Y193649D01*
X500662Y192164D01*
X500662Y189424D01*
X500667Y189419D01*
X504303Y189419D01*
X507063Y186659D01*
X507065Y186658D01*
X507066Y186657D01*
X509257Y186657D01*
X511578Y185695D01*
X513355Y183918D01*
X514317Y181597D01*
X514317Y179083D01*
X513355Y176762D01*
X511578Y174985D01*
X509257Y174023D01*
X506743Y174023D01*
X504422Y174985D01*
X502645Y176762D01*
X501683Y179083D01*
X501683Y181274D01*
X501681Y181276D01*
X501681Y181277D01*
X501152Y181807D01*
X501149Y181807D01*
X501148Y181808D01*
X500667Y181808D01*
X500662Y181804D01*
X500663Y181804D01*
X500662Y181803D01*
X500662Y179063D01*
X499177Y177578D01*
X484077Y177578D01*
X482592Y179063D01*
X482592Y182073D01*
X482588Y182078D01*
X482587Y182078D01*
X475534Y182078D01*
X475468Y182074D01*
X475392Y182069D01*
X475316Y182064D01*
X475240Y182059D01*
X475165Y182054D01*
X475164Y182054D01*
X475089Y182049D01*
X475013Y182044D01*
X474937Y182039D01*
X474861Y182034D01*
X474786Y182029D01*
X474785Y182029D01*
X474710Y182024D01*
X474634Y182019D01*
X474558Y182014D01*
X474482Y182009D01*
X474407Y182004D01*
X474406Y182004D01*
X474331Y181999D01*
X474255Y181994D01*
X474179Y181989D01*
X474103Y181985D01*
X474027Y181980D01*
X473952Y181975D01*
X473951Y181975D01*
X473876Y181970D01*
X473800Y181965D01*
X473724Y181960D01*
X473648Y181955D01*
X473573Y181950D01*
X473572Y181950D01*
X473497Y181945D01*
X473421Y181940D01*
X473345Y181935D01*
X473269Y181930D01*
X473194Y181925D01*
X473193Y181925D01*
X473118Y181920D01*
X473042Y181915D01*
X472966Y181910D01*
X472890Y181905D01*
X472814Y181900D01*
X472739Y181895D01*
X472738Y181895D01*
X472681Y181891D01*
X472680Y181891D01*
X467168Y180414D01*
X467167Y180413D01*
X467167Y180414D01*
X462225Y177560D01*
X462224Y177560D01*
X460074Y175674D01*
X459070Y174671D01*
X451043Y166644D01*
X451043Y166642D01*
X451043Y166641D01*
X451042Y166638D01*
X451043Y166638D01*
X451043Y166637D01*
X451046Y166637D01*
X451047Y166637D01*
X451048Y166636D01*
X451049Y166636D01*
X451986Y167177D01*
X459345Y169149D01*
X482587Y169149D01*
X482592Y169153D01*
X482592Y169154D01*
X482592Y172164D01*
X484077Y173649D01*
X499177Y173649D01*
X500662Y172164D01*
X500662Y168910D01*
X500667Y168905D01*
X500667Y168906D01*
X500667Y168905D01*
X510489Y168905D01*
X510491Y168907D01*
X510493Y168907D01*
X512042Y170455D01*
X514363Y171417D01*
X516877Y171417D01*
X519198Y170455D01*
X520975Y168678D01*
X521937Y166357D01*
X521937Y163843D01*
X520975Y161522D01*
X519198Y159745D01*
X516877Y158783D01*
X514363Y158783D01*
X512042Y159745D01*
X510493Y161293D01*
X510490Y161294D01*
X510489Y161295D01*
X500667Y161295D01*
X500662Y161290D01*
X500663Y161290D01*
X500662Y161290D01*
X500662Y159063D01*
X499177Y157578D01*
X484077Y157578D01*
X482592Y159063D01*
X482592Y162073D01*
X482588Y162078D01*
X482587Y162078D01*
X463155Y162078D01*
X463154Y162078D01*
X463100Y162075D01*
X463024Y162070D01*
X462948Y162065D01*
X462872Y162060D01*
X462797Y162055D01*
X462796Y162055D01*
X462721Y162050D01*
X462645Y162045D01*
X462569Y162040D01*
X462493Y162035D01*
X462418Y162030D01*
X462417Y162030D01*
X462342Y162025D01*
X462266Y162020D01*
X462190Y162015D01*
X462114Y162010D01*
X462038Y162005D01*
X461963Y162000D01*
X461962Y162000D01*
X461887Y161995D01*
X461811Y161990D01*
X461735Y161985D01*
X461659Y161980D01*
X461584Y161975D01*
X461583Y161975D01*
X461508Y161970D01*
X461432Y161965D01*
X461356Y161960D01*
X461280Y161955D01*
X461205Y161951D01*
X461204Y161951D01*
X461129Y161946D01*
X461053Y161941D01*
X460977Y161936D01*
X460901Y161931D01*
X460825Y161926D01*
X460750Y161921D01*
X460749Y161921D01*
X460674Y161916D01*
X460598Y161911D01*
X460522Y161906D01*
X460446Y161901D01*
X460371Y161896D01*
X460370Y161896D01*
X460301Y161891D01*
X460300Y161891D01*
X454788Y160414D01*
X454787Y160413D01*
X454787Y160414D01*
X449845Y157560D01*
X449844Y157560D01*
X447694Y155674D01*
X446687Y154668D01*
X370346Y78327D01*
X369309Y77290D01*
X366616Y74596D01*
X360018Y70787D01*
X352658Y68815D01*
X92440Y68815D01*
X92435Y68810D01*
X92436Y68810D01*
X92435Y68810D01*
X92435Y64576D01*
X90363Y62503D01*
X89881Y62022D01*
X88860Y61000D01*
X87891Y60032D01*
X87823Y59963D01*
X87810Y59951D01*
X85988Y59196D01*
X85987Y59193D01*
X85986Y59192D01*
X85985Y59191D01*
X85985Y56160D01*
X85990Y56155D01*
X85990Y56156D01*
X85990Y56155D01*
X108168Y56155D01*
X108170Y56157D01*
X108171Y56157D01*
X109000Y56985D01*
X119600Y56985D01*
X121085Y55500D01*
X121085Y46400D01*
X119600Y44915D01*
X109000Y44915D01*
X107515Y46400D01*
X107515Y48540D01*
X107510Y48545D01*
X107510Y48544D01*
X107510Y48545D01*
X85990Y48545D01*
X85985Y48540D01*
X85986Y48540D01*
X85985Y48540D01*
X85985Y41550D01*
X84500Y40065D01*
X75160Y40065D01*
X75155Y40060D01*
X75156Y40060D01*
X75155Y40060D01*
X75155Y38284D01*
X73114Y33357D01*
X69343Y29586D01*
X64417Y27545D01*
X59083Y27545D01*
G37*
%LPD*%
%LPC*%
G36*
X752360Y212095D02*
X752360Y212095D01*
X748628Y213641D01*
X745771Y216498D01*
X745380Y217442D01*
X745376Y217443D01*
X745375Y217445D01*
X722436Y217445D01*
X702117Y237763D01*
X702115Y237763D01*
X702115Y237764D01*
X702114Y237765D01*
X623090Y237765D01*
X623085Y237760D01*
X623086Y237760D01*
X623085Y237760D01*
X623085Y231250D01*
X621600Y229765D01*
X599500Y229765D01*
X598015Y231250D01*
X598015Y234391D01*
X598014Y234392D01*
X598014Y234394D01*
X598012Y234394D01*
X598010Y234396D01*
X598009Y234395D01*
X598008Y234395D01*
X598006Y234395D01*
X596302Y232691D01*
X592570Y231145D01*
X588530Y231145D01*
X584798Y232691D01*
X582665Y234823D01*
X582659Y234823D01*
X582658Y234823D01*
X581600Y233765D01*
X559500Y233765D01*
X558015Y235250D01*
X558015Y247350D01*
X559500Y248835D01*
X581600Y248835D01*
X582658Y247777D01*
X582661Y247777D01*
X582662Y247776D01*
X582663Y247777D01*
X582665Y247777D01*
X584798Y249909D01*
X588530Y251455D01*
X592570Y251455D01*
X596302Y249909D01*
X598006Y248205D01*
X598008Y248205D01*
X598009Y248204D01*
X598011Y248205D01*
X598013Y248205D01*
X598013Y248207D01*
X598015Y248209D01*
X598015Y251350D01*
X599500Y252835D01*
X621600Y252835D01*
X623085Y251350D01*
X623085Y244840D01*
X623090Y244835D01*
X623090Y244836D01*
X623090Y244835D01*
X633691Y244835D01*
X633693Y244836D01*
X633695Y244836D01*
X633695Y244838D01*
X633696Y244840D01*
X633695Y244841D01*
X633695Y244844D01*
X628345Y250193D01*
X626115Y252424D01*
X626115Y266602D01*
X626113Y266604D01*
X626112Y266606D01*
X625566Y266949D01*
X625547Y267033D01*
X625544Y267035D01*
X625543Y267037D01*
X625459Y267056D01*
X625021Y267754D01*
X625020Y267754D01*
X624437Y268337D01*
X624437Y268423D01*
X624435Y268425D01*
X624435Y268427D01*
X624358Y268464D01*
X624085Y269242D01*
X624085Y269243D01*
X623916Y269512D01*
X623913Y269513D01*
X623912Y269515D01*
X623090Y269515D01*
X623085Y269510D01*
X623086Y269510D01*
X623085Y269510D01*
X623085Y256650D01*
X621600Y255165D01*
X599500Y255165D01*
X598015Y256650D01*
X598015Y259791D01*
X598014Y259792D01*
X598014Y259794D01*
X598012Y259794D01*
X598010Y259796D01*
X598009Y259795D01*
X598008Y259795D01*
X598006Y259795D01*
X596302Y258091D01*
X592570Y256545D01*
X588530Y256545D01*
X584798Y258091D01*
X581941Y260948D01*
X580395Y264680D01*
X580395Y268720D01*
X581941Y272452D01*
X584798Y275309D01*
X588530Y276855D01*
X592570Y276855D01*
X596302Y275309D01*
X596483Y275129D01*
X596485Y275129D01*
X596486Y275129D01*
X596488Y275129D01*
X596489Y275128D01*
X597417Y275773D01*
X597418Y275774D01*
X598013Y276369D01*
X598014Y276371D01*
X598015Y276372D01*
X598015Y276750D01*
X599500Y278235D01*
X621600Y278235D01*
X623085Y276750D01*
X623085Y276590D01*
X623090Y276585D01*
X623090Y276586D01*
X623090Y276585D01*
X623912Y276585D01*
X623914Y276587D01*
X623916Y276588D01*
X624085Y276857D01*
X624085Y276858D01*
X624358Y277636D01*
X624435Y277673D01*
X624436Y277676D01*
X624437Y277677D01*
X624437Y277763D01*
X625020Y278346D01*
X625021Y278346D01*
X625459Y279044D01*
X625543Y279063D01*
X625545Y279066D01*
X625547Y279067D01*
X625566Y279151D01*
X626264Y279589D01*
X626264Y279590D01*
X626823Y280149D01*
X626823Y280150D01*
X626825Y280151D01*
X626824Y280152D01*
X626825Y280152D01*
X626825Y283844D01*
X630996Y288015D01*
X651510Y288015D01*
X651515Y288020D01*
X651514Y288020D01*
X651515Y288020D01*
X651515Y288596D01*
X709933Y347015D01*
X709934Y347017D01*
X709935Y347018D01*
X709935Y373780D01*
X709930Y373785D01*
X709930Y373784D01*
X709930Y373785D01*
X697890Y373785D01*
X696405Y375270D01*
X696405Y387370D01*
X697890Y388855D01*
X754990Y388855D01*
X756475Y387370D01*
X756475Y375270D01*
X754990Y373785D01*
X717550Y373785D01*
X717545Y373780D01*
X717546Y373780D01*
X717545Y373780D01*
X717545Y343864D01*
X659127Y285445D01*
X659126Y285443D01*
X659125Y285442D01*
X659125Y285242D01*
X659130Y285237D01*
X659130Y285238D01*
X659130Y285237D01*
X660368Y285237D01*
X667507Y278098D01*
X667507Y268002D01*
X660368Y260863D01*
X650272Y260863D01*
X643133Y268002D01*
X643133Y278098D01*
X645971Y280936D01*
X645971Y280938D01*
X645972Y280939D01*
X645971Y280941D01*
X645971Y280943D01*
X645969Y280943D01*
X645968Y280945D01*
X636434Y280945D01*
X636432Y280943D01*
X636430Y280943D01*
X636430Y280942D01*
X636429Y280940D01*
X636431Y280938D01*
X636431Y280935D01*
X636902Y280675D01*
X636903Y280676D01*
X636903Y280675D01*
X637666Y280441D01*
X637667Y280441D01*
X637668Y280441D01*
X637685Y280442D01*
X637697Y280432D01*
X637698Y280432D01*
X637699Y280431D01*
X637714Y280426D01*
X637722Y280411D01*
X637723Y280411D01*
X637723Y280410D01*
X638328Y279888D01*
X638328Y279887D01*
X639027Y279501D01*
X639028Y279501D01*
X639029Y279501D01*
X639046Y279498D01*
X639055Y279486D01*
X639057Y279486D01*
X639057Y279485D01*
X639071Y279477D01*
X639075Y279460D01*
X639076Y279460D01*
X639076Y279459D01*
X639560Y278824D01*
X639561Y278824D01*
X639561Y278823D01*
X640165Y278302D01*
X640167Y278302D01*
X640167Y278301D01*
X640183Y278295D01*
X640190Y278281D01*
X640191Y278280D01*
X640191Y278279D01*
X640203Y278269D01*
X640204Y278252D01*
X640205Y278251D01*
X640205Y278250D01*
X640548Y277529D01*
X640549Y277529D01*
X640548Y277528D01*
X641033Y276893D01*
X641034Y276893D01*
X641034Y276892D01*
X641049Y276883D01*
X641052Y276868D01*
X641054Y276867D01*
X641053Y276866D01*
X641063Y276854D01*
X641061Y276844D01*
X641061Y276843D01*
X641060Y276837D01*
X641061Y276836D01*
X641061Y276835D01*
X641248Y276059D01*
X641249Y276058D01*
X641248Y276058D01*
X641592Y275337D01*
X641593Y275336D01*
X641593Y275335D01*
X641605Y275323D01*
X641606Y275308D01*
X641607Y275307D01*
X641606Y275306D01*
X641613Y275292D01*
X641607Y275276D01*
X641608Y275275D01*
X641607Y275274D01*
X641631Y274476D01*
X641631Y274475D01*
X641830Y273650D01*
X641686Y273414D01*
X641686Y273412D01*
X641685Y273412D01*
X641673Y273048D01*
X641674Y273048D01*
X641673Y273048D01*
X641688Y272561D01*
X641689Y272560D01*
X641689Y272559D01*
X641834Y272311D01*
X641625Y271514D01*
X641626Y271513D01*
X641625Y271513D01*
X641599Y270689D01*
X641536Y270630D01*
X641536Y270628D01*
X641536Y270627D01*
X641536Y270626D01*
X641535Y270625D01*
X641561Y270542D01*
X641180Y269811D01*
X641180Y269810D01*
X641075Y269412D01*
X641076Y269411D01*
X641075Y269411D01*
X641075Y260546D01*
X641077Y260545D01*
X641077Y260543D01*
X644083Y257537D01*
X644085Y257536D01*
X644086Y257535D01*
X702114Y257535D01*
X702115Y257537D01*
X702117Y257537D01*
X705087Y260506D01*
X705087Y260508D01*
X705088Y260509D01*
X705087Y260511D01*
X705087Y260513D01*
X705085Y260513D01*
X705083Y260515D01*
X697010Y260515D01*
X695525Y262000D01*
X695525Y263010D01*
X695520Y263015D01*
X695520Y263014D01*
X695520Y263015D01*
X694646Y263015D01*
X691286Y266374D01*
X691280Y266375D01*
X691280Y266374D01*
X691279Y266374D01*
X685768Y260863D01*
X675672Y260863D01*
X668533Y268002D01*
X668533Y278098D01*
X675672Y285237D01*
X685768Y285237D01*
X692907Y278098D01*
X692907Y274754D01*
X692909Y274753D01*
X692909Y274751D01*
X696039Y271621D01*
X696041Y271621D01*
X696045Y271620D01*
X696045Y271621D01*
X696046Y271621D01*
X697010Y272585D01*
X707610Y272585D01*
X709095Y271100D01*
X709095Y264527D01*
X709096Y264525D01*
X709096Y264524D01*
X709098Y264524D01*
X709100Y264522D01*
X709101Y264523D01*
X709104Y264523D01*
X709493Y264913D01*
X709494Y264915D01*
X709495Y264916D01*
X709495Y271100D01*
X710980Y272585D01*
X720920Y272585D01*
X720925Y272590D01*
X720924Y272590D01*
X720925Y272590D01*
X720925Y281560D01*
X722410Y283045D01*
X733010Y283045D01*
X734495Y281560D01*
X734495Y280550D01*
X734500Y280545D01*
X734500Y280546D01*
X734500Y280545D01*
X747512Y280545D01*
X747513Y280547D01*
X747515Y280547D01*
X748628Y281659D01*
X752360Y283205D01*
X771640Y283205D01*
X775372Y281659D01*
X778229Y278802D01*
X779775Y275070D01*
X779775Y271030D01*
X778229Y267298D01*
X775372Y264441D01*
X771640Y262895D01*
X752360Y262895D01*
X748628Y264441D01*
X745771Y267298D01*
X744225Y271030D01*
X744225Y273470D01*
X744220Y273475D01*
X744220Y273474D01*
X744220Y273475D01*
X734500Y273475D01*
X734495Y273470D01*
X734496Y273470D01*
X734495Y273470D01*
X734495Y272460D01*
X733010Y270975D01*
X723070Y270975D01*
X723065Y270970D01*
X723066Y270970D01*
X723065Y270970D01*
X723065Y270050D01*
X723070Y270045D01*
X723070Y270046D01*
X723070Y270045D01*
X733010Y270045D01*
X734495Y268560D01*
X734495Y259460D01*
X733010Y257975D01*
X722410Y257975D01*
X720925Y259460D01*
X720925Y260470D01*
X720920Y260475D01*
X720920Y260474D01*
X720920Y260475D01*
X717356Y260475D01*
X717317Y260513D01*
X717315Y260514D01*
X717314Y260515D01*
X715096Y260515D01*
X715095Y260513D01*
X715093Y260513D01*
X706043Y251464D01*
X706043Y251462D01*
X706042Y251461D01*
X706043Y251459D01*
X706043Y251457D01*
X706045Y251457D01*
X706047Y251455D01*
X744961Y251455D01*
X744964Y251458D01*
X744966Y251458D01*
X745771Y253402D01*
X748628Y256259D01*
X752360Y257805D01*
X771640Y257805D01*
X775372Y256259D01*
X778229Y253402D01*
X779775Y249670D01*
X779775Y245630D01*
X778229Y241898D01*
X775372Y239041D01*
X771640Y237495D01*
X752360Y237495D01*
X748628Y239041D01*
X745771Y241898D01*
X744966Y243842D01*
X744962Y243843D01*
X744961Y243845D01*
X706047Y243845D01*
X706045Y243844D01*
X706044Y243844D01*
X706044Y243842D01*
X706042Y243840D01*
X706043Y243839D01*
X706043Y243836D01*
X725363Y224517D01*
X725365Y224516D01*
X725366Y224515D01*
X744323Y224515D01*
X744326Y224518D01*
X744328Y224518D01*
X745771Y228002D01*
X748628Y230859D01*
X752360Y232405D01*
X771640Y232405D01*
X775372Y230859D01*
X778229Y228002D01*
X779775Y224270D01*
X779775Y220230D01*
X778229Y216498D01*
X775372Y213641D01*
X771640Y212095D01*
X752360Y212095D01*
G37*
%LPD*%
%LPC*%
G36*
X752360Y85095D02*
X752360Y85095D01*
X748628Y86641D01*
X745771Y89498D01*
X744225Y93230D01*
X744225Y96520D01*
X744220Y96525D01*
X744220Y96524D01*
X744220Y96525D01*
X518871Y96525D01*
X518868Y96522D01*
X518866Y96522D01*
X518435Y95482D01*
X516658Y93705D01*
X514337Y92743D01*
X511823Y92743D01*
X509502Y93705D01*
X507725Y95482D01*
X506763Y97803D01*
X506763Y100317D01*
X507725Y102638D01*
X509502Y104415D01*
X511823Y105377D01*
X513057Y105377D01*
X513058Y105378D01*
X513060Y105378D01*
X513060Y105380D01*
X513062Y105382D01*
X513060Y105383D01*
X513060Y105386D01*
X512805Y105642D01*
X511843Y107963D01*
X511843Y110477D01*
X512805Y112798D01*
X514582Y114575D01*
X516903Y115537D01*
X519417Y115537D01*
X521738Y114575D01*
X523515Y112798D01*
X524472Y110488D01*
X524476Y110487D01*
X524477Y110485D01*
X746452Y110485D01*
X746454Y110487D01*
X746455Y110487D01*
X748315Y112346D01*
X748315Y112353D01*
X745771Y114898D01*
X744225Y118630D01*
X744225Y122670D01*
X745771Y126402D01*
X748628Y129259D01*
X752360Y130805D01*
X771640Y130805D01*
X775372Y129259D01*
X778229Y126402D01*
X779775Y122670D01*
X779775Y118630D01*
X778229Y114898D01*
X775372Y112041D01*
X771640Y110495D01*
X757228Y110495D01*
X757226Y110493D01*
X757225Y110493D01*
X751996Y105265D01*
X751996Y105263D01*
X751995Y105263D01*
X751996Y105262D01*
X751995Y105260D01*
X751996Y105260D01*
X751996Y105258D01*
X751999Y105258D01*
X752000Y105258D01*
X752000Y105257D01*
X752001Y105257D01*
X752002Y105257D01*
X752360Y105405D01*
X771640Y105405D01*
X775372Y103859D01*
X778229Y101002D01*
X779775Y97270D01*
X779775Y93230D01*
X778229Y89498D01*
X775372Y86641D01*
X771640Y85095D01*
X752360Y85095D01*
G37*
%LPD*%
%LPC*%
G36*
X752360Y59695D02*
X752360Y59695D01*
X748628Y61241D01*
X745771Y64098D01*
X744966Y66042D01*
X744962Y66043D01*
X744961Y66045D01*
X497534Y66045D01*
X453057Y110521D01*
X453055Y110522D01*
X453054Y110523D01*
X450863Y110523D01*
X448542Y111485D01*
X446765Y113262D01*
X445803Y115583D01*
X445803Y118097D01*
X446765Y120418D01*
X448542Y122195D01*
X450863Y123157D01*
X453377Y123157D01*
X453417Y123141D01*
X453420Y123142D01*
X453422Y123142D01*
X454466Y124185D01*
X528955Y124185D01*
X528960Y124190D01*
X528959Y124190D01*
X528960Y124190D01*
X528960Y128050D01*
X530445Y129535D01*
X538895Y129535D01*
X539746Y128684D01*
X539753Y128683D01*
X539753Y128684D01*
X539754Y128684D01*
X540605Y129535D01*
X549055Y129535D01*
X550540Y128050D01*
X550540Y124190D01*
X550545Y124185D01*
X550545Y124186D01*
X550545Y124185D01*
X552610Y124185D01*
X552615Y124190D01*
X552614Y124190D01*
X552615Y124190D01*
X552615Y125950D01*
X554100Y127435D01*
X563200Y127435D01*
X564685Y125950D01*
X564685Y115350D01*
X563200Y113865D01*
X554100Y113865D01*
X552615Y115350D01*
X552615Y117110D01*
X552610Y117115D01*
X552610Y117114D01*
X552610Y117115D01*
X550545Y117115D01*
X550540Y117110D01*
X550541Y117110D01*
X550540Y117110D01*
X550540Y113250D01*
X549055Y111765D01*
X540605Y111765D01*
X539754Y112616D01*
X539747Y112617D01*
X539747Y112616D01*
X539746Y112616D01*
X538895Y111765D01*
X530445Y111765D01*
X528960Y113250D01*
X528960Y117110D01*
X528955Y117115D01*
X528955Y117114D01*
X528955Y117115D01*
X458442Y117115D01*
X458437Y117110D01*
X458438Y117110D01*
X458437Y117110D01*
X458437Y115906D01*
X458439Y115904D01*
X458439Y115903D01*
X500685Y73657D01*
X500687Y73656D01*
X500688Y73656D01*
X500688Y73655D01*
X744961Y73655D01*
X744964Y73658D01*
X744966Y73658D01*
X745771Y75602D01*
X748628Y78459D01*
X752360Y80005D01*
X771640Y80005D01*
X775372Y78459D01*
X778229Y75602D01*
X779775Y71870D01*
X779775Y67830D01*
X778229Y64098D01*
X775372Y61241D01*
X771640Y59695D01*
X752360Y59695D01*
G37*
%LPD*%
%LPC*%
G36*
X593000Y114115D02*
X593000Y114115D01*
X591515Y115600D01*
X591515Y125700D01*
X593000Y127185D01*
X594510Y127185D01*
X594515Y127190D01*
X594514Y127190D01*
X594515Y127190D01*
X594515Y153284D01*
X594514Y153284D01*
X594515Y153285D01*
X593864Y155475D01*
X593858Y155478D01*
X593857Y155478D01*
X592570Y154945D01*
X588530Y154945D01*
X584798Y156491D01*
X581941Y159348D01*
X580395Y163080D01*
X580395Y167120D01*
X581941Y170852D01*
X584798Y173709D01*
X588530Y175255D01*
X592570Y175255D01*
X596302Y173709D01*
X598006Y172005D01*
X598008Y172005D01*
X598009Y172004D01*
X598011Y172005D01*
X598013Y172005D01*
X598013Y172007D01*
X598015Y172009D01*
X598015Y175150D01*
X599500Y176635D01*
X621600Y176635D01*
X623085Y175150D01*
X623085Y168640D01*
X623090Y168635D01*
X623090Y168636D01*
X623090Y168635D01*
X689804Y168635D01*
X708853Y149587D01*
X708855Y149586D01*
X708856Y149585D01*
X744849Y149585D01*
X744852Y149588D01*
X744854Y149588D01*
X745771Y151802D01*
X748628Y154659D01*
X752360Y156205D01*
X771640Y156205D01*
X775372Y154659D01*
X778229Y151802D01*
X779775Y148070D01*
X779775Y144030D01*
X778229Y140298D01*
X775372Y137441D01*
X771640Y135895D01*
X752360Y135895D01*
X748628Y137441D01*
X745771Y140298D01*
X744854Y142512D01*
X744850Y142513D01*
X744849Y142515D01*
X705926Y142515D01*
X686877Y161563D01*
X686875Y161564D01*
X686874Y161565D01*
X623090Y161565D01*
X623085Y161560D01*
X623086Y161560D01*
X623085Y161560D01*
X623085Y155050D01*
X621600Y153565D01*
X601690Y153565D01*
X601689Y153564D01*
X601685Y153560D01*
X601686Y153560D01*
X601685Y153559D01*
X601799Y152971D01*
X601586Y152657D01*
X601586Y152655D01*
X601585Y152655D01*
X601585Y152654D01*
X601585Y127190D01*
X601590Y127185D01*
X601590Y127186D01*
X601590Y127185D01*
X603100Y127185D01*
X604585Y125700D01*
X604585Y115600D01*
X603100Y114115D01*
X593000Y114115D01*
G37*
%LPD*%
%LPC*%
G36*
X752360Y161295D02*
X752360Y161295D01*
X748628Y162841D01*
X745771Y165698D01*
X745380Y166642D01*
X745376Y166643D01*
X745375Y166645D01*
X707196Y166645D01*
X686877Y186963D01*
X686875Y186964D01*
X686874Y186965D01*
X623090Y186965D01*
X623085Y186960D01*
X623086Y186960D01*
X623085Y186960D01*
X623085Y180450D01*
X621600Y178965D01*
X599500Y178965D01*
X598015Y180450D01*
X598015Y183591D01*
X598014Y183592D01*
X598014Y183594D01*
X598012Y183594D01*
X598010Y183596D01*
X598009Y183595D01*
X598006Y183595D01*
X596302Y181891D01*
X592570Y180345D01*
X588530Y180345D01*
X584798Y181891D01*
X582665Y184023D01*
X582659Y184023D01*
X582658Y184023D01*
X581600Y182965D01*
X559500Y182965D01*
X558015Y184450D01*
X558015Y196550D01*
X559500Y198035D01*
X581600Y198035D01*
X582658Y196977D01*
X582665Y196977D01*
X584798Y199109D01*
X588530Y200655D01*
X592570Y200655D01*
X596302Y199109D01*
X598006Y197405D01*
X598008Y197405D01*
X598009Y197404D01*
X598011Y197405D01*
X598013Y197405D01*
X598013Y197407D01*
X598015Y197409D01*
X598015Y200550D01*
X599500Y202035D01*
X621600Y202035D01*
X623085Y200550D01*
X623085Y194040D01*
X623090Y194035D01*
X623090Y194036D01*
X623090Y194035D01*
X689804Y194035D01*
X710123Y173717D01*
X710125Y173717D01*
X710125Y173716D01*
X710126Y173715D01*
X744323Y173715D01*
X744326Y173718D01*
X744328Y173718D01*
X745771Y177202D01*
X748628Y180059D01*
X752360Y181605D01*
X771640Y181605D01*
X775372Y180059D01*
X778229Y177202D01*
X779775Y173470D01*
X779775Y169430D01*
X778229Y165698D01*
X775372Y162841D01*
X771640Y161295D01*
X752360Y161295D01*
G37*
%LPD*%
%LPC*%
G36*
X752360Y186695D02*
X752360Y186695D01*
X748628Y188241D01*
X745771Y191098D01*
X744854Y193312D01*
X744850Y193313D01*
X744849Y193315D01*
X713546Y193315D01*
X694497Y212363D01*
X694495Y212364D01*
X694494Y212365D01*
X623090Y212365D01*
X623085Y212360D01*
X623086Y212360D01*
X623085Y212360D01*
X623085Y205850D01*
X621600Y204365D01*
X599500Y204365D01*
X598015Y205850D01*
X598015Y208991D01*
X598014Y208992D01*
X598014Y208994D01*
X598012Y208994D01*
X598010Y208996D01*
X598009Y208995D01*
X598008Y208995D01*
X598006Y208995D01*
X596302Y207291D01*
X592570Y205745D01*
X588530Y205745D01*
X584798Y207291D01*
X581941Y210148D01*
X580395Y213880D01*
X580395Y217920D01*
X581941Y221652D01*
X584798Y224509D01*
X588530Y226055D01*
X592570Y226055D01*
X596302Y224509D01*
X598006Y222805D01*
X598008Y222805D01*
X598009Y222804D01*
X598011Y222805D01*
X598013Y222805D01*
X598013Y222807D01*
X598015Y222809D01*
X598015Y225950D01*
X599500Y227435D01*
X621600Y227435D01*
X623085Y225950D01*
X623085Y219440D01*
X623090Y219435D01*
X623090Y219436D01*
X623090Y219435D01*
X697424Y219435D01*
X716473Y200387D01*
X716475Y200386D01*
X716476Y200385D01*
X744849Y200385D01*
X744852Y200388D01*
X744854Y200388D01*
X745771Y202602D01*
X748628Y205459D01*
X752360Y207005D01*
X771640Y207005D01*
X775372Y205459D01*
X778229Y202602D01*
X779775Y198870D01*
X779775Y194830D01*
X778229Y191098D01*
X775372Y188241D01*
X771640Y186695D01*
X752360Y186695D01*
G37*
%LPD*%
%LPC*%
G36*
X599500Y432965D02*
X599500Y432965D01*
X598015Y434450D01*
X598015Y437591D01*
X598014Y437592D01*
X598014Y437594D01*
X598012Y437594D01*
X598010Y437596D01*
X598009Y437595D01*
X598006Y437595D01*
X596302Y435891D01*
X592570Y434345D01*
X588530Y434345D01*
X584798Y435891D01*
X582665Y438023D01*
X582663Y438023D01*
X582662Y438024D01*
X582661Y438023D01*
X582659Y438023D01*
X582658Y438023D01*
X581600Y436965D01*
X559500Y436965D01*
X558015Y438450D01*
X558015Y450550D01*
X559500Y452035D01*
X581600Y452035D01*
X582658Y450977D01*
X582665Y450977D01*
X584798Y453109D01*
X588530Y454655D01*
X592570Y454655D01*
X596302Y453109D01*
X598006Y451405D01*
X598008Y451405D01*
X598009Y451404D01*
X598011Y451405D01*
X598013Y451405D01*
X598013Y451407D01*
X598015Y451409D01*
X598015Y454550D01*
X599500Y456035D01*
X621600Y456035D01*
X623085Y454550D01*
X623085Y444350D01*
X623090Y444345D01*
X623090Y444346D01*
X623090Y444345D01*
X623130Y444345D01*
X623135Y444350D01*
X623134Y444350D01*
X623135Y444350D01*
X623135Y445090D01*
X624620Y446575D01*
X635220Y446575D01*
X636705Y445090D01*
X636705Y435990D01*
X635220Y434505D01*
X624620Y434505D01*
X623135Y435990D01*
X623135Y436730D01*
X623130Y436735D01*
X623130Y436734D01*
X623130Y436735D01*
X623090Y436735D01*
X623085Y436730D01*
X623086Y436730D01*
X623085Y436730D01*
X623085Y434450D01*
X621600Y432965D01*
X599500Y432965D01*
G37*
%LPD*%
%LPC*%
G36*
X356300Y356765D02*
X356300Y356765D01*
X354815Y358250D01*
X354815Y378350D01*
X356300Y379835D01*
X378400Y379835D01*
X379885Y378350D01*
X379885Y375209D01*
X379886Y375208D01*
X379886Y375206D01*
X379888Y375206D01*
X379890Y375204D01*
X379891Y375204D01*
X379892Y375205D01*
X379894Y375205D01*
X381598Y376909D01*
X385330Y378455D01*
X389370Y378455D01*
X393102Y376909D01*
X395235Y374777D01*
X395241Y374777D01*
X395242Y374777D01*
X396300Y375835D01*
X418400Y375835D01*
X419885Y374350D01*
X419885Y362250D01*
X418400Y360765D01*
X396300Y360765D01*
X395242Y361823D01*
X395239Y361823D01*
X395237Y361823D01*
X395235Y361823D01*
X393102Y359691D01*
X389370Y358145D01*
X385330Y358145D01*
X381598Y359691D01*
X379894Y361395D01*
X379892Y361395D01*
X379891Y361396D01*
X379889Y361395D01*
X379887Y361395D01*
X379887Y361393D01*
X379885Y361391D01*
X379885Y358250D01*
X378400Y356765D01*
X356300Y356765D01*
G37*
%LPD*%
%LPC*%
G36*
X356300Y255165D02*
X356300Y255165D01*
X354815Y256650D01*
X354815Y276750D01*
X356300Y278235D01*
X378400Y278235D01*
X379885Y276750D01*
X379885Y273609D01*
X379886Y273608D01*
X379886Y273606D01*
X379888Y273606D01*
X379890Y273604D01*
X379891Y273605D01*
X379894Y273605D01*
X381598Y275309D01*
X385330Y276855D01*
X389370Y276855D01*
X393102Y275309D01*
X395235Y273177D01*
X395237Y273177D01*
X395238Y273176D01*
X395239Y273176D01*
X395239Y273177D01*
X395241Y273177D01*
X395242Y273177D01*
X396300Y274235D01*
X418400Y274235D01*
X419885Y272750D01*
X419885Y260650D01*
X418400Y259165D01*
X396300Y259165D01*
X395242Y260223D01*
X395235Y260223D01*
X393102Y258091D01*
X389370Y256545D01*
X385330Y256545D01*
X381598Y258091D01*
X379894Y259795D01*
X379892Y259795D01*
X379891Y259796D01*
X379889Y259795D01*
X379887Y259795D01*
X379887Y259793D01*
X379885Y259791D01*
X379885Y256650D01*
X378400Y255165D01*
X356300Y255165D01*
G37*
%LPD*%
%LPC*%
G36*
X487525Y508915D02*
X487525Y508915D01*
X483286Y510671D01*
X480041Y513916D01*
X478285Y518155D01*
X478285Y522745D01*
X479414Y525470D01*
X479413Y525474D01*
X479413Y525476D01*
X472755Y532133D01*
X472753Y532134D01*
X472752Y532135D01*
X456388Y532135D01*
X456386Y532133D01*
X456385Y532133D01*
X441797Y517545D01*
X441796Y517543D01*
X441795Y517542D01*
X441795Y511590D01*
X440310Y510105D01*
X431210Y510105D01*
X429725Y511590D01*
X429725Y522190D01*
X431210Y523675D01*
X437162Y523675D01*
X437164Y523677D01*
X437165Y523677D01*
X451003Y537515D01*
X453234Y539745D01*
X475906Y539745D01*
X478137Y537515D01*
X484794Y530857D01*
X484798Y530857D01*
X484800Y530856D01*
X487526Y531985D01*
X492114Y531985D01*
X496354Y530229D01*
X499599Y526984D01*
X501355Y522744D01*
X501355Y518156D01*
X499599Y513916D01*
X496354Y510671D01*
X492115Y508915D01*
X487525Y508915D01*
G37*
%LPD*%
%LPC*%
G36*
X599500Y407565D02*
X599500Y407565D01*
X598015Y409050D01*
X598015Y412191D01*
X598014Y412192D01*
X598014Y412194D01*
X598012Y412194D01*
X598010Y412196D01*
X598009Y412195D01*
X598006Y412195D01*
X596302Y410491D01*
X592570Y408945D01*
X588530Y408945D01*
X584798Y410491D01*
X581941Y413348D01*
X580395Y417080D01*
X580395Y421120D01*
X581941Y424852D01*
X584798Y427709D01*
X588530Y429255D01*
X592570Y429255D01*
X596302Y427709D01*
X598006Y426005D01*
X598008Y426005D01*
X598009Y426004D01*
X598011Y426005D01*
X598013Y426005D01*
X598013Y426007D01*
X598015Y426009D01*
X598015Y429150D01*
X599500Y430635D01*
X621600Y430635D01*
X623085Y429150D01*
X623085Y409050D01*
X621600Y407565D01*
X599500Y407565D01*
G37*
%LPD*%
%LPC*%
G36*
X356300Y280565D02*
X356300Y280565D01*
X354815Y282050D01*
X354815Y302150D01*
X356300Y303635D01*
X378400Y303635D01*
X379885Y302150D01*
X379885Y299009D01*
X379886Y299008D01*
X379886Y299006D01*
X379888Y299006D01*
X379890Y299004D01*
X379891Y299005D01*
X379894Y299005D01*
X381598Y300709D01*
X385330Y302255D01*
X389370Y302255D01*
X393102Y300709D01*
X395959Y297852D01*
X397505Y294120D01*
X397505Y290080D01*
X395959Y286348D01*
X393102Y283491D01*
X389370Y281945D01*
X385330Y281945D01*
X381598Y283491D01*
X379894Y285195D01*
X379892Y285195D01*
X379891Y285196D01*
X379889Y285195D01*
X379887Y285195D01*
X379887Y285193D01*
X379885Y285191D01*
X379885Y282050D01*
X378400Y280565D01*
X356300Y280565D01*
G37*
%LPD*%
%LPC*%
G36*
X356300Y382165D02*
X356300Y382165D01*
X354815Y383650D01*
X354815Y403750D01*
X356300Y405235D01*
X378400Y405235D01*
X379885Y403750D01*
X379885Y400209D01*
X379886Y400208D01*
X379886Y400206D01*
X379888Y400206D01*
X379890Y400204D01*
X379891Y400205D01*
X379894Y400205D01*
X381598Y401909D01*
X385330Y403455D01*
X389370Y403455D01*
X393102Y401909D01*
X395959Y399052D01*
X397505Y395320D01*
X397505Y391280D01*
X395959Y387548D01*
X393102Y384691D01*
X389370Y383145D01*
X385330Y383145D01*
X381598Y384691D01*
X379894Y386395D01*
X379892Y386395D01*
X379891Y386396D01*
X379889Y386395D01*
X379887Y386395D01*
X379887Y386393D01*
X379885Y386391D01*
X379885Y383650D01*
X378400Y382165D01*
X356300Y382165D01*
G37*
%LPD*%
%LPC*%
G36*
X744980Y474895D02*
X744980Y474895D01*
X743495Y476380D01*
X743495Y494480D01*
X744980Y495965D01*
X781080Y495965D01*
X782565Y494480D01*
X782565Y476380D01*
X781080Y474895D01*
X744980Y474895D01*
G37*
%LPD*%
%LPC*%
G36*
X732890Y346785D02*
X732890Y346785D01*
X731405Y348270D01*
X731405Y366370D01*
X732890Y367855D01*
X764990Y367855D01*
X766475Y366370D01*
X766475Y348270D01*
X764990Y346785D01*
X732890Y346785D01*
G37*
%LPD*%
%LPC*%
G36*
X732890Y434785D02*
X732890Y434785D01*
X731405Y436270D01*
X731405Y454370D01*
X732890Y455855D01*
X764990Y455855D01*
X766475Y454370D01*
X766475Y436270D01*
X764990Y434785D01*
X732890Y434785D01*
G37*
%LPD*%
%LPC*%
G36*
X752360Y313695D02*
X752360Y313695D01*
X748628Y315241D01*
X745771Y318098D01*
X744225Y321830D01*
X744225Y325870D01*
X745771Y329602D01*
X748628Y332459D01*
X752360Y334005D01*
X771640Y334005D01*
X775372Y332459D01*
X778229Y329602D01*
X779775Y325870D01*
X779775Y321830D01*
X778229Y318098D01*
X775372Y315241D01*
X771640Y313695D01*
X752360Y313695D01*
G37*
%LPD*%
%LPC*%
G36*
X752360Y288295D02*
X752360Y288295D01*
X748628Y289841D01*
X745771Y292698D01*
X744225Y296430D01*
X744225Y300470D01*
X745771Y304202D01*
X748628Y307059D01*
X752360Y308605D01*
X771640Y308605D01*
X775372Y307059D01*
X778229Y304202D01*
X779775Y300470D01*
X779775Y296430D01*
X778229Y292698D01*
X775372Y289841D01*
X771640Y288295D01*
X752360Y288295D01*
G37*
%LPD*%
%LPC*%
G36*
X512525Y508915D02*
X512525Y508915D01*
X508286Y510671D01*
X505041Y513916D01*
X503285Y518155D01*
X503285Y522745D01*
X505041Y526984D01*
X508286Y530229D01*
X512526Y531985D01*
X517114Y531985D01*
X521354Y530229D01*
X524599Y526984D01*
X526355Y522744D01*
X526355Y518156D01*
X524599Y513916D01*
X521354Y510671D01*
X517115Y508915D01*
X512525Y508915D01*
G37*
%LPD*%
%LPC*%
G36*
X462525Y508915D02*
X462525Y508915D01*
X458286Y510671D01*
X455041Y513916D01*
X453285Y518155D01*
X453285Y522745D01*
X455041Y526984D01*
X458286Y530229D01*
X462526Y531985D01*
X467114Y531985D01*
X471354Y530229D01*
X474599Y526984D01*
X476355Y522744D01*
X476355Y518156D01*
X474599Y513916D01*
X471354Y510671D01*
X467115Y508915D01*
X462525Y508915D01*
G37*
%LPD*%
%LPC*%
G36*
X99740Y503755D02*
X99740Y503755D01*
X98255Y505240D01*
X98255Y515840D01*
X99740Y517325D01*
X108840Y517325D01*
X110325Y515840D01*
X110325Y514350D01*
X110330Y514345D01*
X110330Y514346D01*
X110330Y514345D01*
X110420Y514345D01*
X110425Y514350D01*
X110424Y514350D01*
X110425Y514350D01*
X110425Y515590D01*
X111910Y517075D01*
X122010Y517075D01*
X123495Y515590D01*
X123495Y505490D01*
X122010Y504005D01*
X111910Y504005D01*
X110425Y505490D01*
X110425Y506730D01*
X110420Y506735D01*
X110420Y506734D01*
X110420Y506735D01*
X110330Y506735D01*
X110325Y506730D01*
X110326Y506730D01*
X110325Y506730D01*
X110325Y505240D01*
X108840Y503755D01*
X99740Y503755D01*
G37*
%LPD*%
%LPC*%
G36*
X567100Y113865D02*
X567100Y113865D01*
X565615Y115350D01*
X565615Y125950D01*
X567100Y127435D01*
X576200Y127435D01*
X577221Y126414D01*
X577228Y126413D01*
X577228Y126414D01*
X577229Y126414D01*
X578000Y127185D01*
X588100Y127185D01*
X589585Y125700D01*
X589585Y115600D01*
X588100Y114115D01*
X578000Y114115D01*
X577229Y114886D01*
X577226Y114886D01*
X577226Y114887D01*
X577224Y114887D01*
X577224Y114886D01*
X577222Y114887D01*
X577222Y114886D01*
X577221Y114886D01*
X576200Y113865D01*
X567100Y113865D01*
G37*
%LPD*%
G36*
X634278Y267357D02*
X634278Y267357D01*
X634298Y267354D01*
X635420Y267574D01*
X635439Y267584D01*
X635463Y267587D01*
X636508Y268050D01*
X636524Y268065D01*
X636546Y268073D01*
X637462Y268757D01*
X637475Y268775D01*
X637495Y268788D01*
X638235Y269659D01*
X638243Y269679D01*
X638260Y269696D01*
X638788Y270709D01*
X638792Y270731D01*
X638804Y270751D01*
X639094Y271857D01*
X639092Y271878D01*
X639100Y271901D01*
X639136Y273044D01*
X639134Y273050D01*
X639136Y273056D01*
X639104Y274115D01*
X639098Y274134D01*
X639099Y274156D01*
X638850Y275186D01*
X638840Y275203D01*
X638836Y275225D01*
X638381Y276182D01*
X638367Y276196D01*
X638359Y276217D01*
X637717Y277060D01*
X637700Y277071D01*
X637688Y277090D01*
X636886Y277782D01*
X636868Y277790D01*
X636852Y277805D01*
X635925Y278318D01*
X635905Y278322D01*
X635887Y278334D01*
X634874Y278645D01*
X634854Y278644D01*
X634833Y278653D01*
X633778Y278748D01*
X633737Y278739D01*
X633694Y278738D01*
X633677Y278725D01*
X633657Y278720D01*
X633629Y278688D01*
X633595Y278662D01*
X633589Y278641D01*
X633576Y278625D01*
X633573Y278590D01*
X633561Y278550D01*
X633561Y267550D01*
X633571Y267518D01*
X633572Y267484D01*
X633590Y267460D01*
X633600Y267432D01*
X633627Y267412D01*
X633648Y267385D01*
X633679Y267376D01*
X633701Y267360D01*
X633730Y267360D01*
X633760Y267351D01*
X634260Y267351D01*
X634278Y267357D01*
G37*
G36*
X631181Y267361D02*
X631181Y267361D01*
X631226Y267362D01*
X631241Y267374D01*
X631260Y267378D01*
X631289Y267411D01*
X631325Y267438D01*
X631331Y267457D01*
X631343Y267471D01*
X631346Y267507D01*
X631359Y267550D01*
X631359Y278550D01*
X631345Y278592D01*
X631339Y278637D01*
X631326Y278650D01*
X631320Y278668D01*
X631284Y278694D01*
X631253Y278726D01*
X631233Y278730D01*
X631219Y278740D01*
X631182Y278740D01*
X631138Y278748D01*
X630003Y278620D01*
X629983Y278611D01*
X629959Y278610D01*
X628881Y278233D01*
X628864Y278220D01*
X628841Y278214D01*
X627874Y277606D01*
X627860Y277589D01*
X627839Y277578D01*
X627032Y276771D01*
X627022Y276751D01*
X627004Y276736D01*
X626396Y275769D01*
X626391Y275748D01*
X626377Y275729D01*
X626000Y274651D01*
X625999Y274629D01*
X625990Y274607D01*
X625863Y273480D01*
X625787Y273088D01*
X625792Y273053D01*
X625787Y273012D01*
X625863Y272620D01*
X625990Y271493D01*
X625998Y271476D01*
X625998Y271469D01*
X625999Y271467D01*
X626000Y271449D01*
X626377Y270371D01*
X626390Y270354D01*
X626396Y270331D01*
X627004Y269364D01*
X627021Y269350D01*
X627032Y269329D01*
X627839Y268522D01*
X627859Y268512D01*
X627874Y268494D01*
X628841Y267886D01*
X628862Y267881D01*
X628881Y267867D01*
X629959Y267490D01*
X629981Y267489D01*
X630003Y267480D01*
X631138Y267352D01*
X631181Y267361D01*
G37*
D10*
X38100Y341850D03*
X38100Y306850D03*
D11*
X260350Y428630D03*
X260350Y508630D03*
D12*
X330200Y455050D03*
X330200Y472050D03*
X349250Y455050D03*
X349250Y472050D03*
D11*
X260350Y370200D03*
X260350Y290200D03*
D12*
X349250Y313300D03*
X349250Y296300D03*
X330200Y313300D03*
X330200Y296300D03*
D11*
X260350Y156850D03*
X260350Y236850D03*
D12*
X330200Y194700D03*
X330200Y211700D03*
X349250Y194700D03*
X349250Y211700D03*
D13*
X95250Y438150D03*
X95250Y209550D03*
X95250Y342900D03*
X95250Y304800D03*
X95250Y177800D03*
X95250Y476250D03*
D14*
X146050Y444500D03*
X146050Y469900D03*
D15*
X146050Y340360D03*
X146050Y314960D03*
D14*
X146050Y184150D03*
X146050Y209550D03*
D16*
X489820Y520450D03*
X489820Y552450D03*
X514820Y552450D03*
X464820Y552450D03*
X464820Y520450D03*
X514820Y520450D03*
D17*
X422760Y516890D03*
X435760Y516890D03*
D18*
X534670Y120650D03*
X544830Y120650D03*
D19*
X534670Y120650D01*
D17*
X558650Y120650D03*
X571650Y120650D03*
D20*
X598050Y120650D03*
X583050Y120650D03*
D21*
X754380Y323850D02*
X769620Y323850D01*
X769620Y298450D02*
X754380Y298450D01*
X754380Y273050D02*
X769620Y273050D01*
X769620Y247650D02*
X754380Y247650D01*
X754380Y222250D02*
X769620Y222250D01*
X769620Y196850D02*
X754380Y196850D01*
X754380Y171450D02*
X769620Y171450D01*
X769620Y146050D02*
X754380Y146050D01*
X754380Y120650D02*
X769620Y120650D01*
X769620Y95250D02*
X754380Y95250D01*
X754380Y69850D02*
X769620Y69850D01*
X769620Y44450D02*
X754380Y44450D01*
D22*
X367350Y444500D03*
D23*
X407350Y419100D03*
X407350Y368300D03*
X407350Y317500D03*
X407350Y266700D03*
X407350Y215900D03*
X407350Y165100D03*
X570550Y190500D03*
X570550Y241300D03*
X570550Y292100D03*
X570550Y342900D03*
X570550Y393700D03*
X570550Y444500D03*
D22*
X610550Y469900D03*
D24*
X387350Y444500D03*
X387350Y419100D03*
X387350Y393300D03*
X387350Y368300D03*
X387350Y342900D03*
X387350Y317500D03*
X387350Y292100D03*
X387350Y266700D03*
X387350Y241300D03*
X387350Y215900D03*
X387350Y190500D03*
X387350Y165100D03*
X590550Y165100D03*
X590550Y190500D03*
X590550Y215900D03*
X590550Y241300D03*
X590550Y266700D03*
X590550Y292100D03*
X590550Y317500D03*
X590550Y342900D03*
X590550Y368300D03*
X590550Y393700D03*
X590550Y419100D03*
X590550Y444500D03*
X590550Y469900D03*
D22*
X367350Y419100D03*
X367350Y393700D03*
X367350Y368300D03*
X367350Y342900D03*
X367350Y317500D03*
X367350Y292100D03*
X367350Y266700D03*
X367350Y241300D03*
X367350Y215900D03*
X367350Y190500D03*
X367350Y165100D03*
X610550Y444500D03*
X610550Y419100D03*
X610550Y393700D03*
X610550Y368300D03*
X610550Y342900D03*
X610550Y317500D03*
X610550Y292100D03*
X610550Y266700D03*
X610550Y241300D03*
X610550Y215900D03*
X610550Y190500D03*
X610550Y165100D03*
D25*
X488950Y470300D03*
X488950Y390300D03*
X488950Y310300D03*
X488950Y230300D03*
D26*
X491627Y185614D03*
X491627Y165614D03*
D27*
X684140Y346710D03*
X667140Y346710D03*
D28*
X114300Y37950D03*
X114300Y50950D03*
D17*
X125880Y91440D03*
X112880Y91440D03*
D29*
X76200Y62350D03*
X76200Y67350D03*
D30*
X76200Y37600D03*
D31*
X76200Y45350D03*
D29*
X76200Y52350D03*
X76200Y57350D03*
X76200Y77350D03*
X76200Y72350D03*
D30*
X76200Y102100D03*
D31*
X76200Y94350D03*
D29*
X76200Y87350D03*
X76200Y82350D03*
D32*
X72550Y113050D02*
X61550Y113050D01*
X61550Y26650D02*
X72550Y26650D01*
X28250Y113050D02*
X22250Y113050D01*
X22250Y26650D02*
X28250Y26650D01*
D33*
X726440Y401320D03*
X726440Y381320D03*
X726440Y421320D03*
D34*
X748940Y357320D03*
X748940Y445320D03*
D10*
X38100Y475200D03*
X38100Y440200D03*
X38100Y214850D03*
X38100Y179850D03*
D35*
X711030Y529430D03*
X711030Y509430D03*
D36*
X763030Y553430D03*
X763030Y485430D03*
D28*
X727710Y264010D03*
X727710Y277010D03*
X716280Y279550D03*
X716280Y266550D03*
D37*
X634560Y273050D03*
X630360Y273050D03*
D28*
X629920Y440540D03*
X629920Y453540D03*
X702310Y279550D03*
X702310Y266550D03*
D38*
X655320Y273050D03*
X680720Y273050D03*
D17*
X91290Y510540D03*
X104290Y510540D03*
D20*
X131960Y510540D03*
X116960Y510540D03*
D39*
X194175Y114300D03*
X161425Y114300D03*
D40*
X702310Y279550D02*
X716280Y279550D01*
D41*
X629920Y525780D03*
D19*
X633570Y529430D02*
X711030Y529430D01*
X633570Y529430D02*
X629920Y525780D01*
X762000Y44450D02*
X306070Y44450D01*
X273050Y11430D01*
X140820Y11430D02*
X115495Y36755D01*
X114300Y37950D01*
X140820Y11430D02*
X273050Y11430D01*
X422760Y516890D02*
X423228Y518160D01*
X411480Y518160D01*
D41*
X411480Y518160D03*
D42*
X137160Y91440D02*
X125880Y91440D01*
D41*
X137160Y91440D03*
X129540Y38100D03*
D42*
X128195Y36755D01*
X115495Y36755D01*
X113950Y37600D02*
X76200Y37600D01*
X113950Y37600D02*
X114300Y37950D01*
X76200Y102100D02*
X67050Y111250D01*
X67050Y113050D01*
X76200Y37600D02*
X76200Y35800D01*
X67050Y26650D01*
D19*
X132080Y510420D02*
X131960Y510540D01*
X132080Y510420D02*
X132080Y497840D01*
D41*
X132080Y497840D03*
X474980Y378460D03*
X474980Y363220D03*
X474980Y342900D03*
X490220Y332740D03*
X510540Y332740D03*
X515620Y353060D03*
X518160Y373380D03*
X508000Y391160D03*
X497840Y363220D03*
X508000Y223520D03*
X508000Y243840D03*
X485140Y254000D03*
X462280Y256540D03*
X459740Y223520D03*
X459740Y203200D03*
X490220Y203200D03*
X424180Y393700D03*
X424180Y337820D03*
X424180Y266700D03*
X426720Y190500D03*
X556260Y167640D03*
X553720Y254000D03*
X551180Y345440D03*
X548640Y416560D03*
X426720Y472440D03*
X469900Y469900D03*
X528320Y477520D03*
X35560Y259080D03*
X81280Y261620D03*
X127000Y261620D03*
X165100Y264160D03*
X226060Y312420D03*
X223520Y289560D03*
X228600Y256540D03*
X220980Y223520D03*
X292100Y302260D03*
X289560Y271780D03*
X292100Y236220D03*
X292100Y215900D03*
X314960Y264160D03*
X347980Y264160D03*
X325120Y231140D03*
X347980Y231140D03*
X414020Y243840D03*
X424180Y215900D03*
X60960Y218440D03*
X119380Y215900D03*
X170180Y215900D03*
X190500Y215900D03*
X71120Y474980D03*
X116840Y477520D03*
X172720Y474980D03*
X218440Y474980D03*
X246380Y474980D03*
X281940Y477520D03*
X304800Y490220D03*
X327660Y490220D03*
X347980Y490220D03*
X370840Y490220D03*
X187960Y309880D03*
X114300Y309880D03*
X33020Y88900D03*
X33020Y48260D03*
X111760Y63500D03*
X152400Y63500D03*
X187960Y60960D03*
X236220Y60960D03*
X276860Y63500D03*
X312420Y60960D03*
X368300Y63500D03*
X396240Y78740D03*
X416560Y96520D03*
X154940Y91440D03*
X200660Y93980D03*
X238760Y93980D03*
X287020Y91440D03*
X335280Y99060D03*
X426720Y167640D03*
X398780Y134620D03*
X370840Y127000D03*
X317500Y127000D03*
X271780Y127000D03*
X233680Y127000D03*
X129540Y139700D03*
X167640Y139700D03*
X203200Y139700D03*
X464820Y154940D03*
X441960Y134620D03*
X546100Y137160D03*
X574040Y139700D03*
X622300Y134620D03*
X660400Y132080D03*
X688340Y132080D03*
X683260Y86360D03*
X647700Y86360D03*
X607060Y83820D03*
X571500Y86360D03*
X541020Y86360D03*
X497840Y101600D03*
X508000Y83820D03*
X474980Y132080D03*
X447040Y91440D03*
X474980Y60960D03*
X551180Y58420D03*
X609600Y58420D03*
X660400Y58420D03*
X706120Y58420D03*
X629920Y396240D03*
X629920Y375920D03*
X637540Y403860D03*
X637540Y386080D03*
X629920Y508000D03*
X607060Y520700D03*
X698500Y464820D03*
X734060Y464820D03*
X556260Y558800D03*
X589280Y558800D03*
X617220Y558800D03*
X647700Y558800D03*
X685800Y558800D03*
X711200Y556260D03*
X228600Y528320D03*
X226060Y505460D03*
X284480Y533400D03*
X281940Y500380D03*
X241300Y543560D03*
X266700Y543560D03*
X50800Y543560D03*
X116840Y548640D03*
X187960Y546100D03*
X327660Y548640D03*
X388620Y546100D03*
X20320Y533400D03*
X63500Y312420D03*
X63500Y287020D03*
X63500Y261620D03*
X86360Y132080D03*
X40640Y134620D03*
X350520Y393700D03*
X350520Y368300D03*
X454660Y431800D03*
X543560Y200660D03*
D40*
X534670Y120650D02*
X455930Y120650D01*
X452120Y116840D01*
D41*
X452120Y116840D03*
D19*
X387350Y444500D02*
X387350Y486410D01*
X401320Y500380D01*
X607060Y500380D01*
X627380Y480060D01*
X499110Y69850D02*
X762000Y69850D01*
X499110Y69850D02*
X452120Y116840D01*
X629920Y453540D02*
X627380Y456080D01*
X627380Y480060D01*
X91290Y510540D02*
X25400Y510540D01*
X15240Y500380D01*
X37320Y440200D02*
X38100Y440200D01*
X15240Y462280D02*
X15240Y500380D01*
X15240Y462280D02*
X37320Y440200D01*
D40*
X544830Y120650D02*
X558650Y120650D01*
X571650Y120650D02*
X583050Y120650D01*
D43*
X590550Y469900D02*
X610550Y469900D01*
D19*
X591820Y444500D02*
X590550Y444500D01*
D41*
X614680Y444500D03*
D19*
X591820Y444500D01*
X618640Y440540D02*
X629920Y440540D01*
X618640Y440540D02*
X614680Y444500D01*
D43*
X591820Y444500D02*
X570550Y444500D01*
D40*
X599694Y273050D02*
X590550Y266700D01*
X599694Y273050D02*
X629920Y273050D01*
X630360Y273050D01*
X630360Y282380D01*
X632460Y284480D01*
X650240Y284480D01*
X655320Y279400D02*
X655320Y273050D01*
X655320Y279400D02*
X650240Y284480D01*
D19*
X636270Y247650D02*
X762000Y247650D01*
X636270Y247650D02*
X629920Y254000D01*
X629920Y273050D01*
X655320Y273050D02*
X655320Y287020D01*
X713740Y345440D02*
X713740Y381000D01*
X714060Y381320D01*
X726440Y381320D01*
X713740Y345440D02*
X655320Y287020D01*
D43*
X610550Y266700D02*
X590550Y266700D01*
D40*
X590550Y241300D02*
X703580Y241300D01*
X723900Y220980D01*
X760730Y220980D01*
X762000Y222250D01*
D43*
X589280Y241300D02*
X570550Y241300D01*
X589280Y241300D02*
X590550Y241300D01*
D19*
X589280Y241300D02*
X610550Y241300D01*
D40*
X591820Y215900D02*
X590550Y215900D01*
X591820Y215900D02*
X695960Y215900D01*
X715010Y196850D02*
X762000Y196850D01*
X715010Y196850D02*
X695960Y215900D01*
D19*
X610550Y215900D02*
X591820Y215900D01*
D40*
X591820Y190500D02*
X590550Y190500D01*
X591820Y190500D02*
X688340Y190500D01*
X708660Y170180D01*
X760730Y170180D01*
X762000Y171450D01*
D43*
X590550Y190500D02*
X570550Y190500D01*
D19*
X591820Y190500D02*
X610550Y190500D01*
D40*
X590550Y165100D02*
X590898Y164859D01*
X591240Y164609D01*
X591576Y164352D01*
X591906Y164086D01*
X592229Y163813D01*
X592546Y163532D01*
X592856Y163244D01*
X593159Y162948D01*
X593455Y162645D01*
X593743Y162335D01*
X594024Y162019D01*
X594298Y161696D01*
X594563Y161366D01*
X594821Y161031D01*
X595071Y160689D01*
X595313Y160341D01*
X595546Y159988D01*
X595771Y159629D01*
X595987Y159265D01*
X596194Y158896D01*
X596393Y158522D01*
X596582Y158144D01*
X596763Y157761D01*
X596934Y157374D01*
X597096Y156983D01*
X597249Y156588D01*
X597393Y156190D01*
X597526Y155788D01*
X597651Y155383D01*
X597765Y154976D01*
X597870Y154566D01*
X597965Y154153D01*
X598050Y153739D01*
X598050Y120650D01*
X591820Y165100D02*
X590550Y165100D01*
X591820Y165100D02*
X688340Y165100D01*
X707390Y146050D02*
X762000Y146050D01*
X707390Y146050D02*
X688340Y165100D01*
D19*
X610550Y165100D02*
X591820Y165100D01*
D43*
X387350Y292100D02*
X373380Y292100D01*
D40*
X727710Y277010D02*
X758040Y277010D01*
X762000Y273050D01*
D19*
X387350Y292100D02*
X367350Y292100D01*
D42*
X76200Y94350D02*
X66410Y94350D01*
X55880Y83820D02*
X55880Y58420D01*
X55880Y83820D02*
X66410Y94350D01*
X68950Y45350D02*
X76200Y45350D01*
X68950Y45350D02*
X55880Y58420D01*
X76200Y94350D02*
X94350Y94350D01*
X114300Y114300D02*
X161425Y114300D01*
X114300Y114300D02*
X94350Y94350D01*
D40*
X88900Y72350D02*
X76200Y72350D01*
X88900Y72350D02*
X348849Y72350D01*
X349453Y72357D01*
X350058Y72379D01*
X350661Y72415D01*
X351263Y72465D01*
X351864Y72530D01*
X352464Y72609D01*
X353061Y72702D01*
X353656Y72809D01*
X354248Y72930D01*
X354837Y73066D01*
X355423Y73215D01*
X356005Y73379D01*
X356583Y73556D01*
X357157Y73747D01*
X357725Y73951D01*
X358289Y74169D01*
X358848Y74401D01*
X359401Y74645D01*
X359947Y74903D01*
X360488Y75174D01*
X361022Y75457D01*
X361549Y75753D01*
X362069Y76061D01*
X362581Y76382D01*
X363086Y76715D01*
X363582Y77060D01*
X364071Y77416D01*
X364550Y77784D01*
X365021Y78164D01*
X365482Y78554D01*
X365935Y78955D01*
X366377Y79367D01*
X366810Y79789D01*
X445194Y158174D02*
X445641Y158609D01*
X446097Y159033D01*
X446564Y159446D01*
X447041Y159847D01*
X447528Y160237D01*
X448024Y160614D01*
X448529Y160980D01*
X449044Y161332D01*
X449566Y161672D01*
X450097Y161999D01*
X450635Y162313D01*
X451182Y162614D01*
X451735Y162901D01*
X452295Y163174D01*
X452862Y163434D01*
X453435Y163680D01*
X454014Y163911D01*
X454598Y164128D01*
X455187Y164331D01*
X455782Y164519D01*
X456380Y164693D01*
X456983Y164852D01*
X457590Y164996D01*
X458200Y165125D01*
X458813Y165239D01*
X459428Y165338D01*
X460046Y165422D01*
X460665Y165491D01*
X461286Y165544D01*
X461909Y165582D01*
X462532Y165605D01*
X463155Y165613D01*
X463155Y165614D02*
X491627Y165614D01*
X445194Y158174D02*
X366810Y79790D01*
X83584Y62350D02*
X76200Y62350D01*
X83584Y62350D02*
X83707Y62352D01*
X83831Y62358D01*
X83953Y62367D01*
X84076Y62381D01*
X84198Y62398D01*
X84320Y62420D01*
X84440Y62445D01*
X84560Y62473D01*
X84679Y62506D01*
X84797Y62542D01*
X84914Y62582D01*
X85029Y62626D01*
X85143Y62673D01*
X85256Y62724D01*
X85366Y62778D01*
X85475Y62836D01*
X85582Y62897D01*
X85688Y62961D01*
X85791Y63029D01*
X85892Y63100D01*
X85990Y63174D01*
X86087Y63251D01*
X86180Y63331D01*
X86272Y63414D01*
X86360Y63500D01*
X88900Y66040D01*
X88900Y72350D01*
D19*
X491627Y165614D02*
X492141Y165100D01*
X515620Y165100D01*
D41*
X515620Y165100D03*
X518160Y109220D03*
D19*
X520700Y106680D01*
X748030Y106680D01*
X762000Y120650D01*
D40*
X346229Y77350D02*
X76200Y77350D01*
X346229Y77350D02*
X346833Y77357D01*
X347438Y77379D01*
X348041Y77415D01*
X348643Y77465D01*
X349244Y77530D01*
X349844Y77609D01*
X350441Y77702D01*
X351036Y77809D01*
X351628Y77930D01*
X352217Y78066D01*
X352803Y78215D01*
X353385Y78379D01*
X353963Y78556D01*
X354537Y78747D01*
X355105Y78951D01*
X355669Y79169D01*
X356228Y79401D01*
X356781Y79645D01*
X357327Y79903D01*
X357868Y80174D01*
X358402Y80457D01*
X358929Y80753D01*
X359449Y81061D01*
X359961Y81382D01*
X360466Y81715D01*
X360962Y82060D01*
X361451Y82416D01*
X361930Y82784D01*
X362401Y83164D01*
X362862Y83554D01*
X363315Y83955D01*
X363757Y84367D01*
X364190Y84789D01*
X457574Y178174D02*
X458021Y178609D01*
X458477Y179033D01*
X458944Y179446D01*
X459421Y179847D01*
X459908Y180237D01*
X460404Y180614D01*
X460909Y180980D01*
X461424Y181332D01*
X461946Y181672D01*
X462477Y181999D01*
X463015Y182313D01*
X463562Y182614D01*
X464115Y182901D01*
X464675Y183174D01*
X465242Y183434D01*
X465815Y183680D01*
X466394Y183911D01*
X466978Y184128D01*
X467567Y184331D01*
X468162Y184519D01*
X468760Y184693D01*
X469363Y184852D01*
X469970Y184996D01*
X470580Y185125D01*
X471193Y185239D01*
X471808Y185338D01*
X472426Y185422D01*
X473045Y185491D01*
X473666Y185544D01*
X474289Y185582D01*
X474912Y185605D01*
X475535Y185613D01*
X475535Y185614D02*
X491627Y185614D01*
X457574Y178174D02*
X364190Y84790D01*
X76200Y67350D02*
X66469Y67350D01*
X66342Y67352D01*
X66215Y67358D01*
X66089Y67367D01*
X65963Y67381D01*
X65837Y67398D01*
X65712Y67419D01*
X65588Y67444D01*
X65464Y67472D01*
X65341Y67504D01*
X65220Y67540D01*
X65099Y67580D01*
X64980Y67623D01*
X64862Y67670D01*
X64746Y67720D01*
X64631Y67774D01*
X64518Y67831D01*
X64406Y67892D01*
X64297Y67956D01*
X64189Y68023D01*
X64084Y68093D01*
X63980Y68167D01*
X63879Y68244D01*
X63781Y68323D01*
X63685Y68406D01*
X63591Y68492D01*
X63500Y68580D01*
X63500Y73660D01*
X66040Y76200D01*
X66128Y76286D01*
X66220Y76369D01*
X66313Y76449D01*
X66410Y76526D01*
X66508Y76600D01*
X66609Y76671D01*
X66712Y76739D01*
X66818Y76803D01*
X66925Y76864D01*
X67034Y76922D01*
X67144Y76976D01*
X67257Y77027D01*
X67371Y77074D01*
X67486Y77118D01*
X67603Y77158D01*
X67721Y77194D01*
X67840Y77227D01*
X67960Y77255D01*
X68080Y77280D01*
X68202Y77302D01*
X68324Y77319D01*
X68447Y77333D01*
X68569Y77342D01*
X68693Y77348D01*
X68816Y77350D01*
X76200Y77350D01*
D19*
X491627Y185614D02*
X502727Y185614D01*
X508000Y180340D01*
D41*
X508000Y180340D03*
X513080Y99060D03*
D19*
X514350Y100330D02*
X756920Y100330D01*
X514350Y100330D02*
X513080Y99060D01*
X756920Y100330D02*
X762000Y95250D01*
X101550Y82350D02*
X76200Y82350D01*
X101550Y82350D02*
X112880Y91440D01*
X112900Y52350D02*
X76200Y52350D01*
X112900Y52350D02*
X114300Y50950D01*
D42*
X194175Y114300D02*
X200660Y114300D01*
X243210Y156850D02*
X260350Y156850D01*
X243210Y156850D02*
X200660Y114300D01*
D19*
X435760Y516890D02*
X454810Y535940D01*
X474330Y535940D02*
X489820Y520450D01*
X474330Y535940D02*
X454810Y535940D01*
D40*
X718820Y264010D02*
X727710Y264010D01*
X718820Y264010D02*
X716280Y266550D01*
X637540Y270070D02*
X634560Y273050D01*
X637540Y270070D02*
X637540Y259080D01*
X642620Y254000D01*
X703580Y254000D01*
X716130Y266550D02*
X716280Y266550D01*
X716130Y266550D02*
X703580Y254000D01*
X689610Y273050D02*
X680720Y273050D01*
X696110Y266550D02*
X702310Y266550D01*
X696110Y266550D02*
X689610Y273050D01*
D19*
X116960Y510540D02*
X104290Y510540D01*
M02*
