M48
;GenerationSoftware,Autodesk,EAGLE,9.6.2*%
;CreationDate,2024-03-27T05:43:53Z*%
FMAT,2
ICI,OFF
METRIC,TZ,000.000
T4C0.350
T3C0.650
T2C1.000
T1C1.016
%
G90
M71
T1
X38735Y34290
X38735Y21590
X38735Y19050
X38735Y16510
X59055Y16510
X59055Y19050
X59055Y21590
X38735Y44450
X59055Y24130
X59055Y26670
X59055Y29210
X59055Y31750
X59055Y34290
X59055Y36830
X59055Y39370
X59055Y41910
X59055Y46990
X76200Y32385
X76200Y29845
X76200Y27305
X76200Y24765
X76200Y22225
X76200Y19685
X76200Y17145
X76200Y14605
X76200Y12065
X76200Y9525
X76200Y6985
X76200Y4445
X59055Y44450
X38735Y41910
X38735Y39330
X38735Y36830
X38735Y31750
X38735Y29210
X38735Y26670
X38735Y24130
T2
X3810Y34185
X3810Y30685
X14605Y44450
X14605Y46990
X14605Y31496
X14605Y18415
X14605Y20955
X48982Y52045
X48982Y55245
X51482Y55245
X46482Y55245
X46482Y52045
X51482Y52045
X14605Y34036
X3810Y47520
X3810Y44020
X3810Y21485
X3810Y17985
X65532Y27305
X68072Y27305
T3
X6175Y9875
X6175Y4095
T4
X28194Y47752
X30480Y49022
X32766Y49022
X34798Y49022
X37084Y49022
X18796Y30988
X11430Y30988
X3302Y8890
X3302Y4826
X11176Y6350
X15240Y6350
X18796Y6096
X23622Y6096
X27686Y6350
X31242Y6096
X36830Y6350
X39624Y7874
X41656Y9652
X15494Y9144
X20066Y9398
X23876Y9398
X28702Y9144
X33528Y9906
X42672Y16764
X39878Y13462
X37084Y12700
X31750Y12700
X27178Y12700
X23368Y12700
X12954Y13970
X16764Y13970
X20320Y13970
X46482Y15494
X44196Y13462
X54610Y13716
X57404Y13970
X62230Y13462
X66040Y13208
X68834Y13208
X68326Y8636
X64770Y8636
X60706Y8382
X57150Y8636
X54102Y8636
X49784Y10160
X50800Y8382
X47498Y13208
X55372Y25400
X47498Y6096
X55118Y5842
X60960Y5842
X66040Y5842
X70612Y5842
X62992Y39624
X62992Y37592
X63754Y40386
X63754Y38608
X62992Y50800
X60706Y52070
X69850Y46482
X73406Y46482
X55626Y55880
X58928Y55880
X61722Y55880
X64770Y55880
X68580Y55880
X71120Y55626
X22860Y52832
X22606Y50546
X28448Y53340
X28194Y50038
X24130Y54356
X26670Y54356
X5080Y54356
X11684Y54864
X18796Y54610
X32766Y54864
X38862Y54610
X2032Y53340
X6350Y31242
X6350Y28702
X6350Y26162
X8636Y13208
X4064Y13462
X35052Y39370
X35052Y36830
X45466Y43180
X54356Y20066
X45212Y11684
X61468Y44450
X51562Y16510
X51816Y10922
X50800Y18034
X51308Y9906
X62992Y52578
X41148Y51816
X13716Y9144
X12954Y3810
X13208Y49784
X47498Y37846
X47498Y36322
X47498Y34290
X49022Y33274
X51054Y33274
X51562Y35306
X51816Y37338
X50800Y39116
X49784Y36322
X50800Y22352
X50800Y24384
X48514Y25400
X46228Y25654
X45974Y22352
X45974Y20320
X49022Y20320
X42418Y39370
X42418Y33782
X42418Y26670
X42672Y19050
X55626Y16764
X55118Y34544
X54864Y41656
X42672Y47244
X46990Y46990
X52832Y47752
X3556Y25908
X44704Y9144
X8128Y26162
X12700Y26162
X16510Y26416
X22606Y31242
X22352Y28956
X22860Y25654
X22098Y22352
X29210Y30226
X28956Y27178
X29210Y23622
X29210Y21590
X31496Y26416
X34798Y26416
X32512Y23114
X34798Y23114
X41402Y24384
X42418Y21590
X6096Y21844
X11938Y21590
X17018Y21590
X19050Y21590
X7112Y47498
X11684Y47752
X17272Y47498
X21844Y47498
X24638Y47498
M30