G04 EAGLE Gerber RS-274X export*
G75*
%MOMM*%
%FSLAX34Y34*%
%LPD*%
%IN*%
%IPPOS*%
%AMOC8*
5,1,8,0,0,1.08239X$1,22.5*%
G01*
%ADD10C,0.254000*%


D10*
X0Y12700D02*
X12700Y0D01*
X787400Y0D01*
X800100Y12700D01*
X800100Y558800D01*
X787400Y571500D01*
X25400Y571500D01*
X0Y546100D01*
X0Y12700D01*
X61550Y23650D02*
X72550Y23650D01*
X72811Y23661D01*
X73071Y23696D01*
X73326Y23752D01*
X73576Y23831D01*
X73818Y23931D01*
X74050Y24052D01*
X74271Y24193D01*
X74478Y24352D01*
X74671Y24529D01*
X74848Y24722D01*
X75007Y24929D01*
X75148Y25150D01*
X75269Y25382D01*
X75369Y25624D01*
X75448Y25874D01*
X75504Y26129D01*
X75539Y26389D01*
X75550Y26650D01*
X75539Y26911D01*
X75504Y27171D01*
X75448Y27426D01*
X75369Y27676D01*
X75269Y27918D01*
X75148Y28150D01*
X75007Y28371D01*
X74848Y28578D01*
X74671Y28771D01*
X74478Y28948D01*
X74271Y29107D01*
X74050Y29248D01*
X73818Y29369D01*
X73576Y29469D01*
X73326Y29548D01*
X73071Y29604D01*
X72811Y29639D01*
X72550Y29650D01*
X61550Y29650D01*
X61289Y29639D01*
X61029Y29604D01*
X60774Y29548D01*
X60524Y29469D01*
X60282Y29369D01*
X60050Y29248D01*
X59829Y29107D01*
X59622Y28948D01*
X59429Y28771D01*
X59252Y28578D01*
X59093Y28371D01*
X58952Y28150D01*
X58831Y27918D01*
X58731Y27676D01*
X58652Y27426D01*
X58596Y27171D01*
X58561Y26911D01*
X58550Y26650D01*
X58561Y26389D01*
X58596Y26129D01*
X58652Y25874D01*
X58731Y25624D01*
X58831Y25382D01*
X58952Y25150D01*
X59093Y24929D01*
X59252Y24722D01*
X59429Y24529D01*
X59622Y24352D01*
X59829Y24193D01*
X60050Y24052D01*
X60282Y23931D01*
X60524Y23831D01*
X60774Y23752D01*
X61029Y23696D01*
X61289Y23661D01*
X61550Y23650D01*
X22200Y23650D02*
X28400Y23650D01*
X28661Y23661D01*
X28921Y23696D01*
X29176Y23752D01*
X29426Y23831D01*
X29668Y23931D01*
X29900Y24052D01*
X30121Y24193D01*
X30328Y24352D01*
X30521Y24529D01*
X30698Y24722D01*
X30857Y24929D01*
X30998Y25150D01*
X31119Y25382D01*
X31219Y25624D01*
X31298Y25874D01*
X31354Y26129D01*
X31389Y26389D01*
X31400Y26650D01*
X31389Y26911D01*
X31354Y27171D01*
X31298Y27426D01*
X31219Y27676D01*
X31119Y27918D01*
X30998Y28150D01*
X30857Y28371D01*
X30698Y28578D01*
X30521Y28771D01*
X30328Y28948D01*
X30121Y29107D01*
X29900Y29248D01*
X29668Y29369D01*
X29426Y29469D01*
X29176Y29548D01*
X28921Y29604D01*
X28661Y29639D01*
X28400Y29650D01*
X22200Y29650D01*
X21939Y29639D01*
X21679Y29604D01*
X21424Y29548D01*
X21174Y29469D01*
X20932Y29369D01*
X20700Y29248D01*
X20479Y29107D01*
X20272Y28948D01*
X20079Y28771D01*
X19902Y28578D01*
X19743Y28371D01*
X19602Y28150D01*
X19481Y27918D01*
X19381Y27676D01*
X19302Y27426D01*
X19246Y27171D01*
X19211Y26911D01*
X19200Y26650D01*
X19211Y26389D01*
X19246Y26129D01*
X19302Y25874D01*
X19381Y25624D01*
X19481Y25382D01*
X19602Y25150D01*
X19743Y24929D01*
X19902Y24722D01*
X20079Y24529D01*
X20272Y24352D01*
X20479Y24193D01*
X20700Y24052D01*
X20932Y23931D01*
X21174Y23831D01*
X21424Y23752D01*
X21679Y23696D01*
X21939Y23661D01*
X22200Y23650D01*
X22200Y110050D02*
X28400Y110050D01*
X28661Y110061D01*
X28921Y110096D01*
X29176Y110152D01*
X29426Y110231D01*
X29668Y110331D01*
X29900Y110452D01*
X30121Y110593D01*
X30328Y110752D01*
X30521Y110929D01*
X30698Y111122D01*
X30857Y111329D01*
X30998Y111550D01*
X31119Y111782D01*
X31219Y112024D01*
X31298Y112274D01*
X31354Y112529D01*
X31389Y112789D01*
X31400Y113050D01*
X31389Y113311D01*
X31354Y113571D01*
X31298Y113826D01*
X31219Y114076D01*
X31119Y114318D01*
X30998Y114550D01*
X30857Y114771D01*
X30698Y114978D01*
X30521Y115171D01*
X30328Y115348D01*
X30121Y115507D01*
X29900Y115648D01*
X29668Y115769D01*
X29426Y115869D01*
X29176Y115948D01*
X28921Y116004D01*
X28661Y116039D01*
X28400Y116050D01*
X22200Y116050D01*
X21939Y116039D01*
X21679Y116004D01*
X21424Y115948D01*
X21174Y115869D01*
X20932Y115769D01*
X20700Y115648D01*
X20479Y115507D01*
X20272Y115348D01*
X20079Y115171D01*
X19902Y114978D01*
X19743Y114771D01*
X19602Y114550D01*
X19481Y114318D01*
X19381Y114076D01*
X19302Y113826D01*
X19246Y113571D01*
X19211Y113311D01*
X19200Y113050D01*
X19211Y112789D01*
X19246Y112529D01*
X19302Y112274D01*
X19381Y112024D01*
X19481Y111782D01*
X19602Y111550D01*
X19743Y111329D01*
X19902Y111122D01*
X20079Y110929D01*
X20272Y110752D01*
X20479Y110593D01*
X20700Y110452D01*
X20932Y110331D01*
X21174Y110231D01*
X21424Y110152D01*
X21679Y110096D01*
X21939Y110061D01*
X22200Y110050D01*
X61550Y110050D02*
X72550Y110050D01*
X72811Y110061D01*
X73071Y110096D01*
X73326Y110152D01*
X73576Y110231D01*
X73818Y110331D01*
X74050Y110452D01*
X74271Y110593D01*
X74478Y110752D01*
X74671Y110929D01*
X74848Y111122D01*
X75007Y111329D01*
X75148Y111550D01*
X75269Y111782D01*
X75369Y112024D01*
X75448Y112274D01*
X75504Y112529D01*
X75539Y112789D01*
X75550Y113050D01*
X75539Y113311D01*
X75504Y113571D01*
X75448Y113826D01*
X75369Y114076D01*
X75269Y114318D01*
X75148Y114550D01*
X75007Y114771D01*
X74848Y114978D01*
X74671Y115171D01*
X74478Y115348D01*
X74271Y115507D01*
X74050Y115648D01*
X73818Y115769D01*
X73576Y115869D01*
X73326Y115948D01*
X73071Y116004D01*
X72811Y116039D01*
X72550Y116050D01*
X61550Y116050D01*
X61289Y116039D01*
X61029Y116004D01*
X60774Y115948D01*
X60524Y115869D01*
X60282Y115769D01*
X60050Y115648D01*
X59829Y115507D01*
X59622Y115348D01*
X59429Y115171D01*
X59252Y114978D01*
X59093Y114771D01*
X58952Y114550D01*
X58831Y114318D01*
X58731Y114076D01*
X58652Y113826D01*
X58596Y113571D01*
X58561Y113311D01*
X58550Y113050D01*
X58561Y112789D01*
X58596Y112529D01*
X58652Y112274D01*
X58731Y112024D01*
X58831Y111782D01*
X58952Y111550D01*
X59093Y111329D01*
X59252Y111122D01*
X59429Y110929D01*
X59622Y110752D01*
X59829Y110593D01*
X60050Y110452D01*
X60282Y110331D01*
X60524Y110231D01*
X60774Y110152D01*
X61029Y110096D01*
X61289Y110061D01*
X61550Y110050D01*
X61537Y95500D02*
X61115Y95556D01*
X60703Y95666D01*
X60309Y95829D01*
X59941Y96042D01*
X59603Y96301D01*
X59301Y96603D01*
X59042Y96941D01*
X58829Y97309D01*
X58666Y97703D01*
X58556Y98115D01*
X58500Y98537D01*
X58500Y98963D01*
X58556Y99385D01*
X58666Y99797D01*
X58829Y100191D01*
X59042Y100559D01*
X59301Y100897D01*
X59603Y101199D01*
X59941Y101458D01*
X60309Y101671D01*
X60703Y101834D01*
X61115Y101944D01*
X61537Y102000D01*
X61963Y102000D01*
X62385Y101944D01*
X62797Y101834D01*
X63191Y101671D01*
X63559Y101458D01*
X63897Y101199D01*
X64199Y100897D01*
X64458Y100559D01*
X64671Y100191D01*
X64834Y99797D01*
X64944Y99385D01*
X65000Y98963D01*
X65000Y98537D01*
X64944Y98115D01*
X64834Y97703D01*
X64671Y97309D01*
X64458Y96941D01*
X64199Y96603D01*
X63897Y96301D01*
X63559Y96042D01*
X63191Y95829D01*
X62797Y95666D01*
X62385Y95556D01*
X61963Y95500D01*
X61537Y95500D01*
X61537Y37700D02*
X61115Y37756D01*
X60703Y37866D01*
X60309Y38029D01*
X59941Y38242D01*
X59603Y38501D01*
X59301Y38803D01*
X59042Y39141D01*
X58829Y39509D01*
X58666Y39903D01*
X58556Y40315D01*
X58500Y40737D01*
X58500Y41163D01*
X58556Y41585D01*
X58666Y41997D01*
X58829Y42391D01*
X59042Y42759D01*
X59301Y43097D01*
X59603Y43399D01*
X59941Y43658D01*
X60309Y43871D01*
X60703Y44034D01*
X61115Y44144D01*
X61537Y44200D01*
X61963Y44200D01*
X62385Y44144D01*
X62797Y44034D01*
X63191Y43871D01*
X63559Y43658D01*
X63897Y43399D01*
X64199Y43097D01*
X64458Y42759D01*
X64671Y42391D01*
X64834Y41997D01*
X64944Y41585D01*
X65000Y41163D01*
X65000Y40737D01*
X64944Y40315D01*
X64834Y39903D01*
X64671Y39509D01*
X64458Y39141D01*
X64199Y38803D01*
X63897Y38501D01*
X63559Y38242D01*
X63191Y38029D01*
X62797Y37866D01*
X62385Y37756D01*
X61963Y37700D01*
X61537Y37700D01*
M02*
