G04 EAGLE Gerber RS-274X export*
G75*
%MOMM*%
%FSLAX34Y34*%
%LPD*%
%INSoldermask Bottom*%
%IPPOS*%
%AMOC8*
5,1,8,0,0,1.08239X$1,22.5*%
G01*
%ADD10C,2.387600*%
%ADD11P,2.309387X8X22.500000*%
%ADD12P,2.309387X8X202.500000*%
%ADD13C,2.003200*%
%ADD14C,1.727200*%
%ADD15C,1.727200*%
%ADD16C,0.853200*%
%ADD17P,2.309387X8X292.500000*%


D10*
X38100Y341850D03*
X38100Y306850D03*
D11*
X146050Y444500D03*
X146050Y469900D03*
D12*
X146050Y340360D03*
X146050Y314960D03*
D11*
X146050Y184150D03*
X146050Y209550D03*
D13*
X489820Y520450D03*
X489820Y552450D03*
X514820Y552450D03*
X464820Y552450D03*
X464820Y520450D03*
X514820Y520450D03*
D14*
X754380Y323850D02*
X769620Y323850D01*
X769620Y298450D02*
X754380Y298450D01*
X754380Y273050D02*
X769620Y273050D01*
X769620Y247650D02*
X754380Y247650D01*
X754380Y222250D02*
X769620Y222250D01*
X769620Y196850D02*
X754380Y196850D01*
X754380Y171450D02*
X769620Y171450D01*
X769620Y146050D02*
X754380Y146050D01*
X754380Y120650D02*
X769620Y120650D01*
X769620Y95250D02*
X754380Y95250D01*
X754380Y69850D02*
X769620Y69850D01*
X769620Y44450D02*
X754380Y44450D01*
D15*
X387350Y444500D03*
X387350Y419100D03*
X387350Y393300D03*
X387350Y368300D03*
X387350Y342900D03*
X387350Y317500D03*
X387350Y292100D03*
X387350Y266700D03*
X387350Y241300D03*
X387350Y215900D03*
X387350Y190500D03*
X387350Y165100D03*
X590550Y165100D03*
X590550Y190500D03*
X590550Y215900D03*
X590550Y241300D03*
X590550Y266700D03*
X590550Y292100D03*
X590550Y317500D03*
X590550Y342900D03*
X590550Y368300D03*
X590550Y393700D03*
X590550Y419100D03*
X590550Y444500D03*
X590550Y469900D03*
D16*
X61750Y98750D03*
X61750Y40950D03*
D10*
X38100Y475200D03*
X38100Y440200D03*
X38100Y214850D03*
X38100Y179850D03*
D17*
X655320Y273050D03*
X680720Y273050D03*
M02*
