G04 EAGLE Gerber RS-274X export*
G75*
%MOMM*%
%FSLAX34Y34*%
%LPD*%
%INTop Copper*%
%IPPOS*%
%AMOC8*
5,1,8,0,0,1.08239X$1,22.5*%
G01*
%ADD10R,0.800000X2.000000*%
%ADD11R,3.500000X2.600000*%
%ADD12R,2.540000X2.540000*%
%ADD13R,3.400000X1.850000*%
%ADD14R,0.609600X0.457200*%
%ADD15R,0.457200X0.609600*%
%ADD16R,1.041400X0.711200*%
%ADD17R,3.000000X1.000000*%
%ADD18R,0.475000X0.300000*%
%ADD19R,0.711200X1.041400*%
%ADD20R,0.450000X0.600000*%
%ADD21R,0.550000X0.450000*%
%ADD22R,0.450000X0.550000*%
%ADD23R,0.850000X1.300000*%
%ADD24R,1.100000X1.650000*%
%ADD25R,1.270000X0.508000*%
%ADD26R,0.400000X0.450000*%
%ADD27R,0.450000X0.400000*%
%ADD28R,0.370000X0.450000*%
%ADD29C,1.778000*%
%ADD30C,1.143000*%
%ADD31C,0.152400*%
%ADD32C,0.304800*%
%ADD33C,0.812800*%
%ADD34C,0.406400*%
%ADD35C,0.508000*%
%ADD36C,1.016000*%
%ADD37C,0.254000*%
%ADD38C,0.756400*%
%ADD39C,0.762000*%

G36*
X261738Y16D02*
X261738Y16D01*
X261857Y23D01*
X261895Y36D01*
X261936Y41D01*
X262046Y84D01*
X262159Y121D01*
X262194Y143D01*
X262231Y158D01*
X262327Y228D01*
X262428Y291D01*
X262456Y321D01*
X262489Y344D01*
X262565Y436D01*
X262646Y523D01*
X262666Y558D01*
X262691Y589D01*
X262742Y697D01*
X262800Y801D01*
X262810Y841D01*
X262827Y877D01*
X262849Y994D01*
X262879Y1109D01*
X262883Y1170D01*
X262887Y1190D01*
X262885Y1210D01*
X262889Y1270D01*
X262889Y10211D01*
X270511Y10211D01*
X270511Y1270D01*
X270526Y1152D01*
X270533Y1033D01*
X270546Y995D01*
X270551Y954D01*
X270594Y844D01*
X270631Y731D01*
X270653Y696D01*
X270668Y659D01*
X270738Y563D01*
X270801Y462D01*
X270831Y434D01*
X270854Y401D01*
X270946Y326D01*
X271033Y244D01*
X271068Y224D01*
X271099Y199D01*
X271207Y148D01*
X271311Y90D01*
X271351Y80D01*
X271387Y63D01*
X271504Y41D01*
X271619Y11D01*
X271680Y7D01*
X271700Y3D01*
X271720Y5D01*
X271780Y1D01*
X287020Y1D01*
X287138Y16D01*
X287257Y23D01*
X287295Y36D01*
X287336Y41D01*
X287446Y84D01*
X287559Y121D01*
X287594Y143D01*
X287631Y158D01*
X287727Y228D01*
X287828Y291D01*
X287856Y321D01*
X287889Y344D01*
X287965Y436D01*
X288046Y523D01*
X288066Y558D01*
X288091Y589D01*
X288142Y697D01*
X288200Y801D01*
X288210Y841D01*
X288227Y877D01*
X288249Y994D01*
X288279Y1109D01*
X288283Y1170D01*
X288287Y1190D01*
X288285Y1210D01*
X288289Y1270D01*
X288289Y10211D01*
X290000Y10211D01*
X290047Y10247D01*
X290042Y10254D01*
X290049Y10260D01*
X290049Y32000D01*
X290033Y32021D01*
X290035Y32035D01*
X273319Y48750D01*
X273319Y76570D01*
X273283Y76617D01*
X273276Y76612D01*
X273270Y76619D01*
X268446Y76619D01*
X268435Y76611D01*
X268422Y76613D01*
X268420Y76600D01*
X268399Y76583D01*
X268415Y76562D01*
X268411Y76535D01*
X268745Y76202D01*
X268745Y68938D01*
X267852Y68045D01*
X267696Y68045D01*
X267675Y68029D01*
X267661Y68031D01*
X267250Y67619D01*
X249319Y67619D01*
X249319Y85550D01*
X256305Y92535D01*
X256309Y92562D01*
X256319Y92570D01*
X256319Y100550D01*
X261290Y105521D01*
X324748Y105521D01*
X324759Y105529D01*
X324772Y105527D01*
X324774Y105540D01*
X324795Y105557D01*
X324779Y105578D01*
X324783Y105605D01*
X321437Y108951D01*
X319785Y110602D01*
X319785Y139588D01*
X320305Y140107D01*
X320733Y140535D01*
X320735Y140549D01*
X320745Y140557D01*
X320737Y140567D01*
X320741Y140594D01*
X320714Y140598D01*
X320698Y140619D01*
X320319Y140619D01*
X320319Y168570D01*
X320283Y168617D01*
X320276Y168612D01*
X320270Y168619D01*
X312270Y168619D01*
X312223Y168583D01*
X312224Y168582D01*
X312223Y168581D01*
X312227Y168575D01*
X312221Y168570D01*
X312221Y135619D01*
X286319Y135619D01*
X286319Y169570D01*
X286283Y169617D01*
X286276Y169612D01*
X286270Y169619D01*
X277270Y169619D01*
X277223Y169583D01*
X277228Y169576D01*
X277221Y169570D01*
X277221Y133590D01*
X276250Y132619D01*
X229270Y132619D01*
X229249Y132603D01*
X229235Y132605D01*
X226235Y129605D01*
X226232Y129578D01*
X226221Y129570D01*
X226221Y110619D01*
X209270Y110619D01*
X209223Y110583D01*
X209228Y110576D01*
X209221Y110570D01*
X209221Y64570D01*
X209234Y64552D01*
X209237Y64545D01*
X209235Y64535D01*
X213221Y60550D01*
X213221Y24500D01*
X213257Y24453D01*
X213264Y24458D01*
X213270Y24451D01*
X236480Y24451D01*
X242951Y17980D01*
X242951Y10260D01*
X242987Y10213D01*
X242994Y10218D01*
X243000Y10211D01*
X245111Y10211D01*
X245111Y1270D01*
X245126Y1152D01*
X245133Y1033D01*
X245146Y995D01*
X245151Y954D01*
X245194Y844D01*
X245231Y731D01*
X245253Y696D01*
X245268Y659D01*
X245338Y563D01*
X245401Y462D01*
X245431Y434D01*
X245454Y401D01*
X245546Y326D01*
X245633Y244D01*
X245668Y224D01*
X245699Y199D01*
X245807Y148D01*
X245911Y90D01*
X245951Y80D01*
X245987Y63D01*
X246104Y41D01*
X246219Y11D01*
X246280Y7D01*
X246300Y3D01*
X246320Y5D01*
X246380Y1D01*
X261620Y1D01*
X261738Y16D01*
G37*
G36*
X163328Y65338D02*
X163328Y65338D01*
X163386Y65350D01*
X163398Y65358D01*
X163404Y65360D01*
X163411Y65368D01*
X163446Y65394D01*
X168446Y70394D01*
X168471Y70438D01*
X168481Y70450D01*
X168482Y70457D01*
X168508Y70497D01*
X168510Y70511D01*
X168513Y70516D01*
X168513Y70527D01*
X168519Y70570D01*
X168519Y90570D01*
X168514Y90586D01*
X168517Y90603D01*
X168495Y90653D01*
X168480Y90704D01*
X168467Y90715D01*
X168460Y90731D01*
X168415Y90761D01*
X168375Y90796D01*
X168358Y90799D01*
X168344Y90808D01*
X168270Y90819D01*
X160373Y90819D01*
X154519Y96673D01*
X154519Y168467D01*
X156373Y170321D01*
X266270Y170321D01*
X266286Y170326D01*
X266303Y170323D01*
X266353Y170345D01*
X266404Y170360D01*
X266415Y170373D01*
X266431Y170380D01*
X266461Y170425D01*
X266496Y170465D01*
X266499Y170482D01*
X266508Y170497D01*
X266519Y170570D01*
X266519Y204000D01*
X266514Y204016D01*
X266517Y204033D01*
X266495Y204083D01*
X266480Y204134D01*
X266467Y204145D01*
X266460Y204161D01*
X266415Y204191D01*
X266375Y204226D01*
X266358Y204229D01*
X266344Y204238D01*
X266270Y204249D01*
X146013Y204249D01*
X145996Y204244D01*
X145979Y204247D01*
X145930Y204225D01*
X145879Y204210D01*
X145867Y204197D01*
X145852Y204190D01*
X145822Y204145D01*
X145787Y204105D01*
X145784Y204088D01*
X145775Y204074D01*
X145764Y204000D01*
X145764Y203029D01*
X142655Y199920D01*
X138259Y199920D01*
X137847Y200332D01*
X137794Y200361D01*
X137744Y200394D01*
X137730Y200396D01*
X137724Y200399D01*
X137714Y200399D01*
X137671Y200405D01*
X91000Y200405D01*
X90984Y200400D01*
X90967Y200403D01*
X90917Y200381D01*
X90866Y200366D01*
X90855Y200353D01*
X90839Y200346D01*
X90809Y200301D01*
X90774Y200261D01*
X90771Y200244D01*
X90762Y200230D01*
X90751Y200156D01*
X90751Y187920D01*
X90756Y187904D01*
X90753Y187887D01*
X90775Y187837D01*
X90790Y187786D01*
X90803Y187775D01*
X90810Y187759D01*
X90855Y187729D01*
X90895Y187694D01*
X90912Y187691D01*
X90927Y187682D01*
X91000Y187671D01*
X128751Y187671D01*
X128751Y94023D01*
X128768Y93966D01*
X128780Y93907D01*
X128788Y93895D01*
X128790Y93889D01*
X128798Y93882D01*
X128824Y93847D01*
X157277Y65394D01*
X157330Y65365D01*
X157380Y65332D01*
X157394Y65330D01*
X157400Y65327D01*
X157410Y65327D01*
X157453Y65321D01*
X163270Y65321D01*
X163328Y65338D01*
G37*
G36*
X160138Y16D02*
X160138Y16D01*
X160257Y23D01*
X160295Y36D01*
X160336Y41D01*
X160446Y84D01*
X160559Y121D01*
X160594Y143D01*
X160631Y158D01*
X160727Y228D01*
X160828Y291D01*
X160856Y321D01*
X160889Y344D01*
X160965Y436D01*
X161046Y523D01*
X161066Y558D01*
X161091Y589D01*
X161142Y697D01*
X161200Y801D01*
X161210Y841D01*
X161227Y877D01*
X161249Y994D01*
X161279Y1109D01*
X161283Y1170D01*
X161287Y1190D01*
X161285Y1210D01*
X161289Y1270D01*
X161289Y11751D01*
X168911Y11751D01*
X168911Y1270D01*
X168926Y1152D01*
X168933Y1033D01*
X168946Y995D01*
X168951Y954D01*
X168994Y844D01*
X169031Y731D01*
X169053Y696D01*
X169068Y659D01*
X169138Y563D01*
X169201Y462D01*
X169231Y434D01*
X169254Y401D01*
X169346Y326D01*
X169433Y244D01*
X169468Y224D01*
X169499Y199D01*
X169607Y148D01*
X169711Y90D01*
X169751Y80D01*
X169787Y63D01*
X169904Y41D01*
X170019Y11D01*
X170080Y7D01*
X170100Y3D01*
X170120Y5D01*
X170180Y1D01*
X185420Y1D01*
X185538Y16D01*
X185657Y23D01*
X185695Y36D01*
X185736Y41D01*
X185846Y84D01*
X185959Y121D01*
X185994Y143D01*
X186031Y158D01*
X186127Y228D01*
X186228Y291D01*
X186256Y321D01*
X186289Y344D01*
X186365Y436D01*
X186446Y523D01*
X186466Y558D01*
X186491Y589D01*
X186542Y697D01*
X186600Y801D01*
X186610Y841D01*
X186627Y877D01*
X186649Y994D01*
X186679Y1109D01*
X186683Y1170D01*
X186687Y1190D01*
X186685Y1210D01*
X186689Y1270D01*
X186689Y11751D01*
X188000Y11751D01*
X188016Y11756D01*
X188033Y11753D01*
X188083Y11775D01*
X188134Y11790D01*
X188145Y11803D01*
X188161Y11810D01*
X188191Y11855D01*
X188226Y11895D01*
X188229Y11912D01*
X188238Y11927D01*
X188249Y12000D01*
X188249Y18897D01*
X196103Y26751D01*
X208000Y26751D01*
X208058Y26768D01*
X208116Y26780D01*
X208128Y26788D01*
X208134Y26790D01*
X208141Y26798D01*
X208176Y26824D01*
X210446Y29094D01*
X210475Y29146D01*
X210508Y29197D01*
X210510Y29211D01*
X210513Y29216D01*
X210513Y29227D01*
X210519Y29270D01*
X210519Y59570D01*
X210502Y59628D01*
X210490Y59686D01*
X210482Y59698D01*
X210480Y59704D01*
X210472Y59711D01*
X210446Y59746D01*
X206519Y63673D01*
X206519Y112570D01*
X206514Y112586D01*
X206517Y112603D01*
X206495Y112653D01*
X206480Y112704D01*
X206467Y112715D01*
X206460Y112731D01*
X206415Y112761D01*
X206375Y112796D01*
X206358Y112799D01*
X206344Y112808D01*
X206270Y112819D01*
X171270Y112819D01*
X171254Y112814D01*
X171237Y112817D01*
X171187Y112795D01*
X171136Y112780D01*
X171125Y112767D01*
X171109Y112760D01*
X171079Y112715D01*
X171044Y112675D01*
X171041Y112658D01*
X171032Y112644D01*
X171021Y112570D01*
X171021Y54673D01*
X166270Y49923D01*
X126249Y89943D01*
X126249Y183920D01*
X126244Y183936D01*
X126247Y183953D01*
X126225Y184003D01*
X126210Y184054D01*
X126197Y184065D01*
X126190Y184081D01*
X126145Y184111D01*
X126105Y184146D01*
X126088Y184149D01*
X126074Y184158D01*
X126000Y184169D01*
X69000Y184169D01*
X68984Y184164D01*
X68967Y184167D01*
X68917Y184145D01*
X68866Y184130D01*
X68855Y184117D01*
X68839Y184110D01*
X68809Y184065D01*
X68774Y184025D01*
X68771Y184008D01*
X68762Y183994D01*
X68751Y183920D01*
X68751Y169650D01*
X68756Y169634D01*
X68753Y169617D01*
X68775Y169567D01*
X68790Y169516D01*
X68803Y169505D01*
X68810Y169489D01*
X68855Y169459D01*
X68895Y169424D01*
X68912Y169421D01*
X68927Y169412D01*
X69000Y169401D01*
X117751Y169401D01*
X117751Y89000D01*
X117768Y88942D01*
X117780Y88884D01*
X117788Y88872D01*
X117790Y88866D01*
X117798Y88859D01*
X117824Y88824D01*
X161498Y45150D01*
X141824Y25476D01*
X141795Y25424D01*
X141762Y25374D01*
X141760Y25359D01*
X141757Y25354D01*
X141757Y25343D01*
X141751Y25300D01*
X141751Y12000D01*
X141756Y11984D01*
X141753Y11967D01*
X141775Y11917D01*
X141790Y11866D01*
X141803Y11855D01*
X141810Y11839D01*
X141855Y11809D01*
X141895Y11774D01*
X141912Y11771D01*
X141927Y11762D01*
X142000Y11751D01*
X143511Y11751D01*
X143511Y1270D01*
X143526Y1152D01*
X143533Y1033D01*
X143546Y995D01*
X143551Y954D01*
X143594Y844D01*
X143631Y731D01*
X143653Y696D01*
X143668Y659D01*
X143738Y563D01*
X143801Y462D01*
X143831Y434D01*
X143854Y401D01*
X143946Y326D01*
X144033Y244D01*
X144068Y224D01*
X144099Y199D01*
X144207Y148D01*
X144311Y90D01*
X144351Y80D01*
X144387Y63D01*
X144504Y41D01*
X144619Y11D01*
X144680Y7D01*
X144700Y3D01*
X144720Y5D01*
X144780Y1D01*
X160020Y1D01*
X160138Y16D01*
G37*
G36*
X71047Y41987D02*
X71047Y41987D01*
X71042Y41994D01*
X71049Y42000D01*
X71049Y80427D01*
X97951Y80427D01*
X97951Y66000D01*
X97987Y65953D01*
X97994Y65958D01*
X98000Y65951D01*
X115000Y65951D01*
X115047Y65987D01*
X115042Y65994D01*
X115049Y66000D01*
X115049Y166300D01*
X115013Y166347D01*
X115006Y166342D01*
X115000Y166349D01*
X72000Y166349D01*
X71953Y166313D01*
X71958Y166306D01*
X71951Y166300D01*
X71951Y163300D01*
X71987Y163253D01*
X71994Y163258D01*
X72000Y163251D01*
X72279Y163251D01*
X72301Y163267D01*
X72314Y163265D01*
X72373Y163325D01*
X73714Y163325D01*
X73735Y163341D01*
X73748Y163339D01*
X74012Y163603D01*
X76748Y163603D01*
X77012Y163339D01*
X77038Y163335D01*
X77046Y163325D01*
X78387Y163325D01*
X78446Y163265D01*
X78473Y163262D01*
X78481Y163251D01*
X79951Y163251D01*
X79951Y154349D01*
X78000Y154349D01*
X77953Y154313D01*
X77958Y154306D01*
X77951Y154300D01*
X77951Y144320D01*
X70980Y137349D01*
X62000Y137349D01*
X61953Y137313D01*
X61958Y137306D01*
X61951Y137300D01*
X61951Y86000D01*
X61967Y85979D01*
X61965Y85965D01*
X62951Y84980D01*
X62951Y68049D01*
X48000Y68049D01*
X47953Y68013D01*
X47958Y68006D01*
X47951Y68000D01*
X47951Y61000D01*
X47987Y60953D01*
X47994Y60958D01*
X48000Y60951D01*
X62951Y60951D01*
X62951Y48049D01*
X58000Y48049D01*
X57953Y48013D01*
X57958Y48006D01*
X57951Y48000D01*
X57951Y42574D01*
X57967Y42553D01*
X57965Y42540D01*
X58540Y41965D01*
X58566Y41962D01*
X58574Y41951D01*
X71000Y41951D01*
X71047Y41987D01*
G37*
G36*
X58538Y16D02*
X58538Y16D01*
X58657Y23D01*
X58695Y36D01*
X58736Y41D01*
X58846Y84D01*
X58959Y121D01*
X58994Y143D01*
X59031Y158D01*
X59127Y228D01*
X59228Y291D01*
X59256Y321D01*
X59289Y344D01*
X59365Y436D01*
X59446Y523D01*
X59466Y558D01*
X59491Y589D01*
X59542Y697D01*
X59600Y801D01*
X59610Y841D01*
X59627Y877D01*
X59649Y994D01*
X59679Y1109D01*
X59683Y1170D01*
X59687Y1190D01*
X59685Y1210D01*
X59689Y1270D01*
X59689Y10211D01*
X60000Y10211D01*
X60020Y10214D01*
X60039Y10212D01*
X60141Y10234D01*
X60243Y10250D01*
X60260Y10260D01*
X60280Y10264D01*
X60369Y10317D01*
X60460Y10366D01*
X60474Y10380D01*
X60491Y10390D01*
X60558Y10469D01*
X60629Y10544D01*
X60638Y10562D01*
X60651Y10577D01*
X60690Y10673D01*
X60733Y10767D01*
X60735Y10787D01*
X60743Y10805D01*
X60761Y10972D01*
X60761Y22000D01*
X60747Y22090D01*
X60739Y22181D01*
X60727Y22211D01*
X60722Y22243D01*
X60679Y22323D01*
X60643Y22407D01*
X60617Y22439D01*
X60606Y22460D01*
X60583Y22482D01*
X60538Y22538D01*
X46031Y37045D01*
X46031Y70730D01*
X46017Y70820D01*
X46009Y70911D01*
X45997Y70941D01*
X45992Y70973D01*
X45949Y71053D01*
X45913Y71137D01*
X45887Y71169D01*
X45876Y71190D01*
X45853Y71212D01*
X45808Y71268D01*
X45326Y71751D01*
X59000Y71751D01*
X59016Y71756D01*
X59033Y71753D01*
X59083Y71775D01*
X59134Y71790D01*
X59145Y71803D01*
X59161Y71810D01*
X59191Y71855D01*
X59226Y71895D01*
X59229Y71912D01*
X59238Y71927D01*
X59249Y72000D01*
X59249Y147051D01*
X60000Y147051D01*
X60016Y147056D01*
X60033Y147053D01*
X60083Y147075D01*
X60134Y147090D01*
X60145Y147103D01*
X60161Y147110D01*
X60191Y147155D01*
X60226Y147195D01*
X60229Y147212D01*
X60238Y147227D01*
X60249Y147300D01*
X60249Y161300D01*
X60244Y161316D01*
X60247Y161333D01*
X60225Y161383D01*
X60210Y161434D01*
X60197Y161445D01*
X60190Y161461D01*
X60145Y161491D01*
X60105Y161526D01*
X60088Y161529D01*
X60074Y161538D01*
X60000Y161549D01*
X56099Y161549D01*
X56041Y161532D01*
X55982Y161520D01*
X55971Y161512D01*
X55964Y161510D01*
X55957Y161502D01*
X55922Y161476D01*
X54437Y159991D01*
X54386Y159976D01*
X54328Y159964D01*
X54316Y159956D01*
X54310Y159954D01*
X54303Y159946D01*
X54268Y159920D01*
X52897Y158549D01*
X17540Y158549D01*
X17524Y158544D01*
X17507Y158547D01*
X17457Y158525D01*
X17406Y158510D01*
X17395Y158497D01*
X17379Y158490D01*
X17349Y158445D01*
X17314Y158405D01*
X17311Y158388D01*
X17302Y158374D01*
X17291Y158300D01*
X17291Y147549D01*
X17268Y147549D01*
X17252Y147544D01*
X17235Y147547D01*
X17185Y147525D01*
X17134Y147510D01*
X17123Y147497D01*
X17107Y147490D01*
X17077Y147445D01*
X17042Y147405D01*
X17039Y147388D01*
X17030Y147374D01*
X17019Y147300D01*
X17019Y145032D01*
X17025Y145011D01*
X17023Y144997D01*
X17038Y144963D01*
X17048Y144916D01*
X17056Y144904D01*
X17058Y144898D01*
X17066Y144891D01*
X17076Y144877D01*
X17080Y144869D01*
X17084Y144866D01*
X17092Y144856D01*
X39751Y122197D01*
X39751Y87715D01*
X39720Y87708D01*
X39659Y87671D01*
X39593Y87643D01*
X39537Y87598D01*
X39509Y87582D01*
X39494Y87564D01*
X39462Y87538D01*
X37162Y85238D01*
X37109Y85164D01*
X37049Y85095D01*
X37037Y85065D01*
X37018Y85039D01*
X36991Y84952D01*
X36957Y84867D01*
X36953Y84826D01*
X36946Y84803D01*
X36947Y84771D01*
X36939Y84700D01*
X36939Y14300D01*
X36954Y14210D01*
X36961Y14119D01*
X36973Y14089D01*
X36979Y14057D01*
X37021Y13977D01*
X37057Y13893D01*
X37083Y13861D01*
X37094Y13840D01*
X37117Y13818D01*
X37162Y13762D01*
X40490Y10434D01*
X40564Y10381D01*
X40633Y10321D01*
X40663Y10309D01*
X40689Y10290D01*
X40776Y10263D01*
X40861Y10229D01*
X40902Y10225D01*
X40925Y10218D01*
X40957Y10219D01*
X41028Y10211D01*
X41911Y10211D01*
X41911Y1270D01*
X41926Y1152D01*
X41933Y1033D01*
X41946Y995D01*
X41951Y954D01*
X41994Y844D01*
X42031Y731D01*
X42053Y696D01*
X42068Y659D01*
X42138Y563D01*
X42201Y462D01*
X42231Y434D01*
X42254Y401D01*
X42346Y326D01*
X42433Y244D01*
X42468Y224D01*
X42499Y199D01*
X42607Y148D01*
X42711Y90D01*
X42751Y80D01*
X42787Y63D01*
X42904Y41D01*
X43019Y11D01*
X43080Y7D01*
X43100Y3D01*
X43120Y5D01*
X43180Y1D01*
X58420Y1D01*
X58538Y16D01*
G37*
G36*
X272286Y136326D02*
X272286Y136326D01*
X272303Y136323D01*
X272353Y136345D01*
X272404Y136360D01*
X272415Y136373D01*
X272431Y136380D01*
X272461Y136425D01*
X272496Y136465D01*
X272499Y136482D01*
X272508Y136497D01*
X272519Y136570D01*
X272519Y167570D01*
X272514Y167586D01*
X272517Y167603D01*
X272495Y167653D01*
X272480Y167704D01*
X272467Y167715D01*
X272460Y167731D01*
X272415Y167761D01*
X272375Y167796D01*
X272358Y167799D01*
X272344Y167808D01*
X272270Y167819D01*
X171270Y167819D01*
X171254Y167814D01*
X171237Y167817D01*
X171187Y167795D01*
X171136Y167780D01*
X171125Y167767D01*
X171109Y167760D01*
X171079Y167715D01*
X171044Y167675D01*
X171041Y167658D01*
X171032Y167644D01*
X171021Y167570D01*
X171021Y146570D01*
X171026Y146554D01*
X171023Y146537D01*
X171045Y146487D01*
X171060Y146436D01*
X171073Y146425D01*
X171080Y146409D01*
X171125Y146379D01*
X171165Y146344D01*
X171182Y146341D01*
X171197Y146332D01*
X171270Y146321D01*
X217167Y146321D01*
X218794Y144694D01*
X218846Y144665D01*
X218897Y144632D01*
X218911Y144630D01*
X218916Y144627D01*
X218927Y144627D01*
X218970Y144621D01*
X219291Y144621D01*
X219321Y144591D01*
X219321Y144270D01*
X219338Y144212D01*
X219350Y144154D01*
X219358Y144142D01*
X219360Y144136D01*
X219368Y144129D01*
X219394Y144094D01*
X227094Y136394D01*
X227146Y136365D01*
X227197Y136332D01*
X227211Y136330D01*
X227216Y136327D01*
X227227Y136327D01*
X227270Y136321D01*
X272270Y136321D01*
X272286Y136326D01*
G37*
G36*
X312538Y16D02*
X312538Y16D01*
X312657Y23D01*
X312695Y36D01*
X312736Y41D01*
X312846Y84D01*
X312959Y121D01*
X312994Y143D01*
X313031Y158D01*
X313127Y228D01*
X313228Y291D01*
X313256Y321D01*
X313289Y344D01*
X313365Y436D01*
X313446Y523D01*
X313466Y558D01*
X313491Y589D01*
X313542Y697D01*
X313600Y801D01*
X313610Y841D01*
X313627Y877D01*
X313649Y994D01*
X313679Y1109D01*
X313683Y1170D01*
X313687Y1190D01*
X313685Y1210D01*
X313689Y1270D01*
X313689Y10211D01*
X321311Y10211D01*
X321311Y1270D01*
X321326Y1152D01*
X321333Y1033D01*
X321346Y995D01*
X321351Y954D01*
X321394Y844D01*
X321431Y731D01*
X321453Y696D01*
X321468Y659D01*
X321538Y563D01*
X321601Y462D01*
X321631Y434D01*
X321654Y401D01*
X321746Y326D01*
X321833Y244D01*
X321868Y224D01*
X321899Y199D01*
X322007Y148D01*
X322111Y90D01*
X322151Y80D01*
X322187Y63D01*
X322304Y41D01*
X322419Y11D01*
X322480Y7D01*
X322500Y3D01*
X322520Y5D01*
X322580Y1D01*
X337820Y1D01*
X337938Y16D01*
X338057Y23D01*
X338095Y36D01*
X338136Y41D01*
X338246Y84D01*
X338359Y121D01*
X338394Y143D01*
X338431Y158D01*
X338527Y228D01*
X338628Y291D01*
X338656Y321D01*
X338689Y344D01*
X338765Y436D01*
X338846Y523D01*
X338866Y558D01*
X338891Y589D01*
X338942Y697D01*
X339000Y801D01*
X339010Y841D01*
X339027Y877D01*
X339049Y994D01*
X339079Y1109D01*
X339083Y1170D01*
X339087Y1190D01*
X339085Y1210D01*
X339089Y1270D01*
X339089Y10211D01*
X339663Y10211D01*
X339665Y10212D01*
X339667Y10211D01*
X339710Y10231D01*
X339754Y10249D01*
X339754Y10251D01*
X339756Y10252D01*
X339789Y10337D01*
X339789Y18985D01*
X339788Y18988D01*
X339789Y18991D01*
X339752Y19074D01*
X328003Y30823D01*
X328000Y30825D01*
X327999Y30827D01*
X327914Y30860D01*
X321108Y30860D01*
X292988Y58980D01*
X292988Y73152D01*
X292987Y73155D01*
X292988Y73158D01*
X292951Y73241D01*
X286384Y79808D01*
X286384Y103124D01*
X286383Y103126D01*
X286384Y103128D01*
X286364Y103171D01*
X286346Y103215D01*
X286344Y103215D01*
X286343Y103217D01*
X286258Y103250D01*
X275336Y103250D01*
X275334Y103249D01*
X275332Y103250D01*
X275289Y103230D01*
X275245Y103212D01*
X275245Y103210D01*
X275243Y103209D01*
X275210Y103124D01*
X275210Y80010D01*
X275211Y80007D01*
X275210Y80004D01*
X275247Y79921D01*
X276988Y78180D01*
X276988Y48514D01*
X276989Y48511D01*
X276988Y48508D01*
X277025Y48425D01*
X295276Y30174D01*
X295276Y10337D01*
X295277Y10335D01*
X295276Y10333D01*
X295296Y10290D01*
X295314Y10246D01*
X295316Y10246D01*
X295317Y10244D01*
X295402Y10211D01*
X295911Y10211D01*
X295911Y1270D01*
X295926Y1152D01*
X295933Y1033D01*
X295946Y995D01*
X295951Y954D01*
X295994Y844D01*
X296031Y731D01*
X296053Y696D01*
X296068Y659D01*
X296138Y563D01*
X296201Y462D01*
X296231Y434D01*
X296254Y401D01*
X296346Y326D01*
X296433Y244D01*
X296468Y224D01*
X296499Y199D01*
X296607Y148D01*
X296711Y90D01*
X296751Y80D01*
X296787Y63D01*
X296904Y41D01*
X297019Y11D01*
X297080Y7D01*
X297100Y3D01*
X297120Y5D01*
X297180Y1D01*
X312420Y1D01*
X312538Y16D01*
G37*
G36*
X83938Y16D02*
X83938Y16D01*
X84057Y23D01*
X84095Y36D01*
X84136Y41D01*
X84246Y84D01*
X84359Y121D01*
X84394Y143D01*
X84431Y158D01*
X84527Y228D01*
X84628Y291D01*
X84656Y321D01*
X84689Y344D01*
X84765Y436D01*
X84846Y523D01*
X84866Y558D01*
X84891Y589D01*
X84942Y697D01*
X85000Y801D01*
X85010Y841D01*
X85027Y877D01*
X85049Y994D01*
X85079Y1109D01*
X85083Y1170D01*
X85087Y1190D01*
X85085Y1210D01*
X85089Y1270D01*
X85089Y12700D01*
X85087Y12720D01*
X85083Y12824D01*
X84937Y14311D01*
X84927Y14354D01*
X84925Y14398D01*
X84888Y14555D01*
X84455Y15985D01*
X84437Y16025D01*
X84426Y16068D01*
X84359Y16214D01*
X84159Y16589D01*
X109035Y41465D01*
X109039Y41492D01*
X109049Y41500D01*
X109049Y58000D01*
X109033Y58021D01*
X109035Y58035D01*
X103035Y64035D01*
X103008Y64039D01*
X103000Y64049D01*
X96049Y64049D01*
X96049Y78000D01*
X96013Y78047D01*
X96006Y78042D01*
X96000Y78049D01*
X73000Y78049D01*
X72953Y78013D01*
X72958Y78006D01*
X72951Y78000D01*
X72951Y71000D01*
X72987Y70953D01*
X72994Y70958D01*
X73000Y70951D01*
X90951Y70951D01*
X90951Y61757D01*
X90967Y61735D01*
X90965Y61722D01*
X92259Y60428D01*
X92259Y59608D01*
X92295Y59561D01*
X92302Y59566D01*
X92308Y59559D01*
X94062Y59559D01*
X94656Y58965D01*
X94682Y58962D01*
X94690Y58951D01*
X98480Y58951D01*
X99451Y57980D01*
X99451Y47020D01*
X87480Y35049D01*
X74500Y35049D01*
X74479Y35033D01*
X74465Y35035D01*
X66965Y27535D01*
X66962Y27508D01*
X66951Y27500D01*
X66951Y13000D01*
X66987Y12953D01*
X66994Y12958D01*
X67000Y12951D01*
X67329Y12951D01*
X67317Y12824D01*
X67317Y12805D01*
X67317Y12790D01*
X67313Y12774D01*
X67314Y12757D01*
X67311Y12700D01*
X67311Y1270D01*
X67326Y1152D01*
X67333Y1033D01*
X67346Y995D01*
X67351Y954D01*
X67394Y844D01*
X67431Y731D01*
X67453Y696D01*
X67468Y659D01*
X67538Y563D01*
X67601Y462D01*
X67631Y434D01*
X67654Y401D01*
X67746Y326D01*
X67833Y244D01*
X67868Y224D01*
X67899Y199D01*
X68007Y148D01*
X68111Y90D01*
X68151Y80D01*
X68187Y63D01*
X68304Y41D01*
X68419Y11D01*
X68480Y7D01*
X68500Y3D01*
X68520Y5D01*
X68580Y1D01*
X83820Y1D01*
X83938Y16D01*
G37*
G36*
X35562Y95125D02*
X35562Y95125D01*
X35564Y95124D01*
X35607Y95144D01*
X35651Y95162D01*
X35651Y95164D01*
X35653Y95165D01*
X35686Y95250D01*
X35686Y123190D01*
X35685Y123192D01*
X35686Y123194D01*
X35666Y123237D01*
X35648Y123281D01*
X35646Y123281D01*
X35645Y123283D01*
X35560Y123316D01*
X11430Y123316D01*
X11428Y123315D01*
X11426Y123316D01*
X11383Y123296D01*
X11339Y123278D01*
X11339Y123276D01*
X11337Y123275D01*
X11304Y123190D01*
X11304Y95250D01*
X11305Y95248D01*
X11304Y95246D01*
X11324Y95203D01*
X11342Y95159D01*
X11344Y95159D01*
X11345Y95157D01*
X11430Y95124D01*
X35560Y95124D01*
X35562Y95125D01*
G37*
G36*
X47058Y168068D02*
X47058Y168068D01*
X47116Y168080D01*
X47128Y168088D01*
X47134Y168090D01*
X47141Y168098D01*
X47176Y168124D01*
X49103Y170051D01*
X49384Y170051D01*
X49442Y170068D01*
X49500Y170080D01*
X49512Y170088D01*
X49518Y170090D01*
X49525Y170098D01*
X49560Y170124D01*
X50043Y170607D01*
X54439Y170607D01*
X55922Y169124D01*
X55975Y169095D01*
X56025Y169062D01*
X56039Y169060D01*
X56045Y169057D01*
X56055Y169057D01*
X56099Y169051D01*
X61000Y169051D01*
X61016Y169056D01*
X61033Y169053D01*
X61083Y169075D01*
X61134Y169090D01*
X61145Y169103D01*
X61161Y169110D01*
X61191Y169155D01*
X61226Y169195D01*
X61229Y169212D01*
X61238Y169227D01*
X61249Y169300D01*
X61249Y172300D01*
X61246Y172312D01*
X61247Y172321D01*
X61235Y172348D01*
X61232Y172358D01*
X61220Y172416D01*
X61212Y172428D01*
X61210Y172434D01*
X61202Y172441D01*
X61176Y172476D01*
X56152Y177500D01*
X56100Y177529D01*
X56049Y177562D01*
X56035Y177564D01*
X56030Y177567D01*
X56019Y177567D01*
X55976Y177573D01*
X52412Y177573D01*
X51525Y178460D01*
X51472Y178489D01*
X51422Y178522D01*
X51408Y178524D01*
X51402Y178527D01*
X51392Y178527D01*
X51349Y178533D01*
X17540Y178533D01*
X17524Y178528D01*
X17507Y178531D01*
X17457Y178509D01*
X17406Y178494D01*
X17395Y178481D01*
X17379Y178474D01*
X17349Y178429D01*
X17314Y178389D01*
X17311Y178372D01*
X17302Y178358D01*
X17291Y178284D01*
X17291Y168300D01*
X17296Y168284D01*
X17293Y168267D01*
X17315Y168217D01*
X17330Y168166D01*
X17343Y168155D01*
X17350Y168139D01*
X17395Y168109D01*
X17435Y168074D01*
X17452Y168071D01*
X17467Y168062D01*
X17540Y168051D01*
X47000Y168051D01*
X47058Y168068D01*
G37*
G36*
X338017Y105557D02*
X338017Y105557D01*
X338012Y105564D01*
X338019Y105570D01*
X338019Y140570D01*
X337983Y140617D01*
X337976Y140612D01*
X337970Y140619D01*
X328742Y140619D01*
X328721Y140603D01*
X328707Y140605D01*
X325389Y137287D01*
X325385Y137260D01*
X325375Y137252D01*
X325375Y112938D01*
X325391Y112917D01*
X325389Y112903D01*
X330455Y107838D01*
X330455Y105570D01*
X330491Y105523D01*
X330498Y105528D01*
X330504Y105521D01*
X337970Y105521D01*
X338017Y105557D01*
G37*
G36*
X109338Y16D02*
X109338Y16D01*
X109457Y23D01*
X109495Y36D01*
X109536Y41D01*
X109646Y84D01*
X109759Y121D01*
X109794Y143D01*
X109831Y158D01*
X109927Y228D01*
X110028Y291D01*
X110056Y321D01*
X110089Y344D01*
X110165Y436D01*
X110246Y523D01*
X110266Y558D01*
X110291Y589D01*
X110342Y697D01*
X110400Y801D01*
X110410Y841D01*
X110427Y877D01*
X110449Y994D01*
X110479Y1109D01*
X110483Y1170D01*
X110487Y1190D01*
X110485Y1210D01*
X110489Y1270D01*
X110489Y12700D01*
X110487Y12720D01*
X110483Y12824D01*
X110337Y14311D01*
X110327Y14354D01*
X110325Y14398D01*
X110288Y14555D01*
X109855Y15985D01*
X109837Y16025D01*
X109826Y16068D01*
X109759Y16214D01*
X109055Y17532D01*
X109030Y17568D01*
X109011Y17608D01*
X108917Y17739D01*
X107969Y18893D01*
X107937Y18924D01*
X107911Y18959D01*
X107793Y19069D01*
X106639Y20017D01*
X106601Y20041D01*
X106569Y20070D01*
X106432Y20155D01*
X105114Y20859D01*
X105073Y20875D01*
X105035Y20898D01*
X104885Y20955D01*
X103455Y21388D01*
X103411Y21396D01*
X103370Y21411D01*
X103211Y21437D01*
X101724Y21583D01*
X101680Y21582D01*
X101637Y21589D01*
X101476Y21583D01*
X99989Y21437D01*
X99946Y21427D01*
X99902Y21425D01*
X99745Y21388D01*
X98316Y20955D01*
X98275Y20937D01*
X98232Y20926D01*
X98086Y20859D01*
X96768Y20155D01*
X96765Y20153D01*
X96762Y20152D01*
X96731Y20129D01*
X96692Y20111D01*
X96561Y20017D01*
X95407Y19069D01*
X95376Y19037D01*
X95341Y19011D01*
X95231Y18893D01*
X94283Y17739D01*
X94259Y17701D01*
X94230Y17669D01*
X94145Y17532D01*
X93441Y16214D01*
X93425Y16173D01*
X93402Y16135D01*
X93345Y15985D01*
X92912Y14555D01*
X92904Y14511D01*
X92889Y14470D01*
X92863Y14311D01*
X92717Y12824D01*
X92717Y12805D01*
X92717Y12790D01*
X92713Y12774D01*
X92714Y12757D01*
X92711Y12700D01*
X92711Y1270D01*
X92726Y1152D01*
X92733Y1033D01*
X92746Y995D01*
X92751Y954D01*
X92794Y844D01*
X92831Y731D01*
X92853Y696D01*
X92868Y659D01*
X92938Y563D01*
X93001Y462D01*
X93031Y434D01*
X93054Y401D01*
X93146Y326D01*
X93233Y244D01*
X93268Y224D01*
X93299Y199D01*
X93407Y148D01*
X93511Y90D01*
X93551Y80D01*
X93587Y63D01*
X93704Y41D01*
X93819Y11D01*
X93880Y7D01*
X93900Y3D01*
X93920Y5D01*
X93980Y1D01*
X109220Y1D01*
X109338Y16D01*
G37*
G36*
X210938Y16D02*
X210938Y16D01*
X211057Y23D01*
X211095Y36D01*
X211136Y41D01*
X211246Y84D01*
X211359Y121D01*
X211394Y143D01*
X211431Y158D01*
X211527Y228D01*
X211628Y291D01*
X211656Y321D01*
X211689Y344D01*
X211765Y436D01*
X211846Y523D01*
X211866Y558D01*
X211891Y589D01*
X211942Y697D01*
X212000Y801D01*
X212010Y841D01*
X212027Y877D01*
X212049Y994D01*
X212079Y1109D01*
X212083Y1170D01*
X212087Y1190D01*
X212085Y1210D01*
X212089Y1270D01*
X212089Y12700D01*
X212087Y12720D01*
X212083Y12824D01*
X211937Y14311D01*
X211927Y14354D01*
X211925Y14398D01*
X211888Y14555D01*
X211455Y15985D01*
X211437Y16025D01*
X211426Y16068D01*
X211359Y16214D01*
X210655Y17532D01*
X210630Y17568D01*
X210611Y17608D01*
X210517Y17739D01*
X209569Y18893D01*
X209537Y18924D01*
X209511Y18959D01*
X209393Y19069D01*
X208239Y20017D01*
X208201Y20041D01*
X208169Y20070D01*
X208032Y20155D01*
X206714Y20859D01*
X206673Y20875D01*
X206635Y20898D01*
X206485Y20955D01*
X205055Y21388D01*
X205011Y21396D01*
X204970Y21411D01*
X204811Y21437D01*
X203324Y21583D01*
X203280Y21582D01*
X203237Y21589D01*
X203076Y21583D01*
X201589Y21437D01*
X201546Y21427D01*
X201502Y21425D01*
X201345Y21388D01*
X199916Y20955D01*
X199875Y20937D01*
X199832Y20926D01*
X199686Y20859D01*
X198368Y20155D01*
X198365Y20153D01*
X198362Y20152D01*
X198331Y20129D01*
X198292Y20111D01*
X198161Y20017D01*
X197007Y19069D01*
X196976Y19037D01*
X196941Y19011D01*
X196831Y18893D01*
X195883Y17739D01*
X195859Y17701D01*
X195830Y17669D01*
X195745Y17532D01*
X195041Y16214D01*
X195025Y16173D01*
X195002Y16135D01*
X194945Y15985D01*
X194512Y14555D01*
X194504Y14511D01*
X194489Y14470D01*
X194463Y14311D01*
X194317Y12824D01*
X194317Y12805D01*
X194317Y12790D01*
X194313Y12774D01*
X194314Y12757D01*
X194311Y12700D01*
X194311Y1270D01*
X194326Y1152D01*
X194333Y1033D01*
X194346Y995D01*
X194351Y954D01*
X194394Y844D01*
X194431Y731D01*
X194453Y696D01*
X194468Y659D01*
X194538Y563D01*
X194601Y462D01*
X194631Y434D01*
X194654Y401D01*
X194746Y326D01*
X194833Y244D01*
X194868Y224D01*
X194899Y199D01*
X195007Y148D01*
X195111Y90D01*
X195151Y80D01*
X195187Y63D01*
X195304Y41D01*
X195419Y11D01*
X195480Y7D01*
X195500Y3D01*
X195520Y5D01*
X195580Y1D01*
X210820Y1D01*
X210938Y16D01*
G37*
G36*
X134738Y16D02*
X134738Y16D01*
X134857Y23D01*
X134895Y36D01*
X134936Y41D01*
X135046Y84D01*
X135159Y121D01*
X135194Y143D01*
X135231Y158D01*
X135327Y228D01*
X135428Y291D01*
X135456Y321D01*
X135489Y344D01*
X135565Y436D01*
X135646Y523D01*
X135666Y558D01*
X135691Y589D01*
X135742Y697D01*
X135800Y801D01*
X135810Y841D01*
X135827Y877D01*
X135849Y994D01*
X135879Y1109D01*
X135883Y1170D01*
X135887Y1190D01*
X135885Y1210D01*
X135889Y1270D01*
X135889Y12700D01*
X135887Y12720D01*
X135883Y12824D01*
X135737Y14311D01*
X135727Y14354D01*
X135725Y14398D01*
X135688Y14555D01*
X135255Y15985D01*
X135237Y16025D01*
X135226Y16068D01*
X135159Y16214D01*
X134455Y17532D01*
X134430Y17568D01*
X134411Y17608D01*
X134317Y17739D01*
X133369Y18893D01*
X133337Y18924D01*
X133311Y18959D01*
X133193Y19069D01*
X132039Y20017D01*
X132001Y20041D01*
X131969Y20070D01*
X131832Y20155D01*
X130514Y20859D01*
X130473Y20875D01*
X130435Y20898D01*
X130285Y20955D01*
X128855Y21388D01*
X128811Y21396D01*
X128770Y21411D01*
X128611Y21437D01*
X127124Y21583D01*
X127080Y21582D01*
X127037Y21589D01*
X126876Y21583D01*
X125389Y21437D01*
X125346Y21427D01*
X125302Y21425D01*
X125145Y21388D01*
X123716Y20955D01*
X123675Y20937D01*
X123632Y20926D01*
X123486Y20859D01*
X122168Y20155D01*
X122165Y20153D01*
X122162Y20152D01*
X122131Y20129D01*
X122092Y20111D01*
X121961Y20017D01*
X120807Y19069D01*
X120776Y19037D01*
X120741Y19011D01*
X120631Y18893D01*
X119683Y17739D01*
X119659Y17701D01*
X119630Y17669D01*
X119545Y17532D01*
X118841Y16214D01*
X118825Y16173D01*
X118802Y16135D01*
X118745Y15985D01*
X118312Y14555D01*
X118304Y14511D01*
X118289Y14470D01*
X118263Y14311D01*
X118117Y12824D01*
X118117Y12805D01*
X118117Y12790D01*
X118113Y12774D01*
X118114Y12757D01*
X118111Y12700D01*
X118111Y1270D01*
X118126Y1152D01*
X118133Y1033D01*
X118146Y995D01*
X118151Y954D01*
X118194Y844D01*
X118231Y731D01*
X118253Y696D01*
X118268Y659D01*
X118338Y563D01*
X118401Y462D01*
X118431Y434D01*
X118454Y401D01*
X118546Y326D01*
X118633Y244D01*
X118668Y224D01*
X118699Y199D01*
X118807Y148D01*
X118911Y90D01*
X118951Y80D01*
X118987Y63D01*
X119104Y41D01*
X119219Y11D01*
X119280Y7D01*
X119300Y3D01*
X119320Y5D01*
X119380Y1D01*
X134620Y1D01*
X134738Y16D01*
G37*
G36*
X236338Y16D02*
X236338Y16D01*
X236457Y23D01*
X236495Y36D01*
X236536Y41D01*
X236646Y84D01*
X236759Y121D01*
X236794Y143D01*
X236831Y158D01*
X236927Y228D01*
X237028Y291D01*
X237056Y321D01*
X237089Y344D01*
X237165Y436D01*
X237246Y523D01*
X237266Y558D01*
X237291Y589D01*
X237342Y697D01*
X237400Y801D01*
X237410Y841D01*
X237427Y877D01*
X237449Y994D01*
X237479Y1109D01*
X237483Y1170D01*
X237487Y1190D01*
X237485Y1210D01*
X237489Y1270D01*
X237489Y12700D01*
X237487Y12720D01*
X237483Y12824D01*
X237337Y14311D01*
X237327Y14354D01*
X237325Y14398D01*
X237288Y14555D01*
X236855Y15985D01*
X236837Y16025D01*
X236826Y16068D01*
X236759Y16214D01*
X236055Y17532D01*
X236030Y17568D01*
X236011Y17608D01*
X235917Y17739D01*
X234969Y18893D01*
X234937Y18924D01*
X234911Y18959D01*
X234793Y19069D01*
X233639Y20017D01*
X233601Y20041D01*
X233569Y20070D01*
X233432Y20155D01*
X232114Y20859D01*
X232073Y20875D01*
X232035Y20898D01*
X231885Y20955D01*
X230455Y21388D01*
X230411Y21396D01*
X230370Y21411D01*
X230211Y21437D01*
X228724Y21583D01*
X228680Y21582D01*
X228637Y21589D01*
X228476Y21583D01*
X226989Y21437D01*
X226946Y21427D01*
X226902Y21425D01*
X226745Y21388D01*
X225316Y20955D01*
X225275Y20937D01*
X225232Y20926D01*
X225086Y20859D01*
X223768Y20155D01*
X223765Y20153D01*
X223762Y20152D01*
X223731Y20129D01*
X223692Y20111D01*
X223561Y20017D01*
X222407Y19069D01*
X222376Y19037D01*
X222341Y19011D01*
X222231Y18893D01*
X221283Y17739D01*
X221259Y17701D01*
X221230Y17669D01*
X221145Y17532D01*
X220441Y16214D01*
X220425Y16173D01*
X220402Y16135D01*
X220345Y15985D01*
X219912Y14555D01*
X219904Y14511D01*
X219889Y14470D01*
X219863Y14311D01*
X219717Y12824D01*
X219717Y12805D01*
X219717Y12790D01*
X219713Y12774D01*
X219714Y12757D01*
X219711Y12700D01*
X219711Y1270D01*
X219726Y1152D01*
X219733Y1033D01*
X219746Y995D01*
X219751Y954D01*
X219794Y844D01*
X219831Y731D01*
X219853Y696D01*
X219868Y659D01*
X219938Y563D01*
X220001Y462D01*
X220031Y434D01*
X220054Y401D01*
X220146Y326D01*
X220233Y244D01*
X220268Y224D01*
X220299Y199D01*
X220407Y148D01*
X220511Y90D01*
X220551Y80D01*
X220587Y63D01*
X220704Y41D01*
X220819Y11D01*
X220880Y7D01*
X220900Y3D01*
X220920Y5D01*
X220980Y1D01*
X236220Y1D01*
X236338Y16D01*
G37*
G36*
X279524Y207017D02*
X279524Y207017D01*
X281011Y207163D01*
X281054Y207173D01*
X281098Y207175D01*
X281255Y207212D01*
X282685Y207645D01*
X282725Y207663D01*
X282768Y207674D01*
X282914Y207741D01*
X284232Y208445D01*
X284268Y208470D01*
X284308Y208489D01*
X284439Y208583D01*
X285593Y209531D01*
X285624Y209563D01*
X285659Y209589D01*
X285769Y209707D01*
X286717Y210861D01*
X286741Y210899D01*
X286770Y210931D01*
X286855Y211068D01*
X287559Y212386D01*
X287575Y212427D01*
X287598Y212465D01*
X287655Y212616D01*
X288088Y214045D01*
X288096Y214089D01*
X288111Y214130D01*
X288137Y214289D01*
X288283Y215776D01*
X288283Y215795D01*
X288283Y215796D01*
X288286Y215815D01*
X288285Y215834D01*
X288289Y215900D01*
X288289Y227330D01*
X288274Y227448D01*
X288267Y227567D01*
X288254Y227605D01*
X288249Y227646D01*
X288206Y227756D01*
X288169Y227869D01*
X288147Y227904D01*
X288132Y227941D01*
X288063Y228037D01*
X287999Y228138D01*
X287969Y228166D01*
X287946Y228199D01*
X287854Y228275D01*
X287767Y228356D01*
X287732Y228376D01*
X287701Y228401D01*
X287593Y228452D01*
X287489Y228510D01*
X287449Y228520D01*
X287413Y228537D01*
X287296Y228559D01*
X287181Y228589D01*
X287121Y228593D01*
X287101Y228597D01*
X287080Y228595D01*
X287020Y228599D01*
X271780Y228599D01*
X271662Y228584D01*
X271543Y228577D01*
X271505Y228564D01*
X271464Y228559D01*
X271354Y228516D01*
X271241Y228479D01*
X271206Y228457D01*
X271169Y228442D01*
X271073Y228373D01*
X270972Y228309D01*
X270944Y228279D01*
X270911Y228256D01*
X270836Y228164D01*
X270754Y228077D01*
X270734Y228042D01*
X270709Y228011D01*
X270658Y227903D01*
X270600Y227799D01*
X270590Y227759D01*
X270573Y227723D01*
X270551Y227606D01*
X270521Y227491D01*
X270517Y227431D01*
X270513Y227411D01*
X270514Y227402D01*
X270513Y227399D01*
X270514Y227385D01*
X270511Y227330D01*
X270511Y215900D01*
X270513Y215880D01*
X270517Y215776D01*
X270663Y214289D01*
X270673Y214246D01*
X270675Y214202D01*
X270712Y214045D01*
X271145Y212616D01*
X271163Y212575D01*
X271174Y212532D01*
X271241Y212386D01*
X271945Y211068D01*
X271970Y211032D01*
X271989Y210992D01*
X272083Y210861D01*
X273031Y209707D01*
X273063Y209676D01*
X273089Y209641D01*
X273207Y209531D01*
X274361Y208583D01*
X274399Y208559D01*
X274431Y208530D01*
X274568Y208445D01*
X275886Y207741D01*
X275927Y207725D01*
X275965Y207702D01*
X276116Y207645D01*
X277545Y207212D01*
X277589Y207204D01*
X277630Y207189D01*
X277789Y207163D01*
X279276Y207017D01*
X279320Y207018D01*
X279364Y207011D01*
X279524Y207017D01*
G37*
G36*
X254124Y207017D02*
X254124Y207017D01*
X255611Y207163D01*
X255654Y207173D01*
X255698Y207175D01*
X255855Y207212D01*
X257285Y207645D01*
X257325Y207663D01*
X257368Y207674D01*
X257514Y207741D01*
X258832Y208445D01*
X258868Y208470D01*
X258908Y208489D01*
X259039Y208583D01*
X260193Y209531D01*
X260224Y209563D01*
X260259Y209589D01*
X260369Y209707D01*
X261317Y210861D01*
X261341Y210899D01*
X261370Y210931D01*
X261455Y211068D01*
X262159Y212386D01*
X262175Y212427D01*
X262198Y212465D01*
X262255Y212616D01*
X262688Y214045D01*
X262696Y214089D01*
X262711Y214130D01*
X262737Y214289D01*
X262883Y215776D01*
X262883Y215795D01*
X262883Y215796D01*
X262886Y215815D01*
X262885Y215834D01*
X262889Y215900D01*
X262889Y227330D01*
X262874Y227448D01*
X262867Y227567D01*
X262854Y227605D01*
X262849Y227646D01*
X262806Y227756D01*
X262769Y227869D01*
X262747Y227904D01*
X262732Y227941D01*
X262663Y228037D01*
X262599Y228138D01*
X262569Y228166D01*
X262546Y228199D01*
X262454Y228275D01*
X262367Y228356D01*
X262332Y228376D01*
X262301Y228401D01*
X262193Y228452D01*
X262089Y228510D01*
X262049Y228520D01*
X262013Y228537D01*
X261896Y228559D01*
X261781Y228589D01*
X261721Y228593D01*
X261701Y228597D01*
X261680Y228595D01*
X261620Y228599D01*
X246380Y228599D01*
X246262Y228584D01*
X246143Y228577D01*
X246105Y228564D01*
X246064Y228559D01*
X245954Y228516D01*
X245841Y228479D01*
X245806Y228457D01*
X245769Y228442D01*
X245673Y228373D01*
X245572Y228309D01*
X245544Y228279D01*
X245511Y228256D01*
X245436Y228164D01*
X245354Y228077D01*
X245334Y228042D01*
X245309Y228011D01*
X245258Y227903D01*
X245200Y227799D01*
X245190Y227759D01*
X245173Y227723D01*
X245151Y227606D01*
X245121Y227491D01*
X245117Y227431D01*
X245113Y227411D01*
X245114Y227402D01*
X245113Y227399D01*
X245114Y227385D01*
X245111Y227330D01*
X245111Y215900D01*
X245113Y215880D01*
X245117Y215776D01*
X245263Y214289D01*
X245273Y214246D01*
X245275Y214202D01*
X245312Y214045D01*
X245745Y212616D01*
X245763Y212575D01*
X245774Y212532D01*
X245841Y212386D01*
X246545Y211068D01*
X246570Y211032D01*
X246589Y210992D01*
X246683Y210861D01*
X247631Y209707D01*
X247663Y209676D01*
X247689Y209641D01*
X247807Y209531D01*
X248961Y208583D01*
X248999Y208559D01*
X249031Y208530D01*
X249168Y208445D01*
X250486Y207741D01*
X250527Y207725D01*
X250565Y207702D01*
X250716Y207645D01*
X252145Y207212D01*
X252189Y207204D01*
X252230Y207189D01*
X252389Y207163D01*
X253876Y207017D01*
X253920Y207018D01*
X253964Y207011D01*
X254124Y207017D01*
G37*
G36*
X330324Y207017D02*
X330324Y207017D01*
X331811Y207163D01*
X331854Y207173D01*
X331898Y207175D01*
X332055Y207212D01*
X333485Y207645D01*
X333525Y207663D01*
X333568Y207674D01*
X333714Y207741D01*
X335032Y208445D01*
X335068Y208470D01*
X335108Y208489D01*
X335239Y208583D01*
X336393Y209531D01*
X336424Y209563D01*
X336459Y209589D01*
X336569Y209707D01*
X337517Y210861D01*
X337541Y210899D01*
X337570Y210931D01*
X337655Y211068D01*
X338359Y212386D01*
X338375Y212427D01*
X338398Y212465D01*
X338455Y212616D01*
X338888Y214045D01*
X338896Y214089D01*
X338911Y214130D01*
X338937Y214289D01*
X339083Y215776D01*
X339083Y215795D01*
X339083Y215796D01*
X339086Y215815D01*
X339085Y215834D01*
X339089Y215900D01*
X339089Y227330D01*
X339074Y227448D01*
X339067Y227567D01*
X339054Y227605D01*
X339049Y227646D01*
X339006Y227756D01*
X338969Y227869D01*
X338947Y227904D01*
X338932Y227941D01*
X338863Y228037D01*
X338799Y228138D01*
X338769Y228166D01*
X338746Y228199D01*
X338654Y228275D01*
X338567Y228356D01*
X338532Y228376D01*
X338501Y228401D01*
X338393Y228452D01*
X338289Y228510D01*
X338249Y228520D01*
X338213Y228537D01*
X338096Y228559D01*
X337981Y228589D01*
X337921Y228593D01*
X337901Y228597D01*
X337880Y228595D01*
X337820Y228599D01*
X322580Y228599D01*
X322462Y228584D01*
X322343Y228577D01*
X322305Y228564D01*
X322264Y228559D01*
X322154Y228516D01*
X322041Y228479D01*
X322006Y228457D01*
X321969Y228442D01*
X321873Y228373D01*
X321772Y228309D01*
X321744Y228279D01*
X321711Y228256D01*
X321636Y228164D01*
X321554Y228077D01*
X321534Y228042D01*
X321509Y228011D01*
X321458Y227903D01*
X321400Y227799D01*
X321390Y227759D01*
X321373Y227723D01*
X321351Y227606D01*
X321321Y227491D01*
X321317Y227431D01*
X321313Y227411D01*
X321314Y227402D01*
X321313Y227399D01*
X321314Y227385D01*
X321311Y227330D01*
X321311Y215900D01*
X321313Y215880D01*
X321317Y215776D01*
X321463Y214289D01*
X321473Y214246D01*
X321475Y214202D01*
X321512Y214045D01*
X321945Y212616D01*
X321963Y212575D01*
X321974Y212532D01*
X322041Y212386D01*
X322745Y211068D01*
X322770Y211032D01*
X322789Y210992D01*
X322883Y210861D01*
X323831Y209707D01*
X323863Y209676D01*
X323889Y209641D01*
X324007Y209531D01*
X325161Y208583D01*
X325199Y208559D01*
X325231Y208530D01*
X325368Y208445D01*
X326686Y207741D01*
X326727Y207725D01*
X326765Y207702D01*
X326916Y207645D01*
X328345Y207212D01*
X328389Y207204D01*
X328430Y207189D01*
X328589Y207163D01*
X330076Y207017D01*
X330120Y207018D01*
X330164Y207011D01*
X330324Y207017D01*
G37*
G36*
X50924Y207017D02*
X50924Y207017D01*
X52411Y207163D01*
X52454Y207173D01*
X52498Y207175D01*
X52655Y207212D01*
X54085Y207645D01*
X54125Y207663D01*
X54168Y207674D01*
X54314Y207741D01*
X55632Y208445D01*
X55668Y208470D01*
X55708Y208489D01*
X55839Y208583D01*
X56993Y209531D01*
X57024Y209563D01*
X57059Y209589D01*
X57169Y209707D01*
X58117Y210861D01*
X58141Y210899D01*
X58170Y210931D01*
X58255Y211068D01*
X58959Y212386D01*
X58975Y212427D01*
X58998Y212465D01*
X59055Y212616D01*
X59488Y214045D01*
X59496Y214089D01*
X59511Y214130D01*
X59537Y214289D01*
X59683Y215776D01*
X59683Y215795D01*
X59683Y215796D01*
X59686Y215815D01*
X59685Y215834D01*
X59689Y215900D01*
X59689Y227330D01*
X59674Y227448D01*
X59667Y227567D01*
X59654Y227605D01*
X59649Y227646D01*
X59606Y227756D01*
X59569Y227869D01*
X59547Y227904D01*
X59532Y227941D01*
X59463Y228037D01*
X59399Y228138D01*
X59369Y228166D01*
X59346Y228199D01*
X59254Y228275D01*
X59167Y228356D01*
X59132Y228376D01*
X59101Y228401D01*
X58993Y228452D01*
X58889Y228510D01*
X58849Y228520D01*
X58813Y228537D01*
X58696Y228559D01*
X58581Y228589D01*
X58521Y228593D01*
X58501Y228597D01*
X58480Y228595D01*
X58420Y228599D01*
X43180Y228599D01*
X43062Y228584D01*
X42943Y228577D01*
X42905Y228564D01*
X42864Y228559D01*
X42754Y228516D01*
X42641Y228479D01*
X42606Y228457D01*
X42569Y228442D01*
X42473Y228373D01*
X42372Y228309D01*
X42344Y228279D01*
X42311Y228256D01*
X42236Y228164D01*
X42154Y228077D01*
X42134Y228042D01*
X42109Y228011D01*
X42058Y227903D01*
X42000Y227799D01*
X41990Y227759D01*
X41973Y227723D01*
X41951Y227606D01*
X41921Y227491D01*
X41917Y227431D01*
X41913Y227411D01*
X41914Y227402D01*
X41913Y227399D01*
X41914Y227385D01*
X41911Y227330D01*
X41911Y215900D01*
X41913Y215880D01*
X41917Y215776D01*
X42063Y214289D01*
X42073Y214246D01*
X42075Y214202D01*
X42112Y214045D01*
X42545Y212616D01*
X42563Y212575D01*
X42574Y212532D01*
X42641Y212386D01*
X43345Y211068D01*
X43370Y211032D01*
X43389Y210992D01*
X43483Y210861D01*
X44431Y209707D01*
X44463Y209676D01*
X44489Y209641D01*
X44607Y209531D01*
X45761Y208583D01*
X45799Y208559D01*
X45831Y208530D01*
X45968Y208445D01*
X47286Y207741D01*
X47327Y207725D01*
X47365Y207702D01*
X47516Y207645D01*
X48945Y207212D01*
X48989Y207204D01*
X49030Y207189D01*
X49189Y207163D01*
X50676Y207017D01*
X50720Y207018D01*
X50764Y207011D01*
X50924Y207017D01*
G37*
G36*
X76324Y207017D02*
X76324Y207017D01*
X77811Y207163D01*
X77854Y207173D01*
X77898Y207175D01*
X78055Y207212D01*
X79485Y207645D01*
X79525Y207663D01*
X79568Y207674D01*
X79714Y207741D01*
X81032Y208445D01*
X81068Y208470D01*
X81108Y208489D01*
X81239Y208583D01*
X82393Y209531D01*
X82424Y209563D01*
X82459Y209589D01*
X82569Y209707D01*
X83517Y210861D01*
X83541Y210899D01*
X83570Y210931D01*
X83655Y211068D01*
X84359Y212386D01*
X84375Y212427D01*
X84398Y212465D01*
X84455Y212616D01*
X84888Y214045D01*
X84896Y214089D01*
X84911Y214130D01*
X84937Y214289D01*
X85083Y215776D01*
X85083Y215795D01*
X85083Y215796D01*
X85086Y215815D01*
X85085Y215834D01*
X85089Y215900D01*
X85089Y227330D01*
X85074Y227448D01*
X85067Y227567D01*
X85054Y227605D01*
X85049Y227646D01*
X85006Y227756D01*
X84969Y227869D01*
X84947Y227904D01*
X84932Y227941D01*
X84863Y228037D01*
X84799Y228138D01*
X84769Y228166D01*
X84746Y228199D01*
X84654Y228275D01*
X84567Y228356D01*
X84532Y228376D01*
X84501Y228401D01*
X84393Y228452D01*
X84289Y228510D01*
X84249Y228520D01*
X84213Y228537D01*
X84096Y228559D01*
X83981Y228589D01*
X83921Y228593D01*
X83901Y228597D01*
X83880Y228595D01*
X83820Y228599D01*
X68580Y228599D01*
X68462Y228584D01*
X68343Y228577D01*
X68305Y228564D01*
X68264Y228559D01*
X68154Y228516D01*
X68041Y228479D01*
X68006Y228457D01*
X67969Y228442D01*
X67873Y228373D01*
X67772Y228309D01*
X67744Y228279D01*
X67711Y228256D01*
X67636Y228164D01*
X67554Y228077D01*
X67534Y228042D01*
X67509Y228011D01*
X67458Y227903D01*
X67400Y227799D01*
X67390Y227759D01*
X67373Y227723D01*
X67351Y227606D01*
X67321Y227491D01*
X67317Y227431D01*
X67313Y227411D01*
X67314Y227402D01*
X67313Y227399D01*
X67314Y227385D01*
X67311Y227330D01*
X67311Y215900D01*
X67313Y215880D01*
X67317Y215776D01*
X67463Y214289D01*
X67473Y214246D01*
X67475Y214202D01*
X67512Y214045D01*
X67945Y212616D01*
X67963Y212575D01*
X67974Y212532D01*
X68041Y212386D01*
X68745Y211068D01*
X68770Y211032D01*
X68789Y210992D01*
X68883Y210861D01*
X69831Y209707D01*
X69863Y209676D01*
X69889Y209641D01*
X70007Y209531D01*
X71161Y208583D01*
X71199Y208559D01*
X71231Y208530D01*
X71368Y208445D01*
X72686Y207741D01*
X72727Y207725D01*
X72765Y207702D01*
X72916Y207645D01*
X74345Y207212D01*
X74389Y207204D01*
X74430Y207189D01*
X74589Y207163D01*
X76076Y207017D01*
X76120Y207018D01*
X76164Y207011D01*
X76324Y207017D01*
G37*
G36*
X177924Y207017D02*
X177924Y207017D01*
X179411Y207163D01*
X179454Y207173D01*
X179498Y207175D01*
X179655Y207212D01*
X181085Y207645D01*
X181125Y207663D01*
X181168Y207674D01*
X181314Y207741D01*
X182632Y208445D01*
X182668Y208470D01*
X182708Y208489D01*
X182839Y208583D01*
X183993Y209531D01*
X184024Y209563D01*
X184059Y209589D01*
X184169Y209707D01*
X185117Y210861D01*
X185141Y210899D01*
X185170Y210931D01*
X185255Y211068D01*
X185959Y212386D01*
X185975Y212427D01*
X185998Y212465D01*
X186055Y212616D01*
X186488Y214045D01*
X186496Y214089D01*
X186511Y214130D01*
X186537Y214289D01*
X186683Y215776D01*
X186683Y215795D01*
X186683Y215796D01*
X186686Y215815D01*
X186685Y215834D01*
X186689Y215900D01*
X186689Y227330D01*
X186674Y227448D01*
X186667Y227567D01*
X186654Y227605D01*
X186649Y227646D01*
X186606Y227756D01*
X186569Y227869D01*
X186547Y227904D01*
X186532Y227941D01*
X186463Y228037D01*
X186399Y228138D01*
X186369Y228166D01*
X186346Y228199D01*
X186254Y228275D01*
X186167Y228356D01*
X186132Y228376D01*
X186101Y228401D01*
X185993Y228452D01*
X185889Y228510D01*
X185849Y228520D01*
X185813Y228537D01*
X185696Y228559D01*
X185581Y228589D01*
X185521Y228593D01*
X185501Y228597D01*
X185480Y228595D01*
X185420Y228599D01*
X170180Y228599D01*
X170062Y228584D01*
X169943Y228577D01*
X169905Y228564D01*
X169864Y228559D01*
X169754Y228516D01*
X169641Y228479D01*
X169606Y228457D01*
X169569Y228442D01*
X169473Y228373D01*
X169372Y228309D01*
X169344Y228279D01*
X169311Y228256D01*
X169236Y228164D01*
X169154Y228077D01*
X169134Y228042D01*
X169109Y228011D01*
X169058Y227903D01*
X169000Y227799D01*
X168990Y227759D01*
X168973Y227723D01*
X168951Y227606D01*
X168921Y227491D01*
X168917Y227431D01*
X168913Y227411D01*
X168914Y227402D01*
X168913Y227399D01*
X168914Y227385D01*
X168911Y227330D01*
X168911Y215900D01*
X168913Y215880D01*
X168917Y215776D01*
X169063Y214289D01*
X169073Y214246D01*
X169075Y214202D01*
X169112Y214045D01*
X169545Y212616D01*
X169563Y212575D01*
X169574Y212532D01*
X169641Y212386D01*
X170345Y211068D01*
X170370Y211032D01*
X170389Y210992D01*
X170483Y210861D01*
X171431Y209707D01*
X171463Y209676D01*
X171489Y209641D01*
X171607Y209531D01*
X172761Y208583D01*
X172799Y208559D01*
X172831Y208530D01*
X172968Y208445D01*
X174286Y207741D01*
X174327Y207725D01*
X174365Y207702D01*
X174516Y207645D01*
X175945Y207212D01*
X175989Y207204D01*
X176030Y207189D01*
X176189Y207163D01*
X177676Y207017D01*
X177720Y207018D01*
X177764Y207011D01*
X177924Y207017D01*
G37*
G36*
X228724Y207017D02*
X228724Y207017D01*
X230211Y207163D01*
X230254Y207173D01*
X230298Y207175D01*
X230455Y207212D01*
X231885Y207645D01*
X231925Y207663D01*
X231968Y207674D01*
X232114Y207741D01*
X233432Y208445D01*
X233468Y208470D01*
X233508Y208489D01*
X233639Y208583D01*
X234793Y209531D01*
X234824Y209563D01*
X234859Y209589D01*
X234969Y209707D01*
X235917Y210861D01*
X235941Y210899D01*
X235970Y210931D01*
X236055Y211068D01*
X236759Y212386D01*
X236775Y212427D01*
X236798Y212465D01*
X236855Y212616D01*
X237288Y214045D01*
X237296Y214089D01*
X237311Y214130D01*
X237337Y214289D01*
X237483Y215776D01*
X237483Y215795D01*
X237483Y215796D01*
X237486Y215815D01*
X237485Y215834D01*
X237489Y215900D01*
X237489Y227330D01*
X237474Y227448D01*
X237467Y227567D01*
X237454Y227605D01*
X237449Y227646D01*
X237406Y227756D01*
X237369Y227869D01*
X237347Y227904D01*
X237332Y227941D01*
X237263Y228037D01*
X237199Y228138D01*
X237169Y228166D01*
X237146Y228199D01*
X237054Y228275D01*
X236967Y228356D01*
X236932Y228376D01*
X236901Y228401D01*
X236793Y228452D01*
X236689Y228510D01*
X236649Y228520D01*
X236613Y228537D01*
X236496Y228559D01*
X236381Y228589D01*
X236321Y228593D01*
X236301Y228597D01*
X236280Y228595D01*
X236220Y228599D01*
X220980Y228599D01*
X220862Y228584D01*
X220743Y228577D01*
X220705Y228564D01*
X220664Y228559D01*
X220554Y228516D01*
X220441Y228479D01*
X220406Y228457D01*
X220369Y228442D01*
X220273Y228373D01*
X220172Y228309D01*
X220144Y228279D01*
X220111Y228256D01*
X220036Y228164D01*
X219954Y228077D01*
X219934Y228042D01*
X219909Y228011D01*
X219858Y227903D01*
X219800Y227799D01*
X219790Y227759D01*
X219773Y227723D01*
X219751Y227606D01*
X219721Y227491D01*
X219717Y227431D01*
X219713Y227411D01*
X219714Y227402D01*
X219713Y227399D01*
X219714Y227385D01*
X219711Y227330D01*
X219711Y215900D01*
X219713Y215880D01*
X219717Y215776D01*
X219863Y214289D01*
X219873Y214246D01*
X219875Y214202D01*
X219912Y214045D01*
X220345Y212616D01*
X220363Y212575D01*
X220374Y212532D01*
X220441Y212386D01*
X221145Y211068D01*
X221170Y211032D01*
X221189Y210992D01*
X221283Y210861D01*
X222231Y209707D01*
X222263Y209676D01*
X222289Y209641D01*
X222407Y209531D01*
X223561Y208583D01*
X223599Y208559D01*
X223631Y208530D01*
X223768Y208445D01*
X225086Y207741D01*
X225127Y207725D01*
X225165Y207702D01*
X225316Y207645D01*
X226745Y207212D01*
X226789Y207204D01*
X226830Y207189D01*
X226989Y207163D01*
X228476Y207017D01*
X228520Y207018D01*
X228564Y207011D01*
X228724Y207017D01*
G37*
G36*
X127124Y207017D02*
X127124Y207017D01*
X128611Y207163D01*
X128654Y207173D01*
X128698Y207175D01*
X128855Y207212D01*
X130285Y207645D01*
X130325Y207663D01*
X130368Y207674D01*
X130514Y207741D01*
X131832Y208445D01*
X131868Y208470D01*
X131908Y208489D01*
X132039Y208583D01*
X133193Y209531D01*
X133224Y209563D01*
X133259Y209589D01*
X133369Y209707D01*
X134317Y210861D01*
X134341Y210899D01*
X134370Y210931D01*
X134455Y211068D01*
X135159Y212386D01*
X135175Y212427D01*
X135198Y212465D01*
X135255Y212616D01*
X135688Y214045D01*
X135696Y214089D01*
X135711Y214130D01*
X135737Y214289D01*
X135883Y215776D01*
X135883Y215795D01*
X135883Y215796D01*
X135886Y215815D01*
X135885Y215834D01*
X135889Y215900D01*
X135889Y227330D01*
X135874Y227448D01*
X135867Y227567D01*
X135854Y227605D01*
X135849Y227646D01*
X135806Y227756D01*
X135769Y227869D01*
X135747Y227904D01*
X135732Y227941D01*
X135663Y228037D01*
X135599Y228138D01*
X135569Y228166D01*
X135546Y228199D01*
X135454Y228275D01*
X135367Y228356D01*
X135332Y228376D01*
X135301Y228401D01*
X135193Y228452D01*
X135089Y228510D01*
X135049Y228520D01*
X135013Y228537D01*
X134896Y228559D01*
X134781Y228589D01*
X134721Y228593D01*
X134701Y228597D01*
X134680Y228595D01*
X134620Y228599D01*
X119380Y228599D01*
X119262Y228584D01*
X119143Y228577D01*
X119105Y228564D01*
X119064Y228559D01*
X118954Y228516D01*
X118841Y228479D01*
X118806Y228457D01*
X118769Y228442D01*
X118673Y228373D01*
X118572Y228309D01*
X118544Y228279D01*
X118511Y228256D01*
X118436Y228164D01*
X118354Y228077D01*
X118334Y228042D01*
X118309Y228011D01*
X118258Y227903D01*
X118200Y227799D01*
X118190Y227759D01*
X118173Y227723D01*
X118151Y227606D01*
X118121Y227491D01*
X118117Y227431D01*
X118113Y227411D01*
X118114Y227402D01*
X118113Y227399D01*
X118114Y227385D01*
X118111Y227330D01*
X118111Y215900D01*
X118113Y215880D01*
X118117Y215776D01*
X118263Y214289D01*
X118273Y214246D01*
X118275Y214202D01*
X118312Y214045D01*
X118745Y212616D01*
X118763Y212575D01*
X118774Y212532D01*
X118841Y212386D01*
X119545Y211068D01*
X119570Y211032D01*
X119589Y210992D01*
X119683Y210861D01*
X120631Y209707D01*
X120663Y209676D01*
X120689Y209641D01*
X120807Y209531D01*
X121961Y208583D01*
X121999Y208559D01*
X122031Y208530D01*
X122168Y208445D01*
X123486Y207741D01*
X123527Y207725D01*
X123565Y207702D01*
X123716Y207645D01*
X125145Y207212D01*
X125189Y207204D01*
X125230Y207189D01*
X125389Y207163D01*
X126876Y207017D01*
X126920Y207018D01*
X126964Y207011D01*
X127124Y207017D01*
G37*
G36*
X25524Y207017D02*
X25524Y207017D01*
X27011Y207163D01*
X27054Y207173D01*
X27098Y207175D01*
X27255Y207212D01*
X28685Y207645D01*
X28725Y207663D01*
X28768Y207674D01*
X28914Y207741D01*
X30232Y208445D01*
X30268Y208470D01*
X30308Y208489D01*
X30439Y208583D01*
X31593Y209531D01*
X31624Y209563D01*
X31659Y209589D01*
X31769Y209707D01*
X32717Y210861D01*
X32741Y210899D01*
X32770Y210931D01*
X32855Y211068D01*
X33559Y212386D01*
X33575Y212427D01*
X33598Y212465D01*
X33655Y212616D01*
X34088Y214045D01*
X34096Y214089D01*
X34111Y214130D01*
X34137Y214289D01*
X34283Y215776D01*
X34283Y215795D01*
X34283Y215796D01*
X34286Y215815D01*
X34285Y215834D01*
X34289Y215900D01*
X34289Y227330D01*
X34274Y227448D01*
X34267Y227567D01*
X34254Y227605D01*
X34249Y227646D01*
X34206Y227756D01*
X34169Y227869D01*
X34147Y227904D01*
X34132Y227941D01*
X34063Y228037D01*
X33999Y228138D01*
X33969Y228166D01*
X33946Y228199D01*
X33854Y228275D01*
X33767Y228356D01*
X33732Y228376D01*
X33701Y228401D01*
X33593Y228452D01*
X33489Y228510D01*
X33449Y228520D01*
X33413Y228537D01*
X33296Y228559D01*
X33181Y228589D01*
X33121Y228593D01*
X33101Y228597D01*
X33080Y228595D01*
X33020Y228599D01*
X17780Y228599D01*
X17662Y228584D01*
X17543Y228577D01*
X17505Y228564D01*
X17464Y228559D01*
X17354Y228516D01*
X17241Y228479D01*
X17206Y228457D01*
X17169Y228442D01*
X17073Y228373D01*
X16972Y228309D01*
X16944Y228279D01*
X16911Y228256D01*
X16836Y228164D01*
X16754Y228077D01*
X16734Y228042D01*
X16709Y228011D01*
X16658Y227903D01*
X16600Y227799D01*
X16590Y227759D01*
X16573Y227723D01*
X16551Y227606D01*
X16521Y227491D01*
X16517Y227431D01*
X16513Y227411D01*
X16514Y227402D01*
X16513Y227399D01*
X16514Y227385D01*
X16511Y227330D01*
X16511Y215900D01*
X16513Y215880D01*
X16517Y215776D01*
X16663Y214289D01*
X16673Y214246D01*
X16675Y214202D01*
X16712Y214045D01*
X17145Y212616D01*
X17163Y212575D01*
X17174Y212532D01*
X17241Y212386D01*
X17945Y211068D01*
X17970Y211032D01*
X17989Y210992D01*
X18083Y210861D01*
X19031Y209707D01*
X19063Y209676D01*
X19089Y209641D01*
X19207Y209531D01*
X20361Y208583D01*
X20399Y208559D01*
X20431Y208530D01*
X20568Y208445D01*
X21886Y207741D01*
X21927Y207725D01*
X21965Y207702D01*
X22116Y207645D01*
X23545Y207212D01*
X23589Y207204D01*
X23630Y207189D01*
X23789Y207163D01*
X25276Y207017D01*
X25320Y207018D01*
X25364Y207011D01*
X25524Y207017D01*
G37*
G36*
X152524Y207017D02*
X152524Y207017D01*
X154011Y207163D01*
X154054Y207173D01*
X154098Y207175D01*
X154255Y207212D01*
X155685Y207645D01*
X155725Y207663D01*
X155768Y207674D01*
X155914Y207741D01*
X157232Y208445D01*
X157268Y208470D01*
X157308Y208489D01*
X157439Y208583D01*
X158593Y209531D01*
X158624Y209563D01*
X158659Y209589D01*
X158769Y209707D01*
X159717Y210861D01*
X159741Y210899D01*
X159770Y210931D01*
X159855Y211068D01*
X160559Y212386D01*
X160575Y212427D01*
X160598Y212465D01*
X160655Y212616D01*
X161088Y214045D01*
X161096Y214089D01*
X161111Y214130D01*
X161137Y214289D01*
X161283Y215776D01*
X161283Y215795D01*
X161283Y215796D01*
X161286Y215815D01*
X161285Y215834D01*
X161289Y215900D01*
X161289Y227330D01*
X161274Y227448D01*
X161267Y227567D01*
X161254Y227605D01*
X161249Y227646D01*
X161206Y227756D01*
X161169Y227869D01*
X161147Y227904D01*
X161132Y227941D01*
X161063Y228037D01*
X160999Y228138D01*
X160969Y228166D01*
X160946Y228199D01*
X160854Y228275D01*
X160767Y228356D01*
X160732Y228376D01*
X160701Y228401D01*
X160593Y228452D01*
X160489Y228510D01*
X160449Y228520D01*
X160413Y228537D01*
X160296Y228559D01*
X160181Y228589D01*
X160121Y228593D01*
X160101Y228597D01*
X160080Y228595D01*
X160020Y228599D01*
X144780Y228599D01*
X144662Y228584D01*
X144543Y228577D01*
X144505Y228564D01*
X144464Y228559D01*
X144354Y228516D01*
X144241Y228479D01*
X144206Y228457D01*
X144169Y228442D01*
X144073Y228373D01*
X143972Y228309D01*
X143944Y228279D01*
X143911Y228256D01*
X143836Y228164D01*
X143754Y228077D01*
X143734Y228042D01*
X143709Y228011D01*
X143658Y227903D01*
X143600Y227799D01*
X143590Y227759D01*
X143573Y227723D01*
X143551Y227606D01*
X143521Y227491D01*
X143517Y227431D01*
X143513Y227411D01*
X143514Y227402D01*
X143513Y227399D01*
X143514Y227385D01*
X143511Y227330D01*
X143511Y215900D01*
X143513Y215880D01*
X143517Y215776D01*
X143663Y214289D01*
X143673Y214246D01*
X143675Y214202D01*
X143712Y214045D01*
X144145Y212616D01*
X144163Y212575D01*
X144174Y212532D01*
X144241Y212386D01*
X144945Y211068D01*
X144970Y211032D01*
X144989Y210992D01*
X145083Y210861D01*
X146031Y209707D01*
X146063Y209676D01*
X146089Y209641D01*
X146207Y209531D01*
X147361Y208583D01*
X147399Y208559D01*
X147431Y208530D01*
X147568Y208445D01*
X148886Y207741D01*
X148927Y207725D01*
X148965Y207702D01*
X149116Y207645D01*
X150545Y207212D01*
X150589Y207204D01*
X150630Y207189D01*
X150789Y207163D01*
X152276Y207017D01*
X152320Y207018D01*
X152364Y207011D01*
X152524Y207017D01*
G37*
G36*
X203324Y207017D02*
X203324Y207017D01*
X204811Y207163D01*
X204854Y207173D01*
X204898Y207175D01*
X205055Y207212D01*
X206485Y207645D01*
X206525Y207663D01*
X206568Y207674D01*
X206714Y207741D01*
X208032Y208445D01*
X208068Y208470D01*
X208108Y208489D01*
X208239Y208583D01*
X209393Y209531D01*
X209424Y209563D01*
X209459Y209589D01*
X209569Y209707D01*
X210517Y210861D01*
X210541Y210899D01*
X210570Y210931D01*
X210655Y211068D01*
X211359Y212386D01*
X211375Y212427D01*
X211398Y212465D01*
X211455Y212616D01*
X211888Y214045D01*
X211896Y214089D01*
X211911Y214130D01*
X211937Y214289D01*
X212083Y215776D01*
X212083Y215795D01*
X212083Y215796D01*
X212086Y215815D01*
X212085Y215834D01*
X212089Y215900D01*
X212089Y227330D01*
X212074Y227448D01*
X212067Y227567D01*
X212054Y227605D01*
X212049Y227646D01*
X212006Y227756D01*
X211969Y227869D01*
X211947Y227904D01*
X211932Y227941D01*
X211863Y228037D01*
X211799Y228138D01*
X211769Y228166D01*
X211746Y228199D01*
X211654Y228275D01*
X211567Y228356D01*
X211532Y228376D01*
X211501Y228401D01*
X211393Y228452D01*
X211289Y228510D01*
X211249Y228520D01*
X211213Y228537D01*
X211096Y228559D01*
X210981Y228589D01*
X210921Y228593D01*
X210901Y228597D01*
X210880Y228595D01*
X210820Y228599D01*
X195580Y228599D01*
X195462Y228584D01*
X195343Y228577D01*
X195305Y228564D01*
X195264Y228559D01*
X195154Y228516D01*
X195041Y228479D01*
X195006Y228457D01*
X194969Y228442D01*
X194873Y228373D01*
X194772Y228309D01*
X194744Y228279D01*
X194711Y228256D01*
X194636Y228164D01*
X194554Y228077D01*
X194534Y228042D01*
X194509Y228011D01*
X194458Y227903D01*
X194400Y227799D01*
X194390Y227759D01*
X194373Y227723D01*
X194351Y227606D01*
X194321Y227491D01*
X194317Y227431D01*
X194313Y227411D01*
X194314Y227402D01*
X194313Y227399D01*
X194314Y227385D01*
X194311Y227330D01*
X194311Y215900D01*
X194313Y215880D01*
X194317Y215776D01*
X194463Y214289D01*
X194473Y214246D01*
X194475Y214202D01*
X194512Y214045D01*
X194945Y212616D01*
X194963Y212575D01*
X194974Y212532D01*
X195041Y212386D01*
X195745Y211068D01*
X195770Y211032D01*
X195789Y210992D01*
X195883Y210861D01*
X196831Y209707D01*
X196863Y209676D01*
X196889Y209641D01*
X197007Y209531D01*
X198161Y208583D01*
X198199Y208559D01*
X198231Y208530D01*
X198368Y208445D01*
X199686Y207741D01*
X199727Y207725D01*
X199765Y207702D01*
X199916Y207645D01*
X201345Y207212D01*
X201389Y207204D01*
X201430Y207189D01*
X201589Y207163D01*
X203076Y207017D01*
X203120Y207018D01*
X203164Y207011D01*
X203324Y207017D01*
G37*
G36*
X101724Y207017D02*
X101724Y207017D01*
X103211Y207163D01*
X103254Y207173D01*
X103298Y207175D01*
X103455Y207212D01*
X104885Y207645D01*
X104925Y207663D01*
X104968Y207674D01*
X105114Y207741D01*
X106432Y208445D01*
X106468Y208470D01*
X106508Y208489D01*
X106639Y208583D01*
X107793Y209531D01*
X107824Y209563D01*
X107859Y209589D01*
X107969Y209707D01*
X108917Y210861D01*
X108941Y210899D01*
X108970Y210931D01*
X109055Y211068D01*
X109759Y212386D01*
X109775Y212427D01*
X109798Y212465D01*
X109855Y212616D01*
X110288Y214045D01*
X110296Y214089D01*
X110311Y214130D01*
X110337Y214289D01*
X110483Y215776D01*
X110483Y215795D01*
X110483Y215796D01*
X110486Y215815D01*
X110485Y215834D01*
X110489Y215900D01*
X110489Y227330D01*
X110474Y227448D01*
X110467Y227567D01*
X110454Y227605D01*
X110449Y227646D01*
X110406Y227756D01*
X110369Y227869D01*
X110347Y227904D01*
X110332Y227941D01*
X110263Y228037D01*
X110199Y228138D01*
X110169Y228166D01*
X110146Y228199D01*
X110054Y228275D01*
X109967Y228356D01*
X109932Y228376D01*
X109901Y228401D01*
X109793Y228452D01*
X109689Y228510D01*
X109649Y228520D01*
X109613Y228537D01*
X109496Y228559D01*
X109381Y228589D01*
X109321Y228593D01*
X109301Y228597D01*
X109280Y228595D01*
X109220Y228599D01*
X93980Y228599D01*
X93862Y228584D01*
X93743Y228577D01*
X93705Y228564D01*
X93664Y228559D01*
X93554Y228516D01*
X93441Y228479D01*
X93406Y228457D01*
X93369Y228442D01*
X93273Y228373D01*
X93172Y228309D01*
X93144Y228279D01*
X93111Y228256D01*
X93036Y228164D01*
X92954Y228077D01*
X92934Y228042D01*
X92909Y228011D01*
X92858Y227903D01*
X92800Y227799D01*
X92790Y227759D01*
X92773Y227723D01*
X92751Y227606D01*
X92721Y227491D01*
X92717Y227431D01*
X92713Y227411D01*
X92714Y227402D01*
X92713Y227399D01*
X92714Y227385D01*
X92711Y227330D01*
X92711Y215900D01*
X92713Y215880D01*
X92717Y215776D01*
X92863Y214289D01*
X92873Y214246D01*
X92875Y214202D01*
X92912Y214045D01*
X93345Y212616D01*
X93363Y212575D01*
X93374Y212532D01*
X93441Y212386D01*
X94145Y211068D01*
X94170Y211032D01*
X94189Y210992D01*
X94283Y210861D01*
X95231Y209707D01*
X95263Y209676D01*
X95289Y209641D01*
X95407Y209531D01*
X96561Y208583D01*
X96599Y208559D01*
X96631Y208530D01*
X96768Y208445D01*
X98086Y207741D01*
X98127Y207725D01*
X98165Y207702D01*
X98316Y207645D01*
X99745Y207212D01*
X99789Y207204D01*
X99830Y207189D01*
X99989Y207163D01*
X101476Y207017D01*
X101520Y207018D01*
X101564Y207011D01*
X101724Y207017D01*
G37*
G36*
X304924Y207017D02*
X304924Y207017D01*
X306411Y207163D01*
X306454Y207173D01*
X306498Y207175D01*
X306655Y207212D01*
X308085Y207645D01*
X308125Y207663D01*
X308168Y207674D01*
X308314Y207741D01*
X309632Y208445D01*
X309668Y208470D01*
X309708Y208489D01*
X309839Y208583D01*
X310993Y209531D01*
X311024Y209563D01*
X311059Y209589D01*
X311169Y209707D01*
X312117Y210861D01*
X312141Y210899D01*
X312170Y210931D01*
X312255Y211068D01*
X312959Y212386D01*
X312975Y212427D01*
X312998Y212465D01*
X313055Y212616D01*
X313488Y214045D01*
X313496Y214089D01*
X313511Y214130D01*
X313537Y214289D01*
X313683Y215776D01*
X313683Y215795D01*
X313683Y215796D01*
X313686Y215815D01*
X313685Y215834D01*
X313689Y215900D01*
X313689Y227330D01*
X313674Y227448D01*
X313667Y227567D01*
X313654Y227605D01*
X313649Y227646D01*
X313606Y227756D01*
X313569Y227869D01*
X313547Y227904D01*
X313532Y227941D01*
X313463Y228037D01*
X313399Y228138D01*
X313369Y228166D01*
X313346Y228199D01*
X313254Y228275D01*
X313167Y228356D01*
X313132Y228376D01*
X313101Y228401D01*
X312993Y228452D01*
X312889Y228510D01*
X312849Y228520D01*
X312813Y228537D01*
X312696Y228559D01*
X312581Y228589D01*
X312521Y228593D01*
X312501Y228597D01*
X312480Y228595D01*
X312420Y228599D01*
X297180Y228599D01*
X297062Y228584D01*
X296943Y228577D01*
X296905Y228564D01*
X296864Y228559D01*
X296754Y228516D01*
X296641Y228479D01*
X296606Y228457D01*
X296569Y228442D01*
X296473Y228373D01*
X296372Y228309D01*
X296344Y228279D01*
X296311Y228256D01*
X296236Y228164D01*
X296154Y228077D01*
X296134Y228042D01*
X296109Y228011D01*
X296058Y227903D01*
X296000Y227799D01*
X295990Y227759D01*
X295973Y227723D01*
X295951Y227606D01*
X295921Y227491D01*
X295917Y227431D01*
X295913Y227411D01*
X295914Y227402D01*
X295913Y227399D01*
X295914Y227385D01*
X295911Y227330D01*
X295911Y215900D01*
X295913Y215880D01*
X295917Y215776D01*
X296063Y214289D01*
X296073Y214246D01*
X296075Y214202D01*
X296112Y214045D01*
X296545Y212616D01*
X296563Y212575D01*
X296574Y212532D01*
X296641Y212386D01*
X297345Y211068D01*
X297370Y211032D01*
X297389Y210992D01*
X297483Y210861D01*
X298431Y209707D01*
X298463Y209676D01*
X298489Y209641D01*
X298607Y209531D01*
X299761Y208583D01*
X299799Y208559D01*
X299831Y208530D01*
X299968Y208445D01*
X301286Y207741D01*
X301327Y207725D01*
X301365Y207702D01*
X301516Y207645D01*
X302945Y207212D01*
X302989Y207204D01*
X303030Y207189D01*
X303189Y207163D01*
X304676Y207017D01*
X304720Y207018D01*
X304764Y207011D01*
X304924Y207017D01*
G37*
D10*
X268220Y91820D03*
X280920Y91820D03*
X293620Y91820D03*
X306320Y91820D03*
X306320Y147320D03*
X293620Y147320D03*
X280920Y147320D03*
X268220Y147320D03*
D11*
X287270Y119570D03*
D12*
X239460Y153323D03*
X239460Y106333D03*
D13*
X188754Y158086D03*
X188754Y102586D03*
D14*
X100000Y163474D03*
X100000Y173126D03*
D15*
X64826Y133030D03*
X55174Y133030D03*
X71826Y179300D03*
X62174Y179300D03*
D16*
X110000Y173793D03*
X110000Y158807D03*
D15*
X32964Y101140D03*
X42616Y101140D03*
X32964Y119810D03*
X42616Y119810D03*
D17*
X32500Y173300D03*
X32500Y153300D03*
D18*
X75380Y160300D03*
X75380Y165300D03*
X75380Y170300D03*
X58620Y170300D03*
X58620Y165300D03*
X58620Y160300D03*
D15*
X55174Y150300D03*
X64826Y150300D03*
X71174Y150300D03*
X80826Y150300D03*
D14*
X84000Y163474D03*
X84000Y173126D03*
X92000Y163474D03*
X92000Y173126D03*
D15*
X32964Y110410D03*
X42616Y110410D03*
D19*
X283763Y50570D03*
X268777Y50570D03*
D20*
X291970Y165570D03*
X282570Y165570D03*
D21*
X316460Y108270D03*
X316460Y98870D03*
D20*
X264970Y72570D03*
X255570Y72570D03*
X296970Y183570D03*
X287570Y183570D03*
D22*
X288970Y175570D03*
X279570Y175570D03*
X304970Y175570D03*
X295570Y175570D03*
X314970Y165570D03*
X305570Y165570D03*
D15*
X271444Y62570D03*
X281096Y62570D03*
X271444Y72570D03*
X281096Y72570D03*
X212096Y86570D03*
X202444Y86570D03*
X212096Y78570D03*
X202444Y78570D03*
X55174Y142300D03*
X64826Y142300D03*
D23*
X54000Y121430D03*
X70500Y121430D03*
X202270Y67078D03*
X218770Y67078D03*
D24*
X53500Y102160D03*
X80500Y102160D03*
X202770Y49610D03*
X229770Y49610D03*
D25*
X54300Y65000D03*
X54300Y74525D03*
X54300Y55475D03*
X79700Y65000D03*
X79700Y55475D03*
X79700Y74525D03*
D20*
X79700Y45000D03*
X70300Y45000D03*
D26*
X53950Y45000D03*
X60050Y45000D03*
D27*
X94000Y61050D03*
X94000Y54950D03*
D26*
X93950Y75000D03*
X100050Y75000D03*
D28*
X94050Y68000D03*
X99950Y68000D03*
D29*
X50800Y12700D03*
D30*
X50800Y0D03*
D29*
X76200Y12700D03*
D30*
X76200Y0D03*
D29*
X101600Y12700D03*
D30*
X101600Y0D03*
D29*
X127000Y12700D03*
D30*
X127000Y0D03*
D29*
X152400Y12700D03*
D30*
X152400Y0D03*
D29*
X177800Y12700D03*
D30*
X177800Y0D03*
D29*
X203200Y12700D03*
D30*
X203200Y0D03*
D29*
X228600Y12700D03*
D30*
X228600Y0D03*
D29*
X254000Y12700D03*
D30*
X254000Y0D03*
D29*
X279400Y12700D03*
D30*
X279400Y0D03*
D29*
X304800Y12700D03*
D30*
X304800Y0D03*
D29*
X330200Y12700D03*
D30*
X330200Y0D03*
D29*
X330200Y215900D03*
D30*
X330200Y228600D03*
D29*
X304800Y215900D03*
D30*
X304800Y228600D03*
D29*
X279400Y215900D03*
D30*
X279400Y228600D03*
D29*
X254000Y215900D03*
D30*
X254000Y228600D03*
D29*
X228600Y215900D03*
D30*
X228600Y228600D03*
D29*
X203200Y215900D03*
D30*
X203200Y228600D03*
D29*
X177800Y215900D03*
D30*
X177800Y228600D03*
D29*
X152400Y215900D03*
D30*
X152400Y228600D03*
D29*
X127000Y215900D03*
D30*
X127000Y228600D03*
D29*
X101600Y215900D03*
D30*
X101600Y228600D03*
D29*
X76200Y215900D03*
D30*
X76200Y228600D03*
D29*
X50800Y215900D03*
D30*
X50800Y228600D03*
D29*
X25400Y215900D03*
D30*
X25400Y228600D03*
D22*
X298070Y72390D03*
X288670Y72390D03*
D15*
X298450Y62992D03*
X288798Y62992D03*
X165100Y74422D03*
X174752Y74422D03*
D31*
X271444Y63586D02*
X271444Y62570D01*
X92000Y163474D02*
X91492Y163474D01*
X278054Y122050D02*
X280534Y119570D01*
X283270Y119570D01*
X218770Y67570D02*
X218770Y67078D01*
X218770Y67570D02*
X218770Y69500D01*
D32*
X84000Y163474D02*
X83746Y163220D01*
X91492Y162966D02*
X92000Y163474D01*
D33*
X229770Y49610D02*
X229770Y45546D01*
D34*
X271444Y61380D02*
X271444Y62570D01*
X110889Y157918D02*
X110000Y158807D01*
D35*
X109492Y158299D01*
D34*
X212096Y78570D02*
X212350Y78316D01*
D35*
X286508Y118808D02*
X287270Y119570D01*
D36*
X283270Y119570D01*
X277618Y119570D01*
D37*
X298570Y108270D02*
X316460Y108270D01*
X298570Y108270D02*
X287270Y119570D01*
X301970Y119570D01*
X280920Y147320D02*
X280920Y163920D01*
X282570Y165570D01*
X229700Y37000D02*
X254000Y12700D01*
X237984Y104857D02*
X239460Y106333D01*
X237984Y104857D02*
X219697Y86570D01*
X212096Y86570D01*
X212350Y86316D01*
X212350Y78316D01*
X212096Y78570D02*
X218770Y71896D01*
X218770Y67570D01*
X218770Y67078D02*
X229770Y56078D01*
X229770Y49610D01*
X267817Y49610D01*
X271444Y53237D02*
X271444Y63586D01*
X271444Y62570D02*
X271444Y72570D01*
X280826Y147226D02*
X280920Y147320D01*
X280826Y147226D02*
X280826Y130163D01*
X278270Y132719D01*
X278270Y128570D01*
X287270Y119570D01*
X274270Y106570D01*
X227270Y106570D01*
X228984Y104857D01*
X237984Y104857D01*
X70300Y45000D02*
X66000Y45000D01*
X60050Y45000D01*
X64000Y65000D02*
X54300Y65000D01*
X64000Y65000D02*
X66000Y63000D01*
X66000Y45000D01*
X64000Y65000D02*
X67000Y68000D01*
X67000Y81000D01*
X99950Y84050D02*
X99950Y68000D01*
X85000Y163474D02*
X84000Y163474D01*
X85000Y163474D02*
X100000Y163474D01*
X104667Y158807D02*
X110000Y158807D01*
X104667Y158807D02*
X100000Y163474D01*
X84000Y163474D02*
X84000Y153474D01*
X80826Y150300D01*
X83174Y165300D02*
X75380Y165300D01*
X83174Y165300D02*
X85000Y163474D01*
X80826Y150300D02*
X80826Y140126D01*
X73730Y133030D02*
X64826Y133030D01*
X73730Y133030D02*
X80826Y140126D01*
D31*
X314970Y128270D02*
X314970Y165570D01*
X306270Y119570D02*
X287270Y119570D01*
X306270Y119570D02*
X314970Y128270D01*
X110000Y149300D02*
X110000Y158807D01*
D38*
X110000Y149300D03*
X99000Y149300D03*
X88000Y149300D03*
X77000Y135300D03*
X84620Y127840D03*
X84620Y115840D03*
X96240Y114000D03*
X95000Y102000D03*
X95000Y92000D03*
X108000Y82000D03*
X108000Y71000D03*
X241000Y44000D03*
X241000Y56000D03*
X241000Y68000D03*
X232000Y76000D03*
X232000Y87000D03*
X243000Y87000D03*
X242760Y77810D03*
X258000Y64000D03*
X249110Y52000D03*
X259380Y52000D03*
X285000Y129840D03*
X285000Y111840D03*
X274000Y111840D03*
X274000Y120840D03*
X274000Y129840D03*
X299270Y129840D03*
X299270Y120840D03*
X299270Y111840D03*
X234810Y126840D03*
X244524Y126840D03*
X264000Y129840D03*
X264000Y120840D03*
X264000Y111840D03*
X220000Y98000D03*
X220000Y89000D03*
X285000Y120840D03*
X257730Y177110D03*
X245730Y177110D03*
X231730Y177110D03*
X217730Y177110D03*
X203730Y177110D03*
X189230Y177110D03*
X177730Y177110D03*
X165230Y177110D03*
X155580Y176880D03*
X146000Y174000D03*
X146000Y161000D03*
X146000Y147000D03*
X146000Y136000D03*
X146000Y124000D03*
X146000Y108000D03*
X162000Y83000D03*
X153000Y85000D03*
X143540Y191650D03*
X245000Y191110D03*
X232000Y191110D03*
X193000Y191110D03*
X166000Y191110D03*
X132000Y165000D03*
X132000Y151000D03*
X132000Y137000D03*
X132000Y122000D03*
X132000Y106000D03*
X132000Y177000D03*
X133000Y190000D03*
X258500Y191110D03*
X219000Y191110D03*
X206500Y191110D03*
X181000Y191110D03*
X154000Y191110D03*
D31*
X101600Y215900D02*
X101600Y217628D01*
X127000Y217628D02*
X127000Y215900D01*
D38*
X24930Y119650D03*
X24930Y109490D03*
X24930Y99330D03*
D39*
X258500Y191110D02*
X261620Y194230D01*
X261620Y195580D01*
D36*
X339790Y195580D01*
X339790Y35560D01*
D38*
X328122Y50604D03*
X329750Y134920D03*
X329750Y124760D03*
X329750Y114600D03*
D36*
X29210Y33528D02*
X9906Y33528D01*
X9906Y194818D02*
X124818Y194818D01*
X9906Y194818D02*
X9906Y33528D01*
X108000Y71000D02*
X118364Y60636D01*
X118364Y33528D02*
X118110Y33274D01*
X118364Y33528D02*
X118364Y60636D01*
X118364Y33528D02*
X134366Y33528D01*
X118364Y33528D02*
X111506Y33528D01*
D38*
X118414Y49234D03*
D36*
X328122Y50604D02*
X334514Y50604D01*
X334710Y50800D01*
D35*
X306070Y62992D02*
X298450Y62992D01*
D38*
X306070Y62992D03*
D37*
X58620Y153746D02*
X58620Y160300D01*
X58620Y153746D02*
X55174Y150300D01*
X55174Y142300D01*
X55174Y150300D02*
X35500Y150300D01*
X32500Y153300D01*
X55174Y150300D02*
X55555Y149919D01*
X53500Y75325D02*
X54300Y74525D01*
X38620Y24880D02*
X50800Y12700D01*
X38620Y24880D02*
X38620Y72620D01*
X279570Y175570D02*
X279570Y176570D01*
X272570Y177270D02*
X272270Y177570D01*
D38*
X272270Y177570D03*
X193400Y87990D03*
D37*
X193400Y86840D02*
X197270Y82970D01*
X193400Y86840D02*
X193400Y87990D01*
X197270Y82970D02*
X197270Y104570D01*
X202444Y99396D01*
X202444Y78570D01*
X192500Y28000D02*
X186000Y28000D01*
X177800Y19800D01*
X177800Y12700D01*
X181000Y37000D02*
X123000Y95000D01*
X123000Y173126D01*
X84000Y173126D02*
X78206Y173126D01*
X75380Y170300D01*
X84000Y173126D02*
X92000Y173126D01*
X123000Y173126D01*
X75380Y175746D02*
X71826Y179300D01*
X75380Y175746D02*
X75380Y170300D01*
D31*
X279570Y175570D02*
X287570Y183570D01*
X279570Y175570D02*
X277870Y177270D01*
X272570Y177270D01*
X293620Y147320D02*
X291654Y145354D01*
X293974Y145354D01*
D37*
X293620Y147320D02*
X293620Y163920D01*
X291970Y165570D01*
D31*
X268220Y147320D02*
X268220Y139764D01*
X188770Y158070D02*
X188754Y158086D01*
D37*
X255270Y72870D02*
X255570Y72570D01*
X255270Y72870D02*
X255270Y82380D01*
D38*
X255270Y82380D03*
X257000Y141320D03*
D37*
X239460Y153323D02*
X193517Y153323D01*
X188770Y158070D01*
D31*
X262220Y141320D02*
X268220Y147320D01*
X262220Y141320D02*
X257000Y141320D01*
X251463Y141320D01*
X239460Y153323D01*
D35*
X268220Y91820D02*
X268220Y84264D01*
D37*
X268220Y87520D02*
X268220Y91820D01*
X264970Y84270D02*
X264970Y72570D01*
X264970Y84270D02*
X268220Y87520D01*
D31*
X306374Y91874D02*
X306374Y92078D01*
X306374Y91874D02*
X306320Y91820D01*
D37*
X305970Y98870D02*
X316460Y98870D01*
X305970Y98870D02*
X305270Y99570D01*
X305270Y92870D01*
X306320Y91820D01*
X306370Y147270D02*
X306320Y147320D01*
X296970Y182570D02*
X296970Y183570D01*
D31*
X304970Y175570D01*
X305570Y174970D02*
X306320Y174220D01*
X306320Y147320D01*
X305570Y165570D02*
X305570Y174970D01*
X304970Y175570D01*
X71174Y152414D02*
X71174Y150300D01*
D37*
X75380Y156620D02*
X75380Y160300D01*
X75380Y156620D02*
X71174Y152414D01*
X71174Y150300D02*
X64826Y150300D01*
X64826Y142300D01*
X58620Y170300D02*
X54620Y174300D01*
X33500Y174300D02*
X32500Y173300D01*
X33500Y174300D02*
X54620Y174300D01*
D35*
X281096Y72570D02*
X281096Y71966D01*
X283890Y50697D02*
X283763Y50570D01*
D37*
X304800Y29533D02*
X304800Y12700D01*
X304800Y29533D02*
X283763Y50570D01*
X283763Y59903D01*
X281096Y62570D01*
X281096Y72570D01*
X281096Y91644D01*
X280920Y91820D01*
X288970Y175570D02*
X295570Y175570D01*
X79700Y55475D02*
X79700Y45000D01*
X90593Y56256D02*
X88956Y57893D01*
X90593Y56256D02*
X92694Y56256D01*
X94000Y54950D01*
X83016Y65000D02*
X79700Y65000D01*
X83016Y65000D02*
X88956Y59060D01*
X88956Y57893D01*
D31*
X54300Y55475D02*
X54300Y45350D01*
X53950Y45000D01*
X54000Y44950D01*
X54000Y39000D01*
D38*
X54000Y39000D03*
D37*
X79700Y74525D02*
X80175Y75000D01*
X93950Y75000D01*
X94000Y74950D01*
X94000Y61050D01*
X100950Y61050D01*
X104000Y58000D01*
X104000Y39000D01*
X96000Y31000D02*
X84000Y31000D01*
X76200Y23200D01*
X76200Y12700D01*
X96000Y31000D02*
X104000Y39000D01*
D31*
X76200Y12700D02*
X76200Y0D01*
D37*
X32100Y215900D02*
X25400Y215900D01*
D31*
X293620Y91820D02*
X293620Y76840D01*
X298070Y72390D01*
X327660Y106680D02*
X322580Y111760D01*
X322580Y138430D01*
X328930Y144780D01*
X328930Y184150D01*
D38*
X328930Y184150D03*
D31*
X313690Y72390D02*
X298070Y72390D01*
X313690Y72390D02*
X327660Y86360D01*
X327660Y106680D01*
D38*
X140457Y205227D03*
D31*
X138430Y203200D01*
X38100Y203200D02*
X25400Y215900D01*
X38100Y203200D02*
X138430Y203200D01*
X58620Y165300D02*
X52241Y165300D01*
D38*
X52241Y165300D03*
X54610Y182880D03*
D31*
X58594Y182880D01*
X62174Y179300D01*
M02*
