G04 EAGLE Gerber RS-274X export*
G75*
%MOMM*%
%FSLAX34Y34*%
%LPD*%
%INBottom Copper*%
%IPPOS*%
%AMOC8*
5,1,8,0,0,1.08239X$1,22.5*%
G01*
%ADD10C,1.778000*%
%ADD11C,1.143000*%
%ADD12R,1.370000X2.330000*%
%ADD13C,0.756400*%
%ADD14C,1.500000*%
%ADD15C,1.000000*%
%ADD16C,0.508000*%
%ADD17C,0.254000*%
%ADD18C,0.152400*%

G36*
X60502Y26790D02*
X60502Y26790D01*
X60574Y26792D01*
X60622Y26810D01*
X60674Y26819D01*
X60737Y26852D01*
X60805Y26877D01*
X60845Y26909D01*
X60891Y26934D01*
X60941Y26986D01*
X60997Y27030D01*
X61025Y27074D01*
X61061Y27112D01*
X61091Y27177D01*
X61130Y27237D01*
X61142Y27288D01*
X61164Y27335D01*
X61172Y27406D01*
X61190Y27476D01*
X61186Y27528D01*
X61191Y27579D01*
X61176Y27650D01*
X61170Y27721D01*
X61150Y27769D01*
X61139Y27820D01*
X61102Y27881D01*
X61074Y27947D01*
X61029Y28003D01*
X61013Y28031D01*
X60995Y28046D01*
X60969Y28078D01*
X55577Y33470D01*
X55503Y33523D01*
X55434Y33583D01*
X55404Y33595D01*
X55378Y33614D01*
X55291Y33641D01*
X55206Y33675D01*
X55165Y33679D01*
X55143Y33686D01*
X55110Y33685D01*
X55039Y33693D01*
X51802Y33693D01*
X48693Y36802D01*
X48693Y41198D01*
X51802Y44307D01*
X56198Y44307D01*
X59307Y41198D01*
X59307Y37961D01*
X59321Y37871D01*
X59329Y37780D01*
X59341Y37750D01*
X59346Y37718D01*
X59389Y37638D01*
X59425Y37554D01*
X59451Y37522D01*
X59462Y37501D01*
X59485Y37479D01*
X59530Y37423D01*
X66111Y30842D01*
X66185Y30789D01*
X66254Y30729D01*
X66284Y30717D01*
X66310Y30698D01*
X66397Y30671D01*
X66482Y30637D01*
X66523Y30633D01*
X66545Y30626D01*
X66578Y30627D01*
X66649Y30619D01*
X200334Y30619D01*
X203951Y27002D01*
X204025Y26949D01*
X204094Y26889D01*
X204124Y26877D01*
X204150Y26858D01*
X204237Y26831D01*
X204322Y26797D01*
X204363Y26793D01*
X204385Y26786D01*
X204418Y26787D01*
X204489Y26779D01*
X339028Y26779D01*
X339048Y26782D01*
X339067Y26780D01*
X339169Y26802D01*
X339271Y26819D01*
X339288Y26828D01*
X339308Y26832D01*
X339397Y26885D01*
X339488Y26934D01*
X339502Y26948D01*
X339519Y26958D01*
X339586Y27037D01*
X339658Y27112D01*
X339666Y27130D01*
X339679Y27145D01*
X339718Y27241D01*
X339761Y27335D01*
X339763Y27355D01*
X339771Y27373D01*
X339789Y27540D01*
X339789Y201460D01*
X339786Y201480D01*
X339788Y201499D01*
X339766Y201601D01*
X339750Y201703D01*
X339740Y201720D01*
X339736Y201740D01*
X339683Y201829D01*
X339634Y201920D01*
X339620Y201934D01*
X339610Y201951D01*
X339531Y202018D01*
X339456Y202090D01*
X339438Y202098D01*
X339423Y202111D01*
X339327Y202150D01*
X339233Y202193D01*
X339213Y202195D01*
X339195Y202203D01*
X339028Y202221D01*
X316649Y202221D01*
X316578Y202210D01*
X316506Y202208D01*
X316457Y202190D01*
X316406Y202182D01*
X316343Y202148D01*
X316275Y202123D01*
X316235Y202091D01*
X316189Y202066D01*
X316139Y202015D01*
X316083Y201970D01*
X316055Y201926D01*
X316019Y201888D01*
X315989Y201823D01*
X315950Y201763D01*
X315938Y201712D01*
X315916Y201665D01*
X315908Y201594D01*
X315890Y201524D01*
X315894Y201472D01*
X315889Y201421D01*
X315904Y201350D01*
X315910Y201279D01*
X315930Y201231D01*
X315941Y201180D01*
X315978Y201119D01*
X316006Y201053D01*
X316051Y200997D01*
X316067Y200969D01*
X316085Y200954D01*
X316111Y200922D01*
X327353Y189680D01*
X327427Y189627D01*
X327496Y189567D01*
X327526Y189555D01*
X327552Y189536D01*
X327639Y189509D01*
X327724Y189475D01*
X327765Y189471D01*
X327787Y189464D01*
X327820Y189465D01*
X327891Y189457D01*
X331128Y189457D01*
X334237Y186348D01*
X334237Y181952D01*
X331128Y178843D01*
X326732Y178843D01*
X323623Y181952D01*
X323623Y185189D01*
X323609Y185279D01*
X323601Y185370D01*
X323589Y185400D01*
X323584Y185432D01*
X323541Y185512D01*
X323505Y185596D01*
X323479Y185628D01*
X323468Y185649D01*
X323445Y185671D01*
X323400Y185727D01*
X310215Y198912D01*
X310141Y198965D01*
X310072Y199025D01*
X310042Y199037D01*
X310016Y199056D01*
X309929Y199083D01*
X309844Y199117D01*
X309803Y199121D01*
X309781Y199128D01*
X309748Y199127D01*
X309677Y199135D01*
X139299Y199135D01*
X138737Y199697D01*
X138663Y199750D01*
X138594Y199810D01*
X138564Y199822D01*
X138538Y199841D01*
X138451Y199868D01*
X138366Y199902D01*
X138325Y199906D01*
X138303Y199913D01*
X138270Y199912D01*
X138266Y199913D01*
X136181Y201998D01*
X136107Y202051D01*
X136037Y202111D01*
X136007Y202123D01*
X135981Y202142D01*
X135894Y202169D01*
X135809Y202203D01*
X135768Y202207D01*
X135746Y202214D01*
X135714Y202213D01*
X135642Y202221D01*
X10968Y202221D01*
X10949Y202218D01*
X10929Y202220D01*
X10828Y202198D01*
X10726Y202182D01*
X10708Y202172D01*
X10689Y202168D01*
X10600Y202115D01*
X10508Y202066D01*
X10495Y202052D01*
X10478Y202042D01*
X10410Y201963D01*
X10339Y201888D01*
X10331Y201870D01*
X10318Y201855D01*
X10279Y201759D01*
X10235Y201665D01*
X10233Y201645D01*
X10226Y201627D01*
X10207Y201460D01*
X10172Y27540D01*
X10175Y27520D01*
X10173Y27501D01*
X10195Y27399D01*
X10212Y27297D01*
X10221Y27280D01*
X10225Y27260D01*
X10278Y27171D01*
X10327Y27080D01*
X10341Y27066D01*
X10351Y27049D01*
X10430Y26982D01*
X10505Y26911D01*
X10523Y26902D01*
X10538Y26889D01*
X10634Y26850D01*
X10728Y26807D01*
X10748Y26805D01*
X10766Y26797D01*
X10933Y26779D01*
X60431Y26779D01*
X60502Y26790D01*
G37*
%LPC*%
G36*
X191202Y82683D02*
X191202Y82683D01*
X188093Y85792D01*
X188093Y88311D01*
X188079Y88401D01*
X188071Y88492D01*
X188059Y88521D01*
X188054Y88553D01*
X188011Y88634D01*
X187975Y88718D01*
X187949Y88750D01*
X187938Y88771D01*
X187915Y88793D01*
X187870Y88849D01*
X187245Y89474D01*
X187171Y89528D01*
X187102Y89587D01*
X187071Y89599D01*
X187045Y89618D01*
X186958Y89645D01*
X186873Y89679D01*
X186832Y89683D01*
X186810Y89690D01*
X186778Y89689D01*
X186707Y89697D01*
X147632Y89697D01*
X145474Y91855D01*
X137855Y99474D01*
X135697Y101632D01*
X135697Y178428D01*
X144682Y187413D01*
X267098Y187413D01*
X269256Y185255D01*
X271411Y183100D01*
X271485Y183047D01*
X271554Y182987D01*
X271585Y182975D01*
X271611Y182956D01*
X271698Y182929D01*
X271783Y182895D01*
X271824Y182891D01*
X271846Y182884D01*
X271878Y182885D01*
X271949Y182877D01*
X274468Y182877D01*
X277577Y179768D01*
X277577Y175372D01*
X274468Y172263D01*
X270072Y172263D01*
X266963Y175372D01*
X266963Y177891D01*
X266949Y177981D01*
X266941Y178072D01*
X266929Y178101D01*
X266924Y178133D01*
X266881Y178214D01*
X266845Y178298D01*
X266819Y178330D01*
X266808Y178351D01*
X266785Y178373D01*
X266740Y178429D01*
X264585Y180584D01*
X264511Y180637D01*
X264442Y180697D01*
X264411Y180709D01*
X264385Y180728D01*
X264298Y180755D01*
X264213Y180789D01*
X264172Y180793D01*
X264150Y180800D01*
X264118Y180799D01*
X264047Y180807D01*
X147733Y180807D01*
X147643Y180793D01*
X147552Y180785D01*
X147523Y180773D01*
X147491Y180768D01*
X147410Y180725D01*
X147326Y180689D01*
X147294Y180663D01*
X147273Y180652D01*
X147251Y180629D01*
X147195Y180584D01*
X142526Y175915D01*
X142473Y175841D01*
X142413Y175772D01*
X142401Y175741D01*
X142382Y175715D01*
X142355Y175628D01*
X142321Y175543D01*
X142317Y175502D01*
X142310Y175480D01*
X142311Y175448D01*
X142303Y175377D01*
X142303Y104683D01*
X142317Y104593D01*
X142325Y104502D01*
X142337Y104473D01*
X142342Y104441D01*
X142385Y104360D01*
X142421Y104276D01*
X142447Y104244D01*
X142458Y104223D01*
X142481Y104201D01*
X142526Y104145D01*
X150145Y96526D01*
X150219Y96473D01*
X150288Y96413D01*
X150319Y96401D01*
X150345Y96382D01*
X150432Y96355D01*
X150517Y96321D01*
X150558Y96317D01*
X150580Y96310D01*
X150612Y96311D01*
X150683Y96303D01*
X189758Y96303D01*
X191915Y94145D01*
X191916Y94145D01*
X192541Y93520D01*
X192615Y93466D01*
X192684Y93407D01*
X192715Y93395D01*
X192741Y93376D01*
X192828Y93349D01*
X192913Y93315D01*
X192954Y93311D01*
X192976Y93304D01*
X193008Y93305D01*
X193079Y93297D01*
X195598Y93297D01*
X198707Y90188D01*
X198707Y85792D01*
X195598Y82683D01*
X191202Y82683D01*
G37*
%LPD*%
%LPC*%
G36*
X253072Y77073D02*
X253072Y77073D01*
X249963Y80182D01*
X249963Y82701D01*
X249949Y82791D01*
X249941Y82882D01*
X249929Y82911D01*
X249924Y82943D01*
X249881Y83024D01*
X249845Y83108D01*
X249819Y83140D01*
X249808Y83161D01*
X249785Y83183D01*
X249740Y83239D01*
X249303Y83676D01*
X249303Y138294D01*
X251470Y140461D01*
X251517Y140526D01*
X251528Y140538D01*
X251531Y140544D01*
X251583Y140604D01*
X251595Y140635D01*
X251614Y140661D01*
X251641Y140748D01*
X251675Y140833D01*
X251679Y140874D01*
X251686Y140896D01*
X251685Y140928D01*
X251693Y140999D01*
X251693Y143518D01*
X254802Y146627D01*
X259198Y146627D01*
X262307Y143518D01*
X262307Y139122D01*
X259198Y136013D01*
X256679Y136013D01*
X256589Y135999D01*
X256498Y135991D01*
X256469Y135979D01*
X256437Y135974D01*
X256396Y135952D01*
X256390Y135951D01*
X256366Y135936D01*
X256356Y135931D01*
X256272Y135895D01*
X256240Y135869D01*
X256219Y135858D01*
X256197Y135835D01*
X256179Y135824D01*
X256169Y135813D01*
X256141Y135790D01*
X256132Y135781D01*
X256088Y135721D01*
X256050Y135680D01*
X256043Y135666D01*
X256019Y135638D01*
X256007Y135607D01*
X255988Y135581D01*
X255961Y135494D01*
X255948Y135460D01*
X255946Y135457D01*
X255946Y135456D01*
X255927Y135409D01*
X255923Y135368D01*
X255916Y135346D01*
X255917Y135314D01*
X255909Y135243D01*
X255909Y88448D01*
X255912Y88428D01*
X255910Y88409D01*
X255932Y88307D01*
X255948Y88205D01*
X255958Y88188D01*
X255962Y88168D01*
X256015Y88079D01*
X256064Y87988D01*
X256078Y87974D01*
X256088Y87957D01*
X256167Y87890D01*
X256242Y87818D01*
X256260Y87810D01*
X256275Y87797D01*
X256371Y87758D01*
X256465Y87715D01*
X256485Y87713D01*
X256503Y87705D01*
X256670Y87687D01*
X257468Y87687D01*
X260577Y84578D01*
X260577Y80182D01*
X257468Y77073D01*
X253072Y77073D01*
G37*
%LPD*%
G36*
X160138Y16D02*
X160138Y16D01*
X160257Y23D01*
X160295Y36D01*
X160336Y41D01*
X160446Y84D01*
X160559Y121D01*
X160594Y143D01*
X160631Y158D01*
X160727Y228D01*
X160828Y291D01*
X160856Y321D01*
X160889Y344D01*
X160965Y436D01*
X161046Y523D01*
X161066Y558D01*
X161091Y589D01*
X161142Y697D01*
X161200Y801D01*
X161210Y841D01*
X161227Y877D01*
X161249Y994D01*
X161279Y1109D01*
X161283Y1170D01*
X161287Y1190D01*
X161285Y1210D01*
X161289Y1270D01*
X161289Y12700D01*
X161287Y12720D01*
X161283Y12824D01*
X161137Y14311D01*
X161127Y14354D01*
X161125Y14398D01*
X161088Y14555D01*
X160655Y15985D01*
X160637Y16025D01*
X160626Y16068D01*
X160559Y16214D01*
X159855Y17532D01*
X159830Y17568D01*
X159811Y17608D01*
X159717Y17739D01*
X158769Y18893D01*
X158737Y18924D01*
X158711Y18959D01*
X158593Y19069D01*
X157439Y20017D01*
X157401Y20041D01*
X157369Y20070D01*
X157232Y20155D01*
X155914Y20859D01*
X155873Y20875D01*
X155835Y20898D01*
X155685Y20955D01*
X154255Y21388D01*
X154211Y21396D01*
X154170Y21411D01*
X154011Y21437D01*
X152524Y21583D01*
X152480Y21582D01*
X152437Y21589D01*
X152276Y21583D01*
X150789Y21437D01*
X150746Y21427D01*
X150702Y21425D01*
X150545Y21388D01*
X149116Y20955D01*
X149075Y20937D01*
X149032Y20926D01*
X148886Y20859D01*
X147568Y20155D01*
X147565Y20153D01*
X147562Y20152D01*
X147531Y20129D01*
X147492Y20111D01*
X147361Y20017D01*
X146207Y19069D01*
X146176Y19037D01*
X146141Y19011D01*
X146031Y18893D01*
X145083Y17739D01*
X145059Y17701D01*
X145030Y17669D01*
X144945Y17532D01*
X144241Y16214D01*
X144225Y16173D01*
X144202Y16135D01*
X144145Y15985D01*
X143712Y14555D01*
X143704Y14511D01*
X143689Y14470D01*
X143663Y14311D01*
X143517Y12824D01*
X143517Y12805D01*
X143517Y12790D01*
X143513Y12774D01*
X143514Y12757D01*
X143511Y12700D01*
X143511Y1270D01*
X143526Y1152D01*
X143533Y1033D01*
X143546Y995D01*
X143551Y954D01*
X143594Y844D01*
X143631Y731D01*
X143653Y696D01*
X143668Y659D01*
X143738Y563D01*
X143801Y462D01*
X143831Y434D01*
X143854Y401D01*
X143946Y326D01*
X144033Y244D01*
X144068Y224D01*
X144099Y199D01*
X144207Y148D01*
X144311Y90D01*
X144351Y80D01*
X144387Y63D01*
X144504Y41D01*
X144619Y11D01*
X144680Y7D01*
X144700Y3D01*
X144720Y5D01*
X144780Y1D01*
X160020Y1D01*
X160138Y16D01*
G37*
G36*
X58538Y16D02*
X58538Y16D01*
X58657Y23D01*
X58695Y36D01*
X58736Y41D01*
X58846Y84D01*
X58959Y121D01*
X58994Y143D01*
X59031Y158D01*
X59127Y228D01*
X59228Y291D01*
X59256Y321D01*
X59289Y344D01*
X59365Y436D01*
X59446Y523D01*
X59466Y558D01*
X59491Y589D01*
X59542Y697D01*
X59600Y801D01*
X59610Y841D01*
X59627Y877D01*
X59649Y994D01*
X59679Y1109D01*
X59683Y1170D01*
X59687Y1190D01*
X59685Y1210D01*
X59689Y1270D01*
X59689Y12700D01*
X59687Y12720D01*
X59683Y12824D01*
X59537Y14311D01*
X59527Y14354D01*
X59525Y14398D01*
X59488Y14555D01*
X59055Y15985D01*
X59037Y16025D01*
X59026Y16068D01*
X58959Y16214D01*
X58255Y17532D01*
X58230Y17568D01*
X58211Y17608D01*
X58117Y17739D01*
X57169Y18893D01*
X57137Y18924D01*
X57111Y18959D01*
X56993Y19069D01*
X55839Y20017D01*
X55801Y20041D01*
X55769Y20070D01*
X55632Y20155D01*
X54314Y20859D01*
X54273Y20875D01*
X54235Y20898D01*
X54085Y20955D01*
X52655Y21388D01*
X52611Y21396D01*
X52570Y21411D01*
X52411Y21437D01*
X50924Y21583D01*
X50880Y21582D01*
X50837Y21589D01*
X50676Y21583D01*
X49189Y21437D01*
X49146Y21427D01*
X49102Y21425D01*
X48945Y21388D01*
X47516Y20955D01*
X47475Y20937D01*
X47432Y20926D01*
X47286Y20859D01*
X45968Y20155D01*
X45965Y20153D01*
X45962Y20152D01*
X45931Y20129D01*
X45892Y20111D01*
X45761Y20017D01*
X44607Y19069D01*
X44576Y19037D01*
X44541Y19011D01*
X44431Y18893D01*
X43483Y17739D01*
X43459Y17701D01*
X43430Y17669D01*
X43345Y17532D01*
X42641Y16214D01*
X42625Y16173D01*
X42602Y16135D01*
X42545Y15985D01*
X42112Y14555D01*
X42104Y14511D01*
X42089Y14470D01*
X42063Y14311D01*
X41917Y12824D01*
X41917Y12805D01*
X41917Y12790D01*
X41913Y12774D01*
X41914Y12757D01*
X41911Y12700D01*
X41911Y1270D01*
X41926Y1152D01*
X41933Y1033D01*
X41946Y995D01*
X41951Y954D01*
X41994Y844D01*
X42031Y731D01*
X42053Y696D01*
X42068Y659D01*
X42138Y563D01*
X42201Y462D01*
X42231Y434D01*
X42254Y401D01*
X42346Y326D01*
X42433Y244D01*
X42468Y224D01*
X42499Y199D01*
X42607Y148D01*
X42711Y90D01*
X42751Y80D01*
X42787Y63D01*
X42904Y41D01*
X43019Y11D01*
X43080Y7D01*
X43100Y3D01*
X43120Y5D01*
X43180Y1D01*
X58420Y1D01*
X58538Y16D01*
G37*
G36*
X83938Y16D02*
X83938Y16D01*
X84057Y23D01*
X84095Y36D01*
X84136Y41D01*
X84246Y84D01*
X84359Y121D01*
X84394Y143D01*
X84431Y158D01*
X84527Y228D01*
X84628Y291D01*
X84656Y321D01*
X84689Y344D01*
X84765Y436D01*
X84846Y523D01*
X84866Y558D01*
X84891Y589D01*
X84942Y697D01*
X85000Y801D01*
X85010Y841D01*
X85027Y877D01*
X85049Y994D01*
X85079Y1109D01*
X85083Y1170D01*
X85087Y1190D01*
X85085Y1210D01*
X85089Y1270D01*
X85089Y12700D01*
X85087Y12720D01*
X85083Y12824D01*
X84937Y14311D01*
X84927Y14354D01*
X84925Y14398D01*
X84888Y14555D01*
X84455Y15985D01*
X84437Y16025D01*
X84426Y16068D01*
X84359Y16214D01*
X83655Y17532D01*
X83630Y17568D01*
X83611Y17608D01*
X83517Y17739D01*
X82569Y18893D01*
X82537Y18924D01*
X82511Y18959D01*
X82393Y19069D01*
X81239Y20017D01*
X81201Y20041D01*
X81169Y20070D01*
X81032Y20155D01*
X79714Y20859D01*
X79673Y20875D01*
X79635Y20898D01*
X79485Y20955D01*
X78055Y21388D01*
X78011Y21396D01*
X77970Y21411D01*
X77811Y21437D01*
X76324Y21583D01*
X76280Y21582D01*
X76237Y21589D01*
X76076Y21583D01*
X74589Y21437D01*
X74546Y21427D01*
X74502Y21425D01*
X74345Y21388D01*
X72916Y20955D01*
X72875Y20937D01*
X72832Y20926D01*
X72686Y20859D01*
X71368Y20155D01*
X71365Y20153D01*
X71362Y20152D01*
X71331Y20129D01*
X71292Y20111D01*
X71161Y20017D01*
X70007Y19069D01*
X69976Y19037D01*
X69941Y19011D01*
X69831Y18893D01*
X68883Y17739D01*
X68859Y17701D01*
X68830Y17669D01*
X68745Y17532D01*
X68041Y16214D01*
X68025Y16173D01*
X68002Y16135D01*
X67945Y15985D01*
X67512Y14555D01*
X67504Y14511D01*
X67489Y14470D01*
X67463Y14311D01*
X67317Y12824D01*
X67317Y12805D01*
X67317Y12790D01*
X67313Y12774D01*
X67314Y12757D01*
X67311Y12700D01*
X67311Y1270D01*
X67326Y1152D01*
X67333Y1033D01*
X67346Y995D01*
X67351Y954D01*
X67394Y844D01*
X67431Y731D01*
X67453Y696D01*
X67468Y659D01*
X67538Y563D01*
X67601Y462D01*
X67631Y434D01*
X67654Y401D01*
X67746Y326D01*
X67833Y244D01*
X67868Y224D01*
X67899Y199D01*
X68007Y148D01*
X68111Y90D01*
X68151Y80D01*
X68187Y63D01*
X68304Y41D01*
X68419Y11D01*
X68480Y7D01*
X68500Y3D01*
X68520Y5D01*
X68580Y1D01*
X83820Y1D01*
X83938Y16D01*
G37*
G36*
X210938Y16D02*
X210938Y16D01*
X211057Y23D01*
X211095Y36D01*
X211136Y41D01*
X211246Y84D01*
X211359Y121D01*
X211394Y143D01*
X211431Y158D01*
X211527Y228D01*
X211628Y291D01*
X211656Y321D01*
X211689Y344D01*
X211765Y436D01*
X211846Y523D01*
X211866Y558D01*
X211891Y589D01*
X211942Y697D01*
X212000Y801D01*
X212010Y841D01*
X212027Y877D01*
X212049Y994D01*
X212079Y1109D01*
X212083Y1170D01*
X212087Y1190D01*
X212085Y1210D01*
X212089Y1270D01*
X212089Y12700D01*
X212087Y12720D01*
X212083Y12824D01*
X211937Y14311D01*
X211927Y14354D01*
X211925Y14398D01*
X211888Y14555D01*
X211455Y15985D01*
X211437Y16025D01*
X211426Y16068D01*
X211359Y16214D01*
X210655Y17532D01*
X210630Y17568D01*
X210611Y17608D01*
X210517Y17739D01*
X209569Y18893D01*
X209537Y18924D01*
X209511Y18959D01*
X209393Y19069D01*
X208239Y20017D01*
X208201Y20041D01*
X208169Y20070D01*
X208032Y20155D01*
X206714Y20859D01*
X206673Y20875D01*
X206635Y20898D01*
X206485Y20955D01*
X205055Y21388D01*
X205011Y21396D01*
X204970Y21411D01*
X204811Y21437D01*
X203324Y21583D01*
X203280Y21582D01*
X203237Y21589D01*
X203076Y21583D01*
X201589Y21437D01*
X201546Y21427D01*
X201502Y21425D01*
X201345Y21388D01*
X199916Y20955D01*
X199875Y20937D01*
X199832Y20926D01*
X199686Y20859D01*
X198368Y20155D01*
X198365Y20153D01*
X198362Y20152D01*
X198331Y20129D01*
X198292Y20111D01*
X198161Y20017D01*
X197007Y19069D01*
X196976Y19037D01*
X196941Y19011D01*
X196831Y18893D01*
X195883Y17739D01*
X195859Y17701D01*
X195830Y17669D01*
X195745Y17532D01*
X195041Y16214D01*
X195025Y16173D01*
X195002Y16135D01*
X194945Y15985D01*
X194512Y14555D01*
X194504Y14511D01*
X194489Y14470D01*
X194463Y14311D01*
X194317Y12824D01*
X194317Y12805D01*
X194317Y12790D01*
X194313Y12774D01*
X194314Y12757D01*
X194311Y12700D01*
X194311Y1270D01*
X194326Y1152D01*
X194333Y1033D01*
X194346Y995D01*
X194351Y954D01*
X194394Y844D01*
X194431Y731D01*
X194453Y696D01*
X194468Y659D01*
X194538Y563D01*
X194601Y462D01*
X194631Y434D01*
X194654Y401D01*
X194746Y326D01*
X194833Y244D01*
X194868Y224D01*
X194899Y199D01*
X195007Y148D01*
X195111Y90D01*
X195151Y80D01*
X195187Y63D01*
X195304Y41D01*
X195419Y11D01*
X195480Y7D01*
X195500Y3D01*
X195520Y5D01*
X195580Y1D01*
X210820Y1D01*
X210938Y16D01*
G37*
G36*
X287138Y16D02*
X287138Y16D01*
X287257Y23D01*
X287295Y36D01*
X287336Y41D01*
X287446Y84D01*
X287559Y121D01*
X287594Y143D01*
X287631Y158D01*
X287727Y228D01*
X287828Y291D01*
X287856Y321D01*
X287889Y344D01*
X287965Y436D01*
X288046Y523D01*
X288066Y558D01*
X288091Y589D01*
X288142Y697D01*
X288200Y801D01*
X288210Y841D01*
X288227Y877D01*
X288249Y994D01*
X288279Y1109D01*
X288283Y1170D01*
X288287Y1190D01*
X288285Y1210D01*
X288289Y1270D01*
X288289Y12700D01*
X288287Y12720D01*
X288283Y12824D01*
X288137Y14311D01*
X288127Y14354D01*
X288125Y14398D01*
X288088Y14555D01*
X287655Y15985D01*
X287637Y16025D01*
X287626Y16068D01*
X287559Y16214D01*
X286855Y17532D01*
X286830Y17568D01*
X286811Y17608D01*
X286717Y17739D01*
X285769Y18893D01*
X285737Y18924D01*
X285711Y18959D01*
X285593Y19069D01*
X284439Y20017D01*
X284401Y20041D01*
X284369Y20070D01*
X284232Y20155D01*
X282914Y20859D01*
X282873Y20875D01*
X282835Y20898D01*
X282685Y20955D01*
X281255Y21388D01*
X281211Y21396D01*
X281170Y21411D01*
X281011Y21437D01*
X279524Y21583D01*
X279480Y21582D01*
X279437Y21589D01*
X279276Y21583D01*
X277789Y21437D01*
X277746Y21427D01*
X277702Y21425D01*
X277545Y21388D01*
X276116Y20955D01*
X276075Y20937D01*
X276032Y20926D01*
X275886Y20859D01*
X274568Y20155D01*
X274565Y20153D01*
X274562Y20152D01*
X274531Y20129D01*
X274492Y20111D01*
X274361Y20017D01*
X273207Y19069D01*
X273176Y19037D01*
X273141Y19011D01*
X273031Y18893D01*
X272083Y17739D01*
X272059Y17701D01*
X272030Y17669D01*
X271945Y17532D01*
X271241Y16214D01*
X271225Y16173D01*
X271202Y16135D01*
X271145Y15985D01*
X270712Y14555D01*
X270704Y14511D01*
X270689Y14470D01*
X270663Y14311D01*
X270517Y12824D01*
X270517Y12805D01*
X270517Y12790D01*
X270513Y12774D01*
X270514Y12757D01*
X270511Y12700D01*
X270511Y1270D01*
X270526Y1152D01*
X270533Y1033D01*
X270546Y995D01*
X270551Y954D01*
X270594Y844D01*
X270631Y731D01*
X270653Y696D01*
X270668Y659D01*
X270738Y563D01*
X270801Y462D01*
X270831Y434D01*
X270854Y401D01*
X270946Y326D01*
X271033Y244D01*
X271068Y224D01*
X271099Y199D01*
X271207Y148D01*
X271311Y90D01*
X271351Y80D01*
X271387Y63D01*
X271504Y41D01*
X271619Y11D01*
X271680Y7D01*
X271700Y3D01*
X271720Y5D01*
X271780Y1D01*
X287020Y1D01*
X287138Y16D01*
G37*
G36*
X109338Y16D02*
X109338Y16D01*
X109457Y23D01*
X109495Y36D01*
X109536Y41D01*
X109646Y84D01*
X109759Y121D01*
X109794Y143D01*
X109831Y158D01*
X109927Y228D01*
X110028Y291D01*
X110056Y321D01*
X110089Y344D01*
X110165Y436D01*
X110246Y523D01*
X110266Y558D01*
X110291Y589D01*
X110342Y697D01*
X110400Y801D01*
X110410Y841D01*
X110427Y877D01*
X110449Y994D01*
X110479Y1109D01*
X110483Y1170D01*
X110487Y1190D01*
X110485Y1210D01*
X110489Y1270D01*
X110489Y12700D01*
X110487Y12720D01*
X110483Y12824D01*
X110337Y14311D01*
X110327Y14354D01*
X110325Y14398D01*
X110288Y14555D01*
X109855Y15985D01*
X109837Y16025D01*
X109826Y16068D01*
X109759Y16214D01*
X109055Y17532D01*
X109030Y17568D01*
X109011Y17608D01*
X108917Y17739D01*
X107969Y18893D01*
X107937Y18924D01*
X107911Y18959D01*
X107793Y19069D01*
X106639Y20017D01*
X106601Y20041D01*
X106569Y20070D01*
X106432Y20155D01*
X105114Y20859D01*
X105073Y20875D01*
X105035Y20898D01*
X104885Y20955D01*
X103455Y21388D01*
X103411Y21396D01*
X103370Y21411D01*
X103211Y21437D01*
X101724Y21583D01*
X101680Y21582D01*
X101637Y21589D01*
X101476Y21583D01*
X99989Y21437D01*
X99946Y21427D01*
X99902Y21425D01*
X99745Y21388D01*
X98316Y20955D01*
X98275Y20937D01*
X98232Y20926D01*
X98086Y20859D01*
X96768Y20155D01*
X96765Y20153D01*
X96762Y20152D01*
X96731Y20129D01*
X96692Y20111D01*
X96561Y20017D01*
X95407Y19069D01*
X95376Y19037D01*
X95341Y19011D01*
X95231Y18893D01*
X94283Y17739D01*
X94259Y17701D01*
X94230Y17669D01*
X94145Y17532D01*
X93441Y16214D01*
X93425Y16173D01*
X93402Y16135D01*
X93345Y15985D01*
X92912Y14555D01*
X92904Y14511D01*
X92889Y14470D01*
X92863Y14311D01*
X92717Y12824D01*
X92717Y12805D01*
X92717Y12790D01*
X92713Y12774D01*
X92714Y12757D01*
X92711Y12700D01*
X92711Y1270D01*
X92726Y1152D01*
X92733Y1033D01*
X92746Y995D01*
X92751Y954D01*
X92794Y844D01*
X92831Y731D01*
X92853Y696D01*
X92868Y659D01*
X92938Y563D01*
X93001Y462D01*
X93031Y434D01*
X93054Y401D01*
X93146Y326D01*
X93233Y244D01*
X93268Y224D01*
X93299Y199D01*
X93407Y148D01*
X93511Y90D01*
X93551Y80D01*
X93587Y63D01*
X93704Y41D01*
X93819Y11D01*
X93880Y7D01*
X93900Y3D01*
X93920Y5D01*
X93980Y1D01*
X109220Y1D01*
X109338Y16D01*
G37*
G36*
X337938Y16D02*
X337938Y16D01*
X338057Y23D01*
X338095Y36D01*
X338136Y41D01*
X338246Y84D01*
X338359Y121D01*
X338394Y143D01*
X338431Y158D01*
X338527Y228D01*
X338628Y291D01*
X338656Y321D01*
X338689Y344D01*
X338765Y436D01*
X338846Y523D01*
X338866Y558D01*
X338891Y589D01*
X338942Y697D01*
X339000Y801D01*
X339010Y841D01*
X339027Y877D01*
X339049Y994D01*
X339079Y1109D01*
X339083Y1170D01*
X339087Y1190D01*
X339085Y1210D01*
X339089Y1270D01*
X339089Y12700D01*
X339087Y12720D01*
X339083Y12824D01*
X338937Y14311D01*
X338927Y14354D01*
X338925Y14398D01*
X338888Y14555D01*
X338455Y15985D01*
X338437Y16025D01*
X338426Y16068D01*
X338359Y16214D01*
X337655Y17532D01*
X337630Y17568D01*
X337611Y17608D01*
X337517Y17739D01*
X336569Y18893D01*
X336537Y18924D01*
X336511Y18959D01*
X336393Y19069D01*
X335239Y20017D01*
X335201Y20041D01*
X335169Y20070D01*
X335032Y20155D01*
X333714Y20859D01*
X333673Y20875D01*
X333635Y20898D01*
X333485Y20955D01*
X332055Y21388D01*
X332011Y21396D01*
X331970Y21411D01*
X331811Y21437D01*
X330324Y21583D01*
X330280Y21582D01*
X330237Y21589D01*
X330076Y21583D01*
X328589Y21437D01*
X328546Y21427D01*
X328502Y21425D01*
X328345Y21388D01*
X326916Y20955D01*
X326875Y20937D01*
X326832Y20926D01*
X326686Y20859D01*
X325368Y20155D01*
X325365Y20153D01*
X325362Y20152D01*
X325331Y20129D01*
X325292Y20111D01*
X325161Y20017D01*
X324007Y19069D01*
X323976Y19037D01*
X323941Y19011D01*
X323831Y18893D01*
X322883Y17739D01*
X322859Y17701D01*
X322830Y17669D01*
X322745Y17532D01*
X322041Y16214D01*
X322025Y16173D01*
X322002Y16135D01*
X321945Y15985D01*
X321512Y14555D01*
X321504Y14511D01*
X321489Y14470D01*
X321463Y14311D01*
X321317Y12824D01*
X321317Y12805D01*
X321317Y12790D01*
X321313Y12774D01*
X321314Y12757D01*
X321311Y12700D01*
X321311Y1270D01*
X321326Y1152D01*
X321333Y1033D01*
X321346Y995D01*
X321351Y954D01*
X321394Y844D01*
X321431Y731D01*
X321453Y696D01*
X321468Y659D01*
X321538Y563D01*
X321601Y462D01*
X321631Y434D01*
X321654Y401D01*
X321746Y326D01*
X321833Y244D01*
X321868Y224D01*
X321899Y199D01*
X322007Y148D01*
X322111Y90D01*
X322151Y80D01*
X322187Y63D01*
X322304Y41D01*
X322419Y11D01*
X322480Y7D01*
X322500Y3D01*
X322520Y5D01*
X322580Y1D01*
X337820Y1D01*
X337938Y16D01*
G37*
G36*
X312538Y16D02*
X312538Y16D01*
X312657Y23D01*
X312695Y36D01*
X312736Y41D01*
X312846Y84D01*
X312959Y121D01*
X312994Y143D01*
X313031Y158D01*
X313127Y228D01*
X313228Y291D01*
X313256Y321D01*
X313289Y344D01*
X313365Y436D01*
X313446Y523D01*
X313466Y558D01*
X313491Y589D01*
X313542Y697D01*
X313600Y801D01*
X313610Y841D01*
X313627Y877D01*
X313649Y994D01*
X313679Y1109D01*
X313683Y1170D01*
X313687Y1190D01*
X313685Y1210D01*
X313689Y1270D01*
X313689Y12700D01*
X313687Y12720D01*
X313683Y12824D01*
X313537Y14311D01*
X313527Y14354D01*
X313525Y14398D01*
X313488Y14555D01*
X313055Y15985D01*
X313037Y16025D01*
X313026Y16068D01*
X312959Y16214D01*
X312255Y17532D01*
X312230Y17568D01*
X312211Y17608D01*
X312117Y17739D01*
X311169Y18893D01*
X311137Y18924D01*
X311111Y18959D01*
X310993Y19069D01*
X309839Y20017D01*
X309801Y20041D01*
X309769Y20070D01*
X309632Y20155D01*
X308314Y20859D01*
X308273Y20875D01*
X308235Y20898D01*
X308085Y20955D01*
X306655Y21388D01*
X306611Y21396D01*
X306570Y21411D01*
X306411Y21437D01*
X304924Y21583D01*
X304880Y21582D01*
X304837Y21589D01*
X304676Y21583D01*
X303189Y21437D01*
X303146Y21427D01*
X303102Y21425D01*
X302945Y21388D01*
X301516Y20955D01*
X301475Y20937D01*
X301432Y20926D01*
X301286Y20859D01*
X299968Y20155D01*
X299965Y20153D01*
X299962Y20152D01*
X299931Y20129D01*
X299892Y20111D01*
X299761Y20017D01*
X298607Y19069D01*
X298576Y19037D01*
X298541Y19011D01*
X298431Y18893D01*
X297483Y17739D01*
X297459Y17701D01*
X297430Y17669D01*
X297345Y17532D01*
X296641Y16214D01*
X296625Y16173D01*
X296602Y16135D01*
X296545Y15985D01*
X296112Y14555D01*
X296104Y14511D01*
X296089Y14470D01*
X296063Y14311D01*
X295917Y12824D01*
X295917Y12805D01*
X295917Y12790D01*
X295913Y12774D01*
X295914Y12757D01*
X295911Y12700D01*
X295911Y1270D01*
X295926Y1152D01*
X295933Y1033D01*
X295946Y995D01*
X295951Y954D01*
X295994Y844D01*
X296031Y731D01*
X296053Y696D01*
X296068Y659D01*
X296138Y563D01*
X296201Y462D01*
X296231Y434D01*
X296254Y401D01*
X296346Y326D01*
X296433Y244D01*
X296468Y224D01*
X296499Y199D01*
X296607Y148D01*
X296711Y90D01*
X296751Y80D01*
X296787Y63D01*
X296904Y41D01*
X297019Y11D01*
X297080Y7D01*
X297100Y3D01*
X297120Y5D01*
X297180Y1D01*
X312420Y1D01*
X312538Y16D01*
G37*
G36*
X261738Y16D02*
X261738Y16D01*
X261857Y23D01*
X261895Y36D01*
X261936Y41D01*
X262046Y84D01*
X262159Y121D01*
X262194Y143D01*
X262231Y158D01*
X262327Y228D01*
X262428Y291D01*
X262456Y321D01*
X262489Y344D01*
X262565Y436D01*
X262646Y523D01*
X262666Y558D01*
X262691Y589D01*
X262742Y697D01*
X262800Y801D01*
X262810Y841D01*
X262827Y877D01*
X262849Y994D01*
X262879Y1109D01*
X262883Y1170D01*
X262887Y1190D01*
X262885Y1210D01*
X262889Y1270D01*
X262889Y12700D01*
X262887Y12720D01*
X262883Y12824D01*
X262737Y14311D01*
X262727Y14354D01*
X262725Y14398D01*
X262688Y14555D01*
X262255Y15985D01*
X262237Y16025D01*
X262226Y16068D01*
X262159Y16214D01*
X261455Y17532D01*
X261430Y17568D01*
X261411Y17608D01*
X261317Y17739D01*
X260369Y18893D01*
X260337Y18924D01*
X260311Y18959D01*
X260193Y19069D01*
X259039Y20017D01*
X259001Y20041D01*
X258969Y20070D01*
X258832Y20155D01*
X257514Y20859D01*
X257473Y20875D01*
X257435Y20898D01*
X257285Y20955D01*
X255855Y21388D01*
X255811Y21396D01*
X255770Y21411D01*
X255611Y21437D01*
X254124Y21583D01*
X254080Y21582D01*
X254037Y21589D01*
X253876Y21583D01*
X252389Y21437D01*
X252346Y21427D01*
X252302Y21425D01*
X252145Y21388D01*
X250716Y20955D01*
X250675Y20937D01*
X250632Y20926D01*
X250486Y20859D01*
X249168Y20155D01*
X249165Y20153D01*
X249162Y20152D01*
X249131Y20129D01*
X249092Y20111D01*
X248961Y20017D01*
X247807Y19069D01*
X247776Y19037D01*
X247741Y19011D01*
X247631Y18893D01*
X246683Y17739D01*
X246659Y17701D01*
X246630Y17669D01*
X246545Y17532D01*
X245841Y16214D01*
X245825Y16173D01*
X245802Y16135D01*
X245745Y15985D01*
X245312Y14555D01*
X245304Y14511D01*
X245289Y14470D01*
X245263Y14311D01*
X245117Y12824D01*
X245117Y12805D01*
X245117Y12790D01*
X245113Y12774D01*
X245114Y12757D01*
X245111Y12700D01*
X245111Y1270D01*
X245126Y1152D01*
X245133Y1033D01*
X245146Y995D01*
X245151Y954D01*
X245194Y844D01*
X245231Y731D01*
X245253Y696D01*
X245268Y659D01*
X245338Y563D01*
X245401Y462D01*
X245431Y434D01*
X245454Y401D01*
X245546Y326D01*
X245633Y244D01*
X245668Y224D01*
X245699Y199D01*
X245807Y148D01*
X245911Y90D01*
X245951Y80D01*
X245987Y63D01*
X246104Y41D01*
X246219Y11D01*
X246280Y7D01*
X246300Y3D01*
X246320Y5D01*
X246380Y1D01*
X261620Y1D01*
X261738Y16D01*
G37*
G36*
X236338Y16D02*
X236338Y16D01*
X236457Y23D01*
X236495Y36D01*
X236536Y41D01*
X236646Y84D01*
X236759Y121D01*
X236794Y143D01*
X236831Y158D01*
X236927Y228D01*
X237028Y291D01*
X237056Y321D01*
X237089Y344D01*
X237165Y436D01*
X237246Y523D01*
X237266Y558D01*
X237291Y589D01*
X237342Y697D01*
X237400Y801D01*
X237410Y841D01*
X237427Y877D01*
X237449Y994D01*
X237479Y1109D01*
X237483Y1170D01*
X237487Y1190D01*
X237485Y1210D01*
X237489Y1270D01*
X237489Y12700D01*
X237487Y12720D01*
X237483Y12824D01*
X237337Y14311D01*
X237327Y14354D01*
X237325Y14398D01*
X237288Y14555D01*
X236855Y15985D01*
X236837Y16025D01*
X236826Y16068D01*
X236759Y16214D01*
X236055Y17532D01*
X236030Y17568D01*
X236011Y17608D01*
X235917Y17739D01*
X234969Y18893D01*
X234937Y18924D01*
X234911Y18959D01*
X234793Y19069D01*
X233639Y20017D01*
X233601Y20041D01*
X233569Y20070D01*
X233432Y20155D01*
X232114Y20859D01*
X232073Y20875D01*
X232035Y20898D01*
X231885Y20955D01*
X230455Y21388D01*
X230411Y21396D01*
X230370Y21411D01*
X230211Y21437D01*
X228724Y21583D01*
X228680Y21582D01*
X228637Y21589D01*
X228476Y21583D01*
X226989Y21437D01*
X226946Y21427D01*
X226902Y21425D01*
X226745Y21388D01*
X225316Y20955D01*
X225275Y20937D01*
X225232Y20926D01*
X225086Y20859D01*
X223768Y20155D01*
X223765Y20153D01*
X223762Y20152D01*
X223731Y20129D01*
X223692Y20111D01*
X223561Y20017D01*
X222407Y19069D01*
X222376Y19037D01*
X222341Y19011D01*
X222231Y18893D01*
X221283Y17739D01*
X221259Y17701D01*
X221230Y17669D01*
X221145Y17532D01*
X220441Y16214D01*
X220425Y16173D01*
X220402Y16135D01*
X220345Y15985D01*
X219912Y14555D01*
X219904Y14511D01*
X219889Y14470D01*
X219863Y14311D01*
X219717Y12824D01*
X219717Y12805D01*
X219717Y12790D01*
X219713Y12774D01*
X219714Y12757D01*
X219711Y12700D01*
X219711Y1270D01*
X219726Y1152D01*
X219733Y1033D01*
X219746Y995D01*
X219751Y954D01*
X219794Y844D01*
X219831Y731D01*
X219853Y696D01*
X219868Y659D01*
X219938Y563D01*
X220001Y462D01*
X220031Y434D01*
X220054Y401D01*
X220146Y326D01*
X220233Y244D01*
X220268Y224D01*
X220299Y199D01*
X220407Y148D01*
X220511Y90D01*
X220551Y80D01*
X220587Y63D01*
X220704Y41D01*
X220819Y11D01*
X220880Y7D01*
X220900Y3D01*
X220920Y5D01*
X220980Y1D01*
X236220Y1D01*
X236338Y16D01*
G37*
G36*
X134738Y16D02*
X134738Y16D01*
X134857Y23D01*
X134895Y36D01*
X134936Y41D01*
X135046Y84D01*
X135159Y121D01*
X135194Y143D01*
X135231Y158D01*
X135327Y228D01*
X135428Y291D01*
X135456Y321D01*
X135489Y344D01*
X135565Y436D01*
X135646Y523D01*
X135666Y558D01*
X135691Y589D01*
X135742Y697D01*
X135800Y801D01*
X135810Y841D01*
X135827Y877D01*
X135849Y994D01*
X135879Y1109D01*
X135883Y1170D01*
X135887Y1190D01*
X135885Y1210D01*
X135889Y1270D01*
X135889Y12700D01*
X135887Y12720D01*
X135883Y12824D01*
X135737Y14311D01*
X135727Y14354D01*
X135725Y14398D01*
X135688Y14555D01*
X135255Y15985D01*
X135237Y16025D01*
X135226Y16068D01*
X135159Y16214D01*
X134455Y17532D01*
X134430Y17568D01*
X134411Y17608D01*
X134317Y17739D01*
X133369Y18893D01*
X133337Y18924D01*
X133311Y18959D01*
X133193Y19069D01*
X132039Y20017D01*
X132001Y20041D01*
X131969Y20070D01*
X131832Y20155D01*
X130514Y20859D01*
X130473Y20875D01*
X130435Y20898D01*
X130285Y20955D01*
X128855Y21388D01*
X128811Y21396D01*
X128770Y21411D01*
X128611Y21437D01*
X127124Y21583D01*
X127080Y21582D01*
X127037Y21589D01*
X126876Y21583D01*
X125389Y21437D01*
X125346Y21427D01*
X125302Y21425D01*
X125145Y21388D01*
X123716Y20955D01*
X123675Y20937D01*
X123632Y20926D01*
X123486Y20859D01*
X122168Y20155D01*
X122165Y20153D01*
X122162Y20152D01*
X122131Y20129D01*
X122092Y20111D01*
X121961Y20017D01*
X120807Y19069D01*
X120776Y19037D01*
X120741Y19011D01*
X120631Y18893D01*
X119683Y17739D01*
X119659Y17701D01*
X119630Y17669D01*
X119545Y17532D01*
X118841Y16214D01*
X118825Y16173D01*
X118802Y16135D01*
X118745Y15985D01*
X118312Y14555D01*
X118304Y14511D01*
X118289Y14470D01*
X118263Y14311D01*
X118117Y12824D01*
X118117Y12805D01*
X118117Y12790D01*
X118113Y12774D01*
X118114Y12757D01*
X118111Y12700D01*
X118111Y1270D01*
X118126Y1152D01*
X118133Y1033D01*
X118146Y995D01*
X118151Y954D01*
X118194Y844D01*
X118231Y731D01*
X118253Y696D01*
X118268Y659D01*
X118338Y563D01*
X118401Y462D01*
X118431Y434D01*
X118454Y401D01*
X118546Y326D01*
X118633Y244D01*
X118668Y224D01*
X118699Y199D01*
X118807Y148D01*
X118911Y90D01*
X118951Y80D01*
X118987Y63D01*
X119104Y41D01*
X119219Y11D01*
X119280Y7D01*
X119300Y3D01*
X119320Y5D01*
X119380Y1D01*
X134620Y1D01*
X134738Y16D01*
G37*
G36*
X185538Y16D02*
X185538Y16D01*
X185657Y23D01*
X185695Y36D01*
X185736Y41D01*
X185846Y84D01*
X185959Y121D01*
X185994Y143D01*
X186031Y158D01*
X186127Y228D01*
X186228Y291D01*
X186256Y321D01*
X186289Y344D01*
X186365Y436D01*
X186446Y523D01*
X186466Y558D01*
X186491Y589D01*
X186542Y697D01*
X186600Y801D01*
X186610Y841D01*
X186627Y877D01*
X186649Y994D01*
X186679Y1109D01*
X186683Y1170D01*
X186687Y1190D01*
X186685Y1210D01*
X186689Y1270D01*
X186689Y12700D01*
X186687Y12720D01*
X186683Y12824D01*
X186537Y14311D01*
X186527Y14354D01*
X186525Y14398D01*
X186488Y14555D01*
X186055Y15985D01*
X186037Y16025D01*
X186026Y16068D01*
X185959Y16214D01*
X185255Y17532D01*
X185230Y17568D01*
X185211Y17608D01*
X185117Y17739D01*
X184169Y18893D01*
X184137Y18924D01*
X184111Y18959D01*
X183993Y19069D01*
X182839Y20017D01*
X182801Y20041D01*
X182769Y20070D01*
X182632Y20155D01*
X181314Y20859D01*
X181273Y20875D01*
X181235Y20898D01*
X181085Y20955D01*
X179655Y21388D01*
X179611Y21396D01*
X179570Y21411D01*
X179411Y21437D01*
X177924Y21583D01*
X177880Y21582D01*
X177837Y21589D01*
X177676Y21583D01*
X176189Y21437D01*
X176146Y21427D01*
X176102Y21425D01*
X175945Y21388D01*
X174516Y20955D01*
X174475Y20937D01*
X174432Y20926D01*
X174286Y20859D01*
X172968Y20155D01*
X172965Y20153D01*
X172962Y20152D01*
X172931Y20129D01*
X172892Y20111D01*
X172761Y20017D01*
X171607Y19069D01*
X171576Y19037D01*
X171541Y19011D01*
X171431Y18893D01*
X170483Y17739D01*
X170459Y17701D01*
X170430Y17669D01*
X170345Y17532D01*
X169641Y16214D01*
X169625Y16173D01*
X169602Y16135D01*
X169545Y15985D01*
X169112Y14555D01*
X169104Y14511D01*
X169089Y14470D01*
X169063Y14311D01*
X168917Y12824D01*
X168917Y12805D01*
X168917Y12790D01*
X168913Y12774D01*
X168914Y12757D01*
X168911Y12700D01*
X168911Y1270D01*
X168926Y1152D01*
X168933Y1033D01*
X168946Y995D01*
X168951Y954D01*
X168994Y844D01*
X169031Y731D01*
X169053Y696D01*
X169068Y659D01*
X169138Y563D01*
X169201Y462D01*
X169231Y434D01*
X169254Y401D01*
X169346Y326D01*
X169433Y244D01*
X169468Y224D01*
X169499Y199D01*
X169607Y148D01*
X169711Y90D01*
X169751Y80D01*
X169787Y63D01*
X169904Y41D01*
X170019Y11D01*
X170080Y7D01*
X170100Y3D01*
X170120Y5D01*
X170180Y1D01*
X185420Y1D01*
X185538Y16D01*
G37*
G36*
X228724Y207017D02*
X228724Y207017D01*
X230211Y207163D01*
X230254Y207173D01*
X230298Y207175D01*
X230455Y207212D01*
X231885Y207645D01*
X231925Y207663D01*
X231968Y207674D01*
X232114Y207741D01*
X233432Y208445D01*
X233468Y208470D01*
X233508Y208489D01*
X233639Y208583D01*
X234793Y209531D01*
X234824Y209563D01*
X234859Y209589D01*
X234969Y209707D01*
X235917Y210861D01*
X235941Y210899D01*
X235970Y210931D01*
X236055Y211068D01*
X236759Y212386D01*
X236775Y212427D01*
X236798Y212465D01*
X236855Y212616D01*
X237288Y214045D01*
X237296Y214089D01*
X237311Y214130D01*
X237337Y214289D01*
X237483Y215776D01*
X237483Y215795D01*
X237483Y215796D01*
X237486Y215815D01*
X237485Y215834D01*
X237489Y215900D01*
X237489Y227330D01*
X237474Y227448D01*
X237467Y227567D01*
X237454Y227605D01*
X237449Y227646D01*
X237406Y227756D01*
X237369Y227869D01*
X237347Y227904D01*
X237332Y227941D01*
X237263Y228037D01*
X237199Y228138D01*
X237169Y228166D01*
X237146Y228199D01*
X237054Y228275D01*
X236967Y228356D01*
X236932Y228376D01*
X236901Y228401D01*
X236793Y228452D01*
X236689Y228510D01*
X236649Y228520D01*
X236613Y228537D01*
X236496Y228559D01*
X236381Y228589D01*
X236321Y228593D01*
X236301Y228597D01*
X236280Y228595D01*
X236220Y228599D01*
X220980Y228599D01*
X220862Y228584D01*
X220743Y228577D01*
X220705Y228564D01*
X220664Y228559D01*
X220554Y228516D01*
X220441Y228479D01*
X220406Y228457D01*
X220369Y228442D01*
X220273Y228373D01*
X220172Y228309D01*
X220144Y228279D01*
X220111Y228256D01*
X220036Y228164D01*
X219954Y228077D01*
X219934Y228042D01*
X219909Y228011D01*
X219858Y227903D01*
X219800Y227799D01*
X219790Y227759D01*
X219773Y227723D01*
X219751Y227606D01*
X219721Y227491D01*
X219717Y227431D01*
X219713Y227411D01*
X219714Y227402D01*
X219713Y227399D01*
X219714Y227385D01*
X219711Y227330D01*
X219711Y215900D01*
X219713Y215880D01*
X219717Y215776D01*
X219863Y214289D01*
X219873Y214246D01*
X219875Y214202D01*
X219912Y214045D01*
X220345Y212616D01*
X220363Y212575D01*
X220374Y212532D01*
X220441Y212386D01*
X221145Y211068D01*
X221170Y211032D01*
X221189Y210992D01*
X221283Y210861D01*
X222231Y209707D01*
X222263Y209676D01*
X222289Y209641D01*
X222407Y209531D01*
X223561Y208583D01*
X223599Y208559D01*
X223631Y208530D01*
X223768Y208445D01*
X225086Y207741D01*
X225127Y207725D01*
X225165Y207702D01*
X225316Y207645D01*
X226745Y207212D01*
X226789Y207204D01*
X226830Y207189D01*
X226989Y207163D01*
X228476Y207017D01*
X228520Y207018D01*
X228564Y207011D01*
X228724Y207017D01*
G37*
G36*
X177924Y207017D02*
X177924Y207017D01*
X179411Y207163D01*
X179454Y207173D01*
X179498Y207175D01*
X179655Y207212D01*
X181085Y207645D01*
X181125Y207663D01*
X181168Y207674D01*
X181314Y207741D01*
X182632Y208445D01*
X182668Y208470D01*
X182708Y208489D01*
X182839Y208583D01*
X183993Y209531D01*
X184024Y209563D01*
X184059Y209589D01*
X184169Y209707D01*
X185117Y210861D01*
X185141Y210899D01*
X185170Y210931D01*
X185255Y211068D01*
X185959Y212386D01*
X185975Y212427D01*
X185998Y212465D01*
X186055Y212616D01*
X186488Y214045D01*
X186496Y214089D01*
X186511Y214130D01*
X186537Y214289D01*
X186683Y215776D01*
X186683Y215795D01*
X186683Y215796D01*
X186686Y215815D01*
X186685Y215834D01*
X186689Y215900D01*
X186689Y227330D01*
X186674Y227448D01*
X186667Y227567D01*
X186654Y227605D01*
X186649Y227646D01*
X186606Y227756D01*
X186569Y227869D01*
X186547Y227904D01*
X186532Y227941D01*
X186463Y228037D01*
X186399Y228138D01*
X186369Y228166D01*
X186346Y228199D01*
X186254Y228275D01*
X186167Y228356D01*
X186132Y228376D01*
X186101Y228401D01*
X185993Y228452D01*
X185889Y228510D01*
X185849Y228520D01*
X185813Y228537D01*
X185696Y228559D01*
X185581Y228589D01*
X185521Y228593D01*
X185501Y228597D01*
X185480Y228595D01*
X185420Y228599D01*
X170180Y228599D01*
X170062Y228584D01*
X169943Y228577D01*
X169905Y228564D01*
X169864Y228559D01*
X169754Y228516D01*
X169641Y228479D01*
X169606Y228457D01*
X169569Y228442D01*
X169473Y228373D01*
X169372Y228309D01*
X169344Y228279D01*
X169311Y228256D01*
X169236Y228164D01*
X169154Y228077D01*
X169134Y228042D01*
X169109Y228011D01*
X169058Y227903D01*
X169000Y227799D01*
X168990Y227759D01*
X168973Y227723D01*
X168951Y227606D01*
X168921Y227491D01*
X168917Y227431D01*
X168913Y227411D01*
X168914Y227402D01*
X168913Y227399D01*
X168914Y227385D01*
X168911Y227330D01*
X168911Y215900D01*
X168913Y215880D01*
X168917Y215776D01*
X169063Y214289D01*
X169073Y214246D01*
X169075Y214202D01*
X169112Y214045D01*
X169545Y212616D01*
X169563Y212575D01*
X169574Y212532D01*
X169641Y212386D01*
X170345Y211068D01*
X170370Y211032D01*
X170389Y210992D01*
X170483Y210861D01*
X171431Y209707D01*
X171463Y209676D01*
X171489Y209641D01*
X171607Y209531D01*
X172761Y208583D01*
X172799Y208559D01*
X172831Y208530D01*
X172968Y208445D01*
X174286Y207741D01*
X174327Y207725D01*
X174365Y207702D01*
X174516Y207645D01*
X175945Y207212D01*
X175989Y207204D01*
X176030Y207189D01*
X176189Y207163D01*
X177676Y207017D01*
X177720Y207018D01*
X177764Y207011D01*
X177924Y207017D01*
G37*
G36*
X304924Y207017D02*
X304924Y207017D01*
X306411Y207163D01*
X306454Y207173D01*
X306498Y207175D01*
X306655Y207212D01*
X308085Y207645D01*
X308125Y207663D01*
X308168Y207674D01*
X308314Y207741D01*
X309632Y208445D01*
X309668Y208470D01*
X309708Y208489D01*
X309839Y208583D01*
X310993Y209531D01*
X311024Y209563D01*
X311059Y209589D01*
X311169Y209707D01*
X312117Y210861D01*
X312141Y210899D01*
X312170Y210931D01*
X312255Y211068D01*
X312959Y212386D01*
X312975Y212427D01*
X312998Y212465D01*
X313055Y212616D01*
X313488Y214045D01*
X313496Y214089D01*
X313511Y214130D01*
X313537Y214289D01*
X313683Y215776D01*
X313683Y215795D01*
X313683Y215796D01*
X313686Y215815D01*
X313685Y215834D01*
X313689Y215900D01*
X313689Y227330D01*
X313674Y227448D01*
X313667Y227567D01*
X313654Y227605D01*
X313649Y227646D01*
X313606Y227756D01*
X313569Y227869D01*
X313547Y227904D01*
X313532Y227941D01*
X313463Y228037D01*
X313399Y228138D01*
X313369Y228166D01*
X313346Y228199D01*
X313254Y228275D01*
X313167Y228356D01*
X313132Y228376D01*
X313101Y228401D01*
X312993Y228452D01*
X312889Y228510D01*
X312849Y228520D01*
X312813Y228537D01*
X312696Y228559D01*
X312581Y228589D01*
X312521Y228593D01*
X312501Y228597D01*
X312480Y228595D01*
X312420Y228599D01*
X297180Y228599D01*
X297062Y228584D01*
X296943Y228577D01*
X296905Y228564D01*
X296864Y228559D01*
X296754Y228516D01*
X296641Y228479D01*
X296606Y228457D01*
X296569Y228442D01*
X296473Y228373D01*
X296372Y228309D01*
X296344Y228279D01*
X296311Y228256D01*
X296236Y228164D01*
X296154Y228077D01*
X296134Y228042D01*
X296109Y228011D01*
X296058Y227903D01*
X296000Y227799D01*
X295990Y227759D01*
X295973Y227723D01*
X295951Y227606D01*
X295921Y227491D01*
X295917Y227431D01*
X295913Y227411D01*
X295914Y227402D01*
X295913Y227399D01*
X295914Y227385D01*
X295911Y227330D01*
X295911Y215900D01*
X295913Y215880D01*
X295917Y215776D01*
X296063Y214289D01*
X296073Y214246D01*
X296075Y214202D01*
X296112Y214045D01*
X296545Y212616D01*
X296563Y212575D01*
X296574Y212532D01*
X296641Y212386D01*
X297345Y211068D01*
X297370Y211032D01*
X297389Y210992D01*
X297483Y210861D01*
X298431Y209707D01*
X298463Y209676D01*
X298489Y209641D01*
X298607Y209531D01*
X299761Y208583D01*
X299799Y208559D01*
X299831Y208530D01*
X299968Y208445D01*
X301286Y207741D01*
X301327Y207725D01*
X301365Y207702D01*
X301516Y207645D01*
X302945Y207212D01*
X302989Y207204D01*
X303030Y207189D01*
X303189Y207163D01*
X304676Y207017D01*
X304720Y207018D01*
X304764Y207011D01*
X304924Y207017D01*
G37*
G36*
X101724Y207017D02*
X101724Y207017D01*
X103211Y207163D01*
X103254Y207173D01*
X103298Y207175D01*
X103455Y207212D01*
X104885Y207645D01*
X104925Y207663D01*
X104968Y207674D01*
X105114Y207741D01*
X106432Y208445D01*
X106468Y208470D01*
X106508Y208489D01*
X106639Y208583D01*
X107793Y209531D01*
X107824Y209563D01*
X107859Y209589D01*
X107969Y209707D01*
X108917Y210861D01*
X108941Y210899D01*
X108970Y210931D01*
X109055Y211068D01*
X109759Y212386D01*
X109775Y212427D01*
X109798Y212465D01*
X109855Y212616D01*
X110288Y214045D01*
X110296Y214089D01*
X110311Y214130D01*
X110337Y214289D01*
X110483Y215776D01*
X110483Y215795D01*
X110483Y215796D01*
X110486Y215815D01*
X110485Y215834D01*
X110489Y215900D01*
X110489Y227330D01*
X110474Y227448D01*
X110467Y227567D01*
X110454Y227605D01*
X110449Y227646D01*
X110406Y227756D01*
X110369Y227869D01*
X110347Y227904D01*
X110332Y227941D01*
X110263Y228037D01*
X110199Y228138D01*
X110169Y228166D01*
X110146Y228199D01*
X110054Y228275D01*
X109967Y228356D01*
X109932Y228376D01*
X109901Y228401D01*
X109793Y228452D01*
X109689Y228510D01*
X109649Y228520D01*
X109613Y228537D01*
X109496Y228559D01*
X109381Y228589D01*
X109321Y228593D01*
X109301Y228597D01*
X109280Y228595D01*
X109220Y228599D01*
X93980Y228599D01*
X93862Y228584D01*
X93743Y228577D01*
X93705Y228564D01*
X93664Y228559D01*
X93554Y228516D01*
X93441Y228479D01*
X93406Y228457D01*
X93369Y228442D01*
X93273Y228373D01*
X93172Y228309D01*
X93144Y228279D01*
X93111Y228256D01*
X93036Y228164D01*
X92954Y228077D01*
X92934Y228042D01*
X92909Y228011D01*
X92858Y227903D01*
X92800Y227799D01*
X92790Y227759D01*
X92773Y227723D01*
X92751Y227606D01*
X92721Y227491D01*
X92717Y227431D01*
X92713Y227411D01*
X92714Y227402D01*
X92713Y227399D01*
X92714Y227385D01*
X92711Y227330D01*
X92711Y215900D01*
X92713Y215880D01*
X92717Y215776D01*
X92863Y214289D01*
X92873Y214246D01*
X92875Y214202D01*
X92912Y214045D01*
X93345Y212616D01*
X93363Y212575D01*
X93374Y212532D01*
X93441Y212386D01*
X94145Y211068D01*
X94170Y211032D01*
X94189Y210992D01*
X94283Y210861D01*
X95231Y209707D01*
X95263Y209676D01*
X95289Y209641D01*
X95407Y209531D01*
X96561Y208583D01*
X96599Y208559D01*
X96631Y208530D01*
X96768Y208445D01*
X98086Y207741D01*
X98127Y207725D01*
X98165Y207702D01*
X98316Y207645D01*
X99745Y207212D01*
X99789Y207204D01*
X99830Y207189D01*
X99989Y207163D01*
X101476Y207017D01*
X101520Y207018D01*
X101564Y207011D01*
X101724Y207017D01*
G37*
G36*
X25524Y207017D02*
X25524Y207017D01*
X27011Y207163D01*
X27054Y207173D01*
X27098Y207175D01*
X27255Y207212D01*
X28685Y207645D01*
X28725Y207663D01*
X28768Y207674D01*
X28914Y207741D01*
X30232Y208445D01*
X30268Y208470D01*
X30308Y208489D01*
X30439Y208583D01*
X31593Y209531D01*
X31624Y209563D01*
X31659Y209589D01*
X31769Y209707D01*
X32717Y210861D01*
X32741Y210899D01*
X32770Y210931D01*
X32855Y211068D01*
X33559Y212386D01*
X33575Y212427D01*
X33598Y212465D01*
X33655Y212616D01*
X34088Y214045D01*
X34096Y214089D01*
X34111Y214130D01*
X34137Y214289D01*
X34283Y215776D01*
X34283Y215795D01*
X34283Y215796D01*
X34286Y215815D01*
X34285Y215834D01*
X34289Y215900D01*
X34289Y227330D01*
X34274Y227448D01*
X34267Y227567D01*
X34254Y227605D01*
X34249Y227646D01*
X34206Y227756D01*
X34169Y227869D01*
X34147Y227904D01*
X34132Y227941D01*
X34063Y228037D01*
X33999Y228138D01*
X33969Y228166D01*
X33946Y228199D01*
X33854Y228275D01*
X33767Y228356D01*
X33732Y228376D01*
X33701Y228401D01*
X33593Y228452D01*
X33489Y228510D01*
X33449Y228520D01*
X33413Y228537D01*
X33296Y228559D01*
X33181Y228589D01*
X33121Y228593D01*
X33101Y228597D01*
X33080Y228595D01*
X33020Y228599D01*
X17780Y228599D01*
X17662Y228584D01*
X17543Y228577D01*
X17505Y228564D01*
X17464Y228559D01*
X17354Y228516D01*
X17241Y228479D01*
X17206Y228457D01*
X17169Y228442D01*
X17073Y228373D01*
X16972Y228309D01*
X16944Y228279D01*
X16911Y228256D01*
X16836Y228164D01*
X16754Y228077D01*
X16734Y228042D01*
X16709Y228011D01*
X16658Y227903D01*
X16600Y227799D01*
X16590Y227759D01*
X16573Y227723D01*
X16551Y227606D01*
X16521Y227491D01*
X16517Y227431D01*
X16513Y227411D01*
X16514Y227402D01*
X16513Y227399D01*
X16514Y227385D01*
X16511Y227330D01*
X16511Y215900D01*
X16513Y215880D01*
X16517Y215776D01*
X16663Y214289D01*
X16673Y214246D01*
X16675Y214202D01*
X16712Y214045D01*
X17145Y212616D01*
X17163Y212575D01*
X17174Y212532D01*
X17241Y212386D01*
X17945Y211068D01*
X17970Y211032D01*
X17989Y210992D01*
X18083Y210861D01*
X19031Y209707D01*
X19063Y209676D01*
X19089Y209641D01*
X19207Y209531D01*
X20361Y208583D01*
X20399Y208559D01*
X20431Y208530D01*
X20568Y208445D01*
X21886Y207741D01*
X21927Y207725D01*
X21965Y207702D01*
X22116Y207645D01*
X23545Y207212D01*
X23589Y207204D01*
X23630Y207189D01*
X23789Y207163D01*
X25276Y207017D01*
X25320Y207018D01*
X25364Y207011D01*
X25524Y207017D01*
G37*
G36*
X330324Y207017D02*
X330324Y207017D01*
X331811Y207163D01*
X331854Y207173D01*
X331898Y207175D01*
X332055Y207212D01*
X333485Y207645D01*
X333525Y207663D01*
X333568Y207674D01*
X333714Y207741D01*
X335032Y208445D01*
X335068Y208470D01*
X335108Y208489D01*
X335239Y208583D01*
X336393Y209531D01*
X336424Y209563D01*
X336459Y209589D01*
X336569Y209707D01*
X337517Y210861D01*
X337541Y210899D01*
X337570Y210931D01*
X337655Y211068D01*
X338359Y212386D01*
X338375Y212427D01*
X338398Y212465D01*
X338455Y212616D01*
X338888Y214045D01*
X338896Y214089D01*
X338911Y214130D01*
X338937Y214289D01*
X339083Y215776D01*
X339083Y215795D01*
X339083Y215796D01*
X339086Y215815D01*
X339085Y215834D01*
X339089Y215900D01*
X339089Y227330D01*
X339074Y227448D01*
X339067Y227567D01*
X339054Y227605D01*
X339049Y227646D01*
X339006Y227756D01*
X338969Y227869D01*
X338947Y227904D01*
X338932Y227941D01*
X338863Y228037D01*
X338799Y228138D01*
X338769Y228166D01*
X338746Y228199D01*
X338654Y228275D01*
X338567Y228356D01*
X338532Y228376D01*
X338501Y228401D01*
X338393Y228452D01*
X338289Y228510D01*
X338249Y228520D01*
X338213Y228537D01*
X338096Y228559D01*
X337981Y228589D01*
X337921Y228593D01*
X337901Y228597D01*
X337880Y228595D01*
X337820Y228599D01*
X322580Y228599D01*
X322462Y228584D01*
X322343Y228577D01*
X322305Y228564D01*
X322264Y228559D01*
X322154Y228516D01*
X322041Y228479D01*
X322006Y228457D01*
X321969Y228442D01*
X321873Y228373D01*
X321772Y228309D01*
X321744Y228279D01*
X321711Y228256D01*
X321636Y228164D01*
X321554Y228077D01*
X321534Y228042D01*
X321509Y228011D01*
X321458Y227903D01*
X321400Y227799D01*
X321390Y227759D01*
X321373Y227723D01*
X321351Y227606D01*
X321321Y227491D01*
X321317Y227431D01*
X321313Y227411D01*
X321314Y227402D01*
X321313Y227399D01*
X321314Y227385D01*
X321311Y227330D01*
X321311Y215900D01*
X321313Y215880D01*
X321317Y215776D01*
X321463Y214289D01*
X321473Y214246D01*
X321475Y214202D01*
X321512Y214045D01*
X321945Y212616D01*
X321963Y212575D01*
X321974Y212532D01*
X322041Y212386D01*
X322745Y211068D01*
X322770Y211032D01*
X322789Y210992D01*
X322883Y210861D01*
X323831Y209707D01*
X323863Y209676D01*
X323889Y209641D01*
X324007Y209531D01*
X325161Y208583D01*
X325199Y208559D01*
X325231Y208530D01*
X325368Y208445D01*
X326686Y207741D01*
X326727Y207725D01*
X326765Y207702D01*
X326916Y207645D01*
X328345Y207212D01*
X328389Y207204D01*
X328430Y207189D01*
X328589Y207163D01*
X330076Y207017D01*
X330120Y207018D01*
X330164Y207011D01*
X330324Y207017D01*
G37*
G36*
X76324Y207017D02*
X76324Y207017D01*
X77811Y207163D01*
X77854Y207173D01*
X77898Y207175D01*
X78055Y207212D01*
X79485Y207645D01*
X79525Y207663D01*
X79568Y207674D01*
X79714Y207741D01*
X81032Y208445D01*
X81068Y208470D01*
X81108Y208489D01*
X81239Y208583D01*
X82393Y209531D01*
X82424Y209563D01*
X82459Y209589D01*
X82569Y209707D01*
X83517Y210861D01*
X83541Y210899D01*
X83570Y210931D01*
X83655Y211068D01*
X84359Y212386D01*
X84375Y212427D01*
X84398Y212465D01*
X84455Y212616D01*
X84888Y214045D01*
X84896Y214089D01*
X84911Y214130D01*
X84937Y214289D01*
X85083Y215776D01*
X85083Y215795D01*
X85083Y215796D01*
X85086Y215815D01*
X85085Y215834D01*
X85089Y215900D01*
X85089Y227330D01*
X85074Y227448D01*
X85067Y227567D01*
X85054Y227605D01*
X85049Y227646D01*
X85006Y227756D01*
X84969Y227869D01*
X84947Y227904D01*
X84932Y227941D01*
X84863Y228037D01*
X84799Y228138D01*
X84769Y228166D01*
X84746Y228199D01*
X84654Y228275D01*
X84567Y228356D01*
X84532Y228376D01*
X84501Y228401D01*
X84393Y228452D01*
X84289Y228510D01*
X84249Y228520D01*
X84213Y228537D01*
X84096Y228559D01*
X83981Y228589D01*
X83921Y228593D01*
X83901Y228597D01*
X83880Y228595D01*
X83820Y228599D01*
X68580Y228599D01*
X68462Y228584D01*
X68343Y228577D01*
X68305Y228564D01*
X68264Y228559D01*
X68154Y228516D01*
X68041Y228479D01*
X68006Y228457D01*
X67969Y228442D01*
X67873Y228373D01*
X67772Y228309D01*
X67744Y228279D01*
X67711Y228256D01*
X67636Y228164D01*
X67554Y228077D01*
X67534Y228042D01*
X67509Y228011D01*
X67458Y227903D01*
X67400Y227799D01*
X67390Y227759D01*
X67373Y227723D01*
X67351Y227606D01*
X67321Y227491D01*
X67317Y227431D01*
X67313Y227411D01*
X67314Y227402D01*
X67313Y227399D01*
X67314Y227385D01*
X67311Y227330D01*
X67311Y215900D01*
X67313Y215880D01*
X67317Y215776D01*
X67463Y214289D01*
X67473Y214246D01*
X67475Y214202D01*
X67512Y214045D01*
X67945Y212616D01*
X67963Y212575D01*
X67974Y212532D01*
X68041Y212386D01*
X68745Y211068D01*
X68770Y211032D01*
X68789Y210992D01*
X68883Y210861D01*
X69831Y209707D01*
X69863Y209676D01*
X69889Y209641D01*
X70007Y209531D01*
X71161Y208583D01*
X71199Y208559D01*
X71231Y208530D01*
X71368Y208445D01*
X72686Y207741D01*
X72727Y207725D01*
X72765Y207702D01*
X72916Y207645D01*
X74345Y207212D01*
X74389Y207204D01*
X74430Y207189D01*
X74589Y207163D01*
X76076Y207017D01*
X76120Y207018D01*
X76164Y207011D01*
X76324Y207017D01*
G37*
G36*
X127124Y207017D02*
X127124Y207017D01*
X128611Y207163D01*
X128654Y207173D01*
X128698Y207175D01*
X128855Y207212D01*
X130285Y207645D01*
X130325Y207663D01*
X130368Y207674D01*
X130514Y207741D01*
X131832Y208445D01*
X131868Y208470D01*
X131908Y208489D01*
X132039Y208583D01*
X133193Y209531D01*
X133224Y209563D01*
X133259Y209589D01*
X133369Y209707D01*
X134317Y210861D01*
X134341Y210899D01*
X134370Y210931D01*
X134455Y211068D01*
X135159Y212386D01*
X135175Y212427D01*
X135198Y212465D01*
X135255Y212616D01*
X135688Y214045D01*
X135696Y214089D01*
X135711Y214130D01*
X135737Y214289D01*
X135883Y215776D01*
X135883Y215795D01*
X135883Y215796D01*
X135886Y215815D01*
X135885Y215834D01*
X135889Y215900D01*
X135889Y227330D01*
X135874Y227448D01*
X135867Y227567D01*
X135854Y227605D01*
X135849Y227646D01*
X135806Y227756D01*
X135769Y227869D01*
X135747Y227904D01*
X135732Y227941D01*
X135663Y228037D01*
X135599Y228138D01*
X135569Y228166D01*
X135546Y228199D01*
X135454Y228275D01*
X135367Y228356D01*
X135332Y228376D01*
X135301Y228401D01*
X135193Y228452D01*
X135089Y228510D01*
X135049Y228520D01*
X135013Y228537D01*
X134896Y228559D01*
X134781Y228589D01*
X134721Y228593D01*
X134701Y228597D01*
X134680Y228595D01*
X134620Y228599D01*
X119380Y228599D01*
X119262Y228584D01*
X119143Y228577D01*
X119105Y228564D01*
X119064Y228559D01*
X118954Y228516D01*
X118841Y228479D01*
X118806Y228457D01*
X118769Y228442D01*
X118673Y228373D01*
X118572Y228309D01*
X118544Y228279D01*
X118511Y228256D01*
X118436Y228164D01*
X118354Y228077D01*
X118334Y228042D01*
X118309Y228011D01*
X118258Y227903D01*
X118200Y227799D01*
X118190Y227759D01*
X118173Y227723D01*
X118151Y227606D01*
X118121Y227491D01*
X118117Y227431D01*
X118113Y227411D01*
X118114Y227402D01*
X118113Y227399D01*
X118114Y227385D01*
X118111Y227330D01*
X118111Y215900D01*
X118113Y215880D01*
X118117Y215776D01*
X118263Y214289D01*
X118273Y214246D01*
X118275Y214202D01*
X118312Y214045D01*
X118745Y212616D01*
X118763Y212575D01*
X118774Y212532D01*
X118841Y212386D01*
X119545Y211068D01*
X119570Y211032D01*
X119589Y210992D01*
X119683Y210861D01*
X120631Y209707D01*
X120663Y209676D01*
X120689Y209641D01*
X120807Y209531D01*
X121961Y208583D01*
X121999Y208559D01*
X122031Y208530D01*
X122168Y208445D01*
X123486Y207741D01*
X123527Y207725D01*
X123565Y207702D01*
X123716Y207645D01*
X125145Y207212D01*
X125189Y207204D01*
X125230Y207189D01*
X125389Y207163D01*
X126876Y207017D01*
X126920Y207018D01*
X126964Y207011D01*
X127124Y207017D01*
G37*
G36*
X152524Y207017D02*
X152524Y207017D01*
X154011Y207163D01*
X154054Y207173D01*
X154098Y207175D01*
X154255Y207212D01*
X155685Y207645D01*
X155725Y207663D01*
X155768Y207674D01*
X155914Y207741D01*
X157232Y208445D01*
X157268Y208470D01*
X157308Y208489D01*
X157439Y208583D01*
X158593Y209531D01*
X158624Y209563D01*
X158659Y209589D01*
X158769Y209707D01*
X159717Y210861D01*
X159741Y210899D01*
X159770Y210931D01*
X159855Y211068D01*
X160559Y212386D01*
X160575Y212427D01*
X160598Y212465D01*
X160655Y212616D01*
X161088Y214045D01*
X161096Y214089D01*
X161111Y214130D01*
X161137Y214289D01*
X161283Y215776D01*
X161283Y215795D01*
X161283Y215796D01*
X161286Y215815D01*
X161285Y215834D01*
X161289Y215900D01*
X161289Y227330D01*
X161274Y227448D01*
X161267Y227567D01*
X161254Y227605D01*
X161249Y227646D01*
X161206Y227756D01*
X161169Y227869D01*
X161147Y227904D01*
X161132Y227941D01*
X161063Y228037D01*
X160999Y228138D01*
X160969Y228166D01*
X160946Y228199D01*
X160854Y228275D01*
X160767Y228356D01*
X160732Y228376D01*
X160701Y228401D01*
X160593Y228452D01*
X160489Y228510D01*
X160449Y228520D01*
X160413Y228537D01*
X160296Y228559D01*
X160181Y228589D01*
X160121Y228593D01*
X160101Y228597D01*
X160080Y228595D01*
X160020Y228599D01*
X144780Y228599D01*
X144662Y228584D01*
X144543Y228577D01*
X144505Y228564D01*
X144464Y228559D01*
X144354Y228516D01*
X144241Y228479D01*
X144206Y228457D01*
X144169Y228442D01*
X144073Y228373D01*
X143972Y228309D01*
X143944Y228279D01*
X143911Y228256D01*
X143836Y228164D01*
X143754Y228077D01*
X143734Y228042D01*
X143709Y228011D01*
X143658Y227903D01*
X143600Y227799D01*
X143590Y227759D01*
X143573Y227723D01*
X143551Y227606D01*
X143521Y227491D01*
X143517Y227431D01*
X143513Y227411D01*
X143514Y227402D01*
X143513Y227399D01*
X143514Y227385D01*
X143511Y227330D01*
X143511Y215900D01*
X143513Y215880D01*
X143517Y215776D01*
X143663Y214289D01*
X143673Y214246D01*
X143675Y214202D01*
X143712Y214045D01*
X144145Y212616D01*
X144163Y212575D01*
X144174Y212532D01*
X144241Y212386D01*
X144945Y211068D01*
X144970Y211032D01*
X144989Y210992D01*
X145083Y210861D01*
X146031Y209707D01*
X146063Y209676D01*
X146089Y209641D01*
X146207Y209531D01*
X147361Y208583D01*
X147399Y208559D01*
X147431Y208530D01*
X147568Y208445D01*
X148886Y207741D01*
X148927Y207725D01*
X148965Y207702D01*
X149116Y207645D01*
X150545Y207212D01*
X150589Y207204D01*
X150630Y207189D01*
X150789Y207163D01*
X152276Y207017D01*
X152320Y207018D01*
X152364Y207011D01*
X152524Y207017D01*
G37*
G36*
X279524Y207017D02*
X279524Y207017D01*
X281011Y207163D01*
X281054Y207173D01*
X281098Y207175D01*
X281255Y207212D01*
X282685Y207645D01*
X282725Y207663D01*
X282768Y207674D01*
X282914Y207741D01*
X284232Y208445D01*
X284268Y208470D01*
X284308Y208489D01*
X284439Y208583D01*
X285593Y209531D01*
X285624Y209563D01*
X285659Y209589D01*
X285769Y209707D01*
X286717Y210861D01*
X286741Y210899D01*
X286770Y210931D01*
X286855Y211068D01*
X287559Y212386D01*
X287575Y212427D01*
X287598Y212465D01*
X287655Y212616D01*
X288088Y214045D01*
X288096Y214089D01*
X288111Y214130D01*
X288137Y214289D01*
X288283Y215776D01*
X288283Y215795D01*
X288283Y215796D01*
X288286Y215815D01*
X288285Y215834D01*
X288289Y215900D01*
X288289Y227330D01*
X288274Y227448D01*
X288267Y227567D01*
X288254Y227605D01*
X288249Y227646D01*
X288206Y227756D01*
X288169Y227869D01*
X288147Y227904D01*
X288132Y227941D01*
X288063Y228037D01*
X287999Y228138D01*
X287969Y228166D01*
X287946Y228199D01*
X287854Y228275D01*
X287767Y228356D01*
X287732Y228376D01*
X287701Y228401D01*
X287593Y228452D01*
X287489Y228510D01*
X287449Y228520D01*
X287413Y228537D01*
X287296Y228559D01*
X287181Y228589D01*
X287121Y228593D01*
X287101Y228597D01*
X287080Y228595D01*
X287020Y228599D01*
X271780Y228599D01*
X271662Y228584D01*
X271543Y228577D01*
X271505Y228564D01*
X271464Y228559D01*
X271354Y228516D01*
X271241Y228479D01*
X271206Y228457D01*
X271169Y228442D01*
X271073Y228373D01*
X270972Y228309D01*
X270944Y228279D01*
X270911Y228256D01*
X270836Y228164D01*
X270754Y228077D01*
X270734Y228042D01*
X270709Y228011D01*
X270658Y227903D01*
X270600Y227799D01*
X270590Y227759D01*
X270573Y227723D01*
X270551Y227606D01*
X270521Y227491D01*
X270517Y227431D01*
X270513Y227411D01*
X270514Y227402D01*
X270513Y227399D01*
X270514Y227385D01*
X270511Y227330D01*
X270511Y215900D01*
X270513Y215880D01*
X270517Y215776D01*
X270663Y214289D01*
X270673Y214246D01*
X270675Y214202D01*
X270712Y214045D01*
X271145Y212616D01*
X271163Y212575D01*
X271174Y212532D01*
X271241Y212386D01*
X271945Y211068D01*
X271970Y211032D01*
X271989Y210992D01*
X272083Y210861D01*
X273031Y209707D01*
X273063Y209676D01*
X273089Y209641D01*
X273207Y209531D01*
X274361Y208583D01*
X274399Y208559D01*
X274431Y208530D01*
X274568Y208445D01*
X275886Y207741D01*
X275927Y207725D01*
X275965Y207702D01*
X276116Y207645D01*
X277545Y207212D01*
X277589Y207204D01*
X277630Y207189D01*
X277789Y207163D01*
X279276Y207017D01*
X279320Y207018D01*
X279364Y207011D01*
X279524Y207017D01*
G37*
G36*
X50924Y207017D02*
X50924Y207017D01*
X52411Y207163D01*
X52454Y207173D01*
X52498Y207175D01*
X52655Y207212D01*
X54085Y207645D01*
X54125Y207663D01*
X54168Y207674D01*
X54314Y207741D01*
X55632Y208445D01*
X55668Y208470D01*
X55708Y208489D01*
X55839Y208583D01*
X56993Y209531D01*
X57024Y209563D01*
X57059Y209589D01*
X57169Y209707D01*
X58117Y210861D01*
X58141Y210899D01*
X58170Y210931D01*
X58255Y211068D01*
X58959Y212386D01*
X58975Y212427D01*
X58998Y212465D01*
X59055Y212616D01*
X59488Y214045D01*
X59496Y214089D01*
X59511Y214130D01*
X59537Y214289D01*
X59683Y215776D01*
X59683Y215795D01*
X59683Y215796D01*
X59686Y215815D01*
X59685Y215834D01*
X59689Y215900D01*
X59689Y227330D01*
X59674Y227448D01*
X59667Y227567D01*
X59654Y227605D01*
X59649Y227646D01*
X59606Y227756D01*
X59569Y227869D01*
X59547Y227904D01*
X59532Y227941D01*
X59463Y228037D01*
X59399Y228138D01*
X59369Y228166D01*
X59346Y228199D01*
X59254Y228275D01*
X59167Y228356D01*
X59132Y228376D01*
X59101Y228401D01*
X58993Y228452D01*
X58889Y228510D01*
X58849Y228520D01*
X58813Y228537D01*
X58696Y228559D01*
X58581Y228589D01*
X58521Y228593D01*
X58501Y228597D01*
X58480Y228595D01*
X58420Y228599D01*
X43180Y228599D01*
X43062Y228584D01*
X42943Y228577D01*
X42905Y228564D01*
X42864Y228559D01*
X42754Y228516D01*
X42641Y228479D01*
X42606Y228457D01*
X42569Y228442D01*
X42473Y228373D01*
X42372Y228309D01*
X42344Y228279D01*
X42311Y228256D01*
X42236Y228164D01*
X42154Y228077D01*
X42134Y228042D01*
X42109Y228011D01*
X42058Y227903D01*
X42000Y227799D01*
X41990Y227759D01*
X41973Y227723D01*
X41951Y227606D01*
X41921Y227491D01*
X41917Y227431D01*
X41913Y227411D01*
X41914Y227402D01*
X41913Y227399D01*
X41914Y227385D01*
X41911Y227330D01*
X41911Y215900D01*
X41913Y215880D01*
X41917Y215776D01*
X42063Y214289D01*
X42073Y214246D01*
X42075Y214202D01*
X42112Y214045D01*
X42545Y212616D01*
X42563Y212575D01*
X42574Y212532D01*
X42641Y212386D01*
X43345Y211068D01*
X43370Y211032D01*
X43389Y210992D01*
X43483Y210861D01*
X44431Y209707D01*
X44463Y209676D01*
X44489Y209641D01*
X44607Y209531D01*
X45761Y208583D01*
X45799Y208559D01*
X45831Y208530D01*
X45968Y208445D01*
X47286Y207741D01*
X47327Y207725D01*
X47365Y207702D01*
X47516Y207645D01*
X48945Y207212D01*
X48989Y207204D01*
X49030Y207189D01*
X49189Y207163D01*
X50676Y207017D01*
X50720Y207018D01*
X50764Y207011D01*
X50924Y207017D01*
G37*
G36*
X203324Y207017D02*
X203324Y207017D01*
X204811Y207163D01*
X204854Y207173D01*
X204898Y207175D01*
X205055Y207212D01*
X206485Y207645D01*
X206525Y207663D01*
X206568Y207674D01*
X206714Y207741D01*
X208032Y208445D01*
X208068Y208470D01*
X208108Y208489D01*
X208239Y208583D01*
X209393Y209531D01*
X209424Y209563D01*
X209459Y209589D01*
X209569Y209707D01*
X210517Y210861D01*
X210541Y210899D01*
X210570Y210931D01*
X210655Y211068D01*
X211359Y212386D01*
X211375Y212427D01*
X211398Y212465D01*
X211455Y212616D01*
X211888Y214045D01*
X211896Y214089D01*
X211911Y214130D01*
X211937Y214289D01*
X212083Y215776D01*
X212083Y215795D01*
X212083Y215796D01*
X212086Y215815D01*
X212085Y215834D01*
X212089Y215900D01*
X212089Y227330D01*
X212074Y227448D01*
X212067Y227567D01*
X212054Y227605D01*
X212049Y227646D01*
X212006Y227756D01*
X211969Y227869D01*
X211947Y227904D01*
X211932Y227941D01*
X211863Y228037D01*
X211799Y228138D01*
X211769Y228166D01*
X211746Y228199D01*
X211654Y228275D01*
X211567Y228356D01*
X211532Y228376D01*
X211501Y228401D01*
X211393Y228452D01*
X211289Y228510D01*
X211249Y228520D01*
X211213Y228537D01*
X211096Y228559D01*
X210981Y228589D01*
X210921Y228593D01*
X210901Y228597D01*
X210880Y228595D01*
X210820Y228599D01*
X195580Y228599D01*
X195462Y228584D01*
X195343Y228577D01*
X195305Y228564D01*
X195264Y228559D01*
X195154Y228516D01*
X195041Y228479D01*
X195006Y228457D01*
X194969Y228442D01*
X194873Y228373D01*
X194772Y228309D01*
X194744Y228279D01*
X194711Y228256D01*
X194636Y228164D01*
X194554Y228077D01*
X194534Y228042D01*
X194509Y228011D01*
X194458Y227903D01*
X194400Y227799D01*
X194390Y227759D01*
X194373Y227723D01*
X194351Y227606D01*
X194321Y227491D01*
X194317Y227431D01*
X194313Y227411D01*
X194314Y227402D01*
X194313Y227399D01*
X194314Y227385D01*
X194311Y227330D01*
X194311Y215900D01*
X194313Y215880D01*
X194317Y215776D01*
X194463Y214289D01*
X194473Y214246D01*
X194475Y214202D01*
X194512Y214045D01*
X194945Y212616D01*
X194963Y212575D01*
X194974Y212532D01*
X195041Y212386D01*
X195745Y211068D01*
X195770Y211032D01*
X195789Y210992D01*
X195883Y210861D01*
X196831Y209707D01*
X196863Y209676D01*
X196889Y209641D01*
X197007Y209531D01*
X198161Y208583D01*
X198199Y208559D01*
X198231Y208530D01*
X198368Y208445D01*
X199686Y207741D01*
X199727Y207725D01*
X199765Y207702D01*
X199916Y207645D01*
X201345Y207212D01*
X201389Y207204D01*
X201430Y207189D01*
X201589Y207163D01*
X203076Y207017D01*
X203120Y207018D01*
X203164Y207011D01*
X203324Y207017D01*
G37*
G36*
X254124Y207017D02*
X254124Y207017D01*
X255611Y207163D01*
X255654Y207173D01*
X255698Y207175D01*
X255855Y207212D01*
X257285Y207645D01*
X257325Y207663D01*
X257368Y207674D01*
X257514Y207741D01*
X258832Y208445D01*
X258868Y208470D01*
X258908Y208489D01*
X259039Y208583D01*
X260193Y209531D01*
X260224Y209563D01*
X260259Y209589D01*
X260369Y209707D01*
X261317Y210861D01*
X261341Y210899D01*
X261370Y210931D01*
X261455Y211068D01*
X262159Y212386D01*
X262175Y212427D01*
X262198Y212465D01*
X262255Y212616D01*
X262688Y214045D01*
X262696Y214089D01*
X262711Y214130D01*
X262737Y214289D01*
X262883Y215776D01*
X262883Y215795D01*
X262883Y215796D01*
X262886Y215815D01*
X262885Y215834D01*
X262889Y215900D01*
X262889Y227330D01*
X262874Y227448D01*
X262867Y227567D01*
X262854Y227605D01*
X262849Y227646D01*
X262806Y227756D01*
X262769Y227869D01*
X262747Y227904D01*
X262732Y227941D01*
X262663Y228037D01*
X262599Y228138D01*
X262569Y228166D01*
X262546Y228199D01*
X262454Y228275D01*
X262367Y228356D01*
X262332Y228376D01*
X262301Y228401D01*
X262193Y228452D01*
X262089Y228510D01*
X262049Y228520D01*
X262013Y228537D01*
X261896Y228559D01*
X261781Y228589D01*
X261721Y228593D01*
X261701Y228597D01*
X261680Y228595D01*
X261620Y228599D01*
X246380Y228599D01*
X246262Y228584D01*
X246143Y228577D01*
X246105Y228564D01*
X246064Y228559D01*
X245954Y228516D01*
X245841Y228479D01*
X245806Y228457D01*
X245769Y228442D01*
X245673Y228373D01*
X245572Y228309D01*
X245544Y228279D01*
X245511Y228256D01*
X245436Y228164D01*
X245354Y228077D01*
X245334Y228042D01*
X245309Y228011D01*
X245258Y227903D01*
X245200Y227799D01*
X245190Y227759D01*
X245173Y227723D01*
X245151Y227606D01*
X245121Y227491D01*
X245117Y227431D01*
X245113Y227411D01*
X245114Y227402D01*
X245113Y227399D01*
X245114Y227385D01*
X245111Y227330D01*
X245111Y215900D01*
X245113Y215880D01*
X245117Y215776D01*
X245263Y214289D01*
X245273Y214246D01*
X245275Y214202D01*
X245312Y214045D01*
X245745Y212616D01*
X245763Y212575D01*
X245774Y212532D01*
X245841Y212386D01*
X246545Y211068D01*
X246570Y211032D01*
X246589Y210992D01*
X246683Y210861D01*
X247631Y209707D01*
X247663Y209676D01*
X247689Y209641D01*
X247807Y209531D01*
X248961Y208583D01*
X248999Y208559D01*
X249031Y208530D01*
X249168Y208445D01*
X250486Y207741D01*
X250527Y207725D01*
X250565Y207702D01*
X250716Y207645D01*
X252145Y207212D01*
X252189Y207204D01*
X252230Y207189D01*
X252389Y207163D01*
X253876Y207017D01*
X253920Y207018D01*
X253964Y207011D01*
X254124Y207017D01*
G37*
%LPC*%
G36*
X50043Y159993D02*
X50043Y159993D01*
X46934Y163102D01*
X46934Y167498D01*
X49223Y169787D01*
X49277Y169861D01*
X49336Y169931D01*
X49348Y169961D01*
X49367Y169987D01*
X49394Y170074D01*
X49428Y170159D01*
X49433Y170200D01*
X49439Y170222D01*
X49439Y170254D01*
X49446Y170325D01*
X49446Y180223D01*
X49432Y180313D01*
X49425Y180404D01*
X49412Y180434D01*
X49407Y180466D01*
X49364Y180547D01*
X49328Y180631D01*
X49303Y180662D01*
X49303Y185078D01*
X52412Y188187D01*
X56808Y188187D01*
X59917Y185078D01*
X59917Y180682D01*
X56808Y177573D01*
X55797Y177573D01*
X55777Y177570D01*
X55758Y177572D01*
X55656Y177550D01*
X55554Y177534D01*
X55537Y177524D01*
X55517Y177520D01*
X55428Y177467D01*
X55337Y177418D01*
X55323Y177404D01*
X55306Y177394D01*
X55239Y177315D01*
X55168Y177240D01*
X55159Y177222D01*
X55146Y177207D01*
X55108Y177111D01*
X55064Y177017D01*
X55062Y176997D01*
X55054Y176979D01*
X55036Y176812D01*
X55036Y170325D01*
X55051Y170235D01*
X55058Y170144D01*
X55070Y170115D01*
X55076Y170083D01*
X55118Y170002D01*
X55154Y169918D01*
X55180Y169886D01*
X55191Y169865D01*
X55214Y169843D01*
X55259Y169787D01*
X57548Y167498D01*
X57548Y163102D01*
X54439Y159993D01*
X50043Y159993D01*
G37*
%LPD*%
D10*
X50800Y12700D03*
D11*
X50800Y0D03*
D10*
X76200Y12700D03*
D11*
X76200Y0D03*
D10*
X101600Y12700D03*
D11*
X101600Y0D03*
D10*
X127000Y12700D03*
D11*
X127000Y0D03*
D10*
X152400Y12700D03*
D11*
X152400Y0D03*
D10*
X177800Y12700D03*
D11*
X177800Y0D03*
D10*
X203200Y12700D03*
D11*
X203200Y0D03*
D10*
X228600Y12700D03*
D11*
X228600Y0D03*
D10*
X254000Y12700D03*
D11*
X254000Y0D03*
D10*
X279400Y12700D03*
D11*
X279400Y0D03*
D10*
X304800Y12700D03*
D11*
X304800Y0D03*
D10*
X330200Y12700D03*
D11*
X330200Y0D03*
D10*
X330200Y215900D03*
D11*
X330200Y228600D03*
D10*
X304800Y215900D03*
D11*
X304800Y228600D03*
D10*
X279400Y215900D03*
D11*
X279400Y228600D03*
D10*
X254000Y215900D03*
D11*
X254000Y228600D03*
D10*
X228600Y215900D03*
D11*
X228600Y228600D03*
D10*
X203200Y215900D03*
D11*
X203200Y228600D03*
D10*
X177800Y215900D03*
D11*
X177800Y228600D03*
D10*
X152400Y215900D03*
D11*
X152400Y228600D03*
D10*
X127000Y215900D03*
D11*
X127000Y228600D03*
D10*
X101600Y215900D03*
D11*
X101600Y228600D03*
D10*
X76200Y215900D03*
D11*
X76200Y228600D03*
D10*
X50800Y215900D03*
D11*
X50800Y228600D03*
D10*
X25400Y215900D03*
D11*
X25400Y228600D03*
D12*
X105000Y114300D03*
X25000Y114300D03*
X265000Y114300D03*
X185000Y114300D03*
D13*
X110000Y149300D03*
X99000Y149300D03*
X88000Y149300D03*
X77000Y135300D03*
X84620Y127840D03*
X84620Y115840D03*
X96240Y114000D03*
X95000Y102000D03*
X95000Y92000D03*
X108000Y82000D03*
X108000Y71000D03*
D14*
X101600Y151900D02*
X101600Y215900D01*
D15*
X101600Y151900D02*
X99000Y149300D01*
D14*
X127000Y166300D02*
X127000Y215900D01*
D15*
X127000Y166300D02*
X110000Y149300D01*
D14*
X279400Y36600D02*
X279400Y12700D01*
D15*
X276000Y40000D02*
X260000Y40000D01*
X254000Y34000D01*
D14*
X254000Y15210D01*
D15*
X276000Y40000D02*
X279400Y36600D01*
D13*
X241000Y44000D03*
X241000Y56000D03*
X241000Y68000D03*
X232000Y76000D03*
X232000Y87000D03*
X243000Y87000D03*
X242760Y77810D03*
X258000Y64000D03*
X249110Y52000D03*
X259380Y52000D03*
X285000Y129840D03*
X285000Y111840D03*
X274000Y111840D03*
X274000Y120840D03*
X274000Y129840D03*
X299270Y129840D03*
X299270Y120840D03*
X299270Y111840D03*
X234810Y126840D03*
X244524Y126840D03*
X264000Y129840D03*
X264000Y120840D03*
X264000Y111840D03*
X220000Y98000D03*
X220000Y89000D03*
X285000Y120840D03*
X257730Y177110D03*
X245730Y177110D03*
X231730Y177110D03*
X217730Y177110D03*
X203730Y177110D03*
X189230Y177110D03*
X177730Y177110D03*
X165230Y177110D03*
X155580Y176880D03*
X146000Y174000D03*
X146000Y161000D03*
X146000Y147000D03*
X146000Y136000D03*
X146000Y124000D03*
X146000Y108000D03*
X162000Y83000D03*
X153000Y85000D03*
X143540Y191650D03*
X245000Y191110D03*
X232000Y191110D03*
X193000Y191110D03*
X166000Y191110D03*
X132000Y165000D03*
X132000Y151000D03*
X132000Y137000D03*
X132000Y122000D03*
X132000Y106000D03*
X132000Y177000D03*
X133000Y190000D03*
X258500Y191110D03*
X219000Y191110D03*
X206500Y191110D03*
X181000Y191110D03*
X154000Y191110D03*
X24930Y119650D03*
X24930Y109490D03*
X24930Y99330D03*
X328122Y50604D03*
X329750Y134920D03*
X329750Y124760D03*
X329750Y114600D03*
X118414Y49234D03*
X306070Y62992D03*
D16*
X101600Y215900D02*
X101600Y228600D01*
X127000Y228600D02*
X127000Y215900D01*
X254000Y12700D02*
X254000Y0D01*
X279400Y0D02*
X279400Y12700D01*
X50800Y12700D02*
X50800Y0D01*
D13*
X272270Y177570D03*
X193400Y87990D03*
D17*
X149000Y93000D02*
X139000Y103000D01*
X188390Y93000D02*
X193400Y87990D01*
X272270Y177570D02*
X265730Y184110D01*
X146050Y184110D01*
X149000Y93000D02*
X188390Y93000D01*
X139000Y177060D02*
X146050Y184110D01*
X139000Y177060D02*
X139000Y103000D01*
D16*
X177800Y12700D02*
X177800Y0D01*
X152400Y0D02*
X152400Y12700D01*
D13*
X255270Y82380D03*
D17*
X252606Y136926D02*
X257000Y141320D01*
X252606Y136926D02*
X252606Y85044D01*
X255270Y82380D01*
X257000Y141320D02*
X257000Y142570D01*
D13*
X257000Y141320D03*
D16*
X304800Y12700D02*
X304800Y0D01*
X330200Y0D02*
X330200Y12700D01*
D13*
X54000Y39000D03*
D18*
X65176Y27824D01*
X199176Y27824D01*
X203200Y23800D02*
X203200Y12700D01*
X203200Y23800D02*
X199176Y27824D01*
D16*
X203200Y12700D02*
X203200Y0D01*
X76200Y0D02*
X76200Y12700D01*
D13*
X328930Y184150D03*
D18*
X311150Y201930D01*
X140457Y201930D01*
X140457Y205227D01*
D13*
X140457Y205227D03*
D16*
X25400Y215900D02*
X25400Y228600D01*
D13*
X52241Y165300D03*
D18*
X52241Y180511D01*
X54610Y182880D01*
D13*
X54610Y182880D03*
M02*
