G04 EAGLE Gerber RS-274X export*
G75*
%MOMM*%
%FSLAX34Y34*%
%LPD*%
%INBottom Copper*%
%IPPOS*%
%AMOC8*
5,1,8,0,0,1.08239X$1,22.5*%
G01*
%ADD10C,2.184400*%
%ADD11P,2.089446X8X22.500000*%
%ADD12P,2.089446X8X202.500000*%
%ADD13C,1.800000*%
%ADD14C,1.524000*%
%ADD15C,1.000000*%
%ADD16P,2.089446X8X292.500000*%
%ADD17C,0.756400*%
%ADD18C,0.508000*%
%ADD19C,0.200000*%
%ADD20C,0.254000*%

G36*
X783193Y10157D02*
X783193Y10157D01*
X783195Y10157D01*
X789943Y16905D01*
X789943Y16907D01*
X789944Y16907D01*
X789945Y16909D01*
X789945Y554591D01*
X789943Y554593D01*
X789943Y554595D01*
X783195Y561343D01*
X783193Y561343D01*
X783193Y561344D01*
X783191Y561345D01*
X520814Y561345D01*
X520812Y561344D01*
X520811Y561344D01*
X520810Y561342D01*
X520809Y561340D01*
X520810Y561339D01*
X520810Y561336D01*
X523738Y558409D01*
X525339Y554542D01*
X525339Y550358D01*
X523738Y546491D01*
X520779Y543532D01*
X517612Y542221D01*
X517611Y542217D01*
X517609Y542216D01*
X517609Y530684D01*
X517612Y530681D01*
X517612Y530679D01*
X520779Y529368D01*
X523738Y526409D01*
X525339Y522542D01*
X525339Y518358D01*
X524028Y515191D01*
X524028Y515190D01*
X524028Y515189D01*
X524029Y515189D01*
X524029Y515188D01*
X524029Y515186D01*
X566524Y472691D01*
X566526Y472690D01*
X566527Y472689D01*
X607430Y472689D01*
X607432Y472691D01*
X607434Y472691D01*
X609944Y475201D01*
X614336Y475201D01*
X617441Y472096D01*
X617441Y468545D01*
X617443Y468544D01*
X617443Y468542D01*
X752994Y332991D01*
X752996Y332990D01*
X752997Y332990D01*
X752997Y332989D01*
X771438Y332989D01*
X774797Y331598D01*
X777368Y329027D01*
X778759Y325668D01*
X778759Y322032D01*
X777368Y318673D01*
X774797Y316102D01*
X771438Y314711D01*
X752562Y314711D01*
X749203Y316102D01*
X746632Y318673D01*
X745241Y322032D01*
X745241Y325668D01*
X746632Y329027D01*
X747847Y330242D01*
X747847Y330248D01*
X747847Y330249D01*
X613498Y464597D01*
X613496Y464598D01*
X613495Y464599D01*
X609944Y464599D01*
X607434Y467109D01*
X607431Y467110D01*
X607430Y467111D01*
X564215Y467111D01*
X520084Y511241D01*
X520080Y511242D01*
X520079Y511242D01*
X516912Y509931D01*
X512728Y509931D01*
X508861Y511532D01*
X505902Y514491D01*
X504301Y518358D01*
X504301Y522542D01*
X505902Y526409D01*
X508861Y529368D01*
X512028Y530679D01*
X512029Y530683D01*
X512031Y530684D01*
X512031Y542216D01*
X512028Y542219D01*
X512028Y542221D01*
X508861Y543532D01*
X505902Y546491D01*
X504301Y550358D01*
X504301Y554542D01*
X505902Y558409D01*
X508830Y561336D01*
X508830Y561338D01*
X508831Y561339D01*
X508830Y561341D01*
X508830Y561343D01*
X508828Y561343D01*
X508826Y561345D01*
X495814Y561345D01*
X495812Y561344D01*
X495811Y561344D01*
X495810Y561342D01*
X495809Y561340D01*
X495810Y561339D01*
X495810Y561336D01*
X498738Y558409D01*
X500339Y554542D01*
X500339Y550358D01*
X498738Y546491D01*
X495779Y543532D01*
X492612Y542221D01*
X492611Y542217D01*
X492609Y542216D01*
X492609Y530684D01*
X492612Y530681D01*
X492612Y530679D01*
X495779Y529368D01*
X498738Y526409D01*
X500339Y522542D01*
X500339Y518358D01*
X498738Y514491D01*
X495779Y511532D01*
X491912Y509931D01*
X487728Y509931D01*
X483861Y511532D01*
X480902Y514491D01*
X479301Y518358D01*
X479301Y522542D01*
X480902Y526409D01*
X483861Y529368D01*
X487028Y530679D01*
X487029Y530683D01*
X487031Y530684D01*
X487031Y542216D01*
X487028Y542219D01*
X487028Y542221D01*
X483861Y543532D01*
X480902Y546491D01*
X479301Y550358D01*
X479301Y554542D01*
X480902Y558409D01*
X483830Y561336D01*
X483830Y561338D01*
X483831Y561339D01*
X483830Y561341D01*
X483830Y561343D01*
X483828Y561343D01*
X483826Y561345D01*
X470814Y561345D01*
X470812Y561344D01*
X470811Y561344D01*
X470810Y561342D01*
X470809Y561340D01*
X470810Y561339D01*
X470810Y561336D01*
X473738Y558409D01*
X475339Y554542D01*
X475339Y550358D01*
X473738Y546491D01*
X470779Y543532D01*
X466912Y541931D01*
X462728Y541931D01*
X458861Y543532D01*
X455902Y546491D01*
X454301Y550358D01*
X454301Y554542D01*
X455902Y558409D01*
X458830Y561336D01*
X458830Y561338D01*
X458831Y561339D01*
X458830Y561341D01*
X458830Y561343D01*
X458828Y561343D01*
X458826Y561345D01*
X29609Y561345D01*
X29607Y561343D01*
X29605Y561343D01*
X10157Y541895D01*
X10156Y541893D01*
X10155Y541892D01*
X10155Y541891D01*
X10155Y16909D01*
X10157Y16907D01*
X10157Y16905D01*
X16905Y10157D01*
X16907Y10156D01*
X16909Y10155D01*
X783191Y10155D01*
X783193Y10157D01*
G37*
%LPC*%
G36*
X449924Y111539D02*
X449924Y111539D01*
X447144Y114319D01*
X447141Y114319D01*
X447141Y114320D01*
X447140Y114321D01*
X125957Y114321D01*
X124479Y115798D01*
X98018Y142259D01*
X98016Y142260D01*
X98014Y142261D01*
X24357Y142261D01*
X11658Y154959D01*
X10181Y156437D01*
X10181Y415843D01*
X11658Y417321D01*
X27532Y433195D01*
X27532Y433198D01*
X27533Y433199D01*
X27533Y433200D01*
X25659Y437725D01*
X25659Y442675D01*
X27553Y447247D01*
X31053Y450747D01*
X35625Y452641D01*
X40575Y452641D01*
X45147Y450747D01*
X48647Y447247D01*
X50541Y442675D01*
X50541Y437725D01*
X48647Y433153D01*
X45147Y429653D01*
X40575Y427759D01*
X35625Y427759D01*
X31100Y429633D01*
X31097Y429632D01*
X31095Y429632D01*
X15221Y413758D01*
X15220Y413756D01*
X15219Y413754D01*
X15219Y158526D01*
X15221Y158524D01*
X15221Y158522D01*
X26442Y147301D01*
X26444Y147300D01*
X26446Y147299D01*
X100103Y147299D01*
X128042Y119361D01*
X128044Y119360D01*
X128046Y119359D01*
X447140Y119359D01*
X447142Y119361D01*
X447144Y119361D01*
X449924Y122141D01*
X454316Y122141D01*
X457421Y119036D01*
X457421Y114644D01*
X454316Y111539D01*
X449924Y111539D01*
G37*
%LPD*%
%LPC*%
G36*
X752562Y289311D02*
X752562Y289311D01*
X749203Y290702D01*
X746632Y293273D01*
X745241Y296632D01*
X745241Y300268D01*
X746632Y303627D01*
X749117Y306112D01*
X749117Y306118D01*
X749117Y306119D01*
X616038Y439197D01*
X616036Y439198D01*
X616035Y439199D01*
X612484Y439199D01*
X609379Y442304D01*
X609379Y446696D01*
X612484Y449801D01*
X616876Y449801D01*
X619981Y446696D01*
X619981Y443145D01*
X619983Y443144D01*
X619983Y443142D01*
X755534Y307591D01*
X755536Y307590D01*
X755537Y307590D01*
X755537Y307589D01*
X771438Y307589D01*
X774797Y306198D01*
X777368Y303627D01*
X778759Y300268D01*
X778759Y296632D01*
X777368Y293273D01*
X774797Y290702D01*
X771438Y289311D01*
X752562Y289311D01*
G37*
%LPD*%
%LPC*%
G36*
X510687Y93283D02*
X510687Y93283D01*
X507303Y96667D01*
X507303Y100217D01*
X507301Y100219D01*
X507301Y100221D01*
X504735Y102788D01*
X504735Y175433D01*
X504733Y175435D01*
X504733Y175436D01*
X502223Y177947D01*
X502223Y182733D01*
X505607Y186117D01*
X510393Y186117D01*
X513777Y182733D01*
X513777Y177947D01*
X511267Y175436D01*
X511266Y175434D01*
X511265Y175433D01*
X511265Y168927D01*
X511266Y168926D01*
X511266Y168924D01*
X511268Y168924D01*
X511270Y168922D01*
X511271Y168924D01*
X511274Y168924D01*
X513227Y170877D01*
X518013Y170877D01*
X521397Y167493D01*
X521397Y162707D01*
X518887Y160196D01*
X518886Y160194D01*
X518885Y160193D01*
X518885Y115002D01*
X518890Y114997D01*
X518890Y114998D01*
X518890Y114997D01*
X520553Y114997D01*
X523937Y111613D01*
X523937Y106827D01*
X520553Y103443D01*
X516879Y103443D01*
X516878Y103442D01*
X516876Y103442D01*
X516876Y103440D01*
X516874Y103438D01*
X516876Y103437D01*
X516876Y103434D01*
X518857Y101453D01*
X518857Y96667D01*
X515473Y93283D01*
X510687Y93283D01*
G37*
%LPD*%
%LPC*%
G36*
X752467Y111035D02*
X752467Y111035D01*
X748933Y112499D01*
X746229Y115203D01*
X744765Y118737D01*
X744765Y122563D01*
X746229Y126097D01*
X748933Y128801D01*
X752467Y130265D01*
X771533Y130265D01*
X775067Y128801D01*
X777771Y126097D01*
X779235Y122563D01*
X779235Y118737D01*
X777771Y115203D01*
X775067Y112499D01*
X771533Y111035D01*
X752467Y111035D01*
G37*
%LPD*%
%LPC*%
G36*
X752467Y85635D02*
X752467Y85635D01*
X748933Y87099D01*
X746229Y89803D01*
X744765Y93337D01*
X744765Y97163D01*
X746229Y100697D01*
X748933Y103401D01*
X752467Y104865D01*
X771533Y104865D01*
X775067Y103401D01*
X777771Y100697D01*
X779235Y97163D01*
X779235Y93337D01*
X777771Y89803D01*
X775067Y87099D01*
X771533Y85635D01*
X752467Y85635D01*
G37*
%LPD*%
%LPC*%
G36*
X59083Y85345D02*
X59083Y85345D01*
X54157Y87386D01*
X50386Y91157D01*
X48345Y96083D01*
X48345Y101417D01*
X50386Y106343D01*
X54157Y110114D01*
X59084Y112155D01*
X64416Y112155D01*
X69343Y110114D01*
X73114Y106343D01*
X75155Y101416D01*
X75155Y96084D01*
X73114Y91157D01*
X69343Y87386D01*
X64417Y85345D01*
X59083Y85345D01*
G37*
%LPD*%
%LPC*%
G36*
X59083Y27545D02*
X59083Y27545D01*
X54157Y29586D01*
X50386Y33357D01*
X48345Y38283D01*
X48345Y43617D01*
X50386Y48543D01*
X54157Y52314D01*
X59084Y54355D01*
X64416Y54355D01*
X69343Y52314D01*
X73114Y48543D01*
X75155Y43616D01*
X75155Y38284D01*
X73114Y33357D01*
X69343Y29586D01*
X64417Y27545D01*
X59083Y27545D01*
G37*
%LPD*%
%LPC*%
G36*
X752562Y263911D02*
X752562Y263911D01*
X749203Y265302D01*
X746632Y267873D01*
X745241Y271232D01*
X745241Y274868D01*
X746632Y278227D01*
X749203Y280798D01*
X752562Y282189D01*
X771438Y282189D01*
X774797Y280798D01*
X777368Y278227D01*
X778759Y274868D01*
X778759Y271232D01*
X777368Y267873D01*
X774797Y265302D01*
X771438Y263911D01*
X752562Y263911D01*
G37*
%LPD*%
%LPC*%
G36*
X752562Y238511D02*
X752562Y238511D01*
X749203Y239902D01*
X746632Y242473D01*
X745241Y245832D01*
X745241Y249468D01*
X746632Y252827D01*
X749203Y255398D01*
X752562Y256789D01*
X771438Y256789D01*
X774797Y255398D01*
X777368Y252827D01*
X778759Y249468D01*
X778759Y245832D01*
X777368Y242473D01*
X774797Y239902D01*
X771438Y238511D01*
X752562Y238511D01*
G37*
%LPD*%
%LPC*%
G36*
X752562Y213111D02*
X752562Y213111D01*
X749203Y214502D01*
X746632Y217073D01*
X745241Y220432D01*
X745241Y224068D01*
X746632Y227427D01*
X749203Y229998D01*
X752562Y231389D01*
X771438Y231389D01*
X774797Y229998D01*
X777368Y227427D01*
X778759Y224068D01*
X778759Y220432D01*
X777368Y217073D01*
X774797Y214502D01*
X771438Y213111D01*
X752562Y213111D01*
G37*
%LPD*%
%LPC*%
G36*
X752562Y187711D02*
X752562Y187711D01*
X749203Y189102D01*
X746632Y191673D01*
X745241Y195032D01*
X745241Y198668D01*
X746632Y202027D01*
X749203Y204598D01*
X752562Y205989D01*
X771438Y205989D01*
X774797Y204598D01*
X777368Y202027D01*
X778759Y198668D01*
X778759Y195032D01*
X777368Y191673D01*
X774797Y189102D01*
X771438Y187711D01*
X752562Y187711D01*
G37*
%LPD*%
%LPC*%
G36*
X752562Y162311D02*
X752562Y162311D01*
X749203Y163702D01*
X746632Y166273D01*
X745241Y169632D01*
X745241Y173268D01*
X746632Y176627D01*
X749203Y179198D01*
X752562Y180589D01*
X771438Y180589D01*
X774797Y179198D01*
X777368Y176627D01*
X778759Y173268D01*
X778759Y169632D01*
X777368Y166273D01*
X774797Y163702D01*
X771438Y162311D01*
X752562Y162311D01*
G37*
%LPD*%
%LPC*%
G36*
X752562Y60711D02*
X752562Y60711D01*
X749203Y62102D01*
X746632Y64673D01*
X745241Y68032D01*
X745241Y71668D01*
X746632Y75027D01*
X749203Y77598D01*
X752562Y78989D01*
X771438Y78989D01*
X774797Y77598D01*
X777368Y75027D01*
X778759Y71668D01*
X778759Y68032D01*
X777368Y64673D01*
X774797Y62102D01*
X771438Y60711D01*
X752562Y60711D01*
G37*
%LPD*%
%LPC*%
G36*
X752562Y136911D02*
X752562Y136911D01*
X749203Y138302D01*
X746632Y140873D01*
X745241Y144232D01*
X745241Y147868D01*
X746632Y151227D01*
X749203Y153798D01*
X752562Y155189D01*
X771438Y155189D01*
X774797Y153798D01*
X777368Y151227D01*
X778759Y147868D01*
X778759Y144232D01*
X777368Y140873D01*
X774797Y138302D01*
X771438Y136911D01*
X752562Y136911D01*
G37*
%LPD*%
%LPC*%
G36*
X35625Y329409D02*
X35625Y329409D01*
X31053Y331303D01*
X27553Y334803D01*
X25659Y339375D01*
X25659Y344325D01*
X27553Y348897D01*
X31053Y352397D01*
X35625Y354291D01*
X40575Y354291D01*
X45147Y352397D01*
X48647Y348897D01*
X50541Y344325D01*
X50541Y339375D01*
X48647Y334803D01*
X45147Y331303D01*
X40575Y329409D01*
X35625Y329409D01*
G37*
%LPD*%
%LPC*%
G36*
X35625Y167409D02*
X35625Y167409D01*
X31053Y169303D01*
X27553Y172803D01*
X25659Y177375D01*
X25659Y182325D01*
X27553Y186897D01*
X31053Y190397D01*
X35625Y192291D01*
X40575Y192291D01*
X45147Y190397D01*
X48647Y186897D01*
X50541Y182325D01*
X50541Y177375D01*
X48647Y172803D01*
X45147Y169303D01*
X40575Y167409D01*
X35625Y167409D01*
G37*
%LPD*%
%LPC*%
G36*
X141423Y433329D02*
X141423Y433329D01*
X134879Y439873D01*
X134879Y449127D01*
X141423Y455671D01*
X150677Y455671D01*
X157221Y449127D01*
X157221Y439873D01*
X150677Y433329D01*
X141423Y433329D01*
G37*
%LPD*%
%LPC*%
G36*
X141423Y329189D02*
X141423Y329189D01*
X134879Y335733D01*
X134879Y344987D01*
X141423Y351531D01*
X150677Y351531D01*
X157221Y344987D01*
X157221Y335733D01*
X150677Y329189D01*
X141423Y329189D01*
G37*
%LPD*%
%LPC*%
G36*
X676093Y261879D02*
X676093Y261879D01*
X669549Y268423D01*
X669549Y277677D01*
X676093Y284221D01*
X685347Y284221D01*
X691891Y277677D01*
X691891Y268423D01*
X685347Y261879D01*
X676093Y261879D01*
G37*
%LPD*%
%LPC*%
G36*
X650693Y261879D02*
X650693Y261879D01*
X644149Y268423D01*
X644149Y277677D01*
X650693Y284221D01*
X659947Y284221D01*
X666491Y277677D01*
X666491Y268423D01*
X659947Y261879D01*
X650693Y261879D01*
G37*
%LPD*%
%LPC*%
G36*
X141423Y172979D02*
X141423Y172979D01*
X134879Y179523D01*
X134879Y188777D01*
X141423Y195321D01*
X150677Y195321D01*
X157221Y188777D01*
X157221Y179523D01*
X150677Y172979D01*
X141423Y172979D01*
G37*
%LPD*%
%LPC*%
G36*
X462728Y509931D02*
X462728Y509931D01*
X458861Y511532D01*
X455902Y514491D01*
X454301Y518358D01*
X454301Y522542D01*
X455902Y526409D01*
X458861Y529368D01*
X462728Y530969D01*
X466912Y530969D01*
X470779Y529368D01*
X473738Y526409D01*
X475339Y522542D01*
X475339Y518358D01*
X473738Y514491D01*
X470779Y511532D01*
X466912Y509931D01*
X462728Y509931D01*
G37*
%LPD*%
D10*
X38100Y341850D03*
X38100Y306850D03*
D11*
X146050Y444500D03*
X146050Y469900D03*
D12*
X146050Y340360D03*
X146050Y314960D03*
D11*
X146050Y184150D03*
X146050Y209550D03*
D13*
X489820Y520450D03*
X489820Y552450D03*
X514820Y552450D03*
X464820Y552450D03*
X464820Y520450D03*
X514820Y520450D03*
D14*
X754380Y323850D02*
X769620Y323850D01*
X769620Y298450D02*
X754380Y298450D01*
X754380Y273050D02*
X769620Y273050D01*
X769620Y247650D02*
X754380Y247650D01*
X754380Y222250D02*
X769620Y222250D01*
X769620Y196850D02*
X754380Y196850D01*
X754380Y171450D02*
X769620Y171450D01*
X769620Y146050D02*
X754380Y146050D01*
X754380Y120650D02*
X769620Y120650D01*
X769620Y95250D02*
X754380Y95250D01*
X754380Y69850D02*
X769620Y69850D01*
X769620Y44450D02*
X754380Y44450D01*
D15*
X72550Y113050D02*
X61550Y113050D01*
X61550Y26650D02*
X72550Y26650D01*
X28250Y113050D02*
X22250Y113050D01*
X22250Y26650D02*
X28250Y26650D01*
D10*
X38100Y475200D03*
X38100Y440200D03*
X38100Y214850D03*
X38100Y179850D03*
D16*
X655320Y273050D03*
X680720Y273050D03*
D17*
X629920Y525780D03*
X411480Y518160D03*
X137160Y91440D03*
D18*
X137160Y43180D01*
X132080Y38100D02*
X129540Y38100D01*
D17*
X129540Y38100D03*
D18*
X132080Y38100D02*
X137160Y43180D01*
D17*
X132080Y497840D03*
X474980Y378460D03*
X474980Y363220D03*
X474980Y342900D03*
X490220Y332740D03*
X510540Y332740D03*
X515620Y353060D03*
X518160Y373380D03*
X495300Y391160D03*
X497840Y363220D03*
X508000Y223520D03*
X508000Y243840D03*
X485140Y254000D03*
X462280Y256540D03*
X459740Y223520D03*
X459740Y203200D03*
X490220Y203200D03*
X424180Y393700D03*
X424180Y337820D03*
X424180Y266700D03*
X426720Y190500D03*
X556260Y167640D03*
X553720Y254000D03*
X551180Y345440D03*
X548640Y416560D03*
X426720Y472440D03*
X480060Y477520D03*
X528320Y477520D03*
X35560Y259080D03*
X81280Y261620D03*
X127000Y261620D03*
X165100Y264160D03*
X226060Y312420D03*
X223520Y289560D03*
X228600Y256540D03*
X220980Y223520D03*
X292100Y302260D03*
X289560Y271780D03*
X292100Y236220D03*
X292100Y215900D03*
X314960Y264160D03*
X347980Y264160D03*
X325120Y231140D03*
X347980Y231140D03*
X414020Y243840D03*
X414020Y218440D03*
X60960Y218440D03*
X119380Y215900D03*
X170180Y215900D03*
X190500Y215900D03*
X71120Y474980D03*
X116840Y477520D03*
X172720Y474980D03*
X218440Y474980D03*
X246380Y474980D03*
X281940Y477520D03*
X304800Y490220D03*
X327660Y490220D03*
X347980Y490220D03*
X370840Y490220D03*
X187960Y309880D03*
X114300Y309880D03*
X33020Y88900D03*
X33020Y48260D03*
X111760Y63500D03*
X152400Y63500D03*
X187960Y60960D03*
X236220Y60960D03*
X276860Y63500D03*
X312420Y60960D03*
X368300Y63500D03*
X396240Y78740D03*
X416560Y96520D03*
X154940Y91440D03*
X200660Y93980D03*
X238760Y93980D03*
X287020Y91440D03*
X335280Y99060D03*
X421640Y167640D03*
X398780Y134620D03*
X370840Y127000D03*
X317500Y127000D03*
X271780Y127000D03*
X233680Y127000D03*
X129540Y139700D03*
X167640Y139700D03*
X203200Y139700D03*
X464820Y154940D03*
X441960Y134620D03*
X546100Y137160D03*
X574040Y139700D03*
X622300Y134620D03*
X660400Y132080D03*
X688340Y132080D03*
X683260Y86360D03*
X647700Y86360D03*
X607060Y83820D03*
X571500Y86360D03*
X541020Y86360D03*
X497840Y101600D03*
X508000Y83820D03*
X474980Y132080D03*
X447040Y91440D03*
X474980Y60960D03*
X551180Y58420D03*
X609600Y58420D03*
X660400Y58420D03*
X706120Y58420D03*
X622300Y396240D03*
X622300Y378460D03*
X637540Y403860D03*
X637540Y386080D03*
X629920Y508000D03*
X629920Y477520D03*
X698500Y464820D03*
X734060Y464820D03*
X556260Y558800D03*
X589280Y558800D03*
X617220Y558800D03*
X647700Y558800D03*
X685800Y558800D03*
X711200Y556260D03*
X228600Y528320D03*
X226060Y505460D03*
X284480Y533400D03*
X281940Y500380D03*
X241300Y543560D03*
X266700Y543560D03*
X50800Y543560D03*
X116840Y548640D03*
X187960Y546100D03*
X327660Y548640D03*
X388620Y546100D03*
X20320Y533400D03*
X63500Y312420D03*
X63500Y287020D03*
X63500Y261620D03*
X86360Y132080D03*
X40640Y134620D03*
X355600Y393700D03*
X355600Y368300D03*
X454660Y431800D03*
X543560Y200660D03*
X452120Y116840D03*
D19*
X127000Y116840D01*
X99060Y144780D02*
X25400Y144780D01*
X12700Y157480D01*
X12700Y414800D02*
X38100Y440200D01*
X99060Y144780D02*
X127000Y116840D01*
X12700Y157480D02*
X12700Y414800D01*
D17*
X612140Y469900D03*
D20*
X758190Y323850D02*
X762000Y323850D01*
X758190Y323850D02*
X612140Y469900D01*
X565370Y469900D01*
X514820Y520450D01*
X514820Y552450D01*
D17*
X614680Y444500D03*
D20*
X760730Y298450D01*
X762000Y298450D01*
D17*
X515620Y165100D03*
D20*
X515620Y111760D01*
D17*
X518160Y109220D03*
D20*
X515620Y111760D01*
D17*
X508000Y180340D03*
D20*
X508000Y104140D01*
X513080Y99060D01*
D17*
X513080Y99060D03*
D20*
X489820Y520450D02*
X489820Y552450D01*
M02*
