G04 EAGLE Gerber RS-274X export*
G75*
%MOMM*%
%FSLAX34Y34*%
%LPD*%
%INTop Copper*%
%IPPOS*%
%AMOC8*
5,1,8,0,0,1.08239X$1,22.5*%
G01*
%ADD10C,2.184400*%
%ADD11R,2.500000X4.000000*%
%ADD12R,1.000000X1.100000*%
%ADD13R,1.400000X2.200000*%
%ADD14P,2.089446X8X22.500000*%
%ADD15P,2.089446X8X202.500000*%
%ADD16C,1.800000*%
%ADD17R,0.700000X0.850000*%
%ADD18R,0.635000X1.270000*%
%ADD19C,0.254000*%
%ADD20R,0.800000X0.800000*%
%ADD21C,1.524000*%
%ADD22R,3.200400X2.032000*%
%ADD23R,1.400000X1.200000*%
%ADD24R,2.800000X2.800000*%
%ADD25R,2.200000X3.500000*%
%ADD26R,1.100000X1.000000*%
%ADD27R,0.850000X0.700000*%
%ADD28R,1.450000X0.300000*%
%ADD29R,1.450000X0.600000*%
%ADD30R,1.450000X0.550000*%
%ADD31C,1.000000*%
%ADD32R,5.500000X1.000000*%
%ADD33R,3.000000X1.600000*%
%ADD34R,4.600000X1.000000*%
%ADD35R,3.400000X1.600000*%
%ADD36R,0.200000X0.500000*%
%ADD37P,2.089446X8X292.500000*%
%ADD38R,0.910000X1.220000*%
%ADD39C,0.200000*%
%ADD40C,0.756400*%
%ADD41C,0.508000*%

G36*
X783193Y10157D02*
X783193Y10157D01*
X783195Y10157D01*
X789943Y16905D01*
X789943Y16907D01*
X789944Y16907D01*
X789945Y16909D01*
X789945Y554591D01*
X789943Y554593D01*
X789943Y554595D01*
X783195Y561343D01*
X783193Y561343D01*
X783193Y561344D01*
X783191Y561345D01*
X782570Y561345D01*
X782565Y561340D01*
X782566Y561340D01*
X782565Y561340D01*
X782565Y544380D01*
X781080Y542895D01*
X744980Y542895D01*
X743495Y544380D01*
X743495Y561340D01*
X743490Y561345D01*
X743490Y561344D01*
X743490Y561345D01*
X522250Y561345D01*
X522249Y561344D01*
X522247Y561344D01*
X522247Y561342D01*
X522245Y561340D01*
X522247Y561339D01*
X522247Y561336D01*
X524599Y558984D01*
X526355Y554744D01*
X526355Y550156D01*
X524599Y545916D01*
X521354Y542671D01*
X517115Y540915D01*
X512525Y540915D01*
X508286Y542671D01*
X505041Y545916D01*
X503285Y550155D01*
X503285Y554745D01*
X505041Y558984D01*
X507393Y561336D01*
X507393Y561338D01*
X507395Y561339D01*
X507393Y561341D01*
X507394Y561343D01*
X507391Y561343D01*
X507390Y561345D01*
X497250Y561345D01*
X497249Y561344D01*
X497247Y561344D01*
X497247Y561342D01*
X497245Y561340D01*
X497247Y561339D01*
X497247Y561336D01*
X499599Y558984D01*
X501355Y554744D01*
X501355Y550156D01*
X499599Y545916D01*
X496354Y542671D01*
X492115Y540915D01*
X487525Y540915D01*
X483286Y542671D01*
X480041Y545916D01*
X478285Y550155D01*
X478285Y554745D01*
X480041Y558984D01*
X482393Y561336D01*
X482393Y561338D01*
X482395Y561339D01*
X482393Y561341D01*
X482394Y561343D01*
X482391Y561343D01*
X482390Y561345D01*
X472250Y561345D01*
X472249Y561344D01*
X472247Y561344D01*
X472247Y561342D01*
X472245Y561340D01*
X472247Y561339D01*
X472247Y561336D01*
X474599Y558984D01*
X476355Y554744D01*
X476355Y550156D01*
X474599Y545916D01*
X471354Y542671D01*
X467115Y540915D01*
X462525Y540915D01*
X458286Y542671D01*
X455041Y545916D01*
X453285Y550155D01*
X453285Y554745D01*
X455041Y558984D01*
X457393Y561336D01*
X457393Y561338D01*
X457395Y561339D01*
X457393Y561341D01*
X457394Y561343D01*
X457391Y561343D01*
X457390Y561345D01*
X29609Y561345D01*
X29607Y561343D01*
X29605Y561343D01*
X10157Y541895D01*
X10156Y541893D01*
X10155Y541892D01*
X10155Y541891D01*
X10155Y16909D01*
X10157Y16907D01*
X10157Y16905D01*
X16905Y10157D01*
X16907Y10156D01*
X16909Y10155D01*
X783191Y10155D01*
X783193Y10157D01*
G37*
%LPC*%
G36*
X365726Y254005D02*
X365726Y254005D01*
X364241Y255490D01*
X364241Y277910D01*
X365727Y279396D01*
X365728Y279403D01*
X365727Y279403D01*
X365727Y279404D01*
X364241Y280890D01*
X364241Y303310D01*
X365600Y304669D01*
X365600Y304671D01*
X365601Y304672D01*
X365600Y304674D01*
X365600Y304676D01*
X365598Y304676D01*
X365597Y304678D01*
X313857Y304678D01*
X293539Y324996D01*
X293536Y324997D01*
X293535Y324998D01*
X21757Y324998D01*
X12578Y334177D01*
X12578Y384643D01*
X21757Y393822D01*
X308443Y393822D01*
X346541Y355724D01*
X346544Y355723D01*
X346545Y355722D01*
X365597Y355722D01*
X365598Y355723D01*
X365600Y355723D01*
X365600Y355725D01*
X365601Y355727D01*
X365600Y355728D01*
X365600Y355731D01*
X364241Y357090D01*
X364241Y379510D01*
X365727Y380996D01*
X365728Y381003D01*
X365727Y381003D01*
X365727Y381004D01*
X364241Y382490D01*
X364241Y404910D01*
X365600Y406269D01*
X365600Y406271D01*
X365601Y406272D01*
X365600Y406274D01*
X365600Y406276D01*
X365598Y406276D01*
X365597Y406278D01*
X274085Y406278D01*
X274083Y406276D01*
X274082Y406276D01*
X273900Y406095D01*
X246800Y406095D01*
X246618Y406276D01*
X246616Y406277D01*
X246615Y406278D01*
X24297Y406278D01*
X20198Y410377D01*
X20198Y451939D01*
X20196Y451941D01*
X20196Y451942D01*
X11435Y460704D01*
X11435Y501956D01*
X13665Y504187D01*
X23824Y514345D01*
X85250Y514345D01*
X85255Y514350D01*
X85254Y514350D01*
X85255Y514350D01*
X85255Y515840D01*
X86740Y517325D01*
X95840Y517325D01*
X97325Y515840D01*
X97325Y505240D01*
X95840Y503755D01*
X86740Y503755D01*
X85255Y505240D01*
X85255Y506730D01*
X85250Y506735D01*
X85250Y506734D01*
X85250Y506735D01*
X26978Y506735D01*
X26976Y506733D01*
X26975Y506733D01*
X19047Y498805D01*
X19047Y498804D01*
X19045Y498803D01*
X19046Y498802D01*
X19045Y498802D01*
X19045Y463858D01*
X19047Y463856D01*
X19047Y463855D01*
X25578Y457324D01*
X25580Y457323D01*
X25581Y457323D01*
X25581Y457322D01*
X298615Y457322D01*
X298617Y457324D01*
X298619Y457324D01*
X303697Y462402D01*
X323465Y462402D01*
X323467Y462404D01*
X323468Y462404D01*
X324150Y463085D01*
X336250Y463085D01*
X336932Y462404D01*
X336934Y462403D01*
X336935Y462402D01*
X342515Y462402D01*
X342517Y462404D01*
X342518Y462404D01*
X343200Y463085D01*
X355300Y463085D01*
X355982Y462404D01*
X355984Y462403D01*
X355985Y462402D01*
X379887Y462402D01*
X379892Y462407D01*
X379893Y462435D01*
X379895Y462460D01*
X379896Y462485D01*
X379897Y462510D01*
X379901Y462579D01*
X379902Y462604D01*
X379903Y462629D01*
X379905Y462654D01*
X379910Y462748D01*
X379911Y462773D01*
X379912Y462798D01*
X379913Y462823D01*
X379918Y462917D01*
X379920Y462942D01*
X379921Y462967D01*
X379926Y463061D01*
X379927Y463086D01*
X379928Y463111D01*
X379930Y463136D01*
X379934Y463230D01*
X379936Y463255D01*
X379937Y463280D01*
X379938Y463305D01*
X379942Y463374D01*
X379943Y463399D01*
X379944Y463424D01*
X379946Y463449D01*
X379951Y463543D01*
X379952Y463568D01*
X379953Y463593D01*
X379954Y463618D01*
X379958Y463687D01*
X379959Y463712D01*
X379961Y463737D01*
X379962Y463762D01*
X379967Y463856D01*
X379968Y463881D01*
X379969Y463906D01*
X379971Y463931D01*
X379975Y464025D01*
X379976Y464025D01*
X379975Y464025D01*
X379977Y464050D01*
X379978Y464075D01*
X379983Y464169D01*
X379984Y464194D01*
X379985Y464219D01*
X379986Y464219D01*
X379985Y464219D01*
X379987Y464244D01*
X379992Y464338D01*
X379993Y464363D01*
X379994Y464388D01*
X379995Y464413D01*
X379996Y464413D01*
X379999Y464482D01*
X380000Y464507D01*
X380002Y464532D01*
X380003Y464557D01*
X380008Y464651D01*
X380009Y464676D01*
X380010Y464701D01*
X380012Y464726D01*
X380015Y464795D01*
X380017Y464820D01*
X380018Y464845D01*
X380019Y464870D01*
X380024Y464964D01*
X380025Y464989D01*
X380027Y465014D01*
X380028Y465039D01*
X380033Y465133D01*
X380034Y465158D01*
X380035Y465183D01*
X380040Y465277D01*
X380041Y465302D01*
X380043Y465327D01*
X380044Y465352D01*
X380049Y465446D01*
X380050Y465471D01*
X380051Y465496D01*
X380056Y465590D01*
X380058Y465615D01*
X380059Y465640D01*
X380060Y465665D01*
X380065Y465759D01*
X380066Y465784D01*
X380068Y465809D01*
X380069Y465834D01*
X380072Y465903D01*
X380074Y465928D01*
X380075Y465953D01*
X380076Y465978D01*
X380081Y466072D01*
X380082Y466097D01*
X380084Y466122D01*
X380085Y466147D01*
X380090Y466241D01*
X380091Y466266D01*
X380092Y466291D01*
X380097Y466385D01*
X380099Y466410D01*
X380100Y466435D01*
X380101Y466460D01*
X380106Y466554D01*
X380107Y466579D01*
X380109Y466604D01*
X380113Y466698D01*
X380115Y466723D01*
X380116Y466748D01*
X380117Y466773D01*
X380122Y466867D01*
X380123Y466892D01*
X380125Y466917D01*
X380126Y466942D01*
X380130Y467011D01*
X380131Y467036D01*
X380132Y467061D01*
X380133Y467086D01*
X380138Y467180D01*
X380140Y467205D01*
X380141Y467230D01*
X380142Y467255D01*
X380147Y467349D01*
X380148Y467374D01*
X380150Y467399D01*
X380154Y467493D01*
X380155Y467493D01*
X380154Y467493D01*
X380156Y467518D01*
X380157Y467543D01*
X380158Y467568D01*
X380163Y467662D01*
X380164Y467687D01*
X380165Y467687D01*
X380164Y467687D01*
X380166Y467712D01*
X380171Y467806D01*
X380172Y467831D01*
X380173Y467856D01*
X380174Y467881D01*
X380175Y467881D01*
X380179Y467975D01*
X380181Y468000D01*
X380182Y468025D01*
X380183Y468050D01*
X380187Y468119D01*
X380188Y468144D01*
X380189Y468169D01*
X380191Y468194D01*
X380196Y468288D01*
X380197Y468313D01*
X380198Y468338D01*
X380199Y468363D01*
X380203Y468432D01*
X380204Y468457D01*
X380206Y468482D01*
X380207Y468507D01*
X380212Y468601D01*
X380213Y468626D01*
X380214Y468651D01*
X380216Y468676D01*
X380220Y468770D01*
X380222Y468795D01*
X380223Y468820D01*
X380228Y468914D01*
X380229Y468939D01*
X380230Y468964D01*
X380232Y468989D01*
X380237Y469083D01*
X380238Y469108D01*
X380239Y469133D01*
X380240Y469158D01*
X380244Y469227D01*
X380245Y469252D01*
X380247Y469277D01*
X380248Y469302D01*
X380253Y469396D01*
X380254Y469421D01*
X380255Y469446D01*
X380257Y469471D01*
X380260Y469540D01*
X380261Y469565D01*
X380263Y469590D01*
X380264Y469615D01*
X380269Y469709D01*
X380270Y469734D01*
X380271Y469759D01*
X380273Y469784D01*
X380278Y469878D01*
X380279Y469903D01*
X380280Y469928D01*
X380285Y470022D01*
X380286Y470047D01*
X380288Y470072D01*
X380289Y470097D01*
X380294Y470191D01*
X380295Y470216D01*
X380296Y470241D01*
X380298Y470266D01*
X380301Y470335D01*
X380302Y470360D01*
X380304Y470385D01*
X380305Y470410D01*
X380310Y470504D01*
X380311Y470529D01*
X380312Y470554D01*
X380314Y470579D01*
X380317Y470648D01*
X380319Y470673D01*
X380320Y470698D01*
X380321Y470723D01*
X380326Y470817D01*
X380327Y470842D01*
X380329Y470867D01*
X380330Y470892D01*
X380335Y470986D01*
X380336Y471011D01*
X380337Y471036D01*
X380342Y471130D01*
X380343Y471155D01*
X380344Y471155D01*
X380343Y471155D01*
X380345Y471180D01*
X380346Y471205D01*
X380351Y471299D01*
X380352Y471324D01*
X380353Y471349D01*
X380354Y471349D01*
X380353Y471349D01*
X380358Y471443D01*
X380360Y471468D01*
X380361Y471493D01*
X380362Y471518D01*
X380367Y471612D01*
X380368Y471637D01*
X380370Y471662D01*
X380371Y471687D01*
X380375Y471756D01*
X380376Y471781D01*
X380377Y471806D01*
X380378Y471831D01*
X380383Y471925D01*
X380385Y471950D01*
X380386Y471975D01*
X380387Y472000D01*
X380392Y472094D01*
X380393Y472119D01*
X380395Y472144D01*
X380399Y472238D01*
X380401Y472263D01*
X380402Y472288D01*
X380403Y472313D01*
X380408Y472407D01*
X380409Y472432D01*
X380411Y472457D01*
X380416Y472551D01*
X380417Y472576D01*
X380418Y472601D01*
X380419Y472626D01*
X380424Y472720D01*
X380426Y472745D01*
X380427Y472770D01*
X380428Y472795D01*
X380432Y472864D01*
X380433Y472889D01*
X380434Y472914D01*
X380436Y472939D01*
X380440Y473033D01*
X380442Y473058D01*
X380443Y473083D01*
X380444Y473108D01*
X380448Y473177D01*
X380449Y473202D01*
X380450Y473227D01*
X380452Y473252D01*
X380457Y473346D01*
X380458Y473371D01*
X380459Y473396D01*
X380460Y473421D01*
X380465Y473515D01*
X380467Y473540D01*
X380468Y473565D01*
X380473Y473659D01*
X380474Y473684D01*
X380475Y473709D01*
X380477Y473734D01*
X380481Y473828D01*
X380483Y473853D01*
X380484Y473878D01*
X380485Y473903D01*
X380489Y473972D01*
X380490Y473997D01*
X380491Y474022D01*
X380493Y474047D01*
X380498Y474141D01*
X380499Y474166D01*
X380500Y474191D01*
X380501Y474216D01*
X380505Y474285D01*
X380505Y474286D01*
X380506Y474310D01*
X380508Y474335D01*
X380509Y474360D01*
X380514Y474454D01*
X380515Y474479D01*
X380516Y474504D01*
X380518Y474529D01*
X380522Y474623D01*
X380523Y474623D01*
X380522Y474623D01*
X380524Y474648D01*
X380525Y474673D01*
X380530Y474767D01*
X380531Y474792D01*
X380532Y474817D01*
X380533Y474817D01*
X380532Y474817D01*
X380534Y474842D01*
X380539Y474936D01*
X380540Y474961D01*
X380541Y474986D01*
X380542Y475011D01*
X380543Y475011D01*
X380546Y475080D01*
X380546Y475081D01*
X380547Y475105D01*
X380549Y475130D01*
X380550Y475155D01*
X380555Y475249D01*
X380556Y475274D01*
X380557Y475299D01*
X380559Y475324D01*
X380562Y475393D01*
X380562Y475394D01*
X380564Y475418D01*
X380565Y475443D01*
X380566Y475468D01*
X380571Y475562D01*
X380572Y475587D01*
X380574Y475612D01*
X380575Y475637D01*
X380580Y475731D01*
X380581Y475756D01*
X380582Y475781D01*
X380587Y475875D01*
X380587Y475876D01*
X380588Y475900D01*
X380590Y475925D01*
X380591Y475950D01*
X380596Y476044D01*
X380597Y476069D01*
X380598Y476094D01*
X380603Y476188D01*
X380603Y476189D01*
X380605Y476213D01*
X380606Y476238D01*
X380607Y476263D01*
X380612Y476357D01*
X380613Y476382D01*
X380615Y476407D01*
X380616Y476432D01*
X380619Y476502D01*
X380621Y476526D01*
X380622Y476551D01*
X380623Y476576D01*
X380628Y476670D01*
X380628Y476671D01*
X380629Y476695D01*
X380631Y476720D01*
X380632Y476745D01*
X380637Y476839D01*
X380638Y476864D01*
X380639Y476889D01*
X380644Y476983D01*
X380644Y476984D01*
X380646Y477008D01*
X380647Y477033D01*
X380648Y477058D01*
X380653Y477152D01*
X380654Y477177D01*
X380656Y477202D01*
X380660Y477297D01*
X380662Y477321D01*
X380663Y477346D01*
X380664Y477371D01*
X380669Y477465D01*
X380669Y477466D01*
X380670Y477490D01*
X380672Y477515D01*
X380673Y477540D01*
X380677Y477610D01*
X380678Y477634D01*
X380679Y477659D01*
X380680Y477684D01*
X380685Y477778D01*
X380685Y477779D01*
X380687Y477803D01*
X380688Y477828D01*
X380689Y477853D01*
X380694Y477947D01*
X380695Y477972D01*
X380697Y477997D01*
X380701Y478092D01*
X380702Y478092D01*
X380701Y478092D01*
X380703Y478116D01*
X380704Y478141D01*
X380705Y478166D01*
X380710Y478260D01*
X380710Y478261D01*
X380711Y478285D01*
X380712Y478285D01*
X380711Y478285D01*
X380713Y478310D01*
X380718Y478405D01*
X380719Y478429D01*
X380720Y478454D01*
X380721Y478479D01*
X380722Y478479D01*
X380726Y478573D01*
X380726Y478574D01*
X380728Y478598D01*
X380729Y478623D01*
X380730Y478648D01*
X380734Y478718D01*
X380735Y478742D01*
X380736Y478767D01*
X380738Y478792D01*
X380743Y478887D01*
X380744Y478911D01*
X380745Y478936D01*
X380746Y478961D01*
X380750Y479031D01*
X380751Y479055D01*
X380751Y479056D01*
X380753Y479080D01*
X380754Y479105D01*
X380759Y479200D01*
X380760Y479224D01*
X380761Y479249D01*
X380763Y479274D01*
X380767Y479368D01*
X380767Y479369D01*
X380769Y479393D01*
X380770Y479418D01*
X380775Y479513D01*
X380776Y479537D01*
X380777Y479562D01*
X380779Y479587D01*
X380784Y479682D01*
X380785Y479706D01*
X380786Y479731D01*
X380787Y479756D01*
X380791Y479826D01*
X380792Y479850D01*
X380792Y479851D01*
X380794Y479875D01*
X380795Y479900D01*
X380800Y479995D01*
X380801Y480019D01*
X380802Y480044D01*
X380804Y480069D01*
X380807Y480139D01*
X380808Y480163D01*
X380808Y480164D01*
X380810Y480188D01*
X380811Y480213D01*
X380816Y480308D01*
X380817Y480332D01*
X380818Y480357D01*
X380820Y480382D01*
X380825Y480477D01*
X380826Y480501D01*
X380827Y480526D01*
X380832Y480621D01*
X380833Y480645D01*
X380833Y480646D01*
X380835Y480670D01*
X380836Y480695D01*
X380841Y480790D01*
X380842Y480814D01*
X380843Y480839D01*
X380845Y480864D01*
X380848Y480934D01*
X380849Y480958D01*
X380849Y480959D01*
X380851Y480983D01*
X380852Y481008D01*
X380857Y481103D01*
X380858Y481127D01*
X380859Y481152D01*
X380861Y481177D01*
X380864Y481247D01*
X380866Y481272D01*
X380867Y481296D01*
X380868Y481321D01*
X380873Y481416D01*
X380874Y481440D01*
X380874Y481441D01*
X380876Y481465D01*
X380877Y481490D01*
X380882Y481585D01*
X380883Y481609D01*
X380884Y481634D01*
X380889Y481729D01*
X380890Y481753D01*
X380891Y481754D01*
X380890Y481754D01*
X380892Y481778D01*
X380893Y481803D01*
X380898Y481898D01*
X380899Y481922D01*
X380900Y481947D01*
X380901Y481947D01*
X380900Y481947D01*
X380905Y482042D01*
X380907Y482067D01*
X380908Y482091D01*
X380909Y482116D01*
X380914Y482211D01*
X380915Y482235D01*
X380915Y482236D01*
X380917Y482260D01*
X380918Y482285D01*
X380922Y482355D01*
X380923Y482380D01*
X380924Y482404D01*
X380925Y482429D01*
X380930Y482524D01*
X380932Y482548D01*
X380932Y482549D01*
X380933Y482573D01*
X380934Y482598D01*
X380939Y482693D01*
X380940Y482717D01*
X380942Y482742D01*
X380946Y482837D01*
X380948Y482862D01*
X380949Y482886D01*
X380950Y482911D01*
X380955Y483006D01*
X380956Y483030D01*
X380956Y483031D01*
X380958Y483055D01*
X380963Y483150D01*
X380964Y483175D01*
X380965Y483199D01*
X380966Y483224D01*
X380971Y483319D01*
X380973Y483343D01*
X380973Y483344D01*
X380974Y483368D01*
X380975Y483393D01*
X380979Y483463D01*
X380980Y483488D01*
X380981Y483512D01*
X380983Y483537D01*
X380987Y483632D01*
X380989Y483657D01*
X380990Y483681D01*
X380991Y483706D01*
X380995Y483776D01*
X380996Y483801D01*
X380997Y483825D01*
X380997Y483826D01*
X380999Y483850D01*
X381004Y483945D01*
X381005Y483968D01*
X381005Y485446D01*
X381084Y485525D01*
X381084Y485527D01*
X381085Y485529D01*
X381086Y485540D01*
X381088Y485584D01*
X381089Y485609D01*
X381090Y485609D01*
X381089Y485609D01*
X381091Y485640D01*
X382189Y486630D01*
X397513Y501955D01*
X399744Y504185D01*
X606096Y504185D01*
X623565Y486716D01*
X623565Y465278D01*
X623567Y465276D01*
X623567Y465275D01*
X629265Y459577D01*
X629267Y459576D01*
X629268Y459575D01*
X635220Y459575D01*
X636705Y458090D01*
X636705Y448990D01*
X635220Y447505D01*
X624620Y447505D01*
X623135Y448990D01*
X623135Y454942D01*
X623133Y454944D01*
X623133Y454945D01*
X615955Y462124D01*
X615955Y464769D01*
X615954Y464770D01*
X615954Y464772D01*
X615952Y464772D01*
X615950Y464774D01*
X615949Y464772D01*
X615946Y464772D01*
X615718Y464545D01*
X613916Y463798D01*
X613915Y463795D01*
X613913Y463793D01*
X613913Y458690D01*
X612427Y457204D01*
X612426Y457197D01*
X612427Y457197D01*
X612427Y457196D01*
X613913Y455710D01*
X613913Y450822D01*
X613918Y450817D01*
X613918Y450818D01*
X613918Y450817D01*
X615937Y450817D01*
X618258Y449855D01*
X620035Y448078D01*
X620997Y445757D01*
X620997Y444350D01*
X621002Y444345D01*
X621002Y444346D01*
X621002Y444345D01*
X623130Y444345D01*
X623135Y444350D01*
X623134Y444350D01*
X623135Y444350D01*
X623135Y445090D01*
X624620Y446575D01*
X635220Y446575D01*
X636705Y445090D01*
X636705Y435990D01*
X635220Y434505D01*
X624620Y434505D01*
X623135Y435990D01*
X623135Y436730D01*
X623130Y436735D01*
X623130Y436734D01*
X623130Y436735D01*
X617064Y436735D01*
X615617Y438181D01*
X615615Y438182D01*
X615614Y438183D01*
X613918Y438183D01*
X613913Y438178D01*
X613914Y438178D01*
X613913Y438178D01*
X613913Y433290D01*
X612427Y431804D01*
X612426Y431797D01*
X612427Y431797D01*
X612427Y431796D01*
X613913Y430310D01*
X613913Y407890D01*
X612428Y406405D01*
X578324Y406405D01*
X576839Y407890D01*
X576839Y430310D01*
X578325Y431796D01*
X578326Y431803D01*
X578325Y431803D01*
X578325Y431804D01*
X576839Y433290D01*
X576839Y455710D01*
X578325Y457196D01*
X578326Y457203D01*
X578325Y457203D01*
X578325Y457204D01*
X576839Y458690D01*
X576839Y481110D01*
X578324Y482595D01*
X612428Y482595D01*
X613913Y481110D01*
X613913Y476007D01*
X613916Y476004D01*
X613916Y476002D01*
X615718Y475255D01*
X615946Y475028D01*
X615948Y475027D01*
X615949Y475026D01*
X615950Y475026D01*
X615951Y475027D01*
X615953Y475027D01*
X615953Y475029D01*
X615955Y475031D01*
X615955Y483562D01*
X615953Y483564D01*
X615953Y483565D01*
X602945Y496573D01*
X602943Y496574D01*
X602942Y496575D01*
X402898Y496575D01*
X402896Y496573D01*
X402895Y496573D01*
X388536Y482215D01*
X388536Y482213D01*
X388535Y482212D01*
X388535Y482211D01*
X388532Y482162D01*
X388531Y482137D01*
X388530Y482113D01*
X388530Y482112D01*
X388528Y482088D01*
X388523Y481993D01*
X388522Y481968D01*
X388521Y481944D01*
X388516Y481849D01*
X388515Y481824D01*
X388513Y481800D01*
X388513Y481799D01*
X388512Y481775D01*
X388507Y481680D01*
X388506Y481655D01*
X388505Y481631D01*
X388503Y481606D01*
X388500Y481536D01*
X388499Y481511D01*
X388498Y481511D01*
X388499Y481511D01*
X388497Y481486D01*
X388496Y481462D01*
X388491Y481367D01*
X388490Y481342D01*
X388489Y481318D01*
X388488Y481318D01*
X388489Y481317D01*
X388487Y481293D01*
X388484Y481223D01*
X388482Y481198D01*
X388481Y481173D01*
X388480Y481149D01*
X388475Y481054D01*
X388474Y481029D01*
X388472Y481005D01*
X388472Y481004D01*
X388471Y480980D01*
X388466Y480885D01*
X388465Y480860D01*
X388464Y480836D01*
X388459Y480741D01*
X388457Y480716D01*
X388456Y480691D01*
X388455Y480667D01*
X388450Y480572D01*
X388449Y480547D01*
X388447Y480523D01*
X388447Y480522D01*
X388446Y480498D01*
X388443Y480428D01*
X388441Y480403D01*
X388440Y480378D01*
X388439Y480354D01*
X388434Y480259D01*
X388433Y480234D01*
X388431Y480209D01*
X388430Y480185D01*
X388426Y480115D01*
X388425Y480090D01*
X388424Y480065D01*
X388423Y480041D01*
X388418Y479946D01*
X388416Y479921D01*
X388415Y479896D01*
X388414Y479872D01*
X388409Y479777D01*
X388408Y479752D01*
X388406Y479728D01*
X388406Y479727D01*
X388402Y479633D01*
X388400Y479608D01*
X388399Y479583D01*
X388398Y479559D01*
X388393Y479464D01*
X388392Y479439D01*
X388390Y479414D01*
X388385Y479320D01*
X388384Y479295D01*
X388383Y479270D01*
X388382Y479246D01*
X388377Y479151D01*
X388375Y479126D01*
X388374Y479101D01*
X388373Y479077D01*
X388369Y479007D01*
X388368Y478982D01*
X388367Y478957D01*
X388365Y478933D01*
X388365Y478932D01*
X388361Y478838D01*
X388359Y478813D01*
X388358Y478788D01*
X388357Y478764D01*
X388353Y478694D01*
X388352Y478669D01*
X388351Y478644D01*
X388349Y478619D01*
X388344Y478525D01*
X388343Y478500D01*
X388342Y478475D01*
X388341Y478451D01*
X388336Y478356D01*
X388334Y478331D01*
X388333Y478306D01*
X388328Y478212D01*
X388327Y478187D01*
X388326Y478162D01*
X388324Y478138D01*
X388324Y478137D01*
X388320Y478043D01*
X388319Y478043D01*
X388320Y478043D01*
X388318Y478018D01*
X388317Y477993D01*
X388312Y477899D01*
X388311Y477874D01*
X388310Y477849D01*
X388309Y477849D01*
X388310Y477849D01*
X388308Y477824D01*
X388303Y477730D01*
X388302Y477705D01*
X388301Y477680D01*
X388300Y477656D01*
X388299Y477656D01*
X388296Y477586D01*
X388295Y477561D01*
X388293Y477536D01*
X388292Y477511D01*
X388287Y477417D01*
X388286Y477392D01*
X388285Y477367D01*
X388283Y477343D01*
X388283Y477342D01*
X388280Y477273D01*
X388278Y477248D01*
X388277Y477223D01*
X388276Y477198D01*
X388271Y477104D01*
X388270Y477079D01*
X388268Y477054D01*
X388267Y477029D01*
X388262Y476935D01*
X388261Y476910D01*
X388260Y476885D01*
X388255Y476791D01*
X388254Y476766D01*
X388252Y476741D01*
X388251Y476716D01*
X388246Y476622D01*
X388245Y476597D01*
X388244Y476572D01*
X388242Y476548D01*
X388242Y476547D01*
X388239Y476478D01*
X388237Y476453D01*
X388236Y476428D01*
X388235Y476403D01*
X388230Y476309D01*
X388229Y476284D01*
X388227Y476259D01*
X388226Y476234D01*
X388223Y476165D01*
X388221Y476140D01*
X388220Y476115D01*
X388219Y476090D01*
X388214Y475996D01*
X388213Y475971D01*
X388211Y475946D01*
X388210Y475921D01*
X388205Y475827D01*
X388204Y475802D01*
X388203Y475777D01*
X388198Y475683D01*
X388196Y475658D01*
X388195Y475633D01*
X388194Y475608D01*
X388189Y475514D01*
X388188Y475489D01*
X388186Y475464D01*
X388182Y475370D01*
X388180Y475345D01*
X388179Y475320D01*
X388178Y475295D01*
X388173Y475201D01*
X388172Y475176D01*
X388170Y475151D01*
X388169Y475126D01*
X388165Y475057D01*
X388164Y475032D01*
X388163Y475007D01*
X388162Y474982D01*
X388157Y474888D01*
X388155Y474863D01*
X388154Y474838D01*
X388153Y474813D01*
X388149Y474744D01*
X388148Y474719D01*
X388147Y474694D01*
X388145Y474669D01*
X388141Y474575D01*
X388140Y474575D01*
X388141Y474575D01*
X388139Y474550D01*
X388138Y474525D01*
X388137Y474500D01*
X388132Y474406D01*
X388131Y474381D01*
X388130Y474381D01*
X388131Y474381D01*
X388129Y474356D01*
X388124Y474262D01*
X388123Y474237D01*
X388122Y474212D01*
X388121Y474187D01*
X388120Y474187D01*
X388116Y474093D01*
X388114Y474068D01*
X388113Y474043D01*
X388108Y473949D01*
X388107Y473924D01*
X388106Y473899D01*
X388104Y473874D01*
X388099Y473780D01*
X388098Y473755D01*
X388097Y473730D01*
X388096Y473705D01*
X388092Y473636D01*
X388091Y473611D01*
X388089Y473586D01*
X388088Y473561D01*
X388083Y473467D01*
X388082Y473442D01*
X388081Y473417D01*
X388079Y473392D01*
X388076Y473323D01*
X388075Y473298D01*
X388073Y473273D01*
X388072Y473248D01*
X388067Y473154D01*
X388066Y473129D01*
X388065Y473104D01*
X388063Y473079D01*
X388058Y472985D01*
X388057Y472960D01*
X388056Y472935D01*
X388051Y472841D01*
X388050Y472816D01*
X388048Y472791D01*
X388047Y472766D01*
X388042Y472672D01*
X388041Y472647D01*
X388040Y472622D01*
X388038Y472597D01*
X388035Y472528D01*
X388034Y472503D01*
X388032Y472478D01*
X388031Y472453D01*
X388026Y472359D01*
X388025Y472334D01*
X388024Y472309D01*
X388022Y472284D01*
X388019Y472215D01*
X388017Y472190D01*
X388016Y472165D01*
X388015Y472140D01*
X388010Y472046D01*
X388009Y472021D01*
X388007Y471996D01*
X388006Y471971D01*
X388001Y471877D01*
X388000Y471852D01*
X387999Y471827D01*
X387994Y471733D01*
X387993Y471708D01*
X387991Y471683D01*
X387990Y471658D01*
X387985Y471564D01*
X387984Y471539D01*
X387983Y471514D01*
X387978Y471420D01*
X387976Y471395D01*
X387975Y471370D01*
X387974Y471345D01*
X387969Y471251D01*
X387968Y471226D01*
X387966Y471201D01*
X387965Y471176D01*
X387962Y471107D01*
X387961Y471107D01*
X387962Y471107D01*
X387960Y471082D01*
X387959Y471057D01*
X387958Y471032D01*
X387953Y470938D01*
X387952Y470913D01*
X387951Y470913D01*
X387952Y470913D01*
X387950Y470888D01*
X387949Y470863D01*
X387945Y470794D01*
X387944Y470769D01*
X387943Y470744D01*
X387942Y470719D01*
X387941Y470719D01*
X387937Y470625D01*
X387935Y470600D01*
X387934Y470575D01*
X387933Y470550D01*
X387928Y470456D01*
X387927Y470431D01*
X387925Y470406D01*
X387920Y470312D01*
X387919Y470287D01*
X387918Y470262D01*
X387917Y470237D01*
X387912Y470143D01*
X387910Y470118D01*
X387909Y470093D01*
X387904Y469999D01*
X387903Y469974D01*
X387902Y469949D01*
X387900Y469924D01*
X387896Y469830D01*
X387894Y469805D01*
X387893Y469780D01*
X387892Y469755D01*
X387888Y469686D01*
X387887Y469661D01*
X387886Y469636D01*
X387884Y469611D01*
X387879Y469517D01*
X387878Y469492D01*
X387877Y469467D01*
X387876Y469442D01*
X387872Y469373D01*
X387871Y469348D01*
X387869Y469323D01*
X387868Y469298D01*
X387863Y469204D01*
X387862Y469179D01*
X387861Y469154D01*
X387859Y469129D01*
X387855Y469035D01*
X387853Y469010D01*
X387852Y468985D01*
X387847Y468891D01*
X387846Y468866D01*
X387845Y468841D01*
X387843Y468816D01*
X387838Y468722D01*
X387837Y468697D01*
X387836Y468672D01*
X387831Y468578D01*
X387830Y468553D01*
X387828Y468528D01*
X387827Y468503D01*
X387822Y468409D01*
X387821Y468384D01*
X387820Y468359D01*
X387818Y468334D01*
X387815Y468265D01*
X387814Y468240D01*
X387812Y468215D01*
X387811Y468190D01*
X387806Y468096D01*
X387805Y468071D01*
X387804Y468046D01*
X387802Y468021D01*
X387797Y467927D01*
X387796Y467902D01*
X387795Y467877D01*
X387790Y467783D01*
X387789Y467758D01*
X387787Y467733D01*
X387786Y467708D01*
X387781Y467614D01*
X387780Y467589D01*
X387779Y467564D01*
X387774Y467470D01*
X387773Y467445D01*
X387772Y467445D01*
X387773Y467445D01*
X387771Y467420D01*
X387770Y467395D01*
X387765Y467301D01*
X387764Y467276D01*
X387763Y467251D01*
X387762Y467251D01*
X387763Y467251D01*
X387761Y467226D01*
X387758Y467157D01*
X387756Y467132D01*
X387755Y467107D01*
X387754Y467082D01*
X387749Y466988D01*
X387748Y466963D01*
X387746Y466938D01*
X387745Y466913D01*
X387741Y466844D01*
X387740Y466819D01*
X387739Y466794D01*
X387738Y466769D01*
X387733Y466675D01*
X387731Y466650D01*
X387730Y466625D01*
X387729Y466600D01*
X387724Y466506D01*
X387723Y466481D01*
X387721Y466456D01*
X387717Y466362D01*
X387715Y466337D01*
X387714Y466312D01*
X387713Y466287D01*
X387708Y466193D01*
X387707Y466168D01*
X387705Y466143D01*
X387700Y466049D01*
X387699Y466024D01*
X387698Y465999D01*
X387697Y465974D01*
X387692Y465880D01*
X387690Y465855D01*
X387689Y465830D01*
X387688Y465805D01*
X387684Y465736D01*
X387684Y465735D01*
X387683Y465711D01*
X387682Y465686D01*
X387680Y465661D01*
X387676Y465567D01*
X387674Y465542D01*
X387673Y465517D01*
X387672Y465492D01*
X387668Y465423D01*
X387668Y465422D01*
X387667Y465398D01*
X387666Y465373D01*
X387664Y465348D01*
X387659Y465254D01*
X387658Y465229D01*
X387657Y465204D01*
X387656Y465179D01*
X387651Y465085D01*
X387649Y465060D01*
X387648Y465035D01*
X387643Y464941D01*
X387643Y464940D01*
X387642Y464916D01*
X387641Y464891D01*
X387639Y464866D01*
X387635Y464772D01*
X387633Y464747D01*
X387632Y464722D01*
X387627Y464628D01*
X387627Y464627D01*
X387626Y464603D01*
X387625Y464578D01*
X387623Y464553D01*
X387618Y464459D01*
X387617Y464434D01*
X387616Y464409D01*
X387615Y464384D01*
X387611Y464314D01*
X387610Y464290D01*
X387608Y464265D01*
X387607Y464240D01*
X387602Y464146D01*
X387602Y464145D01*
X387601Y464121D01*
X387600Y464096D01*
X387598Y464071D01*
X387595Y464001D01*
X387594Y463977D01*
X387593Y463977D01*
X387594Y463977D01*
X387592Y463952D01*
X387591Y463927D01*
X387586Y463833D01*
X387586Y463832D01*
X387585Y463808D01*
X387584Y463783D01*
X387583Y463783D01*
X387584Y463783D01*
X387582Y463758D01*
X387577Y463664D01*
X387576Y463639D01*
X387575Y463614D01*
X387570Y463519D01*
X387569Y463495D01*
X387567Y463470D01*
X387566Y463445D01*
X387561Y463351D01*
X387561Y463350D01*
X387560Y463326D01*
X387559Y463301D01*
X387557Y463276D01*
X387554Y463206D01*
X387552Y463182D01*
X387551Y463157D01*
X387550Y463132D01*
X387545Y463038D01*
X387545Y463037D01*
X387544Y463013D01*
X387542Y462988D01*
X387541Y462963D01*
X387538Y462893D01*
X387536Y462869D01*
X387535Y462844D01*
X387534Y462819D01*
X387529Y462724D01*
X387528Y462700D01*
X387526Y462675D01*
X387525Y462650D01*
X387520Y462556D01*
X387520Y462555D01*
X387519Y462531D01*
X387518Y462506D01*
X387513Y462411D01*
X387513Y462407D01*
X387517Y462402D01*
X387517Y462403D01*
X387517Y462402D01*
X402423Y462402D01*
X409062Y455763D01*
X409062Y410377D01*
X404963Y406278D01*
X399959Y406278D01*
X399958Y406277D01*
X399956Y406277D01*
X399956Y406275D01*
X399955Y406273D01*
X399956Y406272D01*
X399956Y406269D01*
X401315Y404910D01*
X401315Y382490D01*
X399829Y381004D01*
X399828Y380997D01*
X399829Y380997D01*
X399829Y380996D01*
X401315Y379510D01*
X401315Y357090D01*
X399956Y355731D01*
X399956Y355729D01*
X399955Y355728D01*
X399956Y355726D01*
X399956Y355724D01*
X399958Y355724D01*
X399959Y355722D01*
X402423Y355722D01*
X409062Y349083D01*
X409062Y308777D01*
X404963Y304678D01*
X399959Y304678D01*
X399958Y304677D01*
X399956Y304677D01*
X399956Y304675D01*
X399955Y304673D01*
X399956Y304672D01*
X399956Y304669D01*
X401315Y303310D01*
X401315Y280890D01*
X399829Y279404D01*
X399828Y279397D01*
X399829Y279397D01*
X399829Y279396D01*
X401315Y277910D01*
X401315Y255490D01*
X399830Y254005D01*
X365726Y254005D01*
G37*
%LPD*%
%LPC*%
G36*
X593000Y114115D02*
X593000Y114115D01*
X591515Y115600D01*
X591515Y125700D01*
X593000Y127185D01*
X594510Y127185D01*
X594515Y127190D01*
X594514Y127190D01*
X594515Y127190D01*
X594515Y152400D01*
X594510Y152405D01*
X594510Y152404D01*
X594510Y152405D01*
X578324Y152405D01*
X576839Y153890D01*
X576839Y176310D01*
X578325Y177796D01*
X578325Y177800D01*
X578326Y177800D01*
X578325Y177801D01*
X578326Y177803D01*
X578325Y177803D01*
X578325Y177804D01*
X576839Y179290D01*
X576839Y201710D01*
X578325Y203196D01*
X578325Y203200D01*
X578326Y203200D01*
X578325Y203201D01*
X578326Y203203D01*
X578325Y203203D01*
X578325Y203204D01*
X576839Y204690D01*
X576839Y227110D01*
X578325Y228596D01*
X578326Y228603D01*
X578325Y228603D01*
X578325Y228604D01*
X576839Y230090D01*
X576839Y252510D01*
X578325Y253996D01*
X578326Y254003D01*
X578325Y254003D01*
X578325Y254004D01*
X576839Y255490D01*
X576839Y277910D01*
X578198Y279269D01*
X578198Y279271D01*
X578199Y279272D01*
X578198Y279274D01*
X578198Y279276D01*
X578196Y279276D01*
X578195Y279278D01*
X578017Y279278D01*
X573918Y283377D01*
X573918Y351623D01*
X578017Y355722D01*
X628815Y355722D01*
X628817Y355724D01*
X628819Y355724D01*
X645036Y371941D01*
X645036Y371943D01*
X645038Y371944D01*
X645037Y371944D01*
X645038Y371945D01*
X645038Y380699D01*
X645249Y380911D01*
X645251Y380914D01*
X645253Y380915D01*
X645286Y381000D01*
X645286Y422991D01*
X647576Y425281D01*
X647576Y425283D01*
X647577Y425284D01*
X647578Y425285D01*
X647578Y493863D01*
X666919Y513204D01*
X670436Y516721D01*
X671997Y518282D01*
X735163Y518282D01*
X741802Y511643D01*
X741802Y494197D01*
X732623Y485018D01*
X691985Y485018D01*
X691983Y485016D01*
X691981Y485016D01*
X683384Y476419D01*
X683383Y476416D01*
X683382Y476415D01*
X683382Y434467D01*
X683387Y434462D01*
X683387Y434463D01*
X683387Y434462D01*
X755483Y434462D01*
X762122Y427823D01*
X762122Y415457D01*
X755483Y408818D01*
X676745Y408818D01*
X676743Y408816D01*
X676741Y408816D01*
X675764Y407839D01*
X675763Y407836D01*
X675762Y407835D01*
X675762Y334177D01*
X620863Y279278D01*
X612557Y279278D01*
X612556Y279277D01*
X612554Y279277D01*
X612554Y279275D01*
X612553Y279273D01*
X612554Y279272D01*
X612554Y279269D01*
X613913Y277910D01*
X613913Y276590D01*
X613918Y276585D01*
X613918Y276586D01*
X613918Y276585D01*
X623912Y276585D01*
X623914Y276587D01*
X623916Y276588D01*
X624085Y276857D01*
X624085Y276858D01*
X624358Y277636D01*
X624435Y277673D01*
X624436Y277676D01*
X624437Y277677D01*
X624437Y277763D01*
X625020Y278346D01*
X625021Y278346D01*
X625459Y279044D01*
X625543Y279063D01*
X625545Y279066D01*
X625547Y279067D01*
X625566Y279151D01*
X626264Y279589D01*
X626264Y279590D01*
X626823Y280149D01*
X626823Y280150D01*
X626825Y280151D01*
X626824Y280152D01*
X626825Y280152D01*
X626825Y283844D01*
X630996Y288015D01*
X651510Y288015D01*
X651515Y288020D01*
X651514Y288020D01*
X651515Y288020D01*
X651515Y288596D01*
X709933Y347015D01*
X709934Y347017D01*
X709935Y347018D01*
X709935Y373780D01*
X709930Y373785D01*
X709930Y373784D01*
X709930Y373785D01*
X697890Y373785D01*
X696405Y375270D01*
X696405Y387370D01*
X697890Y388855D01*
X754990Y388855D01*
X756475Y387370D01*
X756475Y375270D01*
X754990Y373785D01*
X717550Y373785D01*
X717545Y373780D01*
X717546Y373780D01*
X717545Y373780D01*
X717545Y343864D01*
X659127Y285445D01*
X659126Y285443D01*
X659125Y285442D01*
X659125Y285242D01*
X659130Y285237D01*
X659130Y285238D01*
X659130Y285237D01*
X660368Y285237D01*
X667507Y278098D01*
X667507Y268002D01*
X660368Y260863D01*
X650272Y260863D01*
X643133Y268002D01*
X643133Y278098D01*
X645971Y280936D01*
X645971Y280938D01*
X645972Y280939D01*
X645971Y280941D01*
X645971Y280943D01*
X645969Y280943D01*
X645968Y280945D01*
X636434Y280945D01*
X636432Y280943D01*
X636430Y280943D01*
X636430Y280942D01*
X636429Y280940D01*
X636431Y280938D01*
X636431Y280935D01*
X636902Y280675D01*
X636903Y280676D01*
X636903Y280675D01*
X637666Y280441D01*
X637667Y280441D01*
X637668Y280441D01*
X637685Y280442D01*
X637697Y280432D01*
X637698Y280432D01*
X637699Y280431D01*
X637714Y280426D01*
X637722Y280411D01*
X637723Y280410D01*
X637723Y280409D01*
X638327Y279888D01*
X638328Y279888D01*
X638328Y279887D01*
X639027Y279501D01*
X639028Y279501D01*
X639029Y279501D01*
X639046Y279498D01*
X639055Y279486D01*
X639057Y279486D01*
X639057Y279485D01*
X639071Y279477D01*
X639075Y279460D01*
X639076Y279460D01*
X639076Y279459D01*
X639560Y278824D01*
X639561Y278824D01*
X639561Y278823D01*
X640165Y278302D01*
X640167Y278302D01*
X640167Y278301D01*
X640183Y278295D01*
X640190Y278281D01*
X640191Y278280D01*
X640191Y278279D01*
X640203Y278269D01*
X640204Y278252D01*
X640205Y278251D01*
X640205Y278250D01*
X640548Y277529D01*
X640549Y277529D01*
X640548Y277528D01*
X641033Y276893D01*
X641034Y276893D01*
X641034Y276892D01*
X641049Y276883D01*
X641052Y276868D01*
X641054Y276867D01*
X641053Y276866D01*
X641063Y276854D01*
X641062Y276849D01*
X641062Y276848D01*
X641060Y276837D01*
X641061Y276836D01*
X641061Y276835D01*
X641248Y276059D01*
X641249Y276058D01*
X641248Y276058D01*
X641592Y275337D01*
X641593Y275336D01*
X641593Y275335D01*
X641605Y275323D01*
X641606Y275308D01*
X641607Y275307D01*
X641606Y275306D01*
X641613Y275292D01*
X641607Y275276D01*
X641608Y275275D01*
X641607Y275274D01*
X641631Y274476D01*
X641631Y274475D01*
X641830Y273650D01*
X641686Y273414D01*
X641686Y273412D01*
X641685Y273412D01*
X641673Y273048D01*
X641674Y273048D01*
X641673Y273048D01*
X641688Y272561D01*
X641689Y272560D01*
X641689Y272559D01*
X641834Y272311D01*
X641625Y271514D01*
X641626Y271513D01*
X641625Y271513D01*
X641599Y270689D01*
X641536Y270630D01*
X641536Y270628D01*
X641536Y270627D01*
X641536Y270626D01*
X641535Y270625D01*
X641561Y270542D01*
X641180Y269811D01*
X641180Y269810D01*
X641075Y269412D01*
X641076Y269411D01*
X641075Y269411D01*
X641075Y260546D01*
X641077Y260545D01*
X641077Y260543D01*
X644083Y257537D01*
X644085Y257536D01*
X644086Y257535D01*
X702114Y257535D01*
X702115Y257537D01*
X702117Y257537D01*
X705087Y260506D01*
X705087Y260508D01*
X705088Y260509D01*
X705087Y260511D01*
X705087Y260513D01*
X705085Y260513D01*
X705083Y260515D01*
X697010Y260515D01*
X695525Y262000D01*
X695525Y263010D01*
X695520Y263015D01*
X695520Y263014D01*
X695520Y263015D01*
X694646Y263015D01*
X691286Y266374D01*
X691280Y266375D01*
X691280Y266374D01*
X691279Y266374D01*
X685768Y260863D01*
X675672Y260863D01*
X668533Y268002D01*
X668533Y278098D01*
X675672Y285237D01*
X685768Y285237D01*
X692907Y278098D01*
X692907Y274754D01*
X692909Y274753D01*
X692909Y274751D01*
X696039Y271621D01*
X696041Y271621D01*
X696045Y271620D01*
X696045Y271621D01*
X696046Y271621D01*
X697010Y272585D01*
X707610Y272585D01*
X709095Y271100D01*
X709095Y264527D01*
X709096Y264525D01*
X709096Y264524D01*
X709098Y264524D01*
X709100Y264522D01*
X709101Y264523D01*
X709104Y264523D01*
X709493Y264913D01*
X709494Y264915D01*
X709495Y264916D01*
X709495Y271100D01*
X710980Y272585D01*
X720920Y272585D01*
X720925Y272590D01*
X720924Y272590D01*
X720925Y272590D01*
X720925Y281560D01*
X722410Y283045D01*
X733010Y283045D01*
X734495Y281560D01*
X734495Y280550D01*
X734500Y280545D01*
X734500Y280546D01*
X734500Y280545D01*
X747512Y280545D01*
X747513Y280547D01*
X747515Y280547D01*
X748628Y281659D01*
X752360Y283205D01*
X771640Y283205D01*
X775372Y281659D01*
X778229Y278802D01*
X779775Y275070D01*
X779775Y271030D01*
X778229Y267298D01*
X775372Y264441D01*
X771640Y262895D01*
X752360Y262895D01*
X748628Y264441D01*
X745771Y267298D01*
X744225Y271030D01*
X744225Y273470D01*
X744220Y273475D01*
X744220Y273474D01*
X744220Y273475D01*
X734500Y273475D01*
X734495Y273470D01*
X734496Y273470D01*
X734495Y273470D01*
X734495Y272460D01*
X733010Y270975D01*
X723070Y270975D01*
X723065Y270970D01*
X723066Y270970D01*
X723065Y270970D01*
X723065Y270050D01*
X723070Y270045D01*
X723070Y270046D01*
X723070Y270045D01*
X733010Y270045D01*
X734495Y268560D01*
X734495Y259460D01*
X733010Y257975D01*
X722410Y257975D01*
X720925Y259460D01*
X720925Y260470D01*
X720920Y260475D01*
X720920Y260474D01*
X720920Y260475D01*
X717356Y260475D01*
X717317Y260513D01*
X717315Y260514D01*
X717314Y260515D01*
X715096Y260515D01*
X715095Y260513D01*
X715093Y260513D01*
X706043Y251464D01*
X706043Y251462D01*
X706042Y251461D01*
X706043Y251459D01*
X706043Y251457D01*
X706045Y251457D01*
X706047Y251455D01*
X744961Y251455D01*
X744964Y251458D01*
X744966Y251458D01*
X745771Y253402D01*
X748628Y256259D01*
X752360Y257805D01*
X771640Y257805D01*
X775372Y256259D01*
X778229Y253402D01*
X779775Y249670D01*
X779775Y245630D01*
X778229Y241898D01*
X775372Y239041D01*
X771640Y237495D01*
X752360Y237495D01*
X748628Y239041D01*
X745771Y241898D01*
X744966Y243842D01*
X744962Y243843D01*
X744961Y243845D01*
X706047Y243845D01*
X706045Y243844D01*
X706044Y243844D01*
X706044Y243842D01*
X706042Y243840D01*
X706043Y243839D01*
X706043Y243836D01*
X725363Y224517D01*
X725365Y224516D01*
X725366Y224515D01*
X744323Y224515D01*
X744326Y224518D01*
X744328Y224518D01*
X745771Y228002D01*
X748628Y230859D01*
X752360Y232405D01*
X771640Y232405D01*
X775372Y230859D01*
X778229Y228002D01*
X779775Y224270D01*
X779775Y220230D01*
X778229Y216498D01*
X775372Y213641D01*
X771640Y212095D01*
X752360Y212095D01*
X748628Y213641D01*
X745771Y216498D01*
X745380Y217442D01*
X745376Y217443D01*
X745375Y217445D01*
X722436Y217445D01*
X702117Y237763D01*
X702115Y237763D01*
X702115Y237764D01*
X702114Y237765D01*
X613918Y237765D01*
X613913Y237760D01*
X613914Y237760D01*
X613913Y237760D01*
X613913Y230090D01*
X612427Y228604D01*
X612427Y228602D01*
X612426Y228597D01*
X612427Y228597D01*
X612427Y228596D01*
X613913Y227110D01*
X613913Y219440D01*
X613918Y219435D01*
X613918Y219436D01*
X613918Y219435D01*
X697424Y219435D01*
X699497Y217363D01*
X716473Y200387D01*
X716475Y200386D01*
X716476Y200385D01*
X744849Y200385D01*
X744852Y200388D01*
X744854Y200388D01*
X745771Y202602D01*
X748628Y205459D01*
X752360Y207005D01*
X771640Y207005D01*
X775372Y205459D01*
X778229Y202602D01*
X779775Y198870D01*
X779775Y194830D01*
X778229Y191098D01*
X775372Y188241D01*
X771640Y186695D01*
X752360Y186695D01*
X748628Y188241D01*
X745771Y191098D01*
X744854Y193312D01*
X744850Y193313D01*
X744849Y193315D01*
X713546Y193315D01*
X711473Y195387D01*
X694497Y212363D01*
X694495Y212364D01*
X694494Y212365D01*
X613918Y212365D01*
X613913Y212360D01*
X613914Y212360D01*
X613913Y212360D01*
X613913Y204690D01*
X612427Y203204D01*
X612427Y203202D01*
X612426Y203202D01*
X612427Y203201D01*
X612426Y203197D01*
X612427Y203197D01*
X612427Y203196D01*
X613913Y201710D01*
X613913Y194040D01*
X613918Y194035D01*
X613918Y194036D01*
X613918Y194035D01*
X689804Y194035D01*
X710123Y173717D01*
X710125Y173717D01*
X710125Y173716D01*
X710126Y173715D01*
X744323Y173715D01*
X744326Y173718D01*
X744328Y173718D01*
X745771Y177202D01*
X748628Y180059D01*
X752360Y181605D01*
X771640Y181605D01*
X775372Y180059D01*
X778229Y177202D01*
X779775Y173470D01*
X779775Y169430D01*
X778229Y165698D01*
X775372Y162841D01*
X771640Y161295D01*
X752360Y161295D01*
X748628Y162841D01*
X745771Y165698D01*
X745380Y166642D01*
X745376Y166643D01*
X745375Y166645D01*
X707196Y166645D01*
X686877Y186963D01*
X686875Y186964D01*
X686874Y186965D01*
X613918Y186965D01*
X613913Y186960D01*
X613914Y186960D01*
X613913Y186960D01*
X613913Y179290D01*
X612427Y177804D01*
X612427Y177802D01*
X612426Y177801D01*
X612427Y177801D01*
X612426Y177797D01*
X612427Y177797D01*
X612427Y177796D01*
X613913Y176310D01*
X613913Y168640D01*
X613918Y168635D01*
X613918Y168636D01*
X613918Y168635D01*
X689804Y168635D01*
X708853Y149587D01*
X708855Y149586D01*
X708856Y149585D01*
X744849Y149585D01*
X744852Y149588D01*
X744854Y149588D01*
X745771Y151802D01*
X748628Y154659D01*
X752360Y156205D01*
X771640Y156205D01*
X775372Y154659D01*
X778229Y151802D01*
X779775Y148070D01*
X779775Y144030D01*
X778229Y140298D01*
X775372Y137441D01*
X771640Y135895D01*
X752360Y135895D01*
X748628Y137441D01*
X745771Y140298D01*
X744854Y142512D01*
X744850Y142513D01*
X744849Y142515D01*
X705926Y142515D01*
X686877Y161563D01*
X686875Y161564D01*
X686874Y161565D01*
X613918Y161565D01*
X613913Y161560D01*
X613914Y161560D01*
X613913Y161560D01*
X613913Y153890D01*
X612428Y152405D01*
X601590Y152405D01*
X601585Y152400D01*
X601586Y152400D01*
X601585Y152400D01*
X601585Y127190D01*
X601590Y127185D01*
X601590Y127186D01*
X601590Y127185D01*
X603100Y127185D01*
X604585Y125700D01*
X604585Y115600D01*
X603100Y114115D01*
X593000Y114115D01*
G37*
%LPD*%
G36*
X403863Y307215D02*
X403863Y307215D01*
X403866Y307214D01*
X403949Y307251D01*
X406489Y309791D01*
X406491Y309794D01*
X406493Y309795D01*
X406526Y309880D01*
X406526Y347980D01*
X406525Y347983D01*
X406526Y347986D01*
X406489Y348069D01*
X401409Y353149D01*
X401406Y353151D01*
X401405Y353153D01*
X401320Y353186D01*
X345492Y353186D01*
X307429Y391249D01*
X307426Y391251D01*
X307425Y391253D01*
X307340Y391286D01*
X22860Y391286D01*
X22857Y391285D01*
X22854Y391286D01*
X22771Y391249D01*
X15151Y383629D01*
X15150Y383626D01*
X15147Y383625D01*
X15114Y383540D01*
X15114Y335280D01*
X15115Y335277D01*
X15114Y335274D01*
X15151Y335191D01*
X22771Y327571D01*
X22774Y327570D01*
X22775Y327567D01*
X22860Y327534D01*
X294588Y327534D01*
X314871Y307251D01*
X314874Y307250D01*
X314875Y307247D01*
X314960Y307214D01*
X403860Y307214D01*
X403863Y307215D01*
G37*
%LPC*%
G36*
X188575Y105665D02*
X188575Y105665D01*
X187090Y107150D01*
X187090Y121450D01*
X188575Y122935D01*
X199775Y122935D01*
X200943Y121767D01*
X200949Y121767D01*
X200950Y121767D01*
X215505Y136323D01*
X215505Y136325D01*
X215506Y136326D01*
X215506Y136327D01*
X215506Y136329D01*
X215505Y136329D01*
X215505Y136330D01*
X197019Y154816D01*
X197016Y154817D01*
X197015Y154818D01*
X26837Y154818D01*
X22738Y158917D01*
X22738Y191603D01*
X24299Y193164D01*
X25276Y194141D01*
X26837Y195702D01*
X120815Y195702D01*
X120817Y195704D01*
X120819Y195704D01*
X123357Y198242D01*
X303695Y198242D01*
X303697Y198244D01*
X303699Y198244D01*
X308777Y203322D01*
X402423Y203322D01*
X409062Y196683D01*
X409062Y158917D01*
X382103Y131958D01*
X225497Y131958D01*
X225495Y131956D01*
X225494Y131956D01*
X202762Y109225D01*
X201265Y109225D01*
X201260Y109220D01*
X201261Y109220D01*
X201260Y109220D01*
X201260Y107150D01*
X199775Y105665D01*
X188575Y105665D01*
G37*
%LPD*%
G36*
X381003Y134495D02*
X381003Y134495D01*
X381006Y134494D01*
X381089Y134531D01*
X406489Y159931D01*
X406491Y159934D01*
X406493Y159935D01*
X406526Y160020D01*
X406526Y195580D01*
X406525Y195583D01*
X406526Y195586D01*
X406489Y195669D01*
X401409Y200749D01*
X401406Y200751D01*
X401405Y200753D01*
X401320Y200786D01*
X309880Y200786D01*
X309877Y200785D01*
X309874Y200786D01*
X309791Y200749D01*
X304748Y195706D01*
X124460Y195706D01*
X124457Y195705D01*
X124454Y195706D01*
X124371Y195669D01*
X121868Y193166D01*
X27940Y193166D01*
X27937Y193165D01*
X27934Y193166D01*
X27851Y193129D01*
X25311Y190589D01*
X25310Y190586D01*
X25307Y190585D01*
X25274Y190500D01*
X25274Y160020D01*
X25275Y160017D01*
X25274Y160014D01*
X25311Y159931D01*
X27851Y157391D01*
X27854Y157390D01*
X27855Y157387D01*
X27940Y157354D01*
X198068Y157354D01*
X220891Y134531D01*
X220894Y134530D01*
X220895Y134527D01*
X220980Y134494D01*
X381000Y134494D01*
X381003Y134495D01*
G37*
G36*
X403863Y408815D02*
X403863Y408815D01*
X403866Y408814D01*
X403949Y408851D01*
X406489Y411391D01*
X406491Y411394D01*
X406493Y411395D01*
X406526Y411480D01*
X406526Y454660D01*
X406525Y454663D01*
X406526Y454666D01*
X406489Y454749D01*
X401409Y459829D01*
X401406Y459831D01*
X401405Y459833D01*
X401320Y459866D01*
X304800Y459866D01*
X304797Y459865D01*
X304794Y459866D01*
X304711Y459829D01*
X299668Y454786D01*
X25400Y454786D01*
X25397Y454785D01*
X25394Y454786D01*
X25311Y454749D01*
X22771Y452209D01*
X22770Y452206D01*
X22767Y452205D01*
X22734Y452120D01*
X22734Y411480D01*
X22735Y411477D01*
X22734Y411474D01*
X22771Y411391D01*
X25311Y408851D01*
X25314Y408850D01*
X25315Y408847D01*
X25400Y408814D01*
X403860Y408814D01*
X403863Y408815D01*
G37*
G36*
X619763Y281815D02*
X619763Y281815D01*
X619766Y281814D01*
X619849Y281851D01*
X673189Y335191D01*
X673191Y335194D01*
X673193Y335195D01*
X673226Y335280D01*
X673226Y408888D01*
X675692Y411354D01*
X754380Y411354D01*
X754383Y411355D01*
X754386Y411354D01*
X754469Y411391D01*
X759549Y416471D01*
X759551Y416474D01*
X759553Y416475D01*
X759586Y416560D01*
X759586Y426720D01*
X759585Y426723D01*
X759586Y426726D01*
X759549Y426809D01*
X754469Y431889D01*
X754467Y431890D01*
X754466Y431892D01*
X754465Y431893D01*
X754380Y431926D01*
X680846Y431926D01*
X680846Y477468D01*
X690932Y487554D01*
X731520Y487554D01*
X731523Y487555D01*
X731526Y487554D01*
X731609Y487591D01*
X739229Y495211D01*
X739231Y495214D01*
X739233Y495215D01*
X739266Y495300D01*
X739266Y510540D01*
X739265Y510543D01*
X739266Y510546D01*
X739229Y510629D01*
X734149Y515709D01*
X734146Y515711D01*
X734145Y515713D01*
X734060Y515746D01*
X673100Y515746D01*
X673097Y515745D01*
X673094Y515746D01*
X673011Y515709D01*
X650151Y492849D01*
X650150Y492846D01*
X650147Y492845D01*
X650114Y492760D01*
X650114Y424232D01*
X647611Y421729D01*
X647610Y421726D01*
X647607Y421725D01*
X647574Y421640D01*
X647574Y370892D01*
X629868Y353186D01*
X579120Y353186D01*
X579117Y353185D01*
X579114Y353186D01*
X579031Y353149D01*
X576491Y350609D01*
X576490Y350606D01*
X576487Y350605D01*
X576454Y350520D01*
X576454Y284480D01*
X576455Y284477D01*
X576454Y284474D01*
X576491Y284391D01*
X579031Y281851D01*
X579034Y281850D01*
X579035Y281847D01*
X579120Y281814D01*
X619760Y281814D01*
X619763Y281815D01*
G37*
%LPC*%
G36*
X59083Y27545D02*
X59083Y27545D01*
X54157Y29586D01*
X50386Y33357D01*
X48345Y38283D01*
X48345Y43617D01*
X50386Y48543D01*
X54157Y52314D01*
X54610Y52502D01*
X54611Y52503D01*
X54612Y52503D01*
X54612Y52505D01*
X54613Y52508D01*
X54612Y52509D01*
X54612Y52511D01*
X50805Y56318D01*
X50805Y85922D01*
X53209Y88326D01*
X53209Y88328D01*
X53209Y88333D01*
X50386Y91157D01*
X48345Y96083D01*
X48345Y101417D01*
X50386Y106343D01*
X54157Y110114D01*
X59084Y112155D01*
X64416Y112155D01*
X69343Y110114D01*
X73114Y106343D01*
X75155Y101416D01*
X75155Y99640D01*
X75160Y99635D01*
X75160Y99636D01*
X75160Y99635D01*
X84500Y99635D01*
X84709Y99427D01*
X84711Y99426D01*
X84712Y99425D01*
X92246Y99425D01*
X92247Y99427D01*
X92249Y99427D01*
X112198Y119375D01*
X154335Y119375D01*
X154340Y119380D01*
X154339Y119380D01*
X154340Y119380D01*
X154340Y121450D01*
X155825Y122935D01*
X167025Y122935D01*
X168510Y121450D01*
X168510Y107150D01*
X167025Y105665D01*
X155825Y105665D01*
X154340Y107150D01*
X154340Y109220D01*
X154335Y109225D01*
X154335Y109224D01*
X154335Y109225D01*
X116404Y109225D01*
X116403Y109223D01*
X116401Y109223D01*
X96452Y89275D01*
X85990Y89275D01*
X85985Y89270D01*
X85986Y89270D01*
X85985Y89270D01*
X85985Y86160D01*
X85990Y86155D01*
X85990Y86156D01*
X85990Y86155D01*
X100210Y86155D01*
X100212Y86157D01*
X100214Y86156D01*
X106843Y91475D01*
X106843Y91477D01*
X106845Y91478D01*
X106844Y91478D01*
X106845Y91479D01*
X106845Y96740D01*
X108330Y98225D01*
X117430Y98225D01*
X118915Y96740D01*
X118915Y86140D01*
X117430Y84655D01*
X110505Y84655D01*
X110504Y84653D01*
X110502Y84654D01*
X105816Y80894D01*
X105816Y80892D01*
X105814Y80891D01*
X105815Y80890D01*
X105815Y80888D01*
X105817Y80887D01*
X105819Y80885D01*
X346229Y80885D01*
X349083Y81072D01*
X349083Y81073D01*
X349084Y81072D01*
X354596Y82549D01*
X354596Y82550D01*
X354597Y82550D01*
X359539Y85403D01*
X359539Y85404D01*
X359540Y85404D01*
X361689Y87289D01*
X361690Y87289D01*
X362597Y88197D01*
X454070Y179670D01*
X455074Y180674D01*
X457768Y183367D01*
X464366Y187177D01*
X471725Y189149D01*
X482087Y189149D01*
X482092Y189153D01*
X482092Y189154D01*
X482092Y192664D01*
X483577Y194149D01*
X499677Y194149D01*
X501162Y192664D01*
X501162Y189424D01*
X501167Y189419D01*
X504303Y189419D01*
X507063Y186659D01*
X507065Y186658D01*
X507066Y186657D01*
X509257Y186657D01*
X511578Y185695D01*
X513355Y183918D01*
X514317Y181597D01*
X514317Y179083D01*
X513355Y176762D01*
X511578Y174985D01*
X509257Y174023D01*
X506743Y174023D01*
X504422Y174985D01*
X502645Y176762D01*
X501683Y179083D01*
X501683Y181274D01*
X501681Y181276D01*
X501681Y181277D01*
X501171Y181788D01*
X501169Y181788D01*
X501168Y181789D01*
X501167Y181788D01*
X501164Y181788D01*
X501164Y181786D01*
X501162Y181784D01*
X501162Y178563D01*
X499677Y177078D01*
X483577Y177078D01*
X482092Y178563D01*
X482092Y182073D01*
X482088Y182078D01*
X482087Y182078D01*
X475534Y182078D01*
X475468Y182074D01*
X475392Y182069D01*
X475316Y182064D01*
X475240Y182059D01*
X475165Y182054D01*
X475164Y182054D01*
X475089Y182049D01*
X475013Y182044D01*
X474937Y182039D01*
X474861Y182034D01*
X474786Y182029D01*
X474785Y182029D01*
X474710Y182024D01*
X474634Y182019D01*
X474558Y182014D01*
X474482Y182009D01*
X474407Y182004D01*
X474406Y182004D01*
X474331Y181999D01*
X474255Y181994D01*
X474179Y181989D01*
X474103Y181985D01*
X474027Y181980D01*
X473952Y181975D01*
X473951Y181975D01*
X473876Y181970D01*
X473800Y181965D01*
X473724Y181960D01*
X473648Y181955D01*
X473573Y181950D01*
X473572Y181950D01*
X473497Y181945D01*
X473421Y181940D01*
X473345Y181935D01*
X473269Y181930D01*
X473194Y181925D01*
X473193Y181925D01*
X473118Y181920D01*
X473042Y181915D01*
X472966Y181910D01*
X472890Y181905D01*
X472814Y181900D01*
X472739Y181895D01*
X472738Y181895D01*
X472681Y181891D01*
X472680Y181891D01*
X467168Y180414D01*
X467167Y180413D01*
X467167Y180414D01*
X462225Y177560D01*
X462224Y177560D01*
X460074Y175674D01*
X459070Y174670D01*
X451043Y166644D01*
X451043Y166642D01*
X451043Y166641D01*
X451042Y166639D01*
X451043Y166638D01*
X451043Y166637D01*
X451046Y166637D01*
X451047Y166637D01*
X451048Y166636D01*
X451049Y166636D01*
X451986Y167177D01*
X459345Y169149D01*
X482087Y169149D01*
X482092Y169153D01*
X482092Y169154D01*
X482092Y172664D01*
X483577Y174149D01*
X499677Y174149D01*
X501162Y172664D01*
X501162Y168910D01*
X501167Y168905D01*
X501167Y168906D01*
X501167Y168905D01*
X510489Y168905D01*
X510491Y168907D01*
X510493Y168907D01*
X512042Y170455D01*
X514363Y171417D01*
X516877Y171417D01*
X519198Y170455D01*
X520975Y168678D01*
X521937Y166357D01*
X521937Y163843D01*
X520975Y161522D01*
X519198Y159745D01*
X516877Y158783D01*
X514363Y158783D01*
X512042Y159745D01*
X510493Y161293D01*
X510490Y161294D01*
X510489Y161295D01*
X501167Y161295D01*
X501162Y161290D01*
X501163Y161290D01*
X501162Y161290D01*
X501162Y158563D01*
X499677Y157078D01*
X483577Y157078D01*
X482092Y158563D01*
X482092Y162073D01*
X482088Y162078D01*
X482087Y162078D01*
X463155Y162078D01*
X463154Y162078D01*
X463100Y162075D01*
X463024Y162070D01*
X462948Y162065D01*
X462872Y162060D01*
X462797Y162055D01*
X462796Y162055D01*
X462721Y162050D01*
X462645Y162045D01*
X462569Y162040D01*
X462493Y162035D01*
X462418Y162030D01*
X462417Y162030D01*
X462342Y162025D01*
X462266Y162020D01*
X462190Y162015D01*
X462114Y162010D01*
X462038Y162005D01*
X461963Y162000D01*
X461962Y162000D01*
X461887Y161995D01*
X461811Y161990D01*
X461735Y161985D01*
X461659Y161980D01*
X461584Y161975D01*
X461583Y161975D01*
X461508Y161970D01*
X461432Y161965D01*
X461356Y161960D01*
X461280Y161955D01*
X461205Y161951D01*
X461204Y161951D01*
X461129Y161946D01*
X461053Y161941D01*
X460977Y161936D01*
X460901Y161931D01*
X460825Y161926D01*
X460750Y161921D01*
X460749Y161921D01*
X460674Y161916D01*
X460598Y161911D01*
X460522Y161906D01*
X460446Y161901D01*
X460371Y161896D01*
X460370Y161896D01*
X460301Y161891D01*
X460300Y161891D01*
X454788Y160414D01*
X454787Y160413D01*
X454787Y160414D01*
X449845Y157560D01*
X449844Y157560D01*
X447694Y155674D01*
X446687Y154668D01*
X370346Y78327D01*
X369309Y77290D01*
X366616Y74596D01*
X360018Y70787D01*
X352658Y68815D01*
X92440Y68815D01*
X92435Y68810D01*
X92436Y68810D01*
X92435Y68810D01*
X92435Y64576D01*
X90363Y62503D01*
X89881Y62022D01*
X88860Y61000D01*
X87882Y60023D01*
X87823Y59963D01*
X87810Y59951D01*
X85988Y59196D01*
X85987Y59193D01*
X85986Y59192D01*
X85985Y59191D01*
X85985Y56160D01*
X85990Y56155D01*
X85990Y56156D01*
X85990Y56155D01*
X108168Y56155D01*
X108170Y56157D01*
X108171Y56157D01*
X109000Y56985D01*
X119600Y56985D01*
X121085Y55500D01*
X121085Y46400D01*
X119600Y44915D01*
X109000Y44915D01*
X107515Y46400D01*
X107515Y48540D01*
X107510Y48545D01*
X107510Y48544D01*
X107510Y48545D01*
X85990Y48545D01*
X85985Y48540D01*
X85986Y48540D01*
X85985Y48540D01*
X85985Y41550D01*
X84500Y40065D01*
X75160Y40065D01*
X75155Y40060D01*
X75156Y40060D01*
X75155Y40060D01*
X75155Y38284D01*
X73114Y33357D01*
X69343Y29586D01*
X64417Y27545D01*
X59083Y27545D01*
G37*
%LPD*%
%LPC*%
G36*
X752360Y85095D02*
X752360Y85095D01*
X748628Y86641D01*
X745771Y89498D01*
X744225Y93230D01*
X744225Y96520D01*
X744220Y96525D01*
X744220Y96524D01*
X744220Y96525D01*
X518871Y96525D01*
X518868Y96522D01*
X518866Y96522D01*
X518435Y95482D01*
X516658Y93705D01*
X514337Y92743D01*
X511823Y92743D01*
X509502Y93705D01*
X507725Y95482D01*
X506763Y97803D01*
X506763Y100317D01*
X507725Y102638D01*
X509502Y104415D01*
X511823Y105377D01*
X513057Y105377D01*
X513058Y105378D01*
X513060Y105378D01*
X513060Y105380D01*
X513062Y105382D01*
X513060Y105383D01*
X513060Y105386D01*
X512805Y105642D01*
X511843Y107963D01*
X511843Y110477D01*
X512805Y112798D01*
X514582Y114575D01*
X516903Y115537D01*
X519417Y115537D01*
X521738Y114575D01*
X523515Y112798D01*
X524472Y110488D01*
X524476Y110487D01*
X524477Y110485D01*
X746452Y110485D01*
X746454Y110487D01*
X746455Y110487D01*
X748315Y112346D01*
X748315Y112353D01*
X745771Y114898D01*
X744225Y118630D01*
X744225Y122670D01*
X745771Y126402D01*
X748628Y129259D01*
X752360Y130805D01*
X771640Y130805D01*
X775372Y129259D01*
X778229Y126402D01*
X779775Y122670D01*
X779775Y118630D01*
X778229Y114898D01*
X775372Y112041D01*
X771640Y110495D01*
X757228Y110495D01*
X757226Y110493D01*
X757225Y110493D01*
X751996Y105265D01*
X751996Y105263D01*
X751995Y105263D01*
X751996Y105262D01*
X751995Y105260D01*
X751996Y105260D01*
X751996Y105258D01*
X751999Y105258D01*
X752000Y105258D01*
X752000Y105257D01*
X752001Y105257D01*
X752002Y105257D01*
X752360Y105405D01*
X771640Y105405D01*
X775372Y103859D01*
X778229Y101002D01*
X779775Y97270D01*
X779775Y93230D01*
X778229Y89498D01*
X775372Y86641D01*
X771640Y85095D01*
X752360Y85095D01*
G37*
%LPD*%
%LPC*%
G36*
X752360Y59695D02*
X752360Y59695D01*
X748628Y61241D01*
X745771Y64098D01*
X744966Y66042D01*
X744962Y66043D01*
X744961Y66045D01*
X497534Y66045D01*
X453057Y110521D01*
X453055Y110522D01*
X453054Y110523D01*
X450863Y110523D01*
X448542Y111485D01*
X446765Y113262D01*
X445803Y115583D01*
X445803Y118097D01*
X446765Y120418D01*
X448542Y122195D01*
X450863Y123157D01*
X453377Y123157D01*
X453417Y123141D01*
X453420Y123142D01*
X453422Y123142D01*
X454466Y124185D01*
X528955Y124185D01*
X528960Y124190D01*
X528959Y124190D01*
X528960Y124190D01*
X528960Y128050D01*
X530445Y129535D01*
X538895Y129535D01*
X539746Y128684D01*
X539753Y128683D01*
X539753Y128684D01*
X539754Y128684D01*
X540605Y129535D01*
X549055Y129535D01*
X550540Y128050D01*
X550540Y124190D01*
X550545Y124185D01*
X550545Y124186D01*
X550545Y124185D01*
X552610Y124185D01*
X552615Y124190D01*
X552614Y124190D01*
X552615Y124190D01*
X552615Y125950D01*
X554100Y127435D01*
X563200Y127435D01*
X564685Y125950D01*
X564685Y115350D01*
X563200Y113865D01*
X554100Y113865D01*
X552615Y115350D01*
X552615Y117110D01*
X552610Y117115D01*
X552610Y117114D01*
X552610Y117115D01*
X550545Y117115D01*
X550540Y117110D01*
X550541Y117110D01*
X550540Y117110D01*
X550540Y113250D01*
X549055Y111765D01*
X540605Y111765D01*
X539754Y112616D01*
X539747Y112617D01*
X539747Y112616D01*
X539746Y112616D01*
X538895Y111765D01*
X530445Y111765D01*
X528960Y113250D01*
X528960Y117110D01*
X528955Y117115D01*
X528955Y117114D01*
X528955Y117115D01*
X458442Y117115D01*
X458437Y117110D01*
X458438Y117110D01*
X458437Y117110D01*
X458437Y115906D01*
X458439Y115904D01*
X458439Y115903D01*
X500685Y73657D01*
X500687Y73656D01*
X500688Y73656D01*
X500688Y73655D01*
X744961Y73655D01*
X744964Y73658D01*
X744966Y73658D01*
X745771Y75602D01*
X748628Y78459D01*
X752360Y80005D01*
X771640Y80005D01*
X775372Y78459D01*
X778229Y75602D01*
X779775Y71870D01*
X779775Y67830D01*
X778229Y64098D01*
X775372Y61241D01*
X771640Y59695D01*
X752360Y59695D01*
G37*
%LPD*%
%LPC*%
G36*
X487525Y508915D02*
X487525Y508915D01*
X483286Y510671D01*
X480041Y513916D01*
X478285Y518155D01*
X478285Y522745D01*
X479414Y525470D01*
X479413Y525474D01*
X479413Y525476D01*
X472755Y532133D01*
X472753Y532134D01*
X472752Y532135D01*
X456388Y532135D01*
X456386Y532133D01*
X456385Y532133D01*
X441797Y517545D01*
X441796Y517543D01*
X441795Y517542D01*
X441795Y511590D01*
X440310Y510105D01*
X431210Y510105D01*
X429725Y511590D01*
X429725Y522190D01*
X431210Y523675D01*
X437162Y523675D01*
X437164Y523677D01*
X437165Y523677D01*
X451003Y537515D01*
X453234Y539745D01*
X475906Y539745D01*
X478137Y537515D01*
X484794Y530857D01*
X484798Y530857D01*
X484800Y530856D01*
X487526Y531985D01*
X492114Y531985D01*
X496354Y530229D01*
X499599Y526984D01*
X501355Y522744D01*
X501355Y518156D01*
X499599Y513916D01*
X496354Y510671D01*
X492115Y508915D01*
X487525Y508915D01*
G37*
%LPD*%
%LPC*%
G36*
X744980Y474895D02*
X744980Y474895D01*
X743495Y476380D01*
X743495Y494480D01*
X744980Y495965D01*
X781080Y495965D01*
X782565Y494480D01*
X782565Y476380D01*
X781080Y474895D01*
X744980Y474895D01*
G37*
%LPD*%
%LPC*%
G36*
X732890Y346785D02*
X732890Y346785D01*
X731405Y348270D01*
X731405Y366370D01*
X732890Y367855D01*
X764990Y367855D01*
X766475Y366370D01*
X766475Y348270D01*
X764990Y346785D01*
X732890Y346785D01*
G37*
%LPD*%
%LPC*%
G36*
X732890Y434785D02*
X732890Y434785D01*
X731405Y436270D01*
X731405Y454370D01*
X732890Y455855D01*
X764990Y455855D01*
X766475Y454370D01*
X766475Y436270D01*
X764990Y434785D01*
X732890Y434785D01*
G37*
%LPD*%
%LPC*%
G36*
X752360Y313695D02*
X752360Y313695D01*
X748628Y315241D01*
X745771Y318098D01*
X744225Y321830D01*
X744225Y325870D01*
X745771Y329602D01*
X748628Y332459D01*
X752360Y334005D01*
X771640Y334005D01*
X775372Y332459D01*
X778229Y329602D01*
X779775Y325870D01*
X779775Y321830D01*
X778229Y318098D01*
X775372Y315241D01*
X771640Y313695D01*
X752360Y313695D01*
G37*
%LPD*%
%LPC*%
G36*
X752360Y288295D02*
X752360Y288295D01*
X748628Y289841D01*
X745771Y292698D01*
X744225Y296430D01*
X744225Y300470D01*
X745771Y304202D01*
X748628Y307059D01*
X752360Y308605D01*
X771640Y308605D01*
X775372Y307059D01*
X778229Y304202D01*
X779775Y300470D01*
X779775Y296430D01*
X778229Y292698D01*
X775372Y289841D01*
X771640Y288295D01*
X752360Y288295D01*
G37*
%LPD*%
%LPC*%
G36*
X512525Y508915D02*
X512525Y508915D01*
X508286Y510671D01*
X505041Y513916D01*
X503285Y518155D01*
X503285Y522745D01*
X505041Y526984D01*
X508286Y530229D01*
X512526Y531985D01*
X517114Y531985D01*
X521354Y530229D01*
X524599Y526984D01*
X526355Y522744D01*
X526355Y518156D01*
X524599Y513916D01*
X521354Y510671D01*
X517115Y508915D01*
X512525Y508915D01*
G37*
%LPD*%
%LPC*%
G36*
X462525Y508915D02*
X462525Y508915D01*
X458286Y510671D01*
X455041Y513916D01*
X453285Y518155D01*
X453285Y522745D01*
X455041Y526984D01*
X458286Y530229D01*
X462526Y531985D01*
X467114Y531985D01*
X471354Y530229D01*
X474599Y526984D01*
X476355Y522744D01*
X476355Y518156D01*
X474599Y513916D01*
X471354Y510671D01*
X467115Y508915D01*
X462525Y508915D01*
G37*
%LPD*%
G36*
X387620Y283213D02*
X387620Y283213D01*
X387724Y283217D01*
X389211Y283363D01*
X389254Y283373D01*
X389298Y283375D01*
X389455Y283412D01*
X390885Y283845D01*
X390925Y283863D01*
X390968Y283874D01*
X391114Y283941D01*
X392432Y284645D01*
X392468Y284670D01*
X392508Y284689D01*
X392639Y284783D01*
X393793Y285731D01*
X393824Y285763D01*
X393859Y285789D01*
X393969Y285907D01*
X394917Y287061D01*
X394941Y287099D01*
X394970Y287131D01*
X395055Y287268D01*
X395759Y288586D01*
X395775Y288627D01*
X395798Y288665D01*
X395855Y288816D01*
X396288Y290245D01*
X396296Y290289D01*
X396311Y290330D01*
X396337Y290489D01*
X396483Y291976D01*
X396483Y291996D01*
X396486Y292015D01*
X396485Y292038D01*
X396489Y292064D01*
X396483Y292224D01*
X396337Y293711D01*
X396327Y293754D01*
X396325Y293798D01*
X396288Y293955D01*
X395855Y295385D01*
X395837Y295425D01*
X395826Y295468D01*
X395759Y295614D01*
X395055Y296932D01*
X395030Y296968D01*
X395011Y297008D01*
X394917Y297139D01*
X393969Y298293D01*
X393937Y298324D01*
X393911Y298359D01*
X393793Y298469D01*
X392639Y299417D01*
X392601Y299441D01*
X392569Y299470D01*
X392432Y299555D01*
X391114Y300259D01*
X391073Y300275D01*
X391035Y300298D01*
X390885Y300355D01*
X389455Y300788D01*
X389411Y300796D01*
X389370Y300811D01*
X389211Y300837D01*
X387724Y300983D01*
X387705Y300983D01*
X387600Y300989D01*
X376170Y300989D01*
X376052Y300974D01*
X375933Y300967D01*
X375895Y300954D01*
X375854Y300949D01*
X375744Y300906D01*
X375631Y300869D01*
X375596Y300847D01*
X375559Y300832D01*
X375463Y300763D01*
X375362Y300699D01*
X375334Y300669D01*
X375301Y300646D01*
X375226Y300554D01*
X375144Y300467D01*
X375124Y300432D01*
X375099Y300401D01*
X375048Y300293D01*
X374990Y300189D01*
X374980Y300149D01*
X374963Y300113D01*
X374941Y299996D01*
X374911Y299881D01*
X374907Y299821D01*
X374903Y299801D01*
X374904Y299794D01*
X374903Y299792D01*
X374904Y299776D01*
X374901Y299720D01*
X374901Y284480D01*
X374916Y284362D01*
X374923Y284243D01*
X374936Y284205D01*
X374941Y284164D01*
X374984Y284054D01*
X375021Y283941D01*
X375043Y283906D01*
X375058Y283869D01*
X375128Y283773D01*
X375191Y283672D01*
X375221Y283644D01*
X375244Y283611D01*
X375336Y283536D01*
X375423Y283454D01*
X375458Y283434D01*
X375489Y283409D01*
X375597Y283358D01*
X375701Y283300D01*
X375741Y283290D01*
X375777Y283273D01*
X375894Y283251D01*
X376009Y283221D01*
X376070Y283217D01*
X376090Y283213D01*
X376110Y283215D01*
X376170Y283211D01*
X387600Y283211D01*
X387620Y283213D01*
G37*
G36*
X387620Y257813D02*
X387620Y257813D01*
X387724Y257817D01*
X389211Y257963D01*
X389254Y257973D01*
X389298Y257975D01*
X389455Y258012D01*
X390885Y258445D01*
X390925Y258463D01*
X390968Y258474D01*
X391114Y258541D01*
X392432Y259245D01*
X392468Y259270D01*
X392508Y259289D01*
X392639Y259383D01*
X393793Y260331D01*
X393824Y260363D01*
X393859Y260389D01*
X393969Y260507D01*
X394917Y261661D01*
X394941Y261699D01*
X394970Y261731D01*
X395055Y261868D01*
X395759Y263186D01*
X395775Y263227D01*
X395798Y263265D01*
X395855Y263416D01*
X396288Y264845D01*
X396296Y264889D01*
X396311Y264930D01*
X396337Y265089D01*
X396483Y266576D01*
X396483Y266596D01*
X396486Y266615D01*
X396485Y266638D01*
X396489Y266664D01*
X396483Y266824D01*
X396337Y268311D01*
X396327Y268354D01*
X396325Y268398D01*
X396288Y268555D01*
X395855Y269985D01*
X395837Y270025D01*
X395826Y270068D01*
X395759Y270214D01*
X395055Y271532D01*
X395030Y271568D01*
X395011Y271608D01*
X394917Y271739D01*
X393969Y272893D01*
X393937Y272924D01*
X393911Y272959D01*
X393793Y273069D01*
X392639Y274017D01*
X392601Y274041D01*
X392569Y274070D01*
X392432Y274155D01*
X391114Y274859D01*
X391073Y274875D01*
X391035Y274898D01*
X390885Y274955D01*
X389455Y275388D01*
X389411Y275396D01*
X389370Y275411D01*
X389211Y275437D01*
X387724Y275583D01*
X387705Y275583D01*
X387600Y275589D01*
X376170Y275589D01*
X376052Y275574D01*
X375933Y275567D01*
X375895Y275554D01*
X375854Y275549D01*
X375744Y275506D01*
X375631Y275469D01*
X375596Y275447D01*
X375559Y275432D01*
X375463Y275363D01*
X375362Y275299D01*
X375334Y275269D01*
X375301Y275246D01*
X375226Y275154D01*
X375144Y275067D01*
X375124Y275032D01*
X375099Y275001D01*
X375048Y274893D01*
X374990Y274789D01*
X374980Y274749D01*
X374963Y274713D01*
X374941Y274596D01*
X374911Y274481D01*
X374907Y274421D01*
X374903Y274401D01*
X374904Y274394D01*
X374903Y274392D01*
X374904Y274376D01*
X374901Y274320D01*
X374901Y259080D01*
X374916Y258962D01*
X374923Y258843D01*
X374936Y258805D01*
X374941Y258764D01*
X374984Y258654D01*
X375021Y258541D01*
X375043Y258506D01*
X375058Y258469D01*
X375128Y258373D01*
X375191Y258272D01*
X375221Y258244D01*
X375244Y258211D01*
X375336Y258136D01*
X375423Y258054D01*
X375458Y258034D01*
X375489Y258009D01*
X375597Y257958D01*
X375701Y257900D01*
X375741Y257890D01*
X375777Y257873D01*
X375894Y257851D01*
X376009Y257821D01*
X376070Y257817D01*
X376090Y257813D01*
X376110Y257815D01*
X376170Y257811D01*
X387600Y257811D01*
X387620Y257813D01*
G37*
G36*
X387620Y359413D02*
X387620Y359413D01*
X387724Y359417D01*
X389211Y359563D01*
X389254Y359573D01*
X389298Y359575D01*
X389455Y359612D01*
X390885Y360045D01*
X390925Y360063D01*
X390968Y360074D01*
X391114Y360141D01*
X392432Y360845D01*
X392468Y360870D01*
X392508Y360889D01*
X392639Y360983D01*
X393793Y361931D01*
X393824Y361963D01*
X393859Y361989D01*
X393969Y362107D01*
X394917Y363261D01*
X394941Y363299D01*
X394970Y363331D01*
X395055Y363468D01*
X395759Y364786D01*
X395775Y364827D01*
X395798Y364865D01*
X395855Y365016D01*
X396288Y366445D01*
X396296Y366489D01*
X396311Y366530D01*
X396337Y366689D01*
X396483Y368176D01*
X396483Y368196D01*
X396486Y368215D01*
X396485Y368238D01*
X396489Y368264D01*
X396483Y368424D01*
X396337Y369911D01*
X396327Y369954D01*
X396325Y369998D01*
X396288Y370155D01*
X395855Y371585D01*
X395837Y371625D01*
X395826Y371668D01*
X395759Y371814D01*
X395055Y373132D01*
X395030Y373168D01*
X395011Y373208D01*
X394917Y373339D01*
X393969Y374493D01*
X393937Y374524D01*
X393911Y374559D01*
X393793Y374669D01*
X392639Y375617D01*
X392601Y375641D01*
X392569Y375670D01*
X392432Y375755D01*
X391114Y376459D01*
X391073Y376475D01*
X391035Y376498D01*
X390885Y376555D01*
X389455Y376988D01*
X389411Y376996D01*
X389370Y377011D01*
X389211Y377037D01*
X387724Y377183D01*
X387705Y377183D01*
X387600Y377189D01*
X376170Y377189D01*
X376052Y377174D01*
X375933Y377167D01*
X375895Y377154D01*
X375854Y377149D01*
X375744Y377106D01*
X375631Y377069D01*
X375596Y377047D01*
X375559Y377032D01*
X375463Y376963D01*
X375362Y376899D01*
X375334Y376869D01*
X375301Y376846D01*
X375226Y376754D01*
X375144Y376667D01*
X375124Y376632D01*
X375099Y376601D01*
X375048Y376493D01*
X374990Y376389D01*
X374980Y376349D01*
X374963Y376313D01*
X374941Y376196D01*
X374911Y376081D01*
X374907Y376021D01*
X374903Y376001D01*
X374904Y375994D01*
X374903Y375992D01*
X374904Y375976D01*
X374901Y375920D01*
X374901Y360680D01*
X374916Y360562D01*
X374923Y360443D01*
X374936Y360405D01*
X374941Y360364D01*
X374984Y360254D01*
X375021Y360141D01*
X375043Y360106D01*
X375058Y360069D01*
X375128Y359973D01*
X375191Y359872D01*
X375221Y359844D01*
X375244Y359811D01*
X375336Y359736D01*
X375423Y359654D01*
X375458Y359634D01*
X375489Y359609D01*
X375597Y359558D01*
X375701Y359500D01*
X375741Y359490D01*
X375777Y359473D01*
X375894Y359451D01*
X376009Y359421D01*
X376070Y359417D01*
X376090Y359413D01*
X376110Y359415D01*
X376170Y359411D01*
X387600Y359411D01*
X387620Y359413D01*
G37*
G36*
X387620Y384813D02*
X387620Y384813D01*
X387724Y384817D01*
X389211Y384963D01*
X389254Y384973D01*
X389298Y384975D01*
X389455Y385012D01*
X390885Y385445D01*
X390925Y385463D01*
X390968Y385474D01*
X391114Y385541D01*
X392432Y386245D01*
X392468Y386270D01*
X392508Y386289D01*
X392639Y386383D01*
X393793Y387331D01*
X393824Y387363D01*
X393859Y387389D01*
X393969Y387507D01*
X394917Y388661D01*
X394941Y388699D01*
X394970Y388731D01*
X395055Y388868D01*
X395759Y390186D01*
X395775Y390227D01*
X395798Y390265D01*
X395855Y390416D01*
X396288Y391845D01*
X396296Y391889D01*
X396311Y391930D01*
X396337Y392089D01*
X396483Y393576D01*
X396483Y393596D01*
X396486Y393615D01*
X396485Y393638D01*
X396489Y393664D01*
X396483Y393824D01*
X396337Y395311D01*
X396327Y395354D01*
X396325Y395398D01*
X396288Y395555D01*
X395855Y396985D01*
X395837Y397025D01*
X395826Y397068D01*
X395759Y397214D01*
X395055Y398532D01*
X395030Y398568D01*
X395011Y398608D01*
X394917Y398739D01*
X393969Y399893D01*
X393937Y399924D01*
X393911Y399959D01*
X393793Y400069D01*
X392639Y401017D01*
X392601Y401041D01*
X392569Y401070D01*
X392432Y401155D01*
X391114Y401859D01*
X391073Y401875D01*
X391035Y401898D01*
X390885Y401955D01*
X389455Y402388D01*
X389411Y402396D01*
X389370Y402411D01*
X389211Y402437D01*
X387724Y402583D01*
X387705Y402583D01*
X387600Y402589D01*
X376170Y402589D01*
X376052Y402574D01*
X375933Y402567D01*
X375895Y402554D01*
X375854Y402549D01*
X375744Y402506D01*
X375631Y402469D01*
X375596Y402447D01*
X375559Y402432D01*
X375463Y402363D01*
X375362Y402299D01*
X375334Y402269D01*
X375301Y402246D01*
X375226Y402154D01*
X375144Y402067D01*
X375124Y402032D01*
X375099Y402001D01*
X375048Y401893D01*
X374990Y401789D01*
X374980Y401749D01*
X374963Y401713D01*
X374941Y401596D01*
X374911Y401481D01*
X374907Y401421D01*
X374903Y401401D01*
X374904Y401394D01*
X374903Y401392D01*
X374904Y401376D01*
X374901Y401320D01*
X374901Y386080D01*
X374916Y385962D01*
X374923Y385843D01*
X374936Y385805D01*
X374941Y385764D01*
X374984Y385654D01*
X375021Y385541D01*
X375043Y385506D01*
X375058Y385469D01*
X375128Y385373D01*
X375191Y385272D01*
X375221Y385244D01*
X375244Y385211D01*
X375336Y385136D01*
X375423Y385054D01*
X375458Y385034D01*
X375489Y385009D01*
X375597Y384958D01*
X375701Y384900D01*
X375741Y384890D01*
X375777Y384873D01*
X375894Y384851D01*
X376009Y384821D01*
X376070Y384817D01*
X376090Y384813D01*
X376110Y384815D01*
X376170Y384811D01*
X387600Y384811D01*
X387620Y384813D01*
G37*
G36*
X602098Y257826D02*
X602098Y257826D01*
X602217Y257833D01*
X602255Y257846D01*
X602296Y257851D01*
X602406Y257894D01*
X602519Y257931D01*
X602554Y257953D01*
X602591Y257968D01*
X602687Y258038D01*
X602788Y258101D01*
X602816Y258131D01*
X602849Y258154D01*
X602925Y258246D01*
X603006Y258333D01*
X603026Y258368D01*
X603051Y258399D01*
X603102Y258507D01*
X603160Y258611D01*
X603170Y258651D01*
X603187Y258687D01*
X603209Y258804D01*
X603239Y258919D01*
X603243Y258980D01*
X603247Y259000D01*
X603245Y259020D01*
X603249Y259080D01*
X603249Y274320D01*
X603234Y274438D01*
X603227Y274557D01*
X603214Y274595D01*
X603209Y274636D01*
X603166Y274746D01*
X603129Y274859D01*
X603107Y274894D01*
X603092Y274931D01*
X603023Y275027D01*
X602959Y275128D01*
X602929Y275156D01*
X602906Y275189D01*
X602814Y275265D01*
X602727Y275346D01*
X602692Y275366D01*
X602661Y275391D01*
X602553Y275442D01*
X602449Y275500D01*
X602409Y275510D01*
X602373Y275527D01*
X602256Y275549D01*
X602141Y275579D01*
X602081Y275583D01*
X602061Y275587D01*
X602040Y275585D01*
X601980Y275589D01*
X590550Y275589D01*
X590530Y275587D01*
X590426Y275583D01*
X588939Y275437D01*
X588896Y275427D01*
X588852Y275425D01*
X588695Y275388D01*
X587266Y274955D01*
X587225Y274937D01*
X587182Y274926D01*
X587036Y274859D01*
X585718Y274155D01*
X585717Y274154D01*
X585716Y274154D01*
X585705Y274146D01*
X585682Y274130D01*
X585642Y274111D01*
X585511Y274017D01*
X584357Y273069D01*
X584326Y273037D01*
X584291Y273011D01*
X584181Y272893D01*
X583233Y271739D01*
X583209Y271701D01*
X583180Y271669D01*
X583095Y271532D01*
X582391Y270214D01*
X582375Y270173D01*
X582352Y270135D01*
X582295Y269985D01*
X581862Y268555D01*
X581854Y268511D01*
X581839Y268470D01*
X581813Y268311D01*
X581667Y266824D01*
X581668Y266796D01*
X581664Y266776D01*
X581665Y266759D01*
X581661Y266737D01*
X581667Y266576D01*
X581813Y265089D01*
X581823Y265046D01*
X581825Y265002D01*
X581862Y264845D01*
X582295Y263416D01*
X582313Y263375D01*
X582324Y263332D01*
X582391Y263186D01*
X583095Y261868D01*
X583120Y261832D01*
X583139Y261792D01*
X583233Y261661D01*
X584181Y260507D01*
X584213Y260476D01*
X584239Y260441D01*
X584357Y260331D01*
X585511Y259383D01*
X585549Y259359D01*
X585581Y259330D01*
X585718Y259245D01*
X587036Y258541D01*
X587077Y258525D01*
X587115Y258502D01*
X587266Y258445D01*
X588695Y258012D01*
X588739Y258004D01*
X588780Y257989D01*
X588939Y257963D01*
X590426Y257817D01*
X590445Y257817D01*
X590550Y257811D01*
X601980Y257811D01*
X602098Y257826D01*
G37*
G36*
X602098Y232426D02*
X602098Y232426D01*
X602217Y232433D01*
X602255Y232446D01*
X602296Y232451D01*
X602406Y232494D01*
X602519Y232531D01*
X602554Y232553D01*
X602591Y232568D01*
X602687Y232638D01*
X602788Y232701D01*
X602816Y232731D01*
X602849Y232754D01*
X602925Y232846D01*
X603006Y232933D01*
X603026Y232968D01*
X603051Y232999D01*
X603102Y233107D01*
X603160Y233211D01*
X603170Y233251D01*
X603187Y233287D01*
X603209Y233404D01*
X603239Y233519D01*
X603243Y233580D01*
X603247Y233600D01*
X603245Y233620D01*
X603249Y233680D01*
X603249Y248920D01*
X603234Y249038D01*
X603227Y249157D01*
X603214Y249195D01*
X603209Y249236D01*
X603166Y249346D01*
X603129Y249459D01*
X603107Y249494D01*
X603092Y249531D01*
X603023Y249627D01*
X602959Y249728D01*
X602929Y249756D01*
X602906Y249789D01*
X602814Y249865D01*
X602727Y249946D01*
X602692Y249966D01*
X602661Y249991D01*
X602553Y250042D01*
X602449Y250100D01*
X602409Y250110D01*
X602373Y250127D01*
X602256Y250149D01*
X602141Y250179D01*
X602081Y250183D01*
X602061Y250187D01*
X602040Y250185D01*
X601980Y250189D01*
X590550Y250189D01*
X590530Y250187D01*
X590426Y250183D01*
X588939Y250037D01*
X588896Y250027D01*
X588852Y250025D01*
X588695Y249988D01*
X587266Y249555D01*
X587225Y249537D01*
X587182Y249526D01*
X587036Y249459D01*
X585718Y248755D01*
X585717Y248754D01*
X585716Y248754D01*
X585705Y248746D01*
X585682Y248730D01*
X585642Y248711D01*
X585511Y248617D01*
X584357Y247669D01*
X584326Y247637D01*
X584291Y247611D01*
X584181Y247493D01*
X583233Y246339D01*
X583209Y246301D01*
X583180Y246269D01*
X583095Y246132D01*
X582391Y244814D01*
X582375Y244773D01*
X582352Y244735D01*
X582295Y244585D01*
X581862Y243155D01*
X581854Y243111D01*
X581839Y243070D01*
X581813Y242911D01*
X581667Y241424D01*
X581668Y241396D01*
X581664Y241376D01*
X581665Y241359D01*
X581661Y241337D01*
X581667Y241176D01*
X581813Y239689D01*
X581823Y239646D01*
X581825Y239602D01*
X581862Y239445D01*
X582295Y238016D01*
X582313Y237975D01*
X582324Y237932D01*
X582391Y237786D01*
X583095Y236468D01*
X583120Y236432D01*
X583139Y236392D01*
X583233Y236261D01*
X584181Y235107D01*
X584213Y235076D01*
X584239Y235041D01*
X584357Y234931D01*
X585511Y233983D01*
X585549Y233959D01*
X585581Y233930D01*
X585718Y233845D01*
X587036Y233141D01*
X587077Y233125D01*
X587115Y233102D01*
X587266Y233045D01*
X588695Y232612D01*
X588739Y232604D01*
X588780Y232589D01*
X588939Y232563D01*
X590426Y232417D01*
X590445Y232417D01*
X590550Y232411D01*
X601980Y232411D01*
X602098Y232426D01*
G37*
G36*
X602098Y207026D02*
X602098Y207026D01*
X602217Y207033D01*
X602255Y207046D01*
X602296Y207051D01*
X602406Y207094D01*
X602519Y207131D01*
X602554Y207153D01*
X602591Y207168D01*
X602687Y207238D01*
X602788Y207301D01*
X602816Y207331D01*
X602849Y207354D01*
X602925Y207446D01*
X603006Y207533D01*
X603026Y207568D01*
X603051Y207599D01*
X603102Y207707D01*
X603160Y207811D01*
X603170Y207851D01*
X603187Y207887D01*
X603209Y208004D01*
X603239Y208119D01*
X603243Y208180D01*
X603247Y208200D01*
X603245Y208220D01*
X603249Y208280D01*
X603249Y223520D01*
X603234Y223638D01*
X603227Y223757D01*
X603214Y223795D01*
X603209Y223836D01*
X603166Y223946D01*
X603129Y224059D01*
X603107Y224094D01*
X603092Y224131D01*
X603023Y224227D01*
X602959Y224328D01*
X602929Y224356D01*
X602906Y224389D01*
X602814Y224465D01*
X602727Y224546D01*
X602692Y224566D01*
X602661Y224591D01*
X602553Y224642D01*
X602449Y224700D01*
X602409Y224710D01*
X602373Y224727D01*
X602256Y224749D01*
X602141Y224779D01*
X602081Y224783D01*
X602061Y224787D01*
X602040Y224785D01*
X601980Y224789D01*
X590550Y224789D01*
X590530Y224787D01*
X590426Y224783D01*
X588939Y224637D01*
X588896Y224627D01*
X588852Y224625D01*
X588695Y224588D01*
X587266Y224155D01*
X587225Y224137D01*
X587182Y224126D01*
X587036Y224059D01*
X585718Y223355D01*
X585717Y223354D01*
X585716Y223354D01*
X585705Y223346D01*
X585682Y223330D01*
X585642Y223311D01*
X585511Y223217D01*
X584357Y222269D01*
X584326Y222237D01*
X584291Y222211D01*
X584181Y222093D01*
X583233Y220939D01*
X583209Y220901D01*
X583180Y220869D01*
X583095Y220732D01*
X582391Y219414D01*
X582375Y219373D01*
X582352Y219335D01*
X582295Y219185D01*
X581862Y217755D01*
X581854Y217711D01*
X581839Y217670D01*
X581813Y217511D01*
X581667Y216024D01*
X581668Y215996D01*
X581664Y215976D01*
X581665Y215959D01*
X581661Y215937D01*
X581667Y215776D01*
X581813Y214289D01*
X581823Y214246D01*
X581825Y214202D01*
X581862Y214045D01*
X582295Y212616D01*
X582313Y212575D01*
X582324Y212532D01*
X582391Y212386D01*
X583095Y211068D01*
X583120Y211032D01*
X583139Y210992D01*
X583233Y210861D01*
X584181Y209707D01*
X584213Y209676D01*
X584239Y209641D01*
X584357Y209531D01*
X585511Y208583D01*
X585549Y208559D01*
X585581Y208530D01*
X585718Y208445D01*
X587036Y207741D01*
X587077Y207725D01*
X587115Y207702D01*
X587266Y207645D01*
X588695Y207212D01*
X588739Y207204D01*
X588780Y207189D01*
X588939Y207163D01*
X590426Y207017D01*
X590445Y207017D01*
X590550Y207011D01*
X601980Y207011D01*
X602098Y207026D01*
G37*
G36*
X602098Y181626D02*
X602098Y181626D01*
X602217Y181633D01*
X602255Y181646D01*
X602296Y181651D01*
X602406Y181694D01*
X602519Y181731D01*
X602554Y181753D01*
X602591Y181768D01*
X602687Y181838D01*
X602788Y181901D01*
X602816Y181931D01*
X602849Y181954D01*
X602925Y182046D01*
X603006Y182133D01*
X603026Y182168D01*
X603051Y182199D01*
X603102Y182307D01*
X603160Y182411D01*
X603170Y182451D01*
X603187Y182487D01*
X603209Y182604D01*
X603239Y182719D01*
X603243Y182780D01*
X603247Y182800D01*
X603245Y182820D01*
X603249Y182880D01*
X603249Y198120D01*
X603234Y198238D01*
X603227Y198357D01*
X603214Y198395D01*
X603209Y198436D01*
X603166Y198546D01*
X603129Y198659D01*
X603107Y198694D01*
X603092Y198731D01*
X603023Y198827D01*
X602959Y198928D01*
X602929Y198956D01*
X602906Y198989D01*
X602814Y199065D01*
X602727Y199146D01*
X602692Y199166D01*
X602661Y199191D01*
X602553Y199242D01*
X602449Y199300D01*
X602409Y199310D01*
X602373Y199327D01*
X602256Y199349D01*
X602141Y199379D01*
X602081Y199383D01*
X602061Y199387D01*
X602040Y199385D01*
X601980Y199389D01*
X590550Y199389D01*
X590530Y199387D01*
X590426Y199383D01*
X588939Y199237D01*
X588896Y199227D01*
X588852Y199225D01*
X588695Y199188D01*
X587266Y198755D01*
X587225Y198737D01*
X587182Y198726D01*
X587036Y198659D01*
X585718Y197955D01*
X585717Y197954D01*
X585716Y197954D01*
X585705Y197946D01*
X585682Y197930D01*
X585642Y197911D01*
X585511Y197817D01*
X584357Y196869D01*
X584326Y196837D01*
X584291Y196811D01*
X584181Y196693D01*
X583233Y195539D01*
X583209Y195501D01*
X583180Y195469D01*
X583095Y195332D01*
X582391Y194014D01*
X582375Y193973D01*
X582352Y193935D01*
X582295Y193785D01*
X581862Y192355D01*
X581854Y192311D01*
X581839Y192270D01*
X581813Y192111D01*
X581667Y190624D01*
X581668Y190596D01*
X581664Y190576D01*
X581665Y190559D01*
X581661Y190537D01*
X581667Y190376D01*
X581813Y188889D01*
X581823Y188846D01*
X581825Y188802D01*
X581862Y188645D01*
X582295Y187216D01*
X582313Y187175D01*
X582324Y187132D01*
X582391Y186986D01*
X583095Y185668D01*
X583120Y185632D01*
X583139Y185592D01*
X583233Y185461D01*
X584181Y184307D01*
X584213Y184276D01*
X584239Y184241D01*
X584357Y184131D01*
X585511Y183183D01*
X585549Y183159D01*
X585581Y183130D01*
X585718Y183045D01*
X587036Y182341D01*
X587077Y182325D01*
X587115Y182302D01*
X587266Y182245D01*
X588695Y181812D01*
X588739Y181804D01*
X588780Y181789D01*
X588939Y181763D01*
X590426Y181617D01*
X590445Y181617D01*
X590550Y181611D01*
X601980Y181611D01*
X602098Y181626D01*
G37*
G36*
X602098Y410226D02*
X602098Y410226D01*
X602217Y410233D01*
X602255Y410246D01*
X602296Y410251D01*
X602406Y410294D01*
X602519Y410331D01*
X602554Y410353D01*
X602591Y410368D01*
X602687Y410438D01*
X602788Y410501D01*
X602816Y410531D01*
X602849Y410554D01*
X602925Y410646D01*
X603006Y410733D01*
X603026Y410768D01*
X603051Y410799D01*
X603102Y410907D01*
X603160Y411011D01*
X603170Y411051D01*
X603187Y411087D01*
X603209Y411204D01*
X603239Y411319D01*
X603243Y411380D01*
X603247Y411400D01*
X603245Y411420D01*
X603249Y411480D01*
X603249Y426720D01*
X603234Y426838D01*
X603227Y426957D01*
X603214Y426995D01*
X603209Y427036D01*
X603166Y427146D01*
X603129Y427259D01*
X603107Y427294D01*
X603092Y427331D01*
X603023Y427427D01*
X602959Y427528D01*
X602929Y427556D01*
X602906Y427589D01*
X602814Y427665D01*
X602727Y427746D01*
X602692Y427766D01*
X602661Y427791D01*
X602553Y427842D01*
X602449Y427900D01*
X602409Y427910D01*
X602373Y427927D01*
X602256Y427949D01*
X602141Y427979D01*
X602081Y427983D01*
X602061Y427987D01*
X602040Y427985D01*
X601980Y427989D01*
X590550Y427989D01*
X590530Y427987D01*
X590426Y427983D01*
X588939Y427837D01*
X588896Y427827D01*
X588852Y427825D01*
X588695Y427788D01*
X587266Y427355D01*
X587225Y427337D01*
X587182Y427326D01*
X587036Y427259D01*
X585718Y426555D01*
X585717Y426554D01*
X585716Y426554D01*
X585705Y426546D01*
X585682Y426530D01*
X585642Y426511D01*
X585511Y426417D01*
X584357Y425469D01*
X584326Y425437D01*
X584291Y425411D01*
X584181Y425293D01*
X583233Y424139D01*
X583209Y424101D01*
X583180Y424069D01*
X583095Y423932D01*
X582391Y422614D01*
X582375Y422573D01*
X582352Y422535D01*
X582295Y422385D01*
X581862Y420955D01*
X581854Y420911D01*
X581839Y420870D01*
X581813Y420711D01*
X581667Y419224D01*
X581668Y419196D01*
X581664Y419176D01*
X581665Y419159D01*
X581661Y419137D01*
X581667Y418976D01*
X581813Y417489D01*
X581823Y417446D01*
X581825Y417402D01*
X581862Y417245D01*
X582295Y415816D01*
X582313Y415775D01*
X582324Y415732D01*
X582391Y415586D01*
X583095Y414268D01*
X583120Y414232D01*
X583139Y414192D01*
X583233Y414061D01*
X584181Y412907D01*
X584213Y412876D01*
X584239Y412841D01*
X584357Y412731D01*
X585511Y411783D01*
X585549Y411759D01*
X585581Y411730D01*
X585718Y411645D01*
X587036Y410941D01*
X587077Y410925D01*
X587115Y410902D01*
X587266Y410845D01*
X588695Y410412D01*
X588739Y410404D01*
X588780Y410389D01*
X588939Y410363D01*
X590426Y410217D01*
X590445Y410217D01*
X590550Y410211D01*
X601980Y410211D01*
X602098Y410226D01*
G37*
G36*
X602098Y156226D02*
X602098Y156226D01*
X602217Y156233D01*
X602255Y156246D01*
X602296Y156251D01*
X602406Y156294D01*
X602519Y156331D01*
X602554Y156353D01*
X602591Y156368D01*
X602687Y156438D01*
X602788Y156501D01*
X602816Y156531D01*
X602849Y156554D01*
X602925Y156646D01*
X603006Y156733D01*
X603026Y156768D01*
X603051Y156799D01*
X603102Y156907D01*
X603160Y157011D01*
X603170Y157051D01*
X603187Y157087D01*
X603209Y157204D01*
X603239Y157319D01*
X603243Y157380D01*
X603247Y157400D01*
X603245Y157420D01*
X603249Y157480D01*
X603249Y172720D01*
X603234Y172838D01*
X603227Y172957D01*
X603214Y172995D01*
X603209Y173036D01*
X603166Y173146D01*
X603129Y173259D01*
X603107Y173294D01*
X603092Y173331D01*
X603023Y173427D01*
X602959Y173528D01*
X602929Y173556D01*
X602906Y173589D01*
X602814Y173665D01*
X602727Y173746D01*
X602692Y173766D01*
X602661Y173791D01*
X602553Y173842D01*
X602449Y173900D01*
X602409Y173910D01*
X602373Y173927D01*
X602256Y173949D01*
X602141Y173979D01*
X602081Y173983D01*
X602061Y173987D01*
X602040Y173985D01*
X601980Y173989D01*
X590550Y173989D01*
X590530Y173987D01*
X590426Y173983D01*
X588939Y173837D01*
X588896Y173827D01*
X588852Y173825D01*
X588695Y173788D01*
X587266Y173355D01*
X587225Y173337D01*
X587182Y173326D01*
X587036Y173259D01*
X585718Y172555D01*
X585717Y172554D01*
X585716Y172554D01*
X585705Y172546D01*
X585682Y172530D01*
X585642Y172511D01*
X585511Y172417D01*
X584357Y171469D01*
X584326Y171437D01*
X584291Y171411D01*
X584181Y171293D01*
X583233Y170139D01*
X583209Y170101D01*
X583180Y170069D01*
X583095Y169932D01*
X582391Y168614D01*
X582375Y168573D01*
X582352Y168535D01*
X582295Y168385D01*
X581862Y166955D01*
X581854Y166911D01*
X581839Y166870D01*
X581813Y166711D01*
X581667Y165224D01*
X581668Y165196D01*
X581664Y165176D01*
X581665Y165159D01*
X581661Y165137D01*
X581667Y164976D01*
X581813Y163489D01*
X581823Y163446D01*
X581825Y163402D01*
X581862Y163245D01*
X582295Y161816D01*
X582313Y161775D01*
X582324Y161732D01*
X582391Y161586D01*
X583095Y160268D01*
X583120Y160232D01*
X583139Y160192D01*
X583233Y160061D01*
X584181Y158907D01*
X584213Y158876D01*
X584239Y158841D01*
X584357Y158731D01*
X585511Y157783D01*
X585549Y157759D01*
X585581Y157730D01*
X585718Y157645D01*
X587036Y156941D01*
X587077Y156925D01*
X587115Y156902D01*
X587266Y156845D01*
X588695Y156412D01*
X588739Y156404D01*
X588780Y156389D01*
X588939Y156363D01*
X590426Y156217D01*
X590445Y156217D01*
X590550Y156211D01*
X601980Y156211D01*
X602098Y156226D01*
G37*
G36*
X602098Y435626D02*
X602098Y435626D01*
X602217Y435633D01*
X602255Y435646D01*
X602296Y435651D01*
X602406Y435694D01*
X602519Y435731D01*
X602554Y435753D01*
X602591Y435768D01*
X602687Y435838D01*
X602788Y435901D01*
X602816Y435931D01*
X602849Y435954D01*
X602925Y436046D01*
X603006Y436133D01*
X603026Y436168D01*
X603051Y436199D01*
X603102Y436307D01*
X603160Y436411D01*
X603170Y436451D01*
X603187Y436487D01*
X603209Y436604D01*
X603239Y436719D01*
X603243Y436780D01*
X603247Y436800D01*
X603245Y436820D01*
X603249Y436880D01*
X603249Y452120D01*
X603234Y452238D01*
X603227Y452357D01*
X603214Y452395D01*
X603209Y452436D01*
X603166Y452546D01*
X603129Y452659D01*
X603107Y452694D01*
X603092Y452731D01*
X603023Y452827D01*
X602959Y452928D01*
X602929Y452956D01*
X602906Y452989D01*
X602814Y453065D01*
X602727Y453146D01*
X602692Y453166D01*
X602661Y453191D01*
X602553Y453242D01*
X602449Y453300D01*
X602409Y453310D01*
X602373Y453327D01*
X602256Y453349D01*
X602141Y453379D01*
X602081Y453383D01*
X602061Y453387D01*
X602040Y453385D01*
X601980Y453389D01*
X590550Y453389D01*
X590530Y453387D01*
X590426Y453383D01*
X588939Y453237D01*
X588896Y453227D01*
X588852Y453225D01*
X588695Y453188D01*
X587266Y452755D01*
X587225Y452737D01*
X587182Y452726D01*
X587036Y452659D01*
X585718Y451955D01*
X585717Y451954D01*
X585716Y451954D01*
X585705Y451946D01*
X585682Y451930D01*
X585642Y451911D01*
X585511Y451817D01*
X584357Y450869D01*
X584326Y450837D01*
X584291Y450811D01*
X584181Y450693D01*
X583233Y449539D01*
X583209Y449501D01*
X583180Y449469D01*
X583095Y449332D01*
X582391Y448014D01*
X582375Y447973D01*
X582352Y447935D01*
X582295Y447785D01*
X581862Y446355D01*
X581854Y446311D01*
X581839Y446270D01*
X581813Y446111D01*
X581667Y444624D01*
X581668Y444596D01*
X581664Y444576D01*
X581665Y444559D01*
X581661Y444537D01*
X581667Y444376D01*
X581813Y442889D01*
X581823Y442846D01*
X581825Y442802D01*
X581862Y442645D01*
X582295Y441216D01*
X582313Y441175D01*
X582324Y441132D01*
X582391Y440986D01*
X583095Y439668D01*
X583120Y439632D01*
X583139Y439592D01*
X583233Y439461D01*
X584181Y438307D01*
X584213Y438276D01*
X584239Y438241D01*
X584357Y438131D01*
X585511Y437183D01*
X585549Y437159D01*
X585581Y437130D01*
X585718Y437045D01*
X587036Y436341D01*
X587077Y436325D01*
X587115Y436302D01*
X587266Y436245D01*
X588695Y435812D01*
X588739Y435804D01*
X588780Y435789D01*
X588939Y435763D01*
X590426Y435617D01*
X590445Y435617D01*
X590550Y435611D01*
X601980Y435611D01*
X602098Y435626D01*
G37*
G36*
X602098Y461026D02*
X602098Y461026D01*
X602217Y461033D01*
X602255Y461046D01*
X602296Y461051D01*
X602406Y461094D01*
X602519Y461131D01*
X602554Y461153D01*
X602591Y461168D01*
X602687Y461238D01*
X602788Y461301D01*
X602816Y461331D01*
X602849Y461354D01*
X602925Y461446D01*
X603006Y461533D01*
X603026Y461568D01*
X603051Y461599D01*
X603102Y461707D01*
X603160Y461811D01*
X603170Y461851D01*
X603187Y461887D01*
X603209Y462004D01*
X603239Y462119D01*
X603243Y462180D01*
X603247Y462200D01*
X603245Y462220D01*
X603249Y462280D01*
X603249Y477520D01*
X603234Y477638D01*
X603227Y477757D01*
X603214Y477795D01*
X603209Y477836D01*
X603166Y477946D01*
X603129Y478059D01*
X603107Y478094D01*
X603092Y478131D01*
X603023Y478227D01*
X602959Y478328D01*
X602929Y478356D01*
X602906Y478389D01*
X602814Y478465D01*
X602727Y478546D01*
X602692Y478566D01*
X602661Y478591D01*
X602553Y478642D01*
X602449Y478700D01*
X602409Y478710D01*
X602373Y478727D01*
X602256Y478749D01*
X602141Y478779D01*
X602081Y478783D01*
X602061Y478787D01*
X602040Y478785D01*
X601980Y478789D01*
X590550Y478789D01*
X590530Y478787D01*
X590426Y478783D01*
X588939Y478637D01*
X588896Y478627D01*
X588852Y478625D01*
X588695Y478588D01*
X587266Y478155D01*
X587225Y478137D01*
X587182Y478126D01*
X587036Y478059D01*
X585718Y477355D01*
X585717Y477354D01*
X585716Y477354D01*
X585705Y477346D01*
X585682Y477330D01*
X585642Y477311D01*
X585511Y477217D01*
X584357Y476269D01*
X584326Y476237D01*
X584291Y476211D01*
X584181Y476093D01*
X583233Y474939D01*
X583209Y474901D01*
X583180Y474869D01*
X583095Y474732D01*
X582391Y473414D01*
X582375Y473373D01*
X582352Y473335D01*
X582295Y473185D01*
X581862Y471755D01*
X581854Y471711D01*
X581839Y471670D01*
X581813Y471511D01*
X581667Y470024D01*
X581668Y469996D01*
X581664Y469976D01*
X581665Y469959D01*
X581661Y469937D01*
X581667Y469776D01*
X581813Y468289D01*
X581823Y468246D01*
X581825Y468202D01*
X581862Y468045D01*
X582295Y466616D01*
X582313Y466575D01*
X582324Y466532D01*
X582391Y466386D01*
X583095Y465068D01*
X583120Y465032D01*
X583139Y464992D01*
X583233Y464861D01*
X584181Y463707D01*
X584213Y463676D01*
X584239Y463641D01*
X584357Y463531D01*
X585511Y462583D01*
X585549Y462559D01*
X585581Y462530D01*
X585718Y462445D01*
X587036Y461741D01*
X587077Y461725D01*
X587115Y461702D01*
X587266Y461645D01*
X588695Y461212D01*
X588739Y461204D01*
X588780Y461189D01*
X588939Y461163D01*
X590426Y461017D01*
X590445Y461017D01*
X590550Y461011D01*
X601980Y461011D01*
X602098Y461026D01*
G37*
%LPC*%
G36*
X99740Y503755D02*
X99740Y503755D01*
X98255Y505240D01*
X98255Y515840D01*
X99740Y517325D01*
X108840Y517325D01*
X110325Y515840D01*
X110325Y514350D01*
X110330Y514345D01*
X110330Y514346D01*
X110330Y514345D01*
X110420Y514345D01*
X110425Y514350D01*
X110424Y514350D01*
X110425Y514350D01*
X110425Y515590D01*
X111910Y517075D01*
X122010Y517075D01*
X123495Y515590D01*
X123495Y505490D01*
X122010Y504005D01*
X111910Y504005D01*
X110425Y505490D01*
X110425Y506730D01*
X110420Y506735D01*
X110420Y506734D01*
X110420Y506735D01*
X110330Y506735D01*
X110325Y506730D01*
X110326Y506730D01*
X110325Y506730D01*
X110325Y505240D01*
X108840Y503755D01*
X99740Y503755D01*
G37*
%LPD*%
%LPC*%
G36*
X567100Y113865D02*
X567100Y113865D01*
X565615Y115350D01*
X565615Y125950D01*
X567100Y127435D01*
X576200Y127435D01*
X577221Y126414D01*
X577228Y126413D01*
X577228Y126414D01*
X577229Y126414D01*
X578000Y127185D01*
X588100Y127185D01*
X589585Y125700D01*
X589585Y115600D01*
X588100Y114115D01*
X578000Y114115D01*
X577229Y114886D01*
X577226Y114886D01*
X577226Y114887D01*
X577224Y114887D01*
X577224Y114886D01*
X577222Y114887D01*
X577222Y114886D01*
X577221Y114886D01*
X576200Y113865D01*
X567100Y113865D01*
G37*
%LPD*%
G36*
X634278Y267357D02*
X634278Y267357D01*
X634298Y267354D01*
X635420Y267574D01*
X635439Y267584D01*
X635463Y267587D01*
X636508Y268050D01*
X636524Y268065D01*
X636546Y268073D01*
X637462Y268757D01*
X637475Y268775D01*
X637495Y268788D01*
X638235Y269659D01*
X638243Y269679D01*
X638260Y269696D01*
X638788Y270709D01*
X638792Y270731D01*
X638804Y270751D01*
X639094Y271857D01*
X639092Y271878D01*
X639100Y271901D01*
X639136Y273044D01*
X639134Y273050D01*
X639136Y273056D01*
X639104Y274115D01*
X639098Y274134D01*
X639099Y274156D01*
X638850Y275186D01*
X638840Y275203D01*
X638836Y275225D01*
X638381Y276182D01*
X638367Y276196D01*
X638359Y276217D01*
X637717Y277060D01*
X637700Y277071D01*
X637688Y277090D01*
X636886Y277782D01*
X636868Y277790D01*
X636852Y277805D01*
X635925Y278318D01*
X635905Y278322D01*
X635887Y278334D01*
X634874Y278645D01*
X634854Y278644D01*
X634833Y278653D01*
X633778Y278748D01*
X633737Y278739D01*
X633694Y278738D01*
X633677Y278725D01*
X633657Y278720D01*
X633629Y278688D01*
X633595Y278662D01*
X633589Y278641D01*
X633576Y278625D01*
X633573Y278590D01*
X633561Y278550D01*
X633561Y267550D01*
X633571Y267518D01*
X633572Y267484D01*
X633590Y267460D01*
X633600Y267432D01*
X633627Y267412D01*
X633648Y267385D01*
X633679Y267376D01*
X633701Y267360D01*
X633730Y267360D01*
X633760Y267351D01*
X634260Y267351D01*
X634278Y267357D01*
G37*
G36*
X631181Y267361D02*
X631181Y267361D01*
X631226Y267362D01*
X631241Y267374D01*
X631260Y267378D01*
X631289Y267411D01*
X631325Y267438D01*
X631331Y267457D01*
X631343Y267471D01*
X631346Y267507D01*
X631359Y267550D01*
X631359Y278550D01*
X631345Y278592D01*
X631339Y278637D01*
X631326Y278650D01*
X631320Y278668D01*
X631284Y278694D01*
X631253Y278726D01*
X631233Y278730D01*
X631219Y278740D01*
X631182Y278740D01*
X631138Y278748D01*
X630003Y278620D01*
X629983Y278611D01*
X629959Y278610D01*
X628881Y278233D01*
X628864Y278220D01*
X628841Y278214D01*
X627874Y277606D01*
X627860Y277589D01*
X627839Y277578D01*
X627032Y276771D01*
X627022Y276751D01*
X627004Y276736D01*
X626396Y275769D01*
X626391Y275748D01*
X626377Y275729D01*
X626000Y274651D01*
X625999Y274629D01*
X625990Y274607D01*
X625863Y273480D01*
X625787Y273088D01*
X625792Y273053D01*
X625787Y273012D01*
X625863Y272620D01*
X625990Y271493D01*
X625998Y271476D01*
X625998Y271469D01*
X625999Y271467D01*
X626000Y271449D01*
X626377Y270371D01*
X626390Y270354D01*
X626396Y270331D01*
X627004Y269364D01*
X627021Y269350D01*
X627032Y269329D01*
X627839Y268522D01*
X627859Y268512D01*
X627874Y268494D01*
X628841Y267886D01*
X628862Y267881D01*
X628881Y267867D01*
X629959Y267490D01*
X629981Y267489D01*
X630003Y267480D01*
X631138Y267352D01*
X631181Y267361D01*
G37*
D10*
X38100Y341850D03*
X38100Y306850D03*
D11*
X260350Y428630D03*
X260350Y508630D03*
D12*
X330200Y455050D03*
X330200Y472050D03*
X349250Y455050D03*
X349250Y472050D03*
D11*
X260350Y370200D03*
X260350Y290200D03*
D12*
X349250Y313300D03*
X349250Y296300D03*
X330200Y313300D03*
X330200Y296300D03*
D11*
X260350Y156850D03*
X260350Y236850D03*
D12*
X330200Y194700D03*
X330200Y211700D03*
X349250Y194700D03*
X349250Y211700D03*
D13*
X95250Y438150D03*
X95250Y209550D03*
X95250Y342900D03*
X95250Y304800D03*
X95250Y177800D03*
X95250Y476250D03*
D14*
X146050Y444500D03*
X146050Y469900D03*
D15*
X146050Y340360D03*
X146050Y314960D03*
D14*
X146050Y184150D03*
X146050Y209550D03*
D16*
X489820Y520450D03*
X489820Y552450D03*
X514820Y552450D03*
X464820Y552450D03*
X464820Y520450D03*
X514820Y520450D03*
D17*
X422760Y516890D03*
X435760Y516890D03*
D18*
X534670Y120650D03*
X544830Y120650D03*
D19*
X534670Y120650D01*
D17*
X558650Y120650D03*
X571650Y120650D03*
D20*
X598050Y120650D03*
X583050Y120650D03*
D21*
X754380Y323850D02*
X769620Y323850D01*
X769620Y298450D02*
X754380Y298450D01*
X754380Y273050D02*
X769620Y273050D01*
X769620Y247650D02*
X754380Y247650D01*
X754380Y222250D02*
X769620Y222250D01*
X769620Y196850D02*
X754380Y196850D01*
X754380Y171450D02*
X769620Y171450D01*
X769620Y146050D02*
X754380Y146050D01*
X754380Y120650D02*
X769620Y120650D01*
X769620Y95250D02*
X754380Y95250D01*
X754380Y69850D02*
X769620Y69850D01*
X769620Y44450D02*
X754380Y44450D01*
D22*
X595376Y469900D03*
X382778Y444500D03*
X382778Y419100D03*
X382778Y393700D03*
X382778Y368300D03*
X382778Y342900D03*
X382778Y317500D03*
X382778Y292100D03*
X382778Y266700D03*
X382778Y241300D03*
X382778Y215900D03*
X382778Y190500D03*
X382778Y165100D03*
X595376Y444500D03*
X595376Y419100D03*
X595376Y393700D03*
X595376Y368300D03*
X595376Y342900D03*
X595376Y317500D03*
X595376Y292100D03*
X595376Y266700D03*
X595376Y241300D03*
X595376Y215900D03*
X595376Y190500D03*
X595376Y165100D03*
D23*
X491627Y185614D03*
X491627Y165614D03*
D24*
X482847Y227266D03*
D25*
X496184Y362906D03*
D26*
X684140Y346710D03*
X667140Y346710D03*
D27*
X114300Y37950D03*
X114300Y50950D03*
D17*
X125880Y91440D03*
X112880Y91440D03*
D28*
X76200Y62350D03*
X76200Y67350D03*
D29*
X76200Y37600D03*
D30*
X76200Y45350D03*
D28*
X76200Y52350D03*
X76200Y57350D03*
X76200Y77350D03*
X76200Y72350D03*
D29*
X76200Y102100D03*
D30*
X76200Y94350D03*
D28*
X76200Y87350D03*
X76200Y82350D03*
D31*
X72550Y113050D02*
X61550Y113050D01*
X61550Y26650D02*
X72550Y26650D01*
X28250Y113050D02*
X22250Y113050D01*
X22250Y26650D02*
X28250Y26650D01*
D32*
X726440Y401320D03*
X726440Y381320D03*
X726440Y421320D03*
D33*
X748940Y357320D03*
X748940Y445320D03*
D10*
X38100Y475200D03*
X38100Y440200D03*
X38100Y214850D03*
X38100Y179850D03*
D34*
X711030Y529430D03*
X711030Y509430D03*
D35*
X763030Y553430D03*
X763030Y485430D03*
D27*
X727710Y264010D03*
X727710Y277010D03*
X716280Y279550D03*
X716280Y266550D03*
D36*
X634560Y273050D03*
X630360Y273050D03*
D27*
X629920Y440540D03*
X629920Y453540D03*
X702310Y279550D03*
X702310Y266550D03*
D37*
X655320Y273050D03*
X680720Y273050D03*
D17*
X91290Y510540D03*
X104290Y510540D03*
D20*
X131960Y510540D03*
X116960Y510540D03*
D38*
X194175Y114300D03*
X161425Y114300D03*
D39*
X702310Y279550D02*
X716280Y279550D01*
D40*
X629920Y525780D03*
D19*
X633570Y529430D02*
X711030Y529430D01*
X633570Y529430D02*
X629920Y525780D01*
X762000Y44450D02*
X306070Y44450D01*
X273050Y11430D01*
X140820Y11430D02*
X115495Y36755D01*
X114300Y37950D01*
X140820Y11430D02*
X273050Y11430D01*
X422760Y516890D02*
X423228Y518160D01*
X411480Y518160D01*
D40*
X411480Y518160D03*
D41*
X137160Y91440D02*
X125880Y91440D01*
D40*
X137160Y91440D03*
X129540Y38100D03*
D41*
X128195Y36755D01*
X115495Y36755D01*
X113950Y37600D02*
X76200Y37600D01*
X113950Y37600D02*
X114300Y37950D01*
X76200Y102100D02*
X67050Y111250D01*
X67050Y113050D01*
X76200Y37600D02*
X76200Y35800D01*
X67050Y26650D01*
D19*
X132080Y510420D02*
X131960Y510540D01*
X132080Y510420D02*
X132080Y497840D01*
D40*
X132080Y497840D03*
X474980Y378460D03*
X474980Y363220D03*
X474980Y342900D03*
X490220Y332740D03*
X510540Y332740D03*
X515620Y353060D03*
X518160Y373380D03*
X495300Y391160D03*
X497840Y363220D03*
X508000Y223520D03*
X508000Y243840D03*
X485140Y254000D03*
X462280Y256540D03*
X459740Y223520D03*
X459740Y203200D03*
X490220Y203200D03*
X424180Y393700D03*
X424180Y337820D03*
X424180Y266700D03*
X426720Y190500D03*
X556260Y167640D03*
X553720Y254000D03*
X551180Y345440D03*
X548640Y416560D03*
X426720Y472440D03*
X480060Y477520D03*
X528320Y477520D03*
X35560Y259080D03*
X81280Y261620D03*
X127000Y261620D03*
X165100Y264160D03*
X226060Y312420D03*
X223520Y289560D03*
X228600Y256540D03*
X220980Y223520D03*
X292100Y302260D03*
X289560Y271780D03*
X292100Y236220D03*
X292100Y215900D03*
X314960Y264160D03*
X347980Y264160D03*
X325120Y231140D03*
X347980Y231140D03*
X414020Y243840D03*
X414020Y218440D03*
X60960Y218440D03*
X119380Y215900D03*
X170180Y215900D03*
X190500Y215900D03*
X71120Y474980D03*
X116840Y477520D03*
X172720Y474980D03*
X218440Y474980D03*
X246380Y474980D03*
X281940Y477520D03*
X304800Y490220D03*
X327660Y490220D03*
X347980Y490220D03*
X370840Y490220D03*
X187960Y309880D03*
X114300Y309880D03*
X33020Y88900D03*
X33020Y48260D03*
X111760Y63500D03*
X152400Y63500D03*
X187960Y60960D03*
X236220Y60960D03*
X276860Y63500D03*
X312420Y60960D03*
X368300Y63500D03*
X396240Y78740D03*
X416560Y96520D03*
X154940Y91440D03*
X200660Y93980D03*
X238760Y93980D03*
X287020Y91440D03*
X335280Y99060D03*
X421640Y167640D03*
X398780Y134620D03*
X370840Y127000D03*
X317500Y127000D03*
X271780Y127000D03*
X233680Y127000D03*
X129540Y139700D03*
X167640Y139700D03*
X203200Y139700D03*
X464820Y154940D03*
X441960Y134620D03*
X546100Y137160D03*
X574040Y139700D03*
X622300Y134620D03*
X660400Y132080D03*
X688340Y132080D03*
X683260Y86360D03*
X647700Y86360D03*
X607060Y83820D03*
X571500Y86360D03*
X541020Y86360D03*
X497840Y101600D03*
X508000Y83820D03*
X474980Y132080D03*
X447040Y91440D03*
X474980Y60960D03*
X551180Y58420D03*
X609600Y58420D03*
X660400Y58420D03*
X706120Y58420D03*
X622300Y396240D03*
X622300Y378460D03*
X637540Y403860D03*
X637540Y386080D03*
X629920Y508000D03*
X629920Y477520D03*
X698500Y464820D03*
X734060Y464820D03*
X556260Y558800D03*
X589280Y558800D03*
X617220Y558800D03*
X647700Y558800D03*
X685800Y558800D03*
X711200Y556260D03*
X228600Y528320D03*
X226060Y505460D03*
X284480Y533400D03*
X281940Y500380D03*
X241300Y543560D03*
X266700Y543560D03*
X50800Y543560D03*
X116840Y548640D03*
X187960Y546100D03*
X327660Y548640D03*
X388620Y546100D03*
X20320Y533400D03*
X63500Y312420D03*
X63500Y287020D03*
X63500Y261620D03*
X86360Y132080D03*
X40640Y134620D03*
X355600Y393700D03*
X355600Y368300D03*
X454660Y431800D03*
X543560Y200660D03*
D39*
X534670Y120650D02*
X455930Y120650D01*
X452120Y116840D01*
D40*
X452120Y116840D03*
D19*
X382778Y444500D02*
X384810Y483870D01*
X401320Y500380D01*
X604520Y500380D01*
X619760Y485140D01*
X499110Y69850D02*
X762000Y69850D01*
X499110Y69850D02*
X452120Y116840D01*
X629920Y453540D02*
X619760Y463700D01*
X619760Y485140D01*
X91290Y510540D02*
X25400Y510540D01*
X15240Y500380D01*
X37320Y440200D02*
X38100Y440200D01*
X15240Y462280D02*
X15240Y500380D01*
X15240Y462280D02*
X37320Y440200D01*
D39*
X544830Y120650D02*
X558650Y120650D01*
X571650Y120650D02*
X583050Y120650D01*
D19*
X595376Y469900D02*
X612140Y469900D01*
D40*
X612140Y469900D03*
D19*
X614680Y444500D02*
X595376Y444500D01*
D40*
X614680Y444500D03*
D19*
X618640Y440540D02*
X629920Y440540D01*
X618640Y440540D02*
X614680Y444500D01*
D39*
X599694Y273050D02*
X595376Y266700D01*
X599694Y273050D02*
X629920Y273050D01*
X630360Y273050D01*
X630360Y282380D01*
X632460Y284480D01*
X650240Y284480D01*
X655320Y279400D02*
X655320Y273050D01*
X655320Y279400D02*
X650240Y284480D01*
D19*
X636270Y247650D02*
X762000Y247650D01*
X636270Y247650D02*
X629920Y254000D01*
X629920Y273050D01*
X655320Y273050D02*
X655320Y287020D01*
X713740Y345440D02*
X713740Y381000D01*
X714060Y381320D01*
X726440Y381320D01*
X713740Y345440D02*
X655320Y287020D01*
D39*
X703580Y241300D02*
X595376Y241300D01*
X703580Y241300D02*
X723900Y220980D01*
X760730Y220980D01*
X762000Y222250D01*
X695960Y215900D02*
X595376Y215900D01*
X715010Y196850D02*
X762000Y196850D01*
X715010Y196850D02*
X695960Y215900D01*
X688340Y190500D02*
X595376Y190500D01*
X688340Y190500D02*
X708660Y170180D01*
X760730Y170180D01*
X762000Y171450D01*
X598050Y153739D02*
X598105Y154098D01*
X598150Y154458D01*
X598187Y154819D01*
X598215Y155181D01*
X598235Y155543D01*
X598246Y155906D01*
X598249Y156269D01*
X598243Y156632D01*
X598228Y156995D01*
X598204Y157357D01*
X598172Y157718D01*
X598132Y158079D01*
X598083Y158439D01*
X598025Y158797D01*
X597959Y159154D01*
X597884Y159509D01*
X597801Y159862D01*
X597709Y160213D01*
X597609Y160562D01*
X597501Y160909D01*
X597385Y161253D01*
X597260Y161593D01*
X597128Y161931D01*
X596987Y162266D01*
X596839Y162597D01*
X596682Y162925D01*
X596518Y163248D01*
X596346Y163568D01*
X596167Y163884D01*
X595980Y164195D01*
X595786Y164502D01*
X595585Y164803D01*
X595376Y165101D01*
X598050Y153739D02*
X598050Y120650D01*
X595376Y165100D02*
X688340Y165100D01*
X707390Y146050D02*
X762000Y146050D01*
X707390Y146050D02*
X688340Y165100D01*
X727710Y277010D02*
X758040Y277010D01*
X762000Y273050D01*
D41*
X76200Y94350D02*
X66410Y94350D01*
X55880Y83820D02*
X55880Y58420D01*
X55880Y83820D02*
X66410Y94350D01*
X68950Y45350D02*
X76200Y45350D01*
X68950Y45350D02*
X55880Y58420D01*
X76200Y94350D02*
X94350Y94350D01*
X114300Y114300D02*
X161425Y114300D01*
X114300Y114300D02*
X94350Y94350D01*
D39*
X88900Y72350D02*
X76200Y72350D01*
X88900Y72350D02*
X348849Y72350D01*
X349453Y72357D01*
X350058Y72379D01*
X350661Y72415D01*
X351263Y72465D01*
X351864Y72530D01*
X352464Y72609D01*
X353061Y72702D01*
X353656Y72809D01*
X354248Y72930D01*
X354837Y73066D01*
X355423Y73215D01*
X356005Y73379D01*
X356583Y73556D01*
X357157Y73747D01*
X357725Y73951D01*
X358289Y74169D01*
X358848Y74401D01*
X359401Y74645D01*
X359947Y74903D01*
X360488Y75174D01*
X361022Y75457D01*
X361549Y75753D01*
X362069Y76061D01*
X362581Y76382D01*
X363086Y76715D01*
X363582Y77060D01*
X364071Y77416D01*
X364550Y77784D01*
X365021Y78164D01*
X365482Y78554D01*
X365935Y78955D01*
X366377Y79367D01*
X366810Y79789D01*
X445194Y158174D02*
X445641Y158609D01*
X446097Y159033D01*
X446564Y159446D01*
X447041Y159847D01*
X447528Y160237D01*
X448024Y160614D01*
X448529Y160980D01*
X449044Y161332D01*
X449566Y161672D01*
X450097Y161999D01*
X450635Y162313D01*
X451182Y162614D01*
X451735Y162901D01*
X452295Y163174D01*
X452862Y163434D01*
X453435Y163680D01*
X454014Y163911D01*
X454598Y164128D01*
X455187Y164331D01*
X455782Y164519D01*
X456380Y164693D01*
X456983Y164852D01*
X457590Y164996D01*
X458200Y165125D01*
X458813Y165239D01*
X459428Y165338D01*
X460046Y165422D01*
X460665Y165491D01*
X461286Y165544D01*
X461909Y165582D01*
X462532Y165605D01*
X463155Y165613D01*
X463155Y165614D02*
X491627Y165614D01*
X445194Y158174D02*
X366810Y79790D01*
X83584Y62350D02*
X76200Y62350D01*
X83584Y62350D02*
X83707Y62352D01*
X83831Y62358D01*
X83953Y62367D01*
X84076Y62381D01*
X84198Y62398D01*
X84320Y62420D01*
X84440Y62445D01*
X84560Y62473D01*
X84679Y62506D01*
X84797Y62542D01*
X84914Y62582D01*
X85029Y62626D01*
X85143Y62673D01*
X85256Y62724D01*
X85366Y62778D01*
X85475Y62836D01*
X85582Y62897D01*
X85688Y62961D01*
X85791Y63029D01*
X85892Y63100D01*
X85990Y63174D01*
X86087Y63251D01*
X86180Y63331D01*
X86272Y63414D01*
X86360Y63500D01*
X88900Y66040D01*
X88900Y72350D01*
D19*
X491627Y165614D02*
X492141Y165100D01*
X515620Y165100D01*
D40*
X515620Y165100D03*
X518160Y109220D03*
D19*
X520700Y106680D01*
X748030Y106680D01*
X762000Y120650D01*
D39*
X346229Y77350D02*
X76200Y77350D01*
X346229Y77350D02*
X346833Y77357D01*
X347438Y77379D01*
X348041Y77415D01*
X348643Y77465D01*
X349244Y77530D01*
X349844Y77609D01*
X350441Y77702D01*
X351036Y77809D01*
X351628Y77930D01*
X352217Y78066D01*
X352803Y78215D01*
X353385Y78379D01*
X353963Y78556D01*
X354537Y78747D01*
X355105Y78951D01*
X355669Y79169D01*
X356228Y79401D01*
X356781Y79645D01*
X357327Y79903D01*
X357868Y80174D01*
X358402Y80457D01*
X358929Y80753D01*
X359449Y81061D01*
X359961Y81382D01*
X360466Y81715D01*
X360962Y82060D01*
X361451Y82416D01*
X361930Y82784D01*
X362401Y83164D01*
X362862Y83554D01*
X363315Y83955D01*
X363757Y84367D01*
X364190Y84789D01*
X457574Y178174D02*
X458021Y178609D01*
X458477Y179033D01*
X458944Y179446D01*
X459421Y179847D01*
X459908Y180237D01*
X460404Y180614D01*
X460909Y180980D01*
X461424Y181332D01*
X461946Y181672D01*
X462477Y181999D01*
X463015Y182313D01*
X463562Y182614D01*
X464115Y182901D01*
X464675Y183174D01*
X465242Y183434D01*
X465815Y183680D01*
X466394Y183911D01*
X466978Y184128D01*
X467567Y184331D01*
X468162Y184519D01*
X468760Y184693D01*
X469363Y184852D01*
X469970Y184996D01*
X470580Y185125D01*
X471193Y185239D01*
X471808Y185338D01*
X472426Y185422D01*
X473045Y185491D01*
X473666Y185544D01*
X474289Y185582D01*
X474912Y185605D01*
X475535Y185613D01*
X475535Y185614D02*
X491627Y185614D01*
X457574Y178174D02*
X364190Y84790D01*
X76200Y67350D02*
X66469Y67350D01*
X66342Y67352D01*
X66215Y67358D01*
X66089Y67367D01*
X65963Y67381D01*
X65837Y67398D01*
X65712Y67419D01*
X65588Y67444D01*
X65464Y67472D01*
X65341Y67504D01*
X65220Y67540D01*
X65099Y67580D01*
X64980Y67623D01*
X64862Y67670D01*
X64746Y67720D01*
X64631Y67774D01*
X64518Y67831D01*
X64406Y67892D01*
X64297Y67956D01*
X64189Y68023D01*
X64084Y68093D01*
X63980Y68167D01*
X63879Y68244D01*
X63781Y68323D01*
X63685Y68406D01*
X63591Y68492D01*
X63500Y68580D01*
X63500Y73660D01*
X66040Y76200D01*
X66128Y76286D01*
X66220Y76369D01*
X66313Y76449D01*
X66410Y76526D01*
X66508Y76600D01*
X66609Y76671D01*
X66712Y76739D01*
X66818Y76803D01*
X66925Y76864D01*
X67034Y76922D01*
X67144Y76976D01*
X67257Y77027D01*
X67371Y77074D01*
X67486Y77118D01*
X67603Y77158D01*
X67721Y77194D01*
X67840Y77227D01*
X67960Y77255D01*
X68080Y77280D01*
X68202Y77302D01*
X68324Y77319D01*
X68447Y77333D01*
X68569Y77342D01*
X68693Y77348D01*
X68816Y77350D01*
X76200Y77350D01*
D19*
X491627Y185614D02*
X502727Y185614D01*
X508000Y180340D01*
D40*
X508000Y180340D03*
X513080Y99060D03*
D19*
X514350Y100330D02*
X756920Y100330D01*
X514350Y100330D02*
X513080Y99060D01*
X756920Y100330D02*
X762000Y95250D01*
X101550Y82350D02*
X76200Y82350D01*
X101550Y82350D02*
X112880Y91440D01*
X112900Y52350D02*
X76200Y52350D01*
X112900Y52350D02*
X114300Y50950D01*
D41*
X194175Y114300D02*
X200660Y114300D01*
X243210Y156850D02*
X260350Y156850D01*
X243210Y156850D02*
X200660Y114300D01*
D19*
X435760Y516890D02*
X454810Y535940D01*
X474330Y535940D02*
X489820Y520450D01*
X474330Y535940D02*
X454810Y535940D01*
D39*
X718820Y264010D02*
X727710Y264010D01*
X718820Y264010D02*
X716280Y266550D01*
X637540Y270070D02*
X634560Y273050D01*
X637540Y270070D02*
X637540Y259080D01*
X642620Y254000D01*
X703580Y254000D01*
X716130Y266550D02*
X716280Y266550D01*
X716130Y266550D02*
X703580Y254000D01*
X689610Y273050D02*
X680720Y273050D01*
X696110Y266550D02*
X702310Y266550D01*
X696110Y266550D02*
X689610Y273050D01*
D19*
X116960Y510540D02*
X104290Y510540D01*
M02*
