G04 EAGLE Gerber RS-274X export*
G75*
%MOMM*%
%FSLAX34Y34*%
%LPD*%
%INSoldermask Top*%
%IPPOS*%
%AMOC8*
5,1,8,0,0,1.08239X$1,22.5*%
G01*
%ADD10C,2.387600*%
%ADD11R,2.703200X4.203200*%
%ADD12R,1.203200X1.303200*%
%ADD13R,1.603200X2.403200*%
%ADD14P,2.309387X8X22.500000*%
%ADD15P,2.309387X8X202.500000*%
%ADD16C,2.003200*%
%ADD17R,0.903200X1.053200*%
%ADD18R,0.838200X1.473200*%
%ADD19R,1.003200X1.003200*%
%ADD20C,1.727200*%
%ADD21R,3.403600X2.235200*%
%ADD22R,1.603200X1.403200*%
%ADD23R,3.003200X3.003200*%
%ADD24R,2.403200X3.703200*%
%ADD25R,1.303200X1.203200*%
%ADD26R,1.053200X0.903200*%
%ADD27R,1.653200X0.503200*%
%ADD28R,1.653200X0.803200*%
%ADD29R,1.653200X0.753200*%
%ADD30C,0.853200*%
%ADD31R,5.703200X1.203200*%
%ADD32R,3.203200X1.803200*%
%ADD33R,4.803200X1.203200*%
%ADD34R,3.603200X1.803200*%
%ADD35R,0.403200X0.703200*%
%ADD36P,2.309387X8X292.500000*%
%ADD37R,1.113200X1.423200*%

G36*
X387627Y434981D02*
X387627Y434981D01*
X387662Y434979D01*
X389397Y435150D01*
X389443Y435163D01*
X389518Y435174D01*
X391186Y435680D01*
X391229Y435702D01*
X391301Y435727D01*
X392838Y436549D01*
X392876Y436579D01*
X392941Y436618D01*
X394289Y437724D01*
X394320Y437760D01*
X394376Y437811D01*
X395482Y439159D01*
X395506Y439201D01*
X395551Y439262D01*
X396373Y440799D01*
X396387Y440845D01*
X396420Y440914D01*
X396926Y442582D01*
X396932Y442629D01*
X396950Y442704D01*
X397121Y444438D01*
X397117Y444486D01*
X397121Y444562D01*
X396950Y446297D01*
X396937Y446343D01*
X396926Y446418D01*
X396420Y448086D01*
X396398Y448129D01*
X396373Y448201D01*
X395551Y449738D01*
X395521Y449776D01*
X395482Y449841D01*
X394376Y451189D01*
X394340Y451220D01*
X394289Y451276D01*
X392941Y452382D01*
X392899Y452406D01*
X392838Y452451D01*
X391301Y453273D01*
X391255Y453287D01*
X391186Y453320D01*
X391117Y453341D01*
X389518Y453826D01*
X389471Y453832D01*
X389397Y453850D01*
X387662Y454021D01*
X387635Y454019D01*
X387600Y454024D01*
X374900Y454024D01*
X374835Y454013D01*
X374769Y454011D01*
X374726Y453993D01*
X374679Y453985D01*
X374622Y453951D01*
X374562Y453926D01*
X374527Y453895D01*
X374486Y453870D01*
X374445Y453819D01*
X374396Y453775D01*
X374374Y453733D01*
X374345Y453696D01*
X374324Y453634D01*
X374293Y453575D01*
X374285Y453521D01*
X374273Y453484D01*
X374273Y453464D01*
X374273Y453463D01*
X374273Y453441D01*
X374266Y453390D01*
X374266Y435610D01*
X374277Y435545D01*
X374279Y435479D01*
X374297Y435436D01*
X374305Y435389D01*
X374339Y435332D01*
X374364Y435272D01*
X374395Y435237D01*
X374420Y435196D01*
X374471Y435155D01*
X374515Y435106D01*
X374557Y435084D01*
X374594Y435055D01*
X374656Y435034D01*
X374715Y435003D01*
X374769Y434995D01*
X374806Y434983D01*
X374846Y434984D01*
X374900Y434976D01*
X387600Y434976D01*
X387627Y434981D01*
G37*
G36*
X387627Y409581D02*
X387627Y409581D01*
X387662Y409579D01*
X389397Y409750D01*
X389443Y409763D01*
X389518Y409774D01*
X391186Y410280D01*
X391229Y410302D01*
X391301Y410327D01*
X392838Y411149D01*
X392876Y411179D01*
X392941Y411218D01*
X394289Y412324D01*
X394320Y412360D01*
X394376Y412411D01*
X395482Y413759D01*
X395506Y413801D01*
X395551Y413862D01*
X396373Y415399D01*
X396387Y415445D01*
X396420Y415514D01*
X396926Y417182D01*
X396932Y417229D01*
X396950Y417304D01*
X397121Y419038D01*
X397117Y419086D01*
X397121Y419162D01*
X396950Y420897D01*
X396937Y420943D01*
X396926Y421018D01*
X396420Y422686D01*
X396398Y422729D01*
X396373Y422801D01*
X395551Y424338D01*
X395521Y424376D01*
X395482Y424441D01*
X394376Y425789D01*
X394340Y425820D01*
X394289Y425876D01*
X392941Y426982D01*
X392899Y427006D01*
X392838Y427051D01*
X391301Y427873D01*
X391255Y427887D01*
X391186Y427920D01*
X391117Y427941D01*
X389518Y428426D01*
X389471Y428432D01*
X389397Y428450D01*
X387662Y428621D01*
X387635Y428619D01*
X387600Y428624D01*
X374900Y428624D01*
X374835Y428613D01*
X374769Y428611D01*
X374726Y428593D01*
X374679Y428585D01*
X374622Y428551D01*
X374562Y428526D01*
X374527Y428495D01*
X374486Y428470D01*
X374445Y428419D01*
X374396Y428375D01*
X374374Y428333D01*
X374345Y428296D01*
X374324Y428234D01*
X374293Y428175D01*
X374285Y428121D01*
X374273Y428084D01*
X374273Y428064D01*
X374273Y428063D01*
X374273Y428041D01*
X374266Y427990D01*
X374266Y410210D01*
X374277Y410145D01*
X374279Y410079D01*
X374297Y410036D01*
X374305Y409989D01*
X374339Y409932D01*
X374364Y409872D01*
X374395Y409837D01*
X374420Y409796D01*
X374471Y409755D01*
X374515Y409706D01*
X374557Y409684D01*
X374594Y409655D01*
X374656Y409634D01*
X374715Y409603D01*
X374769Y409595D01*
X374806Y409583D01*
X374846Y409584D01*
X374900Y409576D01*
X387600Y409576D01*
X387627Y409581D01*
G37*
G36*
X387627Y384181D02*
X387627Y384181D01*
X387662Y384179D01*
X389397Y384350D01*
X389443Y384363D01*
X389518Y384374D01*
X391186Y384880D01*
X391229Y384902D01*
X391301Y384927D01*
X392838Y385749D01*
X392876Y385779D01*
X392941Y385818D01*
X394289Y386924D01*
X394320Y386960D01*
X394376Y387011D01*
X395482Y388359D01*
X395506Y388401D01*
X395551Y388462D01*
X396373Y389999D01*
X396387Y390045D01*
X396420Y390114D01*
X396926Y391782D01*
X396932Y391829D01*
X396950Y391904D01*
X397121Y393638D01*
X397117Y393686D01*
X397121Y393762D01*
X396950Y395497D01*
X396937Y395543D01*
X396926Y395618D01*
X396420Y397286D01*
X396398Y397329D01*
X396373Y397401D01*
X395551Y398938D01*
X395521Y398976D01*
X395482Y399041D01*
X394376Y400389D01*
X394340Y400420D01*
X394289Y400476D01*
X392941Y401582D01*
X392899Y401606D01*
X392838Y401651D01*
X391301Y402473D01*
X391255Y402487D01*
X391186Y402520D01*
X391117Y402541D01*
X389518Y403026D01*
X389471Y403032D01*
X389397Y403050D01*
X387662Y403221D01*
X387635Y403219D01*
X387600Y403224D01*
X374900Y403224D01*
X374835Y403213D01*
X374769Y403211D01*
X374726Y403193D01*
X374679Y403185D01*
X374622Y403151D01*
X374562Y403126D01*
X374527Y403095D01*
X374486Y403070D01*
X374445Y403019D01*
X374396Y402975D01*
X374374Y402933D01*
X374345Y402896D01*
X374324Y402834D01*
X374293Y402775D01*
X374285Y402721D01*
X374273Y402684D01*
X374273Y402664D01*
X374273Y402663D01*
X374273Y402641D01*
X374266Y402590D01*
X374266Y384810D01*
X374277Y384745D01*
X374279Y384679D01*
X374297Y384636D01*
X374305Y384589D01*
X374339Y384532D01*
X374364Y384472D01*
X374395Y384437D01*
X374420Y384396D01*
X374471Y384355D01*
X374515Y384306D01*
X374557Y384284D01*
X374594Y384255D01*
X374656Y384234D01*
X374715Y384203D01*
X374769Y384195D01*
X374806Y384183D01*
X374846Y384184D01*
X374900Y384176D01*
X387600Y384176D01*
X387627Y384181D01*
G37*
G36*
X387627Y358781D02*
X387627Y358781D01*
X387662Y358779D01*
X389397Y358950D01*
X389443Y358963D01*
X389518Y358974D01*
X391186Y359480D01*
X391229Y359502D01*
X391301Y359527D01*
X392838Y360349D01*
X392876Y360379D01*
X392941Y360418D01*
X394289Y361524D01*
X394320Y361560D01*
X394376Y361611D01*
X395482Y362959D01*
X395506Y363001D01*
X395551Y363062D01*
X396373Y364599D01*
X396387Y364645D01*
X396420Y364714D01*
X396926Y366382D01*
X396932Y366429D01*
X396950Y366504D01*
X397121Y368238D01*
X397117Y368286D01*
X397121Y368362D01*
X396950Y370097D01*
X396937Y370143D01*
X396926Y370218D01*
X396420Y371886D01*
X396398Y371929D01*
X396373Y372001D01*
X395551Y373538D01*
X395521Y373576D01*
X395482Y373641D01*
X394376Y374989D01*
X394340Y375020D01*
X394289Y375076D01*
X392941Y376182D01*
X392899Y376206D01*
X392838Y376251D01*
X391301Y377073D01*
X391255Y377087D01*
X391186Y377120D01*
X391117Y377141D01*
X389518Y377626D01*
X389471Y377632D01*
X389397Y377650D01*
X387662Y377821D01*
X387635Y377819D01*
X387600Y377824D01*
X374900Y377824D01*
X374835Y377813D01*
X374769Y377811D01*
X374726Y377793D01*
X374679Y377785D01*
X374622Y377751D01*
X374562Y377726D01*
X374527Y377695D01*
X374486Y377670D01*
X374445Y377619D01*
X374396Y377575D01*
X374374Y377533D01*
X374345Y377496D01*
X374324Y377434D01*
X374293Y377375D01*
X374285Y377321D01*
X374273Y377284D01*
X374273Y377264D01*
X374273Y377263D01*
X374273Y377241D01*
X374266Y377190D01*
X374266Y359410D01*
X374277Y359345D01*
X374279Y359279D01*
X374297Y359236D01*
X374305Y359189D01*
X374339Y359132D01*
X374364Y359072D01*
X374395Y359037D01*
X374420Y358996D01*
X374471Y358955D01*
X374515Y358906D01*
X374557Y358884D01*
X374594Y358855D01*
X374656Y358834D01*
X374715Y358803D01*
X374769Y358795D01*
X374806Y358783D01*
X374846Y358784D01*
X374900Y358776D01*
X387600Y358776D01*
X387627Y358781D01*
G37*
G36*
X387627Y307981D02*
X387627Y307981D01*
X387662Y307979D01*
X389397Y308150D01*
X389443Y308163D01*
X389518Y308174D01*
X391186Y308680D01*
X391229Y308702D01*
X391301Y308727D01*
X392838Y309549D01*
X392876Y309579D01*
X392941Y309618D01*
X394289Y310724D01*
X394320Y310760D01*
X394376Y310811D01*
X395482Y312159D01*
X395506Y312201D01*
X395551Y312262D01*
X396373Y313799D01*
X396387Y313845D01*
X396420Y313914D01*
X396926Y315582D01*
X396932Y315629D01*
X396950Y315704D01*
X397121Y317438D01*
X397117Y317486D01*
X397121Y317562D01*
X396950Y319297D01*
X396937Y319343D01*
X396926Y319418D01*
X396420Y321086D01*
X396398Y321129D01*
X396373Y321201D01*
X395551Y322738D01*
X395521Y322776D01*
X395482Y322841D01*
X394376Y324189D01*
X394340Y324220D01*
X394289Y324276D01*
X392941Y325382D01*
X392899Y325406D01*
X392838Y325451D01*
X391301Y326273D01*
X391255Y326287D01*
X391186Y326320D01*
X391117Y326341D01*
X389518Y326826D01*
X389471Y326832D01*
X389397Y326850D01*
X387662Y327021D01*
X387635Y327019D01*
X387600Y327024D01*
X374900Y327024D01*
X374835Y327013D01*
X374769Y327011D01*
X374726Y326993D01*
X374679Y326985D01*
X374622Y326951D01*
X374562Y326926D01*
X374527Y326895D01*
X374486Y326870D01*
X374445Y326819D01*
X374396Y326775D01*
X374374Y326733D01*
X374345Y326696D01*
X374324Y326634D01*
X374293Y326575D01*
X374285Y326521D01*
X374273Y326484D01*
X374273Y326464D01*
X374273Y326463D01*
X374273Y326441D01*
X374266Y326390D01*
X374266Y308610D01*
X374277Y308545D01*
X374279Y308479D01*
X374297Y308436D01*
X374305Y308389D01*
X374339Y308332D01*
X374364Y308272D01*
X374395Y308237D01*
X374420Y308196D01*
X374471Y308155D01*
X374515Y308106D01*
X374557Y308084D01*
X374594Y308055D01*
X374656Y308034D01*
X374715Y308003D01*
X374769Y307995D01*
X374806Y307983D01*
X374846Y307984D01*
X374900Y307976D01*
X387600Y307976D01*
X387627Y307981D01*
G37*
G36*
X387627Y282581D02*
X387627Y282581D01*
X387662Y282579D01*
X389397Y282750D01*
X389443Y282763D01*
X389518Y282774D01*
X391186Y283280D01*
X391229Y283302D01*
X391301Y283327D01*
X392838Y284149D01*
X392876Y284179D01*
X392941Y284218D01*
X394289Y285324D01*
X394320Y285360D01*
X394376Y285411D01*
X395482Y286759D01*
X395506Y286801D01*
X395551Y286862D01*
X396373Y288399D01*
X396387Y288445D01*
X396420Y288514D01*
X396926Y290182D01*
X396932Y290229D01*
X396950Y290304D01*
X397121Y292038D01*
X397117Y292086D01*
X397121Y292162D01*
X396950Y293897D01*
X396937Y293943D01*
X396926Y294018D01*
X396420Y295686D01*
X396398Y295729D01*
X396373Y295801D01*
X395551Y297338D01*
X395521Y297376D01*
X395482Y297441D01*
X394376Y298789D01*
X394340Y298820D01*
X394289Y298876D01*
X392941Y299982D01*
X392899Y300006D01*
X392838Y300051D01*
X391301Y300873D01*
X391255Y300887D01*
X391186Y300920D01*
X391117Y300941D01*
X389518Y301426D01*
X389471Y301432D01*
X389397Y301450D01*
X387662Y301621D01*
X387635Y301619D01*
X387600Y301624D01*
X374900Y301624D01*
X374835Y301613D01*
X374769Y301611D01*
X374726Y301593D01*
X374679Y301585D01*
X374622Y301551D01*
X374562Y301526D01*
X374527Y301495D01*
X374486Y301470D01*
X374445Y301419D01*
X374396Y301375D01*
X374374Y301333D01*
X374345Y301296D01*
X374324Y301234D01*
X374293Y301175D01*
X374285Y301121D01*
X374273Y301084D01*
X374273Y301064D01*
X374273Y301063D01*
X374273Y301041D01*
X374266Y300990D01*
X374266Y283210D01*
X374277Y283145D01*
X374279Y283079D01*
X374297Y283036D01*
X374305Y282989D01*
X374339Y282932D01*
X374364Y282872D01*
X374395Y282837D01*
X374420Y282796D01*
X374471Y282755D01*
X374515Y282706D01*
X374557Y282684D01*
X374594Y282655D01*
X374656Y282634D01*
X374715Y282603D01*
X374769Y282595D01*
X374806Y282583D01*
X374846Y282584D01*
X374900Y282576D01*
X387600Y282576D01*
X387627Y282581D01*
G37*
G36*
X387627Y257181D02*
X387627Y257181D01*
X387662Y257179D01*
X389397Y257350D01*
X389443Y257363D01*
X389518Y257374D01*
X391186Y257880D01*
X391229Y257902D01*
X391301Y257927D01*
X392838Y258749D01*
X392876Y258779D01*
X392941Y258818D01*
X394289Y259924D01*
X394320Y259960D01*
X394376Y260011D01*
X395482Y261359D01*
X395506Y261401D01*
X395551Y261462D01*
X396373Y262999D01*
X396387Y263045D01*
X396420Y263114D01*
X396926Y264782D01*
X396932Y264829D01*
X396950Y264904D01*
X397121Y266638D01*
X397117Y266686D01*
X397121Y266762D01*
X396950Y268497D01*
X396937Y268543D01*
X396926Y268618D01*
X396420Y270286D01*
X396398Y270329D01*
X396373Y270401D01*
X395551Y271938D01*
X395521Y271976D01*
X395482Y272041D01*
X394376Y273389D01*
X394340Y273420D01*
X394289Y273476D01*
X392941Y274582D01*
X392899Y274606D01*
X392838Y274651D01*
X391301Y275473D01*
X391255Y275487D01*
X391186Y275520D01*
X391117Y275541D01*
X389518Y276026D01*
X389471Y276032D01*
X389397Y276050D01*
X387662Y276221D01*
X387635Y276219D01*
X387600Y276224D01*
X374900Y276224D01*
X374835Y276213D01*
X374769Y276211D01*
X374726Y276193D01*
X374679Y276185D01*
X374622Y276151D01*
X374562Y276126D01*
X374527Y276095D01*
X374486Y276070D01*
X374445Y276019D01*
X374396Y275975D01*
X374374Y275933D01*
X374345Y275896D01*
X374324Y275834D01*
X374293Y275775D01*
X374285Y275721D01*
X374273Y275684D01*
X374273Y275664D01*
X374273Y275663D01*
X374273Y275641D01*
X374266Y275590D01*
X374266Y257810D01*
X374277Y257745D01*
X374279Y257679D01*
X374297Y257636D01*
X374305Y257589D01*
X374339Y257532D01*
X374364Y257472D01*
X374395Y257437D01*
X374420Y257396D01*
X374471Y257355D01*
X374515Y257306D01*
X374557Y257284D01*
X374594Y257255D01*
X374656Y257234D01*
X374715Y257203D01*
X374769Y257195D01*
X374806Y257183D01*
X374846Y257184D01*
X374900Y257176D01*
X387600Y257176D01*
X387627Y257181D01*
G37*
G36*
X387627Y231781D02*
X387627Y231781D01*
X387662Y231779D01*
X389397Y231950D01*
X389443Y231963D01*
X389518Y231974D01*
X391186Y232480D01*
X391229Y232502D01*
X391301Y232527D01*
X392838Y233349D01*
X392876Y233379D01*
X392941Y233418D01*
X394289Y234524D01*
X394320Y234560D01*
X394376Y234611D01*
X395482Y235959D01*
X395506Y236001D01*
X395551Y236062D01*
X396373Y237599D01*
X396387Y237645D01*
X396420Y237714D01*
X396926Y239382D01*
X396932Y239429D01*
X396950Y239504D01*
X397121Y241238D01*
X397117Y241286D01*
X397121Y241362D01*
X396950Y243097D01*
X396937Y243143D01*
X396926Y243218D01*
X396420Y244886D01*
X396398Y244929D01*
X396373Y245001D01*
X395551Y246538D01*
X395521Y246576D01*
X395482Y246641D01*
X394376Y247989D01*
X394340Y248020D01*
X394289Y248076D01*
X392941Y249182D01*
X392899Y249206D01*
X392838Y249251D01*
X391301Y250073D01*
X391255Y250087D01*
X391186Y250120D01*
X391117Y250141D01*
X389518Y250626D01*
X389471Y250632D01*
X389397Y250650D01*
X387662Y250821D01*
X387635Y250819D01*
X387600Y250824D01*
X374900Y250824D01*
X374835Y250813D01*
X374769Y250811D01*
X374726Y250793D01*
X374679Y250785D01*
X374622Y250751D01*
X374562Y250726D01*
X374527Y250695D01*
X374486Y250670D01*
X374445Y250619D01*
X374396Y250575D01*
X374374Y250533D01*
X374345Y250496D01*
X374324Y250434D01*
X374293Y250375D01*
X374285Y250321D01*
X374273Y250284D01*
X374273Y250264D01*
X374273Y250263D01*
X374273Y250241D01*
X374266Y250190D01*
X374266Y232410D01*
X374277Y232345D01*
X374279Y232279D01*
X374297Y232236D01*
X374305Y232189D01*
X374339Y232132D01*
X374364Y232072D01*
X374395Y232037D01*
X374420Y231996D01*
X374471Y231955D01*
X374515Y231906D01*
X374557Y231884D01*
X374594Y231855D01*
X374656Y231834D01*
X374715Y231803D01*
X374769Y231795D01*
X374806Y231783D01*
X374846Y231784D01*
X374900Y231776D01*
X387600Y231776D01*
X387627Y231781D01*
G37*
G36*
X387627Y206381D02*
X387627Y206381D01*
X387662Y206379D01*
X389397Y206550D01*
X389443Y206563D01*
X389518Y206574D01*
X391186Y207080D01*
X391229Y207102D01*
X391301Y207127D01*
X392838Y207949D01*
X392876Y207979D01*
X392941Y208018D01*
X394289Y209124D01*
X394320Y209160D01*
X394376Y209211D01*
X395482Y210559D01*
X395506Y210601D01*
X395551Y210662D01*
X396373Y212199D01*
X396387Y212245D01*
X396420Y212314D01*
X396926Y213982D01*
X396932Y214029D01*
X396950Y214104D01*
X397121Y215838D01*
X397117Y215886D01*
X397121Y215962D01*
X396950Y217697D01*
X396937Y217743D01*
X396926Y217818D01*
X396420Y219486D01*
X396398Y219529D01*
X396373Y219601D01*
X395551Y221138D01*
X395521Y221176D01*
X395482Y221241D01*
X394376Y222589D01*
X394340Y222620D01*
X394289Y222676D01*
X392941Y223782D01*
X392899Y223806D01*
X392838Y223851D01*
X391301Y224673D01*
X391255Y224687D01*
X391186Y224720D01*
X391117Y224741D01*
X389518Y225226D01*
X389471Y225232D01*
X389397Y225250D01*
X387662Y225421D01*
X387635Y225419D01*
X387600Y225424D01*
X374900Y225424D01*
X374835Y225413D01*
X374769Y225411D01*
X374726Y225393D01*
X374679Y225385D01*
X374622Y225351D01*
X374562Y225326D01*
X374527Y225295D01*
X374486Y225270D01*
X374445Y225219D01*
X374396Y225175D01*
X374374Y225133D01*
X374345Y225096D01*
X374324Y225034D01*
X374293Y224975D01*
X374285Y224921D01*
X374273Y224884D01*
X374273Y224864D01*
X374273Y224863D01*
X374273Y224841D01*
X374266Y224790D01*
X374266Y207010D01*
X374277Y206945D01*
X374279Y206879D01*
X374297Y206836D01*
X374305Y206789D01*
X374339Y206732D01*
X374364Y206672D01*
X374395Y206637D01*
X374420Y206596D01*
X374471Y206555D01*
X374515Y206506D01*
X374557Y206484D01*
X374594Y206455D01*
X374656Y206434D01*
X374715Y206403D01*
X374769Y206395D01*
X374806Y206383D01*
X374846Y206384D01*
X374900Y206376D01*
X387600Y206376D01*
X387627Y206381D01*
G37*
G36*
X387627Y180981D02*
X387627Y180981D01*
X387662Y180979D01*
X389397Y181150D01*
X389443Y181163D01*
X389518Y181174D01*
X391186Y181680D01*
X391229Y181702D01*
X391301Y181727D01*
X392838Y182549D01*
X392876Y182579D01*
X392941Y182618D01*
X394289Y183724D01*
X394320Y183760D01*
X394376Y183811D01*
X395482Y185159D01*
X395506Y185201D01*
X395551Y185262D01*
X396373Y186799D01*
X396387Y186845D01*
X396420Y186914D01*
X396926Y188582D01*
X396932Y188629D01*
X396950Y188704D01*
X397121Y190438D01*
X397117Y190486D01*
X397121Y190562D01*
X396950Y192297D01*
X396937Y192343D01*
X396926Y192418D01*
X396420Y194086D01*
X396398Y194129D01*
X396373Y194201D01*
X395551Y195738D01*
X395521Y195776D01*
X395482Y195841D01*
X394376Y197189D01*
X394340Y197220D01*
X394289Y197276D01*
X392941Y198382D01*
X392899Y198406D01*
X392838Y198451D01*
X391301Y199273D01*
X391255Y199287D01*
X391186Y199320D01*
X391117Y199341D01*
X389518Y199826D01*
X389471Y199832D01*
X389397Y199850D01*
X387662Y200021D01*
X387635Y200019D01*
X387600Y200024D01*
X374900Y200024D01*
X374835Y200013D01*
X374769Y200011D01*
X374726Y199993D01*
X374679Y199985D01*
X374622Y199951D01*
X374562Y199926D01*
X374527Y199895D01*
X374486Y199870D01*
X374445Y199819D01*
X374396Y199775D01*
X374374Y199733D01*
X374345Y199696D01*
X374324Y199634D01*
X374293Y199575D01*
X374285Y199521D01*
X374273Y199484D01*
X374273Y199464D01*
X374273Y199463D01*
X374273Y199441D01*
X374266Y199390D01*
X374266Y181610D01*
X374277Y181545D01*
X374279Y181479D01*
X374297Y181436D01*
X374305Y181389D01*
X374339Y181332D01*
X374364Y181272D01*
X374395Y181237D01*
X374420Y181196D01*
X374471Y181155D01*
X374515Y181106D01*
X374557Y181084D01*
X374594Y181055D01*
X374656Y181034D01*
X374715Y181003D01*
X374769Y180995D01*
X374806Y180983D01*
X374846Y180984D01*
X374900Y180976D01*
X387600Y180976D01*
X387627Y180981D01*
G37*
G36*
X387627Y155581D02*
X387627Y155581D01*
X387662Y155579D01*
X389397Y155750D01*
X389443Y155763D01*
X389518Y155774D01*
X391186Y156280D01*
X391229Y156302D01*
X391301Y156327D01*
X392838Y157149D01*
X392876Y157179D01*
X392941Y157218D01*
X394289Y158324D01*
X394320Y158360D01*
X394376Y158411D01*
X395482Y159759D01*
X395506Y159801D01*
X395551Y159862D01*
X396373Y161399D01*
X396387Y161445D01*
X396420Y161514D01*
X396926Y163182D01*
X396932Y163229D01*
X396950Y163304D01*
X397121Y165038D01*
X397117Y165086D01*
X397121Y165162D01*
X396950Y166897D01*
X396937Y166943D01*
X396926Y167018D01*
X396420Y168686D01*
X396398Y168729D01*
X396373Y168801D01*
X395551Y170338D01*
X395521Y170376D01*
X395482Y170441D01*
X394376Y171789D01*
X394340Y171820D01*
X394289Y171876D01*
X392941Y172982D01*
X392899Y173006D01*
X392838Y173051D01*
X391301Y173873D01*
X391255Y173887D01*
X391186Y173920D01*
X391117Y173941D01*
X389518Y174426D01*
X389471Y174432D01*
X389397Y174450D01*
X387662Y174621D01*
X387635Y174619D01*
X387600Y174624D01*
X374900Y174624D01*
X374835Y174613D01*
X374769Y174611D01*
X374726Y174593D01*
X374679Y174585D01*
X374622Y174551D01*
X374562Y174526D01*
X374527Y174495D01*
X374486Y174470D01*
X374445Y174419D01*
X374396Y174375D01*
X374374Y174333D01*
X374345Y174296D01*
X374324Y174234D01*
X374293Y174175D01*
X374285Y174121D01*
X374273Y174084D01*
X374273Y174064D01*
X374273Y174063D01*
X374273Y174041D01*
X374266Y173990D01*
X374266Y156210D01*
X374277Y156145D01*
X374279Y156079D01*
X374297Y156036D01*
X374305Y155989D01*
X374339Y155932D01*
X374364Y155872D01*
X374395Y155837D01*
X374420Y155796D01*
X374471Y155755D01*
X374515Y155706D01*
X374557Y155684D01*
X374594Y155655D01*
X374656Y155634D01*
X374715Y155603D01*
X374769Y155595D01*
X374806Y155583D01*
X374846Y155584D01*
X374900Y155576D01*
X387600Y155576D01*
X387627Y155581D01*
G37*
G36*
X387627Y333381D02*
X387627Y333381D01*
X387662Y333379D01*
X389397Y333550D01*
X389443Y333563D01*
X389518Y333574D01*
X391186Y334080D01*
X391229Y334102D01*
X391301Y334127D01*
X392838Y334949D01*
X392876Y334979D01*
X392941Y335018D01*
X394289Y336124D01*
X394320Y336160D01*
X394376Y336211D01*
X395482Y337559D01*
X395506Y337601D01*
X395551Y337662D01*
X396373Y339199D01*
X396387Y339245D01*
X396420Y339314D01*
X396926Y340982D01*
X396932Y341029D01*
X396950Y341104D01*
X397121Y342838D01*
X397117Y342886D01*
X397121Y342962D01*
X396950Y344697D01*
X396937Y344743D01*
X396926Y344818D01*
X396420Y346486D01*
X396398Y346529D01*
X396373Y346601D01*
X395551Y348138D01*
X395521Y348176D01*
X395482Y348241D01*
X394376Y349589D01*
X394340Y349620D01*
X394289Y349676D01*
X392941Y350782D01*
X392899Y350806D01*
X392838Y350851D01*
X391301Y351673D01*
X391255Y351687D01*
X391186Y351720D01*
X391117Y351741D01*
X389518Y352226D01*
X389471Y352232D01*
X389397Y352250D01*
X387662Y352421D01*
X387635Y352419D01*
X387600Y352424D01*
X374900Y352424D01*
X374835Y352413D01*
X374769Y352411D01*
X374726Y352393D01*
X374679Y352385D01*
X374622Y352351D01*
X374562Y352326D01*
X374527Y352295D01*
X374486Y352270D01*
X374445Y352219D01*
X374396Y352175D01*
X374374Y352133D01*
X374345Y352096D01*
X374324Y352034D01*
X374293Y351975D01*
X374285Y351921D01*
X374273Y351884D01*
X374273Y351864D01*
X374273Y351863D01*
X374273Y351841D01*
X374266Y351790D01*
X374266Y334010D01*
X374277Y333945D01*
X374279Y333879D01*
X374297Y333836D01*
X374305Y333789D01*
X374339Y333732D01*
X374364Y333672D01*
X374395Y333637D01*
X374420Y333596D01*
X374471Y333555D01*
X374515Y333506D01*
X374557Y333484D01*
X374594Y333455D01*
X374656Y333434D01*
X374715Y333403D01*
X374769Y333395D01*
X374806Y333383D01*
X374846Y333384D01*
X374900Y333376D01*
X387600Y333376D01*
X387627Y333381D01*
G37*
G36*
X603315Y333387D02*
X603315Y333387D01*
X603381Y333389D01*
X603424Y333407D01*
X603471Y333415D01*
X603528Y333449D01*
X603588Y333474D01*
X603623Y333505D01*
X603664Y333530D01*
X603706Y333581D01*
X603754Y333625D01*
X603776Y333667D01*
X603805Y333704D01*
X603826Y333766D01*
X603857Y333825D01*
X603865Y333879D01*
X603877Y333916D01*
X603876Y333956D01*
X603884Y334010D01*
X603884Y351790D01*
X603873Y351855D01*
X603871Y351921D01*
X603853Y351964D01*
X603845Y352011D01*
X603811Y352068D01*
X603786Y352128D01*
X603755Y352163D01*
X603730Y352204D01*
X603679Y352246D01*
X603635Y352294D01*
X603593Y352316D01*
X603556Y352345D01*
X603494Y352366D01*
X603435Y352397D01*
X603381Y352405D01*
X603344Y352417D01*
X603304Y352416D01*
X603250Y352424D01*
X590550Y352424D01*
X590523Y352419D01*
X590488Y352421D01*
X588754Y352250D01*
X588707Y352237D01*
X588632Y352226D01*
X586964Y351720D01*
X586921Y351698D01*
X586849Y351673D01*
X585312Y350851D01*
X585274Y350821D01*
X585209Y350782D01*
X583861Y349676D01*
X583830Y349640D01*
X583774Y349589D01*
X582668Y348241D01*
X582644Y348199D01*
X582599Y348138D01*
X581777Y346601D01*
X581763Y346555D01*
X581730Y346486D01*
X581224Y344818D01*
X581218Y344771D01*
X581200Y344697D01*
X581029Y342962D01*
X581033Y342914D01*
X581029Y342838D01*
X581200Y341104D01*
X581213Y341057D01*
X581224Y340982D01*
X581730Y339314D01*
X581752Y339271D01*
X581777Y339199D01*
X582599Y337662D01*
X582629Y337624D01*
X582668Y337559D01*
X583774Y336211D01*
X583810Y336180D01*
X583861Y336124D01*
X585209Y335018D01*
X585251Y334994D01*
X585312Y334949D01*
X586849Y334127D01*
X586895Y334113D01*
X586964Y334080D01*
X587103Y334038D01*
X588632Y333574D01*
X588679Y333568D01*
X588754Y333550D01*
X590488Y333379D01*
X590515Y333381D01*
X590550Y333376D01*
X603250Y333376D01*
X603315Y333387D01*
G37*
G36*
X603315Y460387D02*
X603315Y460387D01*
X603381Y460389D01*
X603424Y460407D01*
X603471Y460415D01*
X603528Y460449D01*
X603588Y460474D01*
X603623Y460505D01*
X603664Y460530D01*
X603706Y460581D01*
X603754Y460625D01*
X603776Y460667D01*
X603805Y460704D01*
X603826Y460766D01*
X603857Y460825D01*
X603865Y460879D01*
X603877Y460916D01*
X603876Y460956D01*
X603884Y461010D01*
X603884Y478790D01*
X603873Y478855D01*
X603871Y478921D01*
X603853Y478964D01*
X603845Y479011D01*
X603811Y479068D01*
X603786Y479128D01*
X603755Y479163D01*
X603730Y479204D01*
X603679Y479246D01*
X603635Y479294D01*
X603593Y479316D01*
X603556Y479345D01*
X603494Y479366D01*
X603435Y479397D01*
X603381Y479405D01*
X603344Y479417D01*
X603304Y479416D01*
X603250Y479424D01*
X590550Y479424D01*
X590523Y479419D01*
X590488Y479421D01*
X588754Y479250D01*
X588707Y479237D01*
X588632Y479226D01*
X586964Y478720D01*
X586921Y478698D01*
X586849Y478673D01*
X585312Y477851D01*
X585274Y477821D01*
X585209Y477782D01*
X583861Y476676D01*
X583830Y476640D01*
X583774Y476589D01*
X582668Y475241D01*
X582644Y475199D01*
X582599Y475138D01*
X581777Y473601D01*
X581763Y473555D01*
X581730Y473486D01*
X581224Y471818D01*
X581218Y471771D01*
X581200Y471697D01*
X581029Y469962D01*
X581033Y469914D01*
X581029Y469838D01*
X581200Y468104D01*
X581213Y468057D01*
X581224Y467982D01*
X581730Y466314D01*
X581752Y466271D01*
X581777Y466199D01*
X582599Y464662D01*
X582629Y464624D01*
X582668Y464559D01*
X583774Y463211D01*
X583810Y463180D01*
X583861Y463124D01*
X585209Y462018D01*
X585251Y461994D01*
X585312Y461949D01*
X586849Y461127D01*
X586895Y461113D01*
X586964Y461080D01*
X587102Y461038D01*
X587103Y461038D01*
X588632Y460574D01*
X588679Y460568D01*
X588754Y460550D01*
X590488Y460379D01*
X590515Y460381D01*
X590550Y460376D01*
X603250Y460376D01*
X603315Y460387D01*
G37*
G36*
X603315Y434987D02*
X603315Y434987D01*
X603381Y434989D01*
X603424Y435007D01*
X603471Y435015D01*
X603528Y435049D01*
X603588Y435074D01*
X603623Y435105D01*
X603664Y435130D01*
X603706Y435181D01*
X603754Y435225D01*
X603776Y435267D01*
X603805Y435304D01*
X603826Y435366D01*
X603857Y435425D01*
X603865Y435479D01*
X603877Y435516D01*
X603876Y435556D01*
X603884Y435610D01*
X603884Y453390D01*
X603873Y453455D01*
X603871Y453521D01*
X603853Y453564D01*
X603845Y453611D01*
X603811Y453668D01*
X603786Y453728D01*
X603755Y453763D01*
X603730Y453804D01*
X603679Y453846D01*
X603635Y453894D01*
X603593Y453916D01*
X603556Y453945D01*
X603494Y453966D01*
X603435Y453997D01*
X603381Y454005D01*
X603344Y454017D01*
X603304Y454016D01*
X603250Y454024D01*
X590550Y454024D01*
X590523Y454019D01*
X590488Y454021D01*
X588754Y453850D01*
X588707Y453837D01*
X588632Y453826D01*
X586964Y453320D01*
X586921Y453298D01*
X586849Y453273D01*
X585312Y452451D01*
X585274Y452421D01*
X585209Y452382D01*
X583861Y451276D01*
X583830Y451240D01*
X583774Y451189D01*
X582668Y449841D01*
X582644Y449799D01*
X582599Y449738D01*
X581777Y448201D01*
X581763Y448155D01*
X581730Y448086D01*
X581224Y446418D01*
X581218Y446371D01*
X581200Y446297D01*
X581029Y444562D01*
X581033Y444514D01*
X581029Y444438D01*
X581200Y442704D01*
X581213Y442657D01*
X581224Y442582D01*
X581730Y440914D01*
X581752Y440871D01*
X581777Y440799D01*
X582599Y439262D01*
X582629Y439224D01*
X582668Y439159D01*
X583774Y437811D01*
X583810Y437780D01*
X583861Y437724D01*
X585209Y436618D01*
X585251Y436594D01*
X585312Y436549D01*
X586849Y435727D01*
X586895Y435713D01*
X586964Y435680D01*
X587102Y435638D01*
X587103Y435638D01*
X588632Y435174D01*
X588679Y435168D01*
X588754Y435150D01*
X590488Y434979D01*
X590515Y434981D01*
X590550Y434976D01*
X603250Y434976D01*
X603315Y434987D01*
G37*
G36*
X603315Y409587D02*
X603315Y409587D01*
X603381Y409589D01*
X603424Y409607D01*
X603471Y409615D01*
X603528Y409649D01*
X603588Y409674D01*
X603623Y409705D01*
X603664Y409730D01*
X603706Y409781D01*
X603754Y409825D01*
X603776Y409867D01*
X603805Y409904D01*
X603826Y409966D01*
X603857Y410025D01*
X603865Y410079D01*
X603877Y410116D01*
X603876Y410156D01*
X603884Y410210D01*
X603884Y427990D01*
X603873Y428055D01*
X603871Y428121D01*
X603853Y428164D01*
X603845Y428211D01*
X603811Y428268D01*
X603786Y428328D01*
X603755Y428363D01*
X603730Y428404D01*
X603679Y428446D01*
X603635Y428494D01*
X603593Y428516D01*
X603556Y428545D01*
X603494Y428566D01*
X603435Y428597D01*
X603381Y428605D01*
X603344Y428617D01*
X603304Y428616D01*
X603250Y428624D01*
X590550Y428624D01*
X590523Y428619D01*
X590488Y428621D01*
X588754Y428450D01*
X588707Y428437D01*
X588632Y428426D01*
X586964Y427920D01*
X586921Y427898D01*
X586849Y427873D01*
X585312Y427051D01*
X585274Y427021D01*
X585209Y426982D01*
X583861Y425876D01*
X583830Y425840D01*
X583774Y425789D01*
X582668Y424441D01*
X582644Y424399D01*
X582599Y424338D01*
X581777Y422801D01*
X581763Y422755D01*
X581730Y422686D01*
X581224Y421018D01*
X581218Y420971D01*
X581200Y420897D01*
X581029Y419162D01*
X581033Y419114D01*
X581029Y419038D01*
X581200Y417304D01*
X581213Y417257D01*
X581224Y417182D01*
X581730Y415514D01*
X581752Y415471D01*
X581777Y415399D01*
X582599Y413862D01*
X582629Y413824D01*
X582668Y413759D01*
X583774Y412411D01*
X583810Y412380D01*
X583861Y412324D01*
X585209Y411218D01*
X585251Y411194D01*
X585312Y411149D01*
X586849Y410327D01*
X586895Y410313D01*
X586964Y410280D01*
X587102Y410238D01*
X587103Y410238D01*
X588632Y409774D01*
X588679Y409768D01*
X588754Y409750D01*
X590488Y409579D01*
X590515Y409581D01*
X590550Y409576D01*
X603250Y409576D01*
X603315Y409587D01*
G37*
G36*
X603315Y384187D02*
X603315Y384187D01*
X603381Y384189D01*
X603424Y384207D01*
X603471Y384215D01*
X603528Y384249D01*
X603588Y384274D01*
X603623Y384305D01*
X603664Y384330D01*
X603706Y384381D01*
X603754Y384425D01*
X603776Y384467D01*
X603805Y384504D01*
X603826Y384566D01*
X603857Y384625D01*
X603865Y384679D01*
X603877Y384716D01*
X603876Y384756D01*
X603884Y384810D01*
X603884Y402590D01*
X603873Y402655D01*
X603871Y402721D01*
X603853Y402764D01*
X603845Y402811D01*
X603811Y402868D01*
X603786Y402928D01*
X603755Y402963D01*
X603730Y403004D01*
X603679Y403046D01*
X603635Y403094D01*
X603593Y403116D01*
X603556Y403145D01*
X603494Y403166D01*
X603435Y403197D01*
X603381Y403205D01*
X603344Y403217D01*
X603304Y403216D01*
X603250Y403224D01*
X590550Y403224D01*
X590523Y403219D01*
X590488Y403221D01*
X588754Y403050D01*
X588707Y403037D01*
X588632Y403026D01*
X586964Y402520D01*
X586921Y402498D01*
X586849Y402473D01*
X585312Y401651D01*
X585274Y401621D01*
X585209Y401582D01*
X583861Y400476D01*
X583830Y400440D01*
X583774Y400389D01*
X582668Y399041D01*
X582644Y398999D01*
X582599Y398938D01*
X581777Y397401D01*
X581763Y397355D01*
X581730Y397286D01*
X581224Y395618D01*
X581218Y395571D01*
X581200Y395497D01*
X581029Y393762D01*
X581033Y393714D01*
X581029Y393638D01*
X581200Y391904D01*
X581213Y391857D01*
X581224Y391782D01*
X581730Y390114D01*
X581752Y390071D01*
X581777Y389999D01*
X582599Y388462D01*
X582629Y388424D01*
X582668Y388359D01*
X583774Y387011D01*
X583810Y386980D01*
X583861Y386924D01*
X585209Y385818D01*
X585251Y385794D01*
X585312Y385749D01*
X586849Y384927D01*
X586895Y384913D01*
X586964Y384880D01*
X587102Y384838D01*
X587103Y384838D01*
X588632Y384374D01*
X588679Y384368D01*
X588754Y384350D01*
X590488Y384179D01*
X590515Y384181D01*
X590550Y384176D01*
X603250Y384176D01*
X603315Y384187D01*
G37*
G36*
X603315Y358787D02*
X603315Y358787D01*
X603381Y358789D01*
X603424Y358807D01*
X603471Y358815D01*
X603528Y358849D01*
X603588Y358874D01*
X603623Y358905D01*
X603664Y358930D01*
X603706Y358981D01*
X603754Y359025D01*
X603776Y359067D01*
X603805Y359104D01*
X603826Y359166D01*
X603857Y359225D01*
X603865Y359279D01*
X603877Y359316D01*
X603876Y359356D01*
X603884Y359410D01*
X603884Y377190D01*
X603873Y377255D01*
X603871Y377321D01*
X603853Y377364D01*
X603845Y377411D01*
X603811Y377468D01*
X603786Y377528D01*
X603755Y377563D01*
X603730Y377604D01*
X603679Y377646D01*
X603635Y377694D01*
X603593Y377716D01*
X603556Y377745D01*
X603494Y377766D01*
X603435Y377797D01*
X603381Y377805D01*
X603344Y377817D01*
X603304Y377816D01*
X603250Y377824D01*
X590550Y377824D01*
X590523Y377819D01*
X590488Y377821D01*
X588754Y377650D01*
X588707Y377637D01*
X588632Y377626D01*
X586964Y377120D01*
X586921Y377098D01*
X586849Y377073D01*
X585312Y376251D01*
X585274Y376221D01*
X585209Y376182D01*
X583861Y375076D01*
X583830Y375040D01*
X583774Y374989D01*
X582668Y373641D01*
X582644Y373599D01*
X582599Y373538D01*
X581777Y372001D01*
X581763Y371955D01*
X581730Y371886D01*
X581224Y370218D01*
X581218Y370171D01*
X581200Y370097D01*
X581029Y368362D01*
X581033Y368314D01*
X581029Y368238D01*
X581200Y366504D01*
X581213Y366457D01*
X581224Y366382D01*
X581730Y364714D01*
X581752Y364671D01*
X581777Y364599D01*
X582599Y363062D01*
X582629Y363024D01*
X582668Y362959D01*
X583774Y361611D01*
X583810Y361580D01*
X583861Y361524D01*
X585209Y360418D01*
X585251Y360394D01*
X585312Y360349D01*
X586849Y359527D01*
X586895Y359513D01*
X586964Y359480D01*
X587102Y359438D01*
X587103Y359438D01*
X588632Y358974D01*
X588679Y358968D01*
X588754Y358950D01*
X590488Y358779D01*
X590515Y358781D01*
X590550Y358776D01*
X603250Y358776D01*
X603315Y358787D01*
G37*
G36*
X603315Y307987D02*
X603315Y307987D01*
X603381Y307989D01*
X603424Y308007D01*
X603471Y308015D01*
X603528Y308049D01*
X603588Y308074D01*
X603623Y308105D01*
X603664Y308130D01*
X603706Y308181D01*
X603754Y308225D01*
X603776Y308267D01*
X603805Y308304D01*
X603826Y308366D01*
X603857Y308425D01*
X603865Y308479D01*
X603877Y308516D01*
X603876Y308556D01*
X603884Y308610D01*
X603884Y326390D01*
X603873Y326455D01*
X603871Y326521D01*
X603853Y326564D01*
X603845Y326611D01*
X603811Y326668D01*
X603786Y326728D01*
X603755Y326763D01*
X603730Y326804D01*
X603679Y326846D01*
X603635Y326894D01*
X603593Y326916D01*
X603556Y326945D01*
X603494Y326966D01*
X603435Y326997D01*
X603381Y327005D01*
X603344Y327017D01*
X603304Y327016D01*
X603250Y327024D01*
X590550Y327024D01*
X590523Y327019D01*
X590488Y327021D01*
X588754Y326850D01*
X588707Y326837D01*
X588632Y326826D01*
X586964Y326320D01*
X586921Y326298D01*
X586849Y326273D01*
X585312Y325451D01*
X585274Y325421D01*
X585209Y325382D01*
X583861Y324276D01*
X583830Y324240D01*
X583774Y324189D01*
X582668Y322841D01*
X582644Y322799D01*
X582599Y322738D01*
X581777Y321201D01*
X581763Y321155D01*
X581730Y321086D01*
X581224Y319418D01*
X581218Y319371D01*
X581200Y319297D01*
X581029Y317562D01*
X581033Y317514D01*
X581029Y317438D01*
X581200Y315704D01*
X581213Y315657D01*
X581224Y315582D01*
X581730Y313914D01*
X581752Y313871D01*
X581777Y313799D01*
X582599Y312262D01*
X582629Y312224D01*
X582668Y312159D01*
X583774Y310811D01*
X583810Y310780D01*
X583861Y310724D01*
X585209Y309618D01*
X585251Y309594D01*
X585312Y309549D01*
X586849Y308727D01*
X586895Y308713D01*
X586964Y308680D01*
X587102Y308638D01*
X587103Y308638D01*
X588632Y308174D01*
X588679Y308168D01*
X588754Y308150D01*
X590488Y307979D01*
X590515Y307981D01*
X590550Y307976D01*
X603250Y307976D01*
X603315Y307987D01*
G37*
G36*
X603315Y282587D02*
X603315Y282587D01*
X603381Y282589D01*
X603424Y282607D01*
X603471Y282615D01*
X603528Y282649D01*
X603588Y282674D01*
X603623Y282705D01*
X603664Y282730D01*
X603706Y282781D01*
X603754Y282825D01*
X603776Y282867D01*
X603805Y282904D01*
X603826Y282966D01*
X603857Y283025D01*
X603865Y283079D01*
X603877Y283116D01*
X603876Y283156D01*
X603884Y283210D01*
X603884Y300990D01*
X603873Y301055D01*
X603871Y301121D01*
X603853Y301164D01*
X603845Y301211D01*
X603811Y301268D01*
X603786Y301328D01*
X603755Y301363D01*
X603730Y301404D01*
X603679Y301446D01*
X603635Y301494D01*
X603593Y301516D01*
X603556Y301545D01*
X603494Y301566D01*
X603435Y301597D01*
X603381Y301605D01*
X603344Y301617D01*
X603304Y301616D01*
X603250Y301624D01*
X590550Y301624D01*
X590523Y301619D01*
X590488Y301621D01*
X588754Y301450D01*
X588707Y301437D01*
X588632Y301426D01*
X586964Y300920D01*
X586921Y300898D01*
X586849Y300873D01*
X585312Y300051D01*
X585274Y300021D01*
X585209Y299982D01*
X583861Y298876D01*
X583830Y298840D01*
X583774Y298789D01*
X582668Y297441D01*
X582644Y297399D01*
X582599Y297338D01*
X581777Y295801D01*
X581763Y295755D01*
X581730Y295686D01*
X581224Y294018D01*
X581218Y293971D01*
X581200Y293897D01*
X581029Y292162D01*
X581033Y292114D01*
X581029Y292038D01*
X581200Y290304D01*
X581213Y290257D01*
X581224Y290182D01*
X581730Y288514D01*
X581752Y288471D01*
X581777Y288399D01*
X582599Y286862D01*
X582629Y286824D01*
X582668Y286759D01*
X583774Y285411D01*
X583810Y285380D01*
X583861Y285324D01*
X585209Y284218D01*
X585251Y284194D01*
X585312Y284149D01*
X586849Y283327D01*
X586895Y283313D01*
X586964Y283280D01*
X587102Y283238D01*
X587103Y283238D01*
X588632Y282774D01*
X588679Y282768D01*
X588754Y282750D01*
X590488Y282579D01*
X590515Y282581D01*
X590550Y282576D01*
X603250Y282576D01*
X603315Y282587D01*
G37*
G36*
X603315Y257187D02*
X603315Y257187D01*
X603381Y257189D01*
X603424Y257207D01*
X603471Y257215D01*
X603528Y257249D01*
X603588Y257274D01*
X603623Y257305D01*
X603664Y257330D01*
X603706Y257381D01*
X603754Y257425D01*
X603776Y257467D01*
X603805Y257504D01*
X603826Y257566D01*
X603857Y257625D01*
X603865Y257679D01*
X603877Y257716D01*
X603876Y257756D01*
X603884Y257810D01*
X603884Y275590D01*
X603873Y275655D01*
X603871Y275721D01*
X603853Y275764D01*
X603845Y275811D01*
X603811Y275868D01*
X603786Y275928D01*
X603755Y275963D01*
X603730Y276004D01*
X603679Y276046D01*
X603635Y276094D01*
X603593Y276116D01*
X603556Y276145D01*
X603494Y276166D01*
X603435Y276197D01*
X603381Y276205D01*
X603344Y276217D01*
X603304Y276216D01*
X603250Y276224D01*
X590550Y276224D01*
X590523Y276219D01*
X590488Y276221D01*
X588754Y276050D01*
X588707Y276037D01*
X588632Y276026D01*
X586964Y275520D01*
X586921Y275498D01*
X586849Y275473D01*
X585312Y274651D01*
X585274Y274621D01*
X585209Y274582D01*
X583861Y273476D01*
X583830Y273440D01*
X583774Y273389D01*
X582668Y272041D01*
X582644Y271999D01*
X582599Y271938D01*
X581777Y270401D01*
X581763Y270355D01*
X581730Y270286D01*
X581224Y268618D01*
X581218Y268571D01*
X581200Y268497D01*
X581029Y266762D01*
X581033Y266714D01*
X581029Y266638D01*
X581200Y264904D01*
X581213Y264857D01*
X581224Y264782D01*
X581730Y263114D01*
X581752Y263071D01*
X581777Y262999D01*
X582599Y261462D01*
X582629Y261424D01*
X582668Y261359D01*
X583774Y260011D01*
X583810Y259980D01*
X583861Y259924D01*
X585209Y258818D01*
X585251Y258794D01*
X585312Y258749D01*
X586849Y257927D01*
X586895Y257913D01*
X586964Y257880D01*
X587102Y257838D01*
X587103Y257838D01*
X588632Y257374D01*
X588679Y257368D01*
X588754Y257350D01*
X590488Y257179D01*
X590515Y257181D01*
X590550Y257176D01*
X603250Y257176D01*
X603315Y257187D01*
G37*
G36*
X603315Y231787D02*
X603315Y231787D01*
X603381Y231789D01*
X603424Y231807D01*
X603471Y231815D01*
X603528Y231849D01*
X603588Y231874D01*
X603623Y231905D01*
X603664Y231930D01*
X603706Y231981D01*
X603754Y232025D01*
X603776Y232067D01*
X603805Y232104D01*
X603826Y232166D01*
X603857Y232225D01*
X603865Y232279D01*
X603877Y232316D01*
X603876Y232356D01*
X603884Y232410D01*
X603884Y250190D01*
X603873Y250255D01*
X603871Y250321D01*
X603853Y250364D01*
X603845Y250411D01*
X603811Y250468D01*
X603786Y250528D01*
X603755Y250563D01*
X603730Y250604D01*
X603679Y250646D01*
X603635Y250694D01*
X603593Y250716D01*
X603556Y250745D01*
X603494Y250766D01*
X603435Y250797D01*
X603381Y250805D01*
X603344Y250817D01*
X603304Y250816D01*
X603250Y250824D01*
X590550Y250824D01*
X590523Y250819D01*
X590488Y250821D01*
X588754Y250650D01*
X588707Y250637D01*
X588632Y250626D01*
X586964Y250120D01*
X586921Y250098D01*
X586849Y250073D01*
X585312Y249251D01*
X585274Y249221D01*
X585209Y249182D01*
X583861Y248076D01*
X583830Y248040D01*
X583774Y247989D01*
X582668Y246641D01*
X582644Y246599D01*
X582599Y246538D01*
X581777Y245001D01*
X581763Y244955D01*
X581730Y244886D01*
X581224Y243218D01*
X581218Y243171D01*
X581200Y243097D01*
X581029Y241362D01*
X581033Y241314D01*
X581029Y241238D01*
X581200Y239504D01*
X581213Y239457D01*
X581224Y239382D01*
X581730Y237714D01*
X581752Y237671D01*
X581777Y237599D01*
X582599Y236062D01*
X582629Y236024D01*
X582668Y235959D01*
X583774Y234611D01*
X583810Y234580D01*
X583861Y234524D01*
X585209Y233418D01*
X585251Y233394D01*
X585312Y233349D01*
X586849Y232527D01*
X586895Y232513D01*
X586964Y232480D01*
X587102Y232438D01*
X587103Y232438D01*
X588632Y231974D01*
X588679Y231968D01*
X588754Y231950D01*
X590488Y231779D01*
X590515Y231781D01*
X590550Y231776D01*
X603250Y231776D01*
X603315Y231787D01*
G37*
G36*
X603315Y206387D02*
X603315Y206387D01*
X603381Y206389D01*
X603424Y206407D01*
X603471Y206415D01*
X603528Y206449D01*
X603588Y206474D01*
X603623Y206505D01*
X603664Y206530D01*
X603706Y206581D01*
X603754Y206625D01*
X603776Y206667D01*
X603805Y206704D01*
X603826Y206766D01*
X603857Y206825D01*
X603865Y206879D01*
X603877Y206916D01*
X603876Y206956D01*
X603884Y207010D01*
X603884Y224790D01*
X603873Y224855D01*
X603871Y224921D01*
X603853Y224964D01*
X603845Y225011D01*
X603811Y225068D01*
X603786Y225128D01*
X603755Y225163D01*
X603730Y225204D01*
X603679Y225246D01*
X603635Y225294D01*
X603593Y225316D01*
X603556Y225345D01*
X603494Y225366D01*
X603435Y225397D01*
X603381Y225405D01*
X603344Y225417D01*
X603304Y225416D01*
X603250Y225424D01*
X590550Y225424D01*
X590523Y225419D01*
X590488Y225421D01*
X588754Y225250D01*
X588707Y225237D01*
X588632Y225226D01*
X586964Y224720D01*
X586921Y224698D01*
X586849Y224673D01*
X585312Y223851D01*
X585274Y223821D01*
X585209Y223782D01*
X583861Y222676D01*
X583830Y222640D01*
X583774Y222589D01*
X582668Y221241D01*
X582644Y221199D01*
X582599Y221138D01*
X581777Y219601D01*
X581763Y219555D01*
X581730Y219486D01*
X581224Y217818D01*
X581218Y217771D01*
X581200Y217697D01*
X581029Y215962D01*
X581033Y215914D01*
X581029Y215838D01*
X581200Y214104D01*
X581213Y214057D01*
X581224Y213982D01*
X581730Y212314D01*
X581752Y212271D01*
X581777Y212199D01*
X582599Y210662D01*
X582629Y210624D01*
X582668Y210559D01*
X583774Y209211D01*
X583810Y209180D01*
X583861Y209124D01*
X585209Y208018D01*
X585251Y207994D01*
X585312Y207949D01*
X586849Y207127D01*
X586895Y207113D01*
X586964Y207080D01*
X587102Y207038D01*
X587103Y207038D01*
X588632Y206574D01*
X588679Y206568D01*
X588754Y206550D01*
X590488Y206379D01*
X590515Y206381D01*
X590550Y206376D01*
X603250Y206376D01*
X603315Y206387D01*
G37*
G36*
X603315Y180987D02*
X603315Y180987D01*
X603381Y180989D01*
X603424Y181007D01*
X603471Y181015D01*
X603528Y181049D01*
X603588Y181074D01*
X603623Y181105D01*
X603664Y181130D01*
X603706Y181181D01*
X603754Y181225D01*
X603776Y181267D01*
X603805Y181304D01*
X603826Y181366D01*
X603857Y181425D01*
X603865Y181479D01*
X603877Y181516D01*
X603876Y181556D01*
X603884Y181610D01*
X603884Y199390D01*
X603873Y199455D01*
X603871Y199521D01*
X603853Y199564D01*
X603845Y199611D01*
X603811Y199668D01*
X603786Y199728D01*
X603755Y199763D01*
X603730Y199804D01*
X603679Y199846D01*
X603635Y199894D01*
X603593Y199916D01*
X603556Y199945D01*
X603494Y199966D01*
X603435Y199997D01*
X603381Y200005D01*
X603344Y200017D01*
X603304Y200016D01*
X603250Y200024D01*
X590550Y200024D01*
X590523Y200019D01*
X590488Y200021D01*
X588754Y199850D01*
X588707Y199837D01*
X588632Y199826D01*
X586964Y199320D01*
X586921Y199298D01*
X586849Y199273D01*
X585312Y198451D01*
X585274Y198421D01*
X585209Y198382D01*
X583861Y197276D01*
X583830Y197240D01*
X583774Y197189D01*
X582668Y195841D01*
X582644Y195799D01*
X582599Y195738D01*
X581777Y194201D01*
X581763Y194155D01*
X581730Y194086D01*
X581224Y192418D01*
X581218Y192371D01*
X581200Y192297D01*
X581029Y190562D01*
X581033Y190514D01*
X581029Y190438D01*
X581200Y188704D01*
X581213Y188657D01*
X581224Y188582D01*
X581730Y186914D01*
X581752Y186871D01*
X581777Y186799D01*
X582599Y185262D01*
X582629Y185224D01*
X582668Y185159D01*
X583774Y183811D01*
X583810Y183780D01*
X583861Y183724D01*
X585209Y182618D01*
X585251Y182594D01*
X585312Y182549D01*
X586849Y181727D01*
X586895Y181713D01*
X586964Y181680D01*
X587102Y181638D01*
X587103Y181638D01*
X588632Y181174D01*
X588679Y181168D01*
X588754Y181150D01*
X590488Y180979D01*
X590515Y180981D01*
X590550Y180976D01*
X603250Y180976D01*
X603315Y180987D01*
G37*
G36*
X603315Y155587D02*
X603315Y155587D01*
X603381Y155589D01*
X603424Y155607D01*
X603471Y155615D01*
X603528Y155649D01*
X603588Y155674D01*
X603623Y155705D01*
X603664Y155730D01*
X603706Y155781D01*
X603754Y155825D01*
X603776Y155867D01*
X603805Y155904D01*
X603826Y155966D01*
X603857Y156025D01*
X603865Y156079D01*
X603877Y156116D01*
X603876Y156156D01*
X603884Y156210D01*
X603884Y173990D01*
X603873Y174055D01*
X603871Y174121D01*
X603853Y174164D01*
X603845Y174211D01*
X603811Y174268D01*
X603786Y174328D01*
X603755Y174363D01*
X603730Y174404D01*
X603679Y174446D01*
X603635Y174494D01*
X603593Y174516D01*
X603556Y174545D01*
X603494Y174566D01*
X603435Y174597D01*
X603381Y174605D01*
X603344Y174617D01*
X603304Y174616D01*
X603250Y174624D01*
X590550Y174624D01*
X590523Y174619D01*
X590488Y174621D01*
X588754Y174450D01*
X588707Y174437D01*
X588632Y174426D01*
X586964Y173920D01*
X586921Y173898D01*
X586849Y173873D01*
X585312Y173051D01*
X585274Y173021D01*
X585209Y172982D01*
X583861Y171876D01*
X583830Y171840D01*
X583774Y171789D01*
X582668Y170441D01*
X582644Y170399D01*
X582599Y170338D01*
X581777Y168801D01*
X581763Y168755D01*
X581730Y168686D01*
X581224Y167018D01*
X581218Y166971D01*
X581200Y166897D01*
X581029Y165162D01*
X581033Y165114D01*
X581029Y165038D01*
X581200Y163304D01*
X581213Y163257D01*
X581224Y163182D01*
X581730Y161514D01*
X581752Y161471D01*
X581777Y161399D01*
X582599Y159862D01*
X582629Y159824D01*
X582668Y159759D01*
X583774Y158411D01*
X583810Y158380D01*
X583861Y158324D01*
X585209Y157218D01*
X585251Y157194D01*
X585312Y157149D01*
X586849Y156327D01*
X586895Y156313D01*
X586964Y156280D01*
X587102Y156238D01*
X587103Y156238D01*
X588632Y155774D01*
X588679Y155768D01*
X588754Y155750D01*
X590488Y155579D01*
X590515Y155581D01*
X590550Y155576D01*
X603250Y155576D01*
X603315Y155587D01*
G37*
G36*
X73004Y107004D02*
X73004Y107004D01*
X73007Y107001D01*
X74129Y107156D01*
X74134Y107161D01*
X74138Y107158D01*
X75209Y107529D01*
X75213Y107535D01*
X75218Y107533D01*
X76195Y108106D01*
X76198Y108112D01*
X76203Y108111D01*
X77050Y108864D01*
X77052Y108871D01*
X77057Y108871D01*
X77741Y109774D01*
X77741Y109781D01*
X77746Y109782D01*
X78241Y110801D01*
X78239Y110808D01*
X78244Y110810D01*
X78531Y111907D01*
X78529Y111911D01*
X78531Y111912D01*
X78529Y111914D01*
X78532Y111916D01*
X78599Y113047D01*
X78597Y113051D01*
X78599Y113053D01*
X78532Y114184D01*
X78527Y114189D01*
X78531Y114193D01*
X78244Y115290D01*
X78238Y115294D01*
X78241Y115299D01*
X77746Y116318D01*
X77740Y116321D01*
X77741Y116326D01*
X77057Y117229D01*
X77050Y117231D01*
X77050Y117236D01*
X76203Y117989D01*
X76196Y117989D01*
X76195Y117994D01*
X75218Y118567D01*
X75211Y118566D01*
X75209Y118571D01*
X74138Y118942D01*
X74132Y118939D01*
X74129Y118944D01*
X73007Y119099D01*
X73002Y119096D01*
X73000Y119099D01*
X61000Y119099D01*
X60995Y119096D01*
X60992Y119099D01*
X59725Y118894D01*
X59719Y118888D01*
X59715Y118891D01*
X58525Y118409D01*
X58521Y118402D01*
X58515Y118404D01*
X57462Y117670D01*
X57460Y117662D01*
X57454Y117663D01*
X56591Y116713D01*
X56590Y116704D01*
X56585Y116704D01*
X55955Y115585D01*
X55956Y115577D01*
X55950Y115575D01*
X55585Y114345D01*
X55588Y114337D01*
X55583Y114334D01*
X55501Y113053D01*
X55504Y113049D01*
X55501Y113047D01*
X55583Y111766D01*
X55589Y111760D01*
X55585Y111755D01*
X55950Y110525D01*
X55957Y110520D01*
X55955Y110515D01*
X56585Y109396D01*
X56592Y109393D01*
X56591Y109387D01*
X57454Y108437D01*
X57462Y108436D01*
X57462Y108430D01*
X58515Y107696D01*
X58523Y107696D01*
X58525Y107691D01*
X59715Y107209D01*
X59722Y107211D01*
X59725Y107206D01*
X60992Y107001D01*
X60997Y107004D01*
X61000Y107001D01*
X73000Y107001D01*
X73004Y107004D01*
G37*
G36*
X73004Y20604D02*
X73004Y20604D01*
X73007Y20601D01*
X74129Y20756D01*
X74134Y20761D01*
X74138Y20758D01*
X75209Y21129D01*
X75213Y21135D01*
X75218Y21133D01*
X76195Y21706D01*
X76198Y21712D01*
X76203Y21711D01*
X77050Y22464D01*
X77052Y22471D01*
X77057Y22471D01*
X77741Y23374D01*
X77741Y23381D01*
X77746Y23382D01*
X78241Y24401D01*
X78239Y24408D01*
X78244Y24410D01*
X78531Y25507D01*
X78529Y25511D01*
X78531Y25512D01*
X78529Y25514D01*
X78532Y25516D01*
X78599Y26647D01*
X78597Y26651D01*
X78599Y26653D01*
X78532Y27784D01*
X78527Y27789D01*
X78531Y27793D01*
X78244Y28890D01*
X78238Y28894D01*
X78241Y28899D01*
X77746Y29918D01*
X77740Y29921D01*
X77741Y29926D01*
X77057Y30829D01*
X77050Y30831D01*
X77050Y30836D01*
X76203Y31589D01*
X76196Y31589D01*
X76195Y31594D01*
X75218Y32167D01*
X75211Y32166D01*
X75209Y32171D01*
X74138Y32542D01*
X74132Y32539D01*
X74129Y32544D01*
X73007Y32699D01*
X73002Y32696D01*
X73000Y32699D01*
X61000Y32699D01*
X60995Y32696D01*
X60992Y32699D01*
X59725Y32494D01*
X59719Y32488D01*
X59715Y32491D01*
X58525Y32009D01*
X58521Y32002D01*
X58515Y32004D01*
X57462Y31270D01*
X57460Y31262D01*
X57454Y31263D01*
X56591Y30313D01*
X56590Y30304D01*
X56585Y30304D01*
X55955Y29185D01*
X55956Y29177D01*
X55950Y29175D01*
X55585Y27945D01*
X55588Y27937D01*
X55583Y27934D01*
X55501Y26653D01*
X55504Y26649D01*
X55501Y26647D01*
X55583Y25366D01*
X55589Y25360D01*
X55585Y25355D01*
X55950Y24125D01*
X55957Y24120D01*
X55955Y24115D01*
X56585Y22996D01*
X56592Y22993D01*
X56591Y22987D01*
X57454Y22037D01*
X57462Y22036D01*
X57462Y22030D01*
X58515Y21296D01*
X58523Y21296D01*
X58525Y21291D01*
X59715Y20809D01*
X59722Y20811D01*
X59725Y20806D01*
X60992Y20601D01*
X60997Y20604D01*
X61000Y20601D01*
X73000Y20601D01*
X73004Y20604D01*
G37*
G36*
X28203Y107003D02*
X28203Y107003D01*
X28205Y107001D01*
X29381Y107112D01*
X29386Y107117D01*
X29390Y107114D01*
X30522Y107452D01*
X30526Y107458D01*
X30531Y107456D01*
X31575Y108008D01*
X31578Y108015D01*
X31583Y108013D01*
X32499Y108759D01*
X32500Y108766D01*
X32506Y108766D01*
X33259Y109676D01*
X33259Y109683D01*
X33264Y109684D01*
X33825Y110723D01*
X33824Y110728D01*
X33828Y110730D01*
X33827Y110731D01*
X33829Y110732D01*
X34176Y111861D01*
X34176Y111862D01*
X34177Y111863D01*
X34174Y111867D01*
X34178Y111870D01*
X34299Y113045D01*
X34295Y113052D01*
X34299Y113056D01*
X34142Y114396D01*
X34137Y114402D01*
X34140Y114407D01*
X33689Y115678D01*
X33682Y115683D01*
X33684Y115688D01*
X32962Y116827D01*
X32954Y116830D01*
X32955Y116836D01*
X31997Y117786D01*
X31989Y117787D01*
X31988Y117793D01*
X30843Y118506D01*
X30835Y118505D01*
X30833Y118511D01*
X29557Y118951D01*
X29550Y118949D01*
X29547Y118953D01*
X28205Y119099D01*
X28202Y119097D01*
X28200Y119099D01*
X22200Y119099D01*
X22197Y119097D01*
X22194Y119099D01*
X20865Y118944D01*
X20859Y118938D01*
X20855Y118941D01*
X19594Y118494D01*
X19589Y118487D01*
X19584Y118489D01*
X18454Y117772D01*
X18451Y117765D01*
X18445Y117766D01*
X17503Y116816D01*
X17502Y116807D01*
X17496Y116807D01*
X16789Y115671D01*
X16790Y115663D01*
X16784Y115661D01*
X16348Y114396D01*
X16350Y114388D01*
X16345Y114386D01*
X16201Y113055D01*
X16205Y113049D01*
X16201Y113045D01*
X16311Y111879D01*
X16316Y111874D01*
X16313Y111870D01*
X16648Y110747D01*
X16654Y110743D01*
X16652Y110739D01*
X17200Y109703D01*
X17206Y109700D01*
X17205Y109695D01*
X17944Y108787D01*
X17951Y108785D01*
X17951Y108780D01*
X18853Y108033D01*
X18861Y108033D01*
X18861Y108028D01*
X19892Y107471D01*
X19899Y107472D01*
X19901Y107467D01*
X21020Y107123D01*
X21027Y107125D01*
X21030Y107121D01*
X22195Y107001D01*
X22198Y107003D01*
X22200Y107001D01*
X28200Y107001D01*
X28203Y107003D01*
G37*
G36*
X28203Y20603D02*
X28203Y20603D01*
X28205Y20601D01*
X29381Y20712D01*
X29386Y20717D01*
X29390Y20714D01*
X30522Y21052D01*
X30526Y21058D01*
X30531Y21056D01*
X31575Y21608D01*
X31578Y21615D01*
X31583Y21613D01*
X32499Y22359D01*
X32500Y22366D01*
X32506Y22366D01*
X33259Y23276D01*
X33259Y23283D01*
X33264Y23284D01*
X33825Y24323D01*
X33824Y24328D01*
X33828Y24330D01*
X33827Y24331D01*
X33829Y24332D01*
X34176Y25461D01*
X34176Y25462D01*
X34177Y25463D01*
X34174Y25467D01*
X34178Y25470D01*
X34299Y26645D01*
X34295Y26652D01*
X34299Y26656D01*
X34142Y27996D01*
X34137Y28002D01*
X34140Y28007D01*
X33689Y29278D01*
X33682Y29283D01*
X33684Y29288D01*
X32962Y30427D01*
X32954Y30430D01*
X32955Y30436D01*
X31997Y31386D01*
X31989Y31387D01*
X31988Y31393D01*
X30843Y32106D01*
X30835Y32105D01*
X30833Y32111D01*
X29557Y32551D01*
X29550Y32549D01*
X29547Y32553D01*
X28205Y32699D01*
X28202Y32697D01*
X28200Y32699D01*
X22200Y32699D01*
X22197Y32697D01*
X22194Y32699D01*
X20865Y32544D01*
X20859Y32538D01*
X20855Y32541D01*
X19594Y32094D01*
X19589Y32087D01*
X19584Y32089D01*
X18454Y31372D01*
X18451Y31365D01*
X18445Y31366D01*
X17503Y30416D01*
X17502Y30407D01*
X17496Y30407D01*
X16789Y29271D01*
X16790Y29263D01*
X16784Y29261D01*
X16348Y27996D01*
X16350Y27988D01*
X16345Y27986D01*
X16201Y26655D01*
X16205Y26649D01*
X16201Y26645D01*
X16311Y25479D01*
X16316Y25474D01*
X16313Y25470D01*
X16648Y24347D01*
X16654Y24343D01*
X16652Y24339D01*
X17200Y23303D01*
X17206Y23300D01*
X17205Y23295D01*
X17944Y22387D01*
X17951Y22385D01*
X17951Y22380D01*
X18853Y21633D01*
X18861Y21633D01*
X18861Y21628D01*
X19892Y21071D01*
X19899Y21072D01*
X19901Y21067D01*
X21020Y20723D01*
X21027Y20725D01*
X21030Y20721D01*
X22195Y20601D01*
X22198Y20603D01*
X22200Y20601D01*
X28200Y20601D01*
X28203Y20603D01*
G37*
G36*
X634394Y267358D02*
X634394Y267358D01*
X634443Y267358D01*
X635449Y267527D01*
X635489Y267543D01*
X635557Y267558D01*
X636500Y267948D01*
X636536Y267972D01*
X636598Y268002D01*
X637431Y268591D01*
X637460Y268622D01*
X637514Y268665D01*
X638195Y269425D01*
X638217Y269463D01*
X638260Y269517D01*
X638755Y270409D01*
X638768Y270450D01*
X638797Y270512D01*
X639081Y271492D01*
X639085Y271535D01*
X639100Y271603D01*
X639158Y272621D01*
X639157Y272634D01*
X639159Y272650D01*
X639159Y273750D01*
X639154Y273774D01*
X639156Y273806D01*
X639046Y274785D01*
X639033Y274826D01*
X639021Y274894D01*
X638695Y275824D01*
X638673Y275861D01*
X638647Y275925D01*
X638123Y276759D01*
X638093Y276790D01*
X638053Y276846D01*
X637356Y277543D01*
X637320Y277567D01*
X637269Y277613D01*
X636435Y278137D01*
X636394Y278152D01*
X636334Y278185D01*
X635404Y278511D01*
X635361Y278517D01*
X635295Y278536D01*
X634359Y278641D01*
X634317Y278667D01*
X634240Y278716D01*
X634231Y278717D01*
X634224Y278722D01*
X634060Y278749D01*
X630560Y278749D01*
X630516Y278740D01*
X630429Y278732D01*
X629336Y278435D01*
X629300Y278417D01*
X629243Y278400D01*
X628230Y277893D01*
X628199Y277869D01*
X628146Y277840D01*
X627253Y277144D01*
X627227Y277113D01*
X627181Y277076D01*
X626777Y276605D01*
X626758Y276571D01*
X626721Y276525D01*
X626417Y275984D01*
X626404Y275946D01*
X626377Y275894D01*
X626185Y275304D01*
X626181Y275267D01*
X626165Y275215D01*
X625865Y272915D01*
X625868Y272878D01*
X625862Y272827D01*
X625861Y272826D01*
X625861Y272825D01*
X625905Y271961D01*
X625914Y271924D01*
X625918Y271869D01*
X626121Y271028D01*
X626138Y270994D01*
X626152Y270940D01*
X626508Y270152D01*
X626517Y270139D01*
X626518Y270136D01*
X626533Y270117D01*
X626554Y270071D01*
X627051Y269363D01*
X627081Y269335D01*
X627117Y269287D01*
X627921Y268528D01*
X627957Y268505D01*
X628007Y268463D01*
X628955Y267894D01*
X628995Y267880D01*
X629053Y267849D01*
X630101Y267496D01*
X630143Y267491D01*
X630207Y267473D01*
X631306Y267354D01*
X631330Y267356D01*
X631360Y267351D01*
X634360Y267351D01*
X634394Y267358D01*
G37*
G36*
X541720Y118757D02*
X541720Y118757D01*
X541786Y118759D01*
X541829Y118777D01*
X541876Y118785D01*
X541933Y118819D01*
X541993Y118844D01*
X542028Y118875D01*
X542069Y118900D01*
X542111Y118951D01*
X542159Y118995D01*
X542181Y119037D01*
X542210Y119074D01*
X542231Y119136D01*
X542262Y119195D01*
X542270Y119249D01*
X542282Y119286D01*
X542281Y119326D01*
X542289Y119380D01*
X542289Y121920D01*
X542278Y121985D01*
X542276Y122051D01*
X542258Y122094D01*
X542250Y122141D01*
X542216Y122198D01*
X542191Y122258D01*
X542160Y122293D01*
X542135Y122334D01*
X542084Y122376D01*
X542040Y122424D01*
X541998Y122446D01*
X541961Y122475D01*
X541899Y122496D01*
X541840Y122527D01*
X541786Y122535D01*
X541749Y122547D01*
X541709Y122546D01*
X541655Y122554D01*
X537845Y122554D01*
X537780Y122543D01*
X537714Y122541D01*
X537671Y122523D01*
X537624Y122515D01*
X537567Y122481D01*
X537507Y122456D01*
X537472Y122425D01*
X537431Y122400D01*
X537390Y122349D01*
X537341Y122305D01*
X537319Y122263D01*
X537290Y122226D01*
X537269Y122164D01*
X537238Y122105D01*
X537230Y122051D01*
X537218Y122014D01*
X537218Y122011D01*
X537219Y121974D01*
X537211Y121920D01*
X537211Y119380D01*
X537222Y119315D01*
X537224Y119249D01*
X537242Y119206D01*
X537250Y119159D01*
X537284Y119102D01*
X537309Y119042D01*
X537340Y119007D01*
X537365Y118966D01*
X537416Y118925D01*
X537460Y118876D01*
X537502Y118854D01*
X537539Y118825D01*
X537601Y118804D01*
X537660Y118773D01*
X537714Y118765D01*
X537751Y118753D01*
X537791Y118754D01*
X537845Y118746D01*
X541655Y118746D01*
X541720Y118757D01*
G37*
D10*
X38100Y341850D03*
X38100Y306850D03*
D11*
X260350Y428630D03*
X260350Y508630D03*
D12*
X330200Y455050D03*
X330200Y472050D03*
X349250Y455050D03*
X349250Y472050D03*
D11*
X260350Y370200D03*
X260350Y290200D03*
D12*
X349250Y313300D03*
X349250Y296300D03*
X330200Y313300D03*
X330200Y296300D03*
D11*
X260350Y156850D03*
X260350Y236850D03*
D12*
X330200Y194700D03*
X330200Y211700D03*
X349250Y194700D03*
X349250Y211700D03*
D13*
X95250Y438150D03*
X95250Y209550D03*
X95250Y342900D03*
X95250Y304800D03*
X95250Y177800D03*
X95250Y476250D03*
D14*
X146050Y444500D03*
X146050Y469900D03*
D15*
X146050Y340360D03*
X146050Y314960D03*
D14*
X146050Y184150D03*
X146050Y209550D03*
D16*
X489820Y520450D03*
X489820Y552450D03*
X514820Y552450D03*
X464820Y552450D03*
X464820Y520450D03*
X514820Y520450D03*
D17*
X422760Y516890D03*
X435760Y516890D03*
D18*
X534670Y120650D03*
X544830Y120650D03*
D17*
X558650Y120650D03*
X571650Y120650D03*
D19*
X598050Y120650D03*
X583050Y120650D03*
D20*
X754380Y323850D02*
X769620Y323850D01*
X769620Y298450D02*
X754380Y298450D01*
X754380Y273050D02*
X769620Y273050D01*
X769620Y247650D02*
X754380Y247650D01*
X754380Y222250D02*
X769620Y222250D01*
X769620Y196850D02*
X754380Y196850D01*
X754380Y171450D02*
X769620Y171450D01*
X769620Y146050D02*
X754380Y146050D01*
X754380Y120650D02*
X769620Y120650D01*
X769620Y95250D02*
X754380Y95250D01*
X754380Y69850D02*
X769620Y69850D01*
X769620Y44450D02*
X754380Y44450D01*
D21*
X595376Y469900D03*
X382778Y444500D03*
X382778Y419100D03*
X382778Y393700D03*
X382778Y368300D03*
X382778Y342900D03*
X382778Y317500D03*
X382778Y292100D03*
X382778Y266700D03*
X382778Y241300D03*
X382778Y215900D03*
X382778Y190500D03*
X382778Y165100D03*
X595376Y444500D03*
X595376Y419100D03*
X595376Y393700D03*
X595376Y368300D03*
X595376Y342900D03*
X595376Y317500D03*
X595376Y292100D03*
X595376Y266700D03*
X595376Y241300D03*
X595376Y215900D03*
X595376Y190500D03*
X595376Y165100D03*
D22*
X491627Y185614D03*
X491627Y165614D03*
D23*
X482847Y227266D03*
D24*
X496184Y362906D03*
D25*
X684140Y346710D03*
X667140Y346710D03*
D26*
X114300Y37950D03*
X114300Y50950D03*
D17*
X125880Y91440D03*
X112880Y91440D03*
D27*
X76200Y62350D03*
X76200Y67350D03*
D28*
X76200Y37600D03*
D29*
X76200Y45350D03*
D27*
X76200Y52350D03*
X76200Y57350D03*
X76200Y77350D03*
X76200Y72350D03*
D28*
X76200Y102100D03*
D29*
X76200Y94350D03*
D27*
X76200Y87350D03*
X76200Y82350D03*
D30*
X61750Y98750D03*
X61750Y40950D03*
D31*
X726440Y401320D03*
X726440Y381320D03*
X726440Y421320D03*
D32*
X748940Y357320D03*
X748940Y445320D03*
D10*
X38100Y475200D03*
X38100Y440200D03*
X38100Y214850D03*
X38100Y179850D03*
D33*
X711030Y529430D03*
X711030Y509430D03*
D34*
X763030Y553430D03*
X763030Y485430D03*
D26*
X727710Y264010D03*
X727710Y277010D03*
X716280Y279550D03*
X716280Y266550D03*
D35*
X634560Y273050D03*
X630360Y273050D03*
D26*
X629920Y440540D03*
X629920Y453540D03*
X702310Y279550D03*
X702310Y266550D03*
D36*
X655320Y273050D03*
X680720Y273050D03*
D17*
X91290Y510540D03*
X104290Y510540D03*
D19*
X131960Y510540D03*
X116960Y510540D03*
D37*
X194175Y114300D03*
X161425Y114300D03*
M02*
