  0
SECTION
  2
HEADER
  9
$ACADVER
  1
AC1009
  9
$FILLMODE
 70
1
  9
$EXTMIN
 10
-8.2457
 20
-3.4627
 30
0.0000
  9
$EXTMAX
 10
35.0050
 20
35.8089
 30
0.0000
  0
ENDSEC
  0
SECTION
  2
TABLES
  0
TABLE
  2
LTYPE
 70
1
  0
LTYPE
  2
CONTINUOUS
 70
64
  3
Solid line
 72
65
 73
0
 40
0
  0
ENDTAB
  0
TABLE
  2
LAYER
 70
255
  0
LAYER
  2
1
 70
64
 62
22
  6
CONTINUOUS
  0
LAYER
  2
17
 70
64
 62
110
  6
CONTINUOUS
  0
LAYER
  2
18
 70
64
 62
110
  6
CONTINUOUS
  0
LAYER
  2
20
 70
64
 62
31
  6
CONTINUOUS
  0
LAYER
  2
21
 70
64
 62
253
  6
CONTINUOUS
  0
LAYER
  2
23
 70
64
 62
53
  6
CONTINUOUS
  0
LAYER
  2
24
 70
64
 62
53
  6
CONTINUOUS
  0
LAYER
  2
29
 70
64
 62
253
  6
CONTINUOUS
  0
ENDTAB
  0
ENDSEC
  0
SECTION
  2
BLOCKS
  0
BLOCK
  8
0
  2
RECT
 70
64
 10
0.0000
 20
0.0000
 30
0.0000
  3
RECT
  0
SOLID
  8
0
 10
-0.5000
 20
-0.5000
 30
0.0000
 11
0.5000
 21
-0.5000
 31
0.0000
 12
-0.5000
 22
0.5000
 32
0.0000
 13
0.5000
 23
0.5000
 33
0.0000
  0
ENDBLK
  8
0
  0
BLOCK
  8
0
  2
PIE
 70
64
 10
0.0000
 20
0.0000
 30
0.0000
  3
PIE
  0
POLYLINE
  8
0
 66
1
 10
0.0000
 20
0.0000
 30
0.0000
 40
0.5000
 41
0.5000
 70
0
  0
VERTEX
  8
0
 10
0.0000
 20
-0.2500
 30
0.0000
 42
1.0000
  0
VERTEX
  8
0
 10
0.0000
 20
0.2500
 30
0.0000
 42
1.0000
  0
VERTEX
  8
0
 10
0.0000
 20
-0.2500
 30
0.0000
  0
SEQEND
  8
0
  0
ENDBLK
  8
0
  0
BLOCK
  8
0
  2
OCTAGONP
 70
64
 10
0.0000
 20
0.0000
 30
0.0000
  3
OCTAGONP
  0
POLYLINE
  8
0
 66
1
 10
0.0000
 20
0.0000
 30
0.0000
 40
0.5000
 41
0.5000
 70
0
  0
VERTEX
  8
0
 10
-0.2500
 20
-0.1036
 30
0.0000
  0
VERTEX
  8
0
 10
-0.2500
 20
0.1036
 30
0.0000
  0
VERTEX
  8
0
 10
-0.1036
 20
0.2500
 30
0.0000
  0
VERTEX
  8
0
 10
0.1036
 20
0.2500
 30
0.0000
  0
VERTEX
  8
0
 10
0.2500
 20
0.1036
 30
0.0000
  0
VERTEX
  8
0
 10
0.2500
 20
-0.1036
 30
0.0000
  0
VERTEX
  8
0
 10
0.1036
 20
-0.2500
 30
0.0000
  0
VERTEX
  8
0
 10
-0.1036
 20
-0.2500
 30
0.0000
  0
VERTEX
  8
0
 10
-0.2500
 20
-0.1036
 30
0.0000
  0
VERTEX
  8
0
 10
-0.2500
 20
0.1036
 30
0.0000
  0
SEQEND
  8
0
  0
ENDBLK
  8
0
  0
BLOCK
  8
0
  2
SQUAREP
 70
64
 10
0.0000
 20
0.0000
 30
0.0000
  3
SQUAREP
  0
SOLID
  8
0
 10
-0.5000
 20
-0.5000
 30
0.0000
 11
0.5000
 21
-0.5000
 31
0.0000
 12
-0.5000
 22
0.5000
 32
0.0000
 13
0.5000
 23
0.5000
 33
0.0000
  0
ENDBLK
  8
0
  0
BLOCK
  8
0
  2
ROUNDP
 70
64
 10
0.0000
 20
0.0000
 30
0.0000
  3
ROUNDP
  0
POLYLINE
  8
0
 66
1
 10
0.0000
 20
0.0000
 30
0.0000
 40
0.5000
 41
0.5000
 70
0
  0
VERTEX
  8
0
 10
0.0000
 20
-0.2500
 30
0.0000
 42
1.0000
  0
VERTEX
  8
0
 10
0.0000
 20
0.2500
 30
0.0000
 42
1.0000
  0
VERTEX
  8
0
 10
0.0000
 20
-0.2500
 30
0.0000
  0
SEQEND
  8
0
  0
ENDBLK
  8
0
  0
BLOCK
  8
0
  2
ANNULUSP
 70
64
 10
0.0000
 20
0.0000
 30
0.0000
  3
ANNULUSP
  0
POLYLINE
  8
0
 66
1
 10
0.0000
 20
0.0000
 30
0.0000
 40
0.5000
 41
0.5000
 70
0
  0
VERTEX
  8
0
 10
0.0000
 20
-0.2500
 30
0.0000
 42
1.0000
  0
VERTEX
  8
0
 10
0.0000
 20
0.2500
 30
0.0000
 42
1.0000
  0
VERTEX
  8
0
 10
0.0000
 20
-0.2500
 30
0.0000
  0
SEQEND
  8
0
  0
ENDBLK
  8
0
  0
BLOCK
  8
0
  2
THERMALP
 70
64
 10
0.0000
 20
0.0000
 30
0.0000
  3
THERMALP
  0
POLYLINE
  8
0
 66
1
 10
0.0000
 20
0.0000
 30
0.0000
 40
0.1000
 41
0.1000
 70
0
  0
VERTEX
  8
0
 10
-0.2379
 20
0.4500
 30
0.0000
  0
VERTEX
  8
0
 10
0.2379
 20
0.4500
 30
0.0000
  0
SEQEND
  8
0
  0
POLYLINE
  8
0
 66
1
 10
0.0000
 20
0.0000
 30
0.0000
 40
0.0500
 41
0.0500
 70
0
  0
VERTEX
  8
0
 10
0.2379
 20
0.4250
 30
0.0000
 42
1.0000
  0
VERTEX
  8
0
 10
0.2379
 20
0.4750
 30
0.0000
  0
SEQEND
  8
0
  0
POLYLINE
  8
0
 66
1
 10
0.0000
 20
0.0000
 30
0.0000
 40
0.0500
 41
0.0500
 70
0
  0
VERTEX
  8
0
 10
-0.2379
 20
0.4750
 30
0.0000
 42
1.0000
  0
VERTEX
  8
0
 10
-0.2379
 20
0.4250
 30
0.0000
  0
SEQEND
  8
0
  0
POLYLINE
  8
0
 66
1
 10
0.0000
 20
0.0000
 30
0.0000
 40
0.1000
 41
0.1000
 70
0
  0
VERTEX
  8
0
 10
0.4500
 20
0.2379
 30
0.0000
  0
VERTEX
  8
0
 10
0.4500
 20
-0.2379
 30
0.0000
  0
SEQEND
  8
0
  0
POLYLINE
  8
0
 66
1
 10
0.0000
 20
0.0000
 30
0.0000
 40
0.0500
 41
0.0500
 70
0
  0
VERTEX
  8
0
 10
0.4250
 20
-0.2379
 30
0.0000
 42
1.0000
  0
VERTEX
  8
0
 10
0.4750
 20
-0.2379
 30
0.0000
  0
SEQEND
  8
0
  0
POLYLINE
  8
0
 66
1
 10
0.0000
 20
0.0000
 30
0.0000
 40
0.0500
 41
0.0500
 70
0
  0
VERTEX
  8
0
 10
0.4750
 20
0.2379
 30
0.0000
 42
1.0000
  0
VERTEX
  8
0
 10
0.4250
 20
0.2379
 30
0.0000
  0
SEQEND
  8
0
  0
POLYLINE
  8
0
 66
1
 10
0.0000
 20
0.0000
 30
0.0000
 40
0.1000
 41
0.1000
 70
0
  0
VERTEX
  8
0
 10
0.2379
 20
-0.4500
 30
0.0000
  0
VERTEX
  8
0
 10
-0.2379
 20
-0.4500
 30
0.0000
  0
SEQEND
  8
0
  0
POLYLINE
  8
0
 66
1
 10
0.0000
 20
0.0000
 30
0.0000
 40
0.0500
 41
0.0500
 70
0
  0
VERTEX
  8
0
 10
-0.2379
 20
-0.4250
 30
0.0000
 42
1.0000
  0
VERTEX
  8
0
 10
-0.2379
 20
-0.4750
 30
0.0000
  0
SEQEND
  8
0
  0
POLYLINE
  8
0
 66
1
 10
0.0000
 20
0.0000
 30
0.0000
 40
0.0500
 41
0.0500
 70
0
  0
VERTEX
  8
0
 10
0.2379
 20
-0.4750
 30
0.0000
 42
1.0000
  0
VERTEX
  8
0
 10
0.2379
 20
-0.4250
 30
0.0000
  0
SEQEND
  8
0
  0
POLYLINE
  8
0
 66
1
 10
0.0000
 20
0.0000
 30
0.0000
 40
0.1000
 41
0.1000
 70
0
  0
VERTEX
  8
0
 10
-0.4500
 20
-0.2379
 30
0.0000
  0
VERTEX
  8
0
 10
-0.4500
 20
0.2379
 30
0.0000
  0
SEQEND
  8
0
  0
POLYLINE
  8
0
 66
1
 10
0.0000
 20
0.0000
 30
0.0000
 40
0.0500
 41
0.0500
 70
0
  0
VERTEX
  8
0
 10
-0.4250
 20
0.2379
 30
0.0000
 42
1.0000
  0
VERTEX
  8
0
 10
-0.4750
 20
0.2379
 30
0.0000
  0
SEQEND
  8
0
  0
POLYLINE
  8
0
 66
1
 10
0.0000
 20
0.0000
 30
0.0000
 40
0.0500
 41
0.0500
 70
0
  0
VERTEX
  8
0
 10
-0.4750
 20
-0.2379
 30
0.0000
 42
1.0000
  0
VERTEX
  8
0
 10
-0.4250
 20
-0.2379
 30
0.0000
  0
SEQEND
  8
0
  0
ENDBLK
  8
0
  0
BLOCK
  8
0
  2
OCTAGONV
 70
64
 10
0.0000
 20
0.0000
 30
0.0000
  3
OCTAGONV
  0
POLYLINE
  8
0
 66
1
 10
0.0000
 20
0.0000
 30
0.0000
 40
0.5000
 41
0.5000
 70
0
  0
VERTEX
  8
0
 10
-0.2500
 20
-0.1036
 30
0.0000
  0
VERTEX
  8
0
 10
-0.2500
 20
0.1036
 30
0.0000
  0
VERTEX
  8
0
 10
-0.1036
 20
0.2500
 30
0.0000
  0
VERTEX
  8
0
 10
0.1036
 20
0.2500
 30
0.0000
  0
VERTEX
  8
0
 10
0.2500
 20
0.1036
 30
0.0000
  0
VERTEX
  8
0
 10
0.2500
 20
-0.1036
 30
0.0000
  0
VERTEX
  8
0
 10
0.1036
 20
-0.2500
 30
0.0000
  0
VERTEX
  8
0
 10
-0.1036
 20
-0.2500
 30
0.0000
  0
VERTEX
  8
0
 10
-0.2500
 20
-0.1036
 30
0.0000
  0
VERTEX
  8
0
 10
-0.2500
 20
0.1036
 30
0.0000
  0
SEQEND
  8
0
  0
ENDBLK
  8
0
  0
BLOCK
  8
0
  2
SQUAREV
 70
64
 10
0.0000
 20
0.0000
 30
0.0000
  3
SQUAREV
  0
SOLID
  8
0
 10
-0.5000
 20
-0.5000
 30
0.0000
 11
0.5000
 21
-0.5000
 31
0.0000
 12
-0.5000
 22
0.5000
 32
0.0000
 13
0.5000
 23
0.5000
 33
0.0000
  0
ENDBLK
  8
0
  0
BLOCK
  8
0
  2
ROUNDV
 70
64
 10
0.0000
 20
0.0000
 30
0.0000
  3
ROUNDV
  0
POLYLINE
  8
0
 66
1
 10
0.0000
 20
0.0000
 30
0.0000
 40
0.5000
 41
0.5000
 70
0
  0
VERTEX
  8
0
 10
0.0000
 20
-0.2500
 30
0.0000
 42
1.0000
  0
VERTEX
  8
0
 10
0.0000
 20
0.2500
 30
0.0000
 42
1.0000
  0
VERTEX
  8
0
 10
0.0000
 20
-0.2500
 30
0.0000
  0
SEQEND
  8
0
  0
ENDBLK
  8
0
  0
BLOCK
  8
0
  2
ANNULUSV
 70
64
 10
0.0000
 20
0.0000
 30
0.0000
  3
ANNULUSV
  0
POLYLINE
  8
0
 66
1
 10
0.0000
 20
0.0000
 30
0.0000
 40
0.5000
 41
0.5000
 70
0
  0
VERTEX
  8
0
 10
0.0000
 20
-0.2500
 30
0.0000
 42
1.0000
  0
VERTEX
  8
0
 10
0.0000
 20
0.2500
 30
0.0000
 42
1.0000
  0
VERTEX
  8
0
 10
0.0000
 20
-0.2500
 30
0.0000
  0
SEQEND
  8
0
  0
ENDBLK
  8
0
  0
BLOCK
  8
0
  2
THERMALV
 70
64
 10
0.0000
 20
0.0000
 30
0.0000
  3
THERMALV
  0
POLYLINE
  8
0
 66
1
 10
0.0000
 20
0.0000
 30
0.0000
 40
0.1000
 41
0.1000
 70
0
  0
VERTEX
  8
0
 10
-0.2379
 20
0.4500
 30
0.0000
  0
VERTEX
  8
0
 10
0.2379
 20
0.4500
 30
0.0000
  0
SEQEND
  8
0
  0
POLYLINE
  8
0
 66
1
 10
0.0000
 20
0.0000
 30
0.0000
 40
0.0500
 41
0.0500
 70
0
  0
VERTEX
  8
0
 10
0.2379
 20
0.4250
 30
0.0000
 42
1.0000
  0
VERTEX
  8
0
 10
0.2379
 20
0.4750
 30
0.0000
  0
SEQEND
  8
0
  0
POLYLINE
  8
0
 66
1
 10
0.0000
 20
0.0000
 30
0.0000
 40
0.0500
 41
0.0500
 70
0
  0
VERTEX
  8
0
 10
-0.2379
 20
0.4750
 30
0.0000
 42
1.0000
  0
VERTEX
  8
0
 10
-0.2379
 20
0.4250
 30
0.0000
  0
SEQEND
  8
0
  0
POLYLINE
  8
0
 66
1
 10
0.0000
 20
0.0000
 30
0.0000
 40
0.1000
 41
0.1000
 70
0
  0
VERTEX
  8
0
 10
0.4500
 20
0.2379
 30
0.0000
  0
VERTEX
  8
0
 10
0.4500
 20
-0.2379
 30
0.0000
  0
SEQEND
  8
0
  0
POLYLINE
  8
0
 66
1
 10
0.0000
 20
0.0000
 30
0.0000
 40
0.0500
 41
0.0500
 70
0
  0
VERTEX
  8
0
 10
0.4250
 20
-0.2379
 30
0.0000
 42
1.0000
  0
VERTEX
  8
0
 10
0.4750
 20
-0.2379
 30
0.0000
  0
SEQEND
  8
0
  0
POLYLINE
  8
0
 66
1
 10
0.0000
 20
0.0000
 30
0.0000
 40
0.0500
 41
0.0500
 70
0
  0
VERTEX
  8
0
 10
0.4750
 20
0.2379
 30
0.0000
 42
1.0000
  0
VERTEX
  8
0
 10
0.4250
 20
0.2379
 30
0.0000
  0
SEQEND
  8
0
  0
POLYLINE
  8
0
 66
1
 10
0.0000
 20
0.0000
 30
0.0000
 40
0.1000
 41
0.1000
 70
0
  0
VERTEX
  8
0
 10
0.2379
 20
-0.4500
 30
0.0000
  0
VERTEX
  8
0
 10
-0.2379
 20
-0.4500
 30
0.0000
  0
SEQEND
  8
0
  0
POLYLINE
  8
0
 66
1
 10
0.0000
 20
0.0000
 30
0.0000
 40
0.0500
 41
0.0500
 70
0
  0
VERTEX
  8
0
 10
-0.2379
 20
-0.4250
 30
0.0000
 42
1.0000
  0
VERTEX
  8
0
 10
-0.2379
 20
-0.4750
 30
0.0000
  0
SEQEND
  8
0
  0
POLYLINE
  8
0
 66
1
 10
0.0000
 20
0.0000
 30
0.0000
 40
0.0500
 41
0.0500
 70
0
  0
VERTEX
  8
0
 10
0.2379
 20
-0.4750
 30
0.0000
 42
1.0000
  0
VERTEX
  8
0
 10
0.2379
 20
-0.4250
 30
0.0000
  0
SEQEND
  8
0
  0
POLYLINE
  8
0
 66
1
 10
0.0000
 20
0.0000
 30
0.0000
 40
0.1000
 41
0.1000
 70
0
  0
VERTEX
  8
0
 10
-0.4500
 20
-0.2379
 30
0.0000
  0
VERTEX
  8
0
 10
-0.4500
 20
0.2379
 30
0.0000
  0
SEQEND
  8
0
  0
POLYLINE
  8
0
 66
1
 10
0.0000
 20
0.0000
 30
0.0000
 40
0.0500
 41
0.0500
 70
0
  0
VERTEX
  8
0
 10
-0.4250
 20
0.2379
 30
0.0000
 42
1.0000
  0
VERTEX
  8
0
 10
-0.4750
 20
0.2379
 30
0.0000
  0
SEQEND
  8
0
  0
POLYLINE
  8
0
 66
1
 10
0.0000
 20
0.0000
 30
0.0000
 40
0.0500
 41
0.0500
 70
0
  0
VERTEX
  8
0
 10
-0.4750
 20
-0.2379
 30
0.0000
 42
1.0000
  0
VERTEX
  8
0
 10
-0.4250
 20
-0.2379
 30
0.0000
  0
SEQEND
  8
0
  0
ENDBLK
  8
0
  0
ENDSEC
  0
SECTION
  2
ENTITIES
  0
POLYLINE
  8
20
 66
1
 10
0.0000
 20
0.0000
 30
0.0000
 40
0.0100
 41
0.0100
 70
0
  0
VERTEX
  8
20
 10
2.0000
 20
0.0000
 30
0.0000
  0
VERTEX
  8
20
 10
34.0000
 20
0.0000
 30
0.0000
  0
SEQEND
  8
0
  0
POLYLINE
  8
20
 66
1
 10
0.0000
 20
0.0000
 30
0.0000
 40
0.0050
 41
0.0050
 70
0
  0
VERTEX
  8
20
 10
34.0000
 20
-0.0025
 30
0.0000
 42
1.0000
  0
VERTEX
  8
20
 10
34.0000
 20
0.0025
 30
0.0000
  0
SEQEND
  8
0
  0
POLYLINE
  8
20
 66
1
 10
0.0000
 20
0.0000
 30
0.0000
 40
0.0050
 41
0.0050
 70
0
  0
VERTEX
  8
20
 10
2.0000
 20
0.0025
 30
0.0000
 42
1.0000
  0
VERTEX
  8
20
 10
2.0000
 20
-0.0025
 30
0.0000
  0
SEQEND
  8
0
  0
POLYLINE
  8
20
 66
1
 10
0.0000
 20
0.0000
 30
0.0000
 40
0.0100
 41
0.0100
 70
0
  0
VERTEX
  8
20
 10
0.0000
 20
2.0000
 30
0.0000
  0
VERTEX
  8
20
 10
0.0000
 20
21.8600
 30
0.0000
  0
SEQEND
  8
0
  0
POLYLINE
  8
20
 66
1
 10
0.0000
 20
0.0000
 30
0.0000
 40
0.0050
 41
0.0050
 70
0
  0
VERTEX
  8
20
 10
0.0025
 20
21.8600
 30
0.0000
 42
1.0000
  0
VERTEX
  8
20
 10
-0.0025
 20
21.8600
 30
0.0000
  0
SEQEND
  8
0
  0
POLYLINE
  8
20
 66
1
 10
0.0000
 20
0.0000
 30
0.0000
 40
0.0050
 41
0.0050
 70
0
  0
VERTEX
  8
20
 10
-0.0025
 20
2.0000
 30
0.0000
 42
1.0000
  0
VERTEX
  8
20
 10
0.0025
 20
2.0000
 30
0.0000
  0
SEQEND
  8
0
  0
POLYLINE
  8
20
 66
1
 10
0.0000
 20
0.0000
 30
0.0000
 40
0.0100
 41
0.0100
 70
0
  0
VERTEX
  8
20
 10
1.0000
 20
22.8600
 30
0.0000
  0
VERTEX
  8
20
 10
34.0000
 20
22.8600
 30
0.0000
  0
SEQEND
  8
0
  0
POLYLINE
  8
20
 66
1
 10
0.0000
 20
0.0000
 30
0.0000
 40
0.0050
 41
0.0050
 70
0
  0
VERTEX
  8
20
 10
34.0000
 20
22.8575
 30
0.0000
 42
1.0000
  0
VERTEX
  8
20
 10
34.0000
 20
22.8625
 30
0.0000
  0
SEQEND
  8
0
  0
POLYLINE
  8
20
 66
1
 10
0.0000
 20
0.0000
 30
0.0000
 40
0.0050
 41
0.0050
 70
0
  0
VERTEX
  8
20
 10
1.0000
 20
22.8625
 30
0.0000
 42
1.0000
  0
VERTEX
  8
20
 10
1.0000
 20
22.8575
 30
0.0000
  0
SEQEND
  8
0
  0
POLYLINE
  8
20
 66
1
 10
0.0000
 20
0.0000
 30
0.0000
 40
0.0100
 41
0.0100
 70
0
  0
VERTEX
  8
20
 10
35.0000
 20
21.8600
 30
0.0000
  0
VERTEX
  8
20
 10
35.0000
 20
1.0000
 30
0.0000
  0
SEQEND
  8
0
  0
POLYLINE
  8
20
 66
1
 10
0.0000
 20
0.0000
 30
0.0000
 40
0.0050
 41
0.0050
 70
0
  0
VERTEX
  8
20
 10
34.9975
 20
1.0000
 30
0.0000
 42
1.0000
  0
VERTEX
  8
20
 10
35.0025
 20
1.0000
 30
0.0000
  0
SEQEND
  8
0
  0
POLYLINE
  8
20
 66
1
 10
0.0000
 20
0.0000
 30
0.0000
 40
0.0050
 41
0.0050
 70
0
  0
VERTEX
  8
20
 10
35.0025
 20
21.8600
 30
0.0000
 42
1.0000
  0
VERTEX
  8
20
 10
34.9975
 20
21.8600
 30
0.0000
  0
SEQEND
  8
0
  0
POLYLINE
  8
20
 66
1
 10
0.0000
 20
0.0000
 30
0.0000
 40
0.0100
 41
0.0100
 70
0
  0
VERTEX
  8
20
 10
34.0000
 20
0.0000
 30
0.0000
 42
0.4142
  0
VERTEX
  8
20
 10
35.0000
 20
1.0000
 30
0.0000
  0
SEQEND
  8
0
  0
POLYLINE
  8
20
 66
1
 10
0.0000
 20
0.0000
 30
0.0000
 40
0.0050
 41
0.0050
 70
0
  0
VERTEX
  8
20
 10
34.0000
 20
0.0025
 30
0.0000
 42
1.0000
  0
VERTEX
  8
20
 10
34.0000
 20
-0.0025
 30
0.0000
  0
SEQEND
  8
0
  0
POLYLINE
  8
20
 66
1
 10
0.0000
 20
0.0000
 30
0.0000
 40
0.0050
 41
0.0050
 70
0
  0
VERTEX
  8
20
 10
35.0025
 20
1.0000
 30
0.0000
 42
1.0000
  0
VERTEX
  8
20
 10
34.9975
 20
1.0000
 30
0.0000
  0
SEQEND
  8
0
  0
POLYLINE
  8
20
 66
1
 10
0.0000
 20
0.0000
 30
0.0000
 40
0.0100
 41
0.0100
 70
0
  0
VERTEX
  8
20
 10
35.0000
 20
21.8600
 30
0.0000
 42
0.4142
  0
VERTEX
  8
20
 10
34.0000
 20
22.8600
 30
0.0000
  0
SEQEND
  8
0
  0
POLYLINE
  8
20
 66
1
 10
0.0000
 20
0.0000
 30
0.0000
 40
0.0050
 41
0.0050
 70
0
  0
VERTEX
  8
20
 10
34.9975
 20
21.8600
 30
0.0000
 42
1.0000
  0
VERTEX
  8
20
 10
35.0025
 20
21.8600
 30
0.0000
  0
SEQEND
  8
0
  0
POLYLINE
  8
20
 66
1
 10
0.0000
 20
0.0000
 30
0.0000
 40
0.0050
 41
0.0050
 70
0
  0
VERTEX
  8
20
 10
34.0000
 20
22.8625
 30
0.0000
 42
1.0000
  0
VERTEX
  8
20
 10
34.0000
 20
22.8575
 30
0.0000
  0
SEQEND
  8
0
  0
POLYLINE
  8
20
 66
1
 10
0.0000
 20
0.0000
 30
0.0000
 40
0.0100
 41
0.0100
 70
0
  0
VERTEX
  8
20
 10
1.0000
 20
22.8600
 30
0.0000
 42
0.4142
  0
VERTEX
  8
20
 10
0.0000
 20
21.8600
 30
0.0000
  0
SEQEND
  8
0
  0
POLYLINE
  8
20
 66
1
 10
0.0000
 20
0.0000
 30
0.0000
 40
0.0050
 41
0.0050
 70
0
  0
VERTEX
  8
20
 10
1.0000
 20
22.8575
 30
0.0000
 42
1.0000
  0
VERTEX
  8
20
 10
1.0000
 20
22.8625
 30
0.0000
  0
SEQEND
  8
0
  0
POLYLINE
  8
20
 66
1
 10
0.0000
 20
0.0000
 30
0.0000
 40
0.0050
 41
0.0050
 70
0
  0
VERTEX
  8
20
 10
-0.0025
 20
21.8600
 30
0.0000
 42
1.0000
  0
VERTEX
  8
20
 10
0.0025
 20
21.8600
 30
0.0000
  0
SEQEND
  8
0
  0
POLYLINE
  8
29
 66
1
 10
0.0000
 20
0.0000
 30
0.0000
 40
1.0000
 41
1.0000
 70
0
  0
VERTEX
  8
29
 10
34.0000
 20
19.5000
 30
0.0000
  0
VERTEX
  8
29
 10
34.0000
 20
3.3600
 30
0.0000
  0
SEQEND
  8
0
  0
POLYLINE
  8
29
 66
1
 10
0.0000
 20
0.0000
 30
0.0000
 40
0.5000
 41
0.5000
 70
0
  0
VERTEX
  8
29
 10
33.7500
 20
3.3600
 30
0.0000
 42
1.0000
  0
VERTEX
  8
29
 10
34.2500
 20
3.3600
 30
0.0000
  0
SEQEND
  8
0
  0
POLYLINE
  8
29
 66
1
 10
0.0000
 20
0.0000
 30
0.0000
 40
0.5000
 41
0.5000
 70
0
  0
VERTEX
  8
29
 10
34.2500
 20
19.5000
 30
0.0000
 42
1.0000
  0
VERTEX
  8
29
 10
33.7500
 20
19.5000
 30
0.0000
  0
SEQEND
  8
0
  0
POLYLINE
  8
29
 66
1
 10
0.0000
 20
0.0000
 30
0.0000
 40
1.0000
 41
1.0000
 70
0
  0
VERTEX
  8
29
 10
1.0000
 20
3.3600
 30
0.0000
  0
VERTEX
  8
29
 10
1.0000
 20
19.5000
 30
0.0000
  0
SEQEND
  8
0
  0
POLYLINE
  8
29
 66
1
 10
0.0000
 20
0.0000
 30
0.0000
 40
0.5000
 41
0.5000
 70
0
  0
VERTEX
  8
29
 10
1.2500
 20
19.5000
 30
0.0000
 42
1.0000
  0
VERTEX
  8
29
 10
0.7500
 20
19.5000
 30
0.0000
  0
SEQEND
  8
0
  0
POLYLINE
  8
29
 66
1
 10
0.0000
 20
0.0000
 30
0.0000
 40
0.5000
 41
0.5000
 70
0
  0
VERTEX
  8
29
 10
0.7500
 20
3.3600
 30
0.0000
 42
1.0000
  0
VERTEX
  8
29
 10
1.2500
 20
3.3600
 30
0.0000
  0
SEQEND
  8
0
  0
POLYLINE
  8
20
 66
1
 10
0.0000
 20
0.0000
 30
0.0000
 40
0.0100
 41
0.0100
 70
0
  0
VERTEX
  8
20
 10
0.0000
 20
2.0000
 30
0.0000
  0
VERTEX
  8
20
 10
2.0000
 20
0.0000
 30
0.0000
  0
SEQEND
  8
0
  0
POLYLINE
  8
20
 66
1
 10
0.0000
 20
0.0000
 30
0.0000
 40
0.0050
 41
0.0050
 70
0
  0
VERTEX
  8
20
 10
1.9982
 20
-0.0018
 30
0.0000
 42
1.0000
  0
VERTEX
  8
20
 10
2.0018
 20
0.0018
 30
0.0000
  0
SEQEND
  8
0
  0
POLYLINE
  8
20
 66
1
 10
0.0000
 20
0.0000
 30
0.0000
 40
0.0050
 41
0.0050
 70
0
  0
VERTEX
  8
20
 10
0.0018
 20
2.0018
 30
0.0000
 42
1.0000
  0
VERTEX
  8
20
 10
-0.0018
 20
1.9982
 30
0.0000
  0
SEQEND
  8
0
  0
POLYLINE
  8
29
 66
1
 10
0.0000
 20
0.0000
 30
0.0000
 40
1.0160
 41
1.0160
 70
0
  0
VERTEX
  8
29
 10
1.0000
 20
3.3600
 30
0.0000
  0
VERTEX
  8
29
 10
3.1750
 20
3.3600
 30
0.0000
  0
SEQEND
  8
0
  0
POLYLINE
  8
29
 66
1
 10
0.0000
 20
0.0000
 30
0.0000
 40
0.5080
 41
0.5080
 70
0
  0
VERTEX
  8
29
 10
3.1750
 20
3.1060
 30
0.0000
 42
1.0000
  0
VERTEX
  8
29
 10
3.1750
 20
3.6140
 30
0.0000
  0
SEQEND
  8
0
  0
POLYLINE
  8
29
 66
1
 10
0.0000
 20
0.0000
 30
0.0000
 40
0.5080
 41
0.5080
 70
0
  0
VERTEX
  8
29
 10
1.0000
 20
3.6140
 30
0.0000
 42
1.0000
  0
VERTEX
  8
29
 10
1.0000
 20
3.1060
 30
0.0000
  0
SEQEND
  8
0
  0
POLYLINE
  8
29
 66
1
 10
0.0000
 20
0.0000
 30
0.0000
 40
1.0160
 41
1.0160
 70
0
  0
VERTEX
  8
29
 10
11.1760
 20
3.3600
 30
0.0000
  0
VERTEX
  8
29
 10
11.9380
 20
3.3600
 30
0.0000
  0
SEQEND
  8
0
  0
POLYLINE
  8
29
 66
1
 10
0.0000
 20
0.0000
 30
0.0000
 40
0.5080
 41
0.5080
 70
0
  0
VERTEX
  8
29
 10
11.9380
 20
3.1060
 30
0.0000
 42
1.0000
  0
VERTEX
  8
29
 10
11.9380
 20
3.6140
 30
0.0000
  0
SEQEND
  8
0
  0
POLYLINE
  8
29
 66
1
 10
0.0000
 20
0.0000
 30
0.0000
 40
0.5080
 41
0.5080
 70
0
  0
VERTEX
  8
29
 10
11.1760
 20
3.6140
 30
0.0000
 42
1.0000
  0
VERTEX
  8
29
 10
11.1760
 20
3.1060
 30
0.0000
  0
SEQEND
  8
0
  0
POLYLINE
  8
29
 66
1
 10
0.0000
 20
0.0000
 30
0.0000
 40
1.0160
 41
1.0160
 70
0
  0
VERTEX
  8
29
 10
19.5580
 20
3.3600
 30
0.0000
  0
VERTEX
  8
29
 10
28.0924
 20
3.3600
 30
0.0000
  0
SEQEND
  8
0
  0
POLYLINE
  8
29
 66
1
 10
0.0000
 20
0.0000
 30
0.0000
 40
0.5080
 41
0.5080
 70
0
  0
VERTEX
  8
29
 10
28.0924
 20
3.1060
 30
0.0000
 42
1.0000
  0
VERTEX
  8
29
 10
28.0924
 20
3.6140
 30
0.0000
  0
SEQEND
  8
0
  0
POLYLINE
  8
29
 66
1
 10
0.0000
 20
0.0000
 30
0.0000
 40
0.5080
 41
0.5080
 70
0
  0
VERTEX
  8
29
 10
19.5580
 20
3.6140
 30
0.0000
 42
1.0000
  0
VERTEX
  8
29
 10
19.5580
 20
3.1060
 30
0.0000
  0
SEQEND
  8
0
  0
POLYLINE
  8
29
 66
1
 10
0.0000
 20
0.0000
 30
0.0000
 40
1.0000
 41
1.0000
 70
0
  0
VERTEX
  8
29
 10
1.0000
 20
19.5000
 30
0.0000
  0
VERTEX
  8
29
 10
12.6492
 20
19.5000
 30
0.0000
  0
SEQEND
  8
0
  0
POLYLINE
  8
29
 66
1
 10
0.0000
 20
0.0000
 30
0.0000
 40
0.5000
 41
0.5000
 70
0
  0
VERTEX
  8
29
 10
12.6492
 20
19.2500
 30
0.0000
 42
1.0000
  0
VERTEX
  8
29
 10
12.6492
 20
19.7500
 30
0.0000
  0
SEQEND
  8
0
  0
POLYLINE
  8
29
 66
1
 10
0.0000
 20
0.0000
 30
0.0000
 40
0.5000
 41
0.5000
 70
0
  0
VERTEX
  8
29
 10
1.0000
 20
19.7500
 30
0.0000
 42
1.0000
  0
VERTEX
  8
29
 10
1.0000
 20
19.2500
 30
0.0000
  0
SEQEND
  8
0
  0
POLYLINE
  8
29
 66
1
 10
0.0000
 20
0.0000
 30
0.0000
 40
1.0000
 41
1.0000
 70
0
  0
VERTEX
  8
29
 10
26.6700
 20
19.5000
 30
0.0000
  0
VERTEX
  8
29
 10
33.9598
 20
19.5000
 30
0.0000
  0
SEQEND
  8
0
  0
POLYLINE
  8
29
 66
1
 10
0.0000
 20
0.0000
 30
0.0000
 40
0.5000
 41
0.5000
 70
0
  0
VERTEX
  8
29
 10
33.9598
 20
19.2500
 30
0.0000
 42
1.0000
  0
VERTEX
  8
29
 10
33.9598
 20
19.7500
 30
0.0000
  0
SEQEND
  8
0
  0
POLYLINE
  8
29
 66
1
 10
0.0000
 20
0.0000
 30
0.0000
 40
0.5000
 41
0.5000
 70
0
  0
VERTEX
  8
29
 10
26.6700
 20
19.7500
 30
0.0000
 42
1.0000
  0
VERTEX
  8
29
 10
26.6700
 20
19.2500
 30
0.0000
  0
SEQEND
  8
0
  0
POLYLINE
  8
21
 66
1
 10
0.0000
 20
0.0000
 30
0.0000
 40
0.1016
 41
0.1016
 70
0
  0
VERTEX
  8
21
 10
2.1336
 20
1.8486
 30
0.0000
  0
VERTEX
  8
21
 10
2.4582
 20
2.1082
 30
0.0000
  0
SEQEND
  8
0
  0
POLYLINE
  8
21
 66
1
 10
0.0000
 20
0.0000
 30
0.0000
 40
0.0508
 41
0.0508
 70
0
  0
VERTEX
  8
21
 10
2.4740
 20
2.0884
 30
0.0000
 42
1.0000
  0
VERTEX
  8
21
 10
2.4423
 20
2.1280
 30
0.0000
  0
SEQEND
  8
0
  0
POLYLINE
  8
21
 66
1
 10
0.0000
 20
0.0000
 30
0.0000
 40
0.0508
 41
0.0508
 70
0
  0
VERTEX
  8
21
 10
2.1177
 20
1.8684
 30
0.0000
 42
1.0000
  0
VERTEX
  8
21
 10
2.1495
 20
1.8287
 30
0.0000
  0
SEQEND
  8
0
  0
POLYLINE
  8
21
 66
1
 10
0.0000
 20
0.0000
 30
0.0000
 40
0.1016
 41
0.1016
 70
0
  0
VERTEX
  8
21
 10
2.4582
 20
2.1082
 30
0.0000
  0
VERTEX
  8
21
 10
2.4582
 20
0.9398
 30
0.0000
  0
SEQEND
  8
0
  0
POLYLINE
  8
21
 66
1
 10
0.0000
 20
0.0000
 30
0.0000
 40
0.0508
 41
0.0508
 70
0
  0
VERTEX
  8
21
 10
2.4328
 20
0.9398
 30
0.0000
 42
1.0000
  0
VERTEX
  8
21
 10
2.4836
 20
0.9398
 30
0.0000
  0
SEQEND
  8
0
  0
POLYLINE
  8
21
 66
1
 10
0.0000
 20
0.0000
 30
0.0000
 40
0.0508
 41
0.0508
 70
0
  0
VERTEX
  8
21
 10
2.4836
 20
2.1082
 30
0.0000
 42
1.0000
  0
VERTEX
  8
21
 10
2.4328
 20
2.1082
 30
0.0000
  0
SEQEND
  8
0
  0
POLYLINE
  8
21
 66
1
 10
0.0000
 20
0.0000
 30
0.0000
 40
0.1016
 41
0.1016
 70
0
  0
VERTEX
  8
21
 10
2.1336
 20
0.9398
 30
0.0000
  0
VERTEX
  8
21
 10
2.7827
 20
0.9398
 30
0.0000
  0
SEQEND
  8
0
  0
POLYLINE
  8
21
 66
1
 10
0.0000
 20
0.0000
 30
0.0000
 40
0.0508
 41
0.0508
 70
0
  0
VERTEX
  8
21
 10
2.7827
 20
0.9144
 30
0.0000
 42
1.0000
  0
VERTEX
  8
21
 10
2.7827
 20
0.9652
 30
0.0000
  0
SEQEND
  8
0
  0
POLYLINE
  8
21
 66
1
 10
0.0000
 20
0.0000
 30
0.0000
 40
0.0508
 41
0.0508
 70
0
  0
VERTEX
  8
21
 10
2.1336
 20
0.9652
 30
0.0000
 42
1.0000
  0
VERTEX
  8
21
 10
2.1336
 20
0.9144
 30
0.0000
  0
SEQEND
  8
0
  0
POLYLINE
  8
21
 66
1
 10
0.0000
 20
0.0000
 30
0.0000
 40
0.1300
 41
0.1300
 70
0
  0
VERTEX
  8
21
 10
1.0000
 20
12.0000
 30
0.0000
  0
VERTEX
  8
21
 10
1.0000
 20
28.4500
 30
0.0000
  0
SEQEND
  8
0
  0
POLYLINE
  8
21
 66
1
 10
0.0000
 20
0.0000
 30
0.0000
 40
0.0650
 41
0.0650
 70
0
  0
VERTEX
  8
21
 10
1.0325
 20
28.4500
 30
0.0000
 42
1.0000
  0
VERTEX
  8
21
 10
0.9675
 20
28.4500
 30
0.0000
  0
SEQEND
  8
0
  0
POLYLINE
  8
21
 66
1
 10
0.0000
 20
0.0000
 30
0.0000
 40
0.0650
 41
0.0650
 70
0
  0
VERTEX
  8
21
 10
0.9675
 20
12.0000
 30
0.0000
 42
1.0000
  0
VERTEX
  8
21
 10
1.0325
 20
12.0000
 30
0.0000
  0
SEQEND
  8
0
  0
POLYLINE
  8
21
 66
1
 10
0.0000
 20
0.0000
 30
0.0000
 40
0.1300
 41
0.1300
 70
0
  0
VERTEX
  8
21
 10
34.0000
 20
12.0000
 30
0.0000
  0
VERTEX
  8
21
 10
34.0000
 20
28.4500
 30
0.0000
  0
SEQEND
  8
0
  0
POLYLINE
  8
21
 66
1
 10
0.0000
 20
0.0000
 30
0.0000
 40
0.0650
 41
0.0650
 70
0
  0
VERTEX
  8
21
 10
34.0325
 20
28.4500
 30
0.0000
 42
1.0000
  0
VERTEX
  8
21
 10
33.9675
 20
28.4500
 30
0.0000
  0
SEQEND
  8
0
  0
POLYLINE
  8
21
 66
1
 10
0.0000
 20
0.0000
 30
0.0000
 40
0.0650
 41
0.0650
 70
0
  0
VERTEX
  8
21
 10
33.9675
 20
12.0000
 30
0.0000
 42
1.0000
  0
VERTEX
  8
21
 10
34.0325
 20
12.0000
 30
0.0000
  0
SEQEND
  8
0
  0
POLYLINE
  8
21
 66
1
 10
0.0000
 20
0.0000
 30
0.0000
 40
0.1300
 41
0.1300
 70
0
  0
VERTEX
  8
21
 10
1.0650
 20
26.5000
 30
0.0000
  0
VERTEX
  8
21
 10
33.9350
 20
26.5000
 30
0.0000
  0
SEQEND
  8
0
  0
POLYLINE
  8
21
 66
1
 10
0.0000
 20
0.0000
 30
0.0000
 40
0.0650
 41
0.0650
 70
0
  0
VERTEX
  8
21
 10
33.9350
 20
26.4675
 30
0.0000
 42
1.0000
  0
VERTEX
  8
21
 10
33.9350
 20
26.5325
 30
0.0000
  0
SEQEND
  8
0
  0
POLYLINE
  8
21
 66
1
 10
0.0000
 20
0.0000
 30
0.0000
 40
0.0650
 41
0.0650
 70
0
  0
VERTEX
  8
21
 10
1.0650
 20
26.5325
 30
0.0000
 42
1.0000
  0
VERTEX
  8
21
 10
1.0650
 20
26.4675
 30
0.0000
  0
SEQEND
  8
0
  0
POLYLINE
  8
21
 66
1
 10
0.0000
 20
0.0000
 30
0.0000
 40
0.1300
 41
0.1300
 70
0
  0
VERTEX
  8
21
 10
1.0650
 20
26.5000
 30
0.0000
  0
VERTEX
  8
21
 10
3.6000
 20
26.8192
 30
0.0000
  0
SEQEND
  8
0
  0
POLYLINE
  8
21
 66
1
 10
0.0000
 20
0.0000
 30
0.0000
 40
0.0650
 41
0.0650
 70
0
  0
VERTEX
  8
21
 10
3.6041
 20
26.7870
 30
0.0000
 42
1.0000
  0
VERTEX
  8
21
 10
3.5959
 20
26.8515
 30
0.0000
  0
SEQEND
  8
0
  0
POLYLINE
  8
21
 66
1
 10
0.0000
 20
0.0000
 30
0.0000
 40
0.0650
 41
0.0650
 70
0
  0
VERTEX
  8
21
 10
1.0609
 20
26.5322
 30
0.0000
 42
1.0000
  0
VERTEX
  8
21
 10
1.0691
 20
26.4678
 30
0.0000
  0
SEQEND
  8
0
  0
POLYLINE
  8
21
 66
1
 10
0.0000
 20
0.0000
 30
0.0000
 40
0.1300
 41
0.1300
 70
0
  0
VERTEX
  8
21
 10
3.6000
 20
26.8192
 30
0.0000
  0
VERTEX
  8
21
 10
3.6000
 20
26.1808
 30
0.0000
  0
SEQEND
  8
0
  0
POLYLINE
  8
21
 66
1
 10
0.0000
 20
0.0000
 30
0.0000
 40
0.0650
 41
0.0650
 70
0
  0
VERTEX
  8
21
 10
3.5675
 20
26.1808
 30
0.0000
 42
1.0000
  0
VERTEX
  8
21
 10
3.6325
 20
26.1808
 30
0.0000
  0
SEQEND
  8
0
  0
POLYLINE
  8
21
 66
1
 10
0.0000
 20
0.0000
 30
0.0000
 40
0.0650
 41
0.0650
 70
0
  0
VERTEX
  8
21
 10
3.6325
 20
26.8192
 30
0.0000
 42
1.0000
  0
VERTEX
  8
21
 10
3.5675
 20
26.8192
 30
0.0000
  0
SEQEND
  8
0
  0
POLYLINE
  8
21
 66
1
 10
0.0000
 20
0.0000
 30
0.0000
 40
0.1300
 41
0.1300
 70
0
  0
VERTEX
  8
21
 10
3.6000
 20
26.1808
 30
0.0000
  0
VERTEX
  8
21
 10
1.0650
 20
26.5000
 30
0.0000
  0
SEQEND
  8
0
  0
POLYLINE
  8
21
 66
1
 10
0.0000
 20
0.0000
 30
0.0000
 40
0.0650
 41
0.0650
 70
0
  0
VERTEX
  8
21
 10
1.0691
 20
26.5322
 30
0.0000
 42
1.0000
  0
VERTEX
  8
21
 10
1.0609
 20
26.4678
 30
0.0000
  0
SEQEND
  8
0
  0
POLYLINE
  8
21
 66
1
 10
0.0000
 20
0.0000
 30
0.0000
 40
0.0650
 41
0.0650
 70
0
  0
VERTEX
  8
21
 10
3.5959
 20
26.1485
 30
0.0000
 42
1.0000
  0
VERTEX
  8
21
 10
3.6041
 20
26.2130
 30
0.0000
  0
SEQEND
  8
0
  0
POLYLINE
  8
21
 66
1
 10
0.0000
 20
0.0000
 30
0.0000
 40
0.1300
 41
0.1300
 70
0
  0
VERTEX
  8
21
 10
1.0650
 20
26.5000
 30
0.0000
  0
VERTEX
  8
21
 10
3.6000
 20
26.6300
 30
0.0000
  0
SEQEND
  8
0
  0
POLYLINE
  8
21
 66
1
 10
0.0000
 20
0.0000
 30
0.0000
 40
0.0650
 41
0.0650
 70
0
  0
VERTEX
  8
21
 10
3.6017
 20
26.5975
 30
0.0000
 42
1.0000
  0
VERTEX
  8
21
 10
3.5983
 20
26.6625
 30
0.0000
  0
SEQEND
  8
0
  0
POLYLINE
  8
21
 66
1
 10
0.0000
 20
0.0000
 30
0.0000
 40
0.0650
 41
0.0650
 70
0
  0
VERTEX
  8
21
 10
1.0633
 20
26.5325
 30
0.0000
 42
1.0000
  0
VERTEX
  8
21
 10
1.0667
 20
26.4675
 30
0.0000
  0
SEQEND
  8
0
  0
POLYLINE
  8
21
 66
1
 10
0.0000
 20
0.0000
 30
0.0000
 40
0.1300
 41
0.1300
 70
0
  0
VERTEX
  8
21
 10
3.6000
 20
26.3700
 30
0.0000
  0
VERTEX
  8
21
 10
1.0650
 20
26.5000
 30
0.0000
  0
SEQEND
  8
0
  0
POLYLINE
  8
21
 66
1
 10
0.0000
 20
0.0000
 30
0.0000
 40
0.0650
 41
0.0650
 70
0
  0
VERTEX
  8
21
 10
1.0667
 20
26.5325
 30
0.0000
 42
1.0000
  0
VERTEX
  8
21
 10
1.0633
 20
26.4675
 30
0.0000
  0
SEQEND
  8
0
  0
POLYLINE
  8
21
 66
1
 10
0.0000
 20
0.0000
 30
0.0000
 40
0.0650
 41
0.0650
 70
0
  0
VERTEX
  8
21
 10
3.5983
 20
26.3375
 30
0.0000
 42
1.0000
  0
VERTEX
  8
21
 10
3.6017
 20
26.4025
 30
0.0000
  0
SEQEND
  8
0
  0
POLYLINE
  8
21
 66
1
 10
0.0000
 20
0.0000
 30
0.0000
 40
0.1300
 41
0.1300
 70
0
  0
VERTEX
  8
21
 10
1.0650
 20
26.5000
 30
0.0000
  0
VERTEX
  8
21
 10
3.6000
 20
26.7600
 30
0.0000
  0
SEQEND
  8
0
  0
POLYLINE
  8
21
 66
1
 10
0.0000
 20
0.0000
 30
0.0000
 40
0.0650
 41
0.0650
 70
0
  0
VERTEX
  8
21
 10
3.6033
 20
26.7277
 30
0.0000
 42
1.0000
  0
VERTEX
  8
21
 10
3.5967
 20
26.7923
 30
0.0000
  0
SEQEND
  8
0
  0
POLYLINE
  8
21
 66
1
 10
0.0000
 20
0.0000
 30
0.0000
 40
0.0650
 41
0.0650
 70
0
  0
VERTEX
  8
21
 10
1.0617
 20
26.5323
 30
0.0000
 42
1.0000
  0
VERTEX
  8
21
 10
1.0683
 20
26.4677
 30
0.0000
  0
SEQEND
  8
0
  0
POLYLINE
  8
21
 66
1
 10
0.0000
 20
0.0000
 30
0.0000
 40
0.1300
 41
0.1300
 70
0
  0
VERTEX
  8
21
 10
3.6000
 20
26.2400
 30
0.0000
  0
VERTEX
  8
21
 10
1.0650
 20
26.5000
 30
0.0000
  0
SEQEND
  8
0
  0
POLYLINE
  8
21
 66
1
 10
0.0000
 20
0.0000
 30
0.0000
 40
0.0650
 41
0.0650
 70
0
  0
VERTEX
  8
21
 10
1.0683
 20
26.5323
 30
0.0000
 42
1.0000
  0
VERTEX
  8
21
 10
1.0617
 20
26.4677
 30
0.0000
  0
SEQEND
  8
0
  0
POLYLINE
  8
21
 66
1
 10
0.0000
 20
0.0000
 30
0.0000
 40
0.0650
 41
0.0650
 70
0
  0
VERTEX
  8
21
 10
3.5967
 20
26.2077
 30
0.0000
 42
1.0000
  0
VERTEX
  8
21
 10
3.6033
 20
26.2723
 30
0.0000
  0
SEQEND
  8
0
  0
POLYLINE
  8
21
 66
1
 10
0.0000
 20
0.0000
 30
0.0000
 40
0.1300
 41
0.1300
 70
0
  0
VERTEX
  8
21
 10
33.9350
 20
26.5000
 30
0.0000
  0
VERTEX
  8
21
 10
31.4000
 20
26.8192
 30
0.0000
  0
SEQEND
  8
0
  0
POLYLINE
  8
21
 66
1
 10
0.0000
 20
0.0000
 30
0.0000
 40
0.0650
 41
0.0650
 70
0
  0
VERTEX
  8
21
 10
31.4041
 20
26.8515
 30
0.0000
 42
1.0000
  0
VERTEX
  8
21
 10
31.3959
 20
26.7870
 30
0.0000
  0
SEQEND
  8
0
  0
POLYLINE
  8
21
 66
1
 10
0.0000
 20
0.0000
 30
0.0000
 40
0.0650
 41
0.0650
 70
0
  0
VERTEX
  8
21
 10
33.9309
 20
26.4678
 30
0.0000
 42
1.0000
  0
VERTEX
  8
21
 10
33.9391
 20
26.5322
 30
0.0000
  0
SEQEND
  8
0
  0
POLYLINE
  8
21
 66
1
 10
0.0000
 20
0.0000
 30
0.0000
 40
0.1300
 41
0.1300
 70
0
  0
VERTEX
  8
21
 10
31.4000
 20
26.8192
 30
0.0000
  0
VERTEX
  8
21
 10
31.4000
 20
26.1808
 30
0.0000
  0
SEQEND
  8
0
  0
POLYLINE
  8
21
 66
1
 10
0.0000
 20
0.0000
 30
0.0000
 40
0.0650
 41
0.0650
 70
0
  0
VERTEX
  8
21
 10
31.3675
 20
26.1808
 30
0.0000
 42
1.0000
  0
VERTEX
  8
21
 10
31.4325
 20
26.1808
 30
0.0000
  0
SEQEND
  8
0
  0
POLYLINE
  8
21
 66
1
 10
0.0000
 20
0.0000
 30
0.0000
 40
0.0650
 41
0.0650
 70
0
  0
VERTEX
  8
21
 10
31.4325
 20
26.8192
 30
0.0000
 42
1.0000
  0
VERTEX
  8
21
 10
31.3675
 20
26.8192
 30
0.0000
  0
SEQEND
  8
0
  0
POLYLINE
  8
21
 66
1
 10
0.0000
 20
0.0000
 30
0.0000
 40
0.1300
 41
0.1300
 70
0
  0
VERTEX
  8
21
 10
31.4000
 20
26.1808
 30
0.0000
  0
VERTEX
  8
21
 10
33.9350
 20
26.5000
 30
0.0000
  0
SEQEND
  8
0
  0
POLYLINE
  8
21
 66
1
 10
0.0000
 20
0.0000
 30
0.0000
 40
0.0650
 41
0.0650
 70
0
  0
VERTEX
  8
21
 10
33.9391
 20
26.4678
 30
0.0000
 42
1.0000
  0
VERTEX
  8
21
 10
33.9309
 20
26.5322
 30
0.0000
  0
SEQEND
  8
0
  0
POLYLINE
  8
21
 66
1
 10
0.0000
 20
0.0000
 30
0.0000
 40
0.0650
 41
0.0650
 70
0
  0
VERTEX
  8
21
 10
31.3959
 20
26.2130
 30
0.0000
 42
1.0000
  0
VERTEX
  8
21
 10
31.4041
 20
26.1485
 30
0.0000
  0
SEQEND
  8
0
  0
POLYLINE
  8
21
 66
1
 10
0.0000
 20
0.0000
 30
0.0000
 40
0.1300
 41
0.1300
 70
0
  0
VERTEX
  8
21
 10
33.9350
 20
26.5000
 30
0.0000
  0
VERTEX
  8
21
 10
31.4000
 20
26.6300
 30
0.0000
  0
SEQEND
  8
0
  0
POLYLINE
  8
21
 66
1
 10
0.0000
 20
0.0000
 30
0.0000
 40
0.0650
 41
0.0650
 70
0
  0
VERTEX
  8
21
 10
31.4017
 20
26.6625
 30
0.0000
 42
1.0000
  0
VERTEX
  8
21
 10
31.3983
 20
26.5975
 30
0.0000
  0
SEQEND
  8
0
  0
POLYLINE
  8
21
 66
1
 10
0.0000
 20
0.0000
 30
0.0000
 40
0.0650
 41
0.0650
 70
0
  0
VERTEX
  8
21
 10
33.9333
 20
26.4675
 30
0.0000
 42
1.0000
  0
VERTEX
  8
21
 10
33.9367
 20
26.5325
 30
0.0000
  0
SEQEND
  8
0
  0
POLYLINE
  8
21
 66
1
 10
0.0000
 20
0.0000
 30
0.0000
 40
0.1300
 41
0.1300
 70
0
  0
VERTEX
  8
21
 10
31.4000
 20
26.3700
 30
0.0000
  0
VERTEX
  8
21
 10
33.9350
 20
26.5000
 30
0.0000
  0
SEQEND
  8
0
  0
POLYLINE
  8
21
 66
1
 10
0.0000
 20
0.0000
 30
0.0000
 40
0.0650
 41
0.0650
 70
0
  0
VERTEX
  8
21
 10
33.9367
 20
26.4675
 30
0.0000
 42
1.0000
  0
VERTEX
  8
21
 10
33.9333
 20
26.5325
 30
0.0000
  0
SEQEND
  8
0
  0
POLYLINE
  8
21
 66
1
 10
0.0000
 20
0.0000
 30
0.0000
 40
0.0650
 41
0.0650
 70
0
  0
VERTEX
  8
21
 10
31.3983
 20
26.4025
 30
0.0000
 42
1.0000
  0
VERTEX
  8
21
 10
31.4017
 20
26.3375
 30
0.0000
  0
SEQEND
  8
0
  0
POLYLINE
  8
21
 66
1
 10
0.0000
 20
0.0000
 30
0.0000
 40
0.1300
 41
0.1300
 70
0
  0
VERTEX
  8
21
 10
33.9350
 20
26.5000
 30
0.0000
  0
VERTEX
  8
21
 10
31.4000
 20
26.7600
 30
0.0000
  0
SEQEND
  8
0
  0
POLYLINE
  8
21
 66
1
 10
0.0000
 20
0.0000
 30
0.0000
 40
0.0650
 41
0.0650
 70
0
  0
VERTEX
  8
21
 10
31.4033
 20
26.7923
 30
0.0000
 42
1.0000
  0
VERTEX
  8
21
 10
31.3967
 20
26.7277
 30
0.0000
  0
SEQEND
  8
0
  0
POLYLINE
  8
21
 66
1
 10
0.0000
 20
0.0000
 30
0.0000
 40
0.0650
 41
0.0650
 70
0
  0
VERTEX
  8
21
 10
33.9317
 20
26.4677
 30
0.0000
 42
1.0000
  0
VERTEX
  8
21
 10
33.9383
 20
26.5323
 30
0.0000
  0
SEQEND
  8
0
  0
POLYLINE
  8
21
 66
1
 10
0.0000
 20
0.0000
 30
0.0000
 40
0.1300
 41
0.1300
 70
0
  0
VERTEX
  8
21
 10
31.4000
 20
26.2400
 30
0.0000
  0
VERTEX
  8
21
 10
33.9350
 20
26.5000
 30
0.0000
  0
SEQEND
  8
0
  0
POLYLINE
  8
21
 66
1
 10
0.0000
 20
0.0000
 30
0.0000
 40
0.0650
 41
0.0650
 70
0
  0
VERTEX
  8
21
 10
33.9383
 20
26.4677
 30
0.0000
 42
1.0000
  0
VERTEX
  8
21
 10
33.9317
 20
26.5323
 30
0.0000
  0
SEQEND
  8
0
  0
POLYLINE
  8
21
 66
1
 10
0.0000
 20
0.0000
 30
0.0000
 40
0.0650
 41
0.0650
 70
0
  0
VERTEX
  8
21
 10
31.3967
 20
26.2723
 30
0.0000
 42
1.0000
  0
VERTEX
  8
21
 10
31.4033
 20
26.2077
 30
0.0000
  0
SEQEND
  8
0
  0
POLYLINE
  8
21
 66
1
 10
0.0000
 20
0.0000
 30
0.0000
 40
0.1524
 41
0.1524
 70
0
  0
VERTEX
  8
21
 10
14.3852
 20
27.1507
 30
0.0000
  0
VERTEX
  8
21
 10
14.8368
 20
27.1507
 30
0.0000
  0
SEQEND
  8
0
  0
POLYLINE
  8
21
 66
1
 10
0.0000
 20
0.0000
 30
0.0000
 40
0.0762
 41
0.0762
 70
0
  0
VERTEX
  8
21
 10
14.8368
 20
27.1126
 30
0.0000
 42
1.0000
  0
VERTEX
  8
21
 10
14.8368
 20
27.1888
 30
0.0000
  0
SEQEND
  8
0
  0
POLYLINE
  8
21
 66
1
 10
0.0000
 20
0.0000
 30
0.0000
 40
0.0762
 41
0.0762
 70
0
  0
VERTEX
  8
21
 10
14.3852
 20
27.1888
 30
0.0000
 42
1.0000
  0
VERTEX
  8
21
 10
14.3852
 20
27.1126
 30
0.0000
  0
SEQEND
  8
0
  0
POLYLINE
  8
21
 66
1
 10
0.0000
 20
0.0000
 30
0.0000
 40
0.1524
 41
0.1524
 70
0
  0
VERTEX
  8
21
 10
14.8368
 20
27.1507
 30
0.0000
 42
1.0000
  0
VERTEX
  8
21
 10
14.8368
 20
28.0538
 30
0.0000
  0
SEQEND
  8
0
  0
POLYLINE
  8
21
 66
1
 10
0.0000
 20
0.0000
 30
0.0000
 40
0.0762
 41
0.0762
 70
0
  0
VERTEX
  8
21
 10
14.8368
 20
27.1888
 30
0.0000
 42
1.0000
  0
VERTEX
  8
21
 10
14.8368
 20
27.1126
 30
0.0000
  0
SEQEND
  8
0
  0
POLYLINE
  8
21
 66
1
 10
0.0000
 20
0.0000
 30
0.0000
 40
0.0762
 41
0.0762
 70
0
  0
VERTEX
  8
21
 10
14.8368
 20
28.0919
 30
0.0000
 42
1.0000
  0
VERTEX
  8
21
 10
14.8368
 20
28.0157
 30
0.0000
  0
SEQEND
  8
0
  0
POLYLINE
  8
21
 66
1
 10
0.0000
 20
0.0000
 30
0.0000
 40
0.1524
 41
0.1524
 70
0
  0
VERTEX
  8
21
 10
14.3852
 20
28.7763
 30
0.0000
  0
VERTEX
  8
21
 10
14.9271
 20
28.7763
 30
0.0000
  0
SEQEND
  8
0
  0
POLYLINE
  8
21
 66
1
 10
0.0000
 20
0.0000
 30
0.0000
 40
0.0762
 41
0.0762
 70
0
  0
VERTEX
  8
21
 10
14.9271
 20
28.7382
 30
0.0000
 42
1.0000
  0
VERTEX
  8
21
 10
14.9271
 20
28.8144
 30
0.0000
  0
SEQEND
  8
0
  0
POLYLINE
  8
21
 66
1
 10
0.0000
 20
0.0000
 30
0.0000
 40
0.0762
 41
0.0762
 70
0
  0
VERTEX
  8
21
 10
14.3852
 20
28.8144
 30
0.0000
 42
1.0000
  0
VERTEX
  8
21
 10
14.3852
 20
28.7382
 30
0.0000
  0
SEQEND
  8
0
  0
POLYLINE
  8
21
 66
1
 10
0.0000
 20
0.0000
 30
0.0000
 40
0.1524
 41
0.1524
 70
0
  0
VERTEX
  8
21
 10
14.9271
 20
28.0538
 30
0.0000
 42
1.0000
  0
VERTEX
  8
21
 10
14.9271
 20
28.7763
 30
0.0000
  0
SEQEND
  8
0
  0
POLYLINE
  8
21
 66
1
 10
0.0000
 20
0.0000
 30
0.0000
 40
0.0762
 41
0.0762
 70
0
  0
VERTEX
  8
21
 10
14.9271
 20
28.0919
 30
0.0000
 42
1.0000
  0
VERTEX
  8
21
 10
14.9271
 20
28.0157
 30
0.0000
  0
SEQEND
  8
0
  0
POLYLINE
  8
21
 66
1
 10
0.0000
 20
0.0000
 30
0.0000
 40
0.0762
 41
0.0762
 70
0
  0
VERTEX
  8
21
 10
14.9271
 20
28.8144
 30
0.0000
 42
1.0000
  0
VERTEX
  8
21
 10
14.9271
 20
28.7382
 30
0.0000
  0
SEQEND
  8
0
  0
POLYLINE
  8
21
 66
1
 10
0.0000
 20
0.0000
 30
0.0000
 40
0.1524
 41
0.1524
 70
0
  0
VERTEX
  8
21
 10
14.9271
 20
28.0538
 30
0.0000
  0
VERTEX
  8
21
 10
14.5658
 20
28.0538
 30
0.0000
  0
SEQEND
  8
0
  0
POLYLINE
  8
21
 66
1
 10
0.0000
 20
0.0000
 30
0.0000
 40
0.0762
 41
0.0762
 70
0
  0
VERTEX
  8
21
 10
14.5658
 20
28.0919
 30
0.0000
 42
1.0000
  0
VERTEX
  8
21
 10
14.5658
 20
28.0157
 30
0.0000
  0
SEQEND
  8
0
  0
POLYLINE
  8
21
 66
1
 10
0.0000
 20
0.0000
 30
0.0000
 40
0.0762
 41
0.0762
 70
0
  0
VERTEX
  8
21
 10
14.9271
 20
28.0157
 30
0.0000
 42
1.0000
  0
VERTEX
  8
21
 10
14.9271
 20
28.0919
 30
0.0000
  0
SEQEND
  8
0
  0
POLYLINE
  8
21
 66
1
 10
0.0000
 20
0.0000
 30
0.0000
 40
0.1524
 41
0.1524
 70
0
  0
VERTEX
  8
21
 10
15.9483
 20
27.1507
 30
0.0000
  0
VERTEX
  8
21
 10
16.3999
 20
27.1507
 30
0.0000
  0
SEQEND
  8
0
  0
POLYLINE
  8
21
 66
1
 10
0.0000
 20
0.0000
 30
0.0000
 40
0.0762
 41
0.0762
 70
0
  0
VERTEX
  8
21
 10
16.3999
 20
27.1126
 30
0.0000
 42
1.0000
  0
VERTEX
  8
21
 10
16.3999
 20
27.1888
 30
0.0000
  0
SEQEND
  8
0
  0
POLYLINE
  8
21
 66
1
 10
0.0000
 20
0.0000
 30
0.0000
 40
0.0762
 41
0.0762
 70
0
  0
VERTEX
  8
21
 10
15.9483
 20
27.1888
 30
0.0000
 42
1.0000
  0
VERTEX
  8
21
 10
15.9483
 20
27.1126
 30
0.0000
  0
SEQEND
  8
0
  0
POLYLINE
  8
21
 66
1
 10
0.0000
 20
0.0000
 30
0.0000
 40
0.1524
 41
0.1524
 70
0
  0
VERTEX
  8
21
 10
16.3999
 20
27.1507
 30
0.0000
 42
1.0000
  0
VERTEX
  8
21
 10
16.3999
 20
28.0538
 30
0.0000
  0
SEQEND
  8
0
  0
POLYLINE
  8
21
 66
1
 10
0.0000
 20
0.0000
 30
0.0000
 40
0.0762
 41
0.0762
 70
0
  0
VERTEX
  8
21
 10
16.3999
 20
27.1888
 30
0.0000
 42
1.0000
  0
VERTEX
  8
21
 10
16.3999
 20
27.1126
 30
0.0000
  0
SEQEND
  8
0
  0
POLYLINE
  8
21
 66
1
 10
0.0000
 20
0.0000
 30
0.0000
 40
0.0762
 41
0.0762
 70
0
  0
VERTEX
  8
21
 10
16.3999
 20
28.0919
 30
0.0000
 42
1.0000
  0
VERTEX
  8
21
 10
16.3999
 20
28.0157
 30
0.0000
  0
SEQEND
  8
0
  0
POLYLINE
  8
21
 66
1
 10
0.0000
 20
0.0000
 30
0.0000
 40
0.1524
 41
0.1524
 70
0
  0
VERTEX
  8
21
 10
15.9483
 20
28.7763
 30
0.0000
  0
VERTEX
  8
21
 10
16.4902
 20
28.7763
 30
0.0000
  0
SEQEND
  8
0
  0
POLYLINE
  8
21
 66
1
 10
0.0000
 20
0.0000
 30
0.0000
 40
0.0762
 41
0.0762
 70
0
  0
VERTEX
  8
21
 10
16.4902
 20
28.7382
 30
0.0000
 42
1.0000
  0
VERTEX
  8
21
 10
16.4902
 20
28.8144
 30
0.0000
  0
SEQEND
  8
0
  0
POLYLINE
  8
21
 66
1
 10
0.0000
 20
0.0000
 30
0.0000
 40
0.0762
 41
0.0762
 70
0
  0
VERTEX
  8
21
 10
15.9483
 20
28.8144
 30
0.0000
 42
1.0000
  0
VERTEX
  8
21
 10
15.9483
 20
28.7382
 30
0.0000
  0
SEQEND
  8
0
  0
POLYLINE
  8
21
 66
1
 10
0.0000
 20
0.0000
 30
0.0000
 40
0.1524
 41
0.1524
 70
0
  0
VERTEX
  8
21
 10
16.4902
 20
28.0538
 30
0.0000
 42
1.0000
  0
VERTEX
  8
21
 10
16.4902
 20
28.7763
 30
0.0000
  0
SEQEND
  8
0
  0
POLYLINE
  8
21
 66
1
 10
0.0000
 20
0.0000
 30
0.0000
 40
0.0762
 41
0.0762
 70
0
  0
VERTEX
  8
21
 10
16.4902
 20
28.0919
 30
0.0000
 42
1.0000
  0
VERTEX
  8
21
 10
16.4902
 20
28.0157
 30
0.0000
  0
SEQEND
  8
0
  0
POLYLINE
  8
21
 66
1
 10
0.0000
 20
0.0000
 30
0.0000
 40
0.0762
 41
0.0762
 70
0
  0
VERTEX
  8
21
 10
16.4902
 20
28.8144
 30
0.0000
 42
1.0000
  0
VERTEX
  8
21
 10
16.4902
 20
28.7382
 30
0.0000
  0
SEQEND
  8
0
  0
POLYLINE
  8
21
 66
1
 10
0.0000
 20
0.0000
 30
0.0000
 40
0.1524
 41
0.1524
 70
0
  0
VERTEX
  8
21
 10
16.4902
 20
28.0538
 30
0.0000
  0
VERTEX
  8
21
 10
16.1289
 20
28.0538
 30
0.0000
  0
SEQEND
  8
0
  0
POLYLINE
  8
21
 66
1
 10
0.0000
 20
0.0000
 30
0.0000
 40
0.0762
 41
0.0762
 70
0
  0
VERTEX
  8
21
 10
16.1289
 20
28.0919
 30
0.0000
 42
1.0000
  0
VERTEX
  8
21
 10
16.1289
 20
28.0157
 30
0.0000
  0
SEQEND
  8
0
  0
POLYLINE
  8
21
 66
1
 10
0.0000
 20
0.0000
 30
0.0000
 40
0.0762
 41
0.0762
 70
0
  0
VERTEX
  8
21
 10
16.4902
 20
28.0157
 30
0.0000
 42
1.0000
  0
VERTEX
  8
21
 10
16.4902
 20
28.0919
 30
0.0000
  0
SEQEND
  8
0
  0
POLYLINE
  8
21
 66
1
 10
0.0000
 20
0.0000
 30
0.0000
 40
0.1524
 41
0.1524
 70
0
  0
VERTEX
  8
21
 10
17.4489
 20
27.1507
 30
0.0000
  0
VERTEX
  8
21
 10
17.4489
 20
27.2410
 30
0.0000
  0
SEQEND
  8
0
  0
POLYLINE
  8
21
 66
1
 10
0.0000
 20
0.0000
 30
0.0000
 40
0.0762
 41
0.0762
 70
0
  0
VERTEX
  8
21
 10
17.4870
 20
27.2410
 30
0.0000
 42
1.0000
  0
VERTEX
  8
21
 10
17.4108
 20
27.2410
 30
0.0000
  0
SEQEND
  8
0
  0
POLYLINE
  8
21
 66
1
 10
0.0000
 20
0.0000
 30
0.0000
 40
0.0762
 41
0.0762
 70
0
  0
VERTEX
  8
21
 10
17.4108
 20
27.1507
 30
0.0000
 42
1.0000
  0
VERTEX
  8
21
 10
17.4870
 20
27.1507
 30
0.0000
  0
SEQEND
  8
0
  0
POLYLINE
  8
21
 66
1
 10
0.0000
 20
0.0000
 30
0.0000
 40
0.1524
 41
0.1524
 70
0
  0
VERTEX
  8
21
 10
17.4489
 20
27.2410
 30
0.0000
  0
VERTEX
  8
21
 10
17.5392
 20
27.2410
 30
0.0000
  0
SEQEND
  8
0
  0
POLYLINE
  8
21
 66
1
 10
0.0000
 20
0.0000
 30
0.0000
 40
0.0762
 41
0.0762
 70
0
  0
VERTEX
  8
21
 10
17.5392
 20
27.2029
 30
0.0000
 42
1.0000
  0
VERTEX
  8
21
 10
17.5392
 20
27.2791
 30
0.0000
  0
SEQEND
  8
0
  0
POLYLINE
  8
21
 66
1
 10
0.0000
 20
0.0000
 30
0.0000
 40
0.0762
 41
0.0762
 70
0
  0
VERTEX
  8
21
 10
17.4489
 20
27.2791
 30
0.0000
 42
1.0000
  0
VERTEX
  8
21
 10
17.4489
 20
27.2029
 30
0.0000
  0
SEQEND
  8
0
  0
POLYLINE
  8
21
 66
1
 10
0.0000
 20
0.0000
 30
0.0000
 40
0.1524
 41
0.1524
 70
0
  0
VERTEX
  8
21
 10
17.5392
 20
27.2410
 30
0.0000
  0
VERTEX
  8
21
 10
17.5392
 20
27.1507
 30
0.0000
  0
SEQEND
  8
0
  0
POLYLINE
  8
21
 66
1
 10
0.0000
 20
0.0000
 30
0.0000
 40
0.0762
 41
0.0762
 70
0
  0
VERTEX
  8
21
 10
17.5011
 20
27.1507
 30
0.0000
 42
1.0000
  0
VERTEX
  8
21
 10
17.5773
 20
27.1507
 30
0.0000
  0
SEQEND
  8
0
  0
POLYLINE
  8
21
 66
1
 10
0.0000
 20
0.0000
 30
0.0000
 40
0.0762
 41
0.0762
 70
0
  0
VERTEX
  8
21
 10
17.5773
 20
27.2410
 30
0.0000
 42
1.0000
  0
VERTEX
  8
21
 10
17.5011
 20
27.2410
 30
0.0000
  0
SEQEND
  8
0
  0
POLYLINE
  8
21
 66
1
 10
0.0000
 20
0.0000
 30
0.0000
 40
0.1524
 41
0.1524
 70
0
  0
VERTEX
  8
21
 10
17.5392
 20
27.1507
 30
0.0000
  0
VERTEX
  8
21
 10
17.4489
 20
27.1507
 30
0.0000
  0
SEQEND
  8
0
  0
POLYLINE
  8
21
 66
1
 10
0.0000
 20
0.0000
 30
0.0000
 40
0.0762
 41
0.0762
 70
0
  0
VERTEX
  8
21
 10
17.4489
 20
27.1888
 30
0.0000
 42
1.0000
  0
VERTEX
  8
21
 10
17.4489
 20
27.1126
 30
0.0000
  0
SEQEND
  8
0
  0
POLYLINE
  8
21
 66
1
 10
0.0000
 20
0.0000
 30
0.0000
 40
0.0762
 41
0.0762
 70
0
  0
VERTEX
  8
21
 10
17.5392
 20
27.1126
 30
0.0000
 42
1.0000
  0
VERTEX
  8
21
 10
17.5392
 20
27.1888
 30
0.0000
  0
SEQEND
  8
0
  0
POLYLINE
  8
21
 66
1
 10
0.0000
 20
0.0000
 30
0.0000
 40
0.1524
 41
0.1524
 70
0
  0
VERTEX
  8
21
 10
18.2722
 20
28.5505
 30
0.0000
 42
0.1139
  0
VERTEX
  8
21
 10
18.1367
 20
27.9635
 30
0.0000
  0
SEQEND
  8
0
  0
POLYLINE
  8
21
 66
1
 10
0.0000
 20
0.0000
 30
0.0000
 40
0.0762
 41
0.0762
 70
0
  0
VERTEX
  8
21
 10
18.3064
 20
28.5338
 30
0.0000
 42
1.0000
  0
VERTEX
  8
21
 10
18.2379
 20
28.5672
 30
0.0000
  0
SEQEND
  8
0
  0
POLYLINE
  8
21
 66
1
 10
0.0000
 20
0.0000
 30
0.0000
 40
0.0762
 41
0.0762
 70
0
  0
VERTEX
  8
21
 10
18.0986
 20
27.9635
 30
0.0000
 42
1.0000
  0
VERTEX
  8
21
 10
18.1748
 20
27.9635
 30
0.0000
  0
SEQEND
  8
0
  0
POLYLINE
  8
21
 66
1
 10
0.0000
 20
0.0000
 30
0.0000
 40
0.1524
 41
0.1524
 70
0
  0
VERTEX
  8
21
 10
18.5882
 20
28.7763
 30
0.0000
 42
0.3205
  0
VERTEX
  8
21
 10
18.2722
 20
28.5505
 30
0.0000
  0
SEQEND
  8
0
  0
POLYLINE
  8
21
 66
1
 10
0.0000
 20
0.0000
 30
0.0000
 40
0.0762
 41
0.0762
 70
0
  0
VERTEX
  8
21
 10
18.5882
 20
28.7382
 30
0.0000
 42
1.0000
  0
VERTEX
  8
21
 10
18.5882
 20
28.8144
 30
0.0000
  0
SEQEND
  8
0
  0
POLYLINE
  8
21
 66
1
 10
0.0000
 20
0.0000
 30
0.0000
 40
0.0762
 41
0.0762
 70
0
  0
VERTEX
  8
21
 10
18.2361
 20
28.5629
 30
0.0000
 42
1.0000
  0
VERTEX
  8
21
 10
18.3082
 20
28.5382
 30
0.0000
  0
SEQEND
  8
0
  0
POLYLINE
  8
21
 66
1
 10
0.0000
 20
0.0000
 30
0.0000
 40
0.1524
 41
0.1524
 70
0
  0
VERTEX
  8
21
 10
18.9043
 20
28.5505
 30
0.0000
 42
0.3205
  0
VERTEX
  8
21
 10
18.5882
 20
28.7763
 30
0.0000
  0
SEQEND
  8
0
  0
POLYLINE
  8
21
 66
1
 10
0.0000
 20
0.0000
 30
0.0000
 40
0.0762
 41
0.0762
 70
0
  0
VERTEX
  8
21
 10
18.8683
 20
28.5382
 30
0.0000
 42
1.0000
  0
VERTEX
  8
21
 10
18.9404
 20
28.5629
 30
0.0000
  0
SEQEND
  8
0
  0
POLYLINE
  8
21
 66
1
 10
0.0000
 20
0.0000
 30
0.0000
 40
0.0762
 41
0.0762
 70
0
  0
VERTEX
  8
21
 10
18.5882
 20
28.8144
 30
0.0000
 42
1.0000
  0
VERTEX
  8
21
 10
18.5882
 20
28.7382
 30
0.0000
  0
SEQEND
  8
0
  0
POLYLINE
  8
21
 66
1
 10
0.0000
 20
0.0000
 30
0.0000
 40
0.1524
 41
0.1524
 70
0
  0
VERTEX
  8
21
 10
19.0398
 20
27.9635
 30
0.0000
 42
0.1139
  0
VERTEX
  8
21
 10
18.9043
 20
28.5505
 30
0.0000
  0
SEQEND
  8
0
  0
POLYLINE
  8
21
 66
1
 10
0.0000
 20
0.0000
 30
0.0000
 40
0.0762
 41
0.0762
 70
0
  0
VERTEX
  8
21
 10
19.0017
 20
27.9635
 30
0.0000
 42
1.0000
  0
VERTEX
  8
21
 10
19.0779
 20
27.9635
 30
0.0000
  0
SEQEND
  8
0
  0
POLYLINE
  8
21
 66
1
 10
0.0000
 20
0.0000
 30
0.0000
 40
0.0762
 41
0.0762
 70
0
  0
VERTEX
  8
21
 10
18.9386
 20
28.5672
 30
0.0000
 42
1.0000
  0
VERTEX
  8
21
 10
18.8701
 20
28.5338
 30
0.0000
  0
SEQEND
  8
0
  0
POLYLINE
  8
21
 66
1
 10
0.0000
 20
0.0000
 30
0.0000
 40
0.1524
 41
0.1524
 70
0
  0
VERTEX
  8
21
 10
18.1367
 20
27.9635
 30
0.0000
 42
0.1139
  0
VERTEX
  8
21
 10
18.2722
 20
27.3765
 30
0.0000
  0
SEQEND
  8
0
  0
POLYLINE
  8
21
 66
1
 10
0.0000
 20
0.0000
 30
0.0000
 40
0.0762
 41
0.0762
 70
0
  0
VERTEX
  8
21
 10
18.1748
 20
27.9635
 30
0.0000
 42
1.0000
  0
VERTEX
  8
21
 10
18.0986
 20
27.9635
 30
0.0000
  0
SEQEND
  8
0
  0
POLYLINE
  8
21
 66
1
 10
0.0000
 20
0.0000
 30
0.0000
 40
0.0762
 41
0.0762
 70
0
  0
VERTEX
  8
21
 10
18.2379
 20
27.3598
 30
0.0000
 42
1.0000
  0
VERTEX
  8
21
 10
18.3064
 20
27.3932
 30
0.0000
  0
SEQEND
  8
0
  0
POLYLINE
  8
21
 66
1
 10
0.0000
 20
0.0000
 30
0.0000
 40
0.1524
 41
0.1524
 70
0
  0
VERTEX
  8
21
 10
18.2722
 20
27.3765
 30
0.0000
 42
0.3205
  0
VERTEX
  8
21
 10
18.5882
 20
27.1507
 30
0.0000
  0
SEQEND
  8
0
  0
POLYLINE
  8
21
 66
1
 10
0.0000
 20
0.0000
 30
0.0000
 40
0.0762
 41
0.0762
 70
0
  0
VERTEX
  8
21
 10
18.3082
 20
27.3888
 30
0.0000
 42
1.0000
  0
VERTEX
  8
21
 10
18.2361
 20
27.3641
 30
0.0000
  0
SEQEND
  8
0
  0
POLYLINE
  8
21
 66
1
 10
0.0000
 20
0.0000
 30
0.0000
 40
0.0762
 41
0.0762
 70
0
  0
VERTEX
  8
21
 10
18.5882
 20
27.1126
 30
0.0000
 42
1.0000
  0
VERTEX
  8
21
 10
18.5882
 20
27.1888
 30
0.0000
  0
SEQEND
  8
0
  0
POLYLINE
  8
21
 66
1
 10
0.0000
 20
0.0000
 30
0.0000
 40
0.1524
 41
0.1524
 70
0
  0
VERTEX
  8
21
 10
18.9043
 20
27.3765
 30
0.0000
 42
0.1139
  0
VERTEX
  8
21
 10
19.0398
 20
27.9635
 30
0.0000
  0
SEQEND
  8
0
  0
POLYLINE
  8
21
 66
1
 10
0.0000
 20
0.0000
 30
0.0000
 40
0.0762
 41
0.0762
 70
0
  0
VERTEX
  8
21
 10
18.8701
 20
27.3932
 30
0.0000
 42
1.0000
  0
VERTEX
  8
21
 10
18.9386
 20
27.3598
 30
0.0000
  0
SEQEND
  8
0
  0
POLYLINE
  8
21
 66
1
 10
0.0000
 20
0.0000
 30
0.0000
 40
0.0762
 41
0.0762
 70
0
  0
VERTEX
  8
21
 10
19.0779
 20
27.9635
 30
0.0000
 42
1.0000
  0
VERTEX
  8
21
 10
19.0017
 20
27.9635
 30
0.0000
  0
SEQEND
  8
0
  0
POLYLINE
  8
21
 66
1
 10
0.0000
 20
0.0000
 30
0.0000
 40
0.1524
 41
0.1524
 70
0
  0
VERTEX
  8
21
 10
18.5882
 20
27.1507
 30
0.0000
 42
0.3205
  0
VERTEX
  8
21
 10
18.9043
 20
27.3765
 30
0.0000
  0
SEQEND
  8
0
  0
POLYLINE
  8
21
 66
1
 10
0.0000
 20
0.0000
 30
0.0000
 40
0.0762
 41
0.0762
 70
0
  0
VERTEX
  8
21
 10
18.5882
 20
27.1888
 30
0.0000
 42
1.0000
  0
VERTEX
  8
21
 10
18.5882
 20
27.1126
 30
0.0000
  0
SEQEND
  8
0
  0
POLYLINE
  8
21
 66
1
 10
0.0000
 20
0.0000
 30
0.0000
 40
0.0762
 41
0.0762
 70
0
  0
VERTEX
  8
21
 10
18.9404
 20
27.3641
 30
0.0000
 42
1.0000
  0
VERTEX
  8
21
 10
18.8683
 20
27.3888
 30
0.0000
  0
SEQEND
  8
0
  0
POLYLINE
  8
21
 66
1
 10
0.0000
 20
0.0000
 30
0.0000
 40
0.1524
 41
0.1524
 70
0
  0
VERTEX
  8
21
 10
18.2270
 20
27.5119
 30
0.0000
  0
VERTEX
  8
21
 10
18.9495
 20
28.4151
 30
0.0000
  0
SEQEND
  8
0
  0
POLYLINE
  8
21
 66
1
 10
0.0000
 20
0.0000
 30
0.0000
 40
0.0762
 41
0.0762
 70
0
  0
VERTEX
  8
21
 10
18.9792
 20
28.3913
 30
0.0000
 42
1.0000
  0
VERTEX
  8
21
 10
18.9197
 20
28.4389
 30
0.0000
  0
SEQEND
  8
0
  0
POLYLINE
  8
21
 66
1
 10
0.0000
 20
0.0000
 30
0.0000
 40
0.0762
 41
0.0762
 70
0
  0
VERTEX
  8
21
 10
18.1972
 20
27.5357
 30
0.0000
 42
1.0000
  0
VERTEX
  8
21
 10
18.2568
 20
27.4881
 30
0.0000
  0
SEQEND
  8
0
  0
POLYLINE
  8
21
 66
1
 10
0.0000
 20
0.0000
 30
0.0000
 40
0.1524
 41
0.1524
 70
0
  0
VERTEX
  8
21
 10
19.8353
 20
28.5505
 30
0.0000
 42
0.1139
  0
VERTEX
  8
21
 10
19.6998
 20
27.9635
 30
0.0000
  0
SEQEND
  8
0
  0
POLYLINE
  8
21
 66
1
 10
0.0000
 20
0.0000
 30
0.0000
 40
0.0762
 41
0.0762
 70
0
  0
VERTEX
  8
21
 10
19.8695
 20
28.5338
 30
0.0000
 42
1.0000
  0
VERTEX
  8
21
 10
19.8010
 20
28.5672
 30
0.0000
  0
SEQEND
  8
0
  0
POLYLINE
  8
21
 66
1
 10
0.0000
 20
0.0000
 30
0.0000
 40
0.0762
 41
0.0762
 70
0
  0
VERTEX
  8
21
 10
19.6617
 20
27.9635
 30
0.0000
 42
1.0000
  0
VERTEX
  8
21
 10
19.7379
 20
27.9635
 30
0.0000
  0
SEQEND
  8
0
  0
POLYLINE
  8
21
 66
1
 10
0.0000
 20
0.0000
 30
0.0000
 40
0.1524
 41
0.1524
 70
0
  0
VERTEX
  8
21
 10
20.1514
 20
28.7763
 30
0.0000
 42
0.3205
  0
VERTEX
  8
21
 10
19.8353
 20
28.5505
 30
0.0000
  0
SEQEND
  8
0
  0
POLYLINE
  8
21
 66
1
 10
0.0000
 20
0.0000
 30
0.0000
 40
0.0762
 41
0.0762
 70
0
  0
VERTEX
  8
21
 10
20.1514
 20
28.7382
 30
0.0000
 42
1.0000
  0
VERTEX
  8
21
 10
20.1514
 20
28.8144
 30
0.0000
  0
SEQEND
  8
0
  0
POLYLINE
  8
21
 66
1
 10
0.0000
 20
0.0000
 30
0.0000
 40
0.0762
 41
0.0762
 70
0
  0
VERTEX
  8
21
 10
19.7992
 20
28.5629
 30
0.0000
 42
1.0000
  0
VERTEX
  8
21
 10
19.8713
 20
28.5382
 30
0.0000
  0
SEQEND
  8
0
  0
POLYLINE
  8
21
 66
1
 10
0.0000
 20
0.0000
 30
0.0000
 40
0.1524
 41
0.1524
 70
0
  0
VERTEX
  8
21
 10
20.4675
 20
28.5505
 30
0.0000
 42
0.3205
  0
VERTEX
  8
21
 10
20.1514
 20
28.7763
 30
0.0000
  0
SEQEND
  8
0
  0
POLYLINE
  8
21
 66
1
 10
0.0000
 20
0.0000
 30
0.0000
 40
0.0762
 41
0.0762
 70
0
  0
VERTEX
  8
21
 10
20.4314
 20
28.5382
 30
0.0000
 42
1.0000
  0
VERTEX
  8
21
 10
20.5035
 20
28.5629
 30
0.0000
  0
SEQEND
  8
0
  0
POLYLINE
  8
21
 66
1
 10
0.0000
 20
0.0000
 30
0.0000
 40
0.0762
 41
0.0762
 70
0
  0
VERTEX
  8
21
 10
20.1514
 20
28.8144
 30
0.0000
 42
1.0000
  0
VERTEX
  8
21
 10
20.1514
 20
28.7382
 30
0.0000
  0
SEQEND
  8
0
  0
POLYLINE
  8
21
 66
1
 10
0.0000
 20
0.0000
 30
0.0000
 40
0.1524
 41
0.1524
 70
0
  0
VERTEX
  8
21
 10
20.6029
 20
27.9635
 30
0.0000
 42
0.1139
  0
VERTEX
  8
21
 10
20.4675
 20
28.5505
 30
0.0000
  0
SEQEND
  8
0
  0
POLYLINE
  8
21
 66
1
 10
0.0000
 20
0.0000
 30
0.0000
 40
0.0762
 41
0.0762
 70
0
  0
VERTEX
  8
21
 10
20.5648
 20
27.9635
 30
0.0000
 42
1.0000
  0
VERTEX
  8
21
 10
20.6410
 20
27.9635
 30
0.0000
  0
SEQEND
  8
0
  0
POLYLINE
  8
21
 66
1
 10
0.0000
 20
0.0000
 30
0.0000
 40
0.0762
 41
0.0762
 70
0
  0
VERTEX
  8
21
 10
20.5017
 20
28.5672
 30
0.0000
 42
1.0000
  0
VERTEX
  8
21
 10
20.4332
 20
28.5338
 30
0.0000
  0
SEQEND
  8
0
  0
POLYLINE
  8
21
 66
1
 10
0.0000
 20
0.0000
 30
0.0000
 40
0.1524
 41
0.1524
 70
0
  0
VERTEX
  8
21
 10
19.6998
 20
27.9635
 30
0.0000
 42
0.1139
  0
VERTEX
  8
21
 10
19.8353
 20
27.3765
 30
0.0000
  0
SEQEND
  8
0
  0
POLYLINE
  8
21
 66
1
 10
0.0000
 20
0.0000
 30
0.0000
 40
0.0762
 41
0.0762
 70
0
  0
VERTEX
  8
21
 10
19.7379
 20
27.9635
 30
0.0000
 42
1.0000
  0
VERTEX
  8
21
 10
19.6617
 20
27.9635
 30
0.0000
  0
SEQEND
  8
0
  0
POLYLINE
  8
21
 66
1
 10
0.0000
 20
0.0000
 30
0.0000
 40
0.0762
 41
0.0762
 70
0
  0
VERTEX
  8
21
 10
19.8010
 20
27.3598
 30
0.0000
 42
1.0000
  0
VERTEX
  8
21
 10
19.8695
 20
27.3932
 30
0.0000
  0
SEQEND
  8
0
  0
POLYLINE
  8
21
 66
1
 10
0.0000
 20
0.0000
 30
0.0000
 40
0.1524
 41
0.1524
 70
0
  0
VERTEX
  8
21
 10
19.8353
 20
27.3765
 30
0.0000
 42
0.3205
  0
VERTEX
  8
21
 10
20.1514
 20
27.1507
 30
0.0000
  0
SEQEND
  8
0
  0
POLYLINE
  8
21
 66
1
 10
0.0000
 20
0.0000
 30
0.0000
 40
0.0762
 41
0.0762
 70
0
  0
VERTEX
  8
21
 10
19.8713
 20
27.3888
 30
0.0000
 42
1.0000
  0
VERTEX
  8
21
 10
19.7992
 20
27.3641
 30
0.0000
  0
SEQEND
  8
0
  0
POLYLINE
  8
21
 66
1
 10
0.0000
 20
0.0000
 30
0.0000
 40
0.0762
 41
0.0762
 70
0
  0
VERTEX
  8
21
 10
20.1514
 20
27.1126
 30
0.0000
 42
1.0000
  0
VERTEX
  8
21
 10
20.1514
 20
27.1888
 30
0.0000
  0
SEQEND
  8
0
  0
POLYLINE
  8
21
 66
1
 10
0.0000
 20
0.0000
 30
0.0000
 40
0.1524
 41
0.1524
 70
0
  0
VERTEX
  8
21
 10
20.4675
 20
27.3765
 30
0.0000
 42
0.1139
  0
VERTEX
  8
21
 10
20.6029
 20
27.9635
 30
0.0000
  0
SEQEND
  8
0
  0
POLYLINE
  8
21
 66
1
 10
0.0000
 20
0.0000
 30
0.0000
 40
0.0762
 41
0.0762
 70
0
  0
VERTEX
  8
21
 10
20.4332
 20
27.3932
 30
0.0000
 42
1.0000
  0
VERTEX
  8
21
 10
20.5017
 20
27.3598
 30
0.0000
  0
SEQEND
  8
0
  0
POLYLINE
  8
21
 66
1
 10
0.0000
 20
0.0000
 30
0.0000
 40
0.0762
 41
0.0762
 70
0
  0
VERTEX
  8
21
 10
20.6410
 20
27.9635
 30
0.0000
 42
1.0000
  0
VERTEX
  8
21
 10
20.5648
 20
27.9635
 30
0.0000
  0
SEQEND
  8
0
  0
POLYLINE
  8
21
 66
1
 10
0.0000
 20
0.0000
 30
0.0000
 40
0.1524
 41
0.1524
 70
0
  0
VERTEX
  8
21
 10
20.1514
 20
27.1507
 30
0.0000
 42
0.3205
  0
VERTEX
  8
21
 10
20.4675
 20
27.3765
 30
0.0000
  0
SEQEND
  8
0
  0
POLYLINE
  8
21
 66
1
 10
0.0000
 20
0.0000
 30
0.0000
 40
0.0762
 41
0.0762
 70
0
  0
VERTEX
  8
21
 10
20.1514
 20
27.1888
 30
0.0000
 42
1.0000
  0
VERTEX
  8
21
 10
20.1514
 20
27.1126
 30
0.0000
  0
SEQEND
  8
0
  0
POLYLINE
  8
21
 66
1
 10
0.0000
 20
0.0000
 30
0.0000
 40
0.0762
 41
0.0762
 70
0
  0
VERTEX
  8
21
 10
20.5035
 20
27.3641
 30
0.0000
 42
1.0000
  0
VERTEX
  8
21
 10
20.4314
 20
27.3888
 30
0.0000
  0
SEQEND
  8
0
  0
POLYLINE
  8
21
 66
1
 10
0.0000
 20
0.0000
 30
0.0000
 40
0.1524
 41
0.1524
 70
0
  0
VERTEX
  8
21
 10
19.7901
 20
27.5119
 30
0.0000
  0
VERTEX
  8
21
 10
20.5126
 20
28.4151
 30
0.0000
  0
SEQEND
  8
0
  0
POLYLINE
  8
21
 66
1
 10
0.0000
 20
0.0000
 30
0.0000
 40
0.0762
 41
0.0762
 70
0
  0
VERTEX
  8
21
 10
20.5424
 20
28.3913
 30
0.0000
 42
1.0000
  0
VERTEX
  8
21
 10
20.4829
 20
28.4389
 30
0.0000
  0
SEQEND
  8
0
  0
POLYLINE
  8
21
 66
1
 10
0.0000
 20
0.0000
 30
0.0000
 40
0.0762
 41
0.0762
 70
0
  0
VERTEX
  8
21
 10
19.7604
 20
27.5357
 30
0.0000
 42
1.0000
  0
VERTEX
  8
21
 10
19.8199
 20
27.4881
 30
0.0000
  0
SEQEND
  8
0
  0
POLYLINE
  8
21
 66
1
 10
0.0000
 20
0.0000
 30
0.0000
 40
0.1300
 41
0.1300
 70
0
  0
VERTEX
  8
21
 10
2.3300
 20
3.4000
 30
0.0000
  0
VERTEX
  8
21
 10
-7.0689
 20
3.4175
 30
0.0000
  0
SEQEND
  8
0
  0
POLYLINE
  8
21
 66
1
 10
0.0000
 20
0.0000
 30
0.0000
 40
0.0650
 41
0.0650
 70
0
  0
VERTEX
  8
21
 10
-7.0688
 20
3.4500
 30
0.0000
 42
1.0000
  0
VERTEX
  8
21
 10
-7.0690
 20
3.3850
 30
0.0000
  0
SEQEND
  8
0
  0
POLYLINE
  8
21
 66
1
 10
0.0000
 20
0.0000
 30
0.0000
 40
0.0650
 41
0.0650
 70
0
  0
VERTEX
  8
21
 10
2.3299
 20
3.3675
 30
0.0000
 42
1.0000
  0
VERTEX
  8
21
 10
2.3301
 20
3.4325
 30
0.0000
  0
SEQEND
  8
0
  0
POLYLINE
  8
21
 66
1
 10
0.0000
 20
0.0000
 30
0.0000
 40
0.1300
 41
0.1300
 70
0
  0
VERTEX
  8
21
 10
2.3600
 20
19.5400
 30
0.0000
  0
VERTEX
  8
21
 10
-7.0389
 20
19.5575
 30
0.0000
  0
SEQEND
  8
0
  0
POLYLINE
  8
21
 66
1
 10
0.0000
 20
0.0000
 30
0.0000
 40
0.0650
 41
0.0650
 70
0
  0
VERTEX
  8
21
 10
-7.0388
 20
19.5900
 30
0.0000
 42
1.0000
  0
VERTEX
  8
21
 10
-7.0390
 20
19.5250
 30
0.0000
  0
SEQEND
  8
0
  0
POLYLINE
  8
21
 66
1
 10
0.0000
 20
0.0000
 30
0.0000
 40
0.0650
 41
0.0650
 70
0
  0
VERTEX
  8
21
 10
2.3599
 20
19.5075
 30
0.0000
 42
1.0000
  0
VERTEX
  8
21
 10
2.3601
 20
19.5725
 30
0.0000
  0
SEQEND
  8
0
  0
POLYLINE
  8
21
 66
1
 10
0.0000
 20
0.0000
 30
0.0000
 40
0.1300
 41
0.1300
 70
0
  0
VERTEX
  8
21
 10
-5.1188
 20
3.4788
 30
0.0000
  0
VERTEX
  8
21
 10
-5.0890
 20
19.4888
 30
0.0000
  0
SEQEND
  8
0
  0
POLYLINE
  8
21
 66
1
 10
0.0000
 20
0.0000
 30
0.0000
 40
0.0650
 41
0.0650
 70
0
  0
VERTEX
  8
21
 10
-5.0565
 20
19.4888
 30
0.0000
 42
1.0000
  0
VERTEX
  8
21
 10
-5.1215
 20
19.4889
 30
0.0000
  0
SEQEND
  8
0
  0
POLYLINE
  8
21
 66
1
 10
0.0000
 20
0.0000
 30
0.0000
 40
0.0650
 41
0.0650
 70
0
  0
VERTEX
  8
21
 10
-5.1513
 20
3.4789
 30
0.0000
 42
1.0000
  0
VERTEX
  8
21
 10
-5.0863
 20
3.4788
 30
0.0000
  0
SEQEND
  8
0
  0
POLYLINE
  8
21
 66
1
 10
0.0000
 20
0.0000
 30
0.0000
 40
0.1300
 41
0.1300
 70
0
  0
VERTEX
  8
21
 10
-5.1188
 20
3.4788
 30
0.0000
  0
VERTEX
  8
21
 10
-5.4333
 20
6.0144
 30
0.0000
  0
SEQEND
  8
0
  0
POLYLINE
  8
21
 66
1
 10
0.0000
 20
0.0000
 30
0.0000
 40
0.0650
 41
0.0650
 70
0
  0
VERTEX
  8
21
 10
-5.4011
 20
6.0184
 30
0.0000
 42
1.0000
  0
VERTEX
  8
21
 10
-5.4656
 20
6.0104
 30
0.0000
  0
SEQEND
  8
0
  0
POLYLINE
  8
21
 66
1
 10
0.0000
 20
0.0000
 30
0.0000
 40
0.0650
 41
0.0650
 70
0
  0
VERTEX
  8
21
 10
-5.1510
 20
3.4748
 30
0.0000
 42
1.0000
  0
VERTEX
  8
21
 10
-5.0865
 20
3.4828
 30
0.0000
  0
SEQEND
  8
0
  0
POLYLINE
  8
21
 66
1
 10
0.0000
 20
0.0000
 30
0.0000
 40
0.1300
 41
0.1300
 70
0
  0
VERTEX
  8
21
 10
-5.4333
 20
6.0144
 30
0.0000
  0
VERTEX
  8
21
 10
-4.7948
 20
6.0132
 30
0.0000
  0
SEQEND
  8
0
  0
POLYLINE
  8
21
 66
1
 10
0.0000
 20
0.0000
 30
0.0000
 40
0.0650
 41
0.0650
 70
0
  0
VERTEX
  8
21
 10
-4.7949
 20
5.9807
 30
0.0000
 42
1.0000
  0
VERTEX
  8
21
 10
-4.7948
 20
6.0457
 30
0.0000
  0
SEQEND
  8
0
  0
POLYLINE
  8
21
 66
1
 10
0.0000
 20
0.0000
 30
0.0000
 40
0.0650
 41
0.0650
 70
0
  0
VERTEX
  8
21
 10
-5.4332
 20
6.0469
 30
0.0000
 42
1.0000
  0
VERTEX
  8
21
 10
-5.4334
 20
5.9819
 30
0.0000
  0
SEQEND
  8
0
  0
POLYLINE
  8
21
 66
1
 10
0.0000
 20
0.0000
 30
0.0000
 40
0.1300
 41
0.1300
 70
0
  0
VERTEX
  8
21
 10
-4.7948
 20
6.0132
 30
0.0000
  0
VERTEX
  8
21
 10
-5.1188
 20
3.4788
 30
0.0000
  0
SEQEND
  8
0
  0
POLYLINE
  8
21
 66
1
 10
0.0000
 20
0.0000
 30
0.0000
 40
0.0650
 41
0.0650
 70
0
  0
VERTEX
  8
21
 10
-5.1510
 20
3.4830
 30
0.0000
 42
1.0000
  0
VERTEX
  8
21
 10
-5.0865
 20
3.4747
 30
0.0000
  0
SEQEND
  8
0
  0
POLYLINE
  8
21
 66
1
 10
0.0000
 20
0.0000
 30
0.0000
 40
0.0650
 41
0.0650
 70
0
  0
VERTEX
  8
21
 10
-4.7626
 20
6.0091
 30
0.0000
 42
1.0000
  0
VERTEX
  8
21
 10
-4.8271
 20
6.0174
 30
0.0000
  0
SEQEND
  8
0
  0
POLYLINE
  8
21
 66
1
 10
0.0000
 20
0.0000
 30
0.0000
 40
0.1300
 41
0.1300
 70
0
  0
VERTEX
  8
21
 10
-5.1188
 20
3.4788
 30
0.0000
  0
VERTEX
  8
21
 10
-5.2441
 20
6.0141
 30
0.0000
  0
SEQEND
  8
0
  0
POLYLINE
  8
21
 66
1
 10
0.0000
 20
0.0000
 30
0.0000
 40
0.0650
 41
0.0650
 70
0
  0
VERTEX
  8
21
 10
-5.2116
 20
6.0157
 30
0.0000
 42
1.0000
  0
VERTEX
  8
21
 10
-5.2765
 20
6.0125
 30
0.0000
  0
SEQEND
  8
0
  0
POLYLINE
  8
21
 66
1
 10
0.0000
 20
0.0000
 30
0.0000
 40
0.0650
 41
0.0650
 70
0
  0
VERTEX
  8
21
 10
-5.1512
 20
3.4772
 30
0.0000
 42
1.0000
  0
VERTEX
  8
21
 10
-5.0863
 20
3.4805
 30
0.0000
  0
SEQEND
  8
0
  0
POLYLINE
  8
21
 66
1
 10
0.0000
 20
0.0000
 30
0.0000
 40
0.1300
 41
0.1300
 70
0
  0
VERTEX
  8
21
 10
-4.9841
 20
6.0136
 30
0.0000
  0
VERTEX
  8
21
 10
-5.1188
 20
3.4788
 30
0.0000
  0
SEQEND
  8
0
  0
POLYLINE
  8
21
 66
1
 10
0.0000
 20
0.0000
 30
0.0000
 40
0.0650
 41
0.0650
 70
0
  0
VERTEX
  8
21
 10
-5.1512
 20
3.4806
 30
0.0000
 42
1.0000
  0
VERTEX
  8
21
 10
-5.0863
 20
3.4771
 30
0.0000
  0
SEQEND
  8
0
  0
POLYLINE
  8
21
 66
1
 10
0.0000
 20
0.0000
 30
0.0000
 40
0.0650
 41
0.0650
 70
0
  0
VERTEX
  8
21
 10
-4.9516
 20
6.0119
 30
0.0000
 42
1.0000
  0
VERTEX
  8
21
 10
-5.0165
 20
6.0153
 30
0.0000
  0
SEQEND
  8
0
  0
POLYLINE
  8
21
 66
1
 10
0.0000
 20
0.0000
 30
0.0000
 40
0.1300
 41
0.1300
 70
0
  0
VERTEX
  8
21
 10
-5.1188
 20
3.4788
 30
0.0000
  0
VERTEX
  8
21
 10
-5.3741
 20
6.0143
 30
0.0000
  0
SEQEND
  8
0
  0
POLYLINE
  8
21
 66
1
 10
0.0000
 20
0.0000
 30
0.0000
 40
0.0650
 41
0.0650
 70
0
  0
VERTEX
  8
21
 10
-5.3417
 20
6.0176
 30
0.0000
 42
1.0000
  0
VERTEX
  8
21
 10
-5.4064
 20
6.0111
 30
0.0000
  0
SEQEND
  8
0
  0
POLYLINE
  8
21
 66
1
 10
0.0000
 20
0.0000
 30
0.0000
 40
0.0650
 41
0.0650
 70
0
  0
VERTEX
  8
21
 10
-5.1511
 20
3.4756
 30
0.0000
 42
1.0000
  0
VERTEX
  8
21
 10
-5.0864
 20
3.4821
 30
0.0000
  0
SEQEND
  8
0
  0
POLYLINE
  8
21
 66
1
 10
0.0000
 20
0.0000
 30
0.0000
 40
0.1300
 41
0.1300
 70
0
  0
VERTEX
  8
21
 10
-4.8541
 20
6.0134
 30
0.0000
  0
VERTEX
  8
21
 10
-5.1188
 20
3.4788
 30
0.0000
  0
SEQEND
  8
0
  0
POLYLINE
  8
21
 66
1
 10
0.0000
 20
0.0000
 30
0.0000
 40
0.0650
 41
0.0650
 70
0
  0
VERTEX
  8
21
 10
-5.1511
 20
3.4822
 30
0.0000
 42
1.0000
  0
VERTEX
  8
21
 10
-5.0865
 20
3.4755
 30
0.0000
  0
SEQEND
  8
0
  0
POLYLINE
  8
21
 66
1
 10
0.0000
 20
0.0000
 30
0.0000
 40
0.0650
 41
0.0650
 70
0
  0
VERTEX
  8
21
 10
-4.8217
 20
6.0100
 30
0.0000
 42
1.0000
  0
VERTEX
  8
21
 10
-4.8864
 20
6.0167
 30
0.0000
  0
SEQEND
  8
0
  0
POLYLINE
  8
21
 66
1
 10
0.0000
 20
0.0000
 30
0.0000
 40
0.1300
 41
0.1300
 70
0
  0
VERTEX
  8
21
 10
-5.0890
 20
19.4888
 30
0.0000
  0
VERTEX
  8
21
 10
-5.4130
 20
16.9544
 30
0.0000
  0
SEQEND
  8
0
  0
POLYLINE
  8
21
 66
1
 10
0.0000
 20
0.0000
 30
0.0000
 40
0.0650
 41
0.0650
 70
0
  0
VERTEX
  8
21
 10
-5.4452
 20
16.9586
 30
0.0000
 42
1.0000
  0
VERTEX
  8
21
 10
-5.3807
 20
16.9503
 30
0.0000
  0
SEQEND
  8
0
  0
POLYLINE
  8
21
 66
1
 10
0.0000
 20
0.0000
 30
0.0000
 40
0.0650
 41
0.0650
 70
0
  0
VERTEX
  8
21
 10
-5.0568
 20
19.4847
 30
0.0000
 42
1.0000
  0
VERTEX
  8
21
 10
-5.1213
 20
19.4930
 30
0.0000
  0
SEQEND
  8
0
  0
POLYLINE
  8
21
 66
1
 10
0.0000
 20
0.0000
 30
0.0000
 40
0.1300
 41
0.1300
 70
0
  0
VERTEX
  8
21
 10
-5.4130
 20
16.9544
 30
0.0000
  0
VERTEX
  8
21
 10
-4.7745
 20
16.9533
 30
0.0000
  0
SEQEND
  8
0
  0
POLYLINE
  8
21
 66
1
 10
0.0000
 20
0.0000
 30
0.0000
 40
0.0650
 41
0.0650
 70
0
  0
VERTEX
  8
21
 10
-4.7745
 20
16.9208
 30
0.0000
 42
1.0000
  0
VERTEX
  8
21
 10
-4.7744
 20
16.9858
 30
0.0000
  0
SEQEND
  8
0
  0
POLYLINE
  8
21
 66
1
 10
0.0000
 20
0.0000
 30
0.0000
 40
0.0650
 41
0.0650
 70
0
  0
VERTEX
  8
21
 10
-5.4129
 20
16.9869
 30
0.0000
 42
1.0000
  0
VERTEX
  8
21
 10
-5.4130
 20
16.9219
 30
0.0000
  0
SEQEND
  8
0
  0
POLYLINE
  8
21
 66
1
 10
0.0000
 20
0.0000
 30
0.0000
 40
0.1300
 41
0.1300
 70
0
  0
VERTEX
  8
21
 10
-4.7745
 20
16.9533
 30
0.0000
  0
VERTEX
  8
21
 10
-5.0890
 20
19.4888
 30
0.0000
  0
SEQEND
  8
0
  0
POLYLINE
  8
21
 66
1
 10
0.0000
 20
0.0000
 30
0.0000
 40
0.0650
 41
0.0650
 70
0
  0
VERTEX
  8
21
 10
-5.0568
 20
19.4928
 30
0.0000
 42
1.0000
  0
VERTEX
  8
21
 10
-5.1213
 20
19.4848
 30
0.0000
  0
SEQEND
  8
0
  0
POLYLINE
  8
21
 66
1
 10
0.0000
 20
0.0000
 30
0.0000
 40
0.0650
 41
0.0650
 70
0
  0
VERTEX
  8
21
 10
-4.8067
 20
16.9493
 30
0.0000
 42
1.0000
  0
VERTEX
  8
21
 10
-4.7422
 20
16.9573
 30
0.0000
  0
SEQEND
  8
0
  0
POLYLINE
  8
21
 66
1
 10
0.0000
 20
0.0000
 30
0.0000
 40
0.1300
 41
0.1300
 70
0
  0
VERTEX
  8
21
 10
-5.0890
 20
19.4888
 30
0.0000
  0
VERTEX
  8
21
 10
-5.2237
 20
16.9541
 30
0.0000
  0
SEQEND
  8
0
  0
POLYLINE
  8
21
 66
1
 10
0.0000
 20
0.0000
 30
0.0000
 40
0.0650
 41
0.0650
 70
0
  0
VERTEX
  8
21
 10
-5.2562
 20
16.9558
 30
0.0000
 42
1.0000
  0
VERTEX
  8
21
 10
-5.1913
 20
16.9524
 30
0.0000
  0
SEQEND
  8
0
  0
POLYLINE
  8
21
 66
1
 10
0.0000
 20
0.0000
 30
0.0000
 40
0.0650
 41
0.0650
 70
0
  0
VERTEX
  8
21
 10
-5.0566
 20
19.4871
 30
0.0000
 42
1.0000
  0
VERTEX
  8
21
 10
-5.1215
 20
19.4906
 30
0.0000
  0
SEQEND
  8
0
  0
POLYLINE
  8
21
 66
1
 10
0.0000
 20
0.0000
 30
0.0000
 40
0.1300
 41
0.1300
 70
0
  0
VERTEX
  8
21
 10
-4.9637
 20
16.9536
 30
0.0000
  0
VERTEX
  8
21
 10
-5.0890
 20
19.4888
 30
0.0000
  0
SEQEND
  8
0
  0
POLYLINE
  8
21
 66
1
 10
0.0000
 20
0.0000
 30
0.0000
 40
0.0650
 41
0.0650
 70
0
  0
VERTEX
  8
21
 10
-5.0566
 20
19.4905
 30
0.0000
 42
1.0000
  0
VERTEX
  8
21
 10
-5.1215
 20
19.4872
 30
0.0000
  0
SEQEND
  8
0
  0
POLYLINE
  8
21
 66
1
 10
0.0000
 20
0.0000
 30
0.0000
 40
0.0650
 41
0.0650
 70
0
  0
VERTEX
  8
21
 10
-4.9962
 20
16.9520
 30
0.0000
 42
1.0000
  0
VERTEX
  8
21
 10
-4.9313
 20
16.9552
 30
0.0000
  0
SEQEND
  8
0
  0
POLYLINE
  8
21
 66
1
 10
0.0000
 20
0.0000
 30
0.0000
 40
0.1300
 41
0.1300
 70
0
  0
VERTEX
  8
21
 10
-5.0890
 20
19.4888
 30
0.0000
  0
VERTEX
  8
21
 10
-5.3537
 20
16.9543
 30
0.0000
  0
SEQEND
  8
0
  0
POLYLINE
  8
21
 66
1
 10
0.0000
 20
0.0000
 30
0.0000
 40
0.0650
 41
0.0650
 70
0
  0
VERTEX
  8
21
 10
-5.3861
 20
16.9577
 30
0.0000
 42
1.0000
  0
VERTEX
  8
21
 10
-5.3214
 20
16.9510
 30
0.0000
  0
SEQEND
  8
0
  0
POLYLINE
  8
21
 66
1
 10
0.0000
 20
0.0000
 30
0.0000
 40
0.0650
 41
0.0650
 70
0
  0
VERTEX
  8
21
 10
-5.0567
 20
19.4855
 30
0.0000
 42
1.0000
  0
VERTEX
  8
21
 10
-5.1213
 20
19.4922
 30
0.0000
  0
SEQEND
  8
0
  0
POLYLINE
  8
21
 66
1
 10
0.0000
 20
0.0000
 30
0.0000
 40
0.1300
 41
0.1300
 70
0
  0
VERTEX
  8
21
 10
-4.8337
 20
16.9534
 30
0.0000
  0
VERTEX
  8
21
 10
-5.0890
 20
19.4888
 30
0.0000
  0
SEQEND
  8
0
  0
POLYLINE
  8
21
 66
1
 10
0.0000
 20
0.0000
 30
0.0000
 40
0.0650
 41
0.0650
 70
0
  0
VERTEX
  8
21
 10
-5.0567
 20
19.4921
 30
0.0000
 42
1.0000
  0
VERTEX
  8
21
 10
-5.1214
 20
19.4856
 30
0.0000
  0
SEQEND
  8
0
  0
POLYLINE
  8
21
 66
1
 10
0.0000
 20
0.0000
 30
0.0000
 40
0.0650
 41
0.0650
 70
0
  0
VERTEX
  8
21
 10
-4.8661
 20
16.9501
 30
0.0000
 42
1.0000
  0
VERTEX
  8
21
 10
-4.8014
 20
16.9566
 30
0.0000
  0
SEQEND
  8
0
  0
POLYLINE
  8
21
 66
1
 10
0.0000
 20
0.0000
 30
0.0000
 40
0.1524
 41
0.1524
 70
0
  0
VERTEX
  8
21
 10
-7.0247
 20
8.3725
 30
0.0000
  0
VERTEX
  8
21
 10
-7.3852
 20
8.8246
 30
0.0000
  0
SEQEND
  8
0
  0
POLYLINE
  8
21
 66
1
 10
0.0000
 20
0.0000
 30
0.0000
 40
0.0762
 41
0.0762
 70
0
  0
VERTEX
  8
21
 10
-7.3554
 20
8.8484
 30
0.0000
 42
1.0000
  0
VERTEX
  8
21
 10
-7.4150
 20
8.8009
 30
0.0000
  0
SEQEND
  8
0
  0
POLYLINE
  8
21
 66
1
 10
0.0000
 20
0.0000
 30
0.0000
 40
0.0762
 41
0.0762
 70
0
  0
VERTEX
  8
21
 10
-7.0545
 20
8.3487
 30
0.0000
 42
1.0000
  0
VERTEX
  8
21
 10
-6.9949
 20
8.3962
 30
0.0000
  0
SEQEND
  8
0
  0
POLYLINE
  8
21
 66
1
 10
0.0000
 20
0.0000
 30
0.0000
 40
0.1524
 41
0.1524
 70
0
  0
VERTEX
  8
21
 10
-7.3852
 20
8.8246
 30
0.0000
  0
VERTEX
  8
21
 10
-5.7596
 20
8.8218
 30
0.0000
  0
SEQEND
  8
0
  0
POLYLINE
  8
21
 66
1
 10
0.0000
 20
0.0000
 30
0.0000
 40
0.0762
 41
0.0762
 70
0
  0
VERTEX
  8
21
 10
-5.7597
 20
8.7837
 30
0.0000
 42
1.0000
  0
VERTEX
  8
21
 10
-5.7595
 20
8.8599
 30
0.0000
  0
SEQEND
  8
0
  0
POLYLINE
  8
21
 66
1
 10
0.0000
 20
0.0000
 30
0.0000
 40
0.0762
 41
0.0762
 70
0
  0
VERTEX
  8
21
 10
-7.3851
 20
8.8627
 30
0.0000
 42
1.0000
  0
VERTEX
  8
21
 10
-7.3853
 20
8.7865
 30
0.0000
  0
SEQEND
  8
0
  0
POLYLINE
  8
21
 66
1
 10
0.0000
 20
0.0000
 30
0.0000
 40
0.1524
 41
0.1524
 70
0
  0
VERTEX
  8
21
 10
-5.7604
 20
8.3702
 30
0.0000
  0
VERTEX
  8
21
 10
-5.7588
 20
9.2734
 30
0.0000
  0
SEQEND
  8
0
  0
POLYLINE
  8
21
 66
1
 10
0.0000
 20
0.0000
 30
0.0000
 40
0.0762
 41
0.0762
 70
0
  0
VERTEX
  8
21
 10
-5.7207
 20
9.2733
 30
0.0000
 42
1.0000
  0
VERTEX
  8
21
 10
-5.7969
 20
9.2734
 30
0.0000
  0
SEQEND
  8
0
  0
POLYLINE
  8
21
 66
1
 10
0.0000
 20
0.0000
 30
0.0000
 40
0.0762
 41
0.0762
 70
0
  0
VERTEX
  8
21
 10
-5.7985
 20
8.3703
 30
0.0000
 42
1.0000
  0
VERTEX
  8
21
 10
-5.7223
 20
8.3702
 30
0.0000
  0
SEQEND
  8
0
  0
POLYLINE
  8
21
 66
1
 10
0.0000
 20
0.0000
 30
0.0000
 40
0.1524
 41
0.1524
 70
0
  0
VERTEX
  8
21
 10
-6.6608
 20
9.9349
 30
0.0000
  0
VERTEX
  8
21
 10
-6.6598
 20
10.4768
 30
0.0000
  0
SEQEND
  8
0
  0
POLYLINE
  8
21
 66
1
 10
0.0000
 20
0.0000
 30
0.0000
 40
0.0762
 41
0.0762
 70
0
  0
VERTEX
  8
21
 10
-6.6217
 20
10.4767
 30
0.0000
 42
1.0000
  0
VERTEX
  8
21
 10
-6.6979
 20
10.4769
 30
0.0000
  0
SEQEND
  8
0
  0
POLYLINE
  8
21
 66
1
 10
0.0000
 20
0.0000
 30
0.0000
 40
0.0762
 41
0.0762
 70
0
  0
VERTEX
  8
21
 10
-6.6989
 20
9.9350
 30
0.0000
 42
1.0000
  0
VERTEX
  8
21
 10
-6.6227
 20
9.9349
 30
0.0000
  0
SEQEND
  8
0
  0
POLYLINE
  8
21
 66
1
 10
0.0000
 20
0.0000
 30
0.0000
 40
0.1524
 41
0.1524
 70
0
  0
VERTEX
  8
21
 10
-6.2979
 20
10.8374
 30
0.0000
 42
0.4142
  0
VERTEX
  8
21
 10
-6.6598
 20
10.4768
 30
0.0000
  0
SEQEND
  8
0
  0
POLYLINE
  8
21
 66
1
 10
0.0000
 20
0.0000
 30
0.0000
 40
0.0762
 41
0.0762
 70
0
  0
VERTEX
  8
21
 10
-6.2980
 20
10.7993
 30
0.0000
 42
1.0000
  0
VERTEX
  8
21
 10
-6.2979
 20
10.8755
 30
0.0000
  0
SEQEND
  8
0
  0
POLYLINE
  8
21
 66
1
 10
0.0000
 20
0.0000
 30
0.0000
 40
0.0762
 41
0.0762
 70
0
  0
VERTEX
  8
21
 10
-6.6979
 20
10.4769
 30
0.0000
 42
1.0000
  0
VERTEX
  8
21
 10
-6.6217
 20
10.4767
 30
0.0000
  0
SEQEND
  8
0
  0
POLYLINE
  8
21
 66
1
 10
0.0000
 20
0.0000
 30
0.0000
 40
0.1524
 41
0.1524
 70
0
  0
VERTEX
  8
21
 10
-6.2979
 20
10.8374
 30
0.0000
  0
VERTEX
  8
21
 10
-6.2076
 20
10.8373
 30
0.0000
  0
SEQEND
  8
0
  0
POLYLINE
  8
21
 66
1
 10
0.0000
 20
0.0000
 30
0.0000
 40
0.0762
 41
0.0762
 70
0
  0
VERTEX
  8
21
 10
-6.2077
 20
10.7992
 30
0.0000
 42
1.0000
  0
VERTEX
  8
21
 10
-6.2076
 20
10.8754
 30
0.0000
  0
SEQEND
  8
0
  0
POLYLINE
  8
21
 66
1
 10
0.0000
 20
0.0000
 30
0.0000
 40
0.0762
 41
0.0762
 70
0
  0
VERTEX
  8
21
 10
-6.2979
 20
10.8755
 30
0.0000
 42
1.0000
  0
VERTEX
  8
21
 10
-6.2980
 20
10.7993
 30
0.0000
  0
SEQEND
  8
0
  0
POLYLINE
  8
21
 66
1
 10
0.0000
 20
0.0000
 30
0.0000
 40
0.1524
 41
0.1524
 70
0
  0
VERTEX
  8
21
 10
-6.2092
 20
9.9342
 30
0.0000
 42
1.0000
  0
VERTEX
  8
21
 10
-6.2076
 20
10.8373
 30
0.0000
  0
SEQEND
  8
0
  0
POLYLINE
  8
21
 66
1
 10
0.0000
 20
0.0000
 30
0.0000
 40
0.0762
 41
0.0762
 70
0
  0
VERTEX
  8
21
 10
-6.2091
 20
9.9722
 30
0.0000
 42
1.0000
  0
VERTEX
  8
21
 10
-6.2093
 20
9.8961
 30
0.0000
  0
SEQEND
  8
0
  0
POLYLINE
  8
21
 66
1
 10
0.0000
 20
0.0000
 30
0.0000
 40
0.0762
 41
0.0762
 70
0
  0
VERTEX
  8
21
 10
-6.2076
 20
10.8754
 30
0.0000
 42
1.0000
  0
VERTEX
  8
21
 10
-6.2077
 20
10.7992
 30
0.0000
  0
SEQEND
  8
0
  0
POLYLINE
  8
21
 66
1
 10
0.0000
 20
0.0000
 30
0.0000
 40
0.1524
 41
0.1524
 70
0
  0
VERTEX
  8
21
 10
-6.2092
 20
9.9342
 30
0.0000
  0
VERTEX
  8
21
 10
-6.6608
 20
9.9349
 30
0.0000
  0
SEQEND
  8
0
  0
POLYLINE
  8
21
 66
1
 10
0.0000
 20
0.0000
 30
0.0000
 40
0.0762
 41
0.0762
 70
0
  0
VERTEX
  8
21
 10
-6.6607
 20
9.9730
 30
0.0000
 42
1.0000
  0
VERTEX
  8
21
 10
-6.6608
 20
9.8968
 30
0.0000
  0
SEQEND
  8
0
  0
POLYLINE
  8
21
 66
1
 10
0.0000
 20
0.0000
 30
0.0000
 40
0.0762
 41
0.0762
 70
0
  0
VERTEX
  8
21
 10
-6.2093
 20
9.8961
 30
0.0000
 42
1.0000
  0
VERTEX
  8
21
 10
-6.2091
 20
9.9722
 30
0.0000
  0
SEQEND
  8
0
  0
POLYLINE
  8
21
 66
1
 10
0.0000
 20
0.0000
 30
0.0000
 40
0.1524
 41
0.1524
 70
0
  0
VERTEX
  8
21
 10
-7.3820
 20
10.6587
 30
0.0000
 42
0.4142
  0
VERTEX
  8
21
 10
-6.6608
 20
9.9349
 30
0.0000
  0
SEQEND
  8
0
  0
POLYLINE
  8
21
 66
1
 10
0.0000
 20
0.0000
 30
0.0000
 40
0.0762
 41
0.0762
 70
0
  0
VERTEX
  8
21
 10
-7.3439
 20
10.6586
 30
0.0000
 42
1.0000
  0
VERTEX
  8
21
 10
-7.4201
 20
10.6588
 30
0.0000
  0
SEQEND
  8
0
  0
POLYLINE
  8
21
 66
1
 10
0.0000
 20
0.0000
 30
0.0000
 40
0.0762
 41
0.0762
 70
0
  0
VERTEX
  8
21
 10
-6.6608
 20
9.8968
 30
0.0000
 42
1.0000
  0
VERTEX
  8
21
 10
-6.6607
 20
9.9730
 30
0.0000
  0
SEQEND
  8
0
  0
POLYLINE
  8
21
 66
1
 10
0.0000
 20
0.0000
 30
0.0000
 40
0.1524
 41
0.1524
 70
0
  0
VERTEX
  8
21
 10
-5.7550
 20
11.4339
 30
0.0000
  0
VERTEX
  8
21
 10
-5.8453
 20
11.4341
 30
0.0000
  0
SEQEND
  8
0
  0
POLYLINE
  8
21
 66
1
 10
0.0000
 20
0.0000
 30
0.0000
 40
0.0762
 41
0.0762
 70
0
  0
VERTEX
  8
21
 10
-5.8453
 20
11.4722
 30
0.0000
 42
1.0000
  0
VERTEX
  8
21
 10
-5.8454
 20
11.3960
 30
0.0000
  0
SEQEND
  8
0
  0
POLYLINE
  8
21
 66
1
 10
0.0000
 20
0.0000
 30
0.0000
 40
0.0762
 41
0.0762
 70
0
  0
VERTEX
  8
21
 10
-5.7551
 20
11.3958
 30
0.0000
 42
1.0000
  0
VERTEX
  8
21
 10
-5.7550
 20
11.4720
 30
0.0000
  0
SEQEND
  8
0
  0
POLYLINE
  8
21
 66
1
 10
0.0000
 20
0.0000
 30
0.0000
 40
0.1524
 41
0.1524
 70
0
  0
VERTEX
  8
21
 10
-5.8453
 20
11.4341
 30
0.0000
  0
VERTEX
  8
21
 10
-5.8452
 20
11.5244
 30
0.0000
  0
SEQEND
  8
0
  0
POLYLINE
  8
21
 66
1
 10
0.0000
 20
0.0000
 30
0.0000
 40
0.0762
 41
0.0762
 70
0
  0
VERTEX
  8
21
 10
-5.8071
 20
11.5243
 30
0.0000
 42
1.0000
  0
VERTEX
  8
21
 10
-5.8833
 20
11.5245
 30
0.0000
  0
SEQEND
  8
0
  0
POLYLINE
  8
21
 66
1
 10
0.0000
 20
0.0000
 30
0.0000
 40
0.0762
 41
0.0762
 70
0
  0
VERTEX
  8
21
 10
-5.8834
 20
11.4342
 30
0.0000
 42
1.0000
  0
VERTEX
  8
21
 10
-5.8072
 20
11.4340
 30
0.0000
  0
SEQEND
  8
0
  0
POLYLINE
  8
21
 66
1
 10
0.0000
 20
0.0000
 30
0.0000
 40
0.1524
 41
0.1524
 70
0
  0
VERTEX
  8
21
 10
-5.8452
 20
11.5244
 30
0.0000
  0
VERTEX
  8
21
 10
-5.7549
 20
11.5242
 30
0.0000
  0
SEQEND
  8
0
  0
POLYLINE
  8
21
 66
1
 10
0.0000
 20
0.0000
 30
0.0000
 40
0.0762
 41
0.0762
 70
0
  0
VERTEX
  8
21
 10
-5.7549
 20
11.4861
 30
0.0000
 42
1.0000
  0
VERTEX
  8
21
 10
-5.7548
 20
11.5623
 30
0.0000
  0
SEQEND
  8
0
  0
POLYLINE
  8
21
 66
1
 10
0.0000
 20
0.0000
 30
0.0000
 40
0.0762
 41
0.0762
 70
0
  0
VERTEX
  8
21
 10
-5.8451
 20
11.5625
 30
0.0000
 42
1.0000
  0
VERTEX
  8
21
 10
-5.8453
 20
11.4863
 30
0.0000
  0
SEQEND
  8
0
  0
POLYLINE
  8
21
 66
1
 10
0.0000
 20
0.0000
 30
0.0000
 40
0.1524
 41
0.1524
 70
0
  0
VERTEX
  8
21
 10
-5.7549
 20
11.5242
 30
0.0000
  0
VERTEX
  8
21
 10
-5.7550
 20
11.4339
 30
0.0000
  0
SEQEND
  8
0
  0
POLYLINE
  8
21
 66
1
 10
0.0000
 20
0.0000
 30
0.0000
 40
0.0762
 41
0.0762
 70
0
  0
VERTEX
  8
21
 10
-5.7931
 20
11.4340
 30
0.0000
 42
1.0000
  0
VERTEX
  8
21
 10
-5.7169
 20
11.4339
 30
0.0000
  0
SEQEND
  8
0
  0
POLYLINE
  8
21
 66
1
 10
0.0000
 20
0.0000
 30
0.0000
 40
0.0762
 41
0.0762
 70
0
  0
VERTEX
  8
21
 10
-5.7168
 20
11.5242
 30
0.0000
 42
1.0000
  0
VERTEX
  8
21
 10
-5.7930
 20
11.5243
 30
0.0000
  0
SEQEND
  8
0
  0
POLYLINE
  8
21
 66
1
 10
0.0000
 20
0.0000
 30
0.0000
 40
0.1524
 41
0.1524
 70
0
  0
VERTEX
  8
21
 10
-7.0182
 20
12.1239
 30
0.0000
  0
VERTEX
  8
21
 10
-7.3786
 20
12.5761
 30
0.0000
  0
SEQEND
  8
0
  0
POLYLINE
  8
21
 66
1
 10
0.0000
 20
0.0000
 30
0.0000
 40
0.0762
 41
0.0762
 70
0
  0
VERTEX
  8
21
 10
-7.3488
 20
12.5999
 30
0.0000
 42
1.0000
  0
VERTEX
  8
21
 10
-7.4084
 20
12.5524
 30
0.0000
  0
SEQEND
  8
0
  0
POLYLINE
  8
21
 66
1
 10
0.0000
 20
0.0000
 30
0.0000
 40
0.0762
 41
0.0762
 70
0
  0
VERTEX
  8
21
 10
-7.0480
 20
12.1002
 30
0.0000
 42
1.0000
  0
VERTEX
  8
21
 10
-6.9884
 20
12.1477
 30
0.0000
  0
SEQEND
  8
0
  0
POLYLINE
  8
21
 66
1
 10
0.0000
 20
0.0000
 30
0.0000
 40
0.1524
 41
0.1524
 70
0
  0
VERTEX
  8
21
 10
-7.3786
 20
12.5761
 30
0.0000
  0
VERTEX
  8
21
 10
-5.7530
 20
12.5733
 30
0.0000
  0
SEQEND
  8
0
  0
POLYLINE
  8
21
 66
1
 10
0.0000
 20
0.0000
 30
0.0000
 40
0.0762
 41
0.0762
 70
0
  0
VERTEX
  8
21
 10
-5.7531
 20
12.5352
 30
0.0000
 42
1.0000
  0
VERTEX
  8
21
 10
-5.7530
 20
12.6114
 30
0.0000
  0
SEQEND
  8
0
  0
POLYLINE
  8
21
 66
1
 10
0.0000
 20
0.0000
 30
0.0000
 40
0.0762
 41
0.0762
 70
0
  0
VERTEX
  8
21
 10
-7.3786
 20
12.6142
 30
0.0000
 42
1.0000
  0
VERTEX
  8
21
 10
-7.3787
 20
12.5380
 30
0.0000
  0
SEQEND
  8
0
  0
POLYLINE
  8
21
 66
1
 10
0.0000
 20
0.0000
 30
0.0000
 40
0.1524
 41
0.1524
 70
0
  0
VERTEX
  8
21
 10
-5.7538
 20
12.1217
 30
0.0000
  0
VERTEX
  8
21
 10
-5.7523
 20
13.0248
 30
0.0000
  0
SEQEND
  8
0
  0
POLYLINE
  8
21
 66
1
 10
0.0000
 20
0.0000
 30
0.0000
 40
0.0762
 41
0.0762
 70
0
  0
VERTEX
  8
21
 10
-5.7142
 20
13.0248
 30
0.0000
 42
1.0000
  0
VERTEX
  8
21
 10
-5.7904
 20
13.0249
 30
0.0000
  0
SEQEND
  8
0
  0
POLYLINE
  8
21
 66
1
 10
0.0000
 20
0.0000
 30
0.0000
 40
0.0762
 41
0.0762
 70
0
  0
VERTEX
  8
21
 10
-5.7919
 20
12.1218
 30
0.0000
 42
1.0000
  0
VERTEX
  8
21
 10
-5.7157
 20
12.1217
 30
0.0000
  0
SEQEND
  8
0
  0
POLYLINE
  8
21
 66
1
 10
0.0000
 20
0.0000
 30
0.0000
 40
0.1524
 41
0.1524
 70
0
  0
VERTEX
  8
21
 10
-7.3761
 20
14.0489
 30
0.0000
  0
VERTEX
  8
21
 10
-6.1123
 20
13.6855
 30
0.0000
  0
SEQEND
  8
0
  0
POLYLINE
  8
21
 66
1
 10
0.0000
 20
0.0000
 30
0.0000
 40
0.0762
 41
0.0762
 70
0
  0
VERTEX
  8
21
 10
-6.1229
 20
13.6488
 30
0.0000
 42
1.0000
  0
VERTEX
  8
21
 10
-6.1018
 20
13.7221
 30
0.0000
  0
SEQEND
  8
0
  0
POLYLINE
  8
21
 66
1
 10
0.0000
 20
0.0000
 30
0.0000
 40
0.0762
 41
0.0762
 70
0
  0
VERTEX
  8
21
 10
-7.3655
 20
14.0855
 30
0.0000
 42
1.0000
  0
VERTEX
  8
21
 10
-7.3866
 20
14.0123
 30
0.0000
  0
SEQEND
  8
0
  0
POLYLINE
  8
21
 66
1
 10
0.0000
 20
0.0000
 30
0.0000
 40
0.1524
 41
0.1524
 70
0
  0
VERTEX
  8
21
 10
-6.1123
 20
13.6855
 30
0.0000
  0
VERTEX
  8
21
 10
-6.1108
 20
14.5886
 30
0.0000
  0
SEQEND
  8
0
  0
POLYLINE
  8
21
 66
1
 10
0.0000
 20
0.0000
 30
0.0000
 40
0.0762
 41
0.0762
 70
0
  0
VERTEX
  8
21
 10
-6.0727
 20
14.5885
 30
0.0000
 42
1.0000
  0
VERTEX
  8
21
 10
-6.1489
 20
14.5886
 30
0.0000
  0
SEQEND
  8
0
  0
POLYLINE
  8
21
 66
1
 10
0.0000
 20
0.0000
 30
0.0000
 40
0.0762
 41
0.0762
 70
0
  0
VERTEX
  8
21
 10
-6.1504
 20
13.6855
 30
0.0000
 42
1.0000
  0
VERTEX
  8
21
 10
-6.0742
 20
13.6854
 30
0.0000
  0
SEQEND
  8
0
  0
POLYLINE
  8
21
 66
1
 10
0.0000
 20
0.0000
 30
0.0000
 40
0.1524
 41
0.1524
 70
0
  0
VERTEX
  8
21
 10
-6.4725
 20
14.3183
 30
0.0000
  0
VERTEX
  8
21
 10
-5.7500
 20
14.3170
 30
0.0000
  0
SEQEND
  8
0
  0
POLYLINE
  8
21
 66
1
 10
0.0000
 20
0.0000
 30
0.0000
 40
0.0762
 41
0.0762
 70
0
  0
VERTEX
  8
21
 10
-5.7501
 20
14.2789
 30
0.0000
 42
1.0000
  0
VERTEX
  8
21
 10
-5.7499
 20
14.3551
 30
0.0000
  0
SEQEND
  8
0
  0
POLYLINE
  8
21
 66
1
 10
0.0000
 20
0.0000
 30
0.0000
 40
0.0762
 41
0.0762
 70
0
  0
VERTEX
  8
21
 10
-6.4724
 20
14.3564
 30
0.0000
 42
1.0000
  0
VERTEX
  8
21
 10
-6.4725
 20
14.2802
 30
0.0000
  0
SEQEND
  8
0
  0
POLYLINE
  8
21
 66
1
 10
0.0000
 20
0.0000
 30
0.0000
 40
0.1524
 41
0.1524
 70
0
  0
VERTEX
  8
21
 10
3.3528
 20
1.7370
 30
0.0000
 42
1.0000
  0
VERTEX
  8
21
 10
3.3528
 20
2.1238
 30
0.0000
 42
1.0000
  0
VERTEX
  8
21
 10
3.3528
 20
1.7370
 30
0.0000
  0
SEQEND
  8
0
  0
ENDSEC
  0
EOF
