G04 EAGLE Gerber RS-274X export*
G75*
%MOMM*%
%FSLAX34Y34*%
%LPD*%
%INCopper Layer 2*%
%IPPOS*%
%AMOC8*
5,1,8,0,0,1.08239X$1,22.5*%
G01*
%ADD10C,0.152400*%
%ADD11C,0.503200*%
%ADD12C,1.524000*%
%ADD13C,0.952500*%
%ADD14C,0.406400*%
%ADD15C,0.508000*%

G36*
X43670Y5142D02*
X43670Y5142D01*
X43741Y5144D01*
X43790Y5162D01*
X43842Y5170D01*
X43905Y5204D01*
X43972Y5229D01*
X44013Y5261D01*
X44059Y5286D01*
X44108Y5338D01*
X44164Y5382D01*
X44193Y5426D01*
X44228Y5464D01*
X44259Y5529D01*
X44297Y5589D01*
X44310Y5640D01*
X44332Y5687D01*
X44340Y5758D01*
X44357Y5828D01*
X44353Y5880D01*
X44359Y5931D01*
X44344Y6002D01*
X44338Y6073D01*
X44318Y6121D01*
X44307Y6172D01*
X44270Y6233D01*
X44242Y6299D01*
X44197Y6355D01*
X44181Y6383D01*
X44163Y6398D01*
X44137Y6430D01*
X43047Y7520D01*
X41655Y10881D01*
X41655Y14519D01*
X43047Y17880D01*
X45620Y20453D01*
X48981Y21845D01*
X52619Y21845D01*
X55980Y20453D01*
X58553Y17880D01*
X58609Y17743D01*
X58671Y17644D01*
X58731Y17543D01*
X58736Y17539D01*
X58739Y17534D01*
X58829Y17459D01*
X58918Y17383D01*
X58924Y17381D01*
X58929Y17377D01*
X59037Y17335D01*
X59146Y17291D01*
X59154Y17290D01*
X59158Y17289D01*
X59177Y17288D01*
X59313Y17273D01*
X67687Y17273D01*
X67802Y17292D01*
X67918Y17309D01*
X67924Y17311D01*
X67930Y17312D01*
X68033Y17367D01*
X68137Y17420D01*
X68142Y17425D01*
X68147Y17428D01*
X68228Y17513D01*
X68310Y17596D01*
X68313Y17602D01*
X68317Y17606D01*
X68325Y17623D01*
X68391Y17743D01*
X68447Y17880D01*
X71020Y20453D01*
X74381Y21845D01*
X78019Y21845D01*
X81380Y20453D01*
X83953Y17880D01*
X85345Y14519D01*
X85345Y10881D01*
X83953Y7520D01*
X82863Y6430D01*
X82821Y6372D01*
X82772Y6320D01*
X82750Y6273D01*
X82719Y6231D01*
X82698Y6162D01*
X82668Y6097D01*
X82662Y6045D01*
X82647Y5995D01*
X82649Y5924D01*
X82641Y5853D01*
X82652Y5802D01*
X82653Y5750D01*
X82678Y5682D01*
X82693Y5612D01*
X82720Y5567D01*
X82738Y5519D01*
X82783Y5463D01*
X82819Y5401D01*
X82859Y5367D01*
X82891Y5327D01*
X82952Y5288D01*
X83006Y5241D01*
X83055Y5222D01*
X83098Y5194D01*
X83168Y5176D01*
X83234Y5149D01*
X83306Y5141D01*
X83337Y5133D01*
X83360Y5135D01*
X83401Y5131D01*
X94399Y5131D01*
X94470Y5142D01*
X94541Y5144D01*
X94590Y5162D01*
X94642Y5170D01*
X94705Y5204D01*
X94772Y5229D01*
X94813Y5261D01*
X94859Y5286D01*
X94908Y5338D01*
X94964Y5382D01*
X94993Y5426D01*
X95028Y5464D01*
X95059Y5529D01*
X95097Y5589D01*
X95110Y5640D01*
X95132Y5687D01*
X95140Y5758D01*
X95157Y5828D01*
X95153Y5880D01*
X95159Y5931D01*
X95144Y6002D01*
X95138Y6073D01*
X95118Y6121D01*
X95107Y6172D01*
X95070Y6233D01*
X95042Y6299D01*
X94997Y6355D01*
X94981Y6383D01*
X94963Y6398D01*
X94937Y6430D01*
X93847Y7520D01*
X92455Y10881D01*
X92455Y14519D01*
X93847Y17880D01*
X96420Y20453D01*
X99781Y21845D01*
X103419Y21845D01*
X106780Y20453D01*
X109353Y17880D01*
X110745Y14519D01*
X110745Y10881D01*
X109353Y7520D01*
X108263Y6430D01*
X108221Y6372D01*
X108172Y6320D01*
X108150Y6273D01*
X108119Y6231D01*
X108098Y6162D01*
X108068Y6097D01*
X108062Y6045D01*
X108047Y5995D01*
X108049Y5924D01*
X108041Y5853D01*
X108052Y5802D01*
X108053Y5750D01*
X108078Y5682D01*
X108093Y5612D01*
X108120Y5567D01*
X108138Y5519D01*
X108183Y5463D01*
X108219Y5401D01*
X108259Y5367D01*
X108291Y5327D01*
X108352Y5288D01*
X108406Y5241D01*
X108455Y5222D01*
X108498Y5194D01*
X108568Y5176D01*
X108634Y5149D01*
X108706Y5141D01*
X108737Y5133D01*
X108760Y5135D01*
X108801Y5131D01*
X119799Y5131D01*
X119870Y5142D01*
X119941Y5144D01*
X119990Y5162D01*
X120042Y5170D01*
X120105Y5204D01*
X120172Y5229D01*
X120213Y5261D01*
X120259Y5286D01*
X120308Y5338D01*
X120364Y5382D01*
X120393Y5426D01*
X120428Y5464D01*
X120459Y5529D01*
X120497Y5589D01*
X120510Y5640D01*
X120532Y5687D01*
X120540Y5758D01*
X120557Y5828D01*
X120553Y5880D01*
X120559Y5931D01*
X120544Y6002D01*
X120538Y6073D01*
X120518Y6121D01*
X120507Y6172D01*
X120470Y6233D01*
X120442Y6299D01*
X120397Y6355D01*
X120381Y6383D01*
X120363Y6398D01*
X120337Y6430D01*
X119247Y7520D01*
X117855Y10881D01*
X117855Y14519D01*
X119247Y17880D01*
X121820Y20453D01*
X125181Y21845D01*
X128819Y21845D01*
X132180Y20453D01*
X134753Y17880D01*
X136145Y14519D01*
X136145Y10881D01*
X134753Y7520D01*
X133663Y6430D01*
X133621Y6372D01*
X133572Y6320D01*
X133550Y6273D01*
X133519Y6231D01*
X133498Y6162D01*
X133468Y6097D01*
X133462Y6045D01*
X133447Y5995D01*
X133449Y5924D01*
X133441Y5853D01*
X133452Y5802D01*
X133453Y5750D01*
X133478Y5682D01*
X133493Y5612D01*
X133520Y5567D01*
X133538Y5519D01*
X133583Y5463D01*
X133619Y5401D01*
X133659Y5367D01*
X133691Y5327D01*
X133752Y5288D01*
X133806Y5241D01*
X133855Y5222D01*
X133898Y5194D01*
X133968Y5176D01*
X134034Y5149D01*
X134106Y5141D01*
X134137Y5133D01*
X134160Y5135D01*
X134201Y5131D01*
X145199Y5131D01*
X145270Y5142D01*
X145341Y5144D01*
X145390Y5162D01*
X145442Y5170D01*
X145505Y5204D01*
X145572Y5229D01*
X145613Y5261D01*
X145659Y5286D01*
X145708Y5338D01*
X145764Y5382D01*
X145793Y5426D01*
X145828Y5464D01*
X145859Y5529D01*
X145897Y5589D01*
X145910Y5640D01*
X145932Y5687D01*
X145940Y5758D01*
X145957Y5828D01*
X145953Y5880D01*
X145959Y5931D01*
X145944Y6002D01*
X145938Y6073D01*
X145918Y6121D01*
X145907Y6172D01*
X145870Y6233D01*
X145842Y6299D01*
X145797Y6355D01*
X145781Y6383D01*
X145763Y6398D01*
X145737Y6430D01*
X144647Y7520D01*
X143255Y10881D01*
X143255Y14519D01*
X144647Y17880D01*
X147220Y20453D01*
X150581Y21845D01*
X154219Y21845D01*
X157580Y20453D01*
X160153Y17880D01*
X160209Y17743D01*
X160271Y17643D01*
X160331Y17543D01*
X160336Y17539D01*
X160339Y17534D01*
X160429Y17459D01*
X160518Y17383D01*
X160524Y17381D01*
X160528Y17377D01*
X160637Y17335D01*
X160746Y17291D01*
X160753Y17290D01*
X160758Y17289D01*
X160776Y17288D01*
X160913Y17273D01*
X169287Y17273D01*
X169402Y17292D01*
X169518Y17309D01*
X169524Y17311D01*
X169530Y17312D01*
X169633Y17367D01*
X169737Y17420D01*
X169742Y17425D01*
X169747Y17428D01*
X169828Y17512D01*
X169910Y17596D01*
X169913Y17602D01*
X169917Y17606D01*
X169925Y17623D01*
X169991Y17743D01*
X170047Y17880D01*
X172620Y20453D01*
X175981Y21845D01*
X179619Y21845D01*
X182980Y20453D01*
X185553Y17880D01*
X186945Y14519D01*
X186945Y10881D01*
X185553Y7520D01*
X184463Y6430D01*
X184421Y6372D01*
X184372Y6320D01*
X184350Y6273D01*
X184319Y6231D01*
X184298Y6162D01*
X184268Y6097D01*
X184262Y6045D01*
X184247Y5995D01*
X184249Y5924D01*
X184241Y5853D01*
X184252Y5802D01*
X184253Y5750D01*
X184278Y5682D01*
X184293Y5612D01*
X184320Y5567D01*
X184338Y5519D01*
X184383Y5463D01*
X184419Y5401D01*
X184459Y5367D01*
X184491Y5327D01*
X184552Y5288D01*
X184606Y5241D01*
X184655Y5222D01*
X184698Y5194D01*
X184768Y5176D01*
X184834Y5149D01*
X184906Y5141D01*
X184937Y5133D01*
X184960Y5135D01*
X185001Y5131D01*
X195999Y5131D01*
X196070Y5142D01*
X196141Y5144D01*
X196190Y5162D01*
X196242Y5170D01*
X196305Y5204D01*
X196372Y5229D01*
X196413Y5261D01*
X196459Y5286D01*
X196508Y5338D01*
X196564Y5382D01*
X196593Y5426D01*
X196628Y5464D01*
X196659Y5529D01*
X196697Y5589D01*
X196710Y5640D01*
X196732Y5687D01*
X196740Y5758D01*
X196757Y5828D01*
X196753Y5880D01*
X196759Y5931D01*
X196744Y6002D01*
X196738Y6073D01*
X196718Y6121D01*
X196707Y6172D01*
X196670Y6233D01*
X196642Y6299D01*
X196597Y6355D01*
X196581Y6383D01*
X196563Y6398D01*
X196537Y6430D01*
X195447Y7520D01*
X194055Y10881D01*
X194055Y14519D01*
X195447Y17880D01*
X198020Y20453D01*
X201381Y21845D01*
X205019Y21845D01*
X208380Y20453D01*
X210953Y17880D01*
X212345Y14519D01*
X212345Y10881D01*
X210953Y7520D01*
X209863Y6430D01*
X209821Y6372D01*
X209772Y6320D01*
X209750Y6273D01*
X209719Y6231D01*
X209698Y6162D01*
X209668Y6097D01*
X209662Y6045D01*
X209647Y5995D01*
X209649Y5924D01*
X209641Y5853D01*
X209652Y5802D01*
X209653Y5750D01*
X209678Y5682D01*
X209693Y5612D01*
X209720Y5567D01*
X209738Y5519D01*
X209783Y5463D01*
X209819Y5401D01*
X209859Y5367D01*
X209891Y5327D01*
X209952Y5288D01*
X210006Y5241D01*
X210055Y5222D01*
X210098Y5194D01*
X210168Y5176D01*
X210234Y5149D01*
X210306Y5141D01*
X210337Y5133D01*
X210360Y5135D01*
X210401Y5131D01*
X221399Y5131D01*
X221470Y5142D01*
X221541Y5144D01*
X221590Y5162D01*
X221642Y5170D01*
X221705Y5204D01*
X221772Y5229D01*
X221813Y5261D01*
X221859Y5286D01*
X221908Y5338D01*
X221964Y5382D01*
X221993Y5426D01*
X222028Y5464D01*
X222059Y5529D01*
X222097Y5589D01*
X222110Y5640D01*
X222132Y5687D01*
X222140Y5758D01*
X222157Y5828D01*
X222153Y5880D01*
X222159Y5931D01*
X222144Y6002D01*
X222138Y6073D01*
X222118Y6121D01*
X222107Y6172D01*
X222070Y6233D01*
X222042Y6299D01*
X221997Y6355D01*
X221981Y6383D01*
X221963Y6398D01*
X221937Y6430D01*
X220847Y7520D01*
X219455Y10881D01*
X219455Y14519D01*
X220847Y17880D01*
X223420Y20453D01*
X226781Y21845D01*
X230419Y21845D01*
X233780Y20453D01*
X236353Y17880D01*
X237745Y14519D01*
X237745Y10881D01*
X236353Y7520D01*
X235263Y6430D01*
X235221Y6372D01*
X235172Y6320D01*
X235150Y6273D01*
X235119Y6231D01*
X235098Y6162D01*
X235068Y6097D01*
X235062Y6045D01*
X235047Y5995D01*
X235049Y5924D01*
X235041Y5853D01*
X235052Y5802D01*
X235053Y5750D01*
X235078Y5682D01*
X235093Y5612D01*
X235120Y5567D01*
X235138Y5519D01*
X235183Y5463D01*
X235219Y5401D01*
X235259Y5367D01*
X235291Y5327D01*
X235352Y5288D01*
X235406Y5241D01*
X235455Y5222D01*
X235498Y5194D01*
X235568Y5176D01*
X235634Y5149D01*
X235706Y5141D01*
X235737Y5133D01*
X235760Y5135D01*
X235801Y5131D01*
X245446Y5131D01*
X245458Y5133D01*
X245470Y5131D01*
X245579Y5152D01*
X245689Y5170D01*
X245699Y5176D01*
X245711Y5178D01*
X245808Y5234D01*
X245906Y5286D01*
X245914Y5294D01*
X245925Y5300D01*
X245999Y5383D01*
X246076Y5464D01*
X246081Y5475D01*
X246089Y5484D01*
X246132Y5586D01*
X246179Y5687D01*
X246180Y5699D01*
X246185Y5710D01*
X246194Y5821D01*
X246206Y5931D01*
X246204Y5943D01*
X246205Y5955D01*
X246178Y6063D01*
X246154Y6172D01*
X246148Y6182D01*
X246145Y6194D01*
X246062Y6339D01*
X245310Y7375D01*
X244584Y8800D01*
X244089Y10321D01*
X243954Y11177D01*
X253238Y11177D01*
X253258Y11180D01*
X253277Y11178D01*
X253379Y11200D01*
X253481Y11217D01*
X253498Y11226D01*
X253518Y11230D01*
X253607Y11283D01*
X253698Y11332D01*
X253712Y11346D01*
X253729Y11356D01*
X253796Y11435D01*
X253867Y11510D01*
X253876Y11528D01*
X253889Y11543D01*
X253927Y11639D01*
X253971Y11733D01*
X253973Y11753D01*
X253981Y11771D01*
X253999Y11938D01*
X253999Y12701D01*
X254001Y12701D01*
X254001Y11938D01*
X254004Y11918D01*
X254002Y11899D01*
X254024Y11797D01*
X254041Y11695D01*
X254050Y11678D01*
X254054Y11658D01*
X254107Y11569D01*
X254156Y11478D01*
X254170Y11464D01*
X254180Y11447D01*
X254259Y11380D01*
X254334Y11309D01*
X254352Y11300D01*
X254367Y11287D01*
X254463Y11248D01*
X254557Y11205D01*
X254577Y11203D01*
X254595Y11195D01*
X254762Y11177D01*
X264046Y11177D01*
X263911Y10321D01*
X263416Y8800D01*
X262690Y7375D01*
X261938Y6339D01*
X261933Y6329D01*
X261924Y6320D01*
X261877Y6219D01*
X261828Y6120D01*
X261826Y6108D01*
X261821Y6097D01*
X261809Y5986D01*
X261793Y5876D01*
X261795Y5864D01*
X261794Y5853D01*
X261817Y5744D01*
X261838Y5634D01*
X261843Y5624D01*
X261846Y5612D01*
X261903Y5516D01*
X261957Y5419D01*
X261966Y5411D01*
X261972Y5401D01*
X262057Y5329D01*
X262139Y5254D01*
X262150Y5249D01*
X262159Y5241D01*
X262263Y5199D01*
X262364Y5155D01*
X262376Y5154D01*
X262387Y5149D01*
X262554Y5131D01*
X270846Y5131D01*
X270858Y5133D01*
X270870Y5131D01*
X270979Y5152D01*
X271089Y5170D01*
X271099Y5176D01*
X271111Y5178D01*
X271208Y5234D01*
X271306Y5286D01*
X271314Y5294D01*
X271325Y5300D01*
X271399Y5383D01*
X271476Y5464D01*
X271481Y5475D01*
X271489Y5484D01*
X271532Y5586D01*
X271579Y5687D01*
X271580Y5699D01*
X271585Y5710D01*
X271594Y5821D01*
X271606Y5931D01*
X271604Y5943D01*
X271605Y5955D01*
X271578Y6063D01*
X271554Y6172D01*
X271548Y6182D01*
X271545Y6194D01*
X271462Y6339D01*
X270710Y7375D01*
X269984Y8800D01*
X269489Y10321D01*
X269354Y11177D01*
X278638Y11177D01*
X278658Y11180D01*
X278677Y11178D01*
X278779Y11200D01*
X278881Y11217D01*
X278898Y11226D01*
X278918Y11230D01*
X279007Y11283D01*
X279098Y11332D01*
X279112Y11346D01*
X279129Y11356D01*
X279196Y11435D01*
X279267Y11510D01*
X279276Y11528D01*
X279289Y11543D01*
X279327Y11639D01*
X279371Y11733D01*
X279373Y11753D01*
X279381Y11771D01*
X279399Y11938D01*
X279399Y12701D01*
X279401Y12701D01*
X279401Y11938D01*
X279404Y11918D01*
X279402Y11899D01*
X279424Y11797D01*
X279441Y11695D01*
X279450Y11678D01*
X279454Y11658D01*
X279507Y11569D01*
X279556Y11478D01*
X279570Y11464D01*
X279580Y11447D01*
X279659Y11380D01*
X279734Y11309D01*
X279752Y11300D01*
X279767Y11287D01*
X279863Y11248D01*
X279957Y11205D01*
X279977Y11203D01*
X279995Y11195D01*
X280162Y11177D01*
X289446Y11177D01*
X289311Y10321D01*
X288816Y8800D01*
X288090Y7375D01*
X287338Y6339D01*
X287333Y6329D01*
X287324Y6320D01*
X287277Y6219D01*
X287228Y6120D01*
X287226Y6108D01*
X287221Y6097D01*
X287209Y5986D01*
X287193Y5876D01*
X287195Y5864D01*
X287194Y5853D01*
X287217Y5744D01*
X287238Y5634D01*
X287243Y5624D01*
X287246Y5612D01*
X287303Y5516D01*
X287357Y5419D01*
X287366Y5411D01*
X287372Y5401D01*
X287457Y5329D01*
X287539Y5254D01*
X287550Y5249D01*
X287559Y5241D01*
X287663Y5199D01*
X287764Y5155D01*
X287776Y5154D01*
X287787Y5149D01*
X287954Y5131D01*
X297599Y5131D01*
X297670Y5142D01*
X297741Y5144D01*
X297790Y5162D01*
X297842Y5170D01*
X297905Y5204D01*
X297972Y5229D01*
X298013Y5261D01*
X298059Y5286D01*
X298108Y5338D01*
X298164Y5382D01*
X298193Y5426D01*
X298228Y5464D01*
X298259Y5529D01*
X298297Y5589D01*
X298310Y5640D01*
X298332Y5687D01*
X298340Y5758D01*
X298357Y5828D01*
X298353Y5880D01*
X298359Y5931D01*
X298344Y6002D01*
X298338Y6073D01*
X298318Y6121D01*
X298307Y6172D01*
X298270Y6233D01*
X298242Y6299D01*
X298197Y6355D01*
X298181Y6383D01*
X298163Y6398D01*
X298137Y6430D01*
X297047Y7520D01*
X295655Y10881D01*
X295655Y14519D01*
X297047Y17880D01*
X299620Y20453D01*
X302981Y21845D01*
X306619Y21845D01*
X309980Y20453D01*
X312553Y17880D01*
X312609Y17743D01*
X312671Y17643D01*
X312731Y17543D01*
X312736Y17539D01*
X312739Y17534D01*
X312829Y17459D01*
X312918Y17383D01*
X312924Y17381D01*
X312928Y17377D01*
X313037Y17335D01*
X313146Y17291D01*
X313153Y17290D01*
X313158Y17289D01*
X313176Y17288D01*
X313313Y17273D01*
X321687Y17273D01*
X321802Y17292D01*
X321918Y17309D01*
X321924Y17311D01*
X321930Y17312D01*
X322033Y17367D01*
X322137Y17420D01*
X322142Y17425D01*
X322147Y17428D01*
X322228Y17512D01*
X322310Y17596D01*
X322313Y17602D01*
X322317Y17606D01*
X322325Y17623D01*
X322391Y17743D01*
X322447Y17880D01*
X325020Y20453D01*
X328381Y21845D01*
X332019Y21845D01*
X335380Y20453D01*
X337953Y17880D01*
X339345Y14519D01*
X339345Y10881D01*
X337953Y7520D01*
X336863Y6430D01*
X336821Y6372D01*
X336772Y6320D01*
X336750Y6273D01*
X336719Y6231D01*
X336698Y6162D01*
X336668Y6097D01*
X336662Y6045D01*
X336647Y5995D01*
X336649Y5924D01*
X336641Y5853D01*
X336652Y5802D01*
X336653Y5750D01*
X336678Y5682D01*
X336693Y5612D01*
X336720Y5567D01*
X336738Y5519D01*
X336783Y5463D01*
X336819Y5401D01*
X336859Y5367D01*
X336891Y5327D01*
X336952Y5288D01*
X337006Y5241D01*
X337055Y5222D01*
X337098Y5194D01*
X337168Y5176D01*
X337234Y5149D01*
X337306Y5141D01*
X337337Y5133D01*
X337360Y5135D01*
X337401Y5131D01*
X340000Y5131D01*
X340026Y5135D01*
X340075Y5134D01*
X340876Y5213D01*
X340903Y5221D01*
X340932Y5221D01*
X341093Y5268D01*
X342574Y5881D01*
X342629Y5916D01*
X342690Y5941D01*
X342754Y5993D01*
X342783Y6011D01*
X342795Y6026D01*
X342821Y6046D01*
X343954Y7179D01*
X343992Y7233D01*
X344038Y7279D01*
X344078Y7353D01*
X344098Y7379D01*
X344103Y7398D01*
X344119Y7426D01*
X344732Y8907D01*
X344739Y8935D01*
X344752Y8960D01*
X344787Y9124D01*
X344866Y9925D01*
X344864Y9952D01*
X344869Y10000D01*
X344869Y218600D01*
X344865Y218626D01*
X344866Y218675D01*
X344787Y219476D01*
X344779Y219503D01*
X344779Y219532D01*
X344732Y219693D01*
X344119Y221174D01*
X344084Y221229D01*
X344059Y221290D01*
X344007Y221354D01*
X343989Y221383D01*
X343974Y221395D01*
X343954Y221421D01*
X342821Y222554D01*
X342767Y222592D01*
X342721Y222638D01*
X342647Y222678D01*
X342621Y222698D01*
X342602Y222703D01*
X342574Y222719D01*
X341093Y223332D01*
X341065Y223339D01*
X341040Y223352D01*
X340876Y223387D01*
X340075Y223466D01*
X340048Y223464D01*
X340000Y223469D01*
X337401Y223469D01*
X337330Y223458D01*
X337259Y223456D01*
X337210Y223438D01*
X337158Y223430D01*
X337095Y223396D01*
X337028Y223371D01*
X336987Y223339D01*
X336941Y223314D01*
X336892Y223262D01*
X336836Y223218D01*
X336807Y223174D01*
X336772Y223136D01*
X336741Y223071D01*
X336703Y223011D01*
X336690Y222960D01*
X336668Y222913D01*
X336660Y222842D01*
X336643Y222772D01*
X336647Y222720D01*
X336641Y222669D01*
X336656Y222598D01*
X336662Y222527D01*
X336682Y222479D01*
X336693Y222428D01*
X336730Y222367D01*
X336758Y222301D01*
X336803Y222245D01*
X336819Y222217D01*
X336837Y222202D01*
X336863Y222170D01*
X337953Y221080D01*
X339345Y217719D01*
X339345Y214081D01*
X337953Y210720D01*
X335380Y208147D01*
X332019Y206755D01*
X328381Y206755D01*
X325020Y208147D01*
X322447Y210720D01*
X321055Y214081D01*
X321055Y217719D01*
X322447Y221080D01*
X323537Y222170D01*
X323579Y222228D01*
X323628Y222280D01*
X323650Y222327D01*
X323681Y222369D01*
X323702Y222438D01*
X323732Y222503D01*
X323738Y222555D01*
X323753Y222605D01*
X323751Y222676D01*
X323759Y222747D01*
X323748Y222798D01*
X323747Y222850D01*
X323722Y222918D01*
X323707Y222988D01*
X323680Y223033D01*
X323662Y223081D01*
X323617Y223137D01*
X323581Y223199D01*
X323541Y223233D01*
X323509Y223273D01*
X323448Y223312D01*
X323394Y223359D01*
X323345Y223378D01*
X323302Y223406D01*
X323232Y223424D01*
X323166Y223451D01*
X323094Y223459D01*
X323063Y223467D01*
X323040Y223465D01*
X322999Y223469D01*
X312001Y223469D01*
X311930Y223458D01*
X311859Y223456D01*
X311810Y223438D01*
X311758Y223430D01*
X311695Y223396D01*
X311628Y223371D01*
X311587Y223339D01*
X311541Y223314D01*
X311492Y223262D01*
X311436Y223218D01*
X311407Y223174D01*
X311372Y223136D01*
X311341Y223071D01*
X311303Y223011D01*
X311290Y222960D01*
X311268Y222913D01*
X311260Y222842D01*
X311243Y222772D01*
X311247Y222720D01*
X311241Y222669D01*
X311256Y222598D01*
X311262Y222527D01*
X311282Y222479D01*
X311293Y222428D01*
X311330Y222367D01*
X311358Y222301D01*
X311403Y222245D01*
X311419Y222217D01*
X311437Y222202D01*
X311463Y222170D01*
X312553Y221080D01*
X313945Y217719D01*
X313945Y214081D01*
X312553Y210720D01*
X309980Y208147D01*
X306619Y206755D01*
X302981Y206755D01*
X299620Y208147D01*
X297047Y210720D01*
X295655Y214081D01*
X295655Y217719D01*
X297047Y221080D01*
X298137Y222170D01*
X298179Y222228D01*
X298228Y222280D01*
X298250Y222327D01*
X298281Y222369D01*
X298302Y222438D01*
X298332Y222503D01*
X298338Y222555D01*
X298353Y222605D01*
X298351Y222676D01*
X298359Y222747D01*
X298348Y222798D01*
X298347Y222850D01*
X298322Y222918D01*
X298307Y222988D01*
X298280Y223033D01*
X298262Y223081D01*
X298217Y223137D01*
X298181Y223199D01*
X298141Y223233D01*
X298109Y223273D01*
X298048Y223312D01*
X297994Y223359D01*
X297945Y223378D01*
X297902Y223406D01*
X297832Y223424D01*
X297766Y223451D01*
X297694Y223459D01*
X297663Y223467D01*
X297640Y223465D01*
X297599Y223469D01*
X286601Y223469D01*
X286530Y223458D01*
X286459Y223456D01*
X286410Y223438D01*
X286358Y223430D01*
X286295Y223396D01*
X286228Y223371D01*
X286187Y223339D01*
X286141Y223314D01*
X286092Y223262D01*
X286036Y223218D01*
X286007Y223174D01*
X285972Y223136D01*
X285941Y223071D01*
X285903Y223011D01*
X285890Y222960D01*
X285868Y222913D01*
X285860Y222842D01*
X285843Y222772D01*
X285847Y222720D01*
X285841Y222669D01*
X285856Y222598D01*
X285862Y222527D01*
X285882Y222479D01*
X285893Y222428D01*
X285930Y222367D01*
X285958Y222301D01*
X286003Y222245D01*
X286019Y222217D01*
X286037Y222202D01*
X286063Y222170D01*
X287153Y221080D01*
X288545Y217719D01*
X288545Y214081D01*
X287153Y210720D01*
X284580Y208147D01*
X281219Y206755D01*
X277581Y206755D01*
X274220Y208147D01*
X271647Y210720D01*
X270255Y214081D01*
X270255Y217719D01*
X271647Y221080D01*
X272737Y222170D01*
X272779Y222228D01*
X272828Y222280D01*
X272850Y222327D01*
X272881Y222369D01*
X272902Y222438D01*
X272932Y222503D01*
X272938Y222555D01*
X272953Y222605D01*
X272951Y222676D01*
X272959Y222747D01*
X272948Y222798D01*
X272947Y222850D01*
X272922Y222918D01*
X272907Y222988D01*
X272880Y223033D01*
X272862Y223081D01*
X272817Y223137D01*
X272781Y223199D01*
X272741Y223233D01*
X272709Y223273D01*
X272648Y223312D01*
X272594Y223359D01*
X272545Y223378D01*
X272502Y223406D01*
X272432Y223424D01*
X272366Y223451D01*
X272294Y223459D01*
X272263Y223467D01*
X272240Y223465D01*
X272199Y223469D01*
X261201Y223469D01*
X261130Y223458D01*
X261059Y223456D01*
X261010Y223438D01*
X260958Y223430D01*
X260895Y223396D01*
X260828Y223371D01*
X260787Y223339D01*
X260741Y223314D01*
X260692Y223262D01*
X260636Y223218D01*
X260607Y223174D01*
X260572Y223136D01*
X260541Y223071D01*
X260503Y223011D01*
X260490Y222960D01*
X260468Y222913D01*
X260460Y222842D01*
X260443Y222772D01*
X260447Y222720D01*
X260441Y222669D01*
X260456Y222598D01*
X260462Y222527D01*
X260482Y222479D01*
X260493Y222428D01*
X260530Y222367D01*
X260558Y222301D01*
X260603Y222245D01*
X260619Y222217D01*
X260637Y222202D01*
X260663Y222170D01*
X261753Y221080D01*
X263145Y217719D01*
X263145Y214081D01*
X261753Y210720D01*
X259180Y208147D01*
X255819Y206755D01*
X252181Y206755D01*
X248820Y208147D01*
X246247Y210720D01*
X244855Y214081D01*
X244855Y217719D01*
X246247Y221080D01*
X247337Y222170D01*
X247379Y222228D01*
X247428Y222280D01*
X247450Y222327D01*
X247481Y222369D01*
X247502Y222438D01*
X247532Y222503D01*
X247538Y222555D01*
X247553Y222605D01*
X247551Y222676D01*
X247559Y222747D01*
X247548Y222798D01*
X247547Y222850D01*
X247522Y222918D01*
X247507Y222988D01*
X247480Y223033D01*
X247462Y223081D01*
X247417Y223137D01*
X247381Y223199D01*
X247341Y223233D01*
X247309Y223273D01*
X247248Y223312D01*
X247194Y223359D01*
X247145Y223378D01*
X247102Y223406D01*
X247032Y223424D01*
X246966Y223451D01*
X246894Y223459D01*
X246863Y223467D01*
X246840Y223465D01*
X246799Y223469D01*
X235801Y223469D01*
X235730Y223458D01*
X235659Y223456D01*
X235610Y223438D01*
X235558Y223430D01*
X235495Y223396D01*
X235428Y223371D01*
X235387Y223339D01*
X235341Y223314D01*
X235292Y223262D01*
X235236Y223218D01*
X235207Y223174D01*
X235172Y223136D01*
X235141Y223071D01*
X235103Y223011D01*
X235090Y222960D01*
X235068Y222913D01*
X235060Y222842D01*
X235043Y222772D01*
X235047Y222720D01*
X235041Y222669D01*
X235056Y222598D01*
X235062Y222527D01*
X235082Y222479D01*
X235093Y222428D01*
X235130Y222367D01*
X235158Y222301D01*
X235203Y222245D01*
X235219Y222217D01*
X235237Y222202D01*
X235263Y222170D01*
X236353Y221080D01*
X237745Y217719D01*
X237745Y214081D01*
X236353Y210720D01*
X233780Y208147D01*
X230419Y206755D01*
X226781Y206755D01*
X223420Y208147D01*
X220847Y210720D01*
X219455Y214081D01*
X219455Y217719D01*
X220847Y221080D01*
X221937Y222170D01*
X221979Y222228D01*
X222028Y222280D01*
X222050Y222327D01*
X222081Y222369D01*
X222102Y222438D01*
X222132Y222503D01*
X222138Y222555D01*
X222153Y222605D01*
X222151Y222676D01*
X222159Y222747D01*
X222148Y222798D01*
X222147Y222850D01*
X222122Y222918D01*
X222107Y222988D01*
X222080Y223033D01*
X222062Y223081D01*
X222017Y223137D01*
X221981Y223199D01*
X221941Y223233D01*
X221909Y223273D01*
X221848Y223312D01*
X221794Y223359D01*
X221745Y223378D01*
X221702Y223406D01*
X221632Y223424D01*
X221566Y223451D01*
X221494Y223459D01*
X221463Y223467D01*
X221440Y223465D01*
X221399Y223469D01*
X210401Y223469D01*
X210330Y223458D01*
X210259Y223456D01*
X210210Y223438D01*
X210158Y223430D01*
X210095Y223396D01*
X210028Y223371D01*
X209987Y223339D01*
X209941Y223314D01*
X209892Y223262D01*
X209836Y223218D01*
X209807Y223174D01*
X209772Y223136D01*
X209741Y223071D01*
X209703Y223011D01*
X209690Y222960D01*
X209668Y222913D01*
X209660Y222842D01*
X209643Y222772D01*
X209647Y222720D01*
X209641Y222669D01*
X209656Y222598D01*
X209662Y222527D01*
X209682Y222479D01*
X209693Y222428D01*
X209730Y222367D01*
X209758Y222301D01*
X209803Y222245D01*
X209819Y222217D01*
X209837Y222202D01*
X209863Y222170D01*
X210953Y221080D01*
X212345Y217719D01*
X212345Y214081D01*
X210953Y210720D01*
X208380Y208147D01*
X205019Y206755D01*
X201381Y206755D01*
X198020Y208147D01*
X195447Y210720D01*
X194055Y214081D01*
X194055Y217719D01*
X195447Y221080D01*
X196537Y222170D01*
X196579Y222228D01*
X196628Y222280D01*
X196650Y222327D01*
X196681Y222369D01*
X196702Y222438D01*
X196732Y222503D01*
X196738Y222555D01*
X196753Y222605D01*
X196751Y222676D01*
X196759Y222747D01*
X196748Y222798D01*
X196747Y222850D01*
X196722Y222918D01*
X196707Y222988D01*
X196680Y223033D01*
X196662Y223081D01*
X196617Y223137D01*
X196581Y223199D01*
X196541Y223233D01*
X196509Y223273D01*
X196448Y223312D01*
X196394Y223359D01*
X196345Y223378D01*
X196302Y223406D01*
X196232Y223424D01*
X196166Y223451D01*
X196094Y223459D01*
X196063Y223467D01*
X196040Y223465D01*
X195999Y223469D01*
X185001Y223469D01*
X184930Y223458D01*
X184859Y223456D01*
X184810Y223438D01*
X184758Y223430D01*
X184695Y223396D01*
X184628Y223371D01*
X184587Y223339D01*
X184541Y223314D01*
X184492Y223262D01*
X184436Y223218D01*
X184407Y223174D01*
X184372Y223136D01*
X184341Y223071D01*
X184303Y223011D01*
X184290Y222960D01*
X184268Y222913D01*
X184260Y222842D01*
X184243Y222772D01*
X184247Y222720D01*
X184241Y222669D01*
X184256Y222598D01*
X184262Y222527D01*
X184282Y222479D01*
X184293Y222428D01*
X184330Y222367D01*
X184358Y222301D01*
X184403Y222245D01*
X184419Y222217D01*
X184437Y222202D01*
X184463Y222170D01*
X185553Y221080D01*
X186945Y217719D01*
X186945Y214081D01*
X185553Y210720D01*
X182980Y208147D01*
X179619Y206755D01*
X175981Y206755D01*
X172620Y208147D01*
X170047Y210720D01*
X168655Y214081D01*
X168655Y217719D01*
X170047Y221080D01*
X171137Y222170D01*
X171179Y222228D01*
X171228Y222280D01*
X171250Y222327D01*
X171281Y222369D01*
X171302Y222438D01*
X171332Y222503D01*
X171338Y222555D01*
X171353Y222605D01*
X171351Y222676D01*
X171359Y222747D01*
X171348Y222798D01*
X171347Y222850D01*
X171322Y222918D01*
X171307Y222988D01*
X171280Y223033D01*
X171262Y223081D01*
X171217Y223137D01*
X171181Y223199D01*
X171141Y223233D01*
X171109Y223273D01*
X171048Y223312D01*
X170994Y223359D01*
X170945Y223378D01*
X170902Y223406D01*
X170832Y223424D01*
X170766Y223451D01*
X170694Y223459D01*
X170663Y223467D01*
X170640Y223465D01*
X170599Y223469D01*
X159601Y223469D01*
X159530Y223458D01*
X159459Y223456D01*
X159410Y223438D01*
X159358Y223430D01*
X159295Y223396D01*
X159228Y223371D01*
X159187Y223339D01*
X159141Y223314D01*
X159092Y223262D01*
X159036Y223218D01*
X159007Y223174D01*
X158972Y223136D01*
X158941Y223071D01*
X158903Y223011D01*
X158890Y222960D01*
X158868Y222913D01*
X158860Y222842D01*
X158843Y222772D01*
X158847Y222720D01*
X158841Y222669D01*
X158856Y222598D01*
X158862Y222527D01*
X158882Y222479D01*
X158893Y222428D01*
X158930Y222367D01*
X158958Y222301D01*
X159003Y222245D01*
X159019Y222217D01*
X159037Y222202D01*
X159063Y222170D01*
X160153Y221080D01*
X161545Y217719D01*
X161545Y214081D01*
X160153Y210720D01*
X157580Y208147D01*
X154219Y206755D01*
X150581Y206755D01*
X147220Y208147D01*
X144647Y210720D01*
X143255Y214081D01*
X143255Y217719D01*
X144647Y221080D01*
X145737Y222170D01*
X145779Y222228D01*
X145828Y222280D01*
X145850Y222327D01*
X145881Y222369D01*
X145902Y222438D01*
X145932Y222503D01*
X145938Y222555D01*
X145953Y222605D01*
X145951Y222676D01*
X145959Y222747D01*
X145948Y222798D01*
X145947Y222850D01*
X145922Y222918D01*
X145907Y222988D01*
X145880Y223033D01*
X145862Y223081D01*
X145817Y223137D01*
X145781Y223199D01*
X145741Y223233D01*
X145709Y223273D01*
X145648Y223312D01*
X145594Y223359D01*
X145545Y223378D01*
X145502Y223406D01*
X145432Y223424D01*
X145366Y223451D01*
X145294Y223459D01*
X145263Y223467D01*
X145240Y223465D01*
X145199Y223469D01*
X135554Y223469D01*
X135542Y223467D01*
X135530Y223469D01*
X135421Y223448D01*
X135311Y223430D01*
X135301Y223424D01*
X135289Y223422D01*
X135192Y223366D01*
X135094Y223314D01*
X135086Y223306D01*
X135075Y223300D01*
X135001Y223217D01*
X134924Y223136D01*
X134919Y223125D01*
X134911Y223116D01*
X134868Y223014D01*
X134821Y222913D01*
X134820Y222901D01*
X134815Y222890D01*
X134806Y222779D01*
X134794Y222669D01*
X134796Y222657D01*
X134795Y222645D01*
X134822Y222537D01*
X134846Y222428D01*
X134852Y222418D01*
X134855Y222406D01*
X134938Y222261D01*
X135690Y221225D01*
X136416Y219800D01*
X136911Y218279D01*
X137046Y217423D01*
X127762Y217423D01*
X127742Y217420D01*
X127723Y217422D01*
X127621Y217400D01*
X127519Y217383D01*
X127502Y217374D01*
X127482Y217370D01*
X127393Y217317D01*
X127302Y217268D01*
X127288Y217254D01*
X127271Y217244D01*
X127204Y217165D01*
X127133Y217090D01*
X127124Y217072D01*
X127111Y217057D01*
X127073Y216961D01*
X127029Y216867D01*
X127027Y216847D01*
X127019Y216829D01*
X127001Y216662D01*
X127001Y215899D01*
X126999Y215899D01*
X126999Y216662D01*
X126996Y216682D01*
X126998Y216701D01*
X126976Y216803D01*
X126959Y216905D01*
X126950Y216922D01*
X126946Y216942D01*
X126893Y217031D01*
X126844Y217122D01*
X126830Y217136D01*
X126820Y217153D01*
X126741Y217220D01*
X126666Y217291D01*
X126648Y217300D01*
X126633Y217313D01*
X126537Y217352D01*
X126443Y217395D01*
X126423Y217397D01*
X126405Y217405D01*
X126238Y217423D01*
X116954Y217423D01*
X117089Y218279D01*
X117584Y219800D01*
X118310Y221225D01*
X119062Y222261D01*
X119067Y222271D01*
X119076Y222280D01*
X119123Y222381D01*
X119172Y222480D01*
X119174Y222492D01*
X119179Y222503D01*
X119191Y222614D01*
X119207Y222724D01*
X119205Y222736D01*
X119206Y222747D01*
X119183Y222856D01*
X119162Y222966D01*
X119157Y222976D01*
X119154Y222988D01*
X119097Y223084D01*
X119043Y223181D01*
X119034Y223189D01*
X119028Y223199D01*
X118943Y223271D01*
X118861Y223346D01*
X118850Y223351D01*
X118841Y223359D01*
X118737Y223401D01*
X118636Y223445D01*
X118624Y223446D01*
X118613Y223451D01*
X118446Y223469D01*
X110154Y223469D01*
X110142Y223467D01*
X110130Y223469D01*
X110021Y223448D01*
X109911Y223430D01*
X109901Y223424D01*
X109889Y223422D01*
X109792Y223366D01*
X109694Y223314D01*
X109686Y223306D01*
X109675Y223300D01*
X109601Y223217D01*
X109524Y223136D01*
X109519Y223125D01*
X109511Y223116D01*
X109468Y223014D01*
X109421Y222913D01*
X109420Y222901D01*
X109415Y222890D01*
X109406Y222779D01*
X109394Y222669D01*
X109396Y222657D01*
X109395Y222645D01*
X109422Y222537D01*
X109446Y222428D01*
X109452Y222418D01*
X109455Y222406D01*
X109538Y222261D01*
X110290Y221225D01*
X111016Y219800D01*
X111511Y218279D01*
X111646Y217423D01*
X102362Y217423D01*
X102342Y217420D01*
X102323Y217422D01*
X102221Y217400D01*
X102119Y217383D01*
X102102Y217374D01*
X102082Y217370D01*
X101993Y217317D01*
X101902Y217268D01*
X101888Y217254D01*
X101871Y217244D01*
X101804Y217165D01*
X101733Y217090D01*
X101724Y217072D01*
X101711Y217057D01*
X101673Y216961D01*
X101629Y216867D01*
X101627Y216847D01*
X101619Y216829D01*
X101601Y216662D01*
X101601Y215899D01*
X101599Y215899D01*
X101599Y216662D01*
X101596Y216682D01*
X101598Y216701D01*
X101576Y216803D01*
X101559Y216905D01*
X101550Y216922D01*
X101546Y216942D01*
X101493Y217031D01*
X101444Y217122D01*
X101430Y217136D01*
X101420Y217153D01*
X101341Y217220D01*
X101266Y217291D01*
X101248Y217300D01*
X101233Y217313D01*
X101137Y217352D01*
X101043Y217395D01*
X101023Y217397D01*
X101005Y217405D01*
X100838Y217423D01*
X91554Y217423D01*
X91689Y218279D01*
X92184Y219800D01*
X92910Y221225D01*
X93662Y222261D01*
X93667Y222271D01*
X93676Y222280D01*
X93723Y222381D01*
X93772Y222480D01*
X93774Y222492D01*
X93779Y222503D01*
X93791Y222614D01*
X93807Y222724D01*
X93805Y222736D01*
X93806Y222747D01*
X93783Y222856D01*
X93762Y222966D01*
X93757Y222976D01*
X93754Y222988D01*
X93697Y223084D01*
X93643Y223181D01*
X93634Y223189D01*
X93628Y223199D01*
X93543Y223271D01*
X93461Y223346D01*
X93450Y223351D01*
X93441Y223359D01*
X93337Y223401D01*
X93236Y223445D01*
X93224Y223446D01*
X93213Y223451D01*
X93046Y223469D01*
X83401Y223469D01*
X83330Y223458D01*
X83259Y223456D01*
X83210Y223438D01*
X83158Y223430D01*
X83095Y223396D01*
X83028Y223371D01*
X82987Y223339D01*
X82941Y223314D01*
X82892Y223262D01*
X82836Y223218D01*
X82807Y223174D01*
X82772Y223136D01*
X82741Y223071D01*
X82703Y223011D01*
X82690Y222960D01*
X82668Y222913D01*
X82660Y222842D01*
X82643Y222772D01*
X82647Y222720D01*
X82641Y222669D01*
X82656Y222598D01*
X82662Y222527D01*
X82682Y222479D01*
X82693Y222428D01*
X82730Y222367D01*
X82758Y222301D01*
X82803Y222245D01*
X82819Y222217D01*
X82837Y222202D01*
X82863Y222170D01*
X83953Y221080D01*
X85345Y217719D01*
X85345Y214081D01*
X83953Y210720D01*
X81380Y208147D01*
X78019Y206755D01*
X74381Y206755D01*
X71020Y208147D01*
X68447Y210720D01*
X67055Y214081D01*
X67055Y217719D01*
X68447Y221080D01*
X69537Y222170D01*
X69579Y222228D01*
X69628Y222280D01*
X69650Y222327D01*
X69681Y222369D01*
X69702Y222438D01*
X69732Y222503D01*
X69738Y222555D01*
X69753Y222605D01*
X69751Y222676D01*
X69759Y222747D01*
X69748Y222798D01*
X69747Y222850D01*
X69722Y222918D01*
X69707Y222988D01*
X69680Y223033D01*
X69662Y223081D01*
X69617Y223137D01*
X69581Y223199D01*
X69541Y223233D01*
X69509Y223273D01*
X69448Y223312D01*
X69394Y223359D01*
X69345Y223378D01*
X69302Y223406D01*
X69232Y223424D01*
X69166Y223451D01*
X69094Y223459D01*
X69063Y223467D01*
X69040Y223465D01*
X68999Y223469D01*
X58001Y223469D01*
X57930Y223458D01*
X57859Y223456D01*
X57810Y223438D01*
X57758Y223430D01*
X57695Y223396D01*
X57628Y223371D01*
X57587Y223339D01*
X57541Y223314D01*
X57492Y223262D01*
X57436Y223218D01*
X57407Y223174D01*
X57372Y223136D01*
X57341Y223071D01*
X57303Y223011D01*
X57290Y222960D01*
X57268Y222913D01*
X57260Y222842D01*
X57243Y222772D01*
X57247Y222720D01*
X57241Y222669D01*
X57256Y222598D01*
X57262Y222527D01*
X57282Y222479D01*
X57293Y222428D01*
X57330Y222367D01*
X57358Y222301D01*
X57403Y222245D01*
X57419Y222217D01*
X57437Y222202D01*
X57463Y222170D01*
X58553Y221080D01*
X59945Y217719D01*
X59945Y214081D01*
X58553Y210720D01*
X55980Y208147D01*
X52619Y206755D01*
X48981Y206755D01*
X45620Y208147D01*
X43047Y210720D01*
X41655Y214081D01*
X41655Y217719D01*
X43047Y221080D01*
X44137Y222170D01*
X44179Y222228D01*
X44228Y222280D01*
X44250Y222327D01*
X44281Y222369D01*
X44302Y222438D01*
X44332Y222503D01*
X44338Y222555D01*
X44353Y222605D01*
X44351Y222676D01*
X44359Y222747D01*
X44348Y222798D01*
X44347Y222850D01*
X44322Y222918D01*
X44307Y222988D01*
X44280Y223033D01*
X44262Y223081D01*
X44217Y223137D01*
X44181Y223199D01*
X44141Y223233D01*
X44109Y223273D01*
X44048Y223312D01*
X43994Y223359D01*
X43945Y223378D01*
X43902Y223406D01*
X43832Y223424D01*
X43766Y223451D01*
X43694Y223459D01*
X43663Y223467D01*
X43640Y223465D01*
X43599Y223469D01*
X32601Y223469D01*
X32530Y223458D01*
X32459Y223456D01*
X32410Y223438D01*
X32358Y223430D01*
X32295Y223396D01*
X32228Y223371D01*
X32187Y223339D01*
X32141Y223314D01*
X32092Y223262D01*
X32036Y223218D01*
X32007Y223174D01*
X31972Y223136D01*
X31941Y223071D01*
X31903Y223011D01*
X31890Y222960D01*
X31868Y222913D01*
X31860Y222842D01*
X31843Y222772D01*
X31847Y222720D01*
X31841Y222669D01*
X31856Y222598D01*
X31862Y222527D01*
X31882Y222479D01*
X31893Y222428D01*
X31930Y222367D01*
X31958Y222301D01*
X32003Y222245D01*
X32019Y222217D01*
X32037Y222202D01*
X32063Y222170D01*
X33153Y221080D01*
X34545Y217719D01*
X34545Y214081D01*
X33153Y210720D01*
X30580Y208147D01*
X27219Y206755D01*
X23581Y206755D01*
X20220Y208147D01*
X17647Y210720D01*
X16255Y214081D01*
X16255Y217719D01*
X17647Y221080D01*
X18737Y222170D01*
X18779Y222228D01*
X18828Y222280D01*
X18850Y222327D01*
X18881Y222369D01*
X18902Y222438D01*
X18932Y222503D01*
X18938Y222555D01*
X18953Y222605D01*
X18951Y222676D01*
X18959Y222747D01*
X18948Y222798D01*
X18947Y222850D01*
X18922Y222918D01*
X18907Y222988D01*
X18880Y223033D01*
X18862Y223081D01*
X18817Y223137D01*
X18781Y223199D01*
X18741Y223233D01*
X18709Y223273D01*
X18648Y223312D01*
X18594Y223359D01*
X18545Y223378D01*
X18502Y223406D01*
X18432Y223424D01*
X18366Y223451D01*
X18294Y223459D01*
X18263Y223467D01*
X18240Y223465D01*
X18199Y223469D01*
X10000Y223469D01*
X9974Y223465D01*
X9925Y223466D01*
X9124Y223387D01*
X9097Y223379D01*
X9068Y223379D01*
X8907Y223332D01*
X7426Y222719D01*
X7371Y222684D01*
X7310Y222659D01*
X7246Y222607D01*
X7217Y222589D01*
X7205Y222574D01*
X7179Y222554D01*
X6046Y221421D01*
X6008Y221367D01*
X5962Y221321D01*
X5922Y221247D01*
X5902Y221221D01*
X5897Y221202D01*
X5881Y221174D01*
X5268Y219693D01*
X5261Y219665D01*
X5248Y219640D01*
X5213Y219476D01*
X5134Y218675D01*
X5136Y218648D01*
X5131Y218600D01*
X5131Y216164D01*
X5130Y216159D01*
X5091Y22444D01*
X5106Y22353D01*
X5113Y22262D01*
X5125Y22232D01*
X5131Y22201D01*
X5173Y22120D01*
X5209Y22036D01*
X5235Y22004D01*
X5246Y21984D01*
X5269Y21961D01*
X5314Y21905D01*
X21899Y5353D01*
X21973Y5300D01*
X22042Y5241D01*
X22073Y5229D01*
X22099Y5210D01*
X22186Y5183D01*
X22270Y5149D01*
X22312Y5145D01*
X22334Y5138D01*
X22366Y5139D01*
X22437Y5131D01*
X43599Y5131D01*
X43670Y5142D01*
G37*
%LPC*%
G36*
X199993Y98634D02*
X199993Y98634D01*
X197909Y100717D01*
X197909Y103664D01*
X199993Y105747D01*
X202939Y105747D01*
X203595Y105092D01*
X203611Y105080D01*
X203623Y105064D01*
X203711Y105008D01*
X203795Y104948D01*
X203814Y104942D01*
X203830Y104931D01*
X203931Y104906D01*
X204030Y104876D01*
X204050Y104876D01*
X204069Y104871D01*
X204172Y104879D01*
X204276Y104882D01*
X204294Y104889D01*
X204314Y104890D01*
X204409Y104931D01*
X204507Y104966D01*
X204522Y104979D01*
X204540Y104987D01*
X204671Y105092D01*
X205327Y105747D01*
X208273Y105747D01*
X209183Y104838D01*
X209199Y104826D01*
X209211Y104810D01*
X209299Y104754D01*
X209383Y104694D01*
X209402Y104688D01*
X209418Y104677D01*
X209519Y104652D01*
X209618Y104622D01*
X209638Y104622D01*
X209657Y104617D01*
X209760Y104625D01*
X209863Y104628D01*
X209882Y104635D01*
X209902Y104636D01*
X209997Y104677D01*
X210095Y104712D01*
X210110Y104725D01*
X210128Y104733D01*
X210259Y104838D01*
X211169Y105747D01*
X214115Y105747D01*
X215533Y104330D01*
X215549Y104318D01*
X215561Y104302D01*
X215649Y104246D01*
X215733Y104186D01*
X215752Y104180D01*
X215768Y104169D01*
X215869Y104144D01*
X215968Y104114D01*
X215988Y104114D01*
X216007Y104109D01*
X216110Y104117D01*
X216214Y104120D01*
X216232Y104127D01*
X216252Y104128D01*
X216347Y104169D01*
X216445Y104204D01*
X216460Y104217D01*
X216478Y104225D01*
X216609Y104330D01*
X216853Y104573D01*
X216864Y104589D01*
X216880Y104602D01*
X216936Y104689D01*
X216996Y104773D01*
X217002Y104792D01*
X217013Y104809D01*
X217038Y104909D01*
X217069Y105008D01*
X217068Y105028D01*
X217073Y105047D01*
X217065Y105150D01*
X217062Y105254D01*
X217055Y105273D01*
X217054Y105292D01*
X217014Y105387D01*
X216978Y105485D01*
X216965Y105500D01*
X216958Y105519D01*
X216853Y105650D01*
X215943Y106559D01*
X215943Y109506D01*
X218027Y111589D01*
X220973Y111589D01*
X222010Y110553D01*
X222026Y110541D01*
X222038Y110525D01*
X222126Y110469D01*
X222210Y110409D01*
X222229Y110403D01*
X222245Y110392D01*
X222346Y110367D01*
X222445Y110337D01*
X222465Y110337D01*
X222484Y110332D01*
X222587Y110340D01*
X222690Y110343D01*
X222709Y110350D01*
X222729Y110351D01*
X222824Y110392D01*
X222922Y110427D01*
X222937Y110440D01*
X222955Y110448D01*
X223086Y110553D01*
X224123Y111589D01*
X227069Y111589D01*
X229153Y109506D01*
X229153Y106559D01*
X228243Y105650D01*
X228232Y105633D01*
X228216Y105621D01*
X228160Y105534D01*
X228100Y105450D01*
X228094Y105431D01*
X228083Y105414D01*
X228058Y105314D01*
X228027Y105215D01*
X228028Y105195D01*
X228023Y105176D01*
X228031Y105073D01*
X228034Y104969D01*
X228041Y104950D01*
X228042Y104930D01*
X228083Y104835D01*
X228118Y104738D01*
X228131Y104722D01*
X228139Y104704D01*
X228243Y104573D01*
X229153Y103664D01*
X229153Y100717D01*
X227069Y98634D01*
X224123Y98634D01*
X223086Y99670D01*
X223070Y99682D01*
X223058Y99697D01*
X222971Y99753D01*
X222887Y99814D01*
X222868Y99819D01*
X222851Y99830D01*
X222750Y99856D01*
X222652Y99886D01*
X222632Y99885D01*
X222612Y99890D01*
X222509Y99882D01*
X222406Y99880D01*
X222387Y99873D01*
X222367Y99871D01*
X222272Y99831D01*
X222175Y99795D01*
X222159Y99783D01*
X222141Y99775D01*
X222010Y99670D01*
X220973Y98634D01*
X218027Y98634D01*
X216609Y100051D01*
X216593Y100063D01*
X216581Y100078D01*
X216494Y100134D01*
X216410Y100195D01*
X216391Y100200D01*
X216374Y100211D01*
X216273Y100237D01*
X216175Y100267D01*
X216155Y100266D01*
X216135Y100271D01*
X216032Y100263D01*
X215929Y100261D01*
X215910Y100254D01*
X215890Y100252D01*
X215795Y100212D01*
X215698Y100176D01*
X215682Y100164D01*
X215664Y100156D01*
X215533Y100051D01*
X214115Y98634D01*
X211169Y98634D01*
X210259Y99543D01*
X210243Y99555D01*
X210231Y99570D01*
X210143Y99626D01*
X210060Y99687D01*
X210041Y99692D01*
X210024Y99703D01*
X209923Y99729D01*
X209825Y99759D01*
X209805Y99758D01*
X209785Y99763D01*
X209682Y99755D01*
X209579Y99753D01*
X209560Y99746D01*
X209540Y99744D01*
X209445Y99704D01*
X209348Y99668D01*
X209332Y99656D01*
X209314Y99648D01*
X209183Y99543D01*
X208273Y98634D01*
X205327Y98634D01*
X204671Y99289D01*
X204655Y99301D01*
X204643Y99316D01*
X204556Y99372D01*
X204472Y99433D01*
X204453Y99438D01*
X204436Y99449D01*
X204335Y99475D01*
X204237Y99505D01*
X204217Y99504D01*
X204197Y99509D01*
X204094Y99501D01*
X203991Y99499D01*
X203972Y99492D01*
X203952Y99490D01*
X203857Y99450D01*
X203760Y99414D01*
X203744Y99402D01*
X203726Y99394D01*
X203595Y99289D01*
X202939Y98634D01*
X199993Y98634D01*
G37*
%LPD*%
%LPC*%
G36*
X294183Y97140D02*
X294183Y97140D01*
X292099Y99223D01*
X292099Y102170D01*
X294183Y104253D01*
X295656Y104253D01*
X295676Y104257D01*
X295695Y104254D01*
X295797Y104276D01*
X295899Y104293D01*
X295916Y104302D01*
X295936Y104307D01*
X296025Y104360D01*
X296116Y104408D01*
X296130Y104423D01*
X296147Y104433D01*
X296214Y104512D01*
X296286Y104587D01*
X296294Y104605D01*
X296307Y104620D01*
X296346Y104716D01*
X296389Y104810D01*
X296391Y104829D01*
X296399Y104848D01*
X296417Y105015D01*
X296417Y106680D01*
X296414Y106700D01*
X296416Y106719D01*
X296394Y106821D01*
X296378Y106923D01*
X296368Y106940D01*
X296364Y106960D01*
X296311Y107049D01*
X296262Y107140D01*
X296248Y107154D01*
X296238Y107171D01*
X296159Y107238D01*
X296084Y107310D01*
X296066Y107318D01*
X296051Y107331D01*
X295955Y107370D01*
X295861Y107413D01*
X295841Y107415D01*
X295823Y107423D01*
X295656Y107441D01*
X294183Y107441D01*
X292099Y109525D01*
X292099Y112471D01*
X294183Y114555D01*
X294502Y114555D01*
X294573Y114566D01*
X294645Y114568D01*
X294694Y114586D01*
X294745Y114594D01*
X294809Y114628D01*
X294876Y114653D01*
X294917Y114685D01*
X294963Y114710D01*
X295012Y114762D01*
X295068Y114806D01*
X295096Y114850D01*
X295132Y114888D01*
X295162Y114953D01*
X295201Y115013D01*
X295214Y115064D01*
X295236Y115111D01*
X295243Y115182D01*
X295261Y115252D01*
X295257Y115304D01*
X295263Y115355D01*
X295247Y115426D01*
X295242Y115497D01*
X295221Y115545D01*
X295210Y115596D01*
X295174Y115657D01*
X295146Y115723D01*
X295101Y115779D01*
X295084Y115807D01*
X295066Y115822D01*
X295041Y115854D01*
X294131Y116764D01*
X294131Y119710D01*
X295088Y120667D01*
X295130Y120725D01*
X295179Y120777D01*
X295201Y120824D01*
X295231Y120866D01*
X295252Y120935D01*
X295283Y121000D01*
X295288Y121052D01*
X295304Y121101D01*
X295302Y121173D01*
X295310Y121244D01*
X295299Y121295D01*
X295297Y121347D01*
X295273Y121415D01*
X295257Y121485D01*
X295231Y121529D01*
X295213Y121578D01*
X295168Y121634D01*
X295131Y121696D01*
X295092Y121730D01*
X295059Y121770D01*
X294999Y121809D01*
X294944Y121856D01*
X294896Y121875D01*
X294852Y121903D01*
X294783Y121921D01*
X294716Y121948D01*
X294645Y121956D01*
X294614Y121963D01*
X294590Y121962D01*
X294549Y121966D01*
X293167Y121966D01*
X291083Y124050D01*
X291083Y125915D01*
X291080Y125935D01*
X291082Y125954D01*
X291060Y126056D01*
X291044Y126158D01*
X291034Y126175D01*
X291030Y126195D01*
X290977Y126284D01*
X290928Y126375D01*
X290914Y126389D01*
X290904Y126406D01*
X290825Y126473D01*
X290750Y126544D01*
X290732Y126553D01*
X290717Y126566D01*
X290621Y126605D01*
X290527Y126648D01*
X290507Y126650D01*
X290489Y126658D01*
X290322Y126676D01*
X287579Y126676D01*
X285495Y128760D01*
X285495Y131706D01*
X287579Y133790D01*
X290525Y133790D01*
X292609Y131706D01*
X292609Y129841D01*
X292612Y129821D01*
X292610Y129801D01*
X292632Y129700D01*
X292648Y129598D01*
X292658Y129581D01*
X292662Y129561D01*
X292715Y129472D01*
X292764Y129381D01*
X292778Y129367D01*
X292788Y129350D01*
X292867Y129283D01*
X292942Y129211D01*
X292960Y129203D01*
X292975Y129190D01*
X293071Y129151D01*
X293165Y129108D01*
X293185Y129106D01*
X293203Y129098D01*
X293370Y129080D01*
X296113Y129080D01*
X298197Y126996D01*
X298197Y124050D01*
X297240Y123093D01*
X297198Y123035D01*
X297149Y122983D01*
X297127Y122936D01*
X297097Y122893D01*
X297076Y122825D01*
X297045Y122760D01*
X297040Y122708D01*
X297024Y122658D01*
X297026Y122587D01*
X297018Y122515D01*
X297029Y122465D01*
X297031Y122413D01*
X297055Y122345D01*
X297071Y122275D01*
X297097Y122230D01*
X297115Y122181D01*
X297160Y122125D01*
X297197Y122064D01*
X297236Y122030D01*
X297269Y121989D01*
X297329Y121951D01*
X297384Y121904D01*
X297432Y121885D01*
X297476Y121856D01*
X297545Y121839D01*
X297612Y121812D01*
X297683Y121804D01*
X297714Y121796D01*
X297738Y121798D01*
X297779Y121794D01*
X299161Y121794D01*
X301245Y119710D01*
X301245Y116764D01*
X299161Y114680D01*
X298842Y114680D01*
X298771Y114669D01*
X298699Y114667D01*
X298650Y114649D01*
X298599Y114640D01*
X298535Y114607D01*
X298468Y114582D01*
X298427Y114550D01*
X298381Y114525D01*
X298332Y114473D01*
X298276Y114429D01*
X298248Y114385D01*
X298212Y114347D01*
X298182Y114282D01*
X298143Y114222D01*
X298130Y114171D01*
X298108Y114124D01*
X298101Y114053D01*
X298083Y113983D01*
X298087Y113931D01*
X298081Y113879D01*
X298097Y113809D01*
X298102Y113738D01*
X298123Y113690D01*
X298134Y113639D01*
X298170Y113577D01*
X298198Y113512D01*
X298243Y113456D01*
X298260Y113428D01*
X298278Y113413D01*
X298303Y113381D01*
X299213Y112471D01*
X299213Y110998D01*
X299216Y110978D01*
X299214Y110959D01*
X299236Y110857D01*
X299252Y110755D01*
X299262Y110738D01*
X299266Y110718D01*
X299319Y110629D01*
X299368Y110538D01*
X299382Y110524D01*
X299392Y110507D01*
X299471Y110440D01*
X299546Y110368D01*
X299564Y110360D01*
X299579Y110347D01*
X299675Y110308D01*
X299769Y110265D01*
X299789Y110263D01*
X299807Y110255D01*
X299974Y110237D01*
X301447Y110237D01*
X303531Y108153D01*
X303531Y105207D01*
X301447Y103123D01*
X299974Y103123D01*
X299954Y103120D01*
X299935Y103122D01*
X299833Y103100D01*
X299731Y103084D01*
X299714Y103074D01*
X299694Y103070D01*
X299605Y103017D01*
X299514Y102968D01*
X299500Y102954D01*
X299483Y102944D01*
X299416Y102865D01*
X299344Y102790D01*
X299336Y102772D01*
X299323Y102757D01*
X299284Y102661D01*
X299241Y102567D01*
X299239Y102547D01*
X299231Y102529D01*
X299213Y102362D01*
X299213Y99223D01*
X297129Y97140D01*
X294183Y97140D01*
G37*
%LPD*%
%LPC*%
G36*
X295961Y70103D02*
X295961Y70103D01*
X293877Y72187D01*
X293877Y75133D01*
X296057Y77313D01*
X296068Y77329D01*
X296084Y77341D01*
X296140Y77428D01*
X296200Y77512D01*
X296206Y77531D01*
X296217Y77548D01*
X296242Y77649D01*
X296273Y77748D01*
X296272Y77767D01*
X296277Y77787D01*
X296269Y77890D01*
X296266Y77993D01*
X296259Y78012D01*
X296258Y78032D01*
X296217Y78127D01*
X296182Y78224D01*
X296169Y78240D01*
X296162Y78258D01*
X296057Y78389D01*
X293877Y80569D01*
X293877Y83515D01*
X295422Y85060D01*
X295433Y85076D01*
X295449Y85088D01*
X295505Y85176D01*
X295565Y85259D01*
X295571Y85278D01*
X295582Y85295D01*
X295607Y85396D01*
X295638Y85495D01*
X295637Y85514D01*
X295642Y85534D01*
X295634Y85637D01*
X295631Y85740D01*
X295624Y85759D01*
X295623Y85779D01*
X295582Y85874D01*
X295547Y85971D01*
X295534Y85987D01*
X295527Y86005D01*
X295422Y86136D01*
X293877Y87681D01*
X293877Y90627D01*
X295961Y92711D01*
X298907Y92711D01*
X300991Y90627D01*
X300991Y87681D01*
X299446Y86136D01*
X299435Y86120D01*
X299419Y86108D01*
X299363Y86020D01*
X299303Y85937D01*
X299297Y85918D01*
X299286Y85901D01*
X299261Y85800D01*
X299230Y85701D01*
X299231Y85682D01*
X299226Y85662D01*
X299234Y85559D01*
X299237Y85456D01*
X299244Y85437D01*
X299245Y85417D01*
X299286Y85322D01*
X299321Y85225D01*
X299334Y85209D01*
X299341Y85191D01*
X299446Y85060D01*
X300991Y83515D01*
X300991Y80569D01*
X298811Y78389D01*
X298800Y78373D01*
X298784Y78361D01*
X298728Y78273D01*
X298668Y78190D01*
X298662Y78171D01*
X298651Y78154D01*
X298626Y78053D01*
X298595Y77954D01*
X298596Y77935D01*
X298591Y77915D01*
X298599Y77812D01*
X298602Y77709D01*
X298609Y77690D01*
X298610Y77670D01*
X298651Y77575D01*
X298686Y77478D01*
X298699Y77462D01*
X298706Y77444D01*
X298811Y77313D01*
X300991Y75133D01*
X300991Y72187D01*
X298907Y70103D01*
X295961Y70103D01*
G37*
%LPD*%
%LPC*%
G36*
X125155Y140105D02*
X125155Y140105D01*
X122983Y142277D01*
X122967Y142288D01*
X122955Y142304D01*
X122867Y142360D01*
X122784Y142420D01*
X122765Y142426D01*
X122748Y142437D01*
X122647Y142462D01*
X122548Y142493D01*
X122529Y142492D01*
X122509Y142497D01*
X122406Y142489D01*
X122303Y142486D01*
X122284Y142479D01*
X122264Y142478D01*
X122169Y142437D01*
X122072Y142402D01*
X122056Y142389D01*
X122038Y142382D01*
X121907Y142277D01*
X121414Y141784D01*
X118468Y141784D01*
X117304Y142948D01*
X117288Y142959D01*
X117276Y142975D01*
X117188Y143031D01*
X117105Y143091D01*
X117086Y143097D01*
X117069Y143108D01*
X116968Y143133D01*
X116870Y143164D01*
X116850Y143163D01*
X116830Y143168D01*
X116727Y143160D01*
X116624Y143157D01*
X116605Y143151D01*
X116585Y143149D01*
X116490Y143109D01*
X116393Y143073D01*
X116377Y143060D01*
X116359Y143053D01*
X116228Y142948D01*
X114757Y141477D01*
X111811Y141477D01*
X109727Y143561D01*
X109727Y146507D01*
X111811Y148591D01*
X114757Y148591D01*
X115921Y147427D01*
X115937Y147416D01*
X115949Y147400D01*
X116037Y147344D01*
X116120Y147284D01*
X116139Y147278D01*
X116156Y147267D01*
X116257Y147242D01*
X116356Y147211D01*
X116375Y147212D01*
X116395Y147207D01*
X116498Y147215D01*
X116601Y147218D01*
X116620Y147225D01*
X116640Y147226D01*
X116735Y147267D01*
X116832Y147302D01*
X116848Y147315D01*
X116866Y147322D01*
X116997Y147427D01*
X118468Y148898D01*
X121414Y148898D01*
X123586Y146726D01*
X123602Y146715D01*
X123614Y146699D01*
X123702Y146643D01*
X123786Y146583D01*
X123805Y146577D01*
X123821Y146566D01*
X123922Y146541D01*
X124021Y146510D01*
X124041Y146511D01*
X124060Y146506D01*
X124163Y146514D01*
X124267Y146517D01*
X124285Y146524D01*
X124305Y146525D01*
X124400Y146566D01*
X124498Y146601D01*
X124513Y146614D01*
X124531Y146622D01*
X124662Y146726D01*
X125155Y147219D01*
X128101Y147219D01*
X130185Y145135D01*
X130185Y142189D01*
X128101Y140105D01*
X125155Y140105D01*
G37*
%LPD*%
%LPC*%
G36*
X300787Y178815D02*
X300787Y178815D01*
X298703Y180899D01*
X298703Y183845D01*
X300787Y185929D01*
X303733Y185929D01*
X304770Y184892D01*
X304828Y184850D01*
X304880Y184801D01*
X304927Y184779D01*
X304969Y184749D01*
X305038Y184728D01*
X305103Y184697D01*
X305155Y184692D01*
X305205Y184676D01*
X305276Y184678D01*
X305347Y184670D01*
X305398Y184681D01*
X305450Y184683D01*
X305518Y184707D01*
X305588Y184723D01*
X305633Y184749D01*
X305681Y184767D01*
X305737Y184812D01*
X305799Y184849D01*
X305833Y184888D01*
X305873Y184921D01*
X305912Y184981D01*
X305959Y185036D01*
X305978Y185084D01*
X306006Y185128D01*
X306024Y185197D01*
X306051Y185264D01*
X306059Y185335D01*
X306067Y185366D01*
X306065Y185390D01*
X306069Y185431D01*
X306069Y185623D01*
X308153Y187707D01*
X311099Y187707D01*
X313183Y185623D01*
X313183Y182677D01*
X311099Y180593D01*
X308153Y180593D01*
X307116Y181630D01*
X307058Y181672D01*
X307006Y181721D01*
X306959Y181743D01*
X306917Y181773D01*
X306848Y181794D01*
X306783Y181825D01*
X306731Y181830D01*
X306681Y181846D01*
X306610Y181844D01*
X306539Y181852D01*
X306488Y181841D01*
X306436Y181839D01*
X306368Y181815D01*
X306298Y181799D01*
X306253Y181773D01*
X306205Y181755D01*
X306149Y181710D01*
X306087Y181673D01*
X306053Y181634D01*
X306013Y181601D01*
X305974Y181541D01*
X305927Y181486D01*
X305908Y181438D01*
X305880Y181394D01*
X305862Y181325D01*
X305835Y181258D01*
X305827Y181187D01*
X305819Y181156D01*
X305821Y181132D01*
X305817Y181091D01*
X305817Y180899D01*
X303733Y178815D01*
X300787Y178815D01*
G37*
%LPD*%
%LPC*%
G36*
X216757Y136226D02*
X216757Y136226D01*
X214673Y138309D01*
X214673Y141256D01*
X216472Y143054D01*
X216483Y143070D01*
X216499Y143083D01*
X216555Y143170D01*
X216615Y143254D01*
X216621Y143273D01*
X216632Y143290D01*
X216657Y143390D01*
X216688Y143489D01*
X216687Y143509D01*
X216692Y143528D01*
X216684Y143631D01*
X216681Y143735D01*
X216674Y143754D01*
X216673Y143773D01*
X216633Y143868D01*
X216597Y143966D01*
X216584Y143981D01*
X216577Y144000D01*
X216472Y144131D01*
X214673Y145929D01*
X214673Y148876D01*
X216757Y150959D01*
X219703Y150959D01*
X221787Y148876D01*
X221787Y145929D01*
X219988Y144131D01*
X219977Y144114D01*
X219961Y144102D01*
X219905Y144015D01*
X219845Y143931D01*
X219839Y143912D01*
X219828Y143895D01*
X219803Y143795D01*
X219772Y143696D01*
X219773Y143676D01*
X219768Y143657D01*
X219776Y143554D01*
X219779Y143450D01*
X219786Y143431D01*
X219787Y143411D01*
X219828Y143316D01*
X219863Y143219D01*
X219876Y143203D01*
X219884Y143185D01*
X219988Y143054D01*
X221787Y141256D01*
X221787Y138309D01*
X219703Y136226D01*
X216757Y136226D01*
G37*
%LPD*%
%LPC*%
G36*
X287071Y78993D02*
X287071Y78993D01*
X284987Y81077D01*
X284987Y84023D01*
X286278Y85314D01*
X286289Y85330D01*
X286305Y85342D01*
X286336Y85391D01*
X286340Y85395D01*
X286344Y85403D01*
X286361Y85430D01*
X286421Y85513D01*
X286427Y85532D01*
X286438Y85549D01*
X286463Y85650D01*
X286494Y85749D01*
X286493Y85768D01*
X286498Y85788D01*
X286490Y85891D01*
X286487Y85994D01*
X286480Y86013D01*
X286479Y86033D01*
X286438Y86128D01*
X286403Y86225D01*
X286390Y86241D01*
X286383Y86259D01*
X286278Y86390D01*
X284733Y87935D01*
X284733Y90881D01*
X286817Y92965D01*
X289763Y92965D01*
X291847Y90881D01*
X291847Y87935D01*
X290556Y86644D01*
X290545Y86628D01*
X290529Y86616D01*
X290473Y86528D01*
X290413Y86445D01*
X290407Y86426D01*
X290396Y86409D01*
X290371Y86308D01*
X290340Y86209D01*
X290341Y86190D01*
X290336Y86170D01*
X290344Y86067D01*
X290347Y85964D01*
X290354Y85945D01*
X290355Y85925D01*
X290396Y85830D01*
X290431Y85733D01*
X290444Y85717D01*
X290451Y85699D01*
X290556Y85568D01*
X292101Y84023D01*
X292101Y81077D01*
X290017Y78993D01*
X287071Y78993D01*
G37*
%LPD*%
%LPC*%
G36*
X318313Y30733D02*
X318313Y30733D01*
X316229Y32817D01*
X316229Y35763D01*
X317266Y36800D01*
X317277Y36816D01*
X317293Y36828D01*
X317349Y36916D01*
X317409Y36999D01*
X317415Y37018D01*
X317426Y37035D01*
X317451Y37136D01*
X317482Y37235D01*
X317481Y37254D01*
X317486Y37274D01*
X317478Y37377D01*
X317475Y37480D01*
X317468Y37499D01*
X317467Y37519D01*
X317426Y37614D01*
X317391Y37711D01*
X317378Y37727D01*
X317371Y37745D01*
X317266Y37876D01*
X315975Y39167D01*
X315975Y42113D01*
X318059Y44197D01*
X321005Y44197D01*
X323089Y42113D01*
X323089Y39167D01*
X322052Y38130D01*
X322041Y38114D01*
X322025Y38102D01*
X321969Y38014D01*
X321909Y37931D01*
X321903Y37912D01*
X321892Y37895D01*
X321867Y37794D01*
X321836Y37695D01*
X321837Y37676D01*
X321832Y37656D01*
X321840Y37553D01*
X321843Y37450D01*
X321850Y37431D01*
X321851Y37411D01*
X321892Y37316D01*
X321927Y37219D01*
X321940Y37203D01*
X321947Y37185D01*
X322052Y37054D01*
X323343Y35763D01*
X323343Y32817D01*
X321259Y30733D01*
X318313Y30733D01*
G37*
%LPD*%
%LPC*%
G36*
X255523Y14223D02*
X255523Y14223D01*
X255523Y22746D01*
X256379Y22611D01*
X257900Y22116D01*
X259325Y21390D01*
X260619Y20450D01*
X261750Y19319D01*
X262690Y18025D01*
X263416Y16600D01*
X263911Y15079D01*
X264046Y14223D01*
X255523Y14223D01*
G37*
%LPD*%
%LPC*%
G36*
X280923Y14223D02*
X280923Y14223D01*
X280923Y22746D01*
X281779Y22611D01*
X283300Y22116D01*
X284725Y21390D01*
X286019Y20450D01*
X287150Y19319D01*
X288090Y18025D01*
X288816Y16600D01*
X289311Y15079D01*
X289446Y14223D01*
X280923Y14223D01*
G37*
%LPD*%
%LPC*%
G36*
X128523Y214377D02*
X128523Y214377D01*
X137046Y214377D01*
X136911Y213521D01*
X136416Y212000D01*
X135690Y210575D01*
X134750Y209281D01*
X133619Y208150D01*
X132325Y207210D01*
X130900Y206484D01*
X129379Y205989D01*
X128523Y205854D01*
X128523Y214377D01*
G37*
%LPD*%
%LPC*%
G36*
X103123Y214377D02*
X103123Y214377D01*
X111646Y214377D01*
X111511Y213521D01*
X111016Y212000D01*
X110290Y210575D01*
X109350Y209281D01*
X108219Y208150D01*
X106925Y207210D01*
X105500Y206484D01*
X103979Y205989D01*
X103123Y205854D01*
X103123Y214377D01*
G37*
%LPD*%
%LPC*%
G36*
X269354Y14223D02*
X269354Y14223D01*
X269489Y15079D01*
X269984Y16600D01*
X270710Y18025D01*
X271650Y19319D01*
X272781Y20450D01*
X274075Y21390D01*
X275500Y22116D01*
X277021Y22611D01*
X277877Y22746D01*
X277877Y14223D01*
X269354Y14223D01*
G37*
%LPD*%
%LPC*%
G36*
X243954Y14223D02*
X243954Y14223D01*
X244089Y15079D01*
X244584Y16600D01*
X245310Y18025D01*
X246250Y19319D01*
X247381Y20450D01*
X248675Y21390D01*
X250100Y22116D01*
X251621Y22611D01*
X252477Y22746D01*
X252477Y14223D01*
X243954Y14223D01*
G37*
%LPD*%
%LPC*%
G36*
X124621Y205989D02*
X124621Y205989D01*
X123100Y206484D01*
X121675Y207210D01*
X120381Y208150D01*
X119250Y209281D01*
X118310Y210575D01*
X117584Y212000D01*
X117089Y213521D01*
X116954Y214377D01*
X125477Y214377D01*
X125477Y205854D01*
X124621Y205989D01*
G37*
%LPD*%
%LPC*%
G36*
X99221Y205989D02*
X99221Y205989D01*
X97700Y206484D01*
X96275Y207210D01*
X94981Y208150D01*
X93850Y209281D01*
X92910Y210575D01*
X92184Y212000D01*
X91689Y213521D01*
X91554Y214377D01*
X100077Y214377D01*
X100077Y205854D01*
X99221Y205989D01*
G37*
%LPD*%
%LPC*%
G36*
X194087Y184675D02*
X194087Y184675D01*
X192004Y186758D01*
X192004Y189705D01*
X194087Y191788D01*
X197034Y191788D01*
X199117Y189705D01*
X199117Y186758D01*
X197034Y184675D01*
X194087Y184675D01*
G37*
%LPD*%
%LPC*%
G36*
X183927Y184675D02*
X183927Y184675D01*
X181844Y186758D01*
X181844Y189705D01*
X183927Y191788D01*
X186874Y191788D01*
X188957Y189705D01*
X188957Y186758D01*
X186874Y184675D01*
X183927Y184675D01*
G37*
%LPD*%
%LPC*%
G36*
X173767Y184675D02*
X173767Y184675D01*
X171684Y186758D01*
X171684Y189705D01*
X173767Y191788D01*
X176714Y191788D01*
X178797Y189705D01*
X178797Y186758D01*
X176714Y184675D01*
X173767Y184675D01*
G37*
%LPD*%
%LPC*%
G36*
X163607Y184675D02*
X163607Y184675D01*
X161524Y186758D01*
X161524Y189705D01*
X163607Y191788D01*
X166554Y191788D01*
X168637Y189705D01*
X168637Y186758D01*
X166554Y184675D01*
X163607Y184675D01*
G37*
%LPD*%
%LPC*%
G36*
X153447Y184675D02*
X153447Y184675D01*
X151364Y186758D01*
X151364Y189705D01*
X153447Y191788D01*
X156394Y191788D01*
X158477Y189705D01*
X158477Y186758D01*
X156394Y184675D01*
X153447Y184675D01*
G37*
%LPD*%
%LPC*%
G36*
X40691Y179831D02*
X40691Y179831D01*
X38607Y181915D01*
X38607Y184861D01*
X40691Y186945D01*
X43637Y186945D01*
X45721Y184861D01*
X45721Y181915D01*
X43637Y179831D01*
X40691Y179831D01*
G37*
%LPD*%
%LPC*%
G36*
X30023Y179831D02*
X30023Y179831D01*
X27939Y181915D01*
X27939Y184861D01*
X30023Y186945D01*
X32969Y186945D01*
X35053Y184861D01*
X35053Y181915D01*
X32969Y179831D01*
X30023Y179831D01*
G37*
%LPD*%
%LPC*%
G36*
X59233Y179069D02*
X59233Y179069D01*
X57149Y181153D01*
X57149Y184099D01*
X59233Y186183D01*
X62179Y186183D01*
X64263Y184099D01*
X64263Y181153D01*
X62179Y179069D01*
X59233Y179069D01*
G37*
%LPD*%
%LPC*%
G36*
X259131Y178053D02*
X259131Y178053D01*
X257047Y180137D01*
X257047Y183083D01*
X259131Y185167D01*
X262077Y185167D01*
X264161Y183083D01*
X264161Y180137D01*
X262077Y178053D01*
X259131Y178053D01*
G37*
%LPD*%
%LPC*%
G36*
X268792Y177808D02*
X268792Y177808D01*
X266708Y179892D01*
X266708Y182838D01*
X268792Y184922D01*
X271738Y184922D01*
X273822Y182838D01*
X273822Y179892D01*
X271738Y177808D01*
X268792Y177808D01*
G37*
%LPD*%
%LPC*%
G36*
X290119Y177037D02*
X290119Y177037D01*
X288035Y179121D01*
X288035Y182067D01*
X290119Y184151D01*
X293065Y184151D01*
X295149Y182067D01*
X295149Y179121D01*
X293065Y177037D01*
X290119Y177037D01*
G37*
%LPD*%
%LPC*%
G36*
X324409Y171195D02*
X324409Y171195D01*
X322325Y173279D01*
X322325Y176225D01*
X324409Y178309D01*
X327355Y178309D01*
X329439Y176225D01*
X329439Y173279D01*
X327355Y171195D01*
X324409Y171195D01*
G37*
%LPD*%
%LPC*%
G36*
X276528Y166241D02*
X276528Y166241D01*
X274445Y168324D01*
X274445Y171271D01*
X276528Y173354D01*
X279475Y173354D01*
X281558Y171271D01*
X281558Y168324D01*
X279475Y166241D01*
X276528Y166241D01*
G37*
%LPD*%
%LPC*%
G36*
X68675Y159594D02*
X68675Y159594D01*
X66591Y161677D01*
X66591Y164624D01*
X68675Y166707D01*
X71621Y166707D01*
X73705Y164624D01*
X73705Y161677D01*
X71621Y159594D01*
X68675Y159594D01*
G37*
%LPD*%
%LPC*%
G36*
X238537Y158005D02*
X238537Y158005D01*
X236454Y160088D01*
X236454Y163035D01*
X238537Y165118D01*
X241484Y165118D01*
X243567Y163035D01*
X243567Y160088D01*
X241484Y158005D01*
X238537Y158005D01*
G37*
%LPD*%
%LPC*%
G36*
X36881Y156658D02*
X36881Y156658D01*
X34797Y158742D01*
X34797Y161688D01*
X36881Y163772D01*
X39827Y163772D01*
X41911Y161688D01*
X41911Y158742D01*
X39827Y156658D01*
X36881Y156658D01*
G37*
%LPD*%
%LPC*%
G36*
X286055Y153415D02*
X286055Y153415D01*
X283971Y155499D01*
X283971Y158445D01*
X286055Y160529D01*
X289001Y160529D01*
X291085Y158445D01*
X291085Y155499D01*
X289001Y153415D01*
X286055Y153415D01*
G37*
%LPD*%
%LPC*%
G36*
X246157Y151655D02*
X246157Y151655D01*
X244074Y153738D01*
X244074Y156685D01*
X246157Y158768D01*
X249104Y158768D01*
X251187Y156685D01*
X251187Y153738D01*
X249104Y151655D01*
X246157Y151655D01*
G37*
%LPD*%
%LPC*%
G36*
X68675Y146894D02*
X68675Y146894D01*
X66591Y148977D01*
X66591Y151924D01*
X68675Y154007D01*
X71621Y154007D01*
X73705Y151924D01*
X73705Y148977D01*
X71621Y146894D01*
X68675Y146894D01*
G37*
%LPD*%
%LPC*%
G36*
X36881Y144271D02*
X36881Y144271D01*
X34797Y146355D01*
X34797Y149301D01*
X36881Y151385D01*
X39827Y151385D01*
X41911Y149301D01*
X41911Y146355D01*
X39827Y144271D01*
X36881Y144271D01*
G37*
%LPD*%
%LPC*%
G36*
X276911Y142239D02*
X276911Y142239D01*
X274827Y144323D01*
X274827Y147269D01*
X276911Y149353D01*
X279857Y149353D01*
X281941Y147269D01*
X281941Y144323D01*
X279857Y142239D01*
X276911Y142239D01*
G37*
%LPD*%
%LPC*%
G36*
X75025Y140544D02*
X75025Y140544D01*
X72941Y142627D01*
X72941Y145574D01*
X75025Y147657D01*
X77971Y147657D01*
X80055Y145574D01*
X80055Y142627D01*
X77971Y140544D01*
X75025Y140544D01*
G37*
%LPD*%
%LPC*%
G36*
X24689Y139953D02*
X24689Y139953D01*
X22605Y142037D01*
X22605Y144983D01*
X24689Y147067D01*
X27635Y147067D01*
X29719Y144983D01*
X29719Y142037D01*
X27635Y139953D01*
X24689Y139953D01*
G37*
%LPD*%
%LPC*%
G36*
X246157Y138955D02*
X246157Y138955D01*
X244074Y141038D01*
X244074Y143985D01*
X246157Y146068D01*
X249104Y146068D01*
X251187Y143985D01*
X251187Y141038D01*
X249104Y138955D01*
X246157Y138955D01*
G37*
%LPD*%
%LPC*%
G36*
X298247Y136651D02*
X298247Y136651D01*
X296163Y138735D01*
X296163Y141681D01*
X298247Y143765D01*
X301193Y143765D01*
X303277Y141681D01*
X303277Y138735D01*
X301193Y136651D01*
X298247Y136651D01*
G37*
%LPD*%
%LPC*%
G36*
X315265Y134873D02*
X315265Y134873D01*
X313181Y136957D01*
X313181Y139903D01*
X315265Y141987D01*
X318211Y141987D01*
X320295Y139903D01*
X320295Y136957D01*
X318211Y134873D01*
X315265Y134873D01*
G37*
%LPD*%
%LPC*%
G36*
X68675Y134194D02*
X68675Y134194D01*
X66591Y136277D01*
X66591Y139224D01*
X68675Y141307D01*
X71621Y141307D01*
X73705Y139224D01*
X73705Y136277D01*
X71621Y134194D01*
X68675Y134194D01*
G37*
%LPD*%
%LPC*%
G36*
X259903Y133603D02*
X259903Y133603D01*
X257820Y135687D01*
X257820Y138633D01*
X259903Y140717D01*
X262850Y140717D01*
X264933Y138633D01*
X264933Y135687D01*
X262850Y133603D01*
X259903Y133603D01*
G37*
%LPD*%
%LPC*%
G36*
X238537Y132605D02*
X238537Y132605D01*
X236454Y134688D01*
X236454Y137635D01*
X238537Y139718D01*
X241484Y139718D01*
X243567Y137635D01*
X243567Y134688D01*
X241484Y132605D01*
X238537Y132605D01*
G37*
%LPD*%
%LPC*%
G36*
X75025Y127844D02*
X75025Y127844D01*
X72941Y129927D01*
X72941Y132874D01*
X75025Y134957D01*
X77971Y134957D01*
X80055Y132874D01*
X80055Y129927D01*
X77971Y127844D01*
X75025Y127844D01*
G37*
%LPD*%
%LPC*%
G36*
X322029Y127761D02*
X322029Y127761D01*
X319946Y129845D01*
X319946Y132791D01*
X322029Y134875D01*
X324976Y134875D01*
X327059Y132791D01*
X327059Y129845D01*
X324976Y127761D01*
X322029Y127761D01*
G37*
%LPD*%
%LPC*%
G36*
X194087Y194835D02*
X194087Y194835D01*
X192004Y196918D01*
X192004Y199865D01*
X194087Y201948D01*
X197034Y201948D01*
X199117Y199865D01*
X199117Y196918D01*
X197034Y194835D01*
X194087Y194835D01*
G37*
%LPD*%
%LPC*%
G36*
X246157Y126255D02*
X246157Y126255D01*
X244074Y128338D01*
X244074Y131285D01*
X246157Y133368D01*
X249104Y133368D01*
X251187Y131285D01*
X251187Y128338D01*
X249104Y126255D01*
X246157Y126255D01*
G37*
%LPD*%
%LPC*%
G36*
X66897Y123526D02*
X66897Y123526D01*
X64813Y125609D01*
X64813Y128556D01*
X66897Y130639D01*
X69843Y130639D01*
X71927Y128556D01*
X71927Y125609D01*
X69843Y123526D01*
X66897Y123526D01*
G37*
%LPD*%
%LPC*%
G36*
X238537Y119905D02*
X238537Y119905D01*
X236454Y121988D01*
X236454Y124935D01*
X238537Y127018D01*
X241484Y127018D01*
X243567Y124935D01*
X243567Y121988D01*
X241484Y119905D01*
X238537Y119905D01*
G37*
%LPD*%
%LPC*%
G36*
X62071Y115652D02*
X62071Y115652D01*
X59987Y117735D01*
X59987Y120682D01*
X62071Y122765D01*
X65017Y122765D01*
X67101Y120682D01*
X67101Y117735D01*
X65017Y115652D01*
X62071Y115652D01*
G37*
%LPD*%
%LPC*%
G36*
X71679Y114299D02*
X71679Y114299D01*
X69595Y116383D01*
X69595Y119329D01*
X71679Y121413D01*
X74625Y121413D01*
X76709Y119329D01*
X76709Y116383D01*
X74625Y114299D01*
X71679Y114299D01*
G37*
%LPD*%
%LPC*%
G36*
X79807Y109981D02*
X79807Y109981D01*
X77723Y112065D01*
X77723Y115011D01*
X79807Y117095D01*
X82753Y117095D01*
X84837Y115011D01*
X84837Y112065D01*
X82753Y109981D01*
X79807Y109981D01*
G37*
%LPD*%
%LPC*%
G36*
X173767Y194835D02*
X173767Y194835D01*
X171684Y196918D01*
X171684Y199865D01*
X173767Y201948D01*
X176714Y201948D01*
X178797Y199865D01*
X178797Y196918D01*
X176714Y194835D01*
X173767Y194835D01*
G37*
%LPD*%
%LPC*%
G36*
X90108Y99567D02*
X90108Y99567D01*
X88024Y101651D01*
X88024Y104597D01*
X90108Y106681D01*
X93054Y106681D01*
X95138Y104597D01*
X95138Y101651D01*
X93054Y99567D01*
X90108Y99567D01*
G37*
%LPD*%
%LPC*%
G36*
X322484Y97530D02*
X322484Y97530D01*
X320400Y99614D01*
X320400Y102560D01*
X322484Y104644D01*
X325430Y104644D01*
X327514Y102560D01*
X327514Y99614D01*
X325430Y97530D01*
X322484Y97530D01*
G37*
%LPD*%
%LPC*%
G36*
X96317Y92455D02*
X96317Y92455D01*
X94233Y94539D01*
X94233Y97485D01*
X96317Y99569D01*
X99263Y99569D01*
X101347Y97485D01*
X101347Y94539D01*
X99263Y92455D01*
X96317Y92455D01*
G37*
%LPD*%
%LPC*%
G36*
X73203Y92455D02*
X73203Y92455D01*
X71119Y94539D01*
X71119Y97485D01*
X73203Y99569D01*
X76149Y99569D01*
X78233Y97485D01*
X78233Y94539D01*
X76149Y92455D01*
X73203Y92455D01*
G37*
%LPD*%
%LPC*%
G36*
X64313Y91439D02*
X64313Y91439D01*
X62229Y93523D01*
X62229Y96469D01*
X64313Y98553D01*
X67259Y98553D01*
X69343Y96469D01*
X69343Y93523D01*
X67259Y91439D01*
X64313Y91439D01*
G37*
%LPD*%
%LPC*%
G36*
X141722Y89600D02*
X141722Y89600D01*
X139638Y91684D01*
X139638Y94630D01*
X141722Y96714D01*
X144668Y96714D01*
X146752Y94630D01*
X146752Y91684D01*
X144668Y89600D01*
X141722Y89600D01*
G37*
%LPD*%
%LPC*%
G36*
X153447Y194835D02*
X153447Y194835D01*
X151364Y196918D01*
X151364Y199865D01*
X153447Y201948D01*
X156394Y201948D01*
X158477Y199865D01*
X158477Y196918D01*
X156394Y194835D01*
X153447Y194835D01*
G37*
%LPD*%
%LPC*%
G36*
X204247Y194835D02*
X204247Y194835D01*
X202164Y196918D01*
X202164Y199865D01*
X204247Y201948D01*
X207194Y201948D01*
X209277Y199865D01*
X209277Y196918D01*
X207194Y194835D01*
X204247Y194835D01*
G37*
%LPD*%
%LPC*%
G36*
X141976Y78932D02*
X141976Y78932D01*
X139892Y81016D01*
X139892Y83962D01*
X141976Y86046D01*
X144922Y86046D01*
X147006Y83962D01*
X147006Y81016D01*
X144922Y78932D01*
X141976Y78932D01*
G37*
%LPD*%
%LPC*%
G36*
X164582Y78678D02*
X164582Y78678D01*
X162498Y80762D01*
X162498Y83708D01*
X164582Y85792D01*
X167528Y85792D01*
X169612Y83708D01*
X169612Y80762D01*
X167528Y78678D01*
X164582Y78678D01*
G37*
%LPD*%
%LPC*%
G36*
X152390Y78678D02*
X152390Y78678D01*
X150306Y80762D01*
X150306Y83708D01*
X152390Y85792D01*
X155336Y85792D01*
X157420Y83708D01*
X157420Y80762D01*
X155336Y78678D01*
X152390Y78678D01*
G37*
%LPD*%
%LPC*%
G36*
X65075Y76707D02*
X65075Y76707D01*
X62991Y78791D01*
X62991Y81737D01*
X65075Y83821D01*
X68021Y83821D01*
X70105Y81737D01*
X70105Y78791D01*
X68021Y76707D01*
X65075Y76707D01*
G37*
%LPD*%
%LPC*%
G36*
X50089Y76707D02*
X50089Y76707D01*
X48005Y78791D01*
X48005Y81737D01*
X50089Y83821D01*
X53035Y83821D01*
X55119Y81737D01*
X55119Y78791D01*
X53035Y76707D01*
X50089Y76707D01*
G37*
%LPD*%
%LPC*%
G36*
X141976Y68010D02*
X141976Y68010D01*
X139892Y70094D01*
X139892Y73040D01*
X141976Y75124D01*
X144922Y75124D01*
X147006Y73040D01*
X147006Y70094D01*
X144922Y68010D01*
X141976Y68010D01*
G37*
%LPD*%
%LPC*%
G36*
X262687Y66622D02*
X262687Y66622D01*
X260603Y68705D01*
X260603Y71652D01*
X262687Y73735D01*
X265633Y73735D01*
X267717Y71652D01*
X267717Y68705D01*
X265633Y66622D01*
X262687Y66622D01*
G37*
%LPD*%
%LPC*%
G36*
X65075Y61467D02*
X65075Y61467D01*
X62991Y63551D01*
X62991Y66497D01*
X65075Y68581D01*
X68021Y68581D01*
X70105Y66497D01*
X70105Y63551D01*
X68021Y61467D01*
X65075Y61467D01*
G37*
%LPD*%
%LPC*%
G36*
X163607Y194835D02*
X163607Y194835D01*
X161524Y196918D01*
X161524Y199865D01*
X163607Y201948D01*
X166554Y201948D01*
X168637Y199865D01*
X168637Y196918D01*
X166554Y194835D01*
X163607Y194835D01*
G37*
%LPD*%
%LPC*%
G36*
X96732Y47390D02*
X96732Y47390D01*
X94649Y49474D01*
X94649Y52420D01*
X96732Y54504D01*
X99679Y54504D01*
X101762Y52420D01*
X101762Y49474D01*
X99679Y47390D01*
X96732Y47390D01*
G37*
%LPD*%
%LPC*%
G36*
X66345Y46735D02*
X66345Y46735D01*
X64261Y48819D01*
X64261Y51765D01*
X66345Y53849D01*
X69291Y53849D01*
X71375Y51765D01*
X71375Y48819D01*
X69291Y46735D01*
X66345Y46735D01*
G37*
%LPD*%
%LPC*%
G36*
X57455Y46735D02*
X57455Y46735D01*
X55371Y48819D01*
X55371Y51765D01*
X57455Y53849D01*
X60401Y53849D01*
X62485Y51765D01*
X62485Y48819D01*
X60401Y46735D01*
X57455Y46735D01*
G37*
%LPD*%
%LPC*%
G36*
X48565Y46735D02*
X48565Y46735D01*
X46481Y48819D01*
X46481Y51765D01*
X48565Y53849D01*
X51511Y53849D01*
X53595Y51765D01*
X53595Y48819D01*
X51511Y46735D01*
X48565Y46735D01*
G37*
%LPD*%
%LPC*%
G36*
X163566Y44134D02*
X163566Y44134D01*
X161482Y46218D01*
X161482Y49164D01*
X163566Y51248D01*
X166512Y51248D01*
X168596Y49164D01*
X168596Y46218D01*
X166512Y44134D01*
X163566Y44134D01*
G37*
%LPD*%
%LPC*%
G36*
X150866Y44134D02*
X150866Y44134D01*
X148782Y46218D01*
X148782Y49164D01*
X150866Y51248D01*
X153812Y51248D01*
X155896Y49164D01*
X155896Y46218D01*
X153812Y44134D01*
X150866Y44134D01*
G37*
%LPD*%
%LPC*%
G36*
X138166Y44134D02*
X138166Y44134D01*
X136082Y46218D01*
X136082Y49164D01*
X138166Y51248D01*
X141112Y51248D01*
X143196Y49164D01*
X143196Y46218D01*
X141112Y44134D01*
X138166Y44134D01*
G37*
%LPD*%
%LPC*%
G36*
X307137Y41909D02*
X307137Y41909D01*
X305053Y43993D01*
X305053Y46939D01*
X307137Y49023D01*
X310083Y49023D01*
X312167Y46939D01*
X312167Y43993D01*
X310083Y41909D01*
X307137Y41909D01*
G37*
%LPD*%
%LPC*%
G36*
X296469Y41909D02*
X296469Y41909D01*
X294385Y43993D01*
X294385Y46939D01*
X296469Y49023D01*
X299415Y49023D01*
X301499Y46939D01*
X301499Y43993D01*
X299415Y41909D01*
X296469Y41909D01*
G37*
%LPD*%
%LPC*%
G36*
X143287Y194835D02*
X143287Y194835D01*
X141204Y196918D01*
X141204Y199865D01*
X143287Y201948D01*
X146234Y201948D01*
X148317Y199865D01*
X148317Y196918D01*
X146234Y194835D01*
X143287Y194835D01*
G37*
%LPD*%
%LPC*%
G36*
X296723Y56133D02*
X296723Y56133D01*
X294639Y58217D01*
X294639Y61163D01*
X296723Y63247D01*
X299669Y63247D01*
X301753Y61163D01*
X301753Y58217D01*
X299669Y56133D01*
X296723Y56133D01*
G37*
%LPD*%
%LPC*%
G36*
X57455Y36575D02*
X57455Y36575D01*
X55371Y38659D01*
X55371Y41605D01*
X57455Y43689D01*
X60401Y43689D01*
X62485Y41605D01*
X62485Y38659D01*
X60401Y36575D01*
X57455Y36575D01*
G37*
%LPD*%
%LPC*%
G36*
X48565Y36575D02*
X48565Y36575D01*
X46481Y38659D01*
X46481Y41605D01*
X48565Y43689D01*
X51511Y43689D01*
X53595Y41605D01*
X53595Y38659D01*
X51511Y36575D01*
X48565Y36575D01*
G37*
%LPD*%
%LPC*%
G36*
X163566Y31434D02*
X163566Y31434D01*
X161482Y33518D01*
X161482Y36464D01*
X163566Y38548D01*
X166512Y38548D01*
X168596Y36464D01*
X168596Y33518D01*
X166512Y31434D01*
X163566Y31434D01*
G37*
%LPD*%
%LPC*%
G36*
X150866Y31434D02*
X150866Y31434D01*
X148782Y33518D01*
X148782Y36464D01*
X150866Y38548D01*
X153812Y38548D01*
X155896Y36464D01*
X155896Y33518D01*
X153812Y31434D01*
X150866Y31434D01*
G37*
%LPD*%
%LPC*%
G36*
X138166Y31434D02*
X138166Y31434D01*
X136082Y33518D01*
X136082Y36464D01*
X138166Y38548D01*
X141112Y38548D01*
X143196Y36464D01*
X143196Y33518D01*
X141112Y31434D01*
X138166Y31434D01*
G37*
%LPD*%
%LPC*%
G36*
X307137Y30733D02*
X307137Y30733D01*
X305053Y32817D01*
X305053Y35763D01*
X307137Y37847D01*
X310083Y37847D01*
X312167Y35763D01*
X312167Y32817D01*
X310083Y30733D01*
X307137Y30733D01*
G37*
%LPD*%
%LPC*%
G36*
X296723Y30733D02*
X296723Y30733D01*
X294639Y32817D01*
X294639Y35763D01*
X296723Y37847D01*
X299669Y37847D01*
X301753Y35763D01*
X301753Y32817D01*
X299669Y30733D01*
X296723Y30733D01*
G37*
%LPD*%
%LPC*%
G36*
X183927Y194835D02*
X183927Y194835D01*
X181844Y196918D01*
X181844Y199865D01*
X183927Y201948D01*
X186874Y201948D01*
X188957Y199865D01*
X188957Y196918D01*
X186874Y194835D01*
X183927Y194835D01*
G37*
%LPD*%
%LPC*%
G36*
X143287Y184675D02*
X143287Y184675D01*
X141204Y186758D01*
X141204Y189705D01*
X143287Y191788D01*
X146234Y191788D01*
X148317Y189705D01*
X148317Y186758D01*
X146234Y184675D01*
X143287Y184675D01*
G37*
%LPD*%
%LPC*%
G36*
X204247Y184675D02*
X204247Y184675D01*
X202164Y186758D01*
X202164Y189705D01*
X204247Y191788D01*
X207194Y191788D01*
X209277Y189705D01*
X209277Y186758D01*
X207194Y184675D01*
X204247Y184675D01*
G37*
%LPD*%
%LPC*%
G36*
X66345Y36575D02*
X66345Y36575D01*
X64261Y38659D01*
X64261Y41605D01*
X66345Y43689D01*
X69291Y43689D01*
X71375Y41605D01*
X71375Y38659D01*
X69291Y36575D01*
X66345Y36575D01*
G37*
%LPD*%
D10*
X92682Y342279D02*
X95391Y342279D01*
X95391Y333248D01*
X89972Y333248D01*
X89854Y333250D01*
X89736Y333256D01*
X89618Y333265D01*
X89501Y333279D01*
X89384Y333296D01*
X89267Y333317D01*
X89152Y333342D01*
X89037Y333371D01*
X88923Y333404D01*
X88811Y333440D01*
X88700Y333480D01*
X88590Y333523D01*
X88481Y333570D01*
X88374Y333620D01*
X88269Y333675D01*
X88166Y333732D01*
X88065Y333793D01*
X87965Y333857D01*
X87868Y333924D01*
X87773Y333994D01*
X87681Y334068D01*
X87590Y334144D01*
X87503Y334224D01*
X87418Y334306D01*
X87336Y334391D01*
X87256Y334478D01*
X87180Y334569D01*
X87106Y334661D01*
X87036Y334756D01*
X86969Y334853D01*
X86905Y334953D01*
X86844Y335054D01*
X86787Y335157D01*
X86732Y335262D01*
X86682Y335369D01*
X86635Y335478D01*
X86592Y335588D01*
X86552Y335699D01*
X86516Y335811D01*
X86483Y335925D01*
X86454Y336040D01*
X86429Y336155D01*
X86408Y336272D01*
X86391Y336389D01*
X86377Y336506D01*
X86368Y336624D01*
X86362Y336742D01*
X86360Y336860D01*
X86360Y345892D01*
X86362Y346010D01*
X86368Y346128D01*
X86377Y346246D01*
X86391Y346363D01*
X86408Y346480D01*
X86429Y346597D01*
X86454Y346712D01*
X86483Y346827D01*
X86516Y346941D01*
X86552Y347053D01*
X86592Y347164D01*
X86635Y347274D01*
X86682Y347383D01*
X86732Y347490D01*
X86786Y347595D01*
X86844Y347698D01*
X86905Y347799D01*
X86969Y347899D01*
X87036Y347996D01*
X87106Y348091D01*
X87180Y348183D01*
X87256Y348274D01*
X87336Y348361D01*
X87418Y348446D01*
X87503Y348528D01*
X87590Y348608D01*
X87681Y348684D01*
X87773Y348758D01*
X87868Y348828D01*
X87965Y348895D01*
X88065Y348959D01*
X88166Y349020D01*
X88269Y349077D01*
X88374Y349131D01*
X88481Y349182D01*
X88590Y349229D01*
X88700Y349272D01*
X88811Y349312D01*
X88923Y349348D01*
X89037Y349381D01*
X89152Y349410D01*
X89267Y349435D01*
X89384Y349456D01*
X89501Y349473D01*
X89618Y349487D01*
X89736Y349496D01*
X89854Y349502D01*
X89972Y349504D01*
X95391Y349504D01*
X107479Y349504D02*
X107604Y349502D01*
X107729Y349496D01*
X107854Y349487D01*
X107978Y349473D01*
X108102Y349456D01*
X108226Y349435D01*
X108348Y349410D01*
X108470Y349381D01*
X108591Y349349D01*
X108711Y349313D01*
X108830Y349273D01*
X108947Y349230D01*
X109063Y349183D01*
X109178Y349132D01*
X109290Y349078D01*
X109402Y349020D01*
X109511Y348960D01*
X109618Y348895D01*
X109724Y348828D01*
X109827Y348757D01*
X109928Y348683D01*
X110027Y348606D01*
X110123Y348526D01*
X110217Y348443D01*
X110308Y348358D01*
X110397Y348269D01*
X110482Y348178D01*
X110565Y348084D01*
X110645Y347988D01*
X110722Y347889D01*
X110796Y347788D01*
X110867Y347685D01*
X110934Y347579D01*
X110999Y347472D01*
X111059Y347363D01*
X111117Y347251D01*
X111171Y347139D01*
X111222Y347024D01*
X111269Y346908D01*
X111312Y346791D01*
X111352Y346672D01*
X111388Y346552D01*
X111420Y346431D01*
X111449Y346309D01*
X111474Y346187D01*
X111495Y346063D01*
X111512Y345939D01*
X111526Y345815D01*
X111535Y345690D01*
X111541Y345565D01*
X111543Y345440D01*
X107479Y349504D02*
X107336Y349502D01*
X107194Y349496D01*
X107051Y349486D01*
X106909Y349473D01*
X106768Y349455D01*
X106626Y349434D01*
X106486Y349409D01*
X106346Y349380D01*
X106207Y349347D01*
X106069Y349310D01*
X105932Y349270D01*
X105797Y349226D01*
X105662Y349178D01*
X105529Y349126D01*
X105397Y349071D01*
X105267Y349012D01*
X105139Y348950D01*
X105012Y348884D01*
X104887Y348815D01*
X104764Y348743D01*
X104644Y348667D01*
X104525Y348588D01*
X104408Y348505D01*
X104294Y348420D01*
X104182Y348331D01*
X104073Y348240D01*
X103966Y348145D01*
X103861Y348048D01*
X103760Y347947D01*
X103661Y347844D01*
X103565Y347739D01*
X103472Y347630D01*
X103382Y347519D01*
X103295Y347406D01*
X103211Y347291D01*
X103131Y347173D01*
X103053Y347053D01*
X102979Y346931D01*
X102909Y346807D01*
X102841Y346681D01*
X102778Y346553D01*
X102717Y346424D01*
X102660Y346293D01*
X102607Y346161D01*
X102558Y346027D01*
X102512Y345892D01*
X110188Y342279D02*
X110282Y342371D01*
X110372Y342465D01*
X110460Y342562D01*
X110545Y342662D01*
X110627Y342764D01*
X110706Y342869D01*
X110781Y342976D01*
X110853Y343085D01*
X110922Y343196D01*
X110988Y343310D01*
X111050Y343425D01*
X111109Y343542D01*
X111164Y343661D01*
X111215Y343781D01*
X111263Y343903D01*
X111308Y344026D01*
X111348Y344150D01*
X111385Y344276D01*
X111418Y344403D01*
X111447Y344530D01*
X111473Y344659D01*
X111494Y344788D01*
X111512Y344918D01*
X111525Y345048D01*
X111535Y345178D01*
X111541Y345309D01*
X111543Y345440D01*
X110189Y342279D02*
X102512Y333248D01*
X111543Y333248D01*
D11*
X268034Y108197D03*
X259034Y108197D03*
X259034Y99197D03*
X268034Y99197D03*
X277034Y99197D03*
X277034Y108197D03*
X277034Y117197D03*
X268034Y117197D03*
X259034Y117197D03*
D12*
X330200Y215900D03*
D13*
X330200Y228600D03*
D12*
X304800Y215900D03*
D13*
X304800Y228600D03*
D12*
X279400Y215900D03*
D13*
X279400Y228600D03*
D12*
X254000Y215900D03*
D13*
X254000Y228600D03*
D12*
X228600Y215900D03*
D13*
X228600Y228600D03*
D12*
X203200Y215900D03*
D13*
X203200Y228600D03*
D12*
X177800Y215900D03*
D13*
X177800Y228600D03*
D12*
X152400Y215900D03*
D13*
X152400Y228600D03*
D12*
X127000Y215900D03*
D13*
X127000Y228600D03*
D12*
X101600Y215900D03*
D13*
X101600Y228600D03*
D12*
X76200Y215900D03*
D13*
X76200Y228600D03*
D12*
X50800Y215900D03*
D13*
X50800Y228600D03*
D12*
X25400Y215900D03*
D13*
X25400Y228600D03*
D12*
X50800Y12700D03*
D13*
X50800Y0D03*
D12*
X76200Y12700D03*
D13*
X76200Y0D03*
D12*
X101600Y12700D03*
D13*
X101600Y0D03*
D12*
X127000Y12700D03*
D13*
X127000Y0D03*
D12*
X152400Y12700D03*
D13*
X152400Y0D03*
D12*
X177800Y12700D03*
D13*
X177800Y0D03*
D12*
X203200Y12700D03*
D13*
X203200Y0D03*
D12*
X228600Y12700D03*
D13*
X228600Y0D03*
D12*
X254000Y12700D03*
D13*
X254000Y0D03*
D12*
X279400Y12700D03*
D13*
X279400Y0D03*
D12*
X304800Y12700D03*
D13*
X304800Y0D03*
D12*
X330200Y12700D03*
D13*
X330200Y0D03*
D14*
X128096Y126404D03*
X135448Y126404D03*
X143590Y126404D03*
X124526Y121818D03*
X131906Y121818D03*
X139526Y121818D03*
X120716Y116992D03*
X128096Y116992D03*
X135448Y116992D03*
X143590Y116992D03*
X9906Y194364D03*
X9652Y176330D03*
X9652Y106734D03*
X9652Y94034D03*
X9652Y81334D03*
X9652Y68634D03*
X9652Y55934D03*
X9652Y43234D03*
X9906Y33074D03*
X342154Y171454D03*
X342154Y161454D03*
X342154Y151454D03*
X283718Y181356D03*
X268732Y188722D03*
X219710Y179324D03*
X163830Y179070D03*
X156718Y179070D03*
X147828Y179070D03*
X137668Y179070D03*
X127254Y179070D03*
X116840Y179070D03*
X225806Y147574D03*
X225552Y139192D03*
X26670Y49530D03*
X33020Y49530D03*
X91948Y72644D03*
X91948Y62484D03*
X91948Y52324D03*
X86929Y145479D03*
X329946Y67056D03*
X329946Y53086D03*
X300482Y147828D03*
X286512Y74676D03*
X286766Y61976D03*
X283210Y44704D03*
X97028Y82296D03*
X116740Y99324D03*
X121666Y71882D03*
X121666Y82042D03*
X124714Y52578D03*
X185166Y51816D03*
X184658Y82804D03*
X239776Y99314D03*
X25400Y133604D03*
X24527Y165869D03*
X260350Y49530D03*
X80264Y185166D03*
X95758Y179070D03*
X106680Y179070D03*
X54610Y126492D03*
X85881Y97028D03*
X111506Y99568D03*
X21844Y195326D03*
X32004Y195326D03*
X59944Y195326D03*
X72644Y195326D03*
X85344Y195326D03*
X98044Y195326D03*
X113284Y195326D03*
X125984Y195326D03*
X268224Y195326D03*
X278384Y195326D03*
X301244Y195326D03*
X319024Y195326D03*
X339344Y195326D03*
X9652Y121974D03*
X9652Y137214D03*
X9652Y149914D03*
X9652Y162614D03*
X25146Y33074D03*
X90932Y35614D03*
X101292Y35306D03*
X111452Y35306D03*
X121612Y35306D03*
X204670Y28956D03*
X213560Y29210D03*
X220926Y28956D03*
X236420Y28956D03*
X243278Y28956D03*
X266900Y32512D03*
X273758Y32512D03*
X193240Y28956D03*
X340306Y35306D03*
X340306Y48006D03*
X340306Y60706D03*
X340306Y73406D03*
X340306Y88646D03*
X340306Y103886D03*
X340306Y119126D03*
X342154Y141294D03*
X342154Y131134D03*
X342154Y181614D03*
X87884Y185166D03*
X72644Y185166D03*
X100584Y185166D03*
X110744Y185166D03*
X120904Y185166D03*
X131064Y185166D03*
X18542Y74930D03*
X18542Y65532D03*
X18542Y56134D03*
X91948Y42164D03*
X99568Y42164D03*
X107188Y42164D03*
X114808Y42164D03*
X122428Y42164D03*
X18542Y42926D03*
X26416Y42926D03*
X33020Y42926D03*
X178054Y82804D03*
X179324Y52070D03*
X286766Y68834D03*
X286512Y39116D03*
X271726Y42926D03*
X261566Y42926D03*
X324358Y89916D03*
X260350Y188468D03*
X224790Y160528D03*
X230632Y160274D03*
X219710Y171958D03*
X188976Y177038D03*
X17780Y185420D03*
X17780Y172720D03*
X17780Y157480D03*
X17780Y144780D03*
X48751Y133779D03*
X83312Y92456D03*
X88646Y92456D03*
X90678Y97028D03*
X106680Y123952D03*
X106680Y129469D03*
X106680Y118110D03*
X49276Y126492D03*
X183896Y174752D03*
X185166Y45720D03*
X179578Y45720D03*
X316484Y187452D03*
X270429Y157734D03*
X324866Y80010D03*
X329946Y60198D03*
X329946Y73660D03*
X329946Y86360D03*
X31496Y126492D03*
X25908Y80010D03*
X265446Y157644D03*
X309388Y153994D03*
D15*
X101443Y213785D02*
X101443Y215900D01*
X101443Y213785D02*
X101443Y198725D01*
X98044Y195326D01*
X101443Y215900D02*
X101600Y215900D01*
X101600Y213785D02*
X101600Y228600D01*
X101600Y213785D02*
X101443Y213785D01*
X127000Y215900D02*
X127000Y228600D01*
X127000Y215900D02*
X127000Y195326D01*
X125984Y195326D01*
X279400Y12700D02*
X279400Y0D01*
X279400Y12700D02*
X279400Y32512D01*
X273758Y32512D01*
X254000Y12700D02*
X254000Y0D01*
X254000Y12700D02*
X254000Y32766D01*
X256486Y32766D01*
X254000Y12700D02*
X279400Y12700D01*
D14*
X254454Y32512D03*
X260296Y32512D03*
X280362Y32258D03*
X120716Y126404D03*
X240010Y136161D03*
X278001Y169797D03*
X247630Y142511D03*
X144760Y198391D03*
X154920Y198391D03*
X165080Y198391D03*
X175240Y198391D03*
X185400Y198391D03*
X195560Y198391D03*
X205720Y198391D03*
X144760Y188231D03*
X154920Y188231D03*
X165080Y188231D03*
X175240Y188231D03*
X185400Y188231D03*
X195560Y188231D03*
X205720Y188231D03*
X247630Y155211D03*
X247630Y129811D03*
X240010Y123461D03*
X240010Y161561D03*
D15*
X177800Y215900D02*
X177800Y228600D01*
X203200Y228600D02*
X203200Y215900D01*
X152400Y215900D02*
X152400Y228600D01*
D14*
X98205Y50947D03*
X143195Y93157D03*
X143449Y82489D03*
X153863Y82235D03*
X166055Y82235D03*
X139639Y47691D03*
X152339Y47691D03*
X165039Y47691D03*
X139639Y34991D03*
X152339Y34991D03*
X165039Y34991D03*
X143449Y71567D03*
D15*
X177800Y12700D02*
X177800Y0D01*
X152400Y0D02*
X152400Y12700D01*
X177800Y12700D01*
D14*
X295656Y110998D03*
D15*
X330200Y215900D02*
X330200Y228600D01*
D14*
X261376Y137160D03*
X260604Y181610D03*
D15*
X228600Y215900D02*
X228600Y228600D01*
D14*
X264160Y70179D03*
X270265Y181365D03*
D15*
X203200Y12700D02*
X203200Y0D01*
D14*
X325882Y174752D03*
X289052Y130233D03*
D15*
X254000Y215900D02*
X254000Y228600D01*
D14*
X302260Y182372D03*
X294640Y125523D03*
D15*
X279400Y215900D02*
X279400Y228600D01*
D14*
X309626Y184150D03*
X297688Y118237D03*
X323957Y101087D03*
D15*
X304800Y215900D02*
X304800Y228600D01*
D14*
X297942Y45466D03*
X308610Y45466D03*
X298196Y34290D03*
X308610Y34290D03*
X298196Y59690D03*
X297434Y73660D03*
X297434Y89154D03*
X288544Y82550D03*
X319786Y34290D03*
X319532Y40640D03*
X297434Y82042D03*
X288290Y89408D03*
D15*
X330200Y12700D02*
X330200Y0D01*
X304800Y0D02*
X304800Y12700D01*
X330200Y12700D01*
D14*
X73152Y117856D03*
X42164Y183388D03*
X38354Y160215D03*
D15*
X25400Y215900D02*
X25400Y228600D01*
D14*
X113284Y145034D03*
D15*
X50800Y215900D02*
X50800Y228600D01*
D14*
X97790Y96012D03*
X26162Y143510D03*
X323502Y131318D03*
X65786Y94996D03*
X66548Y80264D03*
X51562Y80264D03*
X66548Y65024D03*
X50038Y50292D03*
X287528Y156972D03*
X58928Y50292D03*
X58928Y40132D03*
X67818Y50292D03*
X50038Y40132D03*
X67818Y40132D03*
D15*
X50800Y12700D02*
X50800Y0D01*
X50800Y12700D02*
X76200Y12700D01*
X76200Y0D01*
D14*
X219500Y108032D03*
X219500Y102190D03*
X218230Y147402D03*
X218230Y139782D03*
X225596Y108032D03*
X201466Y102190D03*
X68370Y127082D03*
X63544Y119208D03*
X70148Y163150D03*
X70148Y150450D03*
X70148Y137750D03*
X76498Y144100D03*
X76498Y131400D03*
X212642Y102190D03*
X225596Y102190D03*
X206800Y102190D03*
X316738Y138430D03*
X278384Y145796D03*
X299720Y140208D03*
X291592Y180594D03*
X74676Y96012D03*
X91581Y103124D03*
X81280Y113538D03*
X31496Y183388D03*
X126628Y143662D03*
X38354Y147828D03*
X60706Y182626D03*
X119941Y145341D03*
X299974Y106680D03*
X295656Y100697D03*
D15*
X76200Y215900D02*
X76200Y228600D01*
M02*
