G04 EAGLE Gerber RS-274X export*
G75*
%MOMM*%
%FSLAX34Y34*%
%LPD*%
%IN*%
%IPPOS*%
%AMOC8*
5,1,8,0,0,1.08239X$1,22.5*%
G01*
%ADD10C,0.254000*%


D10*
X-40Y20000D02*
X20000Y0D01*
X340000Y0D01*
X340872Y38D01*
X341736Y152D01*
X342588Y341D01*
X343420Y603D01*
X344226Y937D01*
X345000Y1340D01*
X345736Y1808D01*
X346428Y2340D01*
X347071Y2929D01*
X347660Y3572D01*
X348192Y4264D01*
X348660Y5000D01*
X349063Y5774D01*
X349397Y6580D01*
X349659Y7412D01*
X349848Y8264D01*
X349962Y9128D01*
X350000Y10000D01*
X350000Y218600D01*
X349962Y219472D01*
X349848Y220336D01*
X349659Y221188D01*
X349397Y222020D01*
X349063Y222826D01*
X348660Y223600D01*
X348192Y224336D01*
X347660Y225028D01*
X347071Y225671D01*
X346428Y226260D01*
X345736Y226792D01*
X345000Y227260D01*
X344226Y227663D01*
X343420Y227997D01*
X342588Y228259D01*
X341736Y228448D01*
X340872Y228562D01*
X340000Y228600D01*
X10000Y228600D01*
X9128Y228562D01*
X8264Y228448D01*
X7412Y228259D01*
X6580Y227997D01*
X5774Y227663D01*
X5000Y227260D01*
X4264Y226792D01*
X3572Y226260D01*
X2929Y225671D01*
X2340Y225028D01*
X1808Y224336D01*
X1340Y223600D01*
X937Y222826D01*
X603Y222020D01*
X341Y221188D01*
X152Y220336D01*
X38Y219472D01*
X0Y218600D01*
X-40Y20000D01*
M02*
