G04 EAGLE Gerber RS-274X export*
G75*
%MOMM*%
%FSLAX34Y34*%
%LPD*%
%INSolderpaste Top*%
%IPPOS*%
%AMOC8*
5,1,8,0,0,1.08239X$1,22.5*%
G01*
%ADD10C,1.000000*%
%ADD11C,1.016000*%
%ADD12R,0.700000X0.850000*%
%ADD13R,0.450000X0.600000*%
%ADD14R,2.300000X1.650000*%
%ADD15R,0.457200X0.609600*%
%ADD16C,0.230000*%
%ADD17R,1.100000X1.100000*%
%ADD18R,0.609600X0.457200*%
%ADD19R,0.450000X0.550000*%
%ADD20R,0.850000X1.300000*%
%ADD21R,0.300000X0.800000*%
%ADD22R,0.660400X0.660400*%
%ADD23R,0.600000X0.450000*%
%ADD24R,1.300000X0.850000*%
%ADD25R,2.000000X0.850000*%
%ADD26R,0.250000X0.700000*%
%ADD27C,0.015800*%
%ADD28R,1.100000X0.200000*%
%ADD29C,0.230000*%
%ADD30R,2.200000X1.250000*%
%ADD31R,1.250000X2.200000*%


D10*
X340000Y194600D02*
X340000Y34000D01*
X10000Y34000D02*
X10000Y194600D01*
D11*
X10000Y33528D02*
X31750Y33528D01*
X92710Y33528D02*
X119380Y33528D01*
X195580Y33528D02*
X280924Y33528D01*
D10*
X126492Y195072D02*
X10000Y195072D01*
X266700Y195072D02*
X339598Y195072D01*
D12*
X307244Y54727D03*
X320244Y54727D03*
D13*
X218158Y119327D03*
X227558Y119327D03*
D12*
X229448Y131519D03*
X216448Y131519D03*
D14*
X218556Y57012D03*
X218556Y90012D03*
D15*
X308008Y101171D03*
X317660Y101171D03*
X317660Y111036D03*
X308008Y111036D03*
D16*
X290534Y95697D02*
X285034Y95697D01*
X285034Y100697D02*
X290534Y100697D01*
X290534Y105697D02*
X285034Y105697D01*
X285034Y110697D02*
X290534Y110697D01*
X290534Y115697D02*
X285034Y115697D01*
X285034Y120697D02*
X290534Y120697D01*
X280534Y125197D02*
X280534Y130697D01*
X275534Y130697D02*
X275534Y125197D01*
X270534Y125197D02*
X270534Y130697D01*
X265534Y130697D02*
X265534Y125197D01*
X260534Y125197D02*
X260534Y130697D01*
X255534Y130697D02*
X255534Y125197D01*
X251034Y120697D02*
X245534Y120697D01*
X245534Y115697D02*
X251034Y115697D01*
X251034Y110697D02*
X245534Y110697D01*
X245534Y105697D02*
X251034Y105697D01*
X251034Y100697D02*
X245534Y100697D01*
X245534Y95697D02*
X251034Y95697D01*
X255534Y91197D02*
X255534Y85697D01*
X260534Y85697D02*
X260534Y91197D01*
X265534Y91197D02*
X265534Y85697D01*
X270534Y85697D02*
X270534Y91197D01*
X275534Y91197D02*
X275534Y85697D01*
X280534Y85697D02*
X280534Y91197D01*
D17*
X261034Y101197D03*
X275034Y101197D03*
X275034Y115197D03*
X261034Y115197D03*
D15*
X317660Y121270D03*
X308008Y121270D03*
X317660Y131562D03*
X308008Y131562D03*
D18*
X271536Y152772D03*
X271536Y143120D03*
X261260Y143120D03*
X261260Y152772D03*
X137583Y172720D03*
X137583Y163068D03*
X147851Y172720D03*
X147851Y163068D03*
X158095Y172720D03*
X158095Y163068D03*
D15*
X317660Y79894D03*
X308008Y79894D03*
X317660Y90270D03*
X308008Y90270D03*
D19*
X258685Y75186D03*
X249285Y75186D03*
D20*
X245225Y171720D03*
X228725Y171720D03*
D19*
X240145Y142972D03*
X230745Y142972D03*
X239637Y152572D03*
X230237Y152572D03*
D13*
X280839Y64582D03*
X271439Y64582D03*
D19*
X280585Y74678D03*
X271185Y74678D03*
D12*
X270375Y53212D03*
X283375Y53212D03*
D21*
X305742Y145622D03*
X310742Y145622D03*
X320742Y145622D03*
X315742Y145622D03*
X305742Y173622D03*
X310742Y173622D03*
X320742Y173622D03*
X315742Y173622D03*
D22*
X313242Y159622D03*
D15*
X283383Y164169D03*
X293035Y164169D03*
D23*
X293017Y142447D03*
X293017Y151847D03*
D13*
X293163Y173553D03*
X283763Y173553D03*
D24*
X80367Y160395D03*
X80367Y176895D03*
D15*
X54610Y154499D03*
X64262Y154499D03*
D18*
X98546Y130161D03*
X98546Y139813D03*
X86396Y139333D03*
X86396Y129681D03*
D15*
X88025Y108366D03*
X97677Y108366D03*
D12*
X74054Y84191D03*
X87054Y84191D03*
D13*
X75856Y72784D03*
X85256Y72784D03*
X75856Y62502D03*
X85256Y62502D03*
D25*
X39373Y112785D03*
X39373Y96185D03*
D15*
X88025Y118464D03*
X97677Y118464D03*
D13*
X75780Y52658D03*
X85180Y52658D03*
D24*
X173836Y157354D03*
X173836Y173854D03*
D18*
X116846Y172720D03*
X116846Y163068D03*
D15*
X114200Y52003D03*
X104548Y52003D03*
X104548Y82865D03*
X114200Y82865D03*
X114200Y62289D03*
X104548Y62289D03*
D12*
X140390Y61411D03*
X127390Y61411D03*
D13*
X137162Y93157D03*
X127762Y93157D03*
X137162Y82865D03*
X127762Y82865D03*
D25*
X176493Y119471D03*
X176493Y102871D03*
D26*
X122394Y107034D03*
X117394Y107034D03*
X142394Y136034D03*
D27*
X146565Y129355D02*
X118223Y129355D01*
X146565Y129355D02*
X146565Y113713D01*
X118223Y113713D01*
X118223Y129355D01*
X118223Y113863D02*
X146565Y113863D01*
X146565Y114013D02*
X118223Y114013D01*
X118223Y114163D02*
X146565Y114163D01*
X146565Y114313D02*
X118223Y114313D01*
X118223Y114463D02*
X146565Y114463D01*
X146565Y114613D02*
X118223Y114613D01*
X118223Y114763D02*
X146565Y114763D01*
X146565Y114913D02*
X118223Y114913D01*
X118223Y115063D02*
X146565Y115063D01*
X146565Y115213D02*
X118223Y115213D01*
X118223Y115363D02*
X146565Y115363D01*
X146565Y115513D02*
X118223Y115513D01*
X118223Y115663D02*
X146565Y115663D01*
X146565Y115813D02*
X118223Y115813D01*
X118223Y115963D02*
X146565Y115963D01*
X146565Y116113D02*
X118223Y116113D01*
X118223Y116263D02*
X146565Y116263D01*
X146565Y116413D02*
X118223Y116413D01*
X118223Y116563D02*
X146565Y116563D01*
X146565Y116713D02*
X118223Y116713D01*
X118223Y116863D02*
X146565Y116863D01*
X146565Y117013D02*
X118223Y117013D01*
X118223Y117163D02*
X146565Y117163D01*
X146565Y117313D02*
X118223Y117313D01*
X118223Y117463D02*
X146565Y117463D01*
X146565Y117613D02*
X118223Y117613D01*
X118223Y117763D02*
X146565Y117763D01*
X146565Y117913D02*
X118223Y117913D01*
X118223Y118063D02*
X146565Y118063D01*
X146565Y118213D02*
X118223Y118213D01*
X118223Y118363D02*
X146565Y118363D01*
X146565Y118513D02*
X118223Y118513D01*
X118223Y118663D02*
X146565Y118663D01*
X146565Y118813D02*
X118223Y118813D01*
X118223Y118963D02*
X146565Y118963D01*
X146565Y119113D02*
X118223Y119113D01*
X118223Y119263D02*
X146565Y119263D01*
X146565Y119413D02*
X118223Y119413D01*
X118223Y119563D02*
X146565Y119563D01*
X146565Y119713D02*
X118223Y119713D01*
X118223Y119863D02*
X146565Y119863D01*
X146565Y120013D02*
X118223Y120013D01*
X118223Y120163D02*
X146565Y120163D01*
X146565Y120313D02*
X118223Y120313D01*
X118223Y120463D02*
X146565Y120463D01*
X146565Y120613D02*
X118223Y120613D01*
X118223Y120763D02*
X146565Y120763D01*
X146565Y120913D02*
X118223Y120913D01*
X118223Y121063D02*
X146565Y121063D01*
X146565Y121213D02*
X118223Y121213D01*
X118223Y121363D02*
X146565Y121363D01*
X146565Y121513D02*
X118223Y121513D01*
X118223Y121663D02*
X146565Y121663D01*
X146565Y121813D02*
X118223Y121813D01*
X118223Y121963D02*
X146565Y121963D01*
X146565Y122113D02*
X118223Y122113D01*
X118223Y122263D02*
X146565Y122263D01*
X146565Y122413D02*
X118223Y122413D01*
X118223Y122563D02*
X146565Y122563D01*
X146565Y122713D02*
X118223Y122713D01*
X118223Y122863D02*
X146565Y122863D01*
X146565Y123013D02*
X118223Y123013D01*
X118223Y123163D02*
X146565Y123163D01*
X146565Y123313D02*
X118223Y123313D01*
X118223Y123463D02*
X146565Y123463D01*
X146565Y123613D02*
X118223Y123613D01*
X118223Y123763D02*
X146565Y123763D01*
X146565Y123913D02*
X118223Y123913D01*
X118223Y124063D02*
X146565Y124063D01*
X146565Y124213D02*
X118223Y124213D01*
X118223Y124363D02*
X146565Y124363D01*
X146565Y124513D02*
X118223Y124513D01*
X118223Y124663D02*
X146565Y124663D01*
X146565Y124813D02*
X118223Y124813D01*
X118223Y124963D02*
X146565Y124963D01*
X146565Y125113D02*
X118223Y125113D01*
X118223Y125263D02*
X146565Y125263D01*
X146565Y125413D02*
X118223Y125413D01*
X118223Y125563D02*
X146565Y125563D01*
X146565Y125713D02*
X118223Y125713D01*
X118223Y125863D02*
X146565Y125863D01*
X146565Y126013D02*
X118223Y126013D01*
X118223Y126163D02*
X146565Y126163D01*
X146565Y126313D02*
X118223Y126313D01*
X118223Y126463D02*
X146565Y126463D01*
X146565Y126613D02*
X118223Y126613D01*
X118223Y126763D02*
X146565Y126763D01*
X146565Y126913D02*
X118223Y126913D01*
X118223Y127063D02*
X146565Y127063D01*
X146565Y127213D02*
X118223Y127213D01*
X118223Y127363D02*
X146565Y127363D01*
X146565Y127513D02*
X118223Y127513D01*
X118223Y127663D02*
X146565Y127663D01*
X146565Y127813D02*
X118223Y127813D01*
X118223Y127963D02*
X146565Y127963D01*
X146565Y128113D02*
X118223Y128113D01*
X118223Y128263D02*
X146565Y128263D01*
X146565Y128413D02*
X118223Y128413D01*
X118223Y128563D02*
X146565Y128563D01*
X146565Y128713D02*
X118223Y128713D01*
X118223Y128863D02*
X146565Y128863D01*
X146565Y129013D02*
X118223Y129013D01*
X118223Y129163D02*
X146565Y129163D01*
X146565Y129313D02*
X118223Y129313D01*
D26*
X127394Y107034D03*
X132394Y107034D03*
X137394Y107034D03*
X142394Y107034D03*
X147394Y107034D03*
X147394Y136034D03*
X137394Y136034D03*
X132394Y136034D03*
X127394Y136034D03*
X122394Y136034D03*
X117394Y136034D03*
D28*
X115894Y128434D03*
X115894Y123834D03*
X115894Y119234D03*
X115894Y114634D03*
X148894Y114634D03*
X148894Y119234D03*
X148894Y123834D03*
X148894Y128434D03*
D15*
X114200Y72515D03*
X104548Y72515D03*
D13*
X137162Y72515D03*
X127762Y72515D03*
D15*
X114200Y93157D03*
X104548Y93157D03*
D18*
X127183Y172720D03*
X127183Y163068D03*
X283695Y152772D03*
X283695Y143120D03*
X52476Y166057D03*
X52476Y175709D03*
X42084Y166057D03*
X42084Y175709D03*
X62793Y166057D03*
X62793Y175709D03*
X31416Y175709D03*
X31416Y166057D03*
D15*
X41969Y143831D03*
X32317Y143831D03*
D29*
X67545Y112616D03*
X71545Y112616D03*
X67545Y108616D03*
X71545Y108616D03*
X67545Y104616D03*
X71545Y104616D03*
X67545Y100616D03*
X71545Y100616D03*
D15*
X32371Y154377D03*
X42023Y154377D03*
X32317Y133580D03*
X41969Y133580D03*
D23*
X259268Y64883D03*
X259268Y55483D03*
D30*
X203708Y149106D03*
X203708Y175506D03*
D31*
X56642Y65278D03*
X30242Y65278D03*
X156218Y67310D03*
X182618Y67310D03*
D12*
X307190Y67310D03*
X320190Y67310D03*
D15*
X54610Y144098D03*
X64262Y144098D03*
X54610Y133684D03*
X64262Y133684D03*
D18*
X106426Y172720D03*
X106426Y163068D03*
X95758Y172720D03*
X95758Y163068D03*
D15*
X270002Y174488D03*
X260350Y174488D03*
X260604Y164169D03*
X270256Y164169D03*
M02*
