G04 EAGLE Gerber RS-274X export*
G75*
%MOMM*%
%FSLAX34Y34*%
%LPD*%
%INBottom Copper*%
%IPPOS*%
%AMOC8*
5,1,8,0,0,1.08239X$1,22.5*%
G01*
%ADD10C,0.152400*%
%ADD11C,0.503200*%
%ADD12C,1.778000*%
%ADD13C,1.016000*%
%ADD14R,1.100000X1.300000*%
%ADD15R,1.370000X2.330000*%
%ADD16C,0.406400*%
%ADD17C,1.524000*%
%ADD18C,0.203200*%
%ADD19C,0.508000*%
%ADD20C,1.016000*%
%ADD21C,0.304800*%
%ADD22C,0.457200*%

G36*
X37286Y25920D02*
X37286Y25920D01*
X37344Y25922D01*
X37383Y25940D01*
X37426Y25948D01*
X37474Y25981D01*
X37526Y26005D01*
X37559Y26039D01*
X37592Y26061D01*
X37615Y26096D01*
X37651Y26134D01*
X37760Y26297D01*
X37782Y26351D01*
X37813Y26401D01*
X37821Y26447D01*
X37836Y26482D01*
X37836Y26525D01*
X37845Y26578D01*
X37845Y36017D01*
X37829Y36096D01*
X37820Y36175D01*
X37810Y36195D01*
X37806Y36214D01*
X37774Y36260D01*
X37743Y36318D01*
X37842Y37198D01*
X37840Y37225D01*
X37845Y37255D01*
X37845Y37365D01*
X37841Y37388D01*
X37843Y37411D01*
X37817Y37507D01*
X37806Y37561D01*
X37799Y37571D01*
X37795Y37585D01*
X37729Y37721D01*
X37817Y37971D01*
X37823Y38013D01*
X37845Y38138D01*
X37845Y38143D01*
X37889Y38221D01*
X37920Y38267D01*
X37922Y38279D01*
X37929Y38291D01*
X37964Y38390D01*
X37970Y38439D01*
X37989Y38501D01*
X38036Y38920D01*
X38032Y38962D01*
X38027Y39089D01*
X38025Y39094D01*
X38051Y39180D01*
X38057Y39197D01*
X38067Y39204D01*
X38091Y39233D01*
X38115Y39249D01*
X38138Y39285D01*
X38180Y39331D01*
X38404Y39688D01*
X38422Y39734D01*
X38453Y39790D01*
X38593Y40188D01*
X38598Y40230D01*
X38621Y40355D01*
X38621Y40361D01*
X38665Y40438D01*
X38675Y40453D01*
X38686Y40459D01*
X38720Y40484D01*
X38824Y40557D01*
X39122Y40855D01*
X39150Y40896D01*
X39193Y40944D01*
X39417Y41300D01*
X39432Y41340D01*
X39482Y41458D01*
X39484Y41462D01*
X39543Y41528D01*
X39557Y41541D01*
X39568Y41544D01*
X39607Y41561D01*
X39726Y41609D01*
X40082Y41833D01*
X40118Y41867D01*
X40171Y41904D01*
X40469Y42202D01*
X40492Y42237D01*
X40567Y42340D01*
X40570Y42345D01*
X40643Y42396D01*
X40659Y42405D01*
X40671Y42405D01*
X40712Y42413D01*
X40838Y42433D01*
X41236Y42573D01*
X41278Y42598D01*
X41338Y42622D01*
X41695Y42846D01*
X41726Y42875D01*
X41822Y42959D01*
X41825Y42963D01*
X41907Y42996D01*
X41925Y43002D01*
X41937Y42999D01*
X41979Y42998D01*
X42106Y42990D01*
X42525Y43037D01*
X42572Y43052D01*
X42636Y43062D01*
X42735Y43097D01*
X42755Y43109D01*
X42778Y43115D01*
X42860Y43171D01*
X42876Y43181D01*
X42888Y43181D01*
X42929Y43189D01*
X43055Y43209D01*
X43305Y43297D01*
X43441Y43231D01*
X43464Y43225D01*
X43484Y43213D01*
X43582Y43195D01*
X43635Y43181D01*
X43648Y43183D01*
X43661Y43181D01*
X43771Y43181D01*
X43797Y43186D01*
X43828Y43184D01*
X44727Y43285D01*
X44758Y43276D01*
X44806Y43251D01*
X44853Y43247D01*
X44898Y43234D01*
X44952Y43240D01*
X45006Y43236D01*
X45051Y43250D01*
X45097Y43255D01*
X45145Y43282D01*
X45197Y43299D01*
X45232Y43330D01*
X45273Y43352D01*
X45306Y43395D01*
X45347Y43431D01*
X45368Y43473D01*
X45397Y43510D01*
X45414Y43568D01*
X45435Y43611D01*
X45437Y43644D01*
X45449Y43682D01*
X45462Y43802D01*
X45460Y43829D01*
X45465Y43859D01*
X45465Y81306D01*
X45452Y81373D01*
X45447Y81442D01*
X45432Y81473D01*
X45426Y81502D01*
X45397Y81544D01*
X45368Y81604D01*
X45332Y81654D01*
X45432Y82285D01*
X45431Y82314D01*
X45438Y82342D01*
X45426Y82429D01*
X45423Y82485D01*
X45416Y82501D01*
X45413Y82521D01*
X45314Y82826D01*
X45410Y83014D01*
X45415Y83031D01*
X45421Y83041D01*
X45423Y83050D01*
X45433Y83067D01*
X45449Y83153D01*
X45464Y83207D01*
X45462Y83224D01*
X45465Y83244D01*
X45465Y83348D01*
X45509Y83392D01*
X45547Y83450D01*
X45593Y83502D01*
X45604Y83535D01*
X45620Y83559D01*
X45624Y83578D01*
X45627Y83584D01*
X45634Y83623D01*
X45652Y83673D01*
X45653Y83683D01*
X45652Y83719D01*
X45659Y83761D01*
X45659Y83970D01*
X45668Y83981D01*
X45679Y84013D01*
X45693Y84034D01*
X45860Y84155D01*
X45885Y84182D01*
X45921Y84207D01*
X46062Y84348D01*
X46092Y84393D01*
X46155Y84477D01*
X46246Y84655D01*
X46256Y84690D01*
X46277Y84728D01*
X46341Y84928D01*
X46353Y84935D01*
X46374Y84962D01*
X46393Y84978D01*
X46590Y85041D01*
X46621Y85059D01*
X46663Y85072D01*
X46841Y85163D01*
X46883Y85196D01*
X46970Y85256D01*
X47111Y85397D01*
X47118Y85407D01*
X47121Y85409D01*
X47135Y85431D01*
X47163Y85458D01*
X47286Y85627D01*
X47299Y85630D01*
X47327Y85650D01*
X47350Y85659D01*
X47557Y85659D01*
X47574Y85662D01*
X47583Y85661D01*
X47604Y85666D01*
X47635Y85665D01*
X47645Y85666D01*
X47706Y85689D01*
X47753Y85698D01*
X47758Y85702D01*
X47778Y85706D01*
X47806Y85726D01*
X47833Y85736D01*
X47870Y85770D01*
X47926Y85809D01*
X47970Y85853D01*
X48074Y85853D01*
X48102Y85859D01*
X48132Y85856D01*
X48215Y85881D01*
X48270Y85892D01*
X48285Y85902D01*
X48304Y85908D01*
X48492Y86004D01*
X48797Y85905D01*
X48826Y85901D01*
X48853Y85890D01*
X48941Y85888D01*
X48996Y85882D01*
X49013Y85887D01*
X49033Y85886D01*
X49664Y85986D01*
X49714Y85950D01*
X49777Y85921D01*
X49835Y85885D01*
X49869Y85879D01*
X49896Y85866D01*
X49947Y85865D01*
X50012Y85853D01*
X80300Y85853D01*
X81789Y84364D01*
X81789Y31293D01*
X81791Y31284D01*
X81789Y31275D01*
X81827Y31098D01*
X82551Y29352D01*
X82551Y26416D01*
X82552Y26411D01*
X82551Y26406D01*
X82572Y26312D01*
X82590Y26219D01*
X82593Y26215D01*
X82594Y26210D01*
X82650Y26132D01*
X82703Y26054D01*
X82707Y26051D01*
X82710Y26047D01*
X82792Y25996D01*
X82871Y25944D01*
X82876Y25944D01*
X82881Y25941D01*
X83058Y25909D01*
X133122Y25909D01*
X133125Y25909D01*
X133127Y25909D01*
X133221Y25929D01*
X133318Y25948D01*
X133321Y25950D01*
X133323Y25950D01*
X133403Y26006D01*
X133484Y26061D01*
X133486Y26063D01*
X133488Y26065D01*
X133541Y26149D01*
X133593Y26229D01*
X133594Y26232D01*
X133595Y26234D01*
X133612Y26330D01*
X133629Y26426D01*
X133628Y26429D01*
X133629Y26432D01*
X133607Y26524D01*
X133585Y26622D01*
X133584Y26624D01*
X133583Y26627D01*
X133480Y26775D01*
X133414Y26841D01*
X133373Y26869D01*
X133325Y26912D01*
X132737Y27282D01*
X132701Y27295D01*
X132686Y27333D01*
X132316Y27921D01*
X132282Y27957D01*
X132245Y28010D01*
X131755Y28501D01*
X131722Y28522D01*
X131716Y28563D01*
X131486Y29218D01*
X131461Y29260D01*
X131437Y29320D01*
X131068Y29908D01*
X131041Y29936D01*
X131044Y29977D01*
X130966Y30667D01*
X130951Y30714D01*
X130941Y30778D01*
X130826Y31106D01*
X130814Y31127D01*
X130808Y31150D01*
X130786Y31182D01*
X130775Y31251D01*
X130706Y31447D01*
X130753Y31544D01*
X130759Y31566D01*
X130771Y31586D01*
X130789Y31684D01*
X130803Y31738D01*
X130801Y31750D01*
X130803Y31764D01*
X130803Y32081D01*
X130798Y32107D01*
X130800Y32138D01*
X130701Y33018D01*
X130729Y33073D01*
X130771Y33141D01*
X130775Y33163D01*
X130784Y33181D01*
X130788Y33236D01*
X130803Y33319D01*
X130803Y96289D01*
X130797Y96323D01*
X130798Y96364D01*
X130676Y97182D01*
X130703Y97219D01*
X130734Y97283D01*
X130771Y97344D01*
X130777Y97375D01*
X130789Y97400D01*
X130791Y97452D01*
X130803Y97521D01*
X130803Y97566D01*
X131389Y98152D01*
X131408Y98180D01*
X131437Y98208D01*
X131618Y98452D01*
X131643Y98505D01*
X131677Y98554D01*
X131687Y98599D01*
X131703Y98633D01*
X131705Y98677D01*
X131717Y98729D01*
X131724Y98857D01*
X132281Y99362D01*
X132307Y99398D01*
X132348Y99436D01*
X132819Y100071D01*
X132875Y100091D01*
X132880Y100096D01*
X132886Y100098D01*
X132953Y100163D01*
X133022Y100227D01*
X133025Y100233D01*
X133030Y100238D01*
X133048Y100277D01*
X133722Y100681D01*
X133755Y100711D01*
X133802Y100741D01*
X134389Y101272D01*
X134447Y101281D01*
X134453Y101284D01*
X134459Y101286D01*
X134538Y101336D01*
X134618Y101385D01*
X134622Y101391D01*
X134628Y101394D01*
X134653Y101429D01*
X135393Y101694D01*
X135431Y101717D01*
X135483Y101737D01*
X136162Y102144D01*
X136221Y102141D01*
X136228Y102143D01*
X136234Y102143D01*
X136322Y102178D01*
X136410Y102210D01*
X136415Y102214D01*
X136421Y102217D01*
X136452Y102246D01*
X137230Y102362D01*
X137272Y102377D01*
X137327Y102386D01*
X138072Y102653D01*
X138129Y102638D01*
X138136Y102639D01*
X138142Y102638D01*
X138235Y102655D01*
X138327Y102669D01*
X138333Y102673D01*
X138339Y102674D01*
X138376Y102697D01*
X139162Y102658D01*
X139205Y102665D01*
X139261Y102663D01*
X140044Y102779D01*
X140098Y102754D01*
X140104Y102754D01*
X140110Y102751D01*
X140204Y102749D01*
X140298Y102745D01*
X140304Y102748D01*
X140311Y102748D01*
X140351Y102763D01*
X141114Y102572D01*
X141158Y102570D01*
X141212Y102557D01*
X142003Y102518D01*
X142051Y102483D01*
X142057Y102482D01*
X142062Y102478D01*
X142154Y102458D01*
X142245Y102436D01*
X142252Y102437D01*
X142258Y102436D01*
X142301Y102443D01*
X143012Y102106D01*
X143055Y102096D01*
X143105Y102073D01*
X143849Y101886D01*
X143851Y101884D01*
X143895Y101851D01*
X143924Y101818D01*
X143958Y101802D01*
X143994Y101775D01*
X144547Y101493D01*
X144599Y101479D01*
X144698Y101444D01*
X144896Y101413D01*
X144932Y101414D01*
X144975Y101407D01*
X145184Y101407D01*
X145195Y101398D01*
X145227Y101387D01*
X145248Y101373D01*
X145369Y101206D01*
X145396Y101181D01*
X145421Y101145D01*
X145562Y101004D01*
X145607Y100974D01*
X145691Y100911D01*
X145869Y100820D01*
X145904Y100810D01*
X145942Y100789D01*
X146142Y100725D01*
X146149Y100713D01*
X146176Y100692D01*
X146192Y100673D01*
X146255Y100476D01*
X146273Y100445D01*
X146286Y100403D01*
X146377Y100225D01*
X146410Y100183D01*
X146470Y100096D01*
X146611Y99955D01*
X146642Y99935D01*
X146672Y99903D01*
X146841Y99780D01*
X146844Y99767D01*
X146864Y99739D01*
X146873Y99716D01*
X146873Y99696D01*
X146881Y99655D01*
X146880Y99612D01*
X146884Y99602D01*
X146897Y99502D01*
X146920Y99433D01*
X146936Y99362D01*
X146952Y99339D01*
X146962Y99312D01*
X147010Y99258D01*
X147052Y99199D01*
X147076Y99184D01*
X147095Y99162D01*
X147161Y99131D01*
X147222Y99093D01*
X147252Y99087D01*
X147276Y99076D01*
X147329Y99074D01*
X147400Y99061D01*
X150603Y99061D01*
X150677Y99076D01*
X150752Y99083D01*
X150776Y99096D01*
X150800Y99100D01*
X150845Y99131D01*
X150912Y99166D01*
X150926Y99176D01*
X151686Y99076D01*
X151728Y99079D01*
X151770Y99072D01*
X151835Y99087D01*
X151886Y99090D01*
X151912Y99103D01*
X151946Y99111D01*
X152164Y99201D01*
X152409Y99099D01*
X152418Y99098D01*
X152426Y99093D01*
X152603Y99061D01*
X152690Y99061D01*
X152703Y99048D01*
X152766Y99006D01*
X152824Y98959D01*
X152850Y98950D01*
X152870Y98937D01*
X152923Y98927D01*
X152995Y98904D01*
X153113Y98888D01*
X153168Y98892D01*
X153246Y98888D01*
X153377Y98906D01*
X153406Y98882D01*
X153469Y98862D01*
X153515Y98840D01*
X153534Y98838D01*
X153612Y98737D01*
X153654Y98701D01*
X153706Y98643D01*
X153882Y98508D01*
X153931Y98484D01*
X153997Y98442D01*
X154202Y98356D01*
X154256Y98346D01*
X154330Y98322D01*
X154461Y98305D01*
X154483Y98275D01*
X154539Y98239D01*
X154577Y98206D01*
X154596Y98199D01*
X154645Y98081D01*
X154675Y98036D01*
X154711Y97966D01*
X154846Y97790D01*
X154888Y97754D01*
X154940Y97696D01*
X155116Y97561D01*
X155165Y97537D01*
X155231Y97495D01*
X155353Y97444D01*
X155366Y97410D01*
X155411Y97360D01*
X155439Y97318D01*
X155455Y97308D01*
X155472Y97180D01*
X155490Y97129D01*
X155506Y97052D01*
X155592Y96847D01*
X155622Y96802D01*
X155658Y96732D01*
X155793Y96556D01*
X155834Y96520D01*
X155887Y96462D01*
X155992Y96382D01*
X155995Y96345D01*
X156026Y96286D01*
X156042Y96238D01*
X156055Y96223D01*
X156038Y96096D01*
X156042Y96041D01*
X156038Y95963D01*
X156054Y95845D01*
X156078Y95774D01*
X156095Y95701D01*
X156111Y95678D01*
X156119Y95656D01*
X156155Y95615D01*
X156198Y95553D01*
X156211Y95540D01*
X156211Y95453D01*
X156213Y95444D01*
X156211Y95435D01*
X156249Y95259D01*
X156351Y95014D01*
X156261Y94796D01*
X156252Y94755D01*
X156235Y94716D01*
X156232Y94649D01*
X156222Y94600D01*
X156228Y94571D01*
X156226Y94536D01*
X156326Y93776D01*
X156316Y93762D01*
X156282Y93695D01*
X156243Y93631D01*
X156238Y93604D01*
X156227Y93582D01*
X156224Y93528D01*
X156211Y93453D01*
X156211Y89408D01*
X156212Y89403D01*
X156211Y89398D01*
X156232Y89305D01*
X156250Y89211D01*
X156253Y89207D01*
X156254Y89202D01*
X156310Y89124D01*
X156363Y89046D01*
X156367Y89043D01*
X156370Y89039D01*
X156452Y88988D01*
X156531Y88936D01*
X156536Y88936D01*
X156541Y88933D01*
X156718Y88901D01*
X167621Y88901D01*
X167695Y88916D01*
X167770Y88923D01*
X167794Y88936D01*
X167818Y88940D01*
X167863Y88971D01*
X167930Y89006D01*
X167944Y89016D01*
X168770Y88908D01*
X168812Y88911D01*
X168854Y88904D01*
X168919Y88918D01*
X168970Y88921D01*
X168996Y88935D01*
X169030Y88942D01*
X169248Y89032D01*
X169472Y88939D01*
X169481Y88938D01*
X169489Y88933D01*
X169666Y88901D01*
X169708Y88901D01*
X169721Y88888D01*
X169784Y88846D01*
X169842Y88799D01*
X169868Y88790D01*
X169888Y88777D01*
X169941Y88767D01*
X170013Y88744D01*
X170324Y88703D01*
X170379Y88707D01*
X170457Y88703D01*
X170521Y88711D01*
X170524Y88709D01*
X170587Y88689D01*
X170613Y88676D01*
X170656Y88621D01*
X170697Y88585D01*
X170749Y88527D01*
X171027Y88314D01*
X171076Y88290D01*
X171142Y88247D01*
X171466Y88113D01*
X171519Y88103D01*
X171594Y88079D01*
X171658Y88071D01*
X171660Y88068D01*
X171716Y88032D01*
X171738Y88013D01*
X171764Y87948D01*
X171795Y87903D01*
X171831Y87833D01*
X172044Y87555D01*
X172085Y87520D01*
X172137Y87462D01*
X172415Y87249D01*
X172464Y87225D01*
X172530Y87182D01*
X172590Y87158D01*
X172591Y87154D01*
X172636Y87105D01*
X172652Y87081D01*
X172661Y87012D01*
X172679Y86960D01*
X172695Y86884D01*
X172829Y86560D01*
X172860Y86515D01*
X172896Y86445D01*
X173109Y86168D01*
X173150Y86132D01*
X173203Y86074D01*
X173254Y86035D01*
X173254Y86031D01*
X173285Y85972D01*
X173294Y85944D01*
X173285Y85875D01*
X173289Y85820D01*
X173285Y85742D01*
X173326Y85431D01*
X173350Y85360D01*
X173367Y85287D01*
X173383Y85264D01*
X173391Y85242D01*
X173427Y85201D01*
X173470Y85139D01*
X173483Y85126D01*
X173483Y85084D01*
X173485Y85075D01*
X173483Y85066D01*
X173521Y84890D01*
X173614Y84666D01*
X173524Y84448D01*
X173516Y84406D01*
X173498Y84368D01*
X173495Y84301D01*
X173485Y84251D01*
X173488Y84238D01*
X173487Y84232D01*
X173491Y84214D01*
X173490Y84188D01*
X173598Y83362D01*
X173588Y83348D01*
X173554Y83281D01*
X173515Y83217D01*
X173510Y83190D01*
X173499Y83168D01*
X173496Y83114D01*
X173483Y83039D01*
X173483Y42060D01*
X173487Y42037D01*
X173485Y42010D01*
X173563Y41219D01*
X173576Y41177D01*
X173582Y41121D01*
X173770Y40505D01*
X173791Y40466D01*
X173808Y40413D01*
X174111Y39845D01*
X174140Y39810D01*
X174167Y39762D01*
X174575Y39264D01*
X174596Y39247D01*
X174604Y39235D01*
X174617Y39227D01*
X174646Y39193D01*
X175144Y38785D01*
X175183Y38764D01*
X175227Y38729D01*
X175795Y38426D01*
X175837Y38413D01*
X175887Y38388D01*
X176503Y38200D01*
X176548Y38196D01*
X176601Y38181D01*
X177392Y38103D01*
X177415Y38106D01*
X177442Y38101D01*
X182353Y38101D01*
X182427Y38116D01*
X182502Y38123D01*
X182526Y38136D01*
X182550Y38140D01*
X182595Y38171D01*
X182662Y38206D01*
X182676Y38216D01*
X183436Y38116D01*
X183478Y38119D01*
X183520Y38112D01*
X183585Y38127D01*
X183636Y38130D01*
X183662Y38143D01*
X183696Y38151D01*
X183914Y38241D01*
X184159Y38139D01*
X184168Y38138D01*
X184176Y38133D01*
X184353Y38101D01*
X184440Y38101D01*
X184453Y38088D01*
X184516Y38046D01*
X184574Y37999D01*
X184600Y37990D01*
X184620Y37977D01*
X184673Y37967D01*
X184745Y37944D01*
X184864Y37928D01*
X184918Y37932D01*
X184996Y37928D01*
X185127Y37946D01*
X185156Y37922D01*
X185219Y37902D01*
X185265Y37880D01*
X185284Y37878D01*
X185362Y37777D01*
X185398Y37746D01*
X185421Y37713D01*
X185439Y37702D01*
X185456Y37683D01*
X185632Y37548D01*
X185681Y37524D01*
X185747Y37482D01*
X185952Y37396D01*
X186006Y37386D01*
X186080Y37362D01*
X186211Y37345D01*
X186233Y37315D01*
X186289Y37279D01*
X186327Y37246D01*
X186346Y37239D01*
X186395Y37121D01*
X186425Y37076D01*
X186461Y37006D01*
X186596Y36830D01*
X186637Y36794D01*
X186690Y36736D01*
X186866Y36601D01*
X186915Y36577D01*
X186981Y36535D01*
X187103Y36484D01*
X187116Y36450D01*
X187161Y36400D01*
X187189Y36358D01*
X187205Y36348D01*
X187222Y36220D01*
X187240Y36169D01*
X187256Y36092D01*
X187342Y35887D01*
X187368Y35848D01*
X187372Y35842D01*
X187408Y35772D01*
X187543Y35596D01*
X187584Y35560D01*
X187637Y35502D01*
X187742Y35422D01*
X187745Y35385D01*
X187763Y35352D01*
X187765Y35341D01*
X187776Y35325D01*
X187792Y35278D01*
X187805Y35263D01*
X187788Y35136D01*
X187792Y35081D01*
X187790Y35040D01*
X187788Y35029D01*
X187789Y35024D01*
X187788Y35003D01*
X187804Y34885D01*
X187828Y34814D01*
X187845Y34741D01*
X187861Y34718D01*
X187869Y34696D01*
X187905Y34655D01*
X187948Y34593D01*
X187961Y34580D01*
X187961Y34493D01*
X187963Y34484D01*
X187961Y34475D01*
X187999Y34299D01*
X188101Y34054D01*
X188011Y33836D01*
X188002Y33795D01*
X187985Y33756D01*
X187982Y33689D01*
X187972Y33640D01*
X187978Y33611D01*
X187976Y33576D01*
X188076Y32816D01*
X188066Y32802D01*
X188032Y32735D01*
X188024Y32721D01*
X188004Y32690D01*
X188003Y32688D01*
X187993Y32671D01*
X187988Y32644D01*
X187977Y32622D01*
X187974Y32568D01*
X187961Y32493D01*
X187961Y26416D01*
X187962Y26411D01*
X187961Y26406D01*
X187982Y26312D01*
X188000Y26219D01*
X188003Y26215D01*
X188004Y26210D01*
X188060Y26132D01*
X188113Y26054D01*
X188117Y26051D01*
X188120Y26047D01*
X188202Y25996D01*
X188281Y25944D01*
X188286Y25944D01*
X188291Y25941D01*
X188468Y25909D01*
X289327Y25909D01*
X289331Y25910D01*
X289335Y25909D01*
X289429Y25929D01*
X289524Y25948D01*
X289527Y25951D01*
X289531Y25951D01*
X289610Y26007D01*
X289689Y26061D01*
X289691Y26064D01*
X289695Y26067D01*
X289746Y26149D01*
X289799Y26229D01*
X289799Y26233D01*
X289801Y26236D01*
X289817Y26332D01*
X289834Y26426D01*
X289833Y26430D01*
X289834Y26434D01*
X289796Y26610D01*
X289751Y26718D01*
X289955Y27210D01*
X289963Y27252D01*
X289981Y27290D01*
X289984Y27357D01*
X289994Y27407D01*
X289988Y27432D01*
X289990Y27441D01*
X289988Y27449D01*
X289989Y27470D01*
X289859Y28459D01*
X289962Y28594D01*
X289996Y28661D01*
X290035Y28725D01*
X290040Y28752D01*
X290051Y28774D01*
X290054Y28828D01*
X290067Y28902D01*
X290067Y75548D01*
X290053Y75619D01*
X290046Y75692D01*
X290033Y75717D01*
X290028Y75744D01*
X289987Y75805D01*
X289953Y75869D01*
X289931Y75887D01*
X289915Y75910D01*
X289854Y75950D01*
X289798Y75996D01*
X289769Y76005D01*
X289747Y76019D01*
X289695Y76029D01*
X289626Y76051D01*
X288893Y76147D01*
X288851Y76144D01*
X288809Y76151D01*
X288744Y76137D01*
X288693Y76134D01*
X288667Y76120D01*
X288633Y76113D01*
X288570Y76087D01*
X288141Y75909D01*
X287533Y76161D01*
X287524Y76162D01*
X287516Y76167D01*
X287339Y76199D01*
X286904Y76199D01*
X286888Y76216D01*
X286853Y76238D01*
X286825Y76269D01*
X286771Y76293D01*
X286721Y76327D01*
X286680Y76334D01*
X286643Y76351D01*
X286574Y76355D01*
X286524Y76364D01*
X286496Y76358D01*
X286463Y76360D01*
X286247Y76331D01*
X286096Y76447D01*
X286058Y76466D01*
X286025Y76493D01*
X285962Y76513D01*
X285916Y76535D01*
X285887Y76537D01*
X285854Y76547D01*
X285666Y76572D01*
X285361Y76970D01*
X285355Y76975D01*
X285351Y76982D01*
X285329Y77000D01*
X285327Y77003D01*
X285321Y77007D01*
X285279Y77041D01*
X285210Y77102D01*
X285202Y77104D01*
X285196Y77109D01*
X285024Y77164D01*
X284527Y77230D01*
X284412Y77380D01*
X284380Y77408D01*
X284355Y77442D01*
X284299Y77479D01*
X284261Y77512D01*
X284233Y77521D01*
X284203Y77540D01*
X284028Y77612D01*
X283836Y78076D01*
X283832Y78082D01*
X283830Y78090D01*
X283776Y78166D01*
X283725Y78242D01*
X283718Y78247D01*
X283713Y78253D01*
X283562Y78350D01*
X283098Y78542D01*
X283026Y78717D01*
X283002Y78753D01*
X282987Y78792D01*
X282942Y78842D01*
X282914Y78884D01*
X282889Y78900D01*
X282866Y78926D01*
X282716Y79041D01*
X282650Y79538D01*
X282648Y79546D01*
X282648Y79554D01*
X282615Y79640D01*
X282585Y79728D01*
X282580Y79734D01*
X282577Y79741D01*
X282456Y79875D01*
X282058Y80180D01*
X282033Y80368D01*
X282020Y80408D01*
X282016Y80450D01*
X281985Y80510D01*
X281969Y80557D01*
X281949Y80580D01*
X281933Y80610D01*
X281817Y80761D01*
X281846Y80977D01*
X281843Y81018D01*
X281850Y81058D01*
X281836Y81117D01*
X281832Y81177D01*
X281814Y81214D01*
X281804Y81254D01*
X281765Y81310D01*
X281742Y81356D01*
X281721Y81374D01*
X281702Y81402D01*
X281685Y81418D01*
X281685Y81853D01*
X281683Y81862D01*
X281685Y81871D01*
X281647Y82047D01*
X281395Y82655D01*
X281599Y83147D01*
X281607Y83189D01*
X281625Y83227D01*
X281628Y83294D01*
X281638Y83344D01*
X281632Y83373D01*
X281633Y83407D01*
X281477Y84593D01*
X281580Y84728D01*
X281614Y84795D01*
X281653Y84859D01*
X281658Y84886D01*
X281669Y84908D01*
X281672Y84962D01*
X281685Y85036D01*
X281685Y88446D01*
X281670Y88520D01*
X281663Y88594D01*
X281650Y88619D01*
X281646Y88642D01*
X281615Y88687D01*
X281580Y88754D01*
X281477Y88889D01*
X281616Y89943D01*
X281613Y89986D01*
X281620Y90028D01*
X281606Y90093D01*
X281602Y90143D01*
X281589Y90170D01*
X281582Y90204D01*
X281378Y90696D01*
X281647Y91345D01*
X281648Y91354D01*
X281653Y91362D01*
X281685Y91539D01*
X281685Y92098D01*
X281690Y92108D01*
X281723Y92158D01*
X281731Y92198D01*
X281748Y92236D01*
X281751Y92304D01*
X281760Y92354D01*
X281758Y92364D01*
X281759Y92369D01*
X281755Y92388D01*
X281756Y92416D01*
X281749Y92467D01*
X281907Y92672D01*
X281925Y92710D01*
X281952Y92743D01*
X281973Y92807D01*
X281995Y92852D01*
X281997Y92881D01*
X282007Y92915D01*
X282041Y93171D01*
X282326Y93389D01*
X282331Y93395D01*
X282338Y93399D01*
X282397Y93471D01*
X282458Y93540D01*
X282460Y93548D01*
X282465Y93554D01*
X282520Y93726D01*
X282567Y94082D01*
X282772Y94239D01*
X282800Y94271D01*
X282834Y94296D01*
X282870Y94352D01*
X282904Y94390D01*
X282913Y94418D01*
X282932Y94447D01*
X283030Y94686D01*
X283362Y94823D01*
X283369Y94828D01*
X283376Y94829D01*
X283452Y94884D01*
X283529Y94935D01*
X283533Y94942D01*
X283539Y94946D01*
X283637Y95098D01*
X283774Y95430D01*
X283803Y95442D01*
X284013Y95528D01*
X284048Y95552D01*
X284088Y95567D01*
X284137Y95612D01*
X284179Y95640D01*
X284195Y95665D01*
X284221Y95688D01*
X284378Y95893D01*
X284734Y95940D01*
X284742Y95943D01*
X284750Y95942D01*
X284837Y95975D01*
X284924Y96005D01*
X284930Y96010D01*
X284937Y96013D01*
X285071Y96134D01*
X285289Y96419D01*
X285545Y96453D01*
X285586Y96467D01*
X285628Y96471D01*
X285687Y96501D01*
X285735Y96518D01*
X285757Y96537D01*
X285788Y96553D01*
X285993Y96711D01*
X286044Y96704D01*
X286086Y96707D01*
X286126Y96700D01*
X286184Y96713D01*
X286244Y96717D01*
X286281Y96736D01*
X286321Y96745D01*
X286364Y96775D01*
X286921Y96775D01*
X286930Y96777D01*
X286939Y96775D01*
X287115Y96813D01*
X287117Y96814D01*
X287477Y96963D01*
X287764Y97082D01*
X288256Y96878D01*
X288298Y96870D01*
X288337Y96853D01*
X288404Y96849D01*
X288453Y96840D01*
X288482Y96846D01*
X288517Y96844D01*
X289571Y96983D01*
X289706Y96880D01*
X289773Y96846D01*
X289837Y96807D01*
X289864Y96802D01*
X289886Y96791D01*
X289940Y96788D01*
X290014Y96775D01*
X293323Y96775D01*
X293326Y96775D01*
X293329Y96775D01*
X293423Y96795D01*
X293520Y96814D01*
X293522Y96816D01*
X293525Y96816D01*
X293605Y96872D01*
X293686Y96927D01*
X293687Y96929D01*
X293689Y96931D01*
X293742Y97014D01*
X293795Y97095D01*
X293795Y97098D01*
X293797Y97100D01*
X293813Y97196D01*
X293831Y97292D01*
X293830Y97295D01*
X293830Y97297D01*
X293808Y97392D01*
X293787Y97488D01*
X293785Y97490D01*
X293785Y97493D01*
X293682Y97641D01*
X292099Y99223D01*
X292099Y102170D01*
X294183Y104253D01*
X295050Y104253D01*
X295058Y104255D01*
X295066Y104254D01*
X295156Y104275D01*
X295247Y104293D01*
X295253Y104297D01*
X295261Y104299D01*
X295409Y104402D01*
X296269Y105262D01*
X296273Y105268D01*
X296279Y105273D01*
X296328Y105351D01*
X296380Y105429D01*
X296381Y105436D01*
X296385Y105443D01*
X296417Y105620D01*
X296417Y106934D01*
X296416Y106939D01*
X296417Y106944D01*
X296397Y107037D01*
X296378Y107131D01*
X296375Y107135D01*
X296374Y107140D01*
X296318Y107218D01*
X296265Y107296D01*
X296261Y107299D01*
X296258Y107303D01*
X296176Y107354D01*
X296097Y107406D01*
X296092Y107406D01*
X296087Y107409D01*
X295910Y107441D01*
X294183Y107441D01*
X292099Y109525D01*
X292099Y112471D01*
X294183Y114555D01*
X295116Y114555D01*
X295118Y114555D01*
X295121Y114555D01*
X295216Y114575D01*
X295312Y114594D01*
X295314Y114596D01*
X295317Y114596D01*
X295398Y114652D01*
X295478Y114707D01*
X295479Y114709D01*
X295482Y114711D01*
X295535Y114794D01*
X295587Y114875D01*
X295588Y114878D01*
X295589Y114880D01*
X295605Y114976D01*
X295623Y115072D01*
X295622Y115075D01*
X295623Y115077D01*
X295601Y115172D01*
X295579Y115268D01*
X295578Y115270D01*
X295577Y115273D01*
X295474Y115421D01*
X294131Y116764D01*
X294131Y119710D01*
X295521Y121100D01*
X295523Y121102D01*
X295525Y121104D01*
X295577Y121184D01*
X295632Y121267D01*
X295633Y121270D01*
X295634Y121272D01*
X295652Y121368D01*
X295670Y121464D01*
X295669Y121467D01*
X295670Y121469D01*
X295648Y121565D01*
X295628Y121660D01*
X295627Y121662D01*
X295626Y121665D01*
X295570Y121745D01*
X295514Y121825D01*
X295512Y121826D01*
X295510Y121828D01*
X295426Y121881D01*
X295345Y121932D01*
X295342Y121933D01*
X295340Y121934D01*
X295163Y121966D01*
X293167Y121966D01*
X291083Y124050D01*
X291083Y126169D01*
X291082Y126174D01*
X291083Y126179D01*
X291062Y126272D01*
X291044Y126365D01*
X291041Y126370D01*
X291040Y126375D01*
X290984Y126453D01*
X290931Y126531D01*
X290927Y126534D01*
X290924Y126538D01*
X290842Y126589D01*
X290763Y126640D01*
X290758Y126641D01*
X290753Y126644D01*
X290576Y126676D01*
X287579Y126676D01*
X285495Y128760D01*
X285495Y131706D01*
X287579Y133790D01*
X288769Y133790D01*
X288772Y133790D01*
X288775Y133790D01*
X288869Y133810D01*
X288966Y133829D01*
X288968Y133831D01*
X288971Y133831D01*
X289051Y133887D01*
X289132Y133942D01*
X289133Y133944D01*
X289135Y133946D01*
X289188Y134029D01*
X289241Y134110D01*
X289241Y134113D01*
X289243Y134115D01*
X289259Y134211D01*
X289277Y134307D01*
X289276Y134310D01*
X289276Y134312D01*
X289255Y134406D01*
X289233Y134503D01*
X289231Y134505D01*
X289231Y134508D01*
X289128Y134656D01*
X286765Y137018D01*
X286765Y152908D01*
X286764Y152913D01*
X286765Y152918D01*
X286744Y153011D01*
X286726Y153105D01*
X286723Y153109D01*
X286722Y153114D01*
X286666Y153192D01*
X286613Y153270D01*
X286609Y153273D01*
X286606Y153277D01*
X286524Y153328D01*
X286445Y153380D01*
X286440Y153380D01*
X286435Y153383D01*
X286258Y153415D01*
X286055Y153415D01*
X283971Y155499D01*
X283971Y158445D01*
X286055Y160529D01*
X289001Y160529D01*
X291085Y158445D01*
X291085Y157578D01*
X291086Y157570D01*
X291085Y157562D01*
X291106Y157472D01*
X291124Y157381D01*
X291129Y157375D01*
X291131Y157367D01*
X291233Y157219D01*
X292355Y156098D01*
X292355Y139544D01*
X292356Y139536D01*
X292355Y139528D01*
X292376Y139438D01*
X292394Y139347D01*
X292399Y139341D01*
X292401Y139333D01*
X292503Y139185D01*
X298443Y133245D01*
X298450Y133241D01*
X298454Y133235D01*
X298533Y133186D01*
X298610Y133134D01*
X298618Y133133D01*
X298624Y133129D01*
X298802Y133097D01*
X320041Y133097D01*
X320049Y133098D01*
X320057Y133097D01*
X320147Y133118D01*
X320238Y133136D01*
X320244Y133141D01*
X320252Y133143D01*
X320400Y133245D01*
X322029Y134875D01*
X324976Y134875D01*
X327059Y132791D01*
X327059Y129845D01*
X325843Y128629D01*
X325842Y128626D01*
X325839Y128625D01*
X325787Y128545D01*
X325732Y128462D01*
X325732Y128459D01*
X325730Y128457D01*
X325713Y128361D01*
X325695Y128265D01*
X325695Y128262D01*
X325695Y128260D01*
X325716Y128163D01*
X325736Y128069D01*
X325738Y128067D01*
X325738Y128064D01*
X325795Y127984D01*
X325850Y127904D01*
X325853Y127903D01*
X325854Y127901D01*
X325938Y127848D01*
X326020Y127797D01*
X326022Y127796D01*
X326024Y127795D01*
X326202Y127763D01*
X336104Y127763D01*
X336551Y127316D01*
X336551Y124479D01*
X336552Y124472D01*
X336551Y124464D01*
X336572Y124374D01*
X336590Y124283D01*
X336595Y124276D01*
X336597Y124269D01*
X336699Y124121D01*
X336711Y124109D01*
X336711Y109846D01*
X336699Y109834D01*
X336695Y109827D01*
X336689Y109823D01*
X336640Y109744D01*
X336588Y109667D01*
X336587Y109659D01*
X336583Y109652D01*
X336551Y109475D01*
X336551Y107634D01*
X336104Y107187D01*
X319292Y107187D01*
X319284Y107186D01*
X319276Y107187D01*
X319187Y107166D01*
X319095Y107148D01*
X319089Y107143D01*
X319081Y107141D01*
X318933Y107039D01*
X311462Y99567D01*
X299720Y99567D01*
X299715Y99566D01*
X299710Y99567D01*
X299617Y99546D01*
X299523Y99528D01*
X299519Y99525D01*
X299514Y99524D01*
X299436Y99468D01*
X299358Y99415D01*
X299355Y99411D01*
X299351Y99408D01*
X299300Y99326D01*
X299271Y99282D01*
X297630Y97641D01*
X297628Y97638D01*
X297626Y97637D01*
X297574Y97556D01*
X297519Y97474D01*
X297519Y97471D01*
X297517Y97469D01*
X297500Y97373D01*
X297481Y97277D01*
X297482Y97274D01*
X297481Y97272D01*
X297503Y97173D01*
X297523Y97081D01*
X297525Y97079D01*
X297525Y97076D01*
X297582Y96996D01*
X297637Y96916D01*
X297640Y96915D01*
X297641Y96913D01*
X297725Y96860D01*
X297807Y96809D01*
X297809Y96808D01*
X297811Y96807D01*
X297989Y96775D01*
X306886Y96775D01*
X306960Y96790D01*
X307034Y96797D01*
X307059Y96810D01*
X307082Y96814D01*
X307127Y96845D01*
X307194Y96880D01*
X307329Y96983D01*
X308318Y96853D01*
X308360Y96856D01*
X308402Y96849D01*
X308467Y96863D01*
X308518Y96866D01*
X308544Y96880D01*
X308578Y96887D01*
X308762Y96963D01*
X309070Y97091D01*
X309740Y96813D01*
X309749Y96812D01*
X309757Y96807D01*
X309934Y96775D01*
X310591Y96775D01*
X310593Y96774D01*
X310631Y96757D01*
X310699Y96754D01*
X310749Y96744D01*
X310773Y96750D01*
X311012Y96566D01*
X311050Y96548D01*
X311083Y96521D01*
X311147Y96501D01*
X311192Y96478D01*
X311222Y96477D01*
X311255Y96466D01*
X311545Y96428D01*
X311720Y96199D01*
X311726Y96194D01*
X311730Y96187D01*
X311802Y96128D01*
X311871Y96067D01*
X311879Y96065D01*
X311885Y96060D01*
X312057Y96005D01*
X312342Y95967D01*
X312520Y95735D01*
X312552Y95707D01*
X312577Y95673D01*
X312633Y95637D01*
X312671Y95604D01*
X312700Y95594D01*
X312729Y95575D01*
X312999Y95464D01*
X313109Y95198D01*
X313110Y95196D01*
X313113Y95191D01*
X313115Y95183D01*
X313169Y95108D01*
X313221Y95031D01*
X313227Y95027D01*
X313232Y95020D01*
X313384Y94923D01*
X313650Y94813D01*
X313761Y94543D01*
X313785Y94507D01*
X313800Y94468D01*
X313845Y94418D01*
X313873Y94376D01*
X313898Y94360D01*
X313921Y94334D01*
X314153Y94156D01*
X314191Y93871D01*
X314194Y93863D01*
X314193Y93855D01*
X314226Y93769D01*
X314256Y93681D01*
X314261Y93675D01*
X314264Y93668D01*
X314385Y93534D01*
X314614Y93359D01*
X314652Y93069D01*
X314666Y93028D01*
X314670Y92986D01*
X314701Y92927D01*
X314717Y92879D01*
X314737Y92857D01*
X314752Y92826D01*
X314937Y92585D01*
X314938Y92583D01*
X314931Y92543D01*
X314944Y92485D01*
X314948Y92425D01*
X314961Y92400D01*
X314961Y91748D01*
X314963Y91739D01*
X314961Y91730D01*
X314999Y91554D01*
X315277Y90884D01*
X315073Y90392D01*
X315065Y90350D01*
X315047Y90312D01*
X315044Y90245D01*
X315034Y90195D01*
X315040Y90166D01*
X315039Y90132D01*
X315169Y89143D01*
X315066Y89008D01*
X315032Y88941D01*
X314993Y88877D01*
X314988Y88850D01*
X314977Y88828D01*
X314974Y88774D01*
X314961Y88700D01*
X314961Y49780D01*
X314965Y49757D01*
X314964Y49740D01*
X314964Y49739D01*
X314963Y49730D01*
X315002Y49336D01*
X315015Y49294D01*
X315021Y49239D01*
X315063Y49101D01*
X315081Y49067D01*
X315088Y49036D01*
X315096Y49025D01*
X315101Y49009D01*
X315169Y48881D01*
X315198Y48847D01*
X315225Y48799D01*
X315316Y48687D01*
X315351Y48659D01*
X315387Y48616D01*
X315499Y48525D01*
X315538Y48504D01*
X315581Y48469D01*
X315709Y48401D01*
X315751Y48389D01*
X315801Y48363D01*
X315939Y48321D01*
X315983Y48317D01*
X316036Y48302D01*
X316430Y48263D01*
X316453Y48266D01*
X316480Y48261D01*
X324358Y48261D01*
X324437Y48277D01*
X324516Y48286D01*
X324536Y48296D01*
X324555Y48300D01*
X324601Y48332D01*
X324675Y48371D01*
X324766Y48444D01*
X325872Y48319D01*
X325924Y48324D01*
X325975Y48318D01*
X326028Y48333D01*
X326072Y48337D01*
X326105Y48354D01*
X326149Y48366D01*
X326537Y48553D01*
X327292Y48289D01*
X327334Y48283D01*
X327459Y48261D01*
X328208Y48261D01*
X328257Y48271D01*
X328278Y48271D01*
X328613Y48061D01*
X328635Y48053D01*
X328653Y48038D01*
X328749Y48010D01*
X328800Y47990D01*
X328813Y47991D01*
X328826Y47987D01*
X329208Y47944D01*
X329333Y47787D01*
X329361Y47763D01*
X329382Y47734D01*
X329437Y47699D01*
X329487Y47658D01*
X329522Y47647D01*
X329553Y47628D01*
X329627Y47614D01*
X329678Y47598D01*
X329702Y47601D01*
X329730Y47596D01*
X329931Y47596D01*
X330202Y47324D01*
X330222Y47311D01*
X330237Y47292D01*
X330323Y47243D01*
X330369Y47213D01*
X330382Y47210D01*
X330394Y47204D01*
X330757Y47077D01*
X330844Y46896D01*
X330866Y46867D01*
X330880Y46833D01*
X330925Y46788D01*
X330964Y46736D01*
X330996Y46718D01*
X331022Y46692D01*
X331091Y46663D01*
X331138Y46636D01*
X331162Y46633D01*
X331188Y46622D01*
X331383Y46577D01*
X331588Y46251D01*
X331604Y46234D01*
X331614Y46213D01*
X331688Y46146D01*
X331726Y46106D01*
X331737Y46101D01*
X331747Y46092D01*
X332073Y45887D01*
X332118Y45692D01*
X332133Y45658D01*
X332139Y45622D01*
X332173Y45568D01*
X332200Y45509D01*
X332227Y45484D01*
X332246Y45453D01*
X332307Y45409D01*
X332347Y45372D01*
X332369Y45364D01*
X332392Y45348D01*
X332573Y45261D01*
X332700Y44898D01*
X332712Y44877D01*
X332717Y44854D01*
X332774Y44773D01*
X332802Y44725D01*
X332812Y44718D01*
X332820Y44706D01*
X333092Y44435D01*
X333092Y44234D01*
X333099Y44198D01*
X333097Y44162D01*
X333119Y44101D01*
X333131Y44037D01*
X333152Y44007D01*
X333164Y43973D01*
X333214Y43916D01*
X333244Y43872D01*
X333264Y43858D01*
X333283Y43837D01*
X333440Y43712D01*
X333483Y43330D01*
X333490Y43308D01*
X333490Y43284D01*
X333527Y43192D01*
X333544Y43139D01*
X333552Y43130D01*
X333557Y43117D01*
X333768Y42781D01*
X333768Y42776D01*
X333757Y42712D01*
X333757Y41963D01*
X333765Y41921D01*
X333785Y41796D01*
X334049Y41041D01*
X333862Y40653D01*
X333850Y40603D01*
X333827Y40556D01*
X333824Y40501D01*
X333813Y40459D01*
X333818Y40421D01*
X333815Y40376D01*
X333940Y39270D01*
X333867Y39179D01*
X333831Y39108D01*
X333789Y39040D01*
X333785Y39018D01*
X333776Y39000D01*
X333772Y38945D01*
X333757Y38862D01*
X333757Y27195D01*
X333768Y27137D01*
X333770Y27078D01*
X333789Y27036D01*
X333796Y26998D01*
X333821Y26962D01*
X333842Y26913D01*
X334039Y26619D01*
X334018Y26515D01*
X334018Y26460D01*
X334008Y26406D01*
X334018Y26361D01*
X334018Y26315D01*
X334040Y26264D01*
X334052Y26210D01*
X334078Y26172D01*
X334096Y26130D01*
X334136Y26092D01*
X334168Y26047D01*
X334207Y26022D01*
X334240Y25990D01*
X334291Y25970D01*
X334338Y25941D01*
X334388Y25932D01*
X334426Y25917D01*
X334467Y25917D01*
X334515Y25909D01*
X344362Y25909D01*
X344367Y25910D01*
X344372Y25909D01*
X344465Y25930D01*
X344559Y25948D01*
X344563Y25951D01*
X344568Y25952D01*
X344646Y26008D01*
X344724Y26061D01*
X344727Y26065D01*
X344731Y26068D01*
X344782Y26150D01*
X344834Y26229D01*
X344834Y26234D01*
X344837Y26239D01*
X344869Y26416D01*
X344869Y200914D01*
X344869Y200917D01*
X344869Y200920D01*
X344869Y200922D01*
X344869Y200924D01*
X344848Y201017D01*
X344830Y201111D01*
X344827Y201115D01*
X344826Y201120D01*
X344770Y201198D01*
X344717Y201276D01*
X344713Y201279D01*
X344710Y201283D01*
X344628Y201334D01*
X344549Y201386D01*
X344544Y201386D01*
X344539Y201389D01*
X344362Y201421D01*
X255115Y201421D01*
X255069Y201412D01*
X255022Y201413D01*
X254972Y201392D01*
X254919Y201382D01*
X254880Y201355D01*
X254836Y201338D01*
X254798Y201300D01*
X254753Y201269D01*
X254727Y201230D01*
X254694Y201197D01*
X254673Y201146D01*
X254644Y201101D01*
X254635Y201055D01*
X254617Y201011D01*
X254618Y200957D01*
X254608Y200904D01*
X254617Y200862D01*
X254561Y200617D01*
X254560Y200574D01*
X254552Y200447D01*
X254581Y200185D01*
X254606Y200109D01*
X254624Y200031D01*
X254636Y200013D01*
X254642Y199995D01*
X254679Y199952D01*
X254727Y199883D01*
X254763Y199847D01*
X254763Y199678D01*
X254771Y199636D01*
X254791Y199510D01*
X254948Y199062D01*
X254817Y198790D01*
X254804Y198740D01*
X254781Y198693D01*
X254778Y198638D01*
X254767Y198596D01*
X254773Y198559D01*
X254770Y198513D01*
X254905Y197308D01*
X254873Y197268D01*
X254837Y197197D01*
X254795Y197129D01*
X254791Y197107D01*
X254782Y197090D01*
X254778Y197034D01*
X254763Y196952D01*
X254763Y175768D01*
X254764Y175763D01*
X254763Y175758D01*
X254784Y175665D01*
X254802Y175571D01*
X254805Y175567D01*
X254806Y175562D01*
X254862Y175484D01*
X254915Y175406D01*
X254919Y175403D01*
X254922Y175399D01*
X255004Y175348D01*
X255083Y175296D01*
X255088Y175296D01*
X255093Y175293D01*
X255270Y175261D01*
X276850Y175261D01*
X278608Y173503D01*
X278614Y173498D01*
X278619Y173492D01*
X278698Y173443D01*
X278775Y173392D01*
X278782Y173390D01*
X278789Y173386D01*
X278966Y173354D01*
X279475Y173354D01*
X281558Y171271D01*
X281558Y168324D01*
X279475Y166241D01*
X276528Y166241D01*
X274445Y168324D01*
X274445Y168656D01*
X274444Y168661D01*
X274445Y168666D01*
X274424Y168759D01*
X274405Y168853D01*
X274402Y168857D01*
X274401Y168862D01*
X274346Y168940D01*
X274292Y169018D01*
X274288Y169021D01*
X274285Y169025D01*
X274204Y169076D01*
X274124Y169128D01*
X274119Y169128D01*
X274115Y169131D01*
X273937Y169163D01*
X255270Y169163D01*
X255265Y169162D01*
X255260Y169163D01*
X255167Y169142D01*
X255073Y169124D01*
X255069Y169121D01*
X255064Y169120D01*
X254986Y169064D01*
X254908Y169011D01*
X254905Y169007D01*
X254901Y169004D01*
X254850Y168922D01*
X254798Y168843D01*
X254798Y168838D01*
X254795Y168833D01*
X254763Y168656D01*
X254763Y126390D01*
X254779Y126312D01*
X254788Y126232D01*
X254798Y126213D01*
X254802Y126194D01*
X254834Y126147D01*
X254873Y126074D01*
X254905Y126034D01*
X254766Y124797D01*
X254768Y124770D01*
X254763Y124740D01*
X254763Y124710D01*
X254767Y124687D01*
X254765Y124663D01*
X254791Y124568D01*
X254802Y124513D01*
X254809Y124503D01*
X254813Y124490D01*
X254941Y124223D01*
X254791Y123793D01*
X254785Y123751D01*
X254763Y123626D01*
X254763Y123495D01*
X254728Y123460D01*
X254715Y123440D01*
X254697Y123426D01*
X254660Y123362D01*
X254632Y123326D01*
X254627Y123308D01*
X254617Y123293D01*
X254614Y123281D01*
X254608Y123269D01*
X254606Y123265D01*
X254600Y123216D01*
X254581Y123154D01*
X254535Y122747D01*
X254539Y122705D01*
X254545Y122577D01*
X254574Y122450D01*
X254547Y122408D01*
X254539Y122386D01*
X254524Y122367D01*
X254496Y122272D01*
X254476Y122220D01*
X254477Y122208D01*
X254473Y122194D01*
X254467Y122145D01*
X254364Y122063D01*
X254337Y122030D01*
X254251Y121936D01*
X254034Y121590D01*
X254016Y121544D01*
X253984Y121488D01*
X253849Y121101D01*
X253843Y121059D01*
X253821Y120934D01*
X253821Y120803D01*
X253785Y120767D01*
X253772Y120748D01*
X253754Y120733D01*
X253705Y120647D01*
X253675Y120600D01*
X253672Y120588D01*
X253665Y120576D01*
X253649Y120529D01*
X253531Y120472D01*
X253497Y120447D01*
X253392Y120374D01*
X253103Y120085D01*
X253075Y120043D01*
X253032Y119996D01*
X252814Y119649D01*
X252799Y119610D01*
X252749Y119492D01*
X252720Y119364D01*
X252678Y119338D01*
X252661Y119322D01*
X252640Y119311D01*
X252573Y119238D01*
X252533Y119200D01*
X252528Y119189D01*
X252518Y119178D01*
X252492Y119136D01*
X252364Y119107D01*
X252325Y119089D01*
X252207Y119042D01*
X251860Y118824D01*
X251825Y118790D01*
X251771Y118753D01*
X251482Y118464D01*
X251458Y118428D01*
X251384Y118325D01*
X251327Y118207D01*
X251280Y118191D01*
X251260Y118179D01*
X251237Y118173D01*
X251155Y118117D01*
X251107Y118088D01*
X251100Y118079D01*
X251089Y118071D01*
X251053Y118035D01*
X250922Y118035D01*
X250881Y118027D01*
X250755Y118007D01*
X250368Y117872D01*
X250326Y117847D01*
X250266Y117822D01*
X249920Y117605D01*
X249889Y117575D01*
X249793Y117491D01*
X249711Y117389D01*
X249662Y117383D01*
X249639Y117376D01*
X249616Y117376D01*
X249523Y117339D01*
X249471Y117322D01*
X249461Y117314D01*
X249448Y117309D01*
X249406Y117282D01*
X249279Y117311D01*
X249236Y117313D01*
X249109Y117321D01*
X248702Y117275D01*
X248655Y117260D01*
X248591Y117250D01*
X248587Y117248D01*
X248567Y117236D01*
X248544Y117231D01*
X248526Y117219D01*
X248511Y117214D01*
X248477Y117184D01*
X248462Y117174D01*
X248414Y117146D01*
X248407Y117136D01*
X248396Y117128D01*
X248361Y117093D01*
X248230Y117093D01*
X248188Y117085D01*
X248063Y117065D01*
X247633Y116915D01*
X247366Y117043D01*
X247343Y117049D01*
X247323Y117061D01*
X247245Y117075D01*
X247239Y117078D01*
X247225Y117079D01*
X247172Y117093D01*
X247160Y117091D01*
X247146Y117093D01*
X247116Y117093D01*
X247090Y117088D01*
X247059Y117090D01*
X245822Y116951D01*
X245782Y116983D01*
X245711Y117019D01*
X245643Y117061D01*
X245621Y117065D01*
X245604Y117074D01*
X245548Y117078D01*
X245466Y117093D01*
X241198Y117093D01*
X241120Y117077D01*
X241040Y117068D01*
X241021Y117058D01*
X241002Y117054D01*
X240955Y117022D01*
X240882Y116983D01*
X240842Y116951D01*
X239863Y117061D01*
X239811Y117056D01*
X239760Y117062D01*
X239707Y117047D01*
X239663Y117044D01*
X239630Y117026D01*
X239586Y117014D01*
X239314Y116883D01*
X238793Y117065D01*
X238751Y117071D01*
X238626Y117093D01*
X238282Y117093D01*
X238256Y117117D01*
X238221Y117129D01*
X238191Y117149D01*
X238127Y117161D01*
X238066Y117182D01*
X238027Y117181D01*
X237994Y117187D01*
X237947Y117177D01*
X237886Y117174D01*
X237809Y117156D01*
X237643Y117261D01*
X237621Y117269D01*
X237603Y117283D01*
X237507Y117312D01*
X237456Y117332D01*
X237443Y117331D01*
X237430Y117335D01*
X237236Y117357D01*
X237068Y117567D01*
X237040Y117591D01*
X237019Y117620D01*
X236964Y117655D01*
X236914Y117696D01*
X236880Y117707D01*
X236849Y117726D01*
X236775Y117740D01*
X236723Y117756D01*
X236699Y117753D01*
X236671Y117758D01*
X236402Y117758D01*
X236264Y117897D01*
X236244Y117910D01*
X236230Y117928D01*
X236143Y117977D01*
X236097Y118008D01*
X236085Y118010D01*
X236073Y118017D01*
X235888Y118081D01*
X235772Y118324D01*
X235750Y118353D01*
X235736Y118386D01*
X235690Y118432D01*
X235651Y118483D01*
X235619Y118502D01*
X235593Y118527D01*
X235524Y118557D01*
X235477Y118584D01*
X235453Y118587D01*
X235427Y118598D01*
X235165Y118658D01*
X235061Y118823D01*
X235045Y118841D01*
X235035Y118862D01*
X234961Y118929D01*
X234923Y118969D01*
X234912Y118974D01*
X234901Y118983D01*
X234736Y119087D01*
X234676Y119349D01*
X234661Y119383D01*
X234655Y119419D01*
X234620Y119473D01*
X234594Y119532D01*
X234567Y119557D01*
X234547Y119588D01*
X234519Y119609D01*
X234516Y119612D01*
X234500Y119622D01*
X234486Y119632D01*
X234447Y119669D01*
X234424Y119677D01*
X234402Y119694D01*
X234159Y119810D01*
X234095Y119995D01*
X234083Y120015D01*
X234077Y120038D01*
X234021Y120119D01*
X233992Y120167D01*
X233983Y120175D01*
X233975Y120186D01*
X233836Y120324D01*
X233836Y120593D01*
X233829Y120629D01*
X233831Y120665D01*
X233809Y120726D01*
X233797Y120790D01*
X233776Y120820D01*
X233764Y120854D01*
X233714Y120911D01*
X233684Y120956D01*
X233664Y120969D01*
X233645Y120990D01*
X233435Y121158D01*
X233413Y121352D01*
X233406Y121374D01*
X233406Y121398D01*
X233377Y121469D01*
X233375Y121478D01*
X233372Y121483D01*
X233369Y121490D01*
X233352Y121543D01*
X233344Y121552D01*
X233339Y121565D01*
X233234Y121731D01*
X233252Y121808D01*
X233254Y121873D01*
X233265Y121937D01*
X233256Y121972D01*
X233257Y122009D01*
X233234Y122069D01*
X233219Y122132D01*
X233196Y122164D01*
X233184Y122195D01*
X233171Y122209D01*
X233171Y122548D01*
X233163Y122589D01*
X233143Y122715D01*
X232961Y123236D01*
X233092Y123508D01*
X233105Y123558D01*
X233127Y123605D01*
X233131Y123660D01*
X233142Y123702D01*
X233136Y123740D01*
X233139Y123785D01*
X233029Y124764D01*
X233061Y124804D01*
X233097Y124875D01*
X233139Y124943D01*
X233143Y124965D01*
X233152Y124982D01*
X233156Y125038D01*
X233171Y125120D01*
X233171Y180112D01*
X233170Y180118D01*
X233171Y180123D01*
X233166Y180144D01*
X233168Y180169D01*
X233130Y180504D01*
X233115Y180551D01*
X233105Y180615D01*
X233069Y180717D01*
X233044Y180759D01*
X233020Y180819D01*
X232963Y180911D01*
X232929Y180946D01*
X232892Y180999D01*
X232815Y181076D01*
X232774Y181103D01*
X232727Y181147D01*
X232635Y181204D01*
X232589Y181222D01*
X232533Y181253D01*
X232431Y181289D01*
X232382Y181296D01*
X232320Y181314D01*
X231985Y181352D01*
X231958Y181350D01*
X231928Y181355D01*
X145397Y181355D01*
X145324Y181340D01*
X145249Y181333D01*
X145224Y181320D01*
X145201Y181316D01*
X145156Y181285D01*
X145089Y181250D01*
X145014Y181193D01*
X144042Y181321D01*
X143999Y181319D01*
X143957Y181325D01*
X143892Y181311D01*
X143842Y181308D01*
X143815Y181295D01*
X143781Y181287D01*
X143426Y181140D01*
X143000Y181317D01*
X142991Y181318D01*
X142983Y181323D01*
X142806Y181355D01*
X142545Y181355D01*
X142517Y181383D01*
X142482Y181406D01*
X142454Y181436D01*
X142400Y181461D01*
X142350Y181494D01*
X142309Y181502D01*
X142272Y181519D01*
X142203Y181522D01*
X142153Y181532D01*
X142125Y181526D01*
X142092Y181528D01*
X141879Y181500D01*
X141819Y181546D01*
X141781Y181564D01*
X141748Y181591D01*
X141684Y181612D01*
X141639Y181634D01*
X141609Y181636D01*
X141576Y181646D01*
X141501Y181656D01*
X141294Y181927D01*
X141252Y181963D01*
X141225Y181992D01*
X141217Y182004D01*
X141212Y182007D01*
X141200Y182020D01*
X141134Y182071D01*
X141085Y182095D01*
X141020Y182137D01*
X140943Y182169D01*
X140889Y182179D01*
X140815Y182203D01*
X140477Y182248D01*
X140431Y182307D01*
X140399Y182335D01*
X140374Y182370D01*
X140318Y182406D01*
X140280Y182439D01*
X140252Y182448D01*
X140222Y182467D01*
X140153Y182496D01*
X140022Y182812D01*
X139992Y182857D01*
X139956Y182926D01*
X139906Y182992D01*
X139880Y183014D01*
X139877Y183018D01*
X139871Y183022D01*
X139864Y183028D01*
X139812Y183086D01*
X139746Y183136D01*
X139697Y183160D01*
X139632Y183202D01*
X139316Y183333D01*
X139287Y183402D01*
X139264Y183438D01*
X139249Y183477D01*
X139204Y183527D01*
X139175Y183569D01*
X139151Y183585D01*
X139127Y183611D01*
X139068Y183657D01*
X139023Y183995D01*
X139005Y184047D01*
X138989Y184123D01*
X138957Y184200D01*
X138927Y184245D01*
X138891Y184314D01*
X138840Y184380D01*
X138799Y184416D01*
X138747Y184474D01*
X138476Y184681D01*
X138466Y184756D01*
X138452Y184796D01*
X138448Y184839D01*
X138431Y184872D01*
X138428Y184884D01*
X138417Y184900D01*
X138401Y184946D01*
X138381Y184968D01*
X138366Y184999D01*
X138320Y185059D01*
X138348Y185272D01*
X138345Y185313D01*
X138352Y185353D01*
X138338Y185412D01*
X138334Y185472D01*
X138316Y185508D01*
X138306Y185549D01*
X138267Y185605D01*
X138244Y185651D01*
X138223Y185669D01*
X138203Y185697D01*
X138175Y185725D01*
X138175Y185986D01*
X138173Y185995D01*
X138175Y186004D01*
X138137Y186180D01*
X137960Y186606D01*
X138107Y186961D01*
X138115Y187003D01*
X138133Y187042D01*
X138136Y187109D01*
X138146Y187158D01*
X138140Y187187D01*
X138141Y187222D01*
X138013Y188194D01*
X138070Y188269D01*
X138104Y188336D01*
X138143Y188400D01*
X138148Y188427D01*
X138159Y188449D01*
X138162Y188503D01*
X138175Y188577D01*
X138175Y199848D01*
X138162Y199915D01*
X138157Y199983D01*
X138142Y200015D01*
X138136Y200044D01*
X138107Y200086D01*
X138078Y200146D01*
X137989Y200269D01*
X138078Y200835D01*
X138076Y200879D01*
X138084Y200920D01*
X138084Y200921D01*
X138084Y200924D01*
X138072Y200979D01*
X138070Y201035D01*
X138051Y201076D01*
X138041Y201120D01*
X138008Y201166D01*
X137984Y201216D01*
X137951Y201247D01*
X137925Y201283D01*
X137877Y201313D01*
X137836Y201351D01*
X137793Y201365D01*
X137754Y201389D01*
X137692Y201400D01*
X137646Y201417D01*
X137614Y201415D01*
X137577Y201421D01*
X5634Y201421D01*
X5629Y201420D01*
X5624Y201421D01*
X5531Y201400D01*
X5438Y201382D01*
X5434Y201379D01*
X5428Y201378D01*
X5351Y201322D01*
X5272Y201269D01*
X5269Y201265D01*
X5265Y201262D01*
X5214Y201180D01*
X5163Y201101D01*
X5162Y201096D01*
X5159Y201091D01*
X5127Y200914D01*
X5092Y26416D01*
X5093Y26411D01*
X5092Y26406D01*
X5113Y26312D01*
X5131Y26220D01*
X5134Y26215D01*
X5135Y26210D01*
X5190Y26133D01*
X5244Y26054D01*
X5248Y26051D01*
X5251Y26047D01*
X5332Y25996D01*
X5412Y25944D01*
X5417Y25944D01*
X5422Y25941D01*
X5599Y25909D01*
X37230Y25909D01*
X37286Y25920D01*
G37*
%LPC*%
G36*
X231029Y95996D02*
X231029Y95996D01*
X230979Y96009D01*
X230932Y96031D01*
X230877Y96035D01*
X230835Y96045D01*
X230798Y96040D01*
X230752Y96043D01*
X229904Y95947D01*
X229849Y95976D01*
X229781Y96018D01*
X229759Y96022D01*
X229742Y96031D01*
X229686Y96035D01*
X229604Y96050D01*
X203289Y96050D01*
X203211Y96034D01*
X203131Y96025D01*
X203112Y96014D01*
X203093Y96010D01*
X203046Y95979D01*
X202988Y95947D01*
X202108Y96047D01*
X202082Y96044D01*
X202051Y96050D01*
X201792Y96050D01*
X201769Y96045D01*
X201745Y96048D01*
X201649Y96021D01*
X201595Y96010D01*
X201585Y96003D01*
X201572Y96000D01*
X201464Y95948D01*
X201253Y96021D01*
X201211Y96027D01*
X201149Y96038D01*
X201130Y96049D01*
X201084Y96080D01*
X201072Y96082D01*
X201060Y96089D01*
X200795Y96182D01*
X200746Y96189D01*
X200684Y96207D01*
X200069Y96276D01*
X200027Y96273D01*
X199981Y96271D01*
X199975Y96279D01*
X199945Y96297D01*
X199905Y96334D01*
X199381Y96663D01*
X199335Y96680D01*
X199279Y96712D01*
X198696Y96916D01*
X198653Y96922D01*
X198602Y96931D01*
X198548Y97009D01*
X198111Y97446D01*
X198070Y97473D01*
X198022Y97517D01*
X197498Y97846D01*
X197458Y97861D01*
X197411Y97882D01*
X197376Y97969D01*
X197046Y98493D01*
X197012Y98528D01*
X196976Y98581D01*
X196538Y99019D01*
X196503Y99042D01*
X196461Y99073D01*
X196446Y99166D01*
X196242Y99750D01*
X196216Y99792D01*
X196192Y99852D01*
X195863Y100376D01*
X195834Y100407D01*
X195800Y100445D01*
X195807Y100485D01*
X195803Y100502D01*
X195806Y100540D01*
X195737Y101154D01*
X195721Y101201D01*
X195711Y101265D01*
X195618Y101530D01*
X195606Y101551D01*
X195601Y101574D01*
X195567Y101623D01*
X195551Y101724D01*
X195477Y101934D01*
X195529Y102042D01*
X195535Y102065D01*
X195547Y102085D01*
X195565Y102183D01*
X195579Y102236D01*
X195577Y102248D01*
X195579Y102262D01*
X195579Y102522D01*
X195574Y102548D01*
X195576Y102579D01*
X195477Y103459D01*
X195505Y103514D01*
X195547Y103582D01*
X195551Y103604D01*
X195560Y103622D01*
X195564Y103677D01*
X195579Y103760D01*
X195579Y134470D01*
X195575Y134493D01*
X195577Y134520D01*
X195445Y135856D01*
X195432Y135898D01*
X195426Y135954D01*
X195080Y137094D01*
X195059Y137134D01*
X195042Y137186D01*
X194480Y138238D01*
X194452Y138272D01*
X194425Y138320D01*
X193668Y139242D01*
X193634Y139270D01*
X193598Y139312D01*
X192676Y140069D01*
X192637Y140089D01*
X192594Y140124D01*
X191542Y140686D01*
X191500Y140698D01*
X191450Y140724D01*
X190310Y141070D01*
X190266Y141074D01*
X190212Y141089D01*
X188876Y141221D01*
X188853Y141218D01*
X188826Y141223D01*
X134838Y141223D01*
X133349Y142712D01*
X133349Y146408D01*
X133345Y146431D01*
X133347Y146458D01*
X133259Y147348D01*
X133246Y147390D01*
X133240Y147446D01*
X133024Y148158D01*
X133003Y148197D01*
X132986Y148250D01*
X132635Y148906D01*
X132607Y148940D01*
X132580Y148988D01*
X132108Y149563D01*
X132073Y149592D01*
X132037Y149634D01*
X131462Y150106D01*
X131423Y150127D01*
X131380Y150161D01*
X130724Y150512D01*
X130681Y150524D01*
X130632Y150550D01*
X129920Y150766D01*
X129876Y150770D01*
X129822Y150785D01*
X128932Y150873D01*
X128909Y150870D01*
X128882Y150875D01*
X87272Y150875D01*
X87249Y150871D01*
X87222Y150873D01*
X86035Y150756D01*
X85992Y150743D01*
X85937Y150736D01*
X84939Y150434D01*
X84900Y150413D01*
X84847Y150396D01*
X83928Y149904D01*
X83893Y149876D01*
X83845Y149849D01*
X83039Y149187D01*
X83011Y149153D01*
X82969Y149117D01*
X82307Y148311D01*
X82286Y148272D01*
X82252Y148228D01*
X81760Y147309D01*
X81748Y147266D01*
X81722Y147217D01*
X81420Y146219D01*
X81415Y146175D01*
X81400Y146121D01*
X81283Y144934D01*
X81286Y144911D01*
X81281Y144884D01*
X81281Y128289D01*
X81296Y128215D01*
X81303Y128140D01*
X81316Y128116D01*
X81320Y128092D01*
X81351Y128047D01*
X81386Y127980D01*
X81396Y127966D01*
X81285Y127120D01*
X81287Y127090D01*
X81281Y127054D01*
X81281Y126907D01*
X81283Y126898D01*
X81281Y126889D01*
X81319Y126713D01*
X81395Y126531D01*
X81319Y126349D01*
X81318Y126340D01*
X81313Y126332D01*
X81290Y126203D01*
X81204Y126070D01*
X81146Y125929D01*
X81135Y125876D01*
X81111Y125801D01*
X81032Y125200D01*
X81036Y125147D01*
X80995Y125110D01*
X80626Y124629D01*
X80602Y124580D01*
X80559Y124514D01*
X80327Y123953D01*
X80317Y123902D01*
X80268Y123876D01*
X79787Y123507D01*
X79751Y123466D01*
X79693Y123413D01*
X79324Y122932D01*
X79300Y122884D01*
X79247Y122873D01*
X78960Y122754D01*
X78686Y122641D01*
X78641Y122610D01*
X78571Y122574D01*
X78090Y122205D01*
X78055Y122165D01*
X78000Y122168D01*
X77399Y122089D01*
X77347Y122071D01*
X77271Y122054D01*
X77130Y121996D01*
X77122Y121991D01*
X77113Y121989D01*
X77006Y121914D01*
X76851Y121881D01*
X76669Y121805D01*
X76487Y121881D01*
X76478Y121882D01*
X76470Y121887D01*
X76293Y121919D01*
X76146Y121919D01*
X76116Y121913D01*
X76080Y121915D01*
X75370Y121822D01*
X75304Y121799D01*
X75235Y121784D01*
X75210Y121767D01*
X75181Y121757D01*
X75128Y121710D01*
X75071Y121670D01*
X75054Y121644D01*
X75031Y121623D01*
X75001Y121560D01*
X74963Y121501D01*
X74958Y121470D01*
X74945Y121442D01*
X74941Y121372D01*
X74930Y121303D01*
X74937Y121273D01*
X74935Y121242D01*
X74959Y121176D01*
X74975Y121108D01*
X74994Y121081D01*
X75004Y121054D01*
X75039Y121016D01*
X75078Y120960D01*
X76709Y119329D01*
X76709Y116383D01*
X76095Y115769D01*
X76091Y115763D01*
X76085Y115758D01*
X76036Y115680D01*
X75984Y115602D01*
X75983Y115595D01*
X75979Y115588D01*
X75947Y115411D01*
X75947Y114906D01*
X75947Y114903D01*
X75947Y114901D01*
X75967Y114805D01*
X75986Y114709D01*
X75988Y114707D01*
X75988Y114704D01*
X76045Y114623D01*
X76099Y114543D01*
X76101Y114542D01*
X76103Y114540D01*
X76186Y114487D01*
X76267Y114434D01*
X76270Y114434D01*
X76272Y114432D01*
X76368Y114416D01*
X76464Y114399D01*
X76467Y114399D01*
X76469Y114399D01*
X76564Y114421D01*
X76660Y114442D01*
X76662Y114444D01*
X76665Y114444D01*
X76813Y114547D01*
X78598Y116333D01*
X78835Y116333D01*
X78842Y116334D01*
X78850Y116333D01*
X78940Y116354D01*
X79031Y116372D01*
X79038Y116377D01*
X79045Y116379D01*
X79193Y116481D01*
X79807Y117095D01*
X82753Y117095D01*
X84837Y115011D01*
X84837Y112065D01*
X82753Y109981D01*
X80362Y109981D01*
X80354Y109980D01*
X80346Y109981D01*
X80256Y109960D01*
X80165Y109942D01*
X80159Y109937D01*
X80151Y109935D01*
X80003Y109833D01*
X76088Y105917D01*
X46086Y105917D01*
X44301Y107703D01*
X38416Y113588D01*
X38415Y113588D01*
X36630Y115374D01*
X36630Y138339D01*
X41455Y143164D01*
X41459Y143171D01*
X41465Y143175D01*
X41514Y143254D01*
X41566Y143331D01*
X41567Y143339D01*
X41571Y143346D01*
X41603Y143523D01*
X41603Y144823D01*
X41603Y144825D01*
X41603Y144828D01*
X41583Y144923D01*
X41564Y145019D01*
X41562Y145021D01*
X41562Y145024D01*
X41506Y145105D01*
X41451Y145185D01*
X41449Y145186D01*
X41447Y145189D01*
X41364Y145242D01*
X41283Y145294D01*
X41280Y145295D01*
X41278Y145296D01*
X41182Y145312D01*
X41086Y145330D01*
X41083Y145329D01*
X41080Y145330D01*
X40986Y145308D01*
X40890Y145286D01*
X40888Y145285D01*
X40885Y145284D01*
X40737Y145181D01*
X39827Y144271D01*
X36881Y144271D01*
X34797Y146355D01*
X34797Y149301D01*
X36573Y151077D01*
X36576Y151082D01*
X36581Y151085D01*
X36632Y151165D01*
X36684Y151244D01*
X36685Y151249D01*
X36688Y151254D01*
X36704Y151348D01*
X36722Y151441D01*
X36721Y151446D01*
X36722Y151451D01*
X36700Y151544D01*
X36680Y151637D01*
X36677Y151642D01*
X36676Y151647D01*
X36573Y151795D01*
X30733Y157635D01*
X30733Y179324D01*
X30732Y179329D01*
X30733Y179334D01*
X30712Y179427D01*
X30694Y179521D01*
X30691Y179525D01*
X30690Y179530D01*
X30634Y179608D01*
X30581Y179686D01*
X30577Y179689D01*
X30574Y179693D01*
X30492Y179744D01*
X30413Y179796D01*
X30408Y179796D01*
X30403Y179799D01*
X30226Y179831D01*
X30023Y179831D01*
X27939Y181915D01*
X27939Y184861D01*
X30023Y186945D01*
X32969Y186945D01*
X35053Y184861D01*
X35053Y183994D01*
X35054Y183986D01*
X35053Y183978D01*
X35074Y183889D01*
X35092Y183797D01*
X35097Y183791D01*
X35099Y183783D01*
X35201Y183635D01*
X35406Y183431D01*
X36323Y182514D01*
X36323Y181366D01*
X36323Y179989D01*
X36323Y164279D01*
X36324Y164274D01*
X36323Y164269D01*
X36344Y164176D01*
X36362Y164083D01*
X36365Y164078D01*
X36366Y164073D01*
X36422Y163995D01*
X36475Y163917D01*
X36479Y163914D01*
X36482Y163910D01*
X36564Y163859D01*
X36643Y163808D01*
X36648Y163807D01*
X36653Y163804D01*
X36830Y163772D01*
X39827Y163772D01*
X41911Y161688D01*
X41911Y160613D01*
X41912Y160605D01*
X41911Y160597D01*
X41932Y160507D01*
X41950Y160416D01*
X41955Y160410D01*
X41957Y160402D01*
X42059Y160254D01*
X50769Y151544D01*
X50769Y139545D01*
X46205Y134981D01*
X46200Y134974D01*
X46194Y134970D01*
X46145Y134891D01*
X46094Y134814D01*
X46092Y134806D01*
X46088Y134799D01*
X46056Y134622D01*
X46056Y120158D01*
X46058Y120150D01*
X46057Y120143D01*
X46078Y120052D01*
X46096Y119962D01*
X46100Y119955D01*
X46102Y119948D01*
X46205Y119800D01*
X50711Y115294D01*
X50717Y115289D01*
X50722Y115283D01*
X50801Y115234D01*
X50878Y115183D01*
X50885Y115181D01*
X50892Y115177D01*
X51069Y115145D01*
X59214Y115145D01*
X59250Y115152D01*
X59286Y115150D01*
X59347Y115172D01*
X59411Y115185D01*
X59441Y115205D01*
X59475Y115217D01*
X59523Y115261D01*
X59577Y115297D01*
X59596Y115328D01*
X59623Y115352D01*
X59651Y115411D01*
X59686Y115465D01*
X59692Y115501D01*
X59708Y115534D01*
X59710Y115599D01*
X59722Y115663D01*
X59714Y115698D01*
X59715Y115734D01*
X59692Y115795D01*
X59678Y115858D01*
X59657Y115888D01*
X59644Y115922D01*
X59593Y115978D01*
X59562Y116022D01*
X59542Y116034D01*
X59523Y116055D01*
X59459Y116104D01*
X59410Y116128D01*
X59345Y116170D01*
X59326Y116178D01*
X59324Y116197D01*
X59306Y116248D01*
X59290Y116325D01*
X59106Y116767D01*
X59076Y116812D01*
X59040Y116882D01*
X58749Y117261D01*
X58708Y117297D01*
X58655Y117355D01*
X58640Y117367D01*
X58642Y117387D01*
X58639Y117441D01*
X58642Y117519D01*
X58580Y117993D01*
X58562Y118045D01*
X58546Y118121D01*
X58528Y118165D01*
X58523Y118172D01*
X58520Y118181D01*
X58419Y118328D01*
X58417Y118334D01*
X58419Y118343D01*
X58381Y118519D01*
X58297Y118723D01*
X58381Y118926D01*
X58382Y118935D01*
X58387Y118943D01*
X58419Y119120D01*
X58419Y119180D01*
X58413Y119210D01*
X58415Y119247D01*
X58304Y120092D01*
X58314Y120106D01*
X58348Y120173D01*
X58387Y120237D01*
X58392Y120264D01*
X58403Y120286D01*
X58406Y120340D01*
X58419Y120415D01*
X58419Y165811D01*
X58403Y165890D01*
X58394Y165969D01*
X58384Y165989D01*
X58380Y166008D01*
X58348Y166054D01*
X58317Y166112D01*
X58413Y166968D01*
X58409Y167020D01*
X58414Y167071D01*
X58400Y167124D01*
X58396Y167168D01*
X58378Y167201D01*
X58366Y167245D01*
X58291Y167402D01*
X58391Y167688D01*
X58397Y167731D01*
X58419Y167856D01*
X58419Y167935D01*
X58453Y167987D01*
X58503Y168050D01*
X58509Y168071D01*
X58520Y168087D01*
X58531Y168142D01*
X58555Y168222D01*
X58577Y168419D01*
X58574Y168445D01*
X58577Y168456D01*
X58572Y168475D01*
X58567Y168588D01*
X58551Y168661D01*
X58554Y168667D01*
X58562Y168689D01*
X58577Y168707D01*
X58592Y168757D01*
X58598Y168766D01*
X58603Y168794D01*
X58606Y168803D01*
X58625Y168854D01*
X58625Y168866D01*
X58629Y168880D01*
X58629Y168886D01*
X58688Y168933D01*
X58715Y168966D01*
X58801Y169060D01*
X58928Y169261D01*
X58945Y169308D01*
X58977Y169364D01*
X59056Y169589D01*
X59062Y169631D01*
X59084Y169756D01*
X59084Y169831D01*
X59089Y169836D01*
X59102Y169855D01*
X59120Y169870D01*
X59169Y169956D01*
X59200Y170002D01*
X59202Y170015D01*
X59209Y170027D01*
X59211Y170033D01*
X59279Y170065D01*
X59312Y170091D01*
X59417Y170164D01*
X59586Y170332D01*
X59613Y170373D01*
X59656Y170421D01*
X59783Y170623D01*
X59798Y170663D01*
X59848Y170780D01*
X59865Y170852D01*
X59870Y170856D01*
X59887Y170872D01*
X59909Y170883D01*
X59976Y170956D01*
X60016Y170994D01*
X60021Y171005D01*
X60030Y171016D01*
X60034Y171021D01*
X60106Y171038D01*
X60145Y171055D01*
X60263Y171103D01*
X60465Y171230D01*
X60501Y171264D01*
X60554Y171300D01*
X60722Y171469D01*
X60746Y171504D01*
X60821Y171607D01*
X60853Y171675D01*
X60859Y171677D01*
X60880Y171689D01*
X60902Y171694D01*
X60984Y171751D01*
X61032Y171779D01*
X61039Y171789D01*
X61050Y171797D01*
X61055Y171802D01*
X61130Y171802D01*
X61172Y171810D01*
X61297Y171830D01*
X61522Y171909D01*
X61565Y171934D01*
X61625Y171958D01*
X61826Y172085D01*
X61857Y172114D01*
X61878Y172133D01*
X61902Y172149D01*
X61909Y172160D01*
X61953Y172198D01*
X62000Y172257D01*
X62006Y172257D01*
X62029Y172264D01*
X62052Y172265D01*
X62144Y172302D01*
X62197Y172319D01*
X62206Y172327D01*
X62219Y172332D01*
X62225Y172335D01*
X62298Y172319D01*
X62340Y172318D01*
X62467Y172309D01*
X62664Y172331D01*
X62740Y172356D01*
X62818Y172374D01*
X62836Y172387D01*
X62855Y172393D01*
X62897Y172429D01*
X62951Y172467D01*
X63030Y172467D01*
X63072Y172475D01*
X63198Y172495D01*
X63484Y172595D01*
X63641Y172520D01*
X63691Y172507D01*
X63738Y172485D01*
X63793Y172481D01*
X63835Y172470D01*
X63872Y172476D01*
X63918Y172473D01*
X64774Y172569D01*
X64829Y172541D01*
X64897Y172499D01*
X64919Y172495D01*
X64937Y172486D01*
X64992Y172482D01*
X65075Y172467D01*
X211253Y172467D01*
X211335Y172483D01*
X211418Y172494D01*
X211434Y172503D01*
X211450Y172506D01*
X211497Y172538D01*
X211534Y172559D01*
X212444Y172469D01*
X212467Y172472D01*
X212494Y172467D01*
X213576Y172467D01*
X213609Y172473D01*
X213643Y172471D01*
X213718Y172495D01*
X213746Y172501D01*
X214479Y172279D01*
X214523Y172274D01*
X214577Y172259D01*
X215325Y172185D01*
X215347Y172159D01*
X215352Y172155D01*
X215355Y172149D01*
X215370Y172138D01*
X215372Y172135D01*
X215381Y172129D01*
X215429Y172092D01*
X215502Y172032D01*
X215508Y172031D01*
X215513Y172027D01*
X215604Y172002D01*
X215694Y171976D01*
X215701Y171976D01*
X215707Y171975D01*
X215886Y171996D01*
X215918Y172005D01*
X216582Y171651D01*
X216624Y171638D01*
X216674Y171613D01*
X217393Y171394D01*
X217409Y171365D01*
X217414Y171360D01*
X217416Y171353D01*
X217477Y171283D01*
X217537Y171210D01*
X217543Y171207D01*
X217547Y171202D01*
X217631Y171160D01*
X217714Y171117D01*
X217721Y171116D01*
X217727Y171113D01*
X217906Y171099D01*
X217940Y171102D01*
X218522Y170625D01*
X218561Y170604D01*
X218604Y170570D01*
X219268Y170215D01*
X219278Y170183D01*
X219281Y170177D01*
X219281Y170170D01*
X219328Y170089D01*
X219373Y170006D01*
X219378Y170002D01*
X219381Y169996D01*
X219456Y169939D01*
X219528Y169880D01*
X219535Y169878D01*
X219540Y169874D01*
X219713Y169825D01*
X219747Y169822D01*
X220224Y169240D01*
X220258Y169212D01*
X220294Y169170D01*
X220876Y168693D01*
X220879Y168659D01*
X220881Y168653D01*
X220881Y168646D01*
X220910Y168557D01*
X220938Y168468D01*
X220942Y168463D01*
X220944Y168456D01*
X221006Y168386D01*
X221066Y168314D01*
X221072Y168311D01*
X221076Y168306D01*
X221237Y168224D01*
X221269Y168214D01*
X221624Y167550D01*
X221652Y167516D01*
X221679Y167468D01*
X222156Y166886D01*
X222153Y166852D01*
X222154Y166846D01*
X222152Y166840D01*
X222164Y166747D01*
X222173Y166653D01*
X222176Y166647D01*
X222177Y166641D01*
X222224Y166559D01*
X222269Y166477D01*
X222274Y166473D01*
X222277Y166467D01*
X222419Y166355D01*
X222448Y166339D01*
X222667Y165620D01*
X222688Y165581D01*
X222705Y165528D01*
X223059Y164864D01*
X223050Y164832D01*
X223049Y164825D01*
X223046Y164820D01*
X223039Y164726D01*
X223030Y164633D01*
X223032Y164626D01*
X223032Y164620D01*
X223062Y164530D01*
X223090Y164441D01*
X223094Y164436D01*
X223096Y164430D01*
X223213Y164293D01*
X223239Y164271D01*
X223313Y163523D01*
X223326Y163480D01*
X223333Y163425D01*
X223553Y162699D01*
X223539Y162622D01*
X223523Y162569D01*
X223525Y162547D01*
X223521Y162522D01*
X223521Y161440D01*
X223525Y161417D01*
X223523Y161390D01*
X223613Y160478D01*
X223597Y160448D01*
X223553Y160377D01*
X223549Y160359D01*
X223542Y160344D01*
X223537Y160288D01*
X223521Y160199D01*
X223521Y114808D01*
X223522Y114803D01*
X223521Y114798D01*
X223542Y114704D01*
X223560Y114611D01*
X223563Y114607D01*
X223564Y114602D01*
X223620Y114524D01*
X223673Y114446D01*
X223677Y114443D01*
X223680Y114439D01*
X223762Y114388D01*
X223841Y114336D01*
X223846Y114336D01*
X223851Y114333D01*
X224028Y114301D01*
X237471Y114301D01*
X237545Y114316D01*
X237620Y114323D01*
X237644Y114336D01*
X237668Y114340D01*
X237713Y114371D01*
X237780Y114406D01*
X237794Y114416D01*
X238640Y114305D01*
X238670Y114307D01*
X238706Y114301D01*
X238853Y114301D01*
X238862Y114303D01*
X238871Y114301D01*
X239047Y114339D01*
X239229Y114415D01*
X239411Y114339D01*
X239420Y114338D01*
X239428Y114333D01*
X239557Y114310D01*
X239690Y114224D01*
X239831Y114166D01*
X239884Y114155D01*
X239959Y114131D01*
X240560Y114052D01*
X240613Y114056D01*
X240650Y114015D01*
X241131Y113646D01*
X241180Y113622D01*
X241246Y113579D01*
X241807Y113347D01*
X241858Y113337D01*
X241884Y113288D01*
X242253Y112807D01*
X242294Y112771D01*
X242347Y112713D01*
X242828Y112344D01*
X242876Y112320D01*
X242887Y112267D01*
X243119Y111706D01*
X243150Y111660D01*
X243186Y111591D01*
X243555Y111110D01*
X243595Y111075D01*
X243592Y111020D01*
X243671Y110419D01*
X243689Y110367D01*
X243706Y110291D01*
X243764Y110150D01*
X243769Y110142D01*
X243771Y110133D01*
X243846Y110026D01*
X243879Y109871D01*
X243955Y109689D01*
X243879Y109507D01*
X243878Y109498D01*
X243873Y109490D01*
X243841Y109313D01*
X243841Y109166D01*
X243847Y109136D01*
X243845Y109100D01*
X243956Y108254D01*
X243946Y108240D01*
X243912Y108173D01*
X243873Y108109D01*
X243868Y108082D01*
X243857Y108060D01*
X243854Y108006D01*
X243841Y107931D01*
X243841Y107715D01*
X243856Y107641D01*
X243863Y107566D01*
X243876Y107542D01*
X243880Y107518D01*
X243911Y107473D01*
X243946Y107406D01*
X243956Y107392D01*
X243845Y106546D01*
X243847Y106516D01*
X243841Y106480D01*
X243841Y106420D01*
X243843Y106411D01*
X243841Y106402D01*
X243879Y106226D01*
X243964Y106023D01*
X243879Y105819D01*
X243878Y105810D01*
X243873Y105803D01*
X243841Y105627D01*
X243837Y105622D01*
X243830Y105616D01*
X243732Y105465D01*
X243714Y105421D01*
X243704Y105367D01*
X243680Y105293D01*
X243618Y104819D01*
X243621Y104764D01*
X243618Y104687D01*
X243620Y104667D01*
X243605Y104655D01*
X243569Y104614D01*
X243511Y104561D01*
X243220Y104182D01*
X243196Y104133D01*
X243154Y104067D01*
X242970Y103625D01*
X242960Y103571D01*
X242936Y103497D01*
X242934Y103478D01*
X242915Y103470D01*
X242870Y103440D01*
X242801Y103404D01*
X242421Y103113D01*
X242385Y103071D01*
X242327Y103019D01*
X242036Y102639D01*
X242012Y102590D01*
X241970Y102525D01*
X241962Y102506D01*
X241943Y102504D01*
X241892Y102486D01*
X241815Y102470D01*
X241373Y102286D01*
X241328Y102256D01*
X241258Y102220D01*
X240879Y101929D01*
X240843Y101888D01*
X240785Y101835D01*
X240773Y101820D01*
X240753Y101822D01*
X240699Y101819D01*
X240621Y101822D01*
X240147Y101760D01*
X240095Y101742D01*
X240019Y101726D01*
X239975Y101708D01*
X239968Y101703D01*
X239959Y101700D01*
X239812Y101599D01*
X239806Y101597D01*
X239797Y101599D01*
X239621Y101561D01*
X239417Y101477D01*
X239214Y101561D01*
X239205Y101562D01*
X239197Y101567D01*
X239020Y101599D01*
X238960Y101599D01*
X238930Y101593D01*
X238893Y101595D01*
X238048Y101484D01*
X238034Y101494D01*
X237967Y101528D01*
X237903Y101567D01*
X237876Y101572D01*
X237854Y101583D01*
X237800Y101586D01*
X237725Y101599D01*
X236890Y101599D01*
X236870Y101595D01*
X236849Y101598D01*
X236772Y101575D01*
X236694Y101560D01*
X236676Y101548D01*
X236656Y101542D01*
X236594Y101492D01*
X236528Y101447D01*
X236517Y101429D01*
X236500Y101416D01*
X236448Y101324D01*
X236419Y101279D01*
X236417Y101269D01*
X236411Y101260D01*
X236116Y100415D01*
X236109Y100366D01*
X236091Y100305D01*
X236066Y100082D01*
X236069Y100039D01*
X236075Y99912D01*
X236093Y99834D01*
X236087Y99824D01*
X236079Y99802D01*
X236064Y99784D01*
X236036Y99688D01*
X236016Y99637D01*
X236017Y99624D01*
X236013Y99611D01*
X236011Y99600D01*
X235949Y99550D01*
X235921Y99517D01*
X235835Y99423D01*
X235716Y99233D01*
X235699Y99187D01*
X235681Y99157D01*
X235670Y99140D01*
X235670Y99136D01*
X235667Y99131D01*
X235593Y98919D01*
X235587Y98876D01*
X235564Y98752D01*
X235564Y98671D01*
X235556Y98663D01*
X235543Y98644D01*
X235525Y98629D01*
X235476Y98543D01*
X235445Y98496D01*
X235443Y98484D01*
X235436Y98472D01*
X235433Y98462D01*
X235360Y98427D01*
X235326Y98401D01*
X235221Y98328D01*
X235063Y98170D01*
X235035Y98129D01*
X234992Y98081D01*
X234873Y97891D01*
X234858Y97852D01*
X234808Y97734D01*
X234790Y97656D01*
X234780Y97650D01*
X234763Y97634D01*
X234742Y97623D01*
X234675Y97550D01*
X234635Y97512D01*
X234630Y97501D01*
X234621Y97490D01*
X234615Y97481D01*
X234536Y97463D01*
X234498Y97446D01*
X234379Y97398D01*
X234189Y97279D01*
X234154Y97245D01*
X234101Y97208D01*
X233942Y97049D01*
X233918Y97014D01*
X233844Y96910D01*
X233809Y96838D01*
X233798Y96834D01*
X233778Y96822D01*
X233755Y96817D01*
X233673Y96760D01*
X233626Y96732D01*
X233619Y96722D01*
X233607Y96714D01*
X233599Y96706D01*
X233519Y96706D01*
X233477Y96698D01*
X233351Y96678D01*
X233140Y96604D01*
X233097Y96579D01*
X233037Y96555D01*
X232847Y96435D01*
X232817Y96406D01*
X232721Y96322D01*
X232671Y96259D01*
X232660Y96258D01*
X232637Y96251D01*
X232614Y96251D01*
X232521Y96213D01*
X232469Y96197D01*
X232459Y96188D01*
X232446Y96183D01*
X232437Y96177D01*
X232358Y96195D01*
X232316Y96196D01*
X232189Y96205D01*
X232015Y96185D01*
X231939Y96161D01*
X231861Y96143D01*
X231843Y96130D01*
X231824Y96124D01*
X231781Y96087D01*
X231727Y96050D01*
X231642Y96050D01*
X231601Y96041D01*
X231475Y96021D01*
X231186Y95920D01*
X231029Y95996D01*
G37*
%LPD*%
G36*
X230696Y98089D02*
X230696Y98089D01*
X230727Y98086D01*
X231397Y98162D01*
X231444Y98177D01*
X231508Y98187D01*
X232144Y98410D01*
X232186Y98435D01*
X232246Y98459D01*
X232817Y98818D01*
X232853Y98852D01*
X232906Y98888D01*
X233382Y99365D01*
X233409Y99406D01*
X233453Y99454D01*
X233811Y100024D01*
X233829Y100071D01*
X233861Y100127D01*
X234083Y100763D01*
X234090Y100812D01*
X234109Y100874D01*
X234184Y101539D01*
X234261Y102125D01*
X234463Y102614D01*
X234786Y103034D01*
X235206Y103357D01*
X235695Y103559D01*
X236253Y103633D01*
X238760Y103633D01*
X238790Y103639D01*
X238826Y103637D01*
X239484Y103724D01*
X239535Y103741D01*
X239612Y103758D01*
X240224Y104012D01*
X240270Y104042D01*
X240339Y104078D01*
X240865Y104482D01*
X240901Y104523D01*
X240959Y104575D01*
X241362Y105101D01*
X241386Y105150D01*
X241428Y105216D01*
X241682Y105829D01*
X241693Y105882D01*
X241716Y105956D01*
X241803Y106614D01*
X241801Y106644D01*
X241807Y106680D01*
X241807Y108966D01*
X241801Y108996D01*
X241803Y109032D01*
X241708Y109755D01*
X241690Y109807D01*
X241673Y109883D01*
X241394Y110557D01*
X241364Y110603D01*
X241328Y110672D01*
X240884Y111250D01*
X240843Y111286D01*
X240790Y111344D01*
X240212Y111788D01*
X240163Y111812D01*
X240097Y111854D01*
X239423Y112133D01*
X239370Y112144D01*
X239295Y112168D01*
X238572Y112263D01*
X238542Y112261D01*
X238506Y112267D01*
X223807Y112267D01*
X223183Y112349D01*
X222633Y112577D01*
X222160Y112940D01*
X221797Y113413D01*
X221569Y113963D01*
X221487Y114587D01*
X221487Y158591D01*
X221486Y158598D01*
X221487Y158606D01*
X221466Y158696D01*
X221448Y158787D01*
X221443Y158794D01*
X221441Y158801D01*
X221339Y158949D01*
X221233Y159055D01*
X221233Y162001D01*
X221252Y162029D01*
X221276Y162050D01*
X221306Y162111D01*
X221344Y162168D01*
X221350Y162201D01*
X221365Y162230D01*
X221371Y162311D01*
X221382Y162365D01*
X221377Y162386D01*
X221379Y162410D01*
X221319Y163025D01*
X221306Y163067D01*
X221299Y163122D01*
X220808Y164742D01*
X220787Y164781D01*
X220770Y164834D01*
X219972Y166327D01*
X219944Y166361D01*
X219917Y166410D01*
X218843Y167718D01*
X218808Y167746D01*
X218772Y167789D01*
X217464Y168863D01*
X217425Y168883D01*
X217381Y168918D01*
X215888Y169716D01*
X215846Y169729D01*
X215796Y169754D01*
X214176Y170245D01*
X214132Y170250D01*
X214079Y170265D01*
X212394Y170431D01*
X212371Y170428D01*
X212344Y170433D01*
X64008Y170433D01*
X63982Y170428D01*
X63951Y170430D01*
X63273Y170354D01*
X63226Y170339D01*
X63162Y170328D01*
X62518Y170103D01*
X62476Y170078D01*
X62469Y170075D01*
X62459Y170073D01*
X62452Y170068D01*
X62416Y170054D01*
X61838Y169691D01*
X61802Y169657D01*
X61749Y169620D01*
X61266Y169137D01*
X61239Y169096D01*
X61195Y169048D01*
X60832Y168470D01*
X60815Y168424D01*
X60783Y168368D01*
X60558Y167724D01*
X60551Y167675D01*
X60532Y167613D01*
X60456Y166935D01*
X60458Y166908D01*
X60453Y166878D01*
X60453Y119380D01*
X60453Y119379D01*
X60453Y119377D01*
X60457Y119358D01*
X60459Y119350D01*
X60457Y119314D01*
X60544Y118656D01*
X60561Y118605D01*
X60578Y118529D01*
X60832Y117916D01*
X60862Y117870D01*
X60898Y117801D01*
X61302Y117275D01*
X61343Y117239D01*
X61395Y117182D01*
X61921Y116778D01*
X61970Y116754D01*
X62036Y116712D01*
X62649Y116458D01*
X62702Y116447D01*
X62776Y116424D01*
X63434Y116337D01*
X63464Y116339D01*
X63500Y116333D01*
X66040Y116333D01*
X66070Y116339D01*
X66106Y116337D01*
X66764Y116424D01*
X66815Y116441D01*
X66892Y116458D01*
X67504Y116712D01*
X67550Y116742D01*
X67619Y116778D01*
X68145Y117182D01*
X68181Y117223D01*
X68239Y117275D01*
X68642Y117801D01*
X68666Y117850D01*
X68708Y117916D01*
X68962Y118529D01*
X68973Y118582D01*
X68996Y118656D01*
X69083Y119314D01*
X69081Y119344D01*
X69087Y119380D01*
X69087Y122395D01*
X69143Y122822D01*
X69295Y123188D01*
X69537Y123503D01*
X69852Y123745D01*
X70219Y123897D01*
X70645Y123953D01*
X75946Y123953D01*
X75947Y123953D01*
X75948Y123953D01*
X75977Y123959D01*
X76012Y123957D01*
X76735Y124052D01*
X76787Y124070D01*
X76863Y124087D01*
X77537Y124366D01*
X77583Y124396D01*
X77652Y124432D01*
X78230Y124876D01*
X78266Y124917D01*
X78324Y124970D01*
X78768Y125548D01*
X78792Y125597D01*
X78834Y125663D01*
X79113Y126337D01*
X79124Y126391D01*
X79148Y126465D01*
X79243Y127188D01*
X79241Y127218D01*
X79247Y127254D01*
X79247Y145009D01*
X79401Y146570D01*
X79849Y148047D01*
X80576Y149408D01*
X81555Y150601D01*
X82748Y151580D01*
X84109Y152307D01*
X85586Y152755D01*
X87147Y152909D01*
X129007Y152909D01*
X130271Y152784D01*
X131461Y152423D01*
X132559Y151836D01*
X133521Y151047D01*
X134310Y150085D01*
X134897Y148987D01*
X135258Y147797D01*
X135383Y146533D01*
X135383Y143764D01*
X135384Y143759D01*
X135383Y143754D01*
X135404Y143661D01*
X135422Y143568D01*
X135425Y143563D01*
X135426Y143558D01*
X135482Y143480D01*
X135535Y143402D01*
X135539Y143399D01*
X135542Y143395D01*
X135624Y143344D01*
X135703Y143292D01*
X135708Y143292D01*
X135713Y143289D01*
X135890Y143257D01*
X188951Y143257D01*
X190661Y143088D01*
X192280Y142597D01*
X193773Y141799D01*
X195081Y140725D01*
X196155Y139417D01*
X196953Y137924D01*
X197444Y136305D01*
X197613Y134595D01*
X197613Y102693D01*
X197618Y102667D01*
X197616Y102636D01*
X197719Y101723D01*
X197734Y101676D01*
X197744Y101613D01*
X198048Y100745D01*
X198073Y100703D01*
X198097Y100643D01*
X198586Y99865D01*
X198620Y99829D01*
X198656Y99776D01*
X199306Y99127D01*
X199347Y99100D01*
X199395Y99056D01*
X200173Y98567D01*
X200219Y98550D01*
X200275Y98518D01*
X201142Y98215D01*
X201191Y98208D01*
X201253Y98189D01*
X202166Y98086D01*
X202192Y98089D01*
X202223Y98083D01*
X230671Y98083D01*
X230696Y98089D01*
G37*
G36*
X246914Y120148D02*
X246914Y120148D01*
X246945Y120146D01*
X247906Y120254D01*
X247953Y120269D01*
X248016Y120279D01*
X248929Y120599D01*
X248972Y120624D01*
X249031Y120648D01*
X249850Y121163D01*
X249886Y121197D01*
X249939Y121233D01*
X250623Y121917D01*
X250650Y121958D01*
X250693Y122006D01*
X251208Y122825D01*
X251225Y122871D01*
X251257Y122927D01*
X251577Y123840D01*
X251583Y123889D01*
X251602Y123950D01*
X251710Y124911D01*
X251708Y124938D01*
X251713Y124968D01*
X251713Y198374D01*
X251708Y198400D01*
X251710Y198431D01*
X251608Y199335D01*
X251593Y199382D01*
X251583Y199446D01*
X251282Y200305D01*
X251257Y200347D01*
X251233Y200407D01*
X250749Y201178D01*
X250715Y201214D01*
X250677Y201267D01*
X250671Y201274D01*
X250665Y201278D01*
X250661Y201283D01*
X250631Y201302D01*
X250611Y201323D01*
X250567Y201342D01*
X250504Y201384D01*
X250497Y201385D01*
X250491Y201389D01*
X250438Y201399D01*
X250427Y201404D01*
X250410Y201404D01*
X250313Y201421D01*
X141732Y201421D01*
X141727Y201420D01*
X141722Y201421D01*
X141629Y201400D01*
X141536Y201382D01*
X141531Y201379D01*
X141526Y201378D01*
X141448Y201322D01*
X141370Y201269D01*
X141367Y201265D01*
X141363Y201262D01*
X141312Y201180D01*
X141260Y201101D01*
X141260Y201096D01*
X141257Y201091D01*
X141225Y200914D01*
X141225Y187198D01*
X141231Y187168D01*
X141229Y187132D01*
X141307Y186540D01*
X141325Y186488D01*
X141341Y186412D01*
X141570Y185861D01*
X141600Y185816D01*
X141636Y185746D01*
X141999Y185273D01*
X142036Y185241D01*
X142059Y185209D01*
X142076Y185198D01*
X142093Y185179D01*
X142566Y184816D01*
X142615Y184792D01*
X142681Y184750D01*
X143232Y184521D01*
X143286Y184511D01*
X143360Y184487D01*
X143952Y184409D01*
X143982Y184411D01*
X144018Y184405D01*
X232128Y184405D01*
X233060Y184300D01*
X233918Y183999D01*
X234688Y183515D01*
X235331Y182872D01*
X235815Y182102D01*
X236116Y181244D01*
X236221Y180312D01*
X236221Y123698D01*
X236223Y123689D01*
X236221Y123683D01*
X236226Y123665D01*
X236224Y123641D01*
X236300Y122963D01*
X236315Y122916D01*
X236326Y122852D01*
X236551Y122208D01*
X236576Y122166D01*
X236600Y122106D01*
X236963Y121528D01*
X236997Y121492D01*
X237034Y121439D01*
X237517Y120956D01*
X237558Y120929D01*
X237606Y120885D01*
X238184Y120522D01*
X238230Y120505D01*
X238286Y120473D01*
X238930Y120248D01*
X238979Y120241D01*
X239041Y120222D01*
X239719Y120146D01*
X239746Y120148D01*
X239776Y120143D01*
X246888Y120143D01*
X246914Y120148D01*
G37*
G36*
X185425Y25910D02*
X185425Y25910D01*
X185430Y25909D01*
X185523Y25930D01*
X185617Y25948D01*
X185621Y25951D01*
X185626Y25952D01*
X185704Y26008D01*
X185782Y26061D01*
X185785Y26065D01*
X185789Y26068D01*
X185840Y26150D01*
X185892Y26229D01*
X185892Y26234D01*
X185895Y26239D01*
X185927Y26416D01*
X185927Y33528D01*
X185921Y33558D01*
X185923Y33594D01*
X185854Y34120D01*
X185836Y34172D01*
X185819Y34248D01*
X185616Y34738D01*
X185586Y34783D01*
X185550Y34853D01*
X185227Y35274D01*
X185186Y35310D01*
X185134Y35367D01*
X184713Y35690D01*
X184664Y35714D01*
X184598Y35756D01*
X184108Y35959D01*
X184054Y35970D01*
X183980Y35994D01*
X183454Y36063D01*
X183424Y36061D01*
X183388Y36067D01*
X177317Y36067D01*
X176153Y36182D01*
X175057Y36514D01*
X174047Y37054D01*
X173162Y37780D01*
X172436Y38665D01*
X171896Y39675D01*
X171564Y40771D01*
X171449Y41935D01*
X171449Y84074D01*
X171443Y84104D01*
X171445Y84140D01*
X171367Y84732D01*
X171349Y84784D01*
X171333Y84860D01*
X171104Y85411D01*
X171074Y85456D01*
X171038Y85526D01*
X170675Y85999D01*
X170634Y86035D01*
X170581Y86093D01*
X170108Y86456D01*
X170059Y86480D01*
X169993Y86522D01*
X169442Y86751D01*
X169388Y86761D01*
X169314Y86785D01*
X168722Y86863D01*
X168692Y86861D01*
X168656Y86867D01*
X155989Y86867D01*
X155497Y86932D01*
X155069Y87109D01*
X154701Y87391D01*
X154419Y87759D01*
X154242Y88187D01*
X154177Y88679D01*
X154177Y94488D01*
X154171Y94518D01*
X154173Y94554D01*
X154104Y95080D01*
X154086Y95132D01*
X154069Y95208D01*
X153866Y95698D01*
X153836Y95743D01*
X153800Y95813D01*
X153477Y96234D01*
X153449Y96259D01*
X153434Y96279D01*
X153419Y96288D01*
X153384Y96327D01*
X152963Y96650D01*
X152914Y96674D01*
X152848Y96716D01*
X152358Y96919D01*
X152304Y96930D01*
X152230Y96954D01*
X151704Y97023D01*
X151674Y97021D01*
X151638Y97027D01*
X146083Y97027D01*
X145788Y97066D01*
X145544Y97167D01*
X145334Y97328D01*
X145173Y97538D01*
X145072Y97782D01*
X145029Y98110D01*
X145027Y98116D01*
X145027Y98123D01*
X144977Y98437D01*
X144959Y98488D01*
X144928Y98588D01*
X144784Y98871D01*
X144751Y98914D01*
X144691Y99000D01*
X144466Y99225D01*
X144421Y99255D01*
X144337Y99318D01*
X144054Y99462D01*
X144002Y99477D01*
X143903Y99511D01*
X143661Y99550D01*
X142414Y100140D01*
X142371Y100150D01*
X142320Y100173D01*
X140911Y100526D01*
X140867Y100528D01*
X140813Y100541D01*
X139362Y100612D01*
X139318Y100606D01*
X139262Y100607D01*
X137825Y100394D01*
X137784Y100379D01*
X137729Y100370D01*
X136361Y99881D01*
X136323Y99858D01*
X136271Y99838D01*
X135025Y99091D01*
X134992Y99062D01*
X134945Y99032D01*
X133869Y98057D01*
X133843Y98021D01*
X133802Y97983D01*
X132937Y96816D01*
X132906Y96752D01*
X132869Y96691D01*
X132863Y96660D01*
X132851Y96635D01*
X132849Y96583D01*
X132837Y96514D01*
X132837Y32252D01*
X132842Y32226D01*
X132840Y32195D01*
X132948Y31236D01*
X132963Y31189D01*
X132973Y31125D01*
X133292Y30214D01*
X133318Y30171D01*
X133342Y30111D01*
X133855Y29294D01*
X133889Y29258D01*
X133926Y29205D01*
X134609Y28522D01*
X134650Y28495D01*
X134698Y28451D01*
X135515Y27938D01*
X135562Y27920D01*
X135618Y27888D01*
X136529Y27569D01*
X136578Y27563D01*
X136640Y27544D01*
X137599Y27436D01*
X137626Y27438D01*
X137656Y27433D01*
X138148Y27433D01*
X139080Y27328D01*
X139938Y27027D01*
X140708Y26543D01*
X141194Y26057D01*
X141201Y26053D01*
X141206Y26047D01*
X141284Y25998D01*
X141361Y25946D01*
X141369Y25945D01*
X141376Y25941D01*
X141553Y25909D01*
X185420Y25909D01*
X185425Y25910D01*
G37*
G36*
X79253Y25910D02*
X79253Y25910D01*
X79258Y25909D01*
X79261Y25909D01*
X79263Y25909D01*
X79353Y25930D01*
X79444Y25948D01*
X79449Y25951D01*
X79454Y25952D01*
X79456Y25954D01*
X79459Y25955D01*
X79607Y26057D01*
X79608Y26060D01*
X79610Y26061D01*
X79613Y26065D01*
X79617Y26068D01*
X79666Y26147D01*
X79718Y26224D01*
X79718Y26227D01*
X79720Y26229D01*
X79720Y26234D01*
X79723Y26239D01*
X79755Y26416D01*
X79755Y83312D01*
X79754Y83317D01*
X79755Y83322D01*
X79734Y83415D01*
X79716Y83509D01*
X79713Y83513D01*
X79712Y83518D01*
X79656Y83596D01*
X79603Y83674D01*
X79599Y83677D01*
X79596Y83681D01*
X79514Y83732D01*
X79435Y83784D01*
X79430Y83784D01*
X79425Y83787D01*
X79248Y83819D01*
X49022Y83819D01*
X48986Y83812D01*
X48943Y83813D01*
X48629Y83763D01*
X48578Y83745D01*
X48478Y83714D01*
X48195Y83570D01*
X48152Y83537D01*
X48066Y83477D01*
X47841Y83252D01*
X47811Y83207D01*
X47748Y83123D01*
X47604Y82840D01*
X47589Y82788D01*
X47555Y82689D01*
X47505Y82375D01*
X47507Y82339D01*
X47499Y82296D01*
X47499Y43717D01*
X47432Y43123D01*
X47244Y42587D01*
X46942Y42106D01*
X46540Y41704D01*
X46059Y41402D01*
X45523Y41214D01*
X44930Y41147D01*
X43942Y41147D01*
X43916Y41142D01*
X43885Y41144D01*
X43094Y41055D01*
X43047Y41040D01*
X42983Y41030D01*
X42232Y40767D01*
X42189Y40741D01*
X42129Y40717D01*
X41455Y40294D01*
X41419Y40260D01*
X41366Y40223D01*
X40803Y39660D01*
X40776Y39619D01*
X40732Y39571D01*
X40309Y38897D01*
X40291Y38851D01*
X40259Y38794D01*
X39996Y38043D01*
X39990Y37994D01*
X39971Y37932D01*
X39882Y37141D01*
X39884Y37114D01*
X39879Y37084D01*
X39879Y26416D01*
X39880Y26411D01*
X39879Y26406D01*
X39900Y26313D01*
X39918Y26219D01*
X39921Y26215D01*
X39922Y26210D01*
X39978Y26132D01*
X40031Y26054D01*
X40035Y26051D01*
X40038Y26047D01*
X40120Y25996D01*
X40199Y25944D01*
X40204Y25944D01*
X40209Y25941D01*
X40386Y25909D01*
X79248Y25909D01*
X79253Y25910D01*
G37*
G36*
X329189Y25910D02*
X329189Y25910D01*
X329194Y25909D01*
X329287Y25930D01*
X329381Y25948D01*
X329385Y25951D01*
X329390Y25952D01*
X329468Y26008D01*
X329546Y26061D01*
X329549Y26065D01*
X329553Y26068D01*
X329604Y26150D01*
X329656Y26229D01*
X329656Y26234D01*
X329659Y26239D01*
X329691Y26416D01*
X329691Y40640D01*
X329686Y40666D01*
X329688Y40697D01*
X329612Y41375D01*
X329597Y41422D01*
X329586Y41486D01*
X329361Y42130D01*
X329336Y42172D01*
X329312Y42232D01*
X328949Y42810D01*
X328915Y42846D01*
X328878Y42899D01*
X328395Y43382D01*
X328354Y43409D01*
X328306Y43453D01*
X327728Y43816D01*
X327682Y43833D01*
X327626Y43865D01*
X326982Y44090D01*
X326933Y44097D01*
X326871Y44116D01*
X326193Y44192D01*
X326166Y44190D01*
X326136Y44195D01*
X316255Y44195D01*
X315190Y44300D01*
X314189Y44604D01*
X313268Y45096D01*
X312460Y45760D01*
X311796Y46568D01*
X311304Y47489D01*
X311000Y48490D01*
X310895Y49555D01*
X310895Y90424D01*
X310889Y90454D01*
X310891Y90490D01*
X310830Y90950D01*
X310813Y91002D01*
X310796Y91078D01*
X310618Y91507D01*
X310588Y91552D01*
X310552Y91622D01*
X310270Y91990D01*
X310229Y92026D01*
X310176Y92084D01*
X309808Y92366D01*
X309759Y92390D01*
X309693Y92432D01*
X309264Y92610D01*
X309211Y92621D01*
X309136Y92644D01*
X308676Y92705D01*
X308646Y92703D01*
X308610Y92709D01*
X288290Y92709D01*
X288260Y92703D01*
X288224Y92705D01*
X287698Y92636D01*
X287646Y92618D01*
X287570Y92601D01*
X287080Y92398D01*
X287035Y92368D01*
X286965Y92332D01*
X286544Y92009D01*
X286508Y91968D01*
X286451Y91916D01*
X286128Y91495D01*
X286104Y91446D01*
X286062Y91380D01*
X285859Y90890D01*
X285848Y90836D01*
X285824Y90762D01*
X285755Y90236D01*
X285757Y90206D01*
X285751Y90170D01*
X285751Y83312D01*
X285757Y83282D01*
X285755Y83246D01*
X285842Y82588D01*
X285859Y82537D01*
X285876Y82461D01*
X286130Y81848D01*
X286160Y81802D01*
X286196Y81733D01*
X286600Y81207D01*
X286641Y81171D01*
X286693Y81114D01*
X287001Y80878D01*
X287068Y80844D01*
X287132Y80805D01*
X287159Y80800D01*
X287181Y80789D01*
X287235Y80786D01*
X287309Y80773D01*
X287725Y80773D01*
X288858Y80303D01*
X288867Y80302D01*
X288875Y80297D01*
X289052Y80265D01*
X290547Y80265D01*
X291367Y80172D01*
X292118Y79910D01*
X292792Y79486D01*
X293354Y78924D01*
X293778Y78250D01*
X294040Y77499D01*
X294133Y76679D01*
X294133Y27178D01*
X294139Y27148D01*
X294137Y27112D01*
X294198Y26652D01*
X294215Y26600D01*
X294232Y26524D01*
X294357Y26222D01*
X294361Y26216D01*
X294362Y26210D01*
X294416Y26133D01*
X294469Y26056D01*
X294474Y26052D01*
X294478Y26047D01*
X294558Y25997D01*
X294636Y25945D01*
X294643Y25944D01*
X294648Y25941D01*
X294826Y25909D01*
X329184Y25909D01*
X329189Y25910D01*
G37*
G36*
X58538Y16D02*
X58538Y16D01*
X58657Y23D01*
X58695Y36D01*
X58736Y41D01*
X58846Y84D01*
X58959Y121D01*
X58994Y143D01*
X59031Y158D01*
X59127Y228D01*
X59228Y291D01*
X59256Y321D01*
X59289Y344D01*
X59365Y436D01*
X59446Y523D01*
X59466Y558D01*
X59491Y589D01*
X59542Y697D01*
X59600Y801D01*
X59610Y841D01*
X59627Y877D01*
X59649Y994D01*
X59679Y1109D01*
X59683Y1170D01*
X59687Y1190D01*
X59685Y1210D01*
X59689Y1270D01*
X59689Y12700D01*
X59687Y12720D01*
X59683Y12824D01*
X59537Y14311D01*
X59527Y14354D01*
X59525Y14398D01*
X59488Y14555D01*
X59055Y15985D01*
X59037Y16025D01*
X59026Y16068D01*
X58959Y16214D01*
X58255Y17532D01*
X58230Y17568D01*
X58211Y17608D01*
X58117Y17739D01*
X57169Y18893D01*
X57137Y18924D01*
X57111Y18959D01*
X56993Y19069D01*
X55839Y20017D01*
X55801Y20041D01*
X55769Y20070D01*
X55632Y20155D01*
X54314Y20859D01*
X54273Y20875D01*
X54235Y20898D01*
X54085Y20955D01*
X52655Y21388D01*
X52611Y21396D01*
X52570Y21411D01*
X52411Y21437D01*
X50924Y21583D01*
X50880Y21582D01*
X50837Y21589D01*
X50676Y21583D01*
X49189Y21437D01*
X49146Y21427D01*
X49102Y21425D01*
X48945Y21388D01*
X47516Y20955D01*
X47475Y20937D01*
X47432Y20926D01*
X47286Y20859D01*
X45968Y20155D01*
X45965Y20153D01*
X45962Y20152D01*
X45931Y20129D01*
X45892Y20111D01*
X45761Y20017D01*
X44607Y19069D01*
X44576Y19037D01*
X44541Y19011D01*
X44431Y18893D01*
X43483Y17739D01*
X43459Y17701D01*
X43430Y17669D01*
X43345Y17532D01*
X42641Y16214D01*
X42625Y16173D01*
X42602Y16135D01*
X42545Y15985D01*
X42112Y14555D01*
X42104Y14511D01*
X42089Y14470D01*
X42063Y14311D01*
X41917Y12824D01*
X41917Y12805D01*
X41917Y12790D01*
X41913Y12774D01*
X41914Y12757D01*
X41911Y12700D01*
X41911Y1270D01*
X41926Y1152D01*
X41933Y1033D01*
X41946Y995D01*
X41951Y954D01*
X41994Y844D01*
X42031Y731D01*
X42053Y696D01*
X42068Y659D01*
X42138Y563D01*
X42201Y462D01*
X42231Y434D01*
X42254Y401D01*
X42346Y326D01*
X42433Y244D01*
X42468Y224D01*
X42499Y199D01*
X42607Y148D01*
X42711Y90D01*
X42751Y80D01*
X42787Y63D01*
X42904Y41D01*
X43019Y11D01*
X43080Y7D01*
X43100Y3D01*
X43120Y5D01*
X43180Y1D01*
X58420Y1D01*
X58538Y16D01*
G37*
G36*
X83938Y16D02*
X83938Y16D01*
X84057Y23D01*
X84095Y36D01*
X84136Y41D01*
X84246Y84D01*
X84359Y121D01*
X84394Y143D01*
X84431Y158D01*
X84527Y228D01*
X84628Y291D01*
X84656Y321D01*
X84689Y344D01*
X84765Y436D01*
X84846Y523D01*
X84866Y558D01*
X84891Y589D01*
X84942Y697D01*
X85000Y801D01*
X85010Y841D01*
X85027Y877D01*
X85049Y994D01*
X85079Y1109D01*
X85083Y1170D01*
X85087Y1190D01*
X85085Y1210D01*
X85089Y1270D01*
X85089Y12700D01*
X85087Y12720D01*
X85083Y12824D01*
X84937Y14311D01*
X84927Y14354D01*
X84925Y14398D01*
X84888Y14555D01*
X84455Y15985D01*
X84437Y16025D01*
X84426Y16068D01*
X84359Y16214D01*
X83655Y17532D01*
X83630Y17568D01*
X83611Y17608D01*
X83517Y17739D01*
X82569Y18893D01*
X82537Y18924D01*
X82511Y18959D01*
X82393Y19069D01*
X81239Y20017D01*
X81201Y20041D01*
X81169Y20070D01*
X81032Y20155D01*
X79714Y20859D01*
X79673Y20875D01*
X79635Y20898D01*
X79485Y20955D01*
X78055Y21388D01*
X78011Y21396D01*
X77970Y21411D01*
X77811Y21437D01*
X76324Y21583D01*
X76280Y21582D01*
X76237Y21589D01*
X76076Y21583D01*
X74589Y21437D01*
X74546Y21427D01*
X74502Y21425D01*
X74345Y21388D01*
X72916Y20955D01*
X72875Y20937D01*
X72832Y20926D01*
X72686Y20859D01*
X71368Y20155D01*
X71365Y20153D01*
X71362Y20152D01*
X71331Y20129D01*
X71292Y20111D01*
X71161Y20017D01*
X70007Y19069D01*
X69976Y19037D01*
X69941Y19011D01*
X69831Y18893D01*
X68883Y17739D01*
X68859Y17701D01*
X68830Y17669D01*
X68745Y17532D01*
X68041Y16214D01*
X68025Y16173D01*
X68002Y16135D01*
X67945Y15985D01*
X67512Y14555D01*
X67504Y14511D01*
X67489Y14470D01*
X67463Y14311D01*
X67317Y12824D01*
X67317Y12805D01*
X67317Y12790D01*
X67313Y12774D01*
X67314Y12757D01*
X67311Y12700D01*
X67311Y1270D01*
X67326Y1152D01*
X67333Y1033D01*
X67346Y995D01*
X67351Y954D01*
X67394Y844D01*
X67431Y731D01*
X67453Y696D01*
X67468Y659D01*
X67538Y563D01*
X67601Y462D01*
X67631Y434D01*
X67654Y401D01*
X67746Y326D01*
X67833Y244D01*
X67868Y224D01*
X67899Y199D01*
X68007Y148D01*
X68111Y90D01*
X68151Y80D01*
X68187Y63D01*
X68304Y41D01*
X68419Y11D01*
X68480Y7D01*
X68500Y3D01*
X68520Y5D01*
X68580Y1D01*
X83820Y1D01*
X83938Y16D01*
G37*
G36*
X236338Y16D02*
X236338Y16D01*
X236457Y23D01*
X236495Y36D01*
X236536Y41D01*
X236646Y84D01*
X236759Y121D01*
X236794Y143D01*
X236831Y158D01*
X236927Y228D01*
X237028Y291D01*
X237056Y321D01*
X237089Y344D01*
X237165Y436D01*
X237246Y523D01*
X237266Y558D01*
X237291Y589D01*
X237342Y697D01*
X237400Y801D01*
X237410Y841D01*
X237427Y877D01*
X237449Y994D01*
X237479Y1109D01*
X237483Y1170D01*
X237487Y1190D01*
X237485Y1210D01*
X237489Y1270D01*
X237489Y12700D01*
X237487Y12720D01*
X237483Y12824D01*
X237337Y14311D01*
X237327Y14354D01*
X237325Y14398D01*
X237288Y14555D01*
X236855Y15985D01*
X236837Y16025D01*
X236826Y16068D01*
X236759Y16214D01*
X236055Y17532D01*
X236030Y17568D01*
X236011Y17608D01*
X235917Y17739D01*
X234969Y18893D01*
X234937Y18924D01*
X234911Y18959D01*
X234793Y19069D01*
X233639Y20017D01*
X233601Y20041D01*
X233569Y20070D01*
X233432Y20155D01*
X232114Y20859D01*
X232073Y20875D01*
X232035Y20898D01*
X231885Y20955D01*
X230455Y21388D01*
X230411Y21396D01*
X230370Y21411D01*
X230211Y21437D01*
X228724Y21583D01*
X228680Y21582D01*
X228637Y21589D01*
X228476Y21583D01*
X226989Y21437D01*
X226946Y21427D01*
X226902Y21425D01*
X226745Y21388D01*
X225316Y20955D01*
X225275Y20937D01*
X225232Y20926D01*
X225086Y20859D01*
X223768Y20155D01*
X223765Y20153D01*
X223762Y20152D01*
X223731Y20129D01*
X223692Y20111D01*
X223561Y20017D01*
X222407Y19069D01*
X222376Y19037D01*
X222341Y19011D01*
X222231Y18893D01*
X221283Y17739D01*
X221259Y17701D01*
X221230Y17669D01*
X221145Y17532D01*
X220441Y16214D01*
X220425Y16173D01*
X220402Y16135D01*
X220345Y15985D01*
X219912Y14555D01*
X219904Y14511D01*
X219889Y14470D01*
X219863Y14311D01*
X219717Y12824D01*
X219717Y12805D01*
X219717Y12790D01*
X219713Y12774D01*
X219714Y12757D01*
X219711Y12700D01*
X219711Y1270D01*
X219726Y1152D01*
X219733Y1033D01*
X219746Y995D01*
X219751Y954D01*
X219794Y844D01*
X219831Y731D01*
X219853Y696D01*
X219868Y659D01*
X219938Y563D01*
X220001Y462D01*
X220031Y434D01*
X220054Y401D01*
X220146Y326D01*
X220233Y244D01*
X220268Y224D01*
X220299Y199D01*
X220407Y148D01*
X220511Y90D01*
X220551Y80D01*
X220587Y63D01*
X220704Y41D01*
X220819Y11D01*
X220880Y7D01*
X220900Y3D01*
X220920Y5D01*
X220980Y1D01*
X236220Y1D01*
X236338Y16D01*
G37*
G36*
X337938Y16D02*
X337938Y16D01*
X338057Y23D01*
X338095Y36D01*
X338136Y41D01*
X338246Y84D01*
X338359Y121D01*
X338394Y143D01*
X338431Y158D01*
X338527Y228D01*
X338628Y291D01*
X338656Y321D01*
X338689Y344D01*
X338765Y436D01*
X338846Y523D01*
X338866Y558D01*
X338891Y589D01*
X338942Y697D01*
X339000Y801D01*
X339010Y841D01*
X339027Y877D01*
X339049Y994D01*
X339079Y1109D01*
X339083Y1170D01*
X339087Y1190D01*
X339085Y1210D01*
X339089Y1270D01*
X339089Y12700D01*
X339087Y12720D01*
X339083Y12824D01*
X338937Y14311D01*
X338927Y14354D01*
X338925Y14398D01*
X338888Y14555D01*
X338455Y15985D01*
X338437Y16025D01*
X338426Y16068D01*
X338359Y16214D01*
X337655Y17532D01*
X337630Y17568D01*
X337611Y17608D01*
X337517Y17739D01*
X336569Y18893D01*
X336537Y18924D01*
X336511Y18959D01*
X336393Y19069D01*
X335239Y20017D01*
X335201Y20041D01*
X335169Y20070D01*
X335032Y20155D01*
X333714Y20859D01*
X333673Y20875D01*
X333635Y20898D01*
X333485Y20955D01*
X332055Y21388D01*
X332011Y21396D01*
X331970Y21411D01*
X331811Y21437D01*
X330324Y21583D01*
X330280Y21582D01*
X330237Y21589D01*
X330076Y21583D01*
X328589Y21437D01*
X328546Y21427D01*
X328502Y21425D01*
X328345Y21388D01*
X326916Y20955D01*
X326875Y20937D01*
X326832Y20926D01*
X326686Y20859D01*
X325368Y20155D01*
X325365Y20153D01*
X325362Y20152D01*
X325331Y20129D01*
X325292Y20111D01*
X325161Y20017D01*
X324007Y19069D01*
X323976Y19037D01*
X323941Y19011D01*
X323831Y18893D01*
X322883Y17739D01*
X322859Y17701D01*
X322830Y17669D01*
X322745Y17532D01*
X322041Y16214D01*
X322025Y16173D01*
X322002Y16135D01*
X321945Y15985D01*
X321512Y14555D01*
X321504Y14511D01*
X321489Y14470D01*
X321463Y14311D01*
X321317Y12824D01*
X321317Y12805D01*
X321317Y12790D01*
X321313Y12774D01*
X321314Y12757D01*
X321311Y12700D01*
X321311Y1270D01*
X321326Y1152D01*
X321333Y1033D01*
X321346Y995D01*
X321351Y954D01*
X321394Y844D01*
X321431Y731D01*
X321453Y696D01*
X321468Y659D01*
X321538Y563D01*
X321601Y462D01*
X321631Y434D01*
X321654Y401D01*
X321746Y326D01*
X321833Y244D01*
X321868Y224D01*
X321899Y199D01*
X322007Y148D01*
X322111Y90D01*
X322151Y80D01*
X322187Y63D01*
X322304Y41D01*
X322419Y11D01*
X322480Y7D01*
X322500Y3D01*
X322520Y5D01*
X322580Y1D01*
X337820Y1D01*
X337938Y16D01*
G37*
G36*
X287138Y16D02*
X287138Y16D01*
X287257Y23D01*
X287295Y36D01*
X287336Y41D01*
X287446Y84D01*
X287559Y121D01*
X287594Y143D01*
X287631Y158D01*
X287727Y228D01*
X287828Y291D01*
X287856Y321D01*
X287889Y344D01*
X287965Y436D01*
X288046Y523D01*
X288066Y558D01*
X288091Y589D01*
X288142Y697D01*
X288200Y801D01*
X288210Y841D01*
X288227Y877D01*
X288249Y994D01*
X288279Y1109D01*
X288283Y1170D01*
X288287Y1190D01*
X288285Y1210D01*
X288289Y1270D01*
X288289Y12700D01*
X288287Y12720D01*
X288283Y12824D01*
X288137Y14311D01*
X288127Y14354D01*
X288125Y14398D01*
X288088Y14555D01*
X287655Y15985D01*
X287637Y16025D01*
X287626Y16068D01*
X287559Y16214D01*
X286855Y17532D01*
X286830Y17568D01*
X286811Y17608D01*
X286717Y17739D01*
X285769Y18893D01*
X285737Y18924D01*
X285711Y18959D01*
X285593Y19069D01*
X284439Y20017D01*
X284401Y20041D01*
X284369Y20070D01*
X284232Y20155D01*
X282914Y20859D01*
X282873Y20875D01*
X282835Y20898D01*
X282685Y20955D01*
X281255Y21388D01*
X281211Y21396D01*
X281170Y21411D01*
X281011Y21437D01*
X279524Y21583D01*
X279480Y21582D01*
X279437Y21589D01*
X279276Y21583D01*
X277789Y21437D01*
X277746Y21427D01*
X277702Y21425D01*
X277545Y21388D01*
X276116Y20955D01*
X276075Y20937D01*
X276032Y20926D01*
X275886Y20859D01*
X274568Y20155D01*
X274565Y20153D01*
X274562Y20152D01*
X274531Y20129D01*
X274492Y20111D01*
X274361Y20017D01*
X273207Y19069D01*
X273176Y19037D01*
X273141Y19011D01*
X273031Y18893D01*
X272083Y17739D01*
X272059Y17701D01*
X272030Y17669D01*
X271945Y17532D01*
X271241Y16214D01*
X271225Y16173D01*
X271202Y16135D01*
X271145Y15985D01*
X270712Y14555D01*
X270704Y14511D01*
X270689Y14470D01*
X270663Y14311D01*
X270517Y12824D01*
X270517Y12805D01*
X270517Y12790D01*
X270513Y12774D01*
X270514Y12757D01*
X270511Y12700D01*
X270511Y1270D01*
X270526Y1152D01*
X270533Y1033D01*
X270546Y995D01*
X270551Y954D01*
X270594Y844D01*
X270631Y731D01*
X270653Y696D01*
X270668Y659D01*
X270738Y563D01*
X270801Y462D01*
X270831Y434D01*
X270854Y401D01*
X270946Y326D01*
X271033Y244D01*
X271068Y224D01*
X271099Y199D01*
X271207Y148D01*
X271311Y90D01*
X271351Y80D01*
X271387Y63D01*
X271504Y41D01*
X271619Y11D01*
X271680Y7D01*
X271700Y3D01*
X271720Y5D01*
X271780Y1D01*
X287020Y1D01*
X287138Y16D01*
G37*
G36*
X109338Y16D02*
X109338Y16D01*
X109457Y23D01*
X109495Y36D01*
X109536Y41D01*
X109646Y84D01*
X109759Y121D01*
X109794Y143D01*
X109831Y158D01*
X109927Y228D01*
X110028Y291D01*
X110056Y321D01*
X110089Y344D01*
X110165Y436D01*
X110246Y523D01*
X110266Y558D01*
X110291Y589D01*
X110342Y697D01*
X110400Y801D01*
X110410Y841D01*
X110427Y877D01*
X110449Y994D01*
X110479Y1109D01*
X110483Y1170D01*
X110487Y1190D01*
X110485Y1210D01*
X110489Y1270D01*
X110489Y12700D01*
X110487Y12720D01*
X110483Y12824D01*
X110337Y14311D01*
X110327Y14354D01*
X110325Y14398D01*
X110288Y14555D01*
X109855Y15985D01*
X109837Y16025D01*
X109826Y16068D01*
X109759Y16214D01*
X109055Y17532D01*
X109030Y17568D01*
X109011Y17608D01*
X108917Y17739D01*
X107969Y18893D01*
X107937Y18924D01*
X107911Y18959D01*
X107793Y19069D01*
X106639Y20017D01*
X106601Y20041D01*
X106569Y20070D01*
X106432Y20155D01*
X105114Y20859D01*
X105073Y20875D01*
X105035Y20898D01*
X104885Y20955D01*
X103455Y21388D01*
X103411Y21396D01*
X103370Y21411D01*
X103211Y21437D01*
X101724Y21583D01*
X101680Y21582D01*
X101637Y21589D01*
X101476Y21583D01*
X99989Y21437D01*
X99946Y21427D01*
X99902Y21425D01*
X99745Y21388D01*
X98316Y20955D01*
X98275Y20937D01*
X98232Y20926D01*
X98086Y20859D01*
X96768Y20155D01*
X96765Y20153D01*
X96762Y20152D01*
X96731Y20129D01*
X96692Y20111D01*
X96561Y20017D01*
X95407Y19069D01*
X95376Y19037D01*
X95341Y19011D01*
X95231Y18893D01*
X94283Y17739D01*
X94259Y17701D01*
X94230Y17669D01*
X94145Y17532D01*
X93441Y16214D01*
X93425Y16173D01*
X93402Y16135D01*
X93345Y15985D01*
X92912Y14555D01*
X92904Y14511D01*
X92889Y14470D01*
X92863Y14311D01*
X92717Y12824D01*
X92717Y12805D01*
X92717Y12790D01*
X92713Y12774D01*
X92714Y12757D01*
X92711Y12700D01*
X92711Y1270D01*
X92726Y1152D01*
X92733Y1033D01*
X92746Y995D01*
X92751Y954D01*
X92794Y844D01*
X92831Y731D01*
X92853Y696D01*
X92868Y659D01*
X92938Y563D01*
X93001Y462D01*
X93031Y434D01*
X93054Y401D01*
X93146Y326D01*
X93233Y244D01*
X93268Y224D01*
X93299Y199D01*
X93407Y148D01*
X93511Y90D01*
X93551Y80D01*
X93587Y63D01*
X93704Y41D01*
X93819Y11D01*
X93880Y7D01*
X93900Y3D01*
X93920Y5D01*
X93980Y1D01*
X109220Y1D01*
X109338Y16D01*
G37*
G36*
X160138Y16D02*
X160138Y16D01*
X160257Y23D01*
X160295Y36D01*
X160336Y41D01*
X160446Y84D01*
X160559Y121D01*
X160594Y143D01*
X160631Y158D01*
X160727Y228D01*
X160828Y291D01*
X160856Y321D01*
X160889Y344D01*
X160965Y436D01*
X161046Y523D01*
X161066Y558D01*
X161091Y589D01*
X161142Y697D01*
X161200Y801D01*
X161210Y841D01*
X161227Y877D01*
X161249Y994D01*
X161279Y1109D01*
X161283Y1170D01*
X161287Y1190D01*
X161285Y1210D01*
X161289Y1270D01*
X161289Y12700D01*
X161287Y12720D01*
X161283Y12824D01*
X161137Y14311D01*
X161127Y14354D01*
X161125Y14398D01*
X161088Y14555D01*
X160655Y15985D01*
X160637Y16025D01*
X160626Y16068D01*
X160559Y16214D01*
X159855Y17532D01*
X159830Y17568D01*
X159811Y17608D01*
X159717Y17739D01*
X158769Y18893D01*
X158737Y18924D01*
X158711Y18959D01*
X158593Y19069D01*
X157439Y20017D01*
X157401Y20041D01*
X157369Y20070D01*
X157232Y20155D01*
X155914Y20859D01*
X155873Y20875D01*
X155835Y20898D01*
X155685Y20955D01*
X154255Y21388D01*
X154211Y21396D01*
X154170Y21411D01*
X154011Y21437D01*
X152524Y21583D01*
X152480Y21582D01*
X152437Y21589D01*
X152276Y21583D01*
X150789Y21437D01*
X150746Y21427D01*
X150702Y21425D01*
X150545Y21388D01*
X149116Y20955D01*
X149075Y20937D01*
X149032Y20926D01*
X148886Y20859D01*
X147568Y20155D01*
X147565Y20153D01*
X147562Y20152D01*
X147531Y20129D01*
X147492Y20111D01*
X147361Y20017D01*
X146207Y19069D01*
X146176Y19037D01*
X146141Y19011D01*
X146031Y18893D01*
X145083Y17739D01*
X145059Y17701D01*
X145030Y17669D01*
X144945Y17532D01*
X144241Y16214D01*
X144225Y16173D01*
X144202Y16135D01*
X144145Y15985D01*
X143712Y14555D01*
X143704Y14511D01*
X143689Y14470D01*
X143663Y14311D01*
X143517Y12824D01*
X143517Y12805D01*
X143517Y12790D01*
X143513Y12774D01*
X143514Y12757D01*
X143511Y12700D01*
X143511Y1270D01*
X143526Y1152D01*
X143533Y1033D01*
X143546Y995D01*
X143551Y954D01*
X143594Y844D01*
X143631Y731D01*
X143653Y696D01*
X143668Y659D01*
X143738Y563D01*
X143801Y462D01*
X143831Y434D01*
X143854Y401D01*
X143946Y326D01*
X144033Y244D01*
X144068Y224D01*
X144099Y199D01*
X144207Y148D01*
X144311Y90D01*
X144351Y80D01*
X144387Y63D01*
X144504Y41D01*
X144619Y11D01*
X144680Y7D01*
X144700Y3D01*
X144720Y5D01*
X144780Y1D01*
X160020Y1D01*
X160138Y16D01*
G37*
G36*
X312538Y16D02*
X312538Y16D01*
X312657Y23D01*
X312695Y36D01*
X312736Y41D01*
X312846Y84D01*
X312959Y121D01*
X312994Y143D01*
X313031Y158D01*
X313127Y228D01*
X313228Y291D01*
X313256Y321D01*
X313289Y344D01*
X313365Y436D01*
X313446Y523D01*
X313466Y558D01*
X313491Y589D01*
X313542Y697D01*
X313600Y801D01*
X313610Y841D01*
X313627Y877D01*
X313649Y994D01*
X313679Y1109D01*
X313683Y1170D01*
X313687Y1190D01*
X313685Y1210D01*
X313689Y1270D01*
X313689Y12700D01*
X313687Y12720D01*
X313683Y12824D01*
X313537Y14311D01*
X313527Y14354D01*
X313525Y14398D01*
X313488Y14555D01*
X313055Y15985D01*
X313037Y16025D01*
X313026Y16068D01*
X312959Y16214D01*
X312255Y17532D01*
X312230Y17568D01*
X312211Y17608D01*
X312117Y17739D01*
X311169Y18893D01*
X311137Y18924D01*
X311111Y18959D01*
X310993Y19069D01*
X309839Y20017D01*
X309801Y20041D01*
X309769Y20070D01*
X309632Y20155D01*
X308314Y20859D01*
X308273Y20875D01*
X308235Y20898D01*
X308085Y20955D01*
X306655Y21388D01*
X306611Y21396D01*
X306570Y21411D01*
X306411Y21437D01*
X304924Y21583D01*
X304880Y21582D01*
X304837Y21589D01*
X304676Y21583D01*
X303189Y21437D01*
X303146Y21427D01*
X303102Y21425D01*
X302945Y21388D01*
X301516Y20955D01*
X301475Y20937D01*
X301432Y20926D01*
X301286Y20859D01*
X299968Y20155D01*
X299965Y20153D01*
X299962Y20152D01*
X299931Y20129D01*
X299892Y20111D01*
X299761Y20017D01*
X298607Y19069D01*
X298576Y19037D01*
X298541Y19011D01*
X298431Y18893D01*
X297483Y17739D01*
X297459Y17701D01*
X297430Y17669D01*
X297345Y17532D01*
X296641Y16214D01*
X296625Y16173D01*
X296602Y16135D01*
X296545Y15985D01*
X296112Y14555D01*
X296104Y14511D01*
X296089Y14470D01*
X296063Y14311D01*
X295917Y12824D01*
X295917Y12805D01*
X295917Y12790D01*
X295913Y12774D01*
X295914Y12757D01*
X295911Y12700D01*
X295911Y1270D01*
X295926Y1152D01*
X295933Y1033D01*
X295946Y995D01*
X295951Y954D01*
X295994Y844D01*
X296031Y731D01*
X296053Y696D01*
X296068Y659D01*
X296138Y563D01*
X296201Y462D01*
X296231Y434D01*
X296254Y401D01*
X296346Y326D01*
X296433Y244D01*
X296468Y224D01*
X296499Y199D01*
X296607Y148D01*
X296711Y90D01*
X296751Y80D01*
X296787Y63D01*
X296904Y41D01*
X297019Y11D01*
X297080Y7D01*
X297100Y3D01*
X297120Y5D01*
X297180Y1D01*
X312420Y1D01*
X312538Y16D01*
G37*
G36*
X185538Y16D02*
X185538Y16D01*
X185657Y23D01*
X185695Y36D01*
X185736Y41D01*
X185846Y84D01*
X185959Y121D01*
X185994Y143D01*
X186031Y158D01*
X186127Y228D01*
X186228Y291D01*
X186256Y321D01*
X186289Y344D01*
X186365Y436D01*
X186446Y523D01*
X186466Y558D01*
X186491Y589D01*
X186542Y697D01*
X186600Y801D01*
X186610Y841D01*
X186627Y877D01*
X186649Y994D01*
X186679Y1109D01*
X186683Y1170D01*
X186687Y1190D01*
X186685Y1210D01*
X186689Y1270D01*
X186689Y12700D01*
X186687Y12720D01*
X186683Y12824D01*
X186537Y14311D01*
X186527Y14354D01*
X186525Y14398D01*
X186488Y14555D01*
X186055Y15985D01*
X186037Y16025D01*
X186026Y16068D01*
X185959Y16214D01*
X185255Y17532D01*
X185230Y17568D01*
X185211Y17608D01*
X185117Y17739D01*
X184169Y18893D01*
X184137Y18924D01*
X184111Y18959D01*
X183993Y19069D01*
X182839Y20017D01*
X182801Y20041D01*
X182769Y20070D01*
X182632Y20155D01*
X181314Y20859D01*
X181273Y20875D01*
X181235Y20898D01*
X181085Y20955D01*
X179655Y21388D01*
X179611Y21396D01*
X179570Y21411D01*
X179411Y21437D01*
X177924Y21583D01*
X177880Y21582D01*
X177837Y21589D01*
X177676Y21583D01*
X176189Y21437D01*
X176146Y21427D01*
X176102Y21425D01*
X175945Y21388D01*
X174516Y20955D01*
X174475Y20937D01*
X174432Y20926D01*
X174286Y20859D01*
X172968Y20155D01*
X172965Y20153D01*
X172962Y20152D01*
X172931Y20129D01*
X172892Y20111D01*
X172761Y20017D01*
X171607Y19069D01*
X171576Y19037D01*
X171541Y19011D01*
X171431Y18893D01*
X170483Y17739D01*
X170459Y17701D01*
X170430Y17669D01*
X170345Y17532D01*
X169641Y16214D01*
X169625Y16173D01*
X169602Y16135D01*
X169545Y15985D01*
X169112Y14555D01*
X169104Y14511D01*
X169089Y14470D01*
X169063Y14311D01*
X168917Y12824D01*
X168917Y12805D01*
X168917Y12790D01*
X168913Y12774D01*
X168914Y12757D01*
X168911Y12700D01*
X168911Y1270D01*
X168926Y1152D01*
X168933Y1033D01*
X168946Y995D01*
X168951Y954D01*
X168994Y844D01*
X169031Y731D01*
X169053Y696D01*
X169068Y659D01*
X169138Y563D01*
X169201Y462D01*
X169231Y434D01*
X169254Y401D01*
X169346Y326D01*
X169433Y244D01*
X169468Y224D01*
X169499Y199D01*
X169607Y148D01*
X169711Y90D01*
X169751Y80D01*
X169787Y63D01*
X169904Y41D01*
X170019Y11D01*
X170080Y7D01*
X170100Y3D01*
X170120Y5D01*
X170180Y1D01*
X185420Y1D01*
X185538Y16D01*
G37*
G36*
X210938Y16D02*
X210938Y16D01*
X211057Y23D01*
X211095Y36D01*
X211136Y41D01*
X211246Y84D01*
X211359Y121D01*
X211394Y143D01*
X211431Y158D01*
X211527Y228D01*
X211628Y291D01*
X211656Y321D01*
X211689Y344D01*
X211765Y436D01*
X211846Y523D01*
X211866Y558D01*
X211891Y589D01*
X211942Y697D01*
X212000Y801D01*
X212010Y841D01*
X212027Y877D01*
X212049Y994D01*
X212079Y1109D01*
X212083Y1170D01*
X212087Y1190D01*
X212085Y1210D01*
X212089Y1270D01*
X212089Y12700D01*
X212087Y12720D01*
X212083Y12824D01*
X211937Y14311D01*
X211927Y14354D01*
X211925Y14398D01*
X211888Y14555D01*
X211455Y15985D01*
X211437Y16025D01*
X211426Y16068D01*
X211359Y16214D01*
X210655Y17532D01*
X210630Y17568D01*
X210611Y17608D01*
X210517Y17739D01*
X209569Y18893D01*
X209537Y18924D01*
X209511Y18959D01*
X209393Y19069D01*
X208239Y20017D01*
X208201Y20041D01*
X208169Y20070D01*
X208032Y20155D01*
X206714Y20859D01*
X206673Y20875D01*
X206635Y20898D01*
X206485Y20955D01*
X205055Y21388D01*
X205011Y21396D01*
X204970Y21411D01*
X204811Y21437D01*
X203324Y21583D01*
X203280Y21582D01*
X203237Y21589D01*
X203076Y21583D01*
X201589Y21437D01*
X201546Y21427D01*
X201502Y21425D01*
X201345Y21388D01*
X199916Y20955D01*
X199875Y20937D01*
X199832Y20926D01*
X199686Y20859D01*
X198368Y20155D01*
X198365Y20153D01*
X198362Y20152D01*
X198331Y20129D01*
X198292Y20111D01*
X198161Y20017D01*
X197007Y19069D01*
X196976Y19037D01*
X196941Y19011D01*
X196831Y18893D01*
X195883Y17739D01*
X195859Y17701D01*
X195830Y17669D01*
X195745Y17532D01*
X195041Y16214D01*
X195025Y16173D01*
X195002Y16135D01*
X194945Y15985D01*
X194512Y14555D01*
X194504Y14511D01*
X194489Y14470D01*
X194463Y14311D01*
X194317Y12824D01*
X194317Y12805D01*
X194317Y12790D01*
X194313Y12774D01*
X194314Y12757D01*
X194311Y12700D01*
X194311Y1270D01*
X194326Y1152D01*
X194333Y1033D01*
X194346Y995D01*
X194351Y954D01*
X194394Y844D01*
X194431Y731D01*
X194453Y696D01*
X194468Y659D01*
X194538Y563D01*
X194601Y462D01*
X194631Y434D01*
X194654Y401D01*
X194746Y326D01*
X194833Y244D01*
X194868Y224D01*
X194899Y199D01*
X195007Y148D01*
X195111Y90D01*
X195151Y80D01*
X195187Y63D01*
X195304Y41D01*
X195419Y11D01*
X195480Y7D01*
X195500Y3D01*
X195520Y5D01*
X195580Y1D01*
X210820Y1D01*
X210938Y16D01*
G37*
G36*
X134738Y16D02*
X134738Y16D01*
X134857Y23D01*
X134895Y36D01*
X134936Y41D01*
X135046Y84D01*
X135159Y121D01*
X135194Y143D01*
X135231Y158D01*
X135327Y228D01*
X135428Y291D01*
X135456Y321D01*
X135489Y344D01*
X135565Y436D01*
X135646Y523D01*
X135666Y558D01*
X135691Y589D01*
X135742Y697D01*
X135800Y801D01*
X135810Y841D01*
X135827Y877D01*
X135849Y994D01*
X135879Y1109D01*
X135883Y1170D01*
X135887Y1190D01*
X135885Y1210D01*
X135889Y1270D01*
X135889Y12700D01*
X135887Y12720D01*
X135883Y12824D01*
X135737Y14311D01*
X135727Y14354D01*
X135725Y14398D01*
X135688Y14555D01*
X135255Y15985D01*
X135237Y16025D01*
X135226Y16068D01*
X135159Y16214D01*
X134455Y17532D01*
X134430Y17568D01*
X134411Y17608D01*
X134317Y17739D01*
X133369Y18893D01*
X133337Y18924D01*
X133311Y18959D01*
X133193Y19069D01*
X132039Y20017D01*
X132001Y20041D01*
X131969Y20070D01*
X131832Y20155D01*
X130514Y20859D01*
X130473Y20875D01*
X130435Y20898D01*
X130285Y20955D01*
X128855Y21388D01*
X128811Y21396D01*
X128770Y21411D01*
X128611Y21437D01*
X127124Y21583D01*
X127080Y21582D01*
X127037Y21589D01*
X126876Y21583D01*
X125389Y21437D01*
X125346Y21427D01*
X125302Y21425D01*
X125145Y21388D01*
X123716Y20955D01*
X123675Y20937D01*
X123632Y20926D01*
X123486Y20859D01*
X122168Y20155D01*
X122165Y20153D01*
X122162Y20152D01*
X122131Y20129D01*
X122092Y20111D01*
X121961Y20017D01*
X120807Y19069D01*
X120776Y19037D01*
X120741Y19011D01*
X120631Y18893D01*
X119683Y17739D01*
X119659Y17701D01*
X119630Y17669D01*
X119545Y17532D01*
X118841Y16214D01*
X118825Y16173D01*
X118802Y16135D01*
X118745Y15985D01*
X118312Y14555D01*
X118304Y14511D01*
X118289Y14470D01*
X118263Y14311D01*
X118117Y12824D01*
X118117Y12805D01*
X118117Y12790D01*
X118113Y12774D01*
X118114Y12757D01*
X118111Y12700D01*
X118111Y1270D01*
X118126Y1152D01*
X118133Y1033D01*
X118146Y995D01*
X118151Y954D01*
X118194Y844D01*
X118231Y731D01*
X118253Y696D01*
X118268Y659D01*
X118338Y563D01*
X118401Y462D01*
X118431Y434D01*
X118454Y401D01*
X118546Y326D01*
X118633Y244D01*
X118668Y224D01*
X118699Y199D01*
X118807Y148D01*
X118911Y90D01*
X118951Y80D01*
X118987Y63D01*
X119104Y41D01*
X119219Y11D01*
X119280Y7D01*
X119300Y3D01*
X119320Y5D01*
X119380Y1D01*
X134620Y1D01*
X134738Y16D01*
G37*
G36*
X261738Y16D02*
X261738Y16D01*
X261857Y23D01*
X261895Y36D01*
X261936Y41D01*
X262046Y84D01*
X262159Y121D01*
X262194Y143D01*
X262231Y158D01*
X262327Y228D01*
X262428Y291D01*
X262456Y321D01*
X262489Y344D01*
X262565Y436D01*
X262646Y523D01*
X262666Y558D01*
X262691Y589D01*
X262742Y697D01*
X262800Y801D01*
X262810Y841D01*
X262827Y877D01*
X262849Y994D01*
X262879Y1109D01*
X262883Y1170D01*
X262887Y1190D01*
X262885Y1210D01*
X262889Y1270D01*
X262889Y12700D01*
X262887Y12720D01*
X262883Y12824D01*
X262737Y14311D01*
X262727Y14354D01*
X262725Y14398D01*
X262688Y14555D01*
X262255Y15985D01*
X262237Y16025D01*
X262226Y16068D01*
X262159Y16214D01*
X261455Y17532D01*
X261430Y17568D01*
X261411Y17608D01*
X261317Y17739D01*
X260369Y18893D01*
X260337Y18924D01*
X260311Y18959D01*
X260193Y19069D01*
X259039Y20017D01*
X259001Y20041D01*
X258969Y20070D01*
X258832Y20155D01*
X257514Y20859D01*
X257473Y20875D01*
X257435Y20898D01*
X257285Y20955D01*
X255855Y21388D01*
X255811Y21396D01*
X255770Y21411D01*
X255611Y21437D01*
X254124Y21583D01*
X254080Y21582D01*
X254037Y21589D01*
X253876Y21583D01*
X252389Y21437D01*
X252346Y21427D01*
X252302Y21425D01*
X252145Y21388D01*
X250716Y20955D01*
X250675Y20937D01*
X250632Y20926D01*
X250486Y20859D01*
X249168Y20155D01*
X249165Y20153D01*
X249162Y20152D01*
X249131Y20129D01*
X249092Y20111D01*
X248961Y20017D01*
X247807Y19069D01*
X247776Y19037D01*
X247741Y19011D01*
X247631Y18893D01*
X246683Y17739D01*
X246659Y17701D01*
X246630Y17669D01*
X246545Y17532D01*
X245841Y16214D01*
X245825Y16173D01*
X245802Y16135D01*
X245745Y15985D01*
X245312Y14555D01*
X245304Y14511D01*
X245289Y14470D01*
X245263Y14311D01*
X245117Y12824D01*
X245117Y12805D01*
X245117Y12790D01*
X245113Y12774D01*
X245114Y12757D01*
X245111Y12700D01*
X245111Y1270D01*
X245126Y1152D01*
X245133Y1033D01*
X245146Y995D01*
X245151Y954D01*
X245194Y844D01*
X245231Y731D01*
X245253Y696D01*
X245268Y659D01*
X245338Y563D01*
X245401Y462D01*
X245431Y434D01*
X245454Y401D01*
X245546Y326D01*
X245633Y244D01*
X245668Y224D01*
X245699Y199D01*
X245807Y148D01*
X245911Y90D01*
X245951Y80D01*
X245987Y63D01*
X246104Y41D01*
X246219Y11D01*
X246280Y7D01*
X246300Y3D01*
X246320Y5D01*
X246380Y1D01*
X261620Y1D01*
X261738Y16D01*
G37*
G36*
X101724Y207017D02*
X101724Y207017D01*
X103211Y207163D01*
X103254Y207173D01*
X103298Y207175D01*
X103455Y207212D01*
X104885Y207645D01*
X104925Y207663D01*
X104968Y207674D01*
X105114Y207741D01*
X106432Y208445D01*
X106468Y208470D01*
X106508Y208489D01*
X106639Y208583D01*
X107793Y209531D01*
X107824Y209563D01*
X107859Y209589D01*
X107969Y209707D01*
X108917Y210861D01*
X108941Y210899D01*
X108970Y210931D01*
X109055Y211068D01*
X109759Y212386D01*
X109775Y212427D01*
X109798Y212465D01*
X109855Y212616D01*
X110288Y214045D01*
X110296Y214089D01*
X110311Y214130D01*
X110337Y214289D01*
X110483Y215776D01*
X110483Y215795D01*
X110483Y215796D01*
X110486Y215815D01*
X110485Y215834D01*
X110489Y215900D01*
X110489Y227330D01*
X110474Y227448D01*
X110467Y227567D01*
X110454Y227605D01*
X110449Y227646D01*
X110406Y227756D01*
X110369Y227869D01*
X110347Y227904D01*
X110332Y227941D01*
X110263Y228037D01*
X110199Y228138D01*
X110169Y228166D01*
X110146Y228199D01*
X110054Y228275D01*
X109967Y228356D01*
X109932Y228376D01*
X109901Y228401D01*
X109793Y228452D01*
X109689Y228510D01*
X109649Y228520D01*
X109613Y228537D01*
X109496Y228559D01*
X109381Y228589D01*
X109321Y228593D01*
X109301Y228597D01*
X109280Y228595D01*
X109220Y228599D01*
X93980Y228599D01*
X93862Y228584D01*
X93743Y228577D01*
X93705Y228564D01*
X93664Y228559D01*
X93554Y228516D01*
X93441Y228479D01*
X93406Y228457D01*
X93369Y228442D01*
X93273Y228373D01*
X93172Y228309D01*
X93144Y228279D01*
X93111Y228256D01*
X93036Y228164D01*
X92954Y228077D01*
X92934Y228042D01*
X92909Y228011D01*
X92858Y227903D01*
X92800Y227799D01*
X92790Y227759D01*
X92773Y227723D01*
X92751Y227606D01*
X92721Y227491D01*
X92717Y227431D01*
X92713Y227411D01*
X92714Y227402D01*
X92713Y227399D01*
X92714Y227385D01*
X92711Y227330D01*
X92711Y215900D01*
X92713Y215880D01*
X92717Y215776D01*
X92863Y214289D01*
X92873Y214246D01*
X92875Y214202D01*
X92912Y214045D01*
X93345Y212616D01*
X93363Y212575D01*
X93374Y212532D01*
X93441Y212386D01*
X94145Y211068D01*
X94170Y211032D01*
X94189Y210992D01*
X94283Y210861D01*
X95231Y209707D01*
X95263Y209676D01*
X95289Y209641D01*
X95407Y209531D01*
X96561Y208583D01*
X96599Y208559D01*
X96631Y208530D01*
X96768Y208445D01*
X98086Y207741D01*
X98127Y207725D01*
X98165Y207702D01*
X98316Y207645D01*
X99745Y207212D01*
X99789Y207204D01*
X99830Y207189D01*
X99989Y207163D01*
X101476Y207017D01*
X101520Y207018D01*
X101564Y207011D01*
X101724Y207017D01*
G37*
G36*
X177924Y207017D02*
X177924Y207017D01*
X179411Y207163D01*
X179454Y207173D01*
X179498Y207175D01*
X179655Y207212D01*
X181085Y207645D01*
X181125Y207663D01*
X181168Y207674D01*
X181314Y207741D01*
X182632Y208445D01*
X182668Y208470D01*
X182708Y208489D01*
X182839Y208583D01*
X183993Y209531D01*
X184024Y209563D01*
X184059Y209589D01*
X184169Y209707D01*
X185117Y210861D01*
X185141Y210899D01*
X185170Y210931D01*
X185255Y211068D01*
X185959Y212386D01*
X185975Y212427D01*
X185998Y212465D01*
X186055Y212616D01*
X186488Y214045D01*
X186496Y214089D01*
X186511Y214130D01*
X186537Y214289D01*
X186683Y215776D01*
X186683Y215795D01*
X186683Y215796D01*
X186686Y215815D01*
X186685Y215834D01*
X186689Y215900D01*
X186689Y227330D01*
X186674Y227448D01*
X186667Y227567D01*
X186654Y227605D01*
X186649Y227646D01*
X186606Y227756D01*
X186569Y227869D01*
X186547Y227904D01*
X186532Y227941D01*
X186463Y228037D01*
X186399Y228138D01*
X186369Y228166D01*
X186346Y228199D01*
X186254Y228275D01*
X186167Y228356D01*
X186132Y228376D01*
X186101Y228401D01*
X185993Y228452D01*
X185889Y228510D01*
X185849Y228520D01*
X185813Y228537D01*
X185696Y228559D01*
X185581Y228589D01*
X185521Y228593D01*
X185501Y228597D01*
X185480Y228595D01*
X185420Y228599D01*
X170180Y228599D01*
X170062Y228584D01*
X169943Y228577D01*
X169905Y228564D01*
X169864Y228559D01*
X169754Y228516D01*
X169641Y228479D01*
X169606Y228457D01*
X169569Y228442D01*
X169473Y228373D01*
X169372Y228309D01*
X169344Y228279D01*
X169311Y228256D01*
X169236Y228164D01*
X169154Y228077D01*
X169134Y228042D01*
X169109Y228011D01*
X169058Y227903D01*
X169000Y227799D01*
X168990Y227759D01*
X168973Y227723D01*
X168951Y227606D01*
X168921Y227491D01*
X168917Y227431D01*
X168913Y227411D01*
X168914Y227402D01*
X168913Y227399D01*
X168914Y227385D01*
X168911Y227330D01*
X168911Y215900D01*
X168913Y215880D01*
X168917Y215776D01*
X169063Y214289D01*
X169073Y214246D01*
X169075Y214202D01*
X169112Y214045D01*
X169545Y212616D01*
X169563Y212575D01*
X169574Y212532D01*
X169641Y212386D01*
X170345Y211068D01*
X170370Y211032D01*
X170389Y210992D01*
X170483Y210861D01*
X171431Y209707D01*
X171463Y209676D01*
X171489Y209641D01*
X171607Y209531D01*
X172761Y208583D01*
X172799Y208559D01*
X172831Y208530D01*
X172968Y208445D01*
X174286Y207741D01*
X174327Y207725D01*
X174365Y207702D01*
X174516Y207645D01*
X175945Y207212D01*
X175989Y207204D01*
X176030Y207189D01*
X176189Y207163D01*
X177676Y207017D01*
X177720Y207018D01*
X177764Y207011D01*
X177924Y207017D01*
G37*
G36*
X25524Y207017D02*
X25524Y207017D01*
X27011Y207163D01*
X27054Y207173D01*
X27098Y207175D01*
X27255Y207212D01*
X28685Y207645D01*
X28725Y207663D01*
X28768Y207674D01*
X28914Y207741D01*
X30232Y208445D01*
X30268Y208470D01*
X30308Y208489D01*
X30439Y208583D01*
X31593Y209531D01*
X31624Y209563D01*
X31659Y209589D01*
X31769Y209707D01*
X32717Y210861D01*
X32741Y210899D01*
X32770Y210931D01*
X32855Y211068D01*
X33559Y212386D01*
X33575Y212427D01*
X33598Y212465D01*
X33655Y212616D01*
X34088Y214045D01*
X34096Y214089D01*
X34111Y214130D01*
X34137Y214289D01*
X34283Y215776D01*
X34283Y215795D01*
X34283Y215796D01*
X34286Y215815D01*
X34285Y215834D01*
X34289Y215900D01*
X34289Y227330D01*
X34274Y227448D01*
X34267Y227567D01*
X34254Y227605D01*
X34249Y227646D01*
X34206Y227756D01*
X34169Y227869D01*
X34147Y227904D01*
X34132Y227941D01*
X34063Y228037D01*
X33999Y228138D01*
X33969Y228166D01*
X33946Y228199D01*
X33854Y228275D01*
X33767Y228356D01*
X33732Y228376D01*
X33701Y228401D01*
X33593Y228452D01*
X33489Y228510D01*
X33449Y228520D01*
X33413Y228537D01*
X33296Y228559D01*
X33181Y228589D01*
X33121Y228593D01*
X33101Y228597D01*
X33080Y228595D01*
X33020Y228599D01*
X17780Y228599D01*
X17662Y228584D01*
X17543Y228577D01*
X17505Y228564D01*
X17464Y228559D01*
X17354Y228516D01*
X17241Y228479D01*
X17206Y228457D01*
X17169Y228442D01*
X17073Y228373D01*
X16972Y228309D01*
X16944Y228279D01*
X16911Y228256D01*
X16836Y228164D01*
X16754Y228077D01*
X16734Y228042D01*
X16709Y228011D01*
X16658Y227903D01*
X16600Y227799D01*
X16590Y227759D01*
X16573Y227723D01*
X16551Y227606D01*
X16521Y227491D01*
X16517Y227431D01*
X16513Y227411D01*
X16514Y227402D01*
X16513Y227399D01*
X16514Y227385D01*
X16511Y227330D01*
X16511Y215900D01*
X16513Y215880D01*
X16517Y215776D01*
X16663Y214289D01*
X16673Y214246D01*
X16675Y214202D01*
X16712Y214045D01*
X17145Y212616D01*
X17163Y212575D01*
X17174Y212532D01*
X17241Y212386D01*
X17945Y211068D01*
X17970Y211032D01*
X17989Y210992D01*
X18083Y210861D01*
X19031Y209707D01*
X19063Y209676D01*
X19089Y209641D01*
X19207Y209531D01*
X20361Y208583D01*
X20399Y208559D01*
X20431Y208530D01*
X20568Y208445D01*
X21886Y207741D01*
X21927Y207725D01*
X21965Y207702D01*
X22116Y207645D01*
X23545Y207212D01*
X23589Y207204D01*
X23630Y207189D01*
X23789Y207163D01*
X25276Y207017D01*
X25320Y207018D01*
X25364Y207011D01*
X25524Y207017D01*
G37*
G36*
X304924Y207017D02*
X304924Y207017D01*
X306411Y207163D01*
X306454Y207173D01*
X306498Y207175D01*
X306655Y207212D01*
X308085Y207645D01*
X308125Y207663D01*
X308168Y207674D01*
X308314Y207741D01*
X309632Y208445D01*
X309668Y208470D01*
X309708Y208489D01*
X309839Y208583D01*
X310993Y209531D01*
X311024Y209563D01*
X311059Y209589D01*
X311169Y209707D01*
X312117Y210861D01*
X312141Y210899D01*
X312170Y210931D01*
X312255Y211068D01*
X312959Y212386D01*
X312975Y212427D01*
X312998Y212465D01*
X313055Y212616D01*
X313488Y214045D01*
X313496Y214089D01*
X313511Y214130D01*
X313537Y214289D01*
X313683Y215776D01*
X313683Y215795D01*
X313683Y215796D01*
X313686Y215815D01*
X313685Y215834D01*
X313689Y215900D01*
X313689Y227330D01*
X313674Y227448D01*
X313667Y227567D01*
X313654Y227605D01*
X313649Y227646D01*
X313606Y227756D01*
X313569Y227869D01*
X313547Y227904D01*
X313532Y227941D01*
X313463Y228037D01*
X313399Y228138D01*
X313369Y228166D01*
X313346Y228199D01*
X313254Y228275D01*
X313167Y228356D01*
X313132Y228376D01*
X313101Y228401D01*
X312993Y228452D01*
X312889Y228510D01*
X312849Y228520D01*
X312813Y228537D01*
X312696Y228559D01*
X312581Y228589D01*
X312521Y228593D01*
X312501Y228597D01*
X312480Y228595D01*
X312420Y228599D01*
X297180Y228599D01*
X297062Y228584D01*
X296943Y228577D01*
X296905Y228564D01*
X296864Y228559D01*
X296754Y228516D01*
X296641Y228479D01*
X296606Y228457D01*
X296569Y228442D01*
X296473Y228373D01*
X296372Y228309D01*
X296344Y228279D01*
X296311Y228256D01*
X296236Y228164D01*
X296154Y228077D01*
X296134Y228042D01*
X296109Y228011D01*
X296058Y227903D01*
X296000Y227799D01*
X295990Y227759D01*
X295973Y227723D01*
X295951Y227606D01*
X295921Y227491D01*
X295917Y227431D01*
X295913Y227411D01*
X295914Y227402D01*
X295913Y227399D01*
X295914Y227385D01*
X295911Y227330D01*
X295911Y215900D01*
X295913Y215880D01*
X295917Y215776D01*
X296063Y214289D01*
X296073Y214246D01*
X296075Y214202D01*
X296112Y214045D01*
X296545Y212616D01*
X296563Y212575D01*
X296574Y212532D01*
X296641Y212386D01*
X297345Y211068D01*
X297370Y211032D01*
X297389Y210992D01*
X297483Y210861D01*
X298431Y209707D01*
X298463Y209676D01*
X298489Y209641D01*
X298607Y209531D01*
X299761Y208583D01*
X299799Y208559D01*
X299831Y208530D01*
X299968Y208445D01*
X301286Y207741D01*
X301327Y207725D01*
X301365Y207702D01*
X301516Y207645D01*
X302945Y207212D01*
X302989Y207204D01*
X303030Y207189D01*
X303189Y207163D01*
X304676Y207017D01*
X304720Y207018D01*
X304764Y207011D01*
X304924Y207017D01*
G37*
G36*
X279524Y207017D02*
X279524Y207017D01*
X281011Y207163D01*
X281054Y207173D01*
X281098Y207175D01*
X281255Y207212D01*
X282685Y207645D01*
X282725Y207663D01*
X282768Y207674D01*
X282914Y207741D01*
X284232Y208445D01*
X284268Y208470D01*
X284308Y208489D01*
X284439Y208583D01*
X285593Y209531D01*
X285624Y209563D01*
X285659Y209589D01*
X285769Y209707D01*
X286717Y210861D01*
X286741Y210899D01*
X286770Y210931D01*
X286855Y211068D01*
X287559Y212386D01*
X287575Y212427D01*
X287598Y212465D01*
X287655Y212616D01*
X288088Y214045D01*
X288096Y214089D01*
X288111Y214130D01*
X288137Y214289D01*
X288283Y215776D01*
X288283Y215795D01*
X288283Y215796D01*
X288286Y215815D01*
X288285Y215834D01*
X288289Y215900D01*
X288289Y227330D01*
X288274Y227448D01*
X288267Y227567D01*
X288254Y227605D01*
X288249Y227646D01*
X288206Y227756D01*
X288169Y227869D01*
X288147Y227904D01*
X288132Y227941D01*
X288063Y228037D01*
X287999Y228138D01*
X287969Y228166D01*
X287946Y228199D01*
X287854Y228275D01*
X287767Y228356D01*
X287732Y228376D01*
X287701Y228401D01*
X287593Y228452D01*
X287489Y228510D01*
X287449Y228520D01*
X287413Y228537D01*
X287296Y228559D01*
X287181Y228589D01*
X287121Y228593D01*
X287101Y228597D01*
X287080Y228595D01*
X287020Y228599D01*
X271780Y228599D01*
X271662Y228584D01*
X271543Y228577D01*
X271505Y228564D01*
X271464Y228559D01*
X271354Y228516D01*
X271241Y228479D01*
X271206Y228457D01*
X271169Y228442D01*
X271073Y228373D01*
X270972Y228309D01*
X270944Y228279D01*
X270911Y228256D01*
X270836Y228164D01*
X270754Y228077D01*
X270734Y228042D01*
X270709Y228011D01*
X270658Y227903D01*
X270600Y227799D01*
X270590Y227759D01*
X270573Y227723D01*
X270551Y227606D01*
X270521Y227491D01*
X270517Y227431D01*
X270513Y227411D01*
X270514Y227402D01*
X270513Y227399D01*
X270514Y227385D01*
X270511Y227330D01*
X270511Y215900D01*
X270513Y215880D01*
X270517Y215776D01*
X270663Y214289D01*
X270673Y214246D01*
X270675Y214202D01*
X270712Y214045D01*
X271145Y212616D01*
X271163Y212575D01*
X271174Y212532D01*
X271241Y212386D01*
X271945Y211068D01*
X271970Y211032D01*
X271989Y210992D01*
X272083Y210861D01*
X273031Y209707D01*
X273063Y209676D01*
X273089Y209641D01*
X273207Y209531D01*
X274361Y208583D01*
X274399Y208559D01*
X274431Y208530D01*
X274568Y208445D01*
X275886Y207741D01*
X275927Y207725D01*
X275965Y207702D01*
X276116Y207645D01*
X277545Y207212D01*
X277589Y207204D01*
X277630Y207189D01*
X277789Y207163D01*
X279276Y207017D01*
X279320Y207018D01*
X279364Y207011D01*
X279524Y207017D01*
G37*
G36*
X152524Y207017D02*
X152524Y207017D01*
X154011Y207163D01*
X154054Y207173D01*
X154098Y207175D01*
X154255Y207212D01*
X155685Y207645D01*
X155725Y207663D01*
X155768Y207674D01*
X155914Y207741D01*
X157232Y208445D01*
X157268Y208470D01*
X157308Y208489D01*
X157439Y208583D01*
X158593Y209531D01*
X158624Y209563D01*
X158659Y209589D01*
X158769Y209707D01*
X159717Y210861D01*
X159741Y210899D01*
X159770Y210931D01*
X159855Y211068D01*
X160559Y212386D01*
X160575Y212427D01*
X160598Y212465D01*
X160655Y212616D01*
X161088Y214045D01*
X161096Y214089D01*
X161111Y214130D01*
X161137Y214289D01*
X161283Y215776D01*
X161283Y215795D01*
X161283Y215796D01*
X161286Y215815D01*
X161285Y215834D01*
X161289Y215900D01*
X161289Y227330D01*
X161274Y227448D01*
X161267Y227567D01*
X161254Y227605D01*
X161249Y227646D01*
X161206Y227756D01*
X161169Y227869D01*
X161147Y227904D01*
X161132Y227941D01*
X161063Y228037D01*
X160999Y228138D01*
X160969Y228166D01*
X160946Y228199D01*
X160854Y228275D01*
X160767Y228356D01*
X160732Y228376D01*
X160701Y228401D01*
X160593Y228452D01*
X160489Y228510D01*
X160449Y228520D01*
X160413Y228537D01*
X160296Y228559D01*
X160181Y228589D01*
X160121Y228593D01*
X160101Y228597D01*
X160080Y228595D01*
X160020Y228599D01*
X144780Y228599D01*
X144662Y228584D01*
X144543Y228577D01*
X144505Y228564D01*
X144464Y228559D01*
X144354Y228516D01*
X144241Y228479D01*
X144206Y228457D01*
X144169Y228442D01*
X144073Y228373D01*
X143972Y228309D01*
X143944Y228279D01*
X143911Y228256D01*
X143836Y228164D01*
X143754Y228077D01*
X143734Y228042D01*
X143709Y228011D01*
X143658Y227903D01*
X143600Y227799D01*
X143590Y227759D01*
X143573Y227723D01*
X143551Y227606D01*
X143521Y227491D01*
X143517Y227431D01*
X143513Y227411D01*
X143514Y227402D01*
X143513Y227399D01*
X143514Y227385D01*
X143511Y227330D01*
X143511Y215900D01*
X143513Y215880D01*
X143517Y215776D01*
X143663Y214289D01*
X143673Y214246D01*
X143675Y214202D01*
X143712Y214045D01*
X144145Y212616D01*
X144163Y212575D01*
X144174Y212532D01*
X144241Y212386D01*
X144945Y211068D01*
X144970Y211032D01*
X144989Y210992D01*
X145083Y210861D01*
X146031Y209707D01*
X146063Y209676D01*
X146089Y209641D01*
X146207Y209531D01*
X147361Y208583D01*
X147399Y208559D01*
X147431Y208530D01*
X147568Y208445D01*
X148886Y207741D01*
X148927Y207725D01*
X148965Y207702D01*
X149116Y207645D01*
X150545Y207212D01*
X150589Y207204D01*
X150630Y207189D01*
X150789Y207163D01*
X152276Y207017D01*
X152320Y207018D01*
X152364Y207011D01*
X152524Y207017D01*
G37*
G36*
X203324Y207017D02*
X203324Y207017D01*
X204811Y207163D01*
X204854Y207173D01*
X204898Y207175D01*
X205055Y207212D01*
X206485Y207645D01*
X206525Y207663D01*
X206568Y207674D01*
X206714Y207741D01*
X208032Y208445D01*
X208068Y208470D01*
X208108Y208489D01*
X208239Y208583D01*
X209393Y209531D01*
X209424Y209563D01*
X209459Y209589D01*
X209569Y209707D01*
X210517Y210861D01*
X210541Y210899D01*
X210570Y210931D01*
X210655Y211068D01*
X211359Y212386D01*
X211375Y212427D01*
X211398Y212465D01*
X211455Y212616D01*
X211888Y214045D01*
X211896Y214089D01*
X211911Y214130D01*
X211937Y214289D01*
X212083Y215776D01*
X212083Y215795D01*
X212083Y215796D01*
X212086Y215815D01*
X212085Y215834D01*
X212089Y215900D01*
X212089Y227330D01*
X212074Y227448D01*
X212067Y227567D01*
X212054Y227605D01*
X212049Y227646D01*
X212006Y227756D01*
X211969Y227869D01*
X211947Y227904D01*
X211932Y227941D01*
X211863Y228037D01*
X211799Y228138D01*
X211769Y228166D01*
X211746Y228199D01*
X211654Y228275D01*
X211567Y228356D01*
X211532Y228376D01*
X211501Y228401D01*
X211393Y228452D01*
X211289Y228510D01*
X211249Y228520D01*
X211213Y228537D01*
X211096Y228559D01*
X210981Y228589D01*
X210921Y228593D01*
X210901Y228597D01*
X210880Y228595D01*
X210820Y228599D01*
X195580Y228599D01*
X195462Y228584D01*
X195343Y228577D01*
X195305Y228564D01*
X195264Y228559D01*
X195154Y228516D01*
X195041Y228479D01*
X195006Y228457D01*
X194969Y228442D01*
X194873Y228373D01*
X194772Y228309D01*
X194744Y228279D01*
X194711Y228256D01*
X194636Y228164D01*
X194554Y228077D01*
X194534Y228042D01*
X194509Y228011D01*
X194458Y227903D01*
X194400Y227799D01*
X194390Y227759D01*
X194373Y227723D01*
X194351Y227606D01*
X194321Y227491D01*
X194317Y227431D01*
X194313Y227411D01*
X194314Y227402D01*
X194313Y227399D01*
X194314Y227385D01*
X194311Y227330D01*
X194311Y215900D01*
X194313Y215880D01*
X194317Y215776D01*
X194463Y214289D01*
X194473Y214246D01*
X194475Y214202D01*
X194512Y214045D01*
X194945Y212616D01*
X194963Y212575D01*
X194974Y212532D01*
X195041Y212386D01*
X195745Y211068D01*
X195770Y211032D01*
X195789Y210992D01*
X195883Y210861D01*
X196831Y209707D01*
X196863Y209676D01*
X196889Y209641D01*
X197007Y209531D01*
X198161Y208583D01*
X198199Y208559D01*
X198231Y208530D01*
X198368Y208445D01*
X199686Y207741D01*
X199727Y207725D01*
X199765Y207702D01*
X199916Y207645D01*
X201345Y207212D01*
X201389Y207204D01*
X201430Y207189D01*
X201589Y207163D01*
X203076Y207017D01*
X203120Y207018D01*
X203164Y207011D01*
X203324Y207017D01*
G37*
G36*
X330324Y207017D02*
X330324Y207017D01*
X331811Y207163D01*
X331854Y207173D01*
X331898Y207175D01*
X332055Y207212D01*
X333485Y207645D01*
X333525Y207663D01*
X333568Y207674D01*
X333714Y207741D01*
X335032Y208445D01*
X335068Y208470D01*
X335108Y208489D01*
X335239Y208583D01*
X336393Y209531D01*
X336424Y209563D01*
X336459Y209589D01*
X336569Y209707D01*
X337517Y210861D01*
X337541Y210899D01*
X337570Y210931D01*
X337655Y211068D01*
X338359Y212386D01*
X338375Y212427D01*
X338398Y212465D01*
X338455Y212616D01*
X338888Y214045D01*
X338896Y214089D01*
X338911Y214130D01*
X338937Y214289D01*
X339083Y215776D01*
X339083Y215795D01*
X339083Y215796D01*
X339086Y215815D01*
X339085Y215834D01*
X339089Y215900D01*
X339089Y227330D01*
X339074Y227448D01*
X339067Y227567D01*
X339054Y227605D01*
X339049Y227646D01*
X339006Y227756D01*
X338969Y227869D01*
X338947Y227904D01*
X338932Y227941D01*
X338863Y228037D01*
X338799Y228138D01*
X338769Y228166D01*
X338746Y228199D01*
X338654Y228275D01*
X338567Y228356D01*
X338532Y228376D01*
X338501Y228401D01*
X338393Y228452D01*
X338289Y228510D01*
X338249Y228520D01*
X338213Y228537D01*
X338096Y228559D01*
X337981Y228589D01*
X337921Y228593D01*
X337901Y228597D01*
X337880Y228595D01*
X337820Y228599D01*
X322580Y228599D01*
X322462Y228584D01*
X322343Y228577D01*
X322305Y228564D01*
X322264Y228559D01*
X322154Y228516D01*
X322041Y228479D01*
X322006Y228457D01*
X321969Y228442D01*
X321873Y228373D01*
X321772Y228309D01*
X321744Y228279D01*
X321711Y228256D01*
X321636Y228164D01*
X321554Y228077D01*
X321534Y228042D01*
X321509Y228011D01*
X321458Y227903D01*
X321400Y227799D01*
X321390Y227759D01*
X321373Y227723D01*
X321351Y227606D01*
X321321Y227491D01*
X321317Y227431D01*
X321313Y227411D01*
X321314Y227402D01*
X321313Y227399D01*
X321314Y227385D01*
X321311Y227330D01*
X321311Y215900D01*
X321313Y215880D01*
X321317Y215776D01*
X321463Y214289D01*
X321473Y214246D01*
X321475Y214202D01*
X321512Y214045D01*
X321945Y212616D01*
X321963Y212575D01*
X321974Y212532D01*
X322041Y212386D01*
X322745Y211068D01*
X322770Y211032D01*
X322789Y210992D01*
X322883Y210861D01*
X323831Y209707D01*
X323863Y209676D01*
X323889Y209641D01*
X324007Y209531D01*
X325161Y208583D01*
X325199Y208559D01*
X325231Y208530D01*
X325368Y208445D01*
X326686Y207741D01*
X326727Y207725D01*
X326765Y207702D01*
X326916Y207645D01*
X328345Y207212D01*
X328389Y207204D01*
X328430Y207189D01*
X328589Y207163D01*
X330076Y207017D01*
X330120Y207018D01*
X330164Y207011D01*
X330324Y207017D01*
G37*
G36*
X127124Y207017D02*
X127124Y207017D01*
X128611Y207163D01*
X128654Y207173D01*
X128698Y207175D01*
X128855Y207212D01*
X130285Y207645D01*
X130325Y207663D01*
X130368Y207674D01*
X130514Y207741D01*
X131832Y208445D01*
X131868Y208470D01*
X131908Y208489D01*
X132039Y208583D01*
X133193Y209531D01*
X133224Y209563D01*
X133259Y209589D01*
X133369Y209707D01*
X134317Y210861D01*
X134341Y210899D01*
X134370Y210931D01*
X134455Y211068D01*
X135159Y212386D01*
X135175Y212427D01*
X135198Y212465D01*
X135255Y212616D01*
X135688Y214045D01*
X135696Y214089D01*
X135711Y214130D01*
X135737Y214289D01*
X135883Y215776D01*
X135883Y215795D01*
X135883Y215796D01*
X135886Y215815D01*
X135885Y215834D01*
X135889Y215900D01*
X135889Y227330D01*
X135874Y227448D01*
X135867Y227567D01*
X135854Y227605D01*
X135849Y227646D01*
X135806Y227756D01*
X135769Y227869D01*
X135747Y227904D01*
X135732Y227941D01*
X135663Y228037D01*
X135599Y228138D01*
X135569Y228166D01*
X135546Y228199D01*
X135454Y228275D01*
X135367Y228356D01*
X135332Y228376D01*
X135301Y228401D01*
X135193Y228452D01*
X135089Y228510D01*
X135049Y228520D01*
X135013Y228537D01*
X134896Y228559D01*
X134781Y228589D01*
X134721Y228593D01*
X134701Y228597D01*
X134680Y228595D01*
X134620Y228599D01*
X119380Y228599D01*
X119262Y228584D01*
X119143Y228577D01*
X119105Y228564D01*
X119064Y228559D01*
X118954Y228516D01*
X118841Y228479D01*
X118806Y228457D01*
X118769Y228442D01*
X118673Y228373D01*
X118572Y228309D01*
X118544Y228279D01*
X118511Y228256D01*
X118436Y228164D01*
X118354Y228077D01*
X118334Y228042D01*
X118309Y228011D01*
X118258Y227903D01*
X118200Y227799D01*
X118190Y227759D01*
X118173Y227723D01*
X118151Y227606D01*
X118121Y227491D01*
X118117Y227431D01*
X118113Y227411D01*
X118114Y227402D01*
X118113Y227399D01*
X118114Y227385D01*
X118111Y227330D01*
X118111Y215900D01*
X118113Y215880D01*
X118117Y215776D01*
X118263Y214289D01*
X118273Y214246D01*
X118275Y214202D01*
X118312Y214045D01*
X118745Y212616D01*
X118763Y212575D01*
X118774Y212532D01*
X118841Y212386D01*
X119545Y211068D01*
X119570Y211032D01*
X119589Y210992D01*
X119683Y210861D01*
X120631Y209707D01*
X120663Y209676D01*
X120689Y209641D01*
X120807Y209531D01*
X121961Y208583D01*
X121999Y208559D01*
X122031Y208530D01*
X122168Y208445D01*
X123486Y207741D01*
X123527Y207725D01*
X123565Y207702D01*
X123716Y207645D01*
X125145Y207212D01*
X125189Y207204D01*
X125230Y207189D01*
X125389Y207163D01*
X126876Y207017D01*
X126920Y207018D01*
X126964Y207011D01*
X127124Y207017D01*
G37*
G36*
X228724Y207017D02*
X228724Y207017D01*
X230211Y207163D01*
X230254Y207173D01*
X230298Y207175D01*
X230455Y207212D01*
X231885Y207645D01*
X231925Y207663D01*
X231968Y207674D01*
X232114Y207741D01*
X233432Y208445D01*
X233468Y208470D01*
X233508Y208489D01*
X233639Y208583D01*
X234793Y209531D01*
X234824Y209563D01*
X234859Y209589D01*
X234969Y209707D01*
X235917Y210861D01*
X235941Y210899D01*
X235970Y210931D01*
X236055Y211068D01*
X236759Y212386D01*
X236775Y212427D01*
X236798Y212465D01*
X236855Y212616D01*
X237288Y214045D01*
X237296Y214089D01*
X237311Y214130D01*
X237337Y214289D01*
X237483Y215776D01*
X237483Y215795D01*
X237483Y215796D01*
X237486Y215815D01*
X237485Y215834D01*
X237489Y215900D01*
X237489Y227330D01*
X237474Y227448D01*
X237467Y227567D01*
X237454Y227605D01*
X237449Y227646D01*
X237406Y227756D01*
X237369Y227869D01*
X237347Y227904D01*
X237332Y227941D01*
X237263Y228037D01*
X237199Y228138D01*
X237169Y228166D01*
X237146Y228199D01*
X237054Y228275D01*
X236967Y228356D01*
X236932Y228376D01*
X236901Y228401D01*
X236793Y228452D01*
X236689Y228510D01*
X236649Y228520D01*
X236613Y228537D01*
X236496Y228559D01*
X236381Y228589D01*
X236321Y228593D01*
X236301Y228597D01*
X236280Y228595D01*
X236220Y228599D01*
X220980Y228599D01*
X220862Y228584D01*
X220743Y228577D01*
X220705Y228564D01*
X220664Y228559D01*
X220554Y228516D01*
X220441Y228479D01*
X220406Y228457D01*
X220369Y228442D01*
X220273Y228373D01*
X220172Y228309D01*
X220144Y228279D01*
X220111Y228256D01*
X220036Y228164D01*
X219954Y228077D01*
X219934Y228042D01*
X219909Y228011D01*
X219858Y227903D01*
X219800Y227799D01*
X219790Y227759D01*
X219773Y227723D01*
X219751Y227606D01*
X219721Y227491D01*
X219717Y227431D01*
X219713Y227411D01*
X219714Y227402D01*
X219713Y227399D01*
X219714Y227385D01*
X219711Y227330D01*
X219711Y215900D01*
X219713Y215880D01*
X219717Y215776D01*
X219863Y214289D01*
X219873Y214246D01*
X219875Y214202D01*
X219912Y214045D01*
X220345Y212616D01*
X220363Y212575D01*
X220374Y212532D01*
X220441Y212386D01*
X221145Y211068D01*
X221170Y211032D01*
X221189Y210992D01*
X221283Y210861D01*
X222231Y209707D01*
X222263Y209676D01*
X222289Y209641D01*
X222407Y209531D01*
X223561Y208583D01*
X223599Y208559D01*
X223631Y208530D01*
X223768Y208445D01*
X225086Y207741D01*
X225127Y207725D01*
X225165Y207702D01*
X225316Y207645D01*
X226745Y207212D01*
X226789Y207204D01*
X226830Y207189D01*
X226989Y207163D01*
X228476Y207017D01*
X228520Y207018D01*
X228564Y207011D01*
X228724Y207017D01*
G37*
G36*
X50924Y207017D02*
X50924Y207017D01*
X52411Y207163D01*
X52454Y207173D01*
X52498Y207175D01*
X52655Y207212D01*
X54085Y207645D01*
X54125Y207663D01*
X54168Y207674D01*
X54314Y207741D01*
X55632Y208445D01*
X55668Y208470D01*
X55708Y208489D01*
X55839Y208583D01*
X56993Y209531D01*
X57024Y209563D01*
X57059Y209589D01*
X57169Y209707D01*
X58117Y210861D01*
X58141Y210899D01*
X58170Y210931D01*
X58255Y211068D01*
X58959Y212386D01*
X58975Y212427D01*
X58998Y212465D01*
X59055Y212616D01*
X59488Y214045D01*
X59496Y214089D01*
X59511Y214130D01*
X59537Y214289D01*
X59683Y215776D01*
X59683Y215795D01*
X59683Y215796D01*
X59686Y215815D01*
X59685Y215834D01*
X59689Y215900D01*
X59689Y227330D01*
X59674Y227448D01*
X59667Y227567D01*
X59654Y227605D01*
X59649Y227646D01*
X59606Y227756D01*
X59569Y227869D01*
X59547Y227904D01*
X59532Y227941D01*
X59463Y228037D01*
X59399Y228138D01*
X59369Y228166D01*
X59346Y228199D01*
X59254Y228275D01*
X59167Y228356D01*
X59132Y228376D01*
X59101Y228401D01*
X58993Y228452D01*
X58889Y228510D01*
X58849Y228520D01*
X58813Y228537D01*
X58696Y228559D01*
X58581Y228589D01*
X58521Y228593D01*
X58501Y228597D01*
X58480Y228595D01*
X58420Y228599D01*
X43180Y228599D01*
X43062Y228584D01*
X42943Y228577D01*
X42905Y228564D01*
X42864Y228559D01*
X42754Y228516D01*
X42641Y228479D01*
X42606Y228457D01*
X42569Y228442D01*
X42473Y228373D01*
X42372Y228309D01*
X42344Y228279D01*
X42311Y228256D01*
X42236Y228164D01*
X42154Y228077D01*
X42134Y228042D01*
X42109Y228011D01*
X42058Y227903D01*
X42000Y227799D01*
X41990Y227759D01*
X41973Y227723D01*
X41951Y227606D01*
X41921Y227491D01*
X41917Y227431D01*
X41913Y227411D01*
X41914Y227402D01*
X41913Y227399D01*
X41914Y227385D01*
X41911Y227330D01*
X41911Y215900D01*
X41913Y215880D01*
X41917Y215776D01*
X42063Y214289D01*
X42073Y214246D01*
X42075Y214202D01*
X42112Y214045D01*
X42545Y212616D01*
X42563Y212575D01*
X42574Y212532D01*
X42641Y212386D01*
X43345Y211068D01*
X43370Y211032D01*
X43389Y210992D01*
X43483Y210861D01*
X44431Y209707D01*
X44463Y209676D01*
X44489Y209641D01*
X44607Y209531D01*
X45761Y208583D01*
X45799Y208559D01*
X45831Y208530D01*
X45968Y208445D01*
X47286Y207741D01*
X47327Y207725D01*
X47365Y207702D01*
X47516Y207645D01*
X48945Y207212D01*
X48989Y207204D01*
X49030Y207189D01*
X49189Y207163D01*
X50676Y207017D01*
X50720Y207018D01*
X50764Y207011D01*
X50924Y207017D01*
G37*
G36*
X76324Y207017D02*
X76324Y207017D01*
X77811Y207163D01*
X77854Y207173D01*
X77898Y207175D01*
X78055Y207212D01*
X79485Y207645D01*
X79525Y207663D01*
X79568Y207674D01*
X79714Y207741D01*
X81032Y208445D01*
X81068Y208470D01*
X81108Y208489D01*
X81239Y208583D01*
X82393Y209531D01*
X82424Y209563D01*
X82459Y209589D01*
X82569Y209707D01*
X83517Y210861D01*
X83541Y210899D01*
X83570Y210931D01*
X83655Y211068D01*
X84359Y212386D01*
X84375Y212427D01*
X84398Y212465D01*
X84455Y212616D01*
X84888Y214045D01*
X84896Y214089D01*
X84911Y214130D01*
X84937Y214289D01*
X85083Y215776D01*
X85083Y215795D01*
X85083Y215796D01*
X85086Y215815D01*
X85085Y215834D01*
X85089Y215900D01*
X85089Y227330D01*
X85074Y227448D01*
X85067Y227567D01*
X85054Y227605D01*
X85049Y227646D01*
X85006Y227756D01*
X84969Y227869D01*
X84947Y227904D01*
X84932Y227941D01*
X84863Y228037D01*
X84799Y228138D01*
X84769Y228166D01*
X84746Y228199D01*
X84654Y228275D01*
X84567Y228356D01*
X84532Y228376D01*
X84501Y228401D01*
X84393Y228452D01*
X84289Y228510D01*
X84249Y228520D01*
X84213Y228537D01*
X84096Y228559D01*
X83981Y228589D01*
X83921Y228593D01*
X83901Y228597D01*
X83880Y228595D01*
X83820Y228599D01*
X68580Y228599D01*
X68462Y228584D01*
X68343Y228577D01*
X68305Y228564D01*
X68264Y228559D01*
X68154Y228516D01*
X68041Y228479D01*
X68006Y228457D01*
X67969Y228442D01*
X67873Y228373D01*
X67772Y228309D01*
X67744Y228279D01*
X67711Y228256D01*
X67636Y228164D01*
X67554Y228077D01*
X67534Y228042D01*
X67509Y228011D01*
X67458Y227903D01*
X67400Y227799D01*
X67390Y227759D01*
X67373Y227723D01*
X67351Y227606D01*
X67321Y227491D01*
X67317Y227431D01*
X67313Y227411D01*
X67314Y227402D01*
X67313Y227399D01*
X67314Y227385D01*
X67311Y227330D01*
X67311Y215900D01*
X67313Y215880D01*
X67317Y215776D01*
X67463Y214289D01*
X67473Y214246D01*
X67475Y214202D01*
X67512Y214045D01*
X67945Y212616D01*
X67963Y212575D01*
X67974Y212532D01*
X68041Y212386D01*
X68745Y211068D01*
X68770Y211032D01*
X68789Y210992D01*
X68883Y210861D01*
X69831Y209707D01*
X69863Y209676D01*
X69889Y209641D01*
X70007Y209531D01*
X71161Y208583D01*
X71199Y208559D01*
X71231Y208530D01*
X71368Y208445D01*
X72686Y207741D01*
X72727Y207725D01*
X72765Y207702D01*
X72916Y207645D01*
X74345Y207212D01*
X74389Y207204D01*
X74430Y207189D01*
X74589Y207163D01*
X76076Y207017D01*
X76120Y207018D01*
X76164Y207011D01*
X76324Y207017D01*
G37*
G36*
X254124Y207017D02*
X254124Y207017D01*
X255611Y207163D01*
X255654Y207173D01*
X255698Y207175D01*
X255855Y207212D01*
X257285Y207645D01*
X257325Y207663D01*
X257368Y207674D01*
X257514Y207741D01*
X258832Y208445D01*
X258868Y208470D01*
X258908Y208489D01*
X259039Y208583D01*
X260193Y209531D01*
X260224Y209563D01*
X260259Y209589D01*
X260369Y209707D01*
X261317Y210861D01*
X261341Y210899D01*
X261370Y210931D01*
X261455Y211068D01*
X262159Y212386D01*
X262175Y212427D01*
X262198Y212465D01*
X262255Y212616D01*
X262688Y214045D01*
X262696Y214089D01*
X262711Y214130D01*
X262737Y214289D01*
X262883Y215776D01*
X262883Y215795D01*
X262883Y215796D01*
X262886Y215815D01*
X262885Y215834D01*
X262889Y215900D01*
X262889Y227330D01*
X262874Y227448D01*
X262867Y227567D01*
X262854Y227605D01*
X262849Y227646D01*
X262806Y227756D01*
X262769Y227869D01*
X262747Y227904D01*
X262732Y227941D01*
X262663Y228037D01*
X262599Y228138D01*
X262569Y228166D01*
X262546Y228199D01*
X262454Y228275D01*
X262367Y228356D01*
X262332Y228376D01*
X262301Y228401D01*
X262193Y228452D01*
X262089Y228510D01*
X262049Y228520D01*
X262013Y228537D01*
X261896Y228559D01*
X261781Y228589D01*
X261721Y228593D01*
X261701Y228597D01*
X261680Y228595D01*
X261620Y228599D01*
X246380Y228599D01*
X246262Y228584D01*
X246143Y228577D01*
X246105Y228564D01*
X246064Y228559D01*
X245954Y228516D01*
X245841Y228479D01*
X245806Y228457D01*
X245769Y228442D01*
X245673Y228373D01*
X245572Y228309D01*
X245544Y228279D01*
X245511Y228256D01*
X245436Y228164D01*
X245354Y228077D01*
X245334Y228042D01*
X245309Y228011D01*
X245258Y227903D01*
X245200Y227799D01*
X245190Y227759D01*
X245173Y227723D01*
X245151Y227606D01*
X245121Y227491D01*
X245117Y227431D01*
X245113Y227411D01*
X245114Y227402D01*
X245113Y227399D01*
X245114Y227385D01*
X245111Y227330D01*
X245111Y215900D01*
X245113Y215880D01*
X245117Y215776D01*
X245263Y214289D01*
X245273Y214246D01*
X245275Y214202D01*
X245312Y214045D01*
X245745Y212616D01*
X245763Y212575D01*
X245774Y212532D01*
X245841Y212386D01*
X246545Y211068D01*
X246570Y211032D01*
X246589Y210992D01*
X246683Y210861D01*
X247631Y209707D01*
X247663Y209676D01*
X247689Y209641D01*
X247807Y209531D01*
X248961Y208583D01*
X248999Y208559D01*
X249031Y208530D01*
X249168Y208445D01*
X250486Y207741D01*
X250527Y207725D01*
X250565Y207702D01*
X250716Y207645D01*
X252145Y207212D01*
X252189Y207204D01*
X252230Y207189D01*
X252389Y207163D01*
X253876Y207017D01*
X253920Y207018D01*
X253964Y207011D01*
X254124Y207017D01*
G37*
%LPC*%
G36*
X73203Y92455D02*
X73203Y92455D01*
X71119Y94539D01*
X71119Y97485D01*
X80315Y106681D01*
X93054Y106681D01*
X95138Y104597D01*
X95138Y101651D01*
X93054Y99567D01*
X83471Y99567D01*
X83464Y99566D01*
X83456Y99567D01*
X83366Y99546D01*
X83275Y99528D01*
X83268Y99523D01*
X83261Y99521D01*
X83113Y99419D01*
X76149Y92455D01*
X73203Y92455D01*
G37*
%LPD*%
%LPC*%
G36*
X125155Y140105D02*
X125155Y140105D01*
X123071Y142189D01*
X123071Y142217D01*
X123071Y142219D01*
X123071Y142222D01*
X123051Y142317D01*
X123032Y142413D01*
X123030Y142415D01*
X123030Y142418D01*
X122974Y142499D01*
X122919Y142579D01*
X122917Y142580D01*
X122915Y142583D01*
X122832Y142636D01*
X122751Y142688D01*
X122748Y142689D01*
X122746Y142690D01*
X122650Y142706D01*
X122554Y142724D01*
X122551Y142723D01*
X122549Y142724D01*
X122454Y142702D01*
X122358Y142680D01*
X122356Y142679D01*
X122353Y142678D01*
X122205Y142575D01*
X121414Y141784D01*
X118468Y141784D01*
X117125Y143127D01*
X117120Y143130D01*
X117117Y143135D01*
X117037Y143186D01*
X116958Y143238D01*
X116953Y143239D01*
X116948Y143242D01*
X116855Y143258D01*
X116761Y143276D01*
X116756Y143275D01*
X116751Y143276D01*
X116658Y143254D01*
X116565Y143234D01*
X116561Y143231D01*
X116555Y143230D01*
X116407Y143127D01*
X114757Y141477D01*
X111811Y141477D01*
X109727Y143561D01*
X109727Y146507D01*
X111811Y148591D01*
X114757Y148591D01*
X116100Y147248D01*
X116105Y147245D01*
X116108Y147240D01*
X116188Y147189D01*
X116267Y147137D01*
X116272Y147136D01*
X116277Y147133D01*
X116371Y147117D01*
X116464Y147099D01*
X116469Y147100D01*
X116475Y147099D01*
X116567Y147121D01*
X116660Y147141D01*
X116665Y147144D01*
X116670Y147145D01*
X116818Y147248D01*
X118468Y148898D01*
X121414Y148898D01*
X123498Y146814D01*
X123498Y146786D01*
X123498Y146784D01*
X123498Y146781D01*
X123518Y146686D01*
X123537Y146590D01*
X123539Y146588D01*
X123539Y146585D01*
X123596Y146503D01*
X123650Y146424D01*
X123652Y146423D01*
X123654Y146421D01*
X123738Y146367D01*
X123818Y146315D01*
X123821Y146314D01*
X123823Y146313D01*
X123919Y146297D01*
X124015Y146279D01*
X124018Y146280D01*
X124021Y146279D01*
X124115Y146301D01*
X124211Y146323D01*
X124213Y146324D01*
X124216Y146325D01*
X124364Y146428D01*
X125155Y147219D01*
X128101Y147219D01*
X130185Y145135D01*
X130185Y142189D01*
X128101Y140105D01*
X125155Y140105D01*
G37*
%LPD*%
%LPC*%
G36*
X300787Y178815D02*
X300787Y178815D01*
X298703Y180899D01*
X298703Y183845D01*
X300787Y185929D01*
X303733Y185929D01*
X305203Y184459D01*
X305206Y184457D01*
X305207Y184455D01*
X305288Y184403D01*
X305370Y184348D01*
X305373Y184347D01*
X305375Y184346D01*
X305471Y184328D01*
X305567Y184310D01*
X305570Y184311D01*
X305572Y184310D01*
X305669Y184332D01*
X305763Y184352D01*
X305765Y184353D01*
X305768Y184354D01*
X305848Y184410D01*
X305928Y184466D01*
X305929Y184468D01*
X305931Y184470D01*
X305984Y184554D01*
X306035Y184635D01*
X306036Y184638D01*
X306037Y184640D01*
X306069Y184817D01*
X306069Y185623D01*
X308153Y187707D01*
X311099Y187707D01*
X313183Y185623D01*
X313183Y182677D01*
X311099Y180593D01*
X308153Y180593D01*
X306683Y182063D01*
X306680Y182065D01*
X306679Y182067D01*
X306599Y182119D01*
X306516Y182174D01*
X306513Y182175D01*
X306511Y182176D01*
X306415Y182194D01*
X306319Y182212D01*
X306316Y182211D01*
X306314Y182212D01*
X306217Y182190D01*
X306123Y182170D01*
X306121Y182169D01*
X306118Y182168D01*
X306038Y182112D01*
X305958Y182056D01*
X305957Y182054D01*
X305955Y182052D01*
X305902Y181968D01*
X305851Y181887D01*
X305850Y181884D01*
X305849Y181882D01*
X305817Y181705D01*
X305817Y180899D01*
X303733Y178815D01*
X300787Y178815D01*
G37*
%LPD*%
%LPC*%
G36*
X276911Y142239D02*
X276911Y142239D01*
X274827Y144323D01*
X274827Y147269D01*
X276911Y149353D01*
X279857Y149353D01*
X281941Y147269D01*
X281941Y144323D01*
X279857Y142239D01*
X276911Y142239D01*
G37*
%LPD*%
%LPC*%
G36*
X96317Y92455D02*
X96317Y92455D01*
X94233Y94539D01*
X94233Y97485D01*
X96317Y99569D01*
X99263Y99569D01*
X101347Y97485D01*
X101347Y94539D01*
X99263Y92455D01*
X96317Y92455D01*
G37*
%LPD*%
%LPC*%
G36*
X64313Y91439D02*
X64313Y91439D01*
X62229Y93523D01*
X62229Y96469D01*
X64313Y98553D01*
X67259Y98553D01*
X69343Y96469D01*
X69343Y93523D01*
X67259Y91439D01*
X64313Y91439D01*
G37*
%LPD*%
%LPC*%
G36*
X324409Y171195D02*
X324409Y171195D01*
X322325Y173279D01*
X322325Y176225D01*
X324409Y178309D01*
X327355Y178309D01*
X329439Y176225D01*
X329439Y173279D01*
X327355Y171195D01*
X324409Y171195D01*
G37*
%LPD*%
%LPC*%
G36*
X290119Y177037D02*
X290119Y177037D01*
X288035Y179121D01*
X288035Y182067D01*
X290119Y184151D01*
X293065Y184151D01*
X295149Y182067D01*
X295149Y179121D01*
X293065Y177037D01*
X290119Y177037D01*
G37*
%LPD*%
%LPC*%
G36*
X262687Y66622D02*
X262687Y66622D01*
X260603Y68705D01*
X260603Y71652D01*
X262687Y73735D01*
X265633Y73735D01*
X267717Y71652D01*
X267717Y68705D01*
X265633Y66622D01*
X262687Y66622D01*
G37*
%LPD*%
%LPC*%
G36*
X268792Y177808D02*
X268792Y177808D01*
X266708Y179892D01*
X266708Y182838D01*
X268792Y184922D01*
X271738Y184922D01*
X273822Y182838D01*
X273822Y179892D01*
X271738Y177808D01*
X268792Y177808D01*
G37*
%LPD*%
%LPC*%
G36*
X59233Y179069D02*
X59233Y179069D01*
X57149Y181153D01*
X57149Y184099D01*
X59233Y186183D01*
X62179Y186183D01*
X64263Y184099D01*
X64263Y181153D01*
X62179Y179069D01*
X59233Y179069D01*
G37*
%LPD*%
%LPC*%
G36*
X40691Y179831D02*
X40691Y179831D01*
X38607Y181915D01*
X38607Y184861D01*
X40691Y186945D01*
X43637Y186945D01*
X45721Y184861D01*
X45721Y181915D01*
X43637Y179831D01*
X40691Y179831D01*
G37*
%LPD*%
%LPC*%
G36*
X24689Y139953D02*
X24689Y139953D01*
X22605Y142037D01*
X22605Y144983D01*
X24689Y147067D01*
X27635Y147067D01*
X29719Y144983D01*
X29719Y142037D01*
X27635Y139953D01*
X24689Y139953D01*
G37*
%LPD*%
%LPC*%
G36*
X259131Y178053D02*
X259131Y178053D01*
X257047Y180137D01*
X257047Y183083D01*
X259131Y185167D01*
X262077Y185167D01*
X264161Y183083D01*
X264161Y180137D01*
X262077Y178053D01*
X259131Y178053D01*
G37*
%LPD*%
%LPC*%
G36*
X298247Y136651D02*
X298247Y136651D01*
X296163Y138735D01*
X296163Y141681D01*
X298247Y143765D01*
X301193Y143765D01*
X303277Y141681D01*
X303277Y138735D01*
X301193Y136651D01*
X298247Y136651D01*
G37*
%LPD*%
%LPC*%
G36*
X315265Y134873D02*
X315265Y134873D01*
X313181Y136957D01*
X313181Y139903D01*
X315265Y141987D01*
X318211Y141987D01*
X320295Y139903D01*
X320295Y136957D01*
X318211Y134873D01*
X315265Y134873D01*
G37*
%LPD*%
%LPC*%
G36*
X259903Y133603D02*
X259903Y133603D01*
X257820Y135687D01*
X257820Y138633D01*
X259903Y140717D01*
X262849Y140717D01*
X264933Y138633D01*
X264933Y135687D01*
X262849Y133603D01*
X259903Y133603D01*
G37*
%LPD*%
%LPC*%
G36*
X322484Y97530D02*
X322484Y97530D01*
X320400Y99614D01*
X320400Y102560D01*
X322484Y104644D01*
X325430Y104644D01*
X327514Y102560D01*
X327514Y99614D01*
X325430Y97530D01*
X322484Y97530D01*
G37*
%LPD*%
%LPC*%
G36*
X96732Y47390D02*
X96732Y47390D01*
X94649Y49474D01*
X94649Y52420D01*
X96732Y54504D01*
X99679Y54504D01*
X101762Y52420D01*
X101762Y49474D01*
X99679Y47390D01*
X96732Y47390D01*
G37*
%LPD*%
D10*
X176022Y342025D02*
X180538Y342025D01*
X180538Y342026D02*
X180671Y342024D01*
X180803Y342018D01*
X180935Y342008D01*
X181067Y341995D01*
X181199Y341977D01*
X181329Y341956D01*
X181460Y341931D01*
X181589Y341902D01*
X181717Y341869D01*
X181845Y341833D01*
X181971Y341793D01*
X182096Y341749D01*
X182220Y341701D01*
X182342Y341650D01*
X182463Y341595D01*
X182582Y341537D01*
X182700Y341475D01*
X182815Y341410D01*
X182929Y341341D01*
X183040Y341270D01*
X183149Y341194D01*
X183256Y341116D01*
X183361Y341035D01*
X183463Y340950D01*
X183563Y340863D01*
X183660Y340773D01*
X183755Y340680D01*
X183846Y340584D01*
X183935Y340486D01*
X184021Y340385D01*
X184104Y340281D01*
X184184Y340175D01*
X184260Y340067D01*
X184334Y339957D01*
X184404Y339844D01*
X184471Y339730D01*
X184534Y339613D01*
X184594Y339495D01*
X184651Y339375D01*
X184704Y339253D01*
X184753Y339130D01*
X184799Y339006D01*
X184841Y338880D01*
X184879Y338753D01*
X184914Y338625D01*
X184945Y338496D01*
X184972Y338367D01*
X184995Y338236D01*
X185015Y338105D01*
X185030Y337973D01*
X185042Y337841D01*
X185050Y337709D01*
X185054Y337576D01*
X185054Y337444D01*
X185050Y337311D01*
X185042Y337179D01*
X185030Y337047D01*
X185015Y336915D01*
X184995Y336784D01*
X184972Y336653D01*
X184945Y336524D01*
X184914Y336395D01*
X184879Y336267D01*
X184841Y336140D01*
X184799Y336014D01*
X184753Y335890D01*
X184704Y335767D01*
X184651Y335645D01*
X184594Y335525D01*
X184534Y335407D01*
X184471Y335290D01*
X184404Y335176D01*
X184334Y335063D01*
X184260Y334953D01*
X184184Y334845D01*
X184104Y334739D01*
X184021Y334635D01*
X183935Y334534D01*
X183846Y334436D01*
X183755Y334340D01*
X183660Y334247D01*
X183563Y334157D01*
X183463Y334070D01*
X183361Y333985D01*
X183256Y333904D01*
X183149Y333826D01*
X183040Y333750D01*
X182929Y333679D01*
X182815Y333610D01*
X182700Y333545D01*
X182582Y333483D01*
X182463Y333425D01*
X182342Y333370D01*
X182220Y333319D01*
X182096Y333271D01*
X181971Y333227D01*
X181845Y333187D01*
X181717Y333151D01*
X181589Y333118D01*
X181460Y333089D01*
X181329Y333064D01*
X181199Y333043D01*
X181067Y333025D01*
X180935Y333012D01*
X180803Y333002D01*
X180671Y332996D01*
X180538Y332994D01*
X176022Y332994D01*
X176022Y349250D01*
X180538Y349250D01*
X180657Y349248D01*
X180777Y349242D01*
X180896Y349232D01*
X181014Y349218D01*
X181133Y349201D01*
X181250Y349179D01*
X181367Y349154D01*
X181482Y349124D01*
X181597Y349091D01*
X181711Y349054D01*
X181823Y349014D01*
X181934Y348969D01*
X182043Y348921D01*
X182151Y348870D01*
X182257Y348815D01*
X182361Y348756D01*
X182463Y348694D01*
X182563Y348629D01*
X182661Y348560D01*
X182757Y348488D01*
X182850Y348413D01*
X182940Y348336D01*
X183028Y348255D01*
X183113Y348171D01*
X183195Y348084D01*
X183275Y347995D01*
X183351Y347903D01*
X183425Y347809D01*
X183495Y347712D01*
X183562Y347614D01*
X183626Y347513D01*
X183686Y347409D01*
X183743Y347304D01*
X183796Y347197D01*
X183846Y347089D01*
X183892Y346979D01*
X183934Y346867D01*
X183973Y346754D01*
X184008Y346640D01*
X184039Y346525D01*
X184067Y346408D01*
X184090Y346291D01*
X184110Y346174D01*
X184126Y346055D01*
X184138Y345936D01*
X184146Y345817D01*
X184150Y345698D01*
X184150Y345578D01*
X184146Y345459D01*
X184138Y345340D01*
X184126Y345221D01*
X184110Y345102D01*
X184090Y344985D01*
X184067Y344868D01*
X184039Y344751D01*
X184008Y344636D01*
X183973Y344522D01*
X183934Y344409D01*
X183892Y344297D01*
X183846Y344187D01*
X183796Y344079D01*
X183743Y343972D01*
X183686Y343867D01*
X183626Y343763D01*
X183562Y343662D01*
X183495Y343564D01*
X183425Y343467D01*
X183351Y343373D01*
X183275Y343281D01*
X183195Y343192D01*
X183113Y343105D01*
X183028Y343021D01*
X182940Y342940D01*
X182850Y342863D01*
X182757Y342788D01*
X182661Y342716D01*
X182563Y342647D01*
X182463Y342582D01*
X182361Y342520D01*
X182257Y342461D01*
X182151Y342406D01*
X182043Y342355D01*
X181934Y342307D01*
X181823Y342262D01*
X181711Y342222D01*
X181597Y342185D01*
X181482Y342152D01*
X181367Y342122D01*
X181250Y342097D01*
X181133Y342075D01*
X181014Y342058D01*
X180896Y342044D01*
X180777Y342034D01*
X180657Y342028D01*
X180538Y342026D01*
X190921Y336606D02*
X194534Y349250D01*
X190921Y336606D02*
X199952Y336606D01*
X197243Y340219D02*
X197243Y332994D01*
D11*
X268034Y108197D03*
X259034Y108197D03*
X259034Y99197D03*
X268034Y99197D03*
X277034Y99197D03*
X277034Y108197D03*
X277034Y117197D03*
X268034Y117197D03*
X259034Y117197D03*
D12*
X330200Y215900D03*
D13*
X330200Y228600D03*
D12*
X304800Y215900D03*
D13*
X304800Y228600D03*
D12*
X279400Y215900D03*
D13*
X279400Y228600D03*
D12*
X254000Y215900D03*
D13*
X254000Y228600D03*
D12*
X228600Y215900D03*
D13*
X228600Y228600D03*
D12*
X203200Y215900D03*
D13*
X203200Y228600D03*
D12*
X177800Y215900D03*
D13*
X177800Y228600D03*
D12*
X152400Y215900D03*
D13*
X152400Y228600D03*
D12*
X127000Y215900D03*
D13*
X127000Y228600D03*
D12*
X101600Y215900D03*
D13*
X101600Y228600D03*
D12*
X76200Y215900D03*
D13*
X76200Y228600D03*
D12*
X50800Y215900D03*
D13*
X50800Y228600D03*
D12*
X25400Y215900D03*
D13*
X25400Y228600D03*
D12*
X50800Y12700D03*
D13*
X50800Y0D03*
D12*
X76200Y12700D03*
D13*
X76200Y0D03*
D12*
X101600Y12700D03*
D13*
X101600Y0D03*
D12*
X127000Y12700D03*
D13*
X127000Y0D03*
D12*
X152400Y12700D03*
D13*
X152400Y0D03*
D12*
X177800Y12700D03*
D13*
X177800Y0D03*
D12*
X203200Y12700D03*
D13*
X203200Y0D03*
D12*
X228600Y12700D03*
D13*
X228600Y0D03*
D12*
X254000Y12700D03*
D13*
X254000Y0D03*
D12*
X279400Y12700D03*
D13*
X279400Y0D03*
D12*
X304800Y12700D03*
D13*
X304800Y0D03*
D12*
X330200Y12700D03*
D13*
X330200Y0D03*
D14*
X329687Y116977D03*
X309687Y116977D03*
D15*
X25000Y112000D03*
X105000Y112000D03*
X185000Y112000D03*
X265000Y112000D03*
D16*
X128096Y126404D03*
X135448Y126404D03*
X143590Y126404D03*
X124526Y121818D03*
X131906Y121818D03*
X139526Y121818D03*
X120716Y116992D03*
X128096Y116992D03*
X135448Y116992D03*
X143590Y116992D03*
X9906Y194364D03*
X9652Y176330D03*
X9652Y106734D03*
X9652Y94034D03*
X9652Y81334D03*
X9652Y68634D03*
X9652Y55934D03*
X9652Y43234D03*
X9906Y33074D03*
X342154Y171454D03*
X342154Y161454D03*
X342154Y151454D03*
X283718Y181356D03*
X268732Y188722D03*
X219710Y179324D03*
X163830Y179070D03*
X156718Y179070D03*
X147828Y179070D03*
X137668Y179070D03*
X127254Y179070D03*
X116840Y179070D03*
X225806Y147574D03*
X225552Y139192D03*
X26670Y49530D03*
X33020Y49530D03*
X91948Y72644D03*
X91948Y62484D03*
X91948Y52324D03*
X86929Y145479D03*
X329946Y67056D03*
X329946Y53086D03*
X300482Y147828D03*
X286512Y74676D03*
X286766Y61976D03*
X283210Y44704D03*
X97028Y82296D03*
X116740Y99324D03*
X121666Y71882D03*
X121666Y82042D03*
X124714Y52578D03*
X185166Y51816D03*
X184658Y82804D03*
X239776Y99314D03*
X25400Y133604D03*
X24527Y165869D03*
X260350Y49530D03*
X80264Y185166D03*
X95758Y179070D03*
X106680Y179070D03*
X54610Y126492D03*
X85881Y97028D03*
X111506Y99568D03*
X21844Y195326D03*
X32004Y195326D03*
X59944Y195326D03*
X72644Y195326D03*
X85344Y195326D03*
X98044Y195326D03*
X113284Y195326D03*
X125984Y195326D03*
X268224Y195326D03*
X278384Y195326D03*
X301244Y195326D03*
X319024Y195326D03*
X339344Y195326D03*
X9652Y121974D03*
X9652Y137214D03*
X9652Y149914D03*
X9652Y162614D03*
X25146Y33074D03*
X90932Y35614D03*
X101292Y35306D03*
X111452Y35306D03*
X121612Y35306D03*
X204670Y28956D03*
X213560Y29210D03*
X220926Y28956D03*
X236420Y28956D03*
X243278Y28956D03*
X266900Y32512D03*
X273758Y32512D03*
X193240Y28956D03*
X340306Y35306D03*
X340306Y48006D03*
X340306Y60706D03*
X340306Y73406D03*
X340306Y88646D03*
X340306Y103886D03*
X340306Y119126D03*
X342154Y141294D03*
X342154Y131134D03*
X342154Y181614D03*
X87884Y185166D03*
X72644Y185166D03*
X100584Y185166D03*
X110744Y185166D03*
X120904Y185166D03*
X131064Y185166D03*
X18542Y74930D03*
X18542Y65532D03*
X18542Y56134D03*
X91948Y42164D03*
X99568Y42164D03*
X107188Y42164D03*
X114808Y42164D03*
X122428Y42164D03*
X18542Y42926D03*
X26416Y42926D03*
X33020Y42926D03*
X178054Y82804D03*
X179324Y52070D03*
X286766Y68834D03*
X286512Y39116D03*
X271726Y42926D03*
X261566Y42926D03*
X324358Y89916D03*
X260350Y188468D03*
X224790Y160528D03*
X230632Y160274D03*
X219710Y171958D03*
X188976Y177038D03*
X17780Y185420D03*
X17780Y172720D03*
X17780Y157480D03*
X17780Y144780D03*
X48751Y133779D03*
X83312Y92456D03*
X88646Y92456D03*
X90678Y97028D03*
X106680Y123952D03*
X106680Y129469D03*
X106680Y118110D03*
X49276Y126492D03*
D17*
X254000Y13716D02*
X254000Y12700D01*
X256486Y13716D02*
X256486Y32766D01*
X256486Y13716D02*
X254000Y13716D01*
X279400Y12700D02*
X279400Y32512D01*
X273758Y32512D01*
X279400Y12700D02*
X254000Y12700D01*
X125984Y195326D02*
X127000Y196342D01*
X127000Y215900D01*
X101600Y215900D02*
X101092Y215392D01*
X101092Y198374D01*
X98044Y195326D01*
X101600Y215900D02*
X127000Y215900D01*
D16*
X183896Y174752D03*
X185166Y45720D03*
X179578Y45720D03*
X316484Y187452D03*
X270429Y157734D03*
X324866Y80010D03*
X329946Y60198D03*
X329946Y73660D03*
X329946Y86360D03*
X31496Y126492D03*
X25908Y80010D03*
X265446Y157644D03*
X309388Y153994D03*
X254454Y32512D03*
X260296Y32512D03*
X280362Y32258D03*
X120716Y126404D03*
X240010Y136161D03*
X278001Y169797D03*
D10*
X177800Y215900D02*
X152400Y215900D01*
X176530Y215900D02*
X177800Y215900D01*
D17*
X176530Y215900D02*
X152400Y215900D01*
X177800Y215900D02*
X203200Y215900D01*
D16*
X247630Y142511D03*
X144760Y198391D03*
X154920Y198391D03*
X165080Y198391D03*
X175240Y198391D03*
X185400Y198391D03*
X195560Y198391D03*
X205720Y198391D03*
X144760Y188231D03*
X154920Y188231D03*
X165080Y188231D03*
X175240Y188231D03*
X185400Y188231D03*
X195560Y188231D03*
X205720Y188231D03*
D17*
X152400Y195871D02*
X152400Y215900D01*
X152400Y195871D02*
X149840Y193311D01*
X177800Y200951D02*
X177800Y215900D01*
X177800Y200951D02*
X175240Y198391D01*
X200640Y215880D02*
X203200Y215900D01*
X200640Y215880D02*
X200640Y193311D01*
D16*
X247630Y155211D03*
X247630Y129811D03*
X240010Y123461D03*
X240010Y161561D03*
D18*
X275587Y172212D02*
X278001Y169797D01*
X275587Y172212D02*
X248920Y172212D01*
D16*
X98205Y50947D03*
D19*
X175768Y11938D02*
X177800Y0D01*
X175768Y11938D02*
X177800Y12700D01*
X152400Y12700D02*
X152400Y0D01*
X175006Y12700D02*
X175768Y11938D01*
D17*
X175006Y12700D02*
X152400Y12700D01*
D16*
X143195Y93157D03*
X143449Y82489D03*
X153863Y82235D03*
X166055Y82235D03*
D17*
X152146Y12819D02*
X152400Y12700D01*
X152146Y12819D02*
X152146Y44450D01*
X175768Y27940D02*
X175768Y12750D01*
D16*
X139639Y47691D03*
X152339Y47691D03*
X165039Y47691D03*
X139639Y34991D03*
X152339Y34991D03*
X165039Y34991D03*
X143449Y71567D03*
X295656Y110998D03*
D18*
X327660Y220048D02*
X327660Y222454D01*
D10*
X330200Y228600D01*
D16*
X261376Y137160D03*
X260604Y181610D03*
X264160Y70179D03*
X270265Y181365D03*
X325882Y174752D03*
X289052Y130233D03*
X302260Y182372D03*
X294640Y125523D03*
D10*
X279400Y215900D02*
X279400Y228600D01*
D16*
X309626Y184150D03*
X297688Y118237D03*
D10*
X304232Y228032D02*
X304800Y228600D01*
X304232Y228032D02*
X301883Y227771D01*
D16*
X323957Y101087D03*
D18*
X304800Y215900D02*
X304800Y228600D01*
D16*
X297942Y45466D03*
X308610Y45466D03*
X298196Y34290D03*
X308610Y34290D03*
X298196Y59690D03*
X297434Y73660D03*
X297434Y89154D03*
X288544Y82550D03*
D17*
X304800Y30285D02*
X304800Y12700D01*
X320294Y26162D02*
X328676Y17780D01*
X328676Y13766D01*
D16*
X319786Y34290D03*
X319532Y40640D03*
X297434Y82042D03*
X288290Y89408D03*
D20*
X330200Y12700D02*
X330200Y8890D01*
X328930Y7620D01*
X330200Y12700D02*
X330200Y0D01*
X328676Y1524D01*
X328676Y17780D01*
D10*
X25400Y215900D02*
X22860Y222708D01*
D16*
X73152Y117856D03*
X42164Y183388D03*
D10*
X73152Y117856D02*
X73152Y115570D01*
X69932Y112350D01*
X49702Y112350D01*
D16*
X38354Y160215D03*
D10*
X43262Y118790D02*
X49702Y112350D01*
X47975Y150386D02*
X38354Y160007D01*
X38354Y160215D01*
X43262Y135990D02*
X43262Y118790D01*
X47975Y140703D02*
X47975Y150386D01*
X47975Y140703D02*
X43262Y135990D01*
D16*
X113284Y145034D03*
D10*
X50800Y215900D02*
X48260Y222708D01*
X48260Y217170D02*
X50800Y215900D01*
X52832Y211328D01*
D16*
X97790Y96012D03*
X26162Y143510D03*
X323502Y131318D03*
D18*
X50800Y12700D02*
X48768Y10268D01*
X52890Y6146D01*
X52890Y8578D01*
D10*
X70104Y51308D02*
X70104Y51816D01*
D21*
X70104Y36576D01*
X70104Y16764D01*
X76200Y12700D01*
X70104Y36576D02*
X70358Y36830D01*
D16*
X65786Y94996D03*
X66548Y80264D03*
X51562Y80264D03*
X66548Y65024D03*
D17*
X72898Y13970D02*
X76200Y12700D01*
X72898Y13970D02*
X72898Y27432D01*
D16*
X50038Y50292D03*
X287528Y156972D03*
D17*
X59690Y41148D02*
X57681Y39139D01*
D22*
X49276Y39624D02*
X44196Y34544D01*
D17*
X50800Y32004D02*
X57707Y38911D01*
X50800Y32004D02*
X50800Y12700D01*
X57707Y38911D02*
X57681Y39139D01*
X50800Y12700D02*
X50800Y0D01*
X76200Y0D02*
X76200Y12700D01*
D16*
X58928Y50292D03*
X58928Y40132D03*
X67818Y50292D03*
X50038Y40132D03*
X67818Y40132D03*
D10*
X322486Y130302D02*
X323502Y131318D01*
X322486Y130302D02*
X297434Y130302D01*
X289560Y154940D02*
X287528Y156972D01*
X289560Y154940D02*
X289560Y138176D01*
X297434Y130302D01*
D16*
X219500Y108032D03*
X219500Y102190D03*
X218230Y147402D03*
X218230Y139782D03*
X225596Y108032D03*
X201466Y102190D03*
X68370Y127082D03*
X63544Y119208D03*
X70148Y163150D03*
X70148Y150450D03*
X70148Y137750D03*
X76498Y144100D03*
X76498Y131400D03*
X212642Y102190D03*
X225596Y102190D03*
X206800Y102190D03*
X316738Y138430D03*
X278384Y145796D03*
X299720Y140208D03*
X291592Y180594D03*
X74676Y96012D03*
X91581Y103124D03*
D21*
X81788Y103124D01*
X74676Y96012D01*
D16*
X81280Y113538D03*
X31496Y183388D03*
D10*
X79756Y113538D02*
X81280Y113538D01*
X79756Y113538D02*
X74930Y108712D01*
X33528Y158792D02*
X33528Y181356D01*
X39425Y116531D02*
X47244Y108712D01*
X33528Y181356D02*
X31496Y183388D01*
X39425Y137182D02*
X39425Y116531D01*
X47244Y108712D02*
X74930Y108712D01*
X44398Y147922D02*
X33528Y158792D01*
X44398Y142155D02*
X39425Y137182D01*
X44398Y142155D02*
X44398Y147922D01*
D16*
X126628Y143662D03*
X38354Y147828D03*
X60706Y182626D03*
X119941Y145341D03*
X299974Y106680D03*
D10*
X309687Y109281D02*
X309687Y116977D01*
X309687Y109281D02*
X307086Y106680D01*
X299974Y106680D01*
D16*
X295656Y100697D03*
D10*
X328827Y113675D02*
X329687Y116977D01*
X328827Y113675D02*
X326033Y110881D01*
X297321Y102362D02*
X295656Y100697D01*
X297321Y102362D02*
X310304Y102362D01*
X318823Y110881D01*
X326033Y110881D01*
X76200Y215900D02*
X73660Y222708D01*
M02*
