M48
;GenerationSoftware,Autodesk,EAGLE,9.6.2*%
;CreationDate,2024-03-23T11:54:52Z*%
FMAT,2
ICI,OFF
METRIC,TZ,000.000
T4C0.203
T3C0.300
T2C0.635
T1C1.016
%
G90
M71
T1
X27940Y1270
X12700Y21590
X30480Y1270
X10160Y21590
X33020Y1270
X7620Y21590
X5080Y21590
X5080Y1270
X2540Y21590
X7620Y1270
X10160Y1270
X33020Y21590
X12700Y1270
X30480Y21590
X15240Y1270
X27940Y21590
X17780Y1270
X25400Y21590
X20320Y1270
X22860Y21590
X20320Y21590
X22860Y1270
X17780Y21590
X25400Y1270
X15240Y21590
T2
X33020Y0
X22860Y22860
X7620Y0
X30480Y22860
X7620Y22860
X25400Y0
X10160Y0
X27940Y0
X2540Y22860
X30480Y0
X33020Y22860
X22860Y0
X27940Y22860
X25400Y22860
X20320Y22860
X17780Y22860
X15240Y22860
X12700Y22860
X12700Y0
X10160Y22860
X15240Y0
X5080Y0
X17780Y0
X5080Y22860
X20320Y0
T3
X26803Y10820
X25903Y10820
X25903Y9920
X26803Y9920
X27703Y9920
X27703Y11720
X26803Y11720
X25903Y11720
X27703Y10820
T4
X5461Y12649
X8588Y9703
X11151Y9957
X2184Y19533
X3200Y19533
X5994Y19533
X7264Y19533
X8534Y19533
X9804Y19533
X11328Y19533
X12598Y19533
X26822Y19533
X27838Y19533
X30124Y19533
X31902Y19533
X33934Y19533
X965Y12197
X965Y13721
X965Y14991
X965Y16261
X2515Y3307
X9093Y3561
X10129Y3531
X11145Y3531
X12161Y3531
X20467Y2896
X21356Y2921
X22093Y2896
X23642Y2896
X24328Y2896
X26690Y3251
X27376Y3251
X19324Y2896
X34031Y3531
X34031Y4801
X34031Y6071
X34031Y7341
X34031Y8865
X34031Y10389
X34031Y11913
X34215Y14129
X34215Y13113
X34215Y18161
X8788Y18517
X7264Y18517
X10058Y18517
X11074Y18517
X12090Y18517
X13106Y18517
X1854Y7493
X1854Y6553
X1854Y5613
X9195Y4216
X9957Y4216
X10719Y4216
X11481Y4216
X12243Y4216
X1854Y4293
X2642Y4293
X3302Y4293
X17805Y8280
X17932Y5207
X28677Y6883
X28651Y3912
X27173Y4293
X26157Y4293
X32436Y8992
X26035Y18847
X22479Y16053
X23063Y16027
X21971Y17196
X18898Y17704
X1778Y18542
X1778Y17272
X1778Y15748
X1778Y14478
X4875Y13378
X8331Y9246
X8865Y9246
X9068Y9703
X10668Y12395
X10668Y12947
X10668Y11811
X4928Y12649
X18390Y17475
X18517Y4572
X17958Y4572
X31648Y18745
X27043Y15773
X32487Y8001
X32995Y6020
X32995Y7366
X32995Y8636
X3150Y12649
X2591Y8001
X26545Y15764
X30939Y15399
X25445Y3251
X26030Y3251
X28036Y3226
X12072Y12640
X24001Y13616
X27800Y16980
X32995Y5309
X14476Y19839
X15492Y19839
X16508Y19839
X17524Y19839
X18540Y19839
X19556Y19839
X20572Y19839
X14476Y18823
X15492Y18823
X16508Y18823
X17524Y18823
X18540Y18823
X19556Y18823
X20572Y18823
X24763Y15521
X24763Y12981
X24001Y12346
X24001Y16156
X9821Y5095
X14320Y9316
X14345Y8249
X15386Y8224
X16606Y8224
X13964Y4769
X15234Y4769
X16504Y4769
X13964Y3499
X15234Y3499
X16504Y3499
X14345Y7157
X29566Y11100
X26138Y13716
X26060Y18161
X26416Y7018
X27027Y18137
X32588Y17475
X28905Y13023
X30226Y18237
X29464Y12552
X30963Y18415
X29769Y11824
X32396Y10109
X29794Y4547
X30861Y4547
X29820Y3429
X30861Y3429
X29820Y5969
X29743Y7366
X29743Y8915
X28854Y8255
X31979Y3429
X31953Y4064
X29743Y8204
X28829Y8941
X7315Y11786
X4216Y18339
X3835Y16022
X11328Y14503
X9779Y9601
X2616Y14351
X32350Y13132
X6579Y9500
X6655Y8026
X5156Y8026
X6655Y6502
X5004Y5029
X28753Y15697
X5893Y5029
X5893Y4013
X6782Y5029
X5004Y4013
X6782Y4013
X21950Y10803
X21950Y10219
X21823Y14740
X21823Y13978
X22560Y10803
X20147Y10219
X6837Y12708
X6354Y11921
X12810Y12640
X7015Y15045
X7015Y13775
X7650Y14410
X7650Y13140
X21264Y10219
X22560Y10219
X20680Y10219
X31674Y13843
X27838Y14580
X29972Y14021
X29159Y18059
X7468Y9601
X9158Y10312
X8128Y11354
X3150Y18339
X12663Y14366
X3835Y14783
X6071Y18263
X11994Y14534
X29997Y10668
X29566Y10070
X13545Y12640
X14359Y12640
X12453Y12182
X13191Y12182
X13953Y12182
X12072Y11699
X12810Y11699
X13545Y11699
X14359Y11699
X991Y19436
X965Y17633
X965Y10673
X965Y9403
X965Y8133
X965Y6863
X965Y5593
X965Y4323
X991Y3307
X24763Y14251
X34215Y17145
X34215Y16145
X34215Y15145
X28372Y18136
X26873Y18872
X21971Y17932
X16383Y17907
X15672Y17907
X14783Y17907
X13767Y17907
X12725Y17907
X11684Y17907
X22581Y14757
X22555Y13919
X2667Y4953
X3302Y4953
X9195Y7264
X9195Y6248
X9195Y5232
X8693Y14548
X32995Y6706
X30048Y14783
X28651Y7468
X28677Y6198
X28321Y4470
X9703Y8230
X11674Y9932
X12167Y7188
X12167Y8204
X12471Y5258
X18517Y5182
X18466Y8280
X23978Y9931
X2540Y13360
X2453Y16587
X26035Y4953
X8026Y18517
X9576Y17907
X10668Y17907
X7015Y16315
M30