M48
;GenerationSoftware,Autodesk,EAGLE,9.6.2*%
;CreationDate,2024-04-03T09:31:07Z*%
FMAT,2
ICI,OFF
METRIC,TZ,000.000
T3C0.350
T2C0.635
T1C1.016
%
G90
M71
T1
X33020Y1270
X5080Y1270
X22860Y1270
X7620Y1270
X22860Y21590
X10160Y1270
X33020Y21590
X12700Y1270
X25400Y1270
X15240Y1270
X30480Y1270
X17780Y1270
X27940Y1270
X20320Y1270
X30480Y21590
X27940Y21590
X25400Y21590
X20320Y21590
X17780Y21590
X15240Y21590
X12700Y21590
X10160Y21590
X7620Y21590
X5080Y21590
X2540Y21590
T2
X10160Y0
X33020Y22860
X22860Y0
X30480Y22860
X5080Y0
X27940Y22860
X7620Y0
X25400Y22860
X22860Y22860
X12700Y0
X20320Y22860
X15240Y0
X17780Y22860
X17780Y0
X15240Y22860
X20320Y0
X12700Y22860
X25400Y0
X10160Y22860
X27940Y0
X7620Y22860
X30480Y0
X5080Y22860
X33020Y0
X2540Y22860
T3
X14600Y12400
X14600Y10800
X16200Y8300
X15300Y8500
X14354Y19165
X24500Y19111
X23200Y19111
X19300Y19111
X16600Y19111
X13200Y16500
X13200Y15100
X13200Y13700
X13200Y12200
X13200Y10600
X13200Y17700
X13300Y19000
X25850Y19111
X21900Y19111
X20650Y19111
X24276Y7781
X15400Y19111
X2493Y11965
X2493Y10949
X2493Y9933
X32812Y5060
X32975Y13492
X32975Y12476
X32975Y11460
X11841Y4923
X30607Y6299
X27227Y17757
X19340Y8799
X25527Y8238
X25700Y14132
X5400Y3900
X32893Y18415
X14046Y20523
X5224Y16530
X5461Y18288
X11000Y14930
X9900Y14930
X8800Y14930
X7700Y13530
X8462Y12784
X8462Y11584
X9624Y11400
X9500Y10200
X9500Y9200
X10800Y8200
X10800Y7100
X24100Y4400
X24100Y5600
X24100Y6800
X23200Y7600
X23200Y8700
X24300Y8700
X25800Y6400
X24911Y5200
X25938Y5200
X28500Y12984
X28500Y11184
X27400Y11184
X27400Y12084
X27400Y12984
X29927Y12984
X29927Y12084
X29927Y11184
X23481Y12684
X24452Y12684
X26400Y12984
X26400Y12084
X18100Y19111
X26400Y11184
X22000Y9800
X22000Y8900
X28500Y12084
X25773Y17711
X24573Y17711
X23173Y17711
X21773Y17711
X20373Y17711
X18923Y17711
X17773Y17711
X16523Y17711
X15558Y17688
X14600Y17400
X14600Y16100
X14600Y14700
X14600Y13600
M30