G04 EAGLE Gerber RS-274X export*
G75*
%MOMM*%
%FSLAX34Y34*%
%LPD*%
%INSolderpaste Top*%
%IPPOS*%
%AMOC8*
5,1,8,0,0,1.08239X$1,22.5*%
G01*
%ADD10R,0.800000X2.000000*%
%ADD11R,3.500000X2.600000*%
%ADD12R,2.540000X2.540000*%
%ADD13R,3.400000X1.850000*%
%ADD14R,0.609600X0.457200*%
%ADD15R,0.457200X0.609600*%
%ADD16R,1.041400X0.711200*%
%ADD17R,3.000000X1.000000*%
%ADD18R,0.475000X0.300000*%
%ADD19R,0.711200X1.041400*%
%ADD20R,0.450000X0.600000*%
%ADD21R,0.550000X0.450000*%
%ADD22R,0.450000X0.550000*%
%ADD23R,0.850000X1.300000*%
%ADD24R,1.100000X1.650000*%
%ADD25R,1.270000X0.508000*%
%ADD26R,0.400000X0.450000*%
%ADD27R,0.450000X0.400000*%
%ADD28R,0.370000X0.450000*%


D10*
X268220Y91820D03*
X280920Y91820D03*
X293620Y91820D03*
X306320Y91820D03*
X306320Y147320D03*
X293620Y147320D03*
X280920Y147320D03*
X268220Y147320D03*
D11*
X287270Y119570D03*
D12*
X239460Y153323D03*
X239460Y106333D03*
D13*
X188754Y158086D03*
X188754Y102586D03*
D14*
X100000Y163474D03*
X100000Y173126D03*
D15*
X64826Y133030D03*
X55174Y133030D03*
X71826Y179300D03*
X62174Y179300D03*
D16*
X110000Y173793D03*
X110000Y158807D03*
D15*
X32964Y101140D03*
X42616Y101140D03*
X32964Y119810D03*
X42616Y119810D03*
D17*
X32500Y173300D03*
X32500Y153300D03*
D18*
X75380Y160300D03*
X75380Y165300D03*
X75380Y170300D03*
X58620Y170300D03*
X58620Y165300D03*
X58620Y160300D03*
D15*
X55174Y150300D03*
X64826Y150300D03*
X71174Y150300D03*
X80826Y150300D03*
D14*
X84000Y163474D03*
X84000Y173126D03*
X92000Y163474D03*
X92000Y173126D03*
D15*
X32964Y110410D03*
X42616Y110410D03*
D19*
X283763Y50570D03*
X268777Y50570D03*
D20*
X291970Y165570D03*
X282570Y165570D03*
D21*
X316460Y108270D03*
X316460Y98870D03*
D20*
X264970Y72570D03*
X255570Y72570D03*
X296970Y183570D03*
X287570Y183570D03*
D22*
X288970Y175570D03*
X279570Y175570D03*
X304970Y175570D03*
X295570Y175570D03*
X314970Y165570D03*
X305570Y165570D03*
D15*
X271444Y62570D03*
X281096Y62570D03*
X271444Y72570D03*
X281096Y72570D03*
X212096Y86570D03*
X202444Y86570D03*
X212096Y78570D03*
X202444Y78570D03*
X55174Y142300D03*
X64826Y142300D03*
D23*
X54000Y121430D03*
X70500Y121430D03*
X202270Y67078D03*
X218770Y67078D03*
D24*
X53500Y102160D03*
X80500Y102160D03*
X202770Y49610D03*
X229770Y49610D03*
D25*
X54300Y65000D03*
X54300Y74525D03*
X54300Y55475D03*
X79700Y65000D03*
X79700Y55475D03*
X79700Y74525D03*
D20*
X79700Y45000D03*
X70300Y45000D03*
D26*
X53950Y45000D03*
X60050Y45000D03*
D27*
X94000Y61050D03*
X94000Y54950D03*
D26*
X93950Y75000D03*
X100050Y75000D03*
D28*
X94050Y68000D03*
X99950Y68000D03*
D22*
X298070Y72390D03*
X288670Y72390D03*
D15*
X298450Y62992D03*
X288798Y62992D03*
X165100Y74422D03*
X174752Y74422D03*
M02*
