G04 EAGLE Gerber RS-274X export*
G75*
%MOMM*%
%FSLAX34Y34*%
%LPD*%
%INSilkscreen Bottom*%
%IPPOS*%
%AMOC8*
5,1,8,0,0,1.08239X$1,22.5*%
G01*
%ADD10C,0.076200*%
%ADD11C,0.050800*%
%ADD12R,6.146800X6.146800*%


D10*
X125633Y165047D02*
X128907Y165047D01*
X128907Y172413D01*
X125633Y172413D01*
X126451Y169140D02*
X128907Y169140D01*
X122567Y172413D02*
X122567Y165047D01*
X119293Y165047D01*
X116227Y165047D02*
X112953Y165047D01*
X116227Y165047D02*
X116227Y172413D01*
X112953Y172413D01*
X113772Y169140D02*
X116227Y169140D01*
X109785Y172413D02*
X109785Y165047D01*
X109785Y167912D02*
X105693Y172413D01*
X108149Y169549D02*
X105693Y165047D01*
X101273Y165047D02*
X101273Y172413D01*
X103319Y172413D02*
X99227Y172413D01*
X96197Y172413D02*
X96197Y165047D01*
X96197Y172413D02*
X94151Y172413D01*
X94062Y172411D01*
X93973Y172405D01*
X93884Y172395D01*
X93796Y172382D01*
X93708Y172365D01*
X93621Y172343D01*
X93536Y172318D01*
X93451Y172290D01*
X93368Y172257D01*
X93286Y172221D01*
X93206Y172182D01*
X93128Y172139D01*
X93052Y172093D01*
X92977Y172043D01*
X92905Y171990D01*
X92836Y171934D01*
X92769Y171875D01*
X92704Y171814D01*
X92643Y171749D01*
X92584Y171682D01*
X92528Y171613D01*
X92475Y171541D01*
X92425Y171466D01*
X92379Y171390D01*
X92336Y171312D01*
X92297Y171232D01*
X92261Y171150D01*
X92228Y171067D01*
X92200Y170982D01*
X92175Y170897D01*
X92153Y170810D01*
X92136Y170722D01*
X92123Y170634D01*
X92113Y170545D01*
X92107Y170456D01*
X92105Y170367D01*
X92107Y170278D01*
X92113Y170189D01*
X92123Y170100D01*
X92136Y170012D01*
X92153Y169924D01*
X92175Y169837D01*
X92200Y169752D01*
X92228Y169667D01*
X92261Y169584D01*
X92297Y169502D01*
X92336Y169422D01*
X92379Y169344D01*
X92425Y169268D01*
X92475Y169193D01*
X92528Y169121D01*
X92584Y169052D01*
X92643Y168985D01*
X92704Y168920D01*
X92769Y168859D01*
X92836Y168800D01*
X92905Y168744D01*
X92977Y168691D01*
X93052Y168641D01*
X93128Y168595D01*
X93206Y168552D01*
X93286Y168513D01*
X93368Y168477D01*
X93451Y168444D01*
X93536Y168416D01*
X93621Y168391D01*
X93708Y168369D01*
X93796Y168352D01*
X93884Y168339D01*
X93973Y168329D01*
X94062Y168323D01*
X94151Y168321D01*
X96197Y168321D01*
X93742Y168321D02*
X92105Y165047D01*
X89342Y165047D02*
X86887Y172413D01*
X84431Y165047D01*
X85045Y166889D02*
X88728Y166889D01*
X81539Y167912D02*
X76629Y167912D01*
X72966Y165047D02*
X72966Y172413D01*
X70920Y172413D01*
X70831Y172411D01*
X70742Y172405D01*
X70653Y172395D01*
X70565Y172382D01*
X70477Y172365D01*
X70390Y172343D01*
X70305Y172318D01*
X70220Y172290D01*
X70137Y172257D01*
X70055Y172221D01*
X69975Y172182D01*
X69897Y172139D01*
X69821Y172093D01*
X69746Y172043D01*
X69674Y171990D01*
X69605Y171934D01*
X69538Y171875D01*
X69473Y171814D01*
X69412Y171749D01*
X69353Y171682D01*
X69297Y171613D01*
X69244Y171541D01*
X69194Y171466D01*
X69148Y171390D01*
X69105Y171312D01*
X69066Y171232D01*
X69030Y171150D01*
X68997Y171067D01*
X68969Y170982D01*
X68944Y170897D01*
X68922Y170810D01*
X68905Y170722D01*
X68892Y170634D01*
X68882Y170545D01*
X68876Y170456D01*
X68874Y170367D01*
X68876Y170278D01*
X68882Y170189D01*
X68892Y170100D01*
X68905Y170012D01*
X68922Y169924D01*
X68944Y169837D01*
X68969Y169752D01*
X68997Y169667D01*
X69030Y169584D01*
X69066Y169502D01*
X69105Y169422D01*
X69148Y169344D01*
X69194Y169268D01*
X69244Y169193D01*
X69297Y169121D01*
X69353Y169052D01*
X69412Y168985D01*
X69473Y168920D01*
X69538Y168859D01*
X69605Y168800D01*
X69674Y168744D01*
X69746Y168691D01*
X69821Y168641D01*
X69897Y168595D01*
X69975Y168552D01*
X70055Y168513D01*
X70137Y168477D01*
X70220Y168444D01*
X70305Y168416D01*
X70390Y168391D01*
X70477Y168369D01*
X70565Y168352D01*
X70653Y168339D01*
X70742Y168329D01*
X70831Y168323D01*
X70920Y168321D01*
X72966Y168321D01*
X65690Y165047D02*
X65690Y172413D01*
X63234Y168321D01*
X60779Y172413D01*
X60779Y165047D01*
X56651Y165047D02*
X56651Y172413D01*
X57469Y165047D02*
X55832Y165047D01*
X55832Y172413D02*
X57469Y172413D01*
X51231Y165047D02*
X49594Y165047D01*
X51231Y165047D02*
X51309Y165049D01*
X51387Y165054D01*
X51464Y165064D01*
X51541Y165077D01*
X51617Y165093D01*
X51692Y165113D01*
X51766Y165137D01*
X51839Y165164D01*
X51911Y165195D01*
X51981Y165229D01*
X52050Y165266D01*
X52116Y165307D01*
X52181Y165351D01*
X52243Y165397D01*
X52303Y165447D01*
X52361Y165499D01*
X52416Y165554D01*
X52468Y165612D01*
X52518Y165672D01*
X52564Y165734D01*
X52608Y165799D01*
X52649Y165866D01*
X52686Y165934D01*
X52720Y166004D01*
X52751Y166076D01*
X52778Y166149D01*
X52802Y166223D01*
X52822Y166298D01*
X52838Y166374D01*
X52851Y166451D01*
X52861Y166528D01*
X52866Y166606D01*
X52868Y166684D01*
X52868Y170777D01*
X52866Y170855D01*
X52861Y170933D01*
X52851Y171010D01*
X52838Y171087D01*
X52822Y171163D01*
X52802Y171238D01*
X52778Y171312D01*
X52751Y171385D01*
X52720Y171457D01*
X52686Y171527D01*
X52649Y171596D01*
X52608Y171662D01*
X52564Y171727D01*
X52518Y171789D01*
X52468Y171849D01*
X52416Y171907D01*
X52361Y171962D01*
X52303Y172014D01*
X52243Y172064D01*
X52181Y172110D01*
X52116Y172154D01*
X52050Y172195D01*
X51981Y172232D01*
X51911Y172266D01*
X51839Y172297D01*
X51766Y172324D01*
X51692Y172348D01*
X51617Y172368D01*
X51541Y172384D01*
X51464Y172397D01*
X51387Y172407D01*
X51309Y172412D01*
X51231Y172414D01*
X51231Y172413D02*
X49594Y172413D01*
X43170Y169958D02*
X41533Y165047D01*
X39896Y169958D01*
X36995Y168730D02*
X36993Y168883D01*
X36987Y169036D01*
X36978Y169188D01*
X36964Y169341D01*
X36947Y169493D01*
X36926Y169644D01*
X36901Y169795D01*
X36872Y169945D01*
X36840Y170095D01*
X36803Y170243D01*
X36763Y170391D01*
X36720Y170538D01*
X36672Y170683D01*
X36621Y170827D01*
X36567Y170970D01*
X36508Y171112D01*
X36447Y171251D01*
X36381Y171390D01*
X36355Y171460D01*
X36325Y171529D01*
X36293Y171597D01*
X36256Y171663D01*
X36217Y171727D01*
X36174Y171789D01*
X36129Y171848D01*
X36080Y171906D01*
X36029Y171960D01*
X35975Y172013D01*
X35918Y172062D01*
X35859Y172109D01*
X35798Y172152D01*
X35735Y172193D01*
X35670Y172230D01*
X35603Y172265D01*
X35534Y172295D01*
X35464Y172323D01*
X35393Y172346D01*
X35321Y172367D01*
X35248Y172383D01*
X35174Y172396D01*
X35099Y172406D01*
X35024Y172411D01*
X34949Y172413D01*
X34874Y172411D01*
X34799Y172406D01*
X34724Y172396D01*
X34650Y172383D01*
X34577Y172367D01*
X34505Y172346D01*
X34434Y172323D01*
X34364Y172295D01*
X34295Y172265D01*
X34228Y172230D01*
X34163Y172193D01*
X34100Y172152D01*
X34039Y172109D01*
X33980Y172062D01*
X33923Y172013D01*
X33869Y171960D01*
X33818Y171906D01*
X33770Y171848D01*
X33724Y171789D01*
X33681Y171727D01*
X33642Y171663D01*
X33606Y171597D01*
X33573Y171530D01*
X33543Y171460D01*
X33517Y171390D01*
X33452Y171252D01*
X33390Y171112D01*
X33332Y170970D01*
X33277Y170827D01*
X33226Y170683D01*
X33178Y170538D01*
X33135Y170391D01*
X33095Y170244D01*
X33058Y170095D01*
X33026Y169945D01*
X32997Y169795D01*
X32972Y169644D01*
X32951Y169493D01*
X32934Y169341D01*
X32920Y169188D01*
X32911Y169036D01*
X32905Y168883D01*
X32903Y168730D01*
X36996Y168730D02*
X36994Y168577D01*
X36988Y168424D01*
X36979Y168271D01*
X36965Y168119D01*
X36948Y167967D01*
X36927Y167816D01*
X36902Y167665D01*
X36873Y167514D01*
X36841Y167365D01*
X36804Y167216D01*
X36764Y167069D01*
X36721Y166922D01*
X36673Y166777D01*
X36622Y166632D01*
X36567Y166490D01*
X36509Y166348D01*
X36447Y166208D01*
X36382Y166070D01*
X36381Y166071D02*
X36355Y166001D01*
X36325Y165931D01*
X36293Y165864D01*
X36256Y165798D01*
X36217Y165734D01*
X36174Y165672D01*
X36128Y165613D01*
X36080Y165555D01*
X36029Y165501D01*
X35975Y165448D01*
X35918Y165399D01*
X35859Y165352D01*
X35798Y165309D01*
X35735Y165268D01*
X35670Y165231D01*
X35603Y165196D01*
X35534Y165166D01*
X35464Y165138D01*
X35393Y165115D01*
X35321Y165094D01*
X35248Y165078D01*
X35174Y165065D01*
X35099Y165055D01*
X35024Y165050D01*
X34949Y165048D01*
X33517Y166070D02*
X33452Y166208D01*
X33390Y166348D01*
X33332Y166490D01*
X33277Y166633D01*
X33226Y166777D01*
X33178Y166922D01*
X33135Y167069D01*
X33095Y167217D01*
X33058Y167365D01*
X33026Y167515D01*
X32997Y167665D01*
X32972Y167816D01*
X32951Y167967D01*
X32934Y168119D01*
X32920Y168272D01*
X32911Y168424D01*
X32905Y168577D01*
X32903Y168730D01*
X33517Y166071D02*
X33543Y166000D01*
X33573Y165931D01*
X33606Y165864D01*
X33642Y165798D01*
X33681Y165734D01*
X33724Y165672D01*
X33770Y165613D01*
X33818Y165555D01*
X33869Y165501D01*
X33923Y165448D01*
X33980Y165399D01*
X34039Y165352D01*
X34100Y165309D01*
X34163Y165268D01*
X34228Y165231D01*
X34295Y165196D01*
X34364Y165166D01*
X34434Y165138D01*
X34505Y165115D01*
X34577Y165094D01*
X34650Y165078D01*
X34724Y165065D01*
X34799Y165055D01*
X34874Y165050D01*
X34949Y165048D01*
X36586Y166684D02*
X33312Y170777D01*
X30033Y165457D02*
X30033Y165047D01*
X30033Y165457D02*
X29624Y165457D01*
X29624Y165047D01*
X30033Y165047D01*
X26754Y165047D02*
X24708Y165047D01*
X24708Y165048D02*
X24619Y165050D01*
X24530Y165056D01*
X24441Y165066D01*
X24353Y165079D01*
X24265Y165096D01*
X24178Y165118D01*
X24093Y165143D01*
X24008Y165171D01*
X23925Y165204D01*
X23843Y165240D01*
X23763Y165279D01*
X23685Y165322D01*
X23609Y165368D01*
X23534Y165418D01*
X23462Y165471D01*
X23393Y165527D01*
X23326Y165586D01*
X23261Y165647D01*
X23200Y165712D01*
X23141Y165779D01*
X23085Y165848D01*
X23032Y165920D01*
X22982Y165995D01*
X22936Y166071D01*
X22893Y166149D01*
X22854Y166229D01*
X22818Y166311D01*
X22785Y166394D01*
X22757Y166479D01*
X22732Y166564D01*
X22710Y166651D01*
X22693Y166739D01*
X22680Y166827D01*
X22670Y166916D01*
X22664Y167005D01*
X22662Y167094D01*
X22664Y167183D01*
X22670Y167272D01*
X22680Y167361D01*
X22693Y167449D01*
X22710Y167537D01*
X22732Y167624D01*
X22757Y167709D01*
X22785Y167794D01*
X22818Y167877D01*
X22854Y167959D01*
X22893Y168039D01*
X22936Y168117D01*
X22982Y168193D01*
X23032Y168268D01*
X23085Y168340D01*
X23141Y168409D01*
X23200Y168476D01*
X23261Y168541D01*
X23326Y168602D01*
X23393Y168661D01*
X23462Y168717D01*
X23534Y168770D01*
X23609Y168820D01*
X23685Y168866D01*
X23763Y168909D01*
X23843Y168948D01*
X23925Y168984D01*
X24008Y169017D01*
X24093Y169045D01*
X24178Y169070D01*
X24265Y169092D01*
X24353Y169109D01*
X24441Y169122D01*
X24530Y169132D01*
X24619Y169138D01*
X24708Y169140D01*
X24299Y172413D02*
X26754Y172413D01*
X24299Y172414D02*
X24220Y172412D01*
X24141Y172406D01*
X24062Y172397D01*
X23984Y172384D01*
X23907Y172366D01*
X23831Y172346D01*
X23756Y172321D01*
X23682Y172293D01*
X23609Y172262D01*
X23538Y172226D01*
X23469Y172188D01*
X23402Y172146D01*
X23337Y172101D01*
X23274Y172053D01*
X23213Y172002D01*
X23156Y171948D01*
X23100Y171892D01*
X23048Y171833D01*
X22998Y171771D01*
X22952Y171707D01*
X22908Y171641D01*
X22868Y171573D01*
X22832Y171503D01*
X22798Y171431D01*
X22768Y171357D01*
X22742Y171283D01*
X22719Y171207D01*
X22701Y171130D01*
X22685Y171053D01*
X22674Y170974D01*
X22666Y170896D01*
X22662Y170817D01*
X22662Y170737D01*
X22666Y170658D01*
X22674Y170580D01*
X22685Y170501D01*
X22701Y170424D01*
X22719Y170347D01*
X22742Y170271D01*
X22768Y170197D01*
X22798Y170123D01*
X22832Y170051D01*
X22868Y169981D01*
X22908Y169913D01*
X22952Y169847D01*
X22998Y169783D01*
X23048Y169721D01*
X23100Y169662D01*
X23156Y169606D01*
X23213Y169552D01*
X23274Y169501D01*
X23337Y169453D01*
X23402Y169408D01*
X23469Y169366D01*
X23538Y169328D01*
X23609Y169292D01*
X23682Y169261D01*
X23756Y169233D01*
X23831Y169208D01*
X23907Y169188D01*
X23984Y169170D01*
X24062Y169157D01*
X24141Y169148D01*
X24220Y169142D01*
X24299Y169140D01*
X25935Y169140D01*
X124977Y159063D02*
X124979Y159148D01*
X124985Y159233D01*
X124995Y159317D01*
X125008Y159401D01*
X125026Y159485D01*
X125047Y159567D01*
X125072Y159648D01*
X125101Y159728D01*
X125134Y159807D01*
X125170Y159884D01*
X125210Y159959D01*
X125253Y160033D01*
X125299Y160104D01*
X125349Y160173D01*
X125402Y160240D01*
X125458Y160304D01*
X125517Y160365D01*
X125578Y160424D01*
X125642Y160480D01*
X125709Y160533D01*
X125778Y160583D01*
X125849Y160629D01*
X125923Y160672D01*
X125998Y160712D01*
X126075Y160748D01*
X126154Y160781D01*
X126234Y160810D01*
X126315Y160835D01*
X126397Y160856D01*
X126481Y160874D01*
X126565Y160887D01*
X126649Y160897D01*
X126734Y160903D01*
X126819Y160905D01*
X126915Y160903D01*
X127011Y160897D01*
X127106Y160887D01*
X127201Y160874D01*
X127296Y160856D01*
X127389Y160835D01*
X127482Y160810D01*
X127573Y160781D01*
X127664Y160749D01*
X127753Y160713D01*
X127840Y160673D01*
X127926Y160630D01*
X128010Y160584D01*
X128092Y160534D01*
X128172Y160480D01*
X128249Y160424D01*
X128324Y160364D01*
X128397Y160302D01*
X128467Y160236D01*
X128535Y160168D01*
X128600Y160097D01*
X128661Y160024D01*
X128720Y159948D01*
X128776Y159869D01*
X128828Y159789D01*
X128877Y159706D01*
X128923Y159622D01*
X128965Y159536D01*
X129003Y159448D01*
X129038Y159359D01*
X129070Y159268D01*
X125592Y157631D02*
X125532Y157690D01*
X125475Y157752D01*
X125420Y157816D01*
X125369Y157883D01*
X125320Y157952D01*
X125274Y158022D01*
X125231Y158095D01*
X125191Y158169D01*
X125155Y158245D01*
X125122Y158323D01*
X125092Y158402D01*
X125065Y158482D01*
X125042Y158563D01*
X125023Y158645D01*
X125007Y158727D01*
X124994Y158811D01*
X124985Y158895D01*
X124980Y158979D01*
X124978Y159063D01*
X125591Y157631D02*
X129070Y153539D01*
X124978Y153539D01*
X121754Y157222D02*
X121752Y157375D01*
X121746Y157528D01*
X121737Y157680D01*
X121723Y157833D01*
X121706Y157985D01*
X121685Y158136D01*
X121660Y158287D01*
X121631Y158437D01*
X121599Y158587D01*
X121562Y158735D01*
X121522Y158883D01*
X121479Y159030D01*
X121431Y159175D01*
X121380Y159319D01*
X121326Y159462D01*
X121267Y159604D01*
X121206Y159743D01*
X121140Y159882D01*
X121141Y159882D02*
X121115Y159952D01*
X121085Y160021D01*
X121053Y160089D01*
X121016Y160155D01*
X120977Y160219D01*
X120934Y160281D01*
X120889Y160340D01*
X120840Y160398D01*
X120789Y160452D01*
X120735Y160505D01*
X120678Y160554D01*
X120619Y160601D01*
X120558Y160644D01*
X120495Y160685D01*
X120430Y160722D01*
X120363Y160757D01*
X120294Y160787D01*
X120224Y160815D01*
X120153Y160838D01*
X120081Y160859D01*
X120008Y160875D01*
X119934Y160888D01*
X119859Y160898D01*
X119784Y160903D01*
X119709Y160905D01*
X119634Y160903D01*
X119559Y160898D01*
X119484Y160888D01*
X119410Y160875D01*
X119337Y160859D01*
X119265Y160838D01*
X119194Y160815D01*
X119124Y160787D01*
X119055Y160757D01*
X118988Y160722D01*
X118923Y160685D01*
X118860Y160644D01*
X118799Y160601D01*
X118740Y160554D01*
X118683Y160505D01*
X118629Y160452D01*
X118578Y160398D01*
X118530Y160340D01*
X118484Y160281D01*
X118441Y160219D01*
X118402Y160155D01*
X118366Y160089D01*
X118333Y160022D01*
X118303Y159952D01*
X118277Y159882D01*
X118276Y159882D02*
X118211Y159744D01*
X118149Y159604D01*
X118091Y159462D01*
X118036Y159319D01*
X117985Y159175D01*
X117937Y159030D01*
X117894Y158883D01*
X117854Y158736D01*
X117817Y158587D01*
X117785Y158437D01*
X117756Y158287D01*
X117731Y158136D01*
X117710Y157985D01*
X117693Y157833D01*
X117679Y157680D01*
X117670Y157528D01*
X117664Y157375D01*
X117662Y157222D01*
X121755Y157222D02*
X121753Y157069D01*
X121747Y156916D01*
X121738Y156763D01*
X121724Y156611D01*
X121707Y156459D01*
X121686Y156308D01*
X121661Y156157D01*
X121632Y156006D01*
X121600Y155857D01*
X121563Y155708D01*
X121523Y155561D01*
X121480Y155414D01*
X121432Y155269D01*
X121381Y155124D01*
X121326Y154982D01*
X121268Y154840D01*
X121206Y154700D01*
X121141Y154562D01*
X121115Y154492D01*
X121085Y154422D01*
X121053Y154355D01*
X121016Y154289D01*
X120977Y154225D01*
X120934Y154163D01*
X120888Y154104D01*
X120840Y154046D01*
X120789Y153992D01*
X120735Y153939D01*
X120678Y153890D01*
X120619Y153843D01*
X120558Y153800D01*
X120495Y153759D01*
X120430Y153722D01*
X120363Y153687D01*
X120294Y153657D01*
X120224Y153629D01*
X120153Y153606D01*
X120081Y153585D01*
X120008Y153569D01*
X119934Y153556D01*
X119859Y153546D01*
X119784Y153541D01*
X119709Y153539D01*
X118277Y154562D02*
X118212Y154700D01*
X118150Y154840D01*
X118092Y154982D01*
X118037Y155125D01*
X117986Y155269D01*
X117938Y155414D01*
X117895Y155561D01*
X117855Y155709D01*
X117818Y155857D01*
X117786Y156007D01*
X117757Y156157D01*
X117732Y156308D01*
X117711Y156459D01*
X117694Y156611D01*
X117680Y156764D01*
X117671Y156916D01*
X117665Y157069D01*
X117663Y157222D01*
X118277Y154562D02*
X118303Y154491D01*
X118333Y154422D01*
X118366Y154355D01*
X118402Y154289D01*
X118441Y154225D01*
X118484Y154163D01*
X118530Y154104D01*
X118578Y154046D01*
X118629Y153992D01*
X118683Y153939D01*
X118740Y153890D01*
X118799Y153843D01*
X118860Y153800D01*
X118923Y153759D01*
X118988Y153722D01*
X119055Y153687D01*
X119124Y153657D01*
X119194Y153629D01*
X119265Y153606D01*
X119337Y153585D01*
X119410Y153569D01*
X119484Y153556D01*
X119559Y153546D01*
X119634Y153541D01*
X119709Y153539D01*
X121345Y155176D02*
X118072Y159268D01*
X112189Y160905D02*
X112104Y160903D01*
X112019Y160897D01*
X111935Y160887D01*
X111851Y160874D01*
X111767Y160856D01*
X111685Y160835D01*
X111604Y160810D01*
X111524Y160781D01*
X111445Y160748D01*
X111368Y160712D01*
X111293Y160672D01*
X111219Y160629D01*
X111148Y160583D01*
X111079Y160533D01*
X111012Y160480D01*
X110948Y160424D01*
X110887Y160365D01*
X110828Y160304D01*
X110772Y160240D01*
X110719Y160173D01*
X110669Y160104D01*
X110623Y160033D01*
X110580Y159959D01*
X110540Y159884D01*
X110504Y159807D01*
X110471Y159728D01*
X110442Y159648D01*
X110417Y159567D01*
X110396Y159485D01*
X110378Y159401D01*
X110365Y159317D01*
X110355Y159233D01*
X110349Y159148D01*
X110347Y159063D01*
X112189Y160905D02*
X112285Y160903D01*
X112381Y160897D01*
X112476Y160887D01*
X112571Y160874D01*
X112666Y160856D01*
X112759Y160835D01*
X112852Y160810D01*
X112943Y160781D01*
X113034Y160749D01*
X113123Y160713D01*
X113210Y160673D01*
X113296Y160630D01*
X113380Y160584D01*
X113462Y160534D01*
X113542Y160480D01*
X113619Y160424D01*
X113694Y160364D01*
X113767Y160302D01*
X113837Y160236D01*
X113905Y160168D01*
X113970Y160097D01*
X114031Y160024D01*
X114090Y159948D01*
X114146Y159869D01*
X114198Y159789D01*
X114247Y159706D01*
X114293Y159622D01*
X114335Y159536D01*
X114373Y159448D01*
X114408Y159359D01*
X114440Y159268D01*
X110961Y157631D02*
X110901Y157690D01*
X110844Y157752D01*
X110789Y157816D01*
X110738Y157883D01*
X110689Y157952D01*
X110643Y158022D01*
X110600Y158095D01*
X110560Y158169D01*
X110524Y158245D01*
X110491Y158323D01*
X110461Y158402D01*
X110434Y158482D01*
X110411Y158563D01*
X110392Y158645D01*
X110376Y158727D01*
X110363Y158811D01*
X110354Y158895D01*
X110349Y158979D01*
X110347Y159063D01*
X110961Y157631D02*
X114439Y153539D01*
X110347Y153539D01*
X107124Y155176D02*
X105487Y160905D01*
X107124Y155176D02*
X103032Y155176D01*
X104260Y156813D02*
X104260Y153539D01*
X99809Y157222D02*
X99807Y157375D01*
X99801Y157528D01*
X99792Y157680D01*
X99778Y157833D01*
X99761Y157985D01*
X99740Y158136D01*
X99715Y158287D01*
X99686Y158437D01*
X99654Y158587D01*
X99617Y158735D01*
X99577Y158883D01*
X99534Y159030D01*
X99486Y159175D01*
X99435Y159319D01*
X99381Y159462D01*
X99322Y159604D01*
X99261Y159743D01*
X99195Y159882D01*
X99169Y159952D01*
X99139Y160021D01*
X99107Y160089D01*
X99070Y160155D01*
X99031Y160219D01*
X98988Y160281D01*
X98943Y160340D01*
X98894Y160398D01*
X98843Y160452D01*
X98789Y160505D01*
X98732Y160554D01*
X98673Y160601D01*
X98612Y160644D01*
X98549Y160685D01*
X98484Y160722D01*
X98417Y160757D01*
X98348Y160787D01*
X98278Y160815D01*
X98207Y160838D01*
X98135Y160859D01*
X98062Y160875D01*
X97988Y160888D01*
X97913Y160898D01*
X97838Y160903D01*
X97763Y160905D01*
X97688Y160903D01*
X97613Y160898D01*
X97538Y160888D01*
X97464Y160875D01*
X97391Y160859D01*
X97319Y160838D01*
X97248Y160815D01*
X97178Y160787D01*
X97109Y160757D01*
X97042Y160722D01*
X96977Y160685D01*
X96914Y160644D01*
X96853Y160601D01*
X96794Y160554D01*
X96737Y160505D01*
X96683Y160452D01*
X96632Y160398D01*
X96584Y160340D01*
X96538Y160281D01*
X96495Y160219D01*
X96456Y160155D01*
X96420Y160089D01*
X96387Y160022D01*
X96357Y159952D01*
X96331Y159882D01*
X96266Y159744D01*
X96204Y159604D01*
X96146Y159462D01*
X96091Y159319D01*
X96040Y159175D01*
X95992Y159030D01*
X95949Y158883D01*
X95909Y158736D01*
X95872Y158587D01*
X95840Y158437D01*
X95811Y158287D01*
X95786Y158136D01*
X95765Y157985D01*
X95748Y157833D01*
X95734Y157680D01*
X95725Y157528D01*
X95719Y157375D01*
X95717Y157222D01*
X99809Y157222D02*
X99807Y157069D01*
X99801Y156916D01*
X99792Y156763D01*
X99778Y156611D01*
X99761Y156459D01*
X99740Y156308D01*
X99715Y156157D01*
X99686Y156006D01*
X99654Y155857D01*
X99617Y155708D01*
X99577Y155561D01*
X99534Y155414D01*
X99486Y155269D01*
X99435Y155124D01*
X99380Y154982D01*
X99322Y154840D01*
X99260Y154700D01*
X99195Y154562D01*
X99169Y154492D01*
X99139Y154422D01*
X99107Y154355D01*
X99070Y154289D01*
X99031Y154225D01*
X98988Y154163D01*
X98942Y154104D01*
X98894Y154046D01*
X98843Y153992D01*
X98789Y153939D01*
X98732Y153890D01*
X98673Y153843D01*
X98612Y153800D01*
X98549Y153759D01*
X98484Y153722D01*
X98417Y153687D01*
X98348Y153657D01*
X98278Y153629D01*
X98207Y153606D01*
X98135Y153585D01*
X98062Y153569D01*
X97988Y153556D01*
X97913Y153546D01*
X97838Y153541D01*
X97763Y153539D01*
X96331Y154562D02*
X96266Y154700D01*
X96204Y154840D01*
X96146Y154982D01*
X96091Y155125D01*
X96040Y155269D01*
X95992Y155414D01*
X95949Y155561D01*
X95909Y155709D01*
X95872Y155857D01*
X95840Y156007D01*
X95811Y156157D01*
X95786Y156308D01*
X95765Y156459D01*
X95748Y156611D01*
X95734Y156764D01*
X95725Y156916D01*
X95719Y157069D01*
X95717Y157222D01*
X96331Y154562D02*
X96357Y154491D01*
X96387Y154422D01*
X96420Y154355D01*
X96456Y154289D01*
X96495Y154225D01*
X96538Y154163D01*
X96584Y154104D01*
X96632Y154046D01*
X96683Y153992D01*
X96737Y153939D01*
X96794Y153890D01*
X96853Y153843D01*
X96914Y153800D01*
X96977Y153759D01*
X97042Y153722D01*
X97109Y153687D01*
X97178Y153657D01*
X97248Y153629D01*
X97319Y153606D01*
X97391Y153585D01*
X97464Y153569D01*
X97538Y153556D01*
X97613Y153546D01*
X97688Y153541D01*
X97763Y153539D01*
X99400Y155176D02*
X96126Y159268D01*
X92494Y153539D02*
X90448Y153539D01*
X90359Y153541D01*
X90270Y153547D01*
X90181Y153557D01*
X90093Y153570D01*
X90005Y153587D01*
X89918Y153609D01*
X89833Y153634D01*
X89748Y153662D01*
X89665Y153695D01*
X89583Y153731D01*
X89503Y153770D01*
X89425Y153813D01*
X89349Y153859D01*
X89274Y153909D01*
X89202Y153962D01*
X89133Y154018D01*
X89066Y154077D01*
X89001Y154138D01*
X88940Y154203D01*
X88881Y154270D01*
X88825Y154339D01*
X88772Y154411D01*
X88722Y154486D01*
X88676Y154562D01*
X88633Y154640D01*
X88594Y154720D01*
X88558Y154802D01*
X88525Y154885D01*
X88497Y154970D01*
X88472Y155055D01*
X88450Y155142D01*
X88433Y155230D01*
X88420Y155318D01*
X88410Y155407D01*
X88404Y155496D01*
X88402Y155585D01*
X88404Y155674D01*
X88410Y155763D01*
X88420Y155852D01*
X88433Y155940D01*
X88450Y156028D01*
X88472Y156115D01*
X88497Y156200D01*
X88525Y156285D01*
X88558Y156368D01*
X88594Y156450D01*
X88633Y156530D01*
X88676Y156608D01*
X88722Y156684D01*
X88772Y156759D01*
X88825Y156831D01*
X88881Y156900D01*
X88940Y156967D01*
X89001Y157032D01*
X89066Y157093D01*
X89133Y157152D01*
X89202Y157208D01*
X89274Y157261D01*
X89349Y157311D01*
X89425Y157357D01*
X89503Y157400D01*
X89583Y157439D01*
X89665Y157475D01*
X89748Y157508D01*
X89833Y157536D01*
X89918Y157561D01*
X90005Y157583D01*
X90093Y157600D01*
X90181Y157613D01*
X90270Y157623D01*
X90359Y157629D01*
X90448Y157631D01*
X90038Y160905D02*
X92494Y160905D01*
X90038Y160905D02*
X89959Y160903D01*
X89880Y160897D01*
X89801Y160888D01*
X89723Y160875D01*
X89646Y160857D01*
X89570Y160837D01*
X89495Y160812D01*
X89421Y160784D01*
X89348Y160753D01*
X89277Y160717D01*
X89208Y160679D01*
X89141Y160637D01*
X89076Y160592D01*
X89013Y160544D01*
X88952Y160493D01*
X88895Y160439D01*
X88839Y160383D01*
X88787Y160324D01*
X88737Y160262D01*
X88691Y160198D01*
X88647Y160132D01*
X88607Y160064D01*
X88571Y159994D01*
X88537Y159922D01*
X88507Y159848D01*
X88481Y159774D01*
X88458Y159698D01*
X88440Y159621D01*
X88424Y159544D01*
X88413Y159465D01*
X88405Y159387D01*
X88401Y159308D01*
X88401Y159228D01*
X88405Y159149D01*
X88413Y159071D01*
X88424Y158992D01*
X88440Y158915D01*
X88458Y158838D01*
X88481Y158762D01*
X88507Y158688D01*
X88537Y158614D01*
X88571Y158542D01*
X88607Y158472D01*
X88647Y158404D01*
X88691Y158338D01*
X88737Y158274D01*
X88787Y158212D01*
X88839Y158153D01*
X88895Y158097D01*
X88952Y158043D01*
X89013Y157992D01*
X89076Y157944D01*
X89141Y157899D01*
X89208Y157857D01*
X89277Y157819D01*
X89348Y157783D01*
X89421Y157752D01*
X89495Y157724D01*
X89570Y157699D01*
X89646Y157679D01*
X89723Y157661D01*
X89801Y157648D01*
X89880Y157639D01*
X89959Y157633D01*
X90038Y157631D01*
X91675Y157631D01*
X82928Y160905D02*
X82843Y160903D01*
X82758Y160897D01*
X82674Y160887D01*
X82590Y160874D01*
X82506Y160856D01*
X82424Y160835D01*
X82343Y160810D01*
X82263Y160781D01*
X82184Y160748D01*
X82107Y160712D01*
X82032Y160672D01*
X81958Y160629D01*
X81887Y160583D01*
X81818Y160533D01*
X81751Y160480D01*
X81687Y160424D01*
X81626Y160365D01*
X81567Y160304D01*
X81511Y160240D01*
X81458Y160173D01*
X81408Y160104D01*
X81362Y160033D01*
X81319Y159959D01*
X81279Y159884D01*
X81243Y159807D01*
X81210Y159728D01*
X81181Y159648D01*
X81156Y159567D01*
X81135Y159485D01*
X81117Y159401D01*
X81104Y159317D01*
X81094Y159233D01*
X81088Y159148D01*
X81086Y159063D01*
X82928Y160905D02*
X83024Y160903D01*
X83120Y160897D01*
X83215Y160887D01*
X83310Y160874D01*
X83405Y160856D01*
X83498Y160835D01*
X83591Y160810D01*
X83682Y160781D01*
X83773Y160749D01*
X83862Y160713D01*
X83949Y160673D01*
X84035Y160630D01*
X84119Y160584D01*
X84201Y160534D01*
X84281Y160480D01*
X84358Y160424D01*
X84433Y160364D01*
X84506Y160302D01*
X84576Y160236D01*
X84644Y160168D01*
X84709Y160097D01*
X84770Y160024D01*
X84829Y159948D01*
X84885Y159869D01*
X84937Y159789D01*
X84986Y159706D01*
X85032Y159622D01*
X85074Y159536D01*
X85112Y159448D01*
X85147Y159359D01*
X85179Y159268D01*
X81700Y157631D02*
X81640Y157690D01*
X81583Y157752D01*
X81528Y157816D01*
X81477Y157883D01*
X81428Y157952D01*
X81382Y158022D01*
X81339Y158095D01*
X81299Y158169D01*
X81263Y158245D01*
X81230Y158323D01*
X81200Y158402D01*
X81173Y158482D01*
X81150Y158563D01*
X81131Y158645D01*
X81115Y158727D01*
X81102Y158811D01*
X81093Y158895D01*
X81088Y158979D01*
X81086Y159063D01*
X81700Y157631D02*
X85179Y153539D01*
X81086Y153539D01*
X77863Y153539D02*
X75817Y153539D01*
X75728Y153541D01*
X75639Y153547D01*
X75550Y153557D01*
X75462Y153570D01*
X75374Y153587D01*
X75287Y153609D01*
X75202Y153634D01*
X75117Y153662D01*
X75034Y153695D01*
X74952Y153731D01*
X74872Y153770D01*
X74794Y153813D01*
X74718Y153859D01*
X74643Y153909D01*
X74571Y153962D01*
X74502Y154018D01*
X74435Y154077D01*
X74370Y154138D01*
X74309Y154203D01*
X74250Y154270D01*
X74194Y154339D01*
X74141Y154411D01*
X74091Y154486D01*
X74045Y154562D01*
X74002Y154640D01*
X73963Y154720D01*
X73927Y154802D01*
X73894Y154885D01*
X73866Y154970D01*
X73841Y155055D01*
X73819Y155142D01*
X73802Y155230D01*
X73789Y155318D01*
X73779Y155407D01*
X73773Y155496D01*
X73771Y155585D01*
X73773Y155674D01*
X73779Y155763D01*
X73789Y155852D01*
X73802Y155940D01*
X73819Y156028D01*
X73841Y156115D01*
X73866Y156200D01*
X73894Y156285D01*
X73927Y156368D01*
X73963Y156450D01*
X74002Y156530D01*
X74045Y156608D01*
X74091Y156684D01*
X74141Y156759D01*
X74194Y156831D01*
X74250Y156900D01*
X74309Y156967D01*
X74370Y157032D01*
X74435Y157093D01*
X74502Y157152D01*
X74571Y157208D01*
X74643Y157261D01*
X74718Y157311D01*
X74794Y157357D01*
X74872Y157400D01*
X74952Y157439D01*
X75034Y157475D01*
X75117Y157508D01*
X75202Y157536D01*
X75287Y157561D01*
X75374Y157583D01*
X75462Y157600D01*
X75550Y157613D01*
X75639Y157623D01*
X75728Y157629D01*
X75817Y157631D01*
X75408Y160905D02*
X77863Y160905D01*
X75408Y160905D02*
X75329Y160903D01*
X75250Y160897D01*
X75171Y160888D01*
X75093Y160875D01*
X75016Y160857D01*
X74940Y160837D01*
X74865Y160812D01*
X74791Y160784D01*
X74718Y160753D01*
X74647Y160717D01*
X74578Y160679D01*
X74511Y160637D01*
X74446Y160592D01*
X74383Y160544D01*
X74322Y160493D01*
X74265Y160439D01*
X74209Y160383D01*
X74157Y160324D01*
X74107Y160262D01*
X74061Y160198D01*
X74017Y160132D01*
X73977Y160064D01*
X73941Y159994D01*
X73907Y159922D01*
X73877Y159848D01*
X73851Y159774D01*
X73828Y159698D01*
X73810Y159621D01*
X73794Y159544D01*
X73783Y159465D01*
X73775Y159387D01*
X73771Y159308D01*
X73771Y159228D01*
X73775Y159149D01*
X73783Y159071D01*
X73794Y158992D01*
X73810Y158915D01*
X73828Y158838D01*
X73851Y158762D01*
X73877Y158688D01*
X73907Y158614D01*
X73941Y158542D01*
X73977Y158472D01*
X74017Y158404D01*
X74061Y158338D01*
X74107Y158274D01*
X74157Y158212D01*
X74209Y158153D01*
X74265Y158097D01*
X74322Y158043D01*
X74383Y157992D01*
X74446Y157944D01*
X74511Y157899D01*
X74578Y157857D01*
X74647Y157819D01*
X74718Y157783D01*
X74791Y157752D01*
X74865Y157724D01*
X74940Y157699D01*
X75016Y157679D01*
X75093Y157661D01*
X75171Y157648D01*
X75250Y157639D01*
X75329Y157633D01*
X75408Y157631D01*
X77045Y157631D01*
X20198Y188613D02*
X20198Y191887D01*
X20198Y188613D02*
X27564Y188613D01*
X27564Y191887D01*
X24290Y191068D02*
X24290Y188613D01*
X27564Y194937D02*
X20198Y194937D01*
X20198Y199029D02*
X27564Y194937D01*
X27564Y199029D02*
X20198Y199029D01*
X45090Y187740D02*
X52456Y187740D01*
X52456Y189786D01*
X52454Y189875D01*
X52448Y189964D01*
X52438Y190053D01*
X52425Y190141D01*
X52408Y190229D01*
X52386Y190316D01*
X52361Y190401D01*
X52333Y190486D01*
X52300Y190569D01*
X52264Y190651D01*
X52225Y190731D01*
X52182Y190809D01*
X52136Y190885D01*
X52086Y190960D01*
X52033Y191032D01*
X51977Y191101D01*
X51918Y191168D01*
X51857Y191233D01*
X51792Y191294D01*
X51725Y191353D01*
X51656Y191409D01*
X51584Y191462D01*
X51509Y191512D01*
X51433Y191558D01*
X51355Y191601D01*
X51275Y191640D01*
X51193Y191676D01*
X51110Y191709D01*
X51025Y191737D01*
X50940Y191762D01*
X50853Y191784D01*
X50765Y191801D01*
X50677Y191814D01*
X50588Y191824D01*
X50499Y191830D01*
X50410Y191832D01*
X50321Y191830D01*
X50232Y191824D01*
X50143Y191814D01*
X50055Y191801D01*
X49967Y191784D01*
X49880Y191762D01*
X49795Y191737D01*
X49710Y191709D01*
X49627Y191676D01*
X49545Y191640D01*
X49465Y191601D01*
X49387Y191558D01*
X49311Y191512D01*
X49236Y191462D01*
X49164Y191409D01*
X49095Y191353D01*
X49028Y191294D01*
X48963Y191233D01*
X48902Y191168D01*
X48843Y191101D01*
X48787Y191032D01*
X48734Y190960D01*
X48684Y190885D01*
X48638Y190809D01*
X48595Y190731D01*
X48556Y190651D01*
X48520Y190569D01*
X48487Y190486D01*
X48459Y190401D01*
X48434Y190316D01*
X48412Y190229D01*
X48395Y190141D01*
X48382Y190053D01*
X48372Y189964D01*
X48366Y189875D01*
X48364Y189786D01*
X48364Y187740D01*
X49182Y197802D02*
X49182Y199029D01*
X45090Y199029D01*
X45090Y196574D01*
X45092Y196496D01*
X45097Y196418D01*
X45107Y196341D01*
X45120Y196264D01*
X45136Y196188D01*
X45156Y196113D01*
X45180Y196039D01*
X45207Y195966D01*
X45238Y195894D01*
X45272Y195824D01*
X45309Y195756D01*
X45350Y195689D01*
X45394Y195624D01*
X45440Y195562D01*
X45490Y195502D01*
X45542Y195444D01*
X45597Y195389D01*
X45655Y195337D01*
X45715Y195287D01*
X45777Y195241D01*
X45842Y195197D01*
X45909Y195156D01*
X45977Y195119D01*
X46047Y195085D01*
X46119Y195054D01*
X46192Y195027D01*
X46266Y195003D01*
X46341Y194983D01*
X46417Y194967D01*
X46494Y194954D01*
X46571Y194944D01*
X46649Y194939D01*
X46727Y194937D01*
X50819Y194937D01*
X50897Y194939D01*
X50975Y194944D01*
X51052Y194954D01*
X51129Y194967D01*
X51205Y194983D01*
X51280Y195003D01*
X51354Y195027D01*
X51427Y195054D01*
X51499Y195085D01*
X51569Y195119D01*
X51638Y195156D01*
X51704Y195197D01*
X51769Y195241D01*
X51831Y195287D01*
X51891Y195337D01*
X51949Y195389D01*
X52004Y195444D01*
X52056Y195502D01*
X52106Y195562D01*
X52152Y195624D01*
X52196Y195689D01*
X52237Y195756D01*
X52274Y195824D01*
X52308Y195894D01*
X52339Y195966D01*
X52366Y196039D01*
X52390Y196113D01*
X52410Y196188D01*
X52426Y196264D01*
X52439Y196341D01*
X52449Y196418D01*
X52454Y196496D01*
X52456Y196574D01*
X52456Y199029D01*
X72014Y181333D02*
X79380Y181333D01*
X79380Y183379D01*
X79378Y183468D01*
X79372Y183557D01*
X79362Y183646D01*
X79349Y183734D01*
X79332Y183822D01*
X79310Y183909D01*
X79285Y183994D01*
X79257Y184079D01*
X79224Y184162D01*
X79188Y184244D01*
X79149Y184324D01*
X79106Y184402D01*
X79060Y184478D01*
X79010Y184553D01*
X78957Y184625D01*
X78901Y184694D01*
X78842Y184761D01*
X78781Y184826D01*
X78716Y184887D01*
X78649Y184946D01*
X78580Y185002D01*
X78508Y185055D01*
X78433Y185105D01*
X78357Y185151D01*
X78279Y185194D01*
X78199Y185233D01*
X78117Y185269D01*
X78034Y185302D01*
X77949Y185330D01*
X77864Y185355D01*
X77777Y185377D01*
X77689Y185394D01*
X77601Y185407D01*
X77512Y185417D01*
X77423Y185423D01*
X77334Y185425D01*
X77245Y185423D01*
X77156Y185417D01*
X77067Y185407D01*
X76979Y185394D01*
X76891Y185377D01*
X76804Y185355D01*
X76719Y185330D01*
X76634Y185302D01*
X76551Y185269D01*
X76469Y185233D01*
X76389Y185194D01*
X76311Y185151D01*
X76235Y185105D01*
X76160Y185055D01*
X76088Y185002D01*
X76019Y184946D01*
X75952Y184887D01*
X75887Y184826D01*
X75826Y184761D01*
X75767Y184694D01*
X75711Y184625D01*
X75658Y184553D01*
X75608Y184478D01*
X75562Y184402D01*
X75519Y184324D01*
X75480Y184244D01*
X75444Y184162D01*
X75411Y184079D01*
X75383Y183994D01*
X75358Y183909D01*
X75336Y183822D01*
X75319Y183734D01*
X75306Y183646D01*
X75296Y183557D01*
X75290Y183468D01*
X75288Y183379D01*
X75288Y181333D01*
X75288Y183789D02*
X72014Y185425D01*
X72014Y190809D02*
X72016Y190887D01*
X72021Y190965D01*
X72031Y191042D01*
X72044Y191119D01*
X72060Y191195D01*
X72080Y191270D01*
X72104Y191344D01*
X72131Y191417D01*
X72162Y191489D01*
X72196Y191559D01*
X72233Y191628D01*
X72274Y191694D01*
X72318Y191759D01*
X72364Y191821D01*
X72414Y191881D01*
X72466Y191939D01*
X72521Y191994D01*
X72579Y192046D01*
X72639Y192096D01*
X72701Y192142D01*
X72766Y192186D01*
X72833Y192227D01*
X72901Y192264D01*
X72971Y192298D01*
X73043Y192329D01*
X73116Y192356D01*
X73190Y192380D01*
X73265Y192400D01*
X73341Y192416D01*
X73418Y192429D01*
X73495Y192439D01*
X73573Y192444D01*
X73651Y192446D01*
X72014Y190809D02*
X72016Y190695D01*
X72021Y190582D01*
X72031Y190468D01*
X72044Y190355D01*
X72061Y190243D01*
X72081Y190131D01*
X72105Y190020D01*
X72133Y189909D01*
X72164Y189800D01*
X72199Y189692D01*
X72238Y189585D01*
X72280Y189479D01*
X72325Y189375D01*
X72374Y189272D01*
X72427Y189171D01*
X72482Y189072D01*
X72541Y188974D01*
X72603Y188879D01*
X72668Y188786D01*
X72736Y188694D01*
X72807Y188606D01*
X72881Y188519D01*
X72958Y188435D01*
X73037Y188354D01*
X77743Y188558D02*
X77821Y188560D01*
X77899Y188565D01*
X77976Y188575D01*
X78053Y188588D01*
X78129Y188604D01*
X78204Y188624D01*
X78278Y188648D01*
X78351Y188675D01*
X78423Y188706D01*
X78493Y188740D01*
X78562Y188777D01*
X78628Y188818D01*
X78693Y188862D01*
X78755Y188908D01*
X78815Y188958D01*
X78873Y189010D01*
X78928Y189065D01*
X78980Y189123D01*
X79030Y189183D01*
X79076Y189245D01*
X79120Y189310D01*
X79161Y189377D01*
X79198Y189445D01*
X79232Y189515D01*
X79263Y189587D01*
X79290Y189660D01*
X79314Y189734D01*
X79334Y189809D01*
X79350Y189885D01*
X79363Y189962D01*
X79373Y190039D01*
X79378Y190117D01*
X79380Y190195D01*
X79378Y190305D01*
X79372Y190414D01*
X79362Y190524D01*
X79349Y190632D01*
X79331Y190741D01*
X79310Y190848D01*
X79284Y190955D01*
X79255Y191061D01*
X79223Y191166D01*
X79186Y191269D01*
X79146Y191371D01*
X79102Y191472D01*
X79054Y191571D01*
X79004Y191668D01*
X78949Y191763D01*
X78891Y191856D01*
X78830Y191947D01*
X78766Y192036D01*
X76310Y189377D02*
X76352Y189310D01*
X76396Y189245D01*
X76444Y189183D01*
X76494Y189123D01*
X76547Y189065D01*
X76603Y189010D01*
X76662Y188958D01*
X76722Y188908D01*
X76786Y188861D01*
X76851Y188818D01*
X76918Y188777D01*
X76987Y188740D01*
X77058Y188706D01*
X77130Y188675D01*
X77204Y188648D01*
X77278Y188624D01*
X77354Y188604D01*
X77431Y188588D01*
X77508Y188575D01*
X77586Y188565D01*
X77665Y188560D01*
X77743Y188558D01*
X75083Y191627D02*
X75041Y191693D01*
X74997Y191758D01*
X74950Y191820D01*
X74899Y191880D01*
X74846Y191938D01*
X74790Y191993D01*
X74732Y192046D01*
X74671Y192095D01*
X74608Y192142D01*
X74543Y192185D01*
X74476Y192226D01*
X74407Y192263D01*
X74336Y192297D01*
X74264Y192328D01*
X74190Y192355D01*
X74115Y192379D01*
X74040Y192399D01*
X73963Y192415D01*
X73886Y192428D01*
X73808Y192438D01*
X73729Y192443D01*
X73651Y192445D01*
X75083Y191627D02*
X76311Y189376D01*
X79380Y196983D02*
X72014Y196983D01*
X79380Y194937D02*
X79380Y199029D01*
X100998Y183424D02*
X100998Y182196D01*
X100998Y183424D02*
X96906Y183424D01*
X96906Y180968D01*
X96908Y180890D01*
X96913Y180812D01*
X96923Y180735D01*
X96936Y180658D01*
X96952Y180582D01*
X96972Y180507D01*
X96996Y180433D01*
X97023Y180360D01*
X97054Y180288D01*
X97088Y180218D01*
X97125Y180150D01*
X97166Y180083D01*
X97210Y180018D01*
X97256Y179956D01*
X97306Y179896D01*
X97358Y179838D01*
X97413Y179783D01*
X97471Y179731D01*
X97531Y179681D01*
X97593Y179635D01*
X97658Y179591D01*
X97725Y179550D01*
X97793Y179513D01*
X97863Y179479D01*
X97935Y179448D01*
X98008Y179421D01*
X98082Y179397D01*
X98157Y179377D01*
X98233Y179361D01*
X98310Y179348D01*
X98387Y179338D01*
X98465Y179333D01*
X98543Y179331D01*
X102635Y179331D01*
X102713Y179333D01*
X102791Y179338D01*
X102868Y179348D01*
X102945Y179361D01*
X103021Y179377D01*
X103096Y179397D01*
X103170Y179421D01*
X103243Y179448D01*
X103315Y179479D01*
X103385Y179513D01*
X103454Y179550D01*
X103520Y179591D01*
X103585Y179635D01*
X103647Y179681D01*
X103707Y179731D01*
X103765Y179783D01*
X103820Y179838D01*
X103872Y179896D01*
X103922Y179956D01*
X103968Y180018D01*
X104012Y180083D01*
X104053Y180150D01*
X104090Y180218D01*
X104124Y180288D01*
X104155Y180360D01*
X104182Y180433D01*
X104206Y180507D01*
X104226Y180582D01*
X104242Y180658D01*
X104255Y180735D01*
X104265Y180812D01*
X104270Y180890D01*
X104272Y180968D01*
X104272Y183424D01*
X104272Y187134D02*
X96906Y187134D01*
X96906Y191226D02*
X104272Y187134D01*
X104272Y191226D02*
X96906Y191226D01*
X96906Y194937D02*
X104272Y194937D01*
X104272Y196983D01*
X104270Y197072D01*
X104264Y197161D01*
X104254Y197250D01*
X104241Y197338D01*
X104224Y197426D01*
X104202Y197513D01*
X104177Y197598D01*
X104149Y197683D01*
X104116Y197766D01*
X104080Y197848D01*
X104041Y197928D01*
X103998Y198006D01*
X103952Y198082D01*
X103902Y198157D01*
X103849Y198229D01*
X103793Y198298D01*
X103734Y198365D01*
X103673Y198430D01*
X103608Y198491D01*
X103541Y198550D01*
X103472Y198606D01*
X103400Y198659D01*
X103325Y198709D01*
X103249Y198755D01*
X103171Y198798D01*
X103091Y198837D01*
X103009Y198873D01*
X102926Y198906D01*
X102841Y198934D01*
X102756Y198959D01*
X102669Y198981D01*
X102581Y198998D01*
X102493Y199011D01*
X102404Y199021D01*
X102315Y199027D01*
X102226Y199029D01*
X98952Y199029D01*
X98863Y199027D01*
X98774Y199021D01*
X98685Y199011D01*
X98597Y198998D01*
X98509Y198981D01*
X98422Y198959D01*
X98337Y198934D01*
X98252Y198906D01*
X98169Y198873D01*
X98087Y198837D01*
X98007Y198798D01*
X97929Y198755D01*
X97853Y198709D01*
X97778Y198659D01*
X97706Y198606D01*
X97637Y198550D01*
X97570Y198491D01*
X97505Y198430D01*
X97444Y198365D01*
X97385Y198298D01*
X97329Y198229D01*
X97276Y198157D01*
X97226Y198082D01*
X97180Y198006D01*
X97137Y197928D01*
X97098Y197848D01*
X97062Y197766D01*
X97029Y197683D01*
X97001Y197598D01*
X96976Y197513D01*
X96954Y197426D01*
X96937Y197338D01*
X96924Y197250D01*
X96914Y197161D01*
X96908Y197072D01*
X96906Y196983D01*
X96906Y194937D01*
X125636Y183424D02*
X125636Y182196D01*
X125636Y183424D02*
X121544Y183424D01*
X121544Y180968D01*
X121546Y180890D01*
X121551Y180812D01*
X121561Y180735D01*
X121574Y180658D01*
X121590Y180582D01*
X121610Y180507D01*
X121634Y180433D01*
X121661Y180360D01*
X121692Y180288D01*
X121726Y180218D01*
X121763Y180150D01*
X121804Y180083D01*
X121848Y180018D01*
X121894Y179956D01*
X121944Y179896D01*
X121996Y179838D01*
X122051Y179783D01*
X122109Y179731D01*
X122169Y179681D01*
X122231Y179635D01*
X122296Y179591D01*
X122363Y179550D01*
X122431Y179513D01*
X122501Y179479D01*
X122573Y179448D01*
X122646Y179421D01*
X122720Y179397D01*
X122795Y179377D01*
X122871Y179361D01*
X122948Y179348D01*
X123025Y179338D01*
X123103Y179333D01*
X123181Y179331D01*
X127273Y179331D01*
X127351Y179333D01*
X127429Y179338D01*
X127506Y179348D01*
X127583Y179361D01*
X127659Y179377D01*
X127734Y179397D01*
X127808Y179421D01*
X127881Y179448D01*
X127953Y179479D01*
X128023Y179513D01*
X128092Y179550D01*
X128158Y179591D01*
X128223Y179635D01*
X128285Y179681D01*
X128345Y179731D01*
X128403Y179783D01*
X128458Y179838D01*
X128510Y179896D01*
X128560Y179956D01*
X128606Y180018D01*
X128650Y180083D01*
X128691Y180150D01*
X128728Y180218D01*
X128762Y180288D01*
X128793Y180360D01*
X128820Y180433D01*
X128844Y180507D01*
X128864Y180582D01*
X128880Y180658D01*
X128893Y180735D01*
X128903Y180812D01*
X128908Y180890D01*
X128910Y180968D01*
X128910Y183424D01*
X128910Y187134D02*
X121544Y187134D01*
X121544Y191226D02*
X128910Y187134D01*
X128910Y191226D02*
X121544Y191226D01*
X121544Y194937D02*
X128910Y194937D01*
X128910Y196983D01*
X128908Y197072D01*
X128902Y197161D01*
X128892Y197250D01*
X128879Y197338D01*
X128862Y197426D01*
X128840Y197513D01*
X128815Y197598D01*
X128787Y197683D01*
X128754Y197766D01*
X128718Y197848D01*
X128679Y197928D01*
X128636Y198006D01*
X128590Y198082D01*
X128540Y198157D01*
X128487Y198229D01*
X128431Y198298D01*
X128372Y198365D01*
X128311Y198430D01*
X128246Y198491D01*
X128179Y198550D01*
X128110Y198606D01*
X128038Y198659D01*
X127963Y198709D01*
X127887Y198755D01*
X127809Y198798D01*
X127729Y198837D01*
X127647Y198873D01*
X127564Y198906D01*
X127479Y198934D01*
X127394Y198959D01*
X127307Y198981D01*
X127219Y198998D01*
X127131Y199011D01*
X127042Y199021D01*
X126953Y199027D01*
X126864Y199029D01*
X123590Y199029D01*
X123501Y199027D01*
X123412Y199021D01*
X123323Y199011D01*
X123235Y198998D01*
X123147Y198981D01*
X123060Y198959D01*
X122975Y198934D01*
X122890Y198906D01*
X122807Y198873D01*
X122725Y198837D01*
X122645Y198798D01*
X122567Y198755D01*
X122491Y198709D01*
X122416Y198659D01*
X122344Y198606D01*
X122275Y198550D01*
X122208Y198491D01*
X122143Y198430D01*
X122082Y198365D01*
X122023Y198298D01*
X121967Y198229D01*
X121914Y198157D01*
X121864Y198082D01*
X121818Y198006D01*
X121775Y197928D01*
X121736Y197848D01*
X121700Y197766D01*
X121667Y197683D01*
X121639Y197598D01*
X121614Y197513D01*
X121592Y197426D01*
X121575Y197338D01*
X121562Y197250D01*
X121552Y197161D01*
X121546Y197072D01*
X121544Y196983D01*
X121544Y194937D01*
D11*
X148849Y181511D02*
X154437Y179648D01*
X154437Y183373D02*
X148849Y181511D01*
X151953Y185711D02*
X151953Y187263D01*
X151951Y187340D01*
X151945Y187418D01*
X151936Y187494D01*
X151922Y187571D01*
X151905Y187646D01*
X151884Y187720D01*
X151859Y187794D01*
X151831Y187866D01*
X151799Y187936D01*
X151764Y188005D01*
X151725Y188072D01*
X151683Y188137D01*
X151638Y188200D01*
X151590Y188261D01*
X151539Y188319D01*
X151485Y188374D01*
X151428Y188427D01*
X151369Y188476D01*
X151307Y188523D01*
X151243Y188567D01*
X151177Y188607D01*
X151109Y188644D01*
X151039Y188678D01*
X150968Y188708D01*
X150895Y188734D01*
X150821Y188757D01*
X150746Y188776D01*
X150671Y188791D01*
X150594Y188803D01*
X150517Y188811D01*
X150440Y188815D01*
X150362Y188815D01*
X150285Y188811D01*
X150208Y188803D01*
X150131Y188791D01*
X150056Y188776D01*
X149981Y188757D01*
X149907Y188734D01*
X149834Y188708D01*
X149763Y188678D01*
X149693Y188644D01*
X149625Y188607D01*
X149559Y188567D01*
X149495Y188523D01*
X149433Y188476D01*
X149374Y188427D01*
X149317Y188374D01*
X149263Y188319D01*
X149212Y188261D01*
X149164Y188200D01*
X149119Y188137D01*
X149077Y188072D01*
X149038Y188005D01*
X149003Y187936D01*
X148971Y187866D01*
X148943Y187794D01*
X148918Y187720D01*
X148897Y187646D01*
X148880Y187571D01*
X148866Y187494D01*
X148857Y187418D01*
X148851Y187340D01*
X148849Y187263D01*
X148849Y185711D01*
X154437Y185711D01*
X154437Y187263D01*
X154435Y187333D01*
X154429Y187402D01*
X154419Y187471D01*
X154406Y187539D01*
X154388Y187607D01*
X154367Y187673D01*
X154342Y187738D01*
X154314Y187802D01*
X154282Y187864D01*
X154247Y187924D01*
X154208Y187982D01*
X154166Y188037D01*
X154121Y188091D01*
X154073Y188141D01*
X154023Y188189D01*
X153969Y188234D01*
X153914Y188276D01*
X153856Y188315D01*
X153796Y188350D01*
X153734Y188382D01*
X153670Y188410D01*
X153605Y188435D01*
X153539Y188456D01*
X153471Y188474D01*
X153403Y188487D01*
X153334Y188497D01*
X153265Y188503D01*
X153195Y188505D01*
X153125Y188503D01*
X153056Y188497D01*
X152987Y188487D01*
X152919Y188474D01*
X152851Y188456D01*
X152785Y188435D01*
X152720Y188410D01*
X152656Y188382D01*
X152594Y188350D01*
X152534Y188315D01*
X152476Y188276D01*
X152421Y188234D01*
X152367Y188189D01*
X152317Y188141D01*
X152269Y188091D01*
X152224Y188037D01*
X152182Y187982D01*
X152143Y187924D01*
X152108Y187864D01*
X152076Y187802D01*
X152048Y187738D01*
X152023Y187673D01*
X152002Y187607D01*
X151984Y187539D01*
X151971Y187471D01*
X151961Y187402D01*
X151955Y187333D01*
X151953Y187263D01*
X148849Y190621D02*
X154437Y192483D01*
X148849Y194346D01*
X150246Y193880D02*
X150246Y191086D01*
X148849Y197604D02*
X154437Y197604D01*
X154437Y196052D02*
X154437Y199156D01*
X174757Y181511D02*
X180345Y179648D01*
X180345Y183373D02*
X174757Y181511D01*
X177861Y185711D02*
X177861Y187263D01*
X177859Y187340D01*
X177853Y187418D01*
X177844Y187494D01*
X177830Y187571D01*
X177813Y187646D01*
X177792Y187720D01*
X177767Y187794D01*
X177739Y187866D01*
X177707Y187936D01*
X177672Y188005D01*
X177633Y188072D01*
X177591Y188137D01*
X177546Y188200D01*
X177498Y188261D01*
X177447Y188319D01*
X177393Y188374D01*
X177336Y188427D01*
X177277Y188476D01*
X177215Y188523D01*
X177151Y188567D01*
X177085Y188607D01*
X177017Y188644D01*
X176947Y188678D01*
X176876Y188708D01*
X176803Y188734D01*
X176729Y188757D01*
X176654Y188776D01*
X176579Y188791D01*
X176502Y188803D01*
X176425Y188811D01*
X176348Y188815D01*
X176270Y188815D01*
X176193Y188811D01*
X176116Y188803D01*
X176039Y188791D01*
X175964Y188776D01*
X175889Y188757D01*
X175815Y188734D01*
X175742Y188708D01*
X175671Y188678D01*
X175601Y188644D01*
X175533Y188607D01*
X175467Y188567D01*
X175403Y188523D01*
X175341Y188476D01*
X175282Y188427D01*
X175225Y188374D01*
X175171Y188319D01*
X175120Y188261D01*
X175072Y188200D01*
X175027Y188137D01*
X174985Y188072D01*
X174946Y188005D01*
X174911Y187936D01*
X174879Y187866D01*
X174851Y187794D01*
X174826Y187720D01*
X174805Y187646D01*
X174788Y187571D01*
X174774Y187494D01*
X174765Y187418D01*
X174759Y187340D01*
X174757Y187263D01*
X174757Y185711D01*
X180345Y185711D01*
X180345Y187263D01*
X180343Y187333D01*
X180337Y187402D01*
X180327Y187471D01*
X180314Y187539D01*
X180296Y187607D01*
X180275Y187673D01*
X180250Y187738D01*
X180222Y187802D01*
X180190Y187864D01*
X180155Y187924D01*
X180116Y187982D01*
X180074Y188037D01*
X180029Y188091D01*
X179981Y188141D01*
X179931Y188189D01*
X179877Y188234D01*
X179822Y188276D01*
X179764Y188315D01*
X179704Y188350D01*
X179642Y188382D01*
X179578Y188410D01*
X179513Y188435D01*
X179447Y188456D01*
X179379Y188474D01*
X179311Y188487D01*
X179242Y188497D01*
X179173Y188503D01*
X179103Y188505D01*
X179033Y188503D01*
X178964Y188497D01*
X178895Y188487D01*
X178827Y188474D01*
X178759Y188456D01*
X178693Y188435D01*
X178628Y188410D01*
X178564Y188382D01*
X178502Y188350D01*
X178442Y188315D01*
X178384Y188276D01*
X178329Y188234D01*
X178275Y188189D01*
X178225Y188141D01*
X178177Y188091D01*
X178132Y188037D01*
X178090Y187982D01*
X178051Y187924D01*
X178016Y187864D01*
X177984Y187802D01*
X177956Y187738D01*
X177931Y187673D01*
X177910Y187607D01*
X177892Y187539D01*
X177879Y187471D01*
X177869Y187402D01*
X177863Y187333D01*
X177861Y187263D01*
X174757Y190621D02*
X180345Y192483D01*
X174757Y194346D01*
X176154Y193880D02*
X176154Y191086D01*
X174757Y197604D02*
X180345Y197604D01*
X180345Y196052D02*
X180345Y199156D01*
X199395Y181511D02*
X204983Y179648D01*
X204983Y183373D02*
X199395Y181511D01*
X202499Y185711D02*
X202499Y187263D01*
X202497Y187340D01*
X202491Y187418D01*
X202482Y187494D01*
X202468Y187571D01*
X202451Y187646D01*
X202430Y187720D01*
X202405Y187794D01*
X202377Y187866D01*
X202345Y187936D01*
X202310Y188005D01*
X202271Y188072D01*
X202229Y188137D01*
X202184Y188200D01*
X202136Y188261D01*
X202085Y188319D01*
X202031Y188374D01*
X201974Y188427D01*
X201915Y188476D01*
X201853Y188523D01*
X201789Y188567D01*
X201723Y188607D01*
X201655Y188644D01*
X201585Y188678D01*
X201514Y188708D01*
X201441Y188734D01*
X201367Y188757D01*
X201292Y188776D01*
X201217Y188791D01*
X201140Y188803D01*
X201063Y188811D01*
X200986Y188815D01*
X200908Y188815D01*
X200831Y188811D01*
X200754Y188803D01*
X200677Y188791D01*
X200602Y188776D01*
X200527Y188757D01*
X200453Y188734D01*
X200380Y188708D01*
X200309Y188678D01*
X200239Y188644D01*
X200171Y188607D01*
X200105Y188567D01*
X200041Y188523D01*
X199979Y188476D01*
X199920Y188427D01*
X199863Y188374D01*
X199809Y188319D01*
X199758Y188261D01*
X199710Y188200D01*
X199665Y188137D01*
X199623Y188072D01*
X199584Y188005D01*
X199549Y187936D01*
X199517Y187866D01*
X199489Y187794D01*
X199464Y187720D01*
X199443Y187646D01*
X199426Y187571D01*
X199412Y187494D01*
X199403Y187418D01*
X199397Y187340D01*
X199395Y187263D01*
X199395Y185711D01*
X204983Y185711D01*
X204983Y187263D01*
X204981Y187333D01*
X204975Y187402D01*
X204965Y187471D01*
X204952Y187539D01*
X204934Y187607D01*
X204913Y187673D01*
X204888Y187738D01*
X204860Y187802D01*
X204828Y187864D01*
X204793Y187924D01*
X204754Y187982D01*
X204712Y188037D01*
X204667Y188091D01*
X204619Y188141D01*
X204569Y188189D01*
X204515Y188234D01*
X204460Y188276D01*
X204402Y188315D01*
X204342Y188350D01*
X204280Y188382D01*
X204216Y188410D01*
X204151Y188435D01*
X204085Y188456D01*
X204017Y188474D01*
X203949Y188487D01*
X203880Y188497D01*
X203811Y188503D01*
X203741Y188505D01*
X203671Y188503D01*
X203602Y188497D01*
X203533Y188487D01*
X203465Y188474D01*
X203397Y188456D01*
X203331Y188435D01*
X203266Y188410D01*
X203202Y188382D01*
X203140Y188350D01*
X203080Y188315D01*
X203022Y188276D01*
X202967Y188234D01*
X202913Y188189D01*
X202863Y188141D01*
X202815Y188091D01*
X202770Y188037D01*
X202728Y187982D01*
X202689Y187924D01*
X202654Y187864D01*
X202622Y187802D01*
X202594Y187738D01*
X202569Y187673D01*
X202548Y187607D01*
X202530Y187539D01*
X202517Y187471D01*
X202507Y187402D01*
X202501Y187333D01*
X202499Y187263D01*
X199395Y190621D02*
X204983Y192483D01*
X199395Y194346D01*
X200792Y193880D02*
X200792Y191086D01*
X199395Y197604D02*
X204983Y197604D01*
X204983Y196052D02*
X204983Y199156D01*
D10*
X223652Y190400D02*
X231018Y190400D01*
X231018Y192446D02*
X231018Y188353D01*
X223652Y197392D02*
X223654Y197470D01*
X223659Y197548D01*
X223669Y197625D01*
X223682Y197702D01*
X223698Y197778D01*
X223718Y197853D01*
X223742Y197927D01*
X223769Y198000D01*
X223800Y198072D01*
X223834Y198142D01*
X223871Y198211D01*
X223912Y198277D01*
X223956Y198342D01*
X224002Y198404D01*
X224052Y198464D01*
X224104Y198522D01*
X224159Y198577D01*
X224217Y198629D01*
X224277Y198679D01*
X224339Y198725D01*
X224404Y198769D01*
X224471Y198810D01*
X224539Y198847D01*
X224609Y198881D01*
X224681Y198912D01*
X224754Y198939D01*
X224828Y198963D01*
X224903Y198983D01*
X224979Y198999D01*
X225056Y199012D01*
X225133Y199022D01*
X225211Y199027D01*
X225289Y199029D01*
X223652Y197392D02*
X223654Y197278D01*
X223659Y197165D01*
X223669Y197051D01*
X223682Y196938D01*
X223699Y196826D01*
X223719Y196714D01*
X223743Y196603D01*
X223771Y196492D01*
X223802Y196383D01*
X223837Y196275D01*
X223876Y196168D01*
X223918Y196062D01*
X223963Y195958D01*
X224012Y195855D01*
X224065Y195754D01*
X224120Y195655D01*
X224179Y195557D01*
X224241Y195462D01*
X224306Y195369D01*
X224374Y195277D01*
X224445Y195189D01*
X224519Y195102D01*
X224596Y195018D01*
X224675Y194937D01*
X229381Y195142D02*
X229459Y195144D01*
X229537Y195149D01*
X229614Y195159D01*
X229691Y195172D01*
X229767Y195188D01*
X229842Y195208D01*
X229916Y195232D01*
X229989Y195259D01*
X230061Y195290D01*
X230131Y195324D01*
X230200Y195361D01*
X230266Y195402D01*
X230331Y195446D01*
X230393Y195492D01*
X230453Y195542D01*
X230511Y195594D01*
X230566Y195649D01*
X230618Y195707D01*
X230668Y195767D01*
X230714Y195829D01*
X230758Y195894D01*
X230799Y195961D01*
X230836Y196029D01*
X230870Y196099D01*
X230901Y196171D01*
X230928Y196244D01*
X230952Y196318D01*
X230972Y196393D01*
X230988Y196469D01*
X231001Y196546D01*
X231011Y196623D01*
X231016Y196701D01*
X231018Y196779D01*
X231016Y196889D01*
X231010Y196998D01*
X231000Y197108D01*
X230987Y197216D01*
X230969Y197325D01*
X230948Y197432D01*
X230922Y197539D01*
X230893Y197645D01*
X230861Y197750D01*
X230824Y197853D01*
X230784Y197955D01*
X230740Y198056D01*
X230692Y198155D01*
X230642Y198252D01*
X230587Y198347D01*
X230529Y198440D01*
X230468Y198531D01*
X230404Y198620D01*
X227948Y195960D02*
X227990Y195893D01*
X228034Y195828D01*
X228082Y195766D01*
X228132Y195706D01*
X228185Y195648D01*
X228241Y195593D01*
X228300Y195541D01*
X228360Y195491D01*
X228424Y195444D01*
X228489Y195401D01*
X228556Y195360D01*
X228625Y195323D01*
X228696Y195289D01*
X228768Y195258D01*
X228842Y195231D01*
X228916Y195207D01*
X228992Y195187D01*
X229069Y195171D01*
X229146Y195158D01*
X229224Y195148D01*
X229303Y195143D01*
X229381Y195141D01*
X226721Y198211D02*
X226679Y198277D01*
X226635Y198342D01*
X226588Y198404D01*
X226537Y198464D01*
X226484Y198522D01*
X226428Y198577D01*
X226370Y198630D01*
X226309Y198679D01*
X226246Y198726D01*
X226181Y198769D01*
X226114Y198810D01*
X226045Y198847D01*
X225974Y198881D01*
X225902Y198912D01*
X225828Y198939D01*
X225753Y198963D01*
X225678Y198983D01*
X225601Y198999D01*
X225524Y199012D01*
X225446Y199022D01*
X225367Y199027D01*
X225289Y199029D01*
X226721Y198211D02*
X227949Y195960D01*
X259212Y199410D02*
X259212Y182616D01*
X257688Y183816D02*
X250322Y183816D01*
X250322Y184634D02*
X250322Y182997D01*
X257688Y182997D02*
X257688Y184634D01*
X257688Y187866D02*
X250322Y187866D01*
X250322Y191958D02*
X257688Y187866D01*
X257688Y191958D02*
X250322Y191958D01*
X250322Y196983D02*
X257688Y196983D01*
X257688Y194937D02*
X257688Y199029D01*
X274198Y182109D02*
X274200Y182187D01*
X274205Y182265D01*
X274215Y182342D01*
X274228Y182419D01*
X274244Y182495D01*
X274264Y182570D01*
X274288Y182644D01*
X274315Y182717D01*
X274346Y182789D01*
X274380Y182859D01*
X274417Y182928D01*
X274458Y182994D01*
X274502Y183059D01*
X274548Y183121D01*
X274598Y183181D01*
X274650Y183239D01*
X274705Y183294D01*
X274763Y183346D01*
X274823Y183396D01*
X274885Y183442D01*
X274950Y183486D01*
X275017Y183527D01*
X275085Y183564D01*
X275155Y183598D01*
X275227Y183629D01*
X275300Y183656D01*
X275374Y183680D01*
X275449Y183700D01*
X275525Y183716D01*
X275602Y183729D01*
X275679Y183739D01*
X275757Y183744D01*
X275835Y183746D01*
X274198Y182109D02*
X274200Y181995D01*
X274205Y181882D01*
X274215Y181768D01*
X274228Y181655D01*
X274245Y181543D01*
X274265Y181431D01*
X274289Y181320D01*
X274317Y181209D01*
X274348Y181100D01*
X274383Y180992D01*
X274422Y180885D01*
X274464Y180779D01*
X274509Y180675D01*
X274558Y180572D01*
X274611Y180471D01*
X274666Y180372D01*
X274725Y180274D01*
X274787Y180179D01*
X274852Y180086D01*
X274920Y179994D01*
X274991Y179906D01*
X275065Y179819D01*
X275142Y179735D01*
X275221Y179654D01*
X279927Y179858D02*
X280005Y179860D01*
X280083Y179865D01*
X280160Y179875D01*
X280237Y179888D01*
X280313Y179904D01*
X280388Y179924D01*
X280462Y179948D01*
X280535Y179975D01*
X280607Y180006D01*
X280677Y180040D01*
X280746Y180077D01*
X280812Y180118D01*
X280877Y180162D01*
X280939Y180208D01*
X280999Y180258D01*
X281057Y180310D01*
X281112Y180365D01*
X281164Y180423D01*
X281214Y180483D01*
X281260Y180545D01*
X281304Y180610D01*
X281345Y180677D01*
X281382Y180745D01*
X281416Y180815D01*
X281447Y180887D01*
X281474Y180960D01*
X281498Y181034D01*
X281518Y181109D01*
X281534Y181185D01*
X281547Y181262D01*
X281557Y181339D01*
X281562Y181417D01*
X281564Y181495D01*
X281562Y181605D01*
X281556Y181714D01*
X281546Y181824D01*
X281533Y181932D01*
X281515Y182041D01*
X281494Y182148D01*
X281468Y182255D01*
X281439Y182361D01*
X281407Y182466D01*
X281370Y182569D01*
X281330Y182671D01*
X281286Y182772D01*
X281238Y182871D01*
X281188Y182968D01*
X281133Y183063D01*
X281075Y183156D01*
X281014Y183247D01*
X280950Y183336D01*
X278494Y180677D02*
X278536Y180610D01*
X278580Y180545D01*
X278628Y180483D01*
X278678Y180423D01*
X278731Y180365D01*
X278787Y180310D01*
X278846Y180258D01*
X278906Y180208D01*
X278970Y180161D01*
X279035Y180118D01*
X279102Y180077D01*
X279171Y180040D01*
X279242Y180006D01*
X279314Y179975D01*
X279388Y179948D01*
X279462Y179924D01*
X279538Y179904D01*
X279615Y179888D01*
X279692Y179875D01*
X279770Y179865D01*
X279849Y179860D01*
X279927Y179858D01*
X277267Y182927D02*
X277225Y182993D01*
X277181Y183058D01*
X277134Y183120D01*
X277083Y183180D01*
X277030Y183238D01*
X276974Y183293D01*
X276916Y183346D01*
X276855Y183395D01*
X276792Y183442D01*
X276727Y183485D01*
X276660Y183526D01*
X276591Y183563D01*
X276520Y183597D01*
X276448Y183628D01*
X276374Y183655D01*
X276299Y183679D01*
X276224Y183699D01*
X276147Y183715D01*
X276070Y183728D01*
X275992Y183738D01*
X275913Y183743D01*
X275835Y183745D01*
X277267Y182927D02*
X278495Y180677D01*
X281564Y186969D02*
X274198Y186969D01*
X281564Y186969D02*
X281564Y189015D01*
X281562Y189104D01*
X281556Y189193D01*
X281546Y189282D01*
X281533Y189370D01*
X281516Y189458D01*
X281494Y189545D01*
X281469Y189630D01*
X281441Y189715D01*
X281408Y189798D01*
X281372Y189880D01*
X281333Y189960D01*
X281290Y190038D01*
X281244Y190114D01*
X281194Y190189D01*
X281141Y190261D01*
X281085Y190330D01*
X281026Y190397D01*
X280965Y190462D01*
X280900Y190523D01*
X280833Y190582D01*
X280764Y190638D01*
X280692Y190691D01*
X280617Y190741D01*
X280541Y190787D01*
X280463Y190830D01*
X280383Y190869D01*
X280301Y190905D01*
X280218Y190938D01*
X280133Y190966D01*
X280048Y190991D01*
X279961Y191013D01*
X279873Y191030D01*
X279785Y191043D01*
X279696Y191053D01*
X279607Y191059D01*
X279518Y191061D01*
X276244Y191061D01*
X276155Y191059D01*
X276066Y191053D01*
X275977Y191043D01*
X275889Y191030D01*
X275801Y191013D01*
X275714Y190991D01*
X275629Y190966D01*
X275544Y190938D01*
X275461Y190905D01*
X275379Y190869D01*
X275299Y190830D01*
X275221Y190787D01*
X275145Y190741D01*
X275070Y190691D01*
X274998Y190638D01*
X274929Y190582D01*
X274862Y190523D01*
X274797Y190462D01*
X274736Y190397D01*
X274677Y190330D01*
X274621Y190261D01*
X274568Y190189D01*
X274518Y190114D01*
X274472Y190038D01*
X274429Y189960D01*
X274390Y189880D01*
X274354Y189798D01*
X274321Y189715D01*
X274293Y189630D01*
X274268Y189545D01*
X274246Y189458D01*
X274229Y189370D01*
X274216Y189282D01*
X274206Y189193D01*
X274200Y189104D01*
X274198Y189015D01*
X274198Y186969D01*
X274198Y194119D02*
X281564Y196574D01*
X274198Y199029D01*
X276040Y198415D02*
X276040Y194732D01*
X302646Y184784D02*
X302648Y184862D01*
X302653Y184940D01*
X302663Y185017D01*
X302676Y185094D01*
X302692Y185170D01*
X302712Y185245D01*
X302736Y185319D01*
X302763Y185392D01*
X302794Y185464D01*
X302828Y185534D01*
X302865Y185603D01*
X302906Y185669D01*
X302950Y185734D01*
X302996Y185796D01*
X303046Y185856D01*
X303098Y185914D01*
X303153Y185969D01*
X303211Y186021D01*
X303271Y186071D01*
X303333Y186117D01*
X303398Y186161D01*
X303465Y186202D01*
X303533Y186239D01*
X303603Y186273D01*
X303675Y186304D01*
X303748Y186331D01*
X303822Y186355D01*
X303897Y186375D01*
X303973Y186391D01*
X304050Y186404D01*
X304127Y186414D01*
X304205Y186419D01*
X304283Y186421D01*
X302646Y184784D02*
X302648Y184670D01*
X302653Y184557D01*
X302663Y184443D01*
X302676Y184330D01*
X302693Y184218D01*
X302713Y184106D01*
X302737Y183995D01*
X302765Y183884D01*
X302796Y183775D01*
X302831Y183667D01*
X302870Y183560D01*
X302912Y183454D01*
X302957Y183350D01*
X303006Y183247D01*
X303059Y183146D01*
X303114Y183047D01*
X303173Y182949D01*
X303235Y182854D01*
X303300Y182761D01*
X303368Y182669D01*
X303439Y182581D01*
X303513Y182494D01*
X303590Y182410D01*
X303669Y182329D01*
X308375Y182533D02*
X308453Y182535D01*
X308531Y182540D01*
X308608Y182550D01*
X308685Y182563D01*
X308761Y182579D01*
X308836Y182599D01*
X308910Y182623D01*
X308983Y182650D01*
X309055Y182681D01*
X309125Y182715D01*
X309194Y182752D01*
X309260Y182793D01*
X309325Y182837D01*
X309387Y182883D01*
X309447Y182933D01*
X309505Y182985D01*
X309560Y183040D01*
X309612Y183098D01*
X309662Y183158D01*
X309708Y183220D01*
X309752Y183285D01*
X309793Y183352D01*
X309830Y183420D01*
X309864Y183490D01*
X309895Y183562D01*
X309922Y183635D01*
X309946Y183709D01*
X309966Y183784D01*
X309982Y183860D01*
X309995Y183937D01*
X310005Y184014D01*
X310010Y184092D01*
X310012Y184170D01*
X310010Y184280D01*
X310004Y184389D01*
X309994Y184499D01*
X309981Y184607D01*
X309963Y184716D01*
X309942Y184823D01*
X309916Y184930D01*
X309887Y185036D01*
X309855Y185141D01*
X309818Y185244D01*
X309778Y185346D01*
X309734Y185447D01*
X309686Y185546D01*
X309636Y185643D01*
X309581Y185738D01*
X309523Y185831D01*
X309462Y185922D01*
X309398Y186011D01*
X306942Y183352D02*
X306984Y183285D01*
X307028Y183220D01*
X307076Y183158D01*
X307126Y183098D01*
X307179Y183040D01*
X307235Y182985D01*
X307294Y182933D01*
X307354Y182883D01*
X307418Y182836D01*
X307483Y182793D01*
X307550Y182752D01*
X307619Y182715D01*
X307690Y182681D01*
X307762Y182650D01*
X307836Y182623D01*
X307910Y182599D01*
X307986Y182579D01*
X308063Y182563D01*
X308140Y182550D01*
X308218Y182540D01*
X308297Y182535D01*
X308375Y182533D01*
X305715Y185602D02*
X305673Y185668D01*
X305629Y185733D01*
X305582Y185795D01*
X305531Y185855D01*
X305478Y185913D01*
X305422Y185968D01*
X305364Y186021D01*
X305303Y186070D01*
X305240Y186117D01*
X305175Y186160D01*
X305108Y186201D01*
X305039Y186238D01*
X304968Y186272D01*
X304896Y186303D01*
X304822Y186330D01*
X304747Y186354D01*
X304672Y186374D01*
X304595Y186390D01*
X304518Y186403D01*
X304440Y186413D01*
X304361Y186418D01*
X304283Y186420D01*
X305715Y185602D02*
X306943Y183352D01*
X302646Y191014D02*
X302646Y192651D01*
X302646Y191014D02*
X302648Y190936D01*
X302653Y190858D01*
X302663Y190781D01*
X302676Y190704D01*
X302692Y190628D01*
X302712Y190553D01*
X302736Y190479D01*
X302763Y190406D01*
X302794Y190334D01*
X302828Y190264D01*
X302865Y190196D01*
X302906Y190129D01*
X302950Y190064D01*
X302996Y190002D01*
X303046Y189942D01*
X303098Y189884D01*
X303153Y189829D01*
X303211Y189777D01*
X303271Y189727D01*
X303333Y189681D01*
X303398Y189637D01*
X303465Y189596D01*
X303533Y189559D01*
X303603Y189525D01*
X303675Y189494D01*
X303748Y189467D01*
X303822Y189443D01*
X303897Y189423D01*
X303973Y189407D01*
X304050Y189394D01*
X304127Y189384D01*
X304205Y189379D01*
X304283Y189377D01*
X308375Y189377D01*
X308453Y189379D01*
X308531Y189384D01*
X308608Y189394D01*
X308685Y189407D01*
X308761Y189423D01*
X308836Y189443D01*
X308910Y189467D01*
X308983Y189494D01*
X309055Y189525D01*
X309125Y189559D01*
X309194Y189596D01*
X309260Y189637D01*
X309325Y189681D01*
X309387Y189727D01*
X309447Y189777D01*
X309505Y189829D01*
X309560Y189884D01*
X309612Y189942D01*
X309662Y190002D01*
X309708Y190064D01*
X309752Y190129D01*
X309793Y190196D01*
X309830Y190264D01*
X309864Y190334D01*
X309895Y190406D01*
X309922Y190479D01*
X309946Y190553D01*
X309966Y190628D01*
X309982Y190704D01*
X309995Y190781D01*
X310005Y190858D01*
X310010Y190936D01*
X310012Y191014D01*
X310012Y192651D01*
X310012Y195756D02*
X302646Y195756D01*
X302646Y199029D01*
X47310Y34305D02*
X47310Y32259D01*
X47310Y34305D02*
X47312Y34394D01*
X47318Y34483D01*
X47328Y34572D01*
X47341Y34660D01*
X47358Y34748D01*
X47380Y34835D01*
X47405Y34920D01*
X47433Y35005D01*
X47466Y35088D01*
X47502Y35170D01*
X47541Y35250D01*
X47584Y35328D01*
X47630Y35404D01*
X47680Y35479D01*
X47733Y35551D01*
X47789Y35620D01*
X47848Y35687D01*
X47909Y35752D01*
X47974Y35813D01*
X48041Y35872D01*
X48110Y35928D01*
X48182Y35981D01*
X48257Y36031D01*
X48333Y36077D01*
X48411Y36120D01*
X48491Y36159D01*
X48573Y36195D01*
X48656Y36228D01*
X48741Y36256D01*
X48826Y36281D01*
X48913Y36303D01*
X49001Y36320D01*
X49089Y36333D01*
X49178Y36343D01*
X49267Y36349D01*
X49356Y36351D01*
X49445Y36349D01*
X49534Y36343D01*
X49623Y36333D01*
X49711Y36320D01*
X49799Y36303D01*
X49886Y36281D01*
X49971Y36256D01*
X50056Y36228D01*
X50139Y36195D01*
X50221Y36159D01*
X50301Y36120D01*
X50379Y36077D01*
X50455Y36031D01*
X50530Y35981D01*
X50602Y35928D01*
X50671Y35872D01*
X50738Y35813D01*
X50803Y35752D01*
X50864Y35687D01*
X50923Y35620D01*
X50979Y35551D01*
X51032Y35479D01*
X51082Y35404D01*
X51128Y35328D01*
X51171Y35250D01*
X51210Y35170D01*
X51246Y35088D01*
X51279Y35005D01*
X51307Y34920D01*
X51332Y34835D01*
X51354Y34748D01*
X51371Y34660D01*
X51384Y34572D01*
X51394Y34483D01*
X51400Y34394D01*
X51402Y34305D01*
X54676Y34715D02*
X54676Y32259D01*
X54676Y34715D02*
X54674Y34794D01*
X54668Y34873D01*
X54659Y34952D01*
X54646Y35030D01*
X54628Y35107D01*
X54608Y35183D01*
X54583Y35258D01*
X54555Y35332D01*
X54524Y35405D01*
X54488Y35476D01*
X54450Y35545D01*
X54408Y35612D01*
X54363Y35677D01*
X54315Y35740D01*
X54264Y35801D01*
X54210Y35858D01*
X54154Y35914D01*
X54095Y35966D01*
X54033Y36016D01*
X53969Y36062D01*
X53903Y36106D01*
X53835Y36146D01*
X53765Y36182D01*
X53693Y36216D01*
X53619Y36246D01*
X53545Y36272D01*
X53469Y36295D01*
X53392Y36313D01*
X53315Y36329D01*
X53236Y36340D01*
X53158Y36348D01*
X53079Y36352D01*
X52999Y36352D01*
X52920Y36348D01*
X52842Y36340D01*
X52763Y36329D01*
X52686Y36313D01*
X52609Y36295D01*
X52533Y36272D01*
X52459Y36246D01*
X52385Y36216D01*
X52313Y36182D01*
X52243Y36146D01*
X52175Y36106D01*
X52109Y36062D01*
X52045Y36016D01*
X51983Y35966D01*
X51924Y35914D01*
X51868Y35858D01*
X51814Y35801D01*
X51763Y35740D01*
X51715Y35677D01*
X51670Y35612D01*
X51628Y35545D01*
X51590Y35476D01*
X51554Y35405D01*
X51523Y35332D01*
X51495Y35258D01*
X51470Y35183D01*
X51450Y35107D01*
X51432Y35030D01*
X51419Y34952D01*
X51410Y34873D01*
X51404Y34794D01*
X51402Y34715D01*
X51402Y33078D01*
X54676Y39165D02*
X47310Y41621D01*
X54676Y44076D01*
X47310Y46890D02*
X47310Y48936D01*
X47312Y49025D01*
X47318Y49114D01*
X47328Y49203D01*
X47341Y49291D01*
X47358Y49379D01*
X47380Y49466D01*
X47405Y49551D01*
X47433Y49636D01*
X47466Y49719D01*
X47502Y49801D01*
X47541Y49881D01*
X47584Y49959D01*
X47630Y50035D01*
X47680Y50110D01*
X47733Y50182D01*
X47789Y50251D01*
X47848Y50318D01*
X47909Y50383D01*
X47974Y50444D01*
X48041Y50503D01*
X48110Y50559D01*
X48182Y50612D01*
X48257Y50662D01*
X48333Y50708D01*
X48411Y50751D01*
X48491Y50790D01*
X48573Y50826D01*
X48656Y50859D01*
X48741Y50887D01*
X48826Y50912D01*
X48913Y50934D01*
X49001Y50951D01*
X49089Y50964D01*
X49178Y50974D01*
X49267Y50980D01*
X49356Y50982D01*
X49445Y50980D01*
X49534Y50974D01*
X49623Y50964D01*
X49711Y50951D01*
X49799Y50934D01*
X49886Y50912D01*
X49971Y50887D01*
X50056Y50859D01*
X50139Y50826D01*
X50221Y50790D01*
X50301Y50751D01*
X50379Y50708D01*
X50455Y50662D01*
X50530Y50612D01*
X50602Y50559D01*
X50671Y50503D01*
X50738Y50444D01*
X50803Y50383D01*
X50864Y50318D01*
X50923Y50251D01*
X50979Y50182D01*
X51032Y50110D01*
X51082Y50035D01*
X51128Y49959D01*
X51171Y49881D01*
X51210Y49801D01*
X51246Y49719D01*
X51279Y49636D01*
X51307Y49551D01*
X51332Y49466D01*
X51354Y49379D01*
X51371Y49291D01*
X51384Y49203D01*
X51394Y49114D01*
X51400Y49025D01*
X51402Y48936D01*
X54676Y49345D02*
X54676Y46890D01*
X54676Y49345D02*
X54674Y49424D01*
X54668Y49503D01*
X54659Y49582D01*
X54646Y49660D01*
X54628Y49737D01*
X54608Y49813D01*
X54583Y49888D01*
X54555Y49962D01*
X54524Y50035D01*
X54488Y50106D01*
X54450Y50175D01*
X54408Y50242D01*
X54363Y50307D01*
X54315Y50370D01*
X54264Y50431D01*
X54210Y50488D01*
X54154Y50544D01*
X54095Y50596D01*
X54033Y50646D01*
X53969Y50692D01*
X53903Y50736D01*
X53835Y50776D01*
X53765Y50812D01*
X53693Y50846D01*
X53619Y50876D01*
X53545Y50902D01*
X53469Y50925D01*
X53392Y50943D01*
X53315Y50959D01*
X53236Y50970D01*
X53158Y50978D01*
X53079Y50982D01*
X52999Y50982D01*
X52920Y50978D01*
X52842Y50970D01*
X52763Y50959D01*
X52686Y50943D01*
X52609Y50925D01*
X52533Y50902D01*
X52459Y50876D01*
X52385Y50846D01*
X52313Y50812D01*
X52243Y50776D01*
X52175Y50736D01*
X52109Y50692D01*
X52045Y50646D01*
X51983Y50596D01*
X51924Y50544D01*
X51868Y50488D01*
X51814Y50431D01*
X51763Y50370D01*
X51715Y50307D01*
X51670Y50242D01*
X51628Y50175D01*
X51590Y50106D01*
X51554Y50035D01*
X51523Y49962D01*
X51495Y49888D01*
X51470Y49813D01*
X51450Y49737D01*
X51432Y49660D01*
X51419Y49582D01*
X51410Y49503D01*
X51404Y49424D01*
X51402Y49345D01*
X51402Y47708D01*
X71406Y34642D02*
X71406Y32596D01*
X71406Y34642D02*
X71408Y34731D01*
X71414Y34820D01*
X71424Y34909D01*
X71437Y34997D01*
X71454Y35085D01*
X71476Y35172D01*
X71501Y35257D01*
X71529Y35342D01*
X71562Y35425D01*
X71598Y35507D01*
X71637Y35587D01*
X71680Y35665D01*
X71726Y35741D01*
X71776Y35816D01*
X71829Y35888D01*
X71885Y35957D01*
X71944Y36024D01*
X72005Y36089D01*
X72070Y36150D01*
X72137Y36209D01*
X72206Y36265D01*
X72278Y36318D01*
X72353Y36368D01*
X72429Y36414D01*
X72507Y36457D01*
X72587Y36496D01*
X72669Y36532D01*
X72752Y36565D01*
X72837Y36593D01*
X72922Y36618D01*
X73009Y36640D01*
X73097Y36657D01*
X73185Y36670D01*
X73274Y36680D01*
X73363Y36686D01*
X73452Y36688D01*
X73541Y36686D01*
X73630Y36680D01*
X73719Y36670D01*
X73807Y36657D01*
X73895Y36640D01*
X73982Y36618D01*
X74067Y36593D01*
X74152Y36565D01*
X74235Y36532D01*
X74317Y36496D01*
X74397Y36457D01*
X74475Y36414D01*
X74551Y36368D01*
X74626Y36318D01*
X74698Y36265D01*
X74767Y36209D01*
X74834Y36150D01*
X74899Y36089D01*
X74960Y36024D01*
X75019Y35957D01*
X75075Y35888D01*
X75128Y35816D01*
X75178Y35741D01*
X75224Y35665D01*
X75267Y35587D01*
X75306Y35507D01*
X75342Y35425D01*
X75375Y35342D01*
X75403Y35257D01*
X75428Y35172D01*
X75450Y35085D01*
X75467Y34997D01*
X75480Y34909D01*
X75490Y34820D01*
X75496Y34731D01*
X75498Y34642D01*
X78772Y35051D02*
X78772Y32596D01*
X78772Y35051D02*
X78770Y35130D01*
X78764Y35209D01*
X78755Y35288D01*
X78742Y35366D01*
X78724Y35443D01*
X78704Y35519D01*
X78679Y35594D01*
X78651Y35668D01*
X78620Y35741D01*
X78584Y35812D01*
X78546Y35881D01*
X78504Y35948D01*
X78459Y36013D01*
X78411Y36076D01*
X78360Y36137D01*
X78306Y36194D01*
X78250Y36250D01*
X78191Y36302D01*
X78129Y36352D01*
X78065Y36398D01*
X77999Y36442D01*
X77931Y36482D01*
X77861Y36518D01*
X77789Y36552D01*
X77715Y36582D01*
X77641Y36608D01*
X77565Y36631D01*
X77488Y36649D01*
X77411Y36665D01*
X77332Y36676D01*
X77254Y36684D01*
X77175Y36688D01*
X77095Y36688D01*
X77016Y36684D01*
X76938Y36676D01*
X76859Y36665D01*
X76782Y36649D01*
X76705Y36631D01*
X76629Y36608D01*
X76555Y36582D01*
X76481Y36552D01*
X76409Y36518D01*
X76339Y36482D01*
X76271Y36442D01*
X76205Y36398D01*
X76141Y36352D01*
X76079Y36302D01*
X76020Y36250D01*
X75964Y36194D01*
X75910Y36137D01*
X75859Y36076D01*
X75811Y36013D01*
X75766Y35948D01*
X75724Y35881D01*
X75686Y35812D01*
X75650Y35741D01*
X75619Y35668D01*
X75591Y35594D01*
X75566Y35519D01*
X75546Y35443D01*
X75528Y35366D01*
X75515Y35288D01*
X75506Y35209D01*
X75500Y35130D01*
X75498Y35051D01*
X75498Y33414D01*
X78772Y39502D02*
X71406Y41957D01*
X78772Y44413D01*
X71406Y47226D02*
X71406Y49272D01*
X71408Y49361D01*
X71414Y49450D01*
X71424Y49539D01*
X71437Y49627D01*
X71454Y49715D01*
X71476Y49802D01*
X71501Y49887D01*
X71529Y49972D01*
X71562Y50055D01*
X71598Y50137D01*
X71637Y50217D01*
X71680Y50295D01*
X71726Y50371D01*
X71776Y50446D01*
X71829Y50518D01*
X71885Y50587D01*
X71944Y50654D01*
X72005Y50719D01*
X72070Y50780D01*
X72137Y50839D01*
X72206Y50895D01*
X72278Y50948D01*
X72353Y50998D01*
X72429Y51044D01*
X72507Y51087D01*
X72587Y51126D01*
X72669Y51162D01*
X72752Y51195D01*
X72837Y51223D01*
X72922Y51248D01*
X73009Y51270D01*
X73097Y51287D01*
X73185Y51300D01*
X73274Y51310D01*
X73363Y51316D01*
X73452Y51318D01*
X73541Y51316D01*
X73630Y51310D01*
X73719Y51300D01*
X73807Y51287D01*
X73895Y51270D01*
X73982Y51248D01*
X74067Y51223D01*
X74152Y51195D01*
X74235Y51162D01*
X74317Y51126D01*
X74397Y51087D01*
X74475Y51044D01*
X74551Y50998D01*
X74626Y50948D01*
X74698Y50895D01*
X74767Y50839D01*
X74834Y50780D01*
X74899Y50719D01*
X74960Y50654D01*
X75019Y50587D01*
X75075Y50518D01*
X75128Y50446D01*
X75178Y50371D01*
X75224Y50295D01*
X75267Y50217D01*
X75306Y50137D01*
X75342Y50055D01*
X75375Y49972D01*
X75403Y49887D01*
X75428Y49802D01*
X75450Y49715D01*
X75467Y49627D01*
X75480Y49539D01*
X75490Y49450D01*
X75496Y49361D01*
X75498Y49272D01*
X78772Y49682D02*
X78772Y47226D01*
X78772Y49682D02*
X78770Y49761D01*
X78764Y49840D01*
X78755Y49919D01*
X78742Y49997D01*
X78724Y50074D01*
X78704Y50150D01*
X78679Y50225D01*
X78651Y50299D01*
X78620Y50372D01*
X78584Y50443D01*
X78546Y50512D01*
X78504Y50579D01*
X78459Y50644D01*
X78411Y50707D01*
X78360Y50768D01*
X78306Y50825D01*
X78250Y50881D01*
X78191Y50933D01*
X78129Y50983D01*
X78065Y51029D01*
X77999Y51073D01*
X77931Y51113D01*
X77861Y51149D01*
X77789Y51183D01*
X77715Y51213D01*
X77641Y51239D01*
X77565Y51262D01*
X77488Y51280D01*
X77411Y51296D01*
X77332Y51307D01*
X77254Y51315D01*
X77175Y51319D01*
X77095Y51319D01*
X77016Y51315D01*
X76938Y51307D01*
X76859Y51296D01*
X76782Y51280D01*
X76705Y51262D01*
X76629Y51239D01*
X76555Y51213D01*
X76481Y51183D01*
X76409Y51149D01*
X76339Y51113D01*
X76271Y51073D01*
X76205Y51029D01*
X76141Y50983D01*
X76079Y50933D01*
X76020Y50881D01*
X75964Y50825D01*
X75910Y50768D01*
X75859Y50707D01*
X75811Y50644D01*
X75766Y50579D01*
X75724Y50512D01*
X75686Y50443D01*
X75650Y50372D01*
X75619Y50299D01*
X75591Y50225D01*
X75566Y50150D01*
X75546Y50074D01*
X75528Y49997D01*
X75515Y49919D01*
X75506Y49840D01*
X75500Y49761D01*
X75498Y49682D01*
X75498Y48045D01*
X148697Y34407D02*
X156063Y31952D01*
X156063Y36863D02*
X148697Y34407D01*
X148697Y41290D02*
X148697Y42927D01*
X148697Y41290D02*
X148699Y41212D01*
X148704Y41134D01*
X148714Y41057D01*
X148727Y40980D01*
X148743Y40904D01*
X148763Y40829D01*
X148787Y40755D01*
X148814Y40682D01*
X148845Y40610D01*
X148879Y40540D01*
X148916Y40472D01*
X148957Y40405D01*
X149001Y40340D01*
X149047Y40278D01*
X149097Y40218D01*
X149149Y40160D01*
X149204Y40105D01*
X149262Y40053D01*
X149322Y40003D01*
X149384Y39957D01*
X149449Y39913D01*
X149516Y39872D01*
X149584Y39835D01*
X149654Y39801D01*
X149726Y39770D01*
X149799Y39743D01*
X149873Y39719D01*
X149948Y39699D01*
X150024Y39683D01*
X150101Y39670D01*
X150178Y39660D01*
X150256Y39655D01*
X150334Y39653D01*
X154426Y39653D01*
X154504Y39655D01*
X154582Y39660D01*
X154659Y39670D01*
X154736Y39683D01*
X154812Y39699D01*
X154887Y39719D01*
X154961Y39743D01*
X155034Y39770D01*
X155106Y39801D01*
X155176Y39835D01*
X155245Y39872D01*
X155311Y39913D01*
X155376Y39957D01*
X155438Y40003D01*
X155498Y40053D01*
X155556Y40105D01*
X155611Y40160D01*
X155663Y40218D01*
X155713Y40278D01*
X155759Y40340D01*
X155803Y40405D01*
X155844Y40472D01*
X155881Y40540D01*
X155915Y40610D01*
X155946Y40682D01*
X155973Y40755D01*
X155997Y40829D01*
X156017Y40904D01*
X156033Y40980D01*
X156046Y41057D01*
X156056Y41134D01*
X156061Y41212D01*
X156063Y41290D01*
X156063Y42927D01*
X148697Y47386D02*
X148697Y49023D01*
X148697Y47386D02*
X148699Y47308D01*
X148704Y47230D01*
X148714Y47153D01*
X148727Y47076D01*
X148743Y47000D01*
X148763Y46925D01*
X148787Y46851D01*
X148814Y46778D01*
X148845Y46706D01*
X148879Y46636D01*
X148916Y46568D01*
X148957Y46501D01*
X149001Y46436D01*
X149047Y46374D01*
X149097Y46314D01*
X149149Y46256D01*
X149204Y46201D01*
X149262Y46149D01*
X149322Y46099D01*
X149384Y46053D01*
X149449Y46009D01*
X149516Y45968D01*
X149584Y45931D01*
X149654Y45897D01*
X149726Y45866D01*
X149799Y45839D01*
X149873Y45815D01*
X149948Y45795D01*
X150024Y45779D01*
X150101Y45766D01*
X150178Y45756D01*
X150256Y45751D01*
X150334Y45749D01*
X154426Y45749D01*
X154504Y45751D01*
X154582Y45756D01*
X154659Y45766D01*
X154736Y45779D01*
X154812Y45795D01*
X154887Y45815D01*
X154961Y45839D01*
X155034Y45866D01*
X155106Y45897D01*
X155176Y45931D01*
X155245Y45968D01*
X155311Y46009D01*
X155376Y46053D01*
X155438Y46099D01*
X155498Y46149D01*
X155556Y46201D01*
X155611Y46256D01*
X155663Y46314D01*
X155713Y46374D01*
X155759Y46436D01*
X155803Y46501D01*
X155844Y46568D01*
X155881Y46636D01*
X155915Y46706D01*
X155946Y46778D01*
X155973Y46851D01*
X155997Y46925D01*
X156017Y47000D01*
X156033Y47076D01*
X156046Y47153D01*
X156056Y47230D01*
X156061Y47308D01*
X156063Y47386D01*
X156063Y49023D01*
X173673Y35151D02*
X181039Y32695D01*
X181039Y37606D02*
X173673Y35151D01*
X173673Y42033D02*
X173673Y43670D01*
X173673Y42033D02*
X173675Y41955D01*
X173680Y41877D01*
X173690Y41800D01*
X173703Y41723D01*
X173719Y41647D01*
X173739Y41572D01*
X173763Y41498D01*
X173790Y41425D01*
X173821Y41353D01*
X173855Y41283D01*
X173892Y41215D01*
X173933Y41148D01*
X173977Y41083D01*
X174023Y41021D01*
X174073Y40961D01*
X174125Y40903D01*
X174180Y40848D01*
X174238Y40796D01*
X174298Y40746D01*
X174360Y40700D01*
X174425Y40656D01*
X174492Y40615D01*
X174560Y40578D01*
X174630Y40544D01*
X174702Y40513D01*
X174775Y40486D01*
X174849Y40462D01*
X174924Y40442D01*
X175000Y40426D01*
X175077Y40413D01*
X175154Y40403D01*
X175232Y40398D01*
X175310Y40396D01*
X175310Y40397D02*
X179402Y40397D01*
X179402Y40396D02*
X179480Y40398D01*
X179558Y40403D01*
X179635Y40413D01*
X179712Y40426D01*
X179788Y40442D01*
X179863Y40462D01*
X179937Y40486D01*
X180010Y40513D01*
X180082Y40544D01*
X180152Y40578D01*
X180221Y40615D01*
X180287Y40656D01*
X180352Y40700D01*
X180414Y40746D01*
X180474Y40796D01*
X180532Y40848D01*
X180587Y40903D01*
X180639Y40961D01*
X180689Y41021D01*
X180735Y41083D01*
X180779Y41148D01*
X180820Y41215D01*
X180857Y41283D01*
X180891Y41353D01*
X180922Y41425D01*
X180949Y41498D01*
X180973Y41572D01*
X180993Y41647D01*
X181009Y41723D01*
X181022Y41800D01*
X181032Y41877D01*
X181037Y41955D01*
X181039Y42033D01*
X181039Y43670D01*
X173673Y48129D02*
X173673Y49766D01*
X173673Y48129D02*
X173675Y48051D01*
X173680Y47973D01*
X173690Y47896D01*
X173703Y47819D01*
X173719Y47743D01*
X173739Y47668D01*
X173763Y47594D01*
X173790Y47521D01*
X173821Y47449D01*
X173855Y47379D01*
X173892Y47311D01*
X173933Y47244D01*
X173977Y47179D01*
X174023Y47117D01*
X174073Y47057D01*
X174125Y46999D01*
X174180Y46944D01*
X174238Y46892D01*
X174298Y46842D01*
X174360Y46796D01*
X174425Y46752D01*
X174492Y46711D01*
X174560Y46674D01*
X174630Y46640D01*
X174702Y46609D01*
X174775Y46582D01*
X174849Y46558D01*
X174924Y46538D01*
X175000Y46522D01*
X175077Y46509D01*
X175154Y46499D01*
X175232Y46494D01*
X175310Y46492D01*
X175310Y46493D02*
X179402Y46493D01*
X179402Y46492D02*
X179480Y46494D01*
X179558Y46499D01*
X179635Y46509D01*
X179712Y46522D01*
X179788Y46538D01*
X179863Y46558D01*
X179937Y46582D01*
X180010Y46609D01*
X180082Y46640D01*
X180152Y46674D01*
X180221Y46711D01*
X180287Y46752D01*
X180352Y46796D01*
X180414Y46842D01*
X180474Y46892D01*
X180532Y46944D01*
X180587Y46999D01*
X180639Y47057D01*
X180689Y47117D01*
X180735Y47179D01*
X180779Y47244D01*
X180820Y47311D01*
X180857Y47379D01*
X180891Y47449D01*
X180922Y47521D01*
X180949Y47594D01*
X180973Y47668D01*
X180993Y47743D01*
X181009Y47819D01*
X181022Y47896D01*
X181032Y47973D01*
X181037Y48051D01*
X181039Y48129D01*
X181039Y49766D01*
D11*
X211513Y31250D02*
X211513Y25662D01*
X211513Y31250D02*
X209961Y31250D01*
X209961Y31249D02*
X209884Y31247D01*
X209806Y31241D01*
X209730Y31232D01*
X209653Y31218D01*
X209578Y31201D01*
X209504Y31180D01*
X209430Y31155D01*
X209358Y31127D01*
X209288Y31095D01*
X209219Y31060D01*
X209152Y31021D01*
X209087Y30979D01*
X209024Y30934D01*
X208963Y30886D01*
X208905Y30835D01*
X208850Y30781D01*
X208797Y30724D01*
X208748Y30665D01*
X208701Y30603D01*
X208657Y30539D01*
X208617Y30473D01*
X208580Y30405D01*
X208546Y30335D01*
X208516Y30264D01*
X208490Y30191D01*
X208467Y30117D01*
X208448Y30042D01*
X208433Y29967D01*
X208421Y29890D01*
X208413Y29813D01*
X208409Y29736D01*
X208409Y29658D01*
X208413Y29581D01*
X208421Y29504D01*
X208433Y29427D01*
X208448Y29352D01*
X208467Y29277D01*
X208490Y29203D01*
X208516Y29130D01*
X208546Y29059D01*
X208580Y28989D01*
X208617Y28921D01*
X208657Y28855D01*
X208701Y28791D01*
X208748Y28729D01*
X208797Y28670D01*
X208850Y28613D01*
X208905Y28559D01*
X208963Y28508D01*
X209024Y28460D01*
X209087Y28415D01*
X209152Y28373D01*
X209219Y28334D01*
X209288Y28299D01*
X209358Y28267D01*
X209430Y28239D01*
X209504Y28214D01*
X209578Y28193D01*
X209653Y28176D01*
X209730Y28162D01*
X209806Y28153D01*
X209884Y28147D01*
X209961Y28145D01*
X211513Y28145D01*
X209651Y28145D02*
X208409Y25662D01*
X205869Y25662D02*
X203386Y25662D01*
X205869Y25662D02*
X205869Y31250D01*
X203386Y31250D01*
X204006Y28766D02*
X205869Y28766D01*
X198952Y28766D02*
X198021Y28766D01*
X198021Y25662D01*
X199884Y25662D01*
X199884Y25661D02*
X199954Y25663D01*
X200023Y25669D01*
X200092Y25679D01*
X200160Y25692D01*
X200228Y25710D01*
X200294Y25731D01*
X200359Y25756D01*
X200423Y25784D01*
X200485Y25816D01*
X200545Y25851D01*
X200603Y25890D01*
X200658Y25932D01*
X200712Y25977D01*
X200762Y26025D01*
X200810Y26075D01*
X200855Y26129D01*
X200897Y26184D01*
X200936Y26242D01*
X200971Y26302D01*
X201003Y26364D01*
X201031Y26428D01*
X201056Y26493D01*
X201077Y26559D01*
X201095Y26627D01*
X201108Y26695D01*
X201118Y26764D01*
X201124Y26833D01*
X201126Y26903D01*
X201125Y26903D02*
X201125Y30008D01*
X201126Y30008D02*
X201124Y30078D01*
X201118Y30147D01*
X201108Y30216D01*
X201095Y30284D01*
X201077Y30352D01*
X201056Y30418D01*
X201031Y30483D01*
X201003Y30547D01*
X200971Y30609D01*
X200936Y30669D01*
X200897Y30727D01*
X200855Y30782D01*
X200810Y30836D01*
X200762Y30886D01*
X200712Y30934D01*
X200658Y30979D01*
X200603Y31021D01*
X200545Y31060D01*
X200485Y31095D01*
X200423Y31127D01*
X200359Y31155D01*
X200294Y31180D01*
X200228Y31201D01*
X200160Y31219D01*
X200092Y31232D01*
X200023Y31242D01*
X199954Y31248D01*
X199884Y31250D01*
X198021Y31250D01*
X195273Y31250D02*
X195273Y25662D01*
X192169Y25662D02*
X195273Y31250D01*
X192169Y31250D02*
X192169Y25662D01*
D10*
X323799Y182408D02*
X323799Y184045D01*
X323799Y182408D02*
X323801Y182330D01*
X323806Y182252D01*
X323816Y182175D01*
X323829Y182098D01*
X323845Y182022D01*
X323865Y181947D01*
X323889Y181873D01*
X323916Y181800D01*
X323947Y181728D01*
X323981Y181658D01*
X324018Y181590D01*
X324059Y181523D01*
X324103Y181458D01*
X324149Y181396D01*
X324199Y181336D01*
X324251Y181278D01*
X324306Y181223D01*
X324364Y181171D01*
X324424Y181121D01*
X324486Y181075D01*
X324551Y181031D01*
X324618Y180990D01*
X324686Y180953D01*
X324756Y180919D01*
X324828Y180888D01*
X324901Y180861D01*
X324975Y180837D01*
X325050Y180817D01*
X325126Y180801D01*
X325203Y180788D01*
X325280Y180778D01*
X325358Y180773D01*
X325436Y180771D01*
X329529Y180771D01*
X329607Y180773D01*
X329685Y180778D01*
X329762Y180788D01*
X329839Y180801D01*
X329915Y180817D01*
X329990Y180837D01*
X330064Y180861D01*
X330137Y180888D01*
X330209Y180919D01*
X330279Y180953D01*
X330348Y180990D01*
X330414Y181031D01*
X330479Y181075D01*
X330541Y181121D01*
X330601Y181171D01*
X330659Y181223D01*
X330714Y181278D01*
X330766Y181336D01*
X330816Y181396D01*
X330862Y181458D01*
X330906Y181523D01*
X330947Y181590D01*
X330984Y181658D01*
X331018Y181728D01*
X331049Y181800D01*
X331076Y181873D01*
X331100Y181947D01*
X331120Y182022D01*
X331136Y182098D01*
X331149Y182175D01*
X331159Y182252D01*
X331164Y182330D01*
X331166Y182408D01*
X331165Y182408D02*
X331165Y184045D01*
X331165Y187134D02*
X323799Y187134D01*
X327892Y187134D02*
X327892Y191226D01*
X331165Y191226D02*
X323799Y191226D01*
X327892Y197802D02*
X327892Y199029D01*
X323799Y199029D01*
X323799Y196574D01*
X323801Y196496D01*
X323806Y196418D01*
X323816Y196341D01*
X323829Y196264D01*
X323845Y196188D01*
X323865Y196113D01*
X323889Y196039D01*
X323916Y195966D01*
X323947Y195894D01*
X323981Y195824D01*
X324018Y195756D01*
X324059Y195689D01*
X324103Y195624D01*
X324149Y195562D01*
X324199Y195502D01*
X324251Y195444D01*
X324306Y195389D01*
X324364Y195337D01*
X324424Y195287D01*
X324486Y195241D01*
X324551Y195197D01*
X324618Y195156D01*
X324686Y195119D01*
X324756Y195085D01*
X324828Y195054D01*
X324901Y195027D01*
X324975Y195003D01*
X325050Y194983D01*
X325126Y194967D01*
X325203Y194954D01*
X325280Y194944D01*
X325358Y194939D01*
X325436Y194937D01*
X329529Y194937D01*
X329607Y194939D01*
X329685Y194944D01*
X329762Y194954D01*
X329839Y194967D01*
X329915Y194983D01*
X329990Y195003D01*
X330064Y195027D01*
X330137Y195054D01*
X330209Y195085D01*
X330279Y195119D01*
X330348Y195156D01*
X330414Y195197D01*
X330479Y195241D01*
X330541Y195287D01*
X330601Y195337D01*
X330659Y195389D01*
X330714Y195444D01*
X330766Y195502D01*
X330816Y195562D01*
X330862Y195624D01*
X330906Y195689D01*
X330947Y195756D01*
X330984Y195824D01*
X331018Y195894D01*
X331049Y195966D01*
X331076Y196039D01*
X331100Y196113D01*
X331120Y196188D01*
X331136Y196264D01*
X331149Y196341D01*
X331159Y196418D01*
X331164Y196496D01*
X331166Y196574D01*
X331165Y196574D02*
X331165Y199029D01*
X258030Y37209D02*
X258030Y35981D01*
X258030Y37209D02*
X253937Y37209D01*
X253937Y34753D01*
X253939Y34675D01*
X253944Y34597D01*
X253954Y34520D01*
X253967Y34443D01*
X253983Y34367D01*
X254003Y34292D01*
X254027Y34218D01*
X254054Y34145D01*
X254085Y34073D01*
X254119Y34003D01*
X254156Y33935D01*
X254197Y33868D01*
X254241Y33803D01*
X254287Y33741D01*
X254337Y33681D01*
X254389Y33623D01*
X254444Y33568D01*
X254502Y33516D01*
X254562Y33466D01*
X254624Y33420D01*
X254689Y33376D01*
X254756Y33335D01*
X254824Y33298D01*
X254894Y33264D01*
X254966Y33233D01*
X255039Y33206D01*
X255113Y33182D01*
X255188Y33162D01*
X255264Y33146D01*
X255341Y33133D01*
X255418Y33123D01*
X255496Y33118D01*
X255574Y33116D01*
X259666Y33116D01*
X259744Y33118D01*
X259822Y33123D01*
X259899Y33133D01*
X259976Y33146D01*
X260052Y33162D01*
X260127Y33182D01*
X260201Y33206D01*
X260274Y33233D01*
X260346Y33264D01*
X260416Y33298D01*
X260485Y33335D01*
X260551Y33376D01*
X260616Y33420D01*
X260678Y33466D01*
X260738Y33516D01*
X260796Y33568D01*
X260851Y33623D01*
X260903Y33681D01*
X260953Y33741D01*
X260999Y33803D01*
X261043Y33868D01*
X261084Y33935D01*
X261121Y34003D01*
X261155Y34073D01*
X261186Y34145D01*
X261213Y34218D01*
X261237Y34292D01*
X261257Y34367D01*
X261273Y34443D01*
X261286Y34520D01*
X261296Y34597D01*
X261301Y34675D01*
X261303Y34753D01*
X261303Y37209D01*
X261303Y40919D02*
X253937Y40919D01*
X253937Y45011D02*
X261303Y40919D01*
X261303Y45011D02*
X253937Y45011D01*
X253937Y48722D02*
X261303Y48722D01*
X261303Y50768D01*
X261301Y50857D01*
X261295Y50946D01*
X261285Y51035D01*
X261272Y51123D01*
X261255Y51211D01*
X261233Y51298D01*
X261208Y51383D01*
X261180Y51468D01*
X261147Y51551D01*
X261111Y51633D01*
X261072Y51713D01*
X261029Y51791D01*
X260983Y51867D01*
X260933Y51942D01*
X260880Y52014D01*
X260824Y52083D01*
X260765Y52150D01*
X260704Y52215D01*
X260639Y52276D01*
X260572Y52335D01*
X260503Y52391D01*
X260431Y52444D01*
X260356Y52494D01*
X260280Y52540D01*
X260202Y52583D01*
X260122Y52622D01*
X260040Y52658D01*
X259957Y52691D01*
X259872Y52719D01*
X259787Y52744D01*
X259700Y52766D01*
X259612Y52783D01*
X259524Y52796D01*
X259435Y52806D01*
X259346Y52812D01*
X259257Y52814D01*
X255983Y52814D01*
X255894Y52812D01*
X255805Y52806D01*
X255716Y52796D01*
X255628Y52783D01*
X255540Y52766D01*
X255453Y52744D01*
X255368Y52719D01*
X255283Y52691D01*
X255200Y52658D01*
X255118Y52622D01*
X255038Y52583D01*
X254960Y52540D01*
X254884Y52494D01*
X254809Y52444D01*
X254737Y52391D01*
X254668Y52335D01*
X254601Y52276D01*
X254536Y52215D01*
X254475Y52150D01*
X254416Y52083D01*
X254360Y52014D01*
X254307Y51942D01*
X254257Y51867D01*
X254211Y51791D01*
X254168Y51713D01*
X254129Y51633D01*
X254093Y51551D01*
X254060Y51468D01*
X254032Y51383D01*
X254007Y51298D01*
X253985Y51211D01*
X253968Y51123D01*
X253955Y51035D01*
X253945Y50946D01*
X253939Y50857D01*
X253937Y50768D01*
X253937Y48722D01*
X281652Y37971D02*
X281652Y36743D01*
X281652Y37971D02*
X277559Y37971D01*
X277559Y35515D01*
X277561Y35437D01*
X277566Y35359D01*
X277576Y35282D01*
X277589Y35205D01*
X277605Y35129D01*
X277625Y35054D01*
X277649Y34980D01*
X277676Y34907D01*
X277707Y34835D01*
X277741Y34765D01*
X277778Y34697D01*
X277819Y34630D01*
X277863Y34565D01*
X277909Y34503D01*
X277959Y34443D01*
X278011Y34385D01*
X278066Y34330D01*
X278124Y34278D01*
X278184Y34228D01*
X278246Y34182D01*
X278311Y34138D01*
X278378Y34097D01*
X278446Y34060D01*
X278516Y34026D01*
X278588Y33995D01*
X278661Y33968D01*
X278735Y33944D01*
X278810Y33924D01*
X278886Y33908D01*
X278963Y33895D01*
X279040Y33885D01*
X279118Y33880D01*
X279196Y33878D01*
X283288Y33878D01*
X283366Y33880D01*
X283444Y33885D01*
X283521Y33895D01*
X283598Y33908D01*
X283674Y33924D01*
X283749Y33944D01*
X283823Y33968D01*
X283896Y33995D01*
X283968Y34026D01*
X284038Y34060D01*
X284107Y34097D01*
X284173Y34138D01*
X284238Y34182D01*
X284300Y34228D01*
X284360Y34278D01*
X284418Y34330D01*
X284473Y34385D01*
X284525Y34443D01*
X284575Y34503D01*
X284621Y34565D01*
X284665Y34630D01*
X284706Y34697D01*
X284743Y34765D01*
X284777Y34835D01*
X284808Y34907D01*
X284835Y34980D01*
X284859Y35054D01*
X284879Y35129D01*
X284895Y35205D01*
X284908Y35282D01*
X284918Y35359D01*
X284923Y35437D01*
X284925Y35515D01*
X284925Y37971D01*
X284925Y41681D02*
X277559Y41681D01*
X277559Y45773D02*
X284925Y41681D01*
X284925Y45773D02*
X277559Y45773D01*
X277559Y49484D02*
X284925Y49484D01*
X284925Y51530D01*
X284923Y51619D01*
X284917Y51708D01*
X284907Y51797D01*
X284894Y51885D01*
X284877Y51973D01*
X284855Y52060D01*
X284830Y52145D01*
X284802Y52230D01*
X284769Y52313D01*
X284733Y52395D01*
X284694Y52475D01*
X284651Y52553D01*
X284605Y52629D01*
X284555Y52704D01*
X284502Y52776D01*
X284446Y52845D01*
X284387Y52912D01*
X284326Y52977D01*
X284261Y53038D01*
X284194Y53097D01*
X284125Y53153D01*
X284053Y53206D01*
X283978Y53256D01*
X283902Y53302D01*
X283824Y53345D01*
X283744Y53384D01*
X283662Y53420D01*
X283579Y53453D01*
X283494Y53481D01*
X283409Y53506D01*
X283322Y53528D01*
X283234Y53545D01*
X283146Y53558D01*
X283057Y53568D01*
X282968Y53574D01*
X282879Y53576D01*
X279605Y53576D01*
X279516Y53574D01*
X279427Y53568D01*
X279338Y53558D01*
X279250Y53545D01*
X279162Y53528D01*
X279075Y53506D01*
X278990Y53481D01*
X278905Y53453D01*
X278822Y53420D01*
X278740Y53384D01*
X278660Y53345D01*
X278582Y53302D01*
X278506Y53256D01*
X278431Y53206D01*
X278359Y53153D01*
X278290Y53097D01*
X278223Y53038D01*
X278158Y52977D01*
X278097Y52912D01*
X278038Y52845D01*
X277982Y52776D01*
X277929Y52704D01*
X277879Y52629D01*
X277833Y52553D01*
X277790Y52475D01*
X277751Y52395D01*
X277715Y52313D01*
X277682Y52230D01*
X277654Y52145D01*
X277629Y52060D01*
X277607Y51973D01*
X277590Y51885D01*
X277577Y51797D01*
X277567Y51708D01*
X277561Y51619D01*
X277559Y51530D01*
X277559Y49484D01*
X302197Y39074D02*
X309563Y36619D01*
X309563Y41529D02*
X302197Y39074D01*
X302197Y44926D02*
X309563Y44926D01*
X302197Y44108D02*
X302197Y45745D01*
X309563Y45745D02*
X309563Y44108D01*
X309563Y48976D02*
X302197Y48976D01*
X302197Y53068D02*
X309563Y48976D01*
X309563Y53068D02*
X302197Y53068D01*
X328014Y38396D02*
X335380Y35941D01*
X335380Y40852D02*
X328014Y38396D01*
X328014Y44248D02*
X335380Y44248D01*
X328014Y43430D02*
X328014Y45067D01*
X335380Y45067D02*
X335380Y43430D01*
X335380Y48298D02*
X328014Y48298D01*
X328014Y52391D02*
X335380Y48298D01*
X335380Y52391D02*
X328014Y52391D01*
D12*
X219964Y65024D03*
D11*
X232563Y31814D02*
X232563Y26226D01*
X229459Y26226D02*
X232563Y31814D01*
X229459Y31814D02*
X229459Y26226D01*
X225669Y26226D02*
X224427Y26226D01*
X225669Y26226D02*
X225739Y26228D01*
X225808Y26234D01*
X225877Y26244D01*
X225945Y26257D01*
X226013Y26275D01*
X226079Y26296D01*
X226144Y26321D01*
X226208Y26349D01*
X226270Y26381D01*
X226330Y26416D01*
X226388Y26455D01*
X226443Y26497D01*
X226497Y26542D01*
X226547Y26590D01*
X226595Y26640D01*
X226640Y26694D01*
X226682Y26749D01*
X226721Y26807D01*
X226756Y26867D01*
X226788Y26929D01*
X226816Y26993D01*
X226841Y27058D01*
X226862Y27124D01*
X226880Y27192D01*
X226893Y27260D01*
X226903Y27329D01*
X226909Y27398D01*
X226911Y27468D01*
X226910Y27468D02*
X226910Y30573D01*
X226911Y30573D02*
X226909Y30643D01*
X226903Y30712D01*
X226893Y30781D01*
X226880Y30849D01*
X226862Y30917D01*
X226841Y30983D01*
X226816Y31048D01*
X226788Y31112D01*
X226756Y31174D01*
X226721Y31234D01*
X226682Y31292D01*
X226640Y31347D01*
X226595Y31401D01*
X226547Y31451D01*
X226497Y31499D01*
X226443Y31544D01*
X226388Y31586D01*
X226330Y31625D01*
X226270Y31660D01*
X226208Y31692D01*
X226144Y31720D01*
X226079Y31745D01*
X226013Y31766D01*
X225945Y31784D01*
X225877Y31797D01*
X225808Y31807D01*
X225739Y31813D01*
X225669Y31815D01*
X225669Y31814D02*
X224427Y31814D01*
D10*
X131635Y38626D02*
X124269Y38626D01*
X124269Y42718D02*
X131635Y38626D01*
X131635Y42718D02*
X124269Y42718D01*
X124269Y47799D02*
X124269Y49435D01*
X124269Y47799D02*
X124271Y47721D01*
X124276Y47643D01*
X124286Y47566D01*
X124299Y47489D01*
X124315Y47413D01*
X124335Y47338D01*
X124359Y47264D01*
X124386Y47191D01*
X124417Y47119D01*
X124451Y47049D01*
X124488Y46981D01*
X124529Y46914D01*
X124573Y46849D01*
X124619Y46787D01*
X124669Y46727D01*
X124721Y46669D01*
X124776Y46614D01*
X124834Y46562D01*
X124894Y46512D01*
X124956Y46466D01*
X125021Y46422D01*
X125088Y46381D01*
X125156Y46344D01*
X125226Y46310D01*
X125298Y46279D01*
X125371Y46252D01*
X125445Y46228D01*
X125520Y46208D01*
X125596Y46192D01*
X125673Y46179D01*
X125750Y46169D01*
X125828Y46164D01*
X125906Y46162D01*
X129998Y46162D01*
X130076Y46164D01*
X130154Y46169D01*
X130231Y46179D01*
X130308Y46192D01*
X130384Y46208D01*
X130459Y46228D01*
X130533Y46252D01*
X130606Y46279D01*
X130678Y46310D01*
X130748Y46344D01*
X130817Y46381D01*
X130883Y46422D01*
X130948Y46466D01*
X131010Y46512D01*
X131070Y46562D01*
X131128Y46614D01*
X131183Y46669D01*
X131235Y46727D01*
X131285Y46787D01*
X131331Y46849D01*
X131375Y46914D01*
X131416Y46981D01*
X131453Y47049D01*
X131487Y47119D01*
X131518Y47191D01*
X131545Y47264D01*
X131569Y47338D01*
X131589Y47413D01*
X131605Y47489D01*
X131618Y47566D01*
X131628Y47643D01*
X131633Y47721D01*
X131635Y47799D01*
X131635Y49435D01*
X108013Y39134D02*
X100647Y39134D01*
X100647Y43226D02*
X108013Y39134D01*
X108013Y43226D02*
X100647Y43226D01*
X100647Y48307D02*
X100647Y49943D01*
X100647Y48307D02*
X100649Y48229D01*
X100654Y48151D01*
X100664Y48074D01*
X100677Y47997D01*
X100693Y47921D01*
X100713Y47846D01*
X100737Y47772D01*
X100764Y47699D01*
X100795Y47627D01*
X100829Y47557D01*
X100866Y47489D01*
X100907Y47422D01*
X100951Y47357D01*
X100997Y47295D01*
X101047Y47235D01*
X101099Y47177D01*
X101154Y47122D01*
X101212Y47070D01*
X101272Y47020D01*
X101334Y46974D01*
X101399Y46930D01*
X101466Y46889D01*
X101534Y46852D01*
X101604Y46818D01*
X101676Y46787D01*
X101749Y46760D01*
X101823Y46736D01*
X101898Y46716D01*
X101974Y46700D01*
X102051Y46687D01*
X102128Y46677D01*
X102206Y46672D01*
X102284Y46670D01*
X106376Y46670D01*
X106454Y46672D01*
X106532Y46677D01*
X106609Y46687D01*
X106686Y46700D01*
X106762Y46716D01*
X106837Y46736D01*
X106911Y46760D01*
X106984Y46787D01*
X107056Y46818D01*
X107126Y46852D01*
X107195Y46889D01*
X107261Y46930D01*
X107326Y46974D01*
X107388Y47020D01*
X107448Y47070D01*
X107506Y47122D01*
X107561Y47177D01*
X107613Y47235D01*
X107663Y47295D01*
X107709Y47357D01*
X107753Y47422D01*
X107794Y47489D01*
X107831Y47557D01*
X107865Y47627D01*
X107896Y47699D01*
X107923Y47772D01*
X107947Y47846D01*
X107967Y47921D01*
X107983Y47997D01*
X107996Y48074D01*
X108006Y48151D01*
X108011Y48229D01*
X108013Y48307D01*
X108013Y49943D01*
M02*
